<?xml version="1.0" encoding="utf-8"?>
<!-- Generator: Adobe Illustrator 24.0.0, SVG Export Plug-In . SVG Version: 6.00 Build 0)  -->
<svg version="1.1" id="Слой_1" xmlns="http://www.w3.org/2000/svg" xmlns:xlink="http://www.w3.org/1999/xlink" x="0px" y="0px"
	 viewBox="0 0 1000 1000" style="enable-background:new 0 0 1000 1000;" xml:space="preserve">
<style type="text/css">
	.st0{opacity:0.2;fill:url(#SVGID_1_);enable-background:new    ;}
	.st1{opacity:0.1;fill:url(#SVGID_2_);enable-background:new    ;}
	.st2{fill:#194F74;}
	.st3{fill:#E39C74;}
	.st4{fill:#CCCCDA;}
	.st5{fill:#1F2C3C;}
	.st6{fill:#DBD4DC;}
	.st7{fill:#00A0A4;}
	.st8{fill:#57453F;}
	.st9{fill:#F6B88C;}
	.st10{fill:#F1EBE1;}
	.st11{fill:#233A57;}
	.st12{opacity:0.1;fill:#FFFFFF;}
	.st13{fill:#00B2BD;}
	.st14{fill:#FFFFFF;}
	.st15{fill:#999999;}
	.st16{fill:#808080;}
	.st17{opacity:0.1;fill:url(#SVGID_3_);enable-background:new    ;}
	.st18{opacity:0.28;fill:url(#SVGID_4_);enable-background:new    ;}
	.st19{opacity:0.28;fill:url(#SVGID_5_);enable-background:new    ;}
	.st20{opacity:0.28;fill:url(#SVGID_6_);enable-background:new    ;}
	.st21{opacity:0.28;fill:url(#SVGID_7_);enable-background:new    ;}
	.st22{opacity:0.2;}
	.st23{fill:#0C2057;}
	.st24{fill:#F1F1F1;}
	.st25{opacity:0.68;}
	.st26{opacity:0.42;fill:#FFFFFF;}
	.st27{opacity:0.2;fill:#FFFFFF;}
	.st28{fill:url(#SVGID_8_);}
	.st29{fill:url(#SVGID_9_);enable-background:new    ;}
	.st30{fill:url(#SVGID_10_);}
	.st31{fill:#9494D5;}
	.st32{fill:url(#SVGID_11_);enable-background:new    ;}
	.st33{fill:url(#SVGID_12_);}
	.st34{fill:url(#SVGID_13_);enable-background:new    ;}
	.st35{fill:url(#SVGID_14_);}
	.st36{fill:url(#SVGID_15_);enable-background:new    ;}
	.st37{fill:url(#SVGID_16_);}
	.st38{fill:url(#SVGID_17_);enable-background:new    ;}
	.st39{fill:url(#SVGID_18_);}
	.st40{fill:url(#SVGID_19_);enable-background:new    ;}
	.st41{fill:#F6B895;}
	.st42{fill:#1C3249;}
	.st43{fill:#C69C6D;}
	.st44{fill:#E7AF8D;}
	.st45{fill:#603415;}
	.st46{fill:#D38DAA;}
	.st47{fill:#F0C3A0;}
	.st48{fill:#6E3E1B;}
	.st49{fill:#452C2B;}
</style>
<g>
	<linearGradient id="SVGID_1_" gradientUnits="userSpaceOnUse" x1="-5.3875" y1="440.0704" x2="1010.4077" y2="440.0704">
		<stop  offset="0" style="stop-color:#00B1BC"/>
		<stop  offset="1" style="stop-color:#6E68C8"/>
	</linearGradient>
	<path class="st0" d="M533.6,801.1c-99.6,7.4-296,4.7-338-147.1s-148.7-349.1,4.7-455S581.1,51.3,764.7,92.4S1032,342.3,941.5,495.6
		C848.1,654,729.9,786.6,533.6,801.1z"/>
	<linearGradient id="SVGID_2_" gradientUnits="userSpaceOnUse" x1="-5.3875" y1="883.1202" x2="1010.4077" y2="883.1202">
		<stop  offset="0" style="stop-color:#00B1BC"/>
		<stop  offset="1" style="stop-color:#6E68C8"/>
	</linearGradient>
	<path class="st1" d="M141.6,927.1c-31.6-0.1-94.2-2.4-109.1-21.4c-14.9-19-50.9-44.2-3.1-55.6c47.7-11.4,119.7-14.2,178.5-7.3
		c58.8,6.9,87.6,33.3,60.4,51.1C240.2,912.3,204,927.3,141.6,927.1z"/>
	<g>
		<g>
			<path class="st2" d="M172.7,844.4c1.2,0.1,2.2,2,2.5,3.5c1.3,6.6,5,26,5,41.5H89.5c0,0-0.2-17.6,19-20.1
				c32.3-4.3,36.5-25.4,42.6-25.3l0.1,3.4c4.9,4,17,1.7,21.4-0.1V844.4z"/>
			<path class="st3" d="M398.6,313.9c0,0,13.7-2.3,16.1-2.8c2.3-0.5-10.5-21.7-3.2-35.2s20.9-13,16.9,10.2c-4,23.2,7,32.3-2,34.1
				c-8.9,1.8-39,9.6-39,9.6L398.6,313.9z"/>
			<rect x="89.5" y="889.4" class="st4" width="90.6" height="8.6"/>
			<g>
				<path class="st5" d="M141.9,865.8c-0.3,0-0.6-0.2-0.7-0.6c-0.5-2.4-0.9-8.3,0-10.8c-3.2-1.9-4.9-8.6-4-12.1
					c0.5-2.3,2-2.3,2.6-2.2c0.8,0.1,1.5,0.6,2.1,1.4c1.8,2.7,1.6,8.6,1.2,11.5c3.1-0.6,10.4-0.9,13.3,1.4c1,0.8,1.4,1.8,1.2,3
					c-0.2,1.2-1,2-2.3,2.3c-3.5,0.9-10.2-2.4-12.8-4.5c-0.4,2-0.4,6.7,0.2,9.6c0.1,0.4-0.2,0.8-0.6,0.9
					C142,865.8,141.9,865.8,141.9,865.8z M143.6,854.5c2.5,1.8,8.4,4.7,11.2,4c0.7-0.2,1.1-0.6,1.2-1.2c0.1-0.6-0.1-1.1-0.6-1.6
					C153.1,853.8,146.4,854,143.6,854.5z M139.3,841.6c-0.2,0-0.6,0.1-0.8,1.1c-0.7,2.7,0.7,8.5,3.1,10.3c0.4-2.6,0.5-8.3-1-10.6
					c-0.3-0.5-0.7-0.7-1.1-0.8C139.4,841.6,139.4,841.6,139.3,841.6z"/>
				<path class="st5" d="M131.6,857.7c-1,0-1.9-0.1-2.6-0.3c-0.4-0.1-0.6-0.5-0.5-0.9c0.1-0.4,0.5-0.6,0.9-0.5
					c3.4,0.9,10.1-0.9,12.4-2.5c0.3-0.2,0.8-0.2,1,0.2c0.2,0.3,0.2,0.8-0.2,1C140.5,856.2,135.5,857.7,131.6,857.7z"/>
				<path class="st5" d="M114.6,873.7c0,0-0.1,0-0.1,0c-0.4-0.1-0.6-0.5-0.6-0.9c0.3-1.3-0.1-3.2-0.9-3.9c-0.3-0.2-0.4-0.7-0.1-1
					c0.2-0.3,0.7-0.4,1-0.1c1.5,1.1,1.7,3.8,1.4,5.3C115.2,873.5,114.9,873.7,114.6,873.7z"/>
				<path class="st5" d="M122.8,873.7C122.8,873.7,122.8,873.7,122.8,873.7c-0.4,0-0.7-0.4-0.7-0.7c0.1-1.6-0.9-5-2.5-5.5
					c-0.4-0.1-0.6-0.5-0.5-0.9c0.1-0.4,0.5-0.6,0.9-0.5c2.6,0.8,3.6,5.3,3.5,6.9C123.5,873.4,123.2,873.7,122.8,873.7z"/>
				<path class="st5" d="M131.3,872.3c-0.4,0-0.7-0.3-0.7-0.6c-0.2-1.6-3-6-5-6.4c-0.4-0.1-0.6-0.5-0.5-0.9c0.1-0.4,0.5-0.6,0.9-0.5
					c2.7,0.6,5.8,5.5,6.1,7.6c0.1,0.4-0.2,0.8-0.6,0.8C131.4,872.3,131.3,872.3,131.3,872.3z"/>
				<path class="st5" d="M139.5,869c-0.3,0-0.6-0.2-0.7-0.5c-0.5-2-5.1-6-7.1-6.2c-0.4,0-0.7-0.4-0.6-0.8c0-0.4,0.4-0.7,0.8-0.6
					c2.6,0.3,7.6,4.7,8.3,7.3c0.1,0.4-0.1,0.8-0.5,0.9C139.6,869,139.5,869,139.5,869z"/>
			</g>
			<path class="st6" d="M172.7,847.3c0,0,0.8-24.6,1.1-29.4c0.3-4.8-1.3-4.5-1.3-4.5l-0.2,1.5c0,0-5.7,2.3-11,2.3c-8,0-9-3.8-9-3.8
				c-3.2-0.3-2.6,4-2.1,13.8c0.5,8.9,0.9,20.1,0.9,20.1S157.9,853,172.7,847.3z"/>
			<path class="st7" d="M86.9,384.5c0,0,7.7-63.5,10.4-93.5c1-11.8,0-42.7,20.8-49.2c16.5-5.2,33.8,4,35.6,17
				c3.9,28.4-29.7,130.6-29.7,130.6"/>
			<path class="st7" d="M322,387.8c6.8-4.1,101.3-64.5,101.3-64.5c0-0.1-2.4-13.4-10.7-21.2c-4,2.3-103.7,49.7-108.5,52.9
				c-4.8,3.2-9.3,11.6-3.7,22.7C305.9,388.8,315.2,391.9,322,387.8z"/>
			<path class="st7" d="M339.2,369.9c0,0-25-58.9-35.8-87c-4.2-11-11.7-41.1-33.6-41.6c-17.3-0.4-31.4,13.2-29.5,26.2
				C244.4,296,305,384.9,305,384.9"/>
			<path class="st3" d="M229.7,225.2l-27.4,28l-33.6-28c0,0,13.6-15.6,6.3-51.1c-4.6-22.4,50.4-33.6,49,0
				C222,221.9,229.7,225.2,229.7,225.2z"/>
			<path class="st8" d="M191.3,88.4c-2.3-1.7-5.5-11.5-4-16.1c1.8-5.5,11.8-8.6,15.5-7.4c13,4.1,4.6,21-1.9,26.9L191.3,88.4z"/>
			<path class="st9" d="M199.8,72L199.8,72c-39.9,0-51,35.4-47.4,67.6c1,8.8,2.9,16.7,5.4,23.6c3.1,10.1,7.2,19.9,11.4,26.5
				c9.3,14.4,17.6,20.4,30.6,20.4c12.9,0,21.3-5.9,30.6-20.4c4.1-6.4,8-15.8,11.1-25.6c2.7-7.2,4.7-15.3,5.7-24.6
				C250.8,107.4,239.8,72,199.8,72z"/>
			<path class="st10" d="M187.3,182c0,0,14.6,2.3,25,0c0,0-3.1,8.9-12.8,8.9C189.9,191,187.3,182,187.3,182z"/>
			<path class="st8" d="M247.5,142.3c0,0,14.5-73.5-47.7-73.5c-59.2,0-47.7,73.5-47.7,73.5c2.9,0,5.5,1.7,6.9,4.3
				c1.6,2.6,1.6,7.8,1.5,8.6c1.1,0,2.4-17.4,2.3-21.3c-0.3-19.7,17.1-23.4,38.9-23.4c21.8,0,33.1,6,34.1,25.8
				c0.1,1.7,2.1,19.2,3.3,19.2c0-0.9,0-5.8,1.5-8.7C242,144.1,244.6,142.3,247.5,142.3z"/>
			<path class="st3" d="M199.3,156.7c-3.2,11.8-7.7,15.8-5.9,18.9c2,3.5,9.9,1.9,9.9,1.9"/>
			<path class="st8" d="M174.5,149.1c0,0,8.6-8.9,14.3,0C188.8,149.1,182.1,144.7,174.5,149.1z"/>
			<path class="st2" d="M110.2,812.4c-0.8-0.9-2.9-0.6-4.3,0c-6.1,2.8-24,11.2-36.5,20.3l53.1,73.4c0,0,14.3-10.2,5.2-27.2
				c-15.4-28.7-0.9-44.5-4.5-49.3l-2.8,1.9c-6.1-1.6-11.4-12.8-12.5-17.4L110.2,812.4z"/>
			
				<rect x="88.1" y="826.6" transform="matrix(0.8101 -0.5863 0.5863 0.8101 -493.6629 219.7993)" class="st4" width="8.6" height="90.6"/>
			<g>
				<path class="st5" d="M111.5,850.2c-0.3,0-0.5-0.2-0.7-0.4c-0.2-0.4,0-0.8,0.4-1c2.7-1.2,6.6-3.9,7.9-5.4
					c-3.2-0.9-9.8-4.4-11.2-7.7c-0.5-1.2-0.3-2.3,0.6-3.2c0.8-0.9,1.9-1.2,3.1-0.8c3.5,1,7.6,7.1,8.9,10c2.1-2,6.8-5.6,10-5.7
					c1-0.1,1.8,0.2,2.4,0.8c0.4,0.4,1.3,1.6-0.2,3.4c-2.3,2.7-8.7,5.2-12.1,3.8c-1.5,2.2-6.5,5.3-8.8,6.3
					C111.7,850.2,111.6,850.2,111.5,850.2z M121.5,842.7c2.8,0.9,8.3-1.4,10.1-3.5c0.8-1,0.5-1.3,0.3-1.4c-0.3-0.3-0.7-0.4-1.3-0.4
					C127.9,837.4,123.4,840.8,121.5,842.7z M110.6,832.9c-0.4,0-0.8,0.2-1.1,0.5c-0.5,0.5-0.6,1-0.3,1.7c1.1,2.7,6.9,5.8,9.8,6.8
					c-1.3-2.6-5-8.1-7.9-8.9C111,832.9,110.8,832.9,110.6,832.9z"/>
				<path class="st5" d="M125.8,855.6c-0.2,0-0.3-0.1-0.5-0.2c-3.2-2.6-5.8-9.4-5.8-12.6c0-0.4,0.3-0.7,0.7-0.7c0,0,0,0,0,0
					c0.4,0,0.7,0.3,0.7,0.7c0,2.7,2.5,9.2,5.2,11.5c0.3,0.3,0.4,0.7,0.1,1C126.2,855.5,126,855.6,125.8,855.6z"/>
				<path class="st5" d="M121.1,876.9c-0.2,0-0.3-0.1-0.5-0.2c-0.3-0.3-0.3-0.7-0.1-1c1-1.1,3.3-2.5,5.1-2c0.4,0.1,0.6,0.5,0.5,0.9
					c-0.1,0.4-0.5,0.6-0.9,0.5c-1-0.3-2.8,0.6-3.6,1.6C121.5,876.9,121.3,876.9,121.1,876.9z"/>
				<path class="st5" d="M116.3,870.2c-0.2,0-0.4-0.1-0.6-0.3c-0.2-0.3-0.2-0.8,0.1-1c1.3-1,5.4-2.8,7.7-1.2c0.3,0.2,0.4,0.7,0.1,1
					c-0.2,0.3-0.7,0.4-1,0.1c-1.3-1-4.6,0.2-5.9,1.2C116.6,870.2,116.4,870.2,116.3,870.2z"/>
				<path class="st5" d="M121.3,862.9c-0.2,0-0.3-0.1-0.5-0.2c-1.5-1.4-6.6-1-8.1-0.3c-0.4,0.2-0.8,0-1-0.3c-0.2-0.4,0-0.8,0.3-1
					c1.9-1,7.7-1.4,9.7,0.5c0.3,0.3,0.3,0.7,0.1,1C121.7,862.9,121.5,862.9,121.3,862.9z"/>
				<path class="st5" d="M120.3,856.3c-0.2,0-0.4-0.1-0.5-0.2c-1.4-1.5-7.2-2.8-9.2-2.1c-0.4,0.1-0.8,0-0.9-0.4
					c-0.1-0.4,0-0.8,0.4-0.9c2.5-1,9.1,0.5,10.8,2.4c0.3,0.3,0.2,0.8-0.1,1C120.6,856.2,120.5,856.3,120.3,856.3z"/>
			</g>
			<path class="st6" d="M107.9,814.1c0,0,19.4-15.1,23.2-18.1c3.7-3.1,4.4-1.7,4.4-1.7l-1.2,1.1c0,0,1.6,6,4.7,10.3
				c4.7,6.4,8.4,5,8.4,5c2.1,2.4-1.7,4.4-10,9.8c-7.5,4.8-16.9,11-16.9,11S111.9,829.4,107.9,814.1z"/>
			<path class="st8" d="M225.5,149c0,0-8.5-8.9-14.2,0C211.3,149,217.9,144.7,225.5,149z"/>
			<path class="st8" d="M192.1,144.5c0,0-3.3-2.6-6.7-3.4c-3-0.7-5.3-3-9.9-1.8c-4.6,1.2-7.8,6.2-8.2,6.9c-0.4,0.7,1.1-4.4,2.9-6.4
				c1.8-2,5-4.2,9.4-3.9c4.4,0.2,10.1,2,11.3,3.4C192.3,140.8,195.4,142.8,192.1,144.5z"/>
			<path class="st8" d="M209,145c0,0,2.9-2.6,6-3.4c2.6-0.7,5.4-2.5,9.5-1.3c4,1.2,6.2,5.7,6.5,6.4c0.3,0.7-1-4.4-2.6-6.4
				s-4.4-4.2-8.4-3.9c-3.9,0.2-8.9,2-10.1,3.4S206.1,143.3,209,145z"/>
			<path class="st11" d="M199.4,558.1c2.7,30.1,6.9,118.4,6.9,118.4l-93.9,127.7c2.9,18,20.4,23,20.4,23s103.7-84.6,125.8-122.5
				c5.3-9.2,10-130.5,12.9-164.2c1.2-13.1,1.6-53.3,1.6-53.3h-76.4h-0.1h-76.4c0,0-2.3,39.5-2,52.7c0.9,35.1,12.5,139.8,12.5,139.8
				L143.1,842c0,0,22.4,6.4,36.6-1.2l3.1-161.1c0,0,8.8-74.1,13-104L199.4,558.1z"/>
			<ellipse class="st8" cx="182" cy="150.4" rx="3.4" ry="3.9"/>
			<ellipse class="st8" cx="217" cy="150.3" rx="3.4" ry="3.7"/>
			<path class="st8" d="M199.9,114.5c10.7,0,39.7,1.4,39.7-18.8c0-23.8-19.4-26.9-39.6-26.9s-39.6,3.1-39.6,26.9
				C160.4,115,189.2,114.6,199.9,114.5z"/>
			<g>
				<path class="st12" d="M190.4,161.7H168c-2,0-3.7-1.5-3.8-3.5l-1-12.5c-0.2-2.3,1.6-4.2,3.9-4.2h25c2.8,0,5,2.6,4.5,5.4l-2,11.3
					C194.3,160.2,192.5,161.7,190.4,161.7z"/>
				<path d="M190.4,162.1H168c-2.2,0-4-1.7-4.2-3.9l-1-12.5c-0.1-1.2,0.3-2.4,1.1-3.2c0.8-0.9,2-1.4,3.1-1.4h25
					c1.5,0,2.8,0.6,3.8,1.8c0.9,1.1,1.3,2.6,1.1,4l-2,11.3C194.6,160.5,192.7,162.1,190.4,162.1z M167.1,141.8c-1,0-1.9,0.4-2.6,1.1
					c-0.7,0.7-1,1.7-0.9,2.7l1,12.5c0.1,1.8,1.7,3.2,3.5,3.2h22.4c1.9,0,3.5-1.4,3.9-3.3l2-11.3c0.2-1.2-0.1-2.5-0.9-3.4
					c-0.8-1-2-1.5-3.2-1.5H167.1z"/>
			</g>
			<g>
				<path class="st12" d="M208.5,161.7H231c2,0,3.7-1.5,3.8-3.5l1-12.5c0.2-2.3-1.6-4.2-3.9-4.2h-25c-2.8,0-5,2.6-4.5,5.4l2,11.3
					C204.7,160.2,206.5,161.7,208.5,161.7z"/>
				<path d="M231,162.1h-22.4c-2.3,0-4.2-1.6-4.6-3.9l-2-11.3c-0.3-1.4,0.1-2.9,1.1-4c0.9-1.1,2.3-1.8,3.8-1.8h25
					c1.2,0,2.3,0.5,3.1,1.4c0.8,0.9,1.2,2.1,1.1,3.2l-1,12.5C235,160.4,233.2,162.1,231,162.1z M206.8,141.8c-1.2,0-2.4,0.5-3.2,1.5
					c-0.8,1-1.1,2.2-0.9,3.4l2,11.3c0.3,1.9,2,3.3,3.9,3.3H231c1.8,0,3.3-1.4,3.5-3.2l1-12.5c0.1-1-0.3-1.9-0.9-2.7
					c-0.7-0.7-1.6-1.1-2.6-1.1H206.8z"/>
			</g>
			<rect x="196.6" y="146.6" width="5.8" height="0.7"/>
			<rect x="157.3" y="138.2" transform="matrix(0.2916 -0.9566 0.9566 0.2916 -26.0321 252.8636)" width="0.7" height="11.5"/>
			<rect x="235.5" y="143.5" transform="matrix(0.9608 -0.2773 0.2773 0.9608 -30.4133 72.7429)" width="12.9" height="0.7"/>
			<path class="st9" d="M240.6,148.2c1-4.1,2.7-6.9,4.8-6.9c3.5,0,6,7.8,4.7,15.7c-1.3,8.2-3.9,16.4-6.9,15.6
				c-0.9-0.2-1.7-1.5-2.3-3.5"/>
			<path class="st13" d="M273.2,349.7c0.1-42.8,17.7-100.5,7.7-105.5c-15.5-7.8-33.2-7.6-44-14.8L202,254l-38.6-24.4
				c-10.8,7.2-35.3,6.7-50.8,14.4c-10,5,4.3,59.9,5.6,103.7c2.3,79,1.4,150.6,1.4,150.6s15.5,8.6,77.2,8.9
				c61.7-0.3,76.3-8.9,76.3-8.9S273.1,425.9,273.2,349.7z"/>
			<path class="st3" d="M245,161.2c-0.3,0.6-0.8,1.1-1.2,0.7c-0.6-0.6-0.1-1.2-0.1-2.2c0-0.9-0.3-1.4-0.5-2.2c-0.2-1-0.2-1.6,0-2.6
				c0.5-3.6,1.6-8.1,3.7-8.3v-0.1c-0.9-1.2-2.2-0.4-3,1c-0.7,1.4-0.8,3.6-1.4,5.2c-0.5,1.5-1.6,3.9-0.7,5.3c0.3,0.5,0.9,0.4,1,1.5
				c0.1,1.4-0.6,1.4-0.8,2.3c-0.2,0.7-0.1,1.4,0.4,1.7c0.3,0.2,0.4-0.3,0.6-0.3c0.2,0.1,0.3,0.3,0.4,0.5c0.4,0.4,0.5,1.1,1,0.4
				c0.4-0.6,0.4-2,0.6-2.9"/>
			<path class="st9" d="M159,148.2c-1-4.1-2.7-6.9-4.8-6.9c-3.5,0-6,7.8-4.7,15.7c1.3,8.2,3.9,16.4,6.9,15.6
				c0.9-0.2,1.7-1.5,2.4-3.5"/>
			<path class="st3" d="M154.6,161.2c0.3,0.6,0.8,1.1,1.2,0.7c0.6-0.6,0.1-1.2,0.1-2.2c0-0.9,0.3-1.4,0.5-2.2c0.2-1,0.2-1.6,0-2.6
				c-0.5-3.6-1.6-8.1-3.7-8.3v-0.1c0.9-1.2,2.3-0.4,3,1c0.7,1.4,0.8,3.6,1.4,5.2c0.5,1.5,1.6,3.9,0.7,5.3c-0.3,0.5-0.9,0.4-1,1.5
				c-0.1,1.4,0.6,1.4,0.8,2.3c0.2,0.7,0,1.4-0.4,1.7c-0.3,0.2-0.4-0.3-0.6-0.3c-0.2,0.1-0.3,0.3-0.4,0.5c-0.4,0.4-0.5,1.1-1,0.4
				c-0.4-0.6-0.4-2-0.6-2.9"/>
			<polygon class="st7" points="168.6,225.2 202.4,250.7 229.7,225.2 237.7,229.6 202.2,259.8 162.9,229.9 			"/>
		</g>
		<path class="st3" d="M229.1,226.1l-27.6,28.1l-33.8-28.1c0,0,13.6-15.7,6.4-51.4c-4.6-22.5,50.7-33.8,49.3,0
			C221.4,222.7,229.1,226.1,229.1,226.1z"/>
		<path class="st14" d="M192.6,338.4h26c1.3,0,2.4-1.1,2.5-2.4l1.7-61.8c0-1.4-1.1-2.5-2.5-2.5h-28.7c-1.4,0-2.5,1.1-2.5,2.5l1,61.8
			C190.2,337.3,191.3,338.4,192.6,338.4z"/>
		<path class="st8" d="M190.6,88.5c-2.3-1.7-5.5-11.6-4-16.2c1.8-5.5,11.9-8.6,15.6-7.4c13.1,4.1,4.6,21.1-1.9,27L190.6,88.5z"/>
		<path class="st9" d="M199.2,72.1L199.2,72.1c-40.2,0-51.2,35.6-47.6,68c1,8.9,2.9,16.8,5.4,23.7c3.1,10.1,7.2,20,11.5,26.6
			c9.3,14.5,17.7,20.5,30.7,20.5c13,0,21.4-6,30.7-20.5c4.1-6.4,8.1-15.9,11.2-25.7c2.7-7.2,4.7-15.4,5.7-24.7
			C250.4,107.6,239.3,72.1,199.2,72.1z"/>
		<path class="st10" d="M186.6,184.9c0,0,14.7,1.7,25.2,0c0,0-3.1,6.8-12.8,6.8C189.2,191.6,186.6,184.9,186.6,184.9z"/>
		<path class="st8" d="M247.1,142.7c0,0,14.6-73.8-47.9-73.8c-59.5,0-47.9,73.8-47.9,73.8c2.9,0,5.5,1.7,6.9,4.3
			c1.6,2.6,1.7,7.8,1.5,8.6c1.2,0,2.4-17.5,2.3-21.5c-0.3-19.8,16.8-20.3,38.7-20.3c21.9,0,33.7,2.8,34.7,22.6
			c0.1,1.7,2.1,19.3,3.3,19.3c0-0.9,0-5.9,1.5-8.8C241.5,144.5,244.2,142.7,247.1,142.7z"/>
		<path class="st3" d="M222.3,295.3c0,0,0,0-3.3,2.3c-3.3,2.3-9.4,2.1-5.4,0.7c4-1.4,7.3-5.5,8.8-7.9c1-1.6,0-2.7,0-2.7
			s-2.3,1.3-7,4.5c-4.7,3.1-17,7.5-5.2,0c11.7-7.5,11.7-9.9,10.4-10.2c-7.3-1.8-20.7,9.2-26.8,13.5c-6.6,4.7-6.5,9.9-7.5,14.6
			c-1.2,5.8-10.4,12.9-10.4,12.9c0.7,9.1,12.7,13.4,13,11.7c0.3-1.7,7.2-9.8,17.1-12.5c8.2-2.2,12.5-10.8,16-19.9
			C223.9,297.3,222.3,295.3,222.3,295.3z"/>
		<path class="st7" d="M89.6,379.7c5.9-4.7,91.4-67.8,91.4-67.8c0.1,0,11.5,7.9,16.1,18.2c-3.4,2.8-78.4,74.7-82.9,77.9
			c-4.5,3.2-13.7,4.2-22.2-5C83.6,393.9,83.7,384.4,89.6,379.7z"/>
		<path class="st3" d="M198.6,160.8c-3.2,10.5-7.7,14.1-5.9,16.9c2,3.1,10,1.7,10,1.7"/>
		<path class="st8" d="M173.7,153.8c0,0,8.6,8.9,14.3,0C188,153.8,181.3,158.2,173.7,153.8z"/>
		<path class="st8" d="M224.7,153.9c0,0-8.6,8.9-14.3,0C210.4,153.9,217,158.2,224.7,153.9z"/>
		<path class="st8" d="M191.4,148c0,0-3.3-2.6-6.8-3.4c-3-0.7-5.3-3-9.9-1.8c-4.6,1.2-7.8,6.2-8.2,6.9c-0.4,0.7,1.1-4.4,2.9-6.4
			s5-4.2,9.5-3.9c4.4,0.2,10.1,2,11.4,3.5C191.5,144.3,194.6,146.2,191.4,148z"/>
		<path class="st8" d="M208.4,148.5c0,0,3-2.6,6-3.4c2.6-0.7,5.5-2.5,9.5-1.3c4.1,1.2,6.2,5.7,6.5,6.4c0.3,0.7-1-4.4-2.6-6.4
			c-1.6-2-4.5-4.2-8.4-3.9s-9,2-10.1,3.5S205.5,146.7,208.4,148.5z"/>
		<path class="st8" d="M199.2,117.7c10.8,0,40,1.5,40-20.1c0-25.4-19.5-28.7-39.8-28.7s-39.8,3.3-39.8,28.7
			C159.5,118.2,188.5,117.7,199.2,117.7z"/>
		<g>
			<path class="st12" d="M189.7,166.6h-22.6c-2,0-3.7-1.5-3.8-3.6l-1-12.6c-0.2-2.3,1.6-4.2,3.9-4.2h25.1c2.9,0,5,2.6,4.5,5.4
				l-2,11.4C193.6,165.1,191.8,166.6,189.7,166.6z"/>
			<path d="M189.7,167h-22.6c-2.2,0-4-1.7-4.2-3.9l-1-12.6c-0.1-1.2,0.3-2.4,1.1-3.3c0.8-0.9,2-1.4,3.2-1.4h25.1
				c1.5,0,2.9,0.6,3.8,1.8c0.9,1.1,1.3,2.6,1.1,4.1l-2,11.4C193.9,165.4,192,167,189.7,167z M166.3,146.6c-1,0-1.9,0.4-2.6,1.1
				c-0.7,0.7-1,1.7-0.9,2.7l1,12.6c0.1,1.8,1.7,3.2,3.5,3.2h22.6c1.9,0,3.6-1.4,3.9-3.3l2-11.4c0.2-1.2-0.1-2.5-0.9-3.5
				c-0.8-1-2-1.5-3.2-1.5H166.3z"/>
		</g>
		<g>
			<path class="st12" d="M207.9,166.6h22.6c2,0,3.7-1.5,3.8-3.6l1-12.6c0.2-2.3-1.6-4.2-3.9-4.2h-25.1c-2.9,0-5,2.6-4.5,5.4l2,11.4
				C204,165.1,205.8,166.6,207.9,166.6z"/>
			<path d="M230.5,167h-22.6c-2.3,0-4.2-1.6-4.6-3.9l-2-11.4c-0.3-1.4,0.1-2.9,1.1-4.1c0.9-1.1,2.3-1.8,3.8-1.8h25.1
				c1.2,0,2.3,0.5,3.2,1.4c0.8,0.9,1.2,2.1,1.1,3.3l-1,12.6C234.5,165.3,232.7,167,230.5,167z M206.2,146.6c-1.3,0-2.4,0.5-3.2,1.5
				c-0.8,1-1.1,2.2-0.9,3.5l2,11.4c0.3,1.9,2,3.3,3.9,3.3h22.6c1.8,0,3.3-1.4,3.5-3.2l1-12.6c0.1-1-0.3-2-0.9-2.7
				c-0.7-0.7-1.6-1.1-2.6-1.1H206.2z"/>
		</g>
		<rect x="195.9" y="151.5" width="5.8" height="0.7"/>
		<rect x="158.6" y="142.8" transform="matrix(0.6839 -0.7296 0.7296 0.6839 -57.2572 162.5675)" width="0.7" height="9.2"/>
		<rect x="234.2" y="147.1" transform="matrix(0.7835 -0.6214 0.6214 0.7835 -39.8859 180.479)" width="9.7" height="0.7"/>
		<path class="st9" d="M240.2,148.6c1-4.1,2.7-6.9,4.8-6.9c3.5,0,6,7.8,4.7,15.7c-1.3,8.2-3.9,16.5-6.9,15.7
			c-0.9-0.2-1.7-1.5-2.4-3.6"/>
		<path class="st3" d="M244.6,161.7c-0.3,0.6-0.8,1.1-1.2,0.7c-0.6-0.6-0.1-1.2-0.1-2.2c0-0.9-0.3-1.5-0.5-2.2c-0.2-1-0.2-1.6,0-2.6
			c0.5-3.6,1.6-8.1,3.7-8.4v-0.1c-0.9-1.2-2.3-0.4-3,1c-0.7,1.4-0.8,3.6-1.4,5.2c-0.5,1.5-1.6,3.9-0.7,5.3c0.3,0.5,0.9,0.4,1,1.6
			c0.1,1.4-0.6,1.4-0.8,2.3c-0.2,0.7-0.1,1.4,0.4,1.7c0.3,0.2,0.4-0.3,0.6-0.3c0.2,0.1,0.3,0.3,0.4,0.5c0.4,0.4,0.5,1.2,1,0.4
			c0.4-0.6,0.4-2,0.6-2.9"/>
		<path class="st9" d="M158.1,148.6c-1-4.1-2.7-6.9-4.8-6.9c-3.6,0-6,7.8-4.7,15.7c1.4,8.2,4,16.5,7,15.7c0.9-0.2,1.8-1.5,2.4-3.6"
			/>
		<path class="st3" d="M153.7,161.7c0.3,0.6,0.8,1.1,1.2,0.7c0.6-0.6,0.1-1.2,0.1-2.2c0-0.9,0.3-1.5,0.5-2.2c0.2-1,0.2-1.6,0-2.6
			c-0.5-3.6-1.6-8.1-3.8-8.4v-0.1c0.9-1.2,2.3-0.4,3,1c0.7,1.4,0.8,3.6,1.4,5.2c0.5,1.5,1.6,3.9,0.7,5.3c-0.3,0.5-0.9,0.4-1,1.6
			c-0.1,1.4,0.6,1.4,0.8,2.3c0.2,0.7,0,1.4-0.4,1.7c-0.3,0.2-0.4-0.3-0.7-0.3c-0.2,0.1-0.3,0.3-0.4,0.5c-0.4,0.4-0.5,1.2-1,0.4
			c-0.4-0.6-0.4-2-0.6-2.9"/>
		<ellipse class="st15" cx="195.9" cy="277.8" rx="3.5" ry="3.2"/>
		<ellipse class="st16" cx="195.9" cy="277.8" rx="2.1" ry="1.9"/>
	</g>
	<linearGradient id="SVGID_3_" gradientUnits="userSpaceOnUse" x1="-5.3875" y1="909.6588" x2="1010.4077" y2="909.6588">
		<stop  offset="0" style="stop-color:#00B1BC"/>
		<stop  offset="1" style="stop-color:#6E68C8"/>
	</linearGradient>
	<path class="st17" d="M855.3,880.7c31.8-0.2,94.9,0.9,110.6,13.2s52.8,28.7,5.1,36.5c-47.7,7.9-120,10.3-179.5,6.2
		c-59.5-4.1-89.4-21.2-62.6-33.1C756.5,891.2,792.5,881.1,855.3,880.7z"/>
	<linearGradient id="SVGID_4_" gradientUnits="userSpaceOnUse" x1="-5.3875" y1="843.1393" x2="1010.4077" y2="843.1393">
		<stop  offset="0" style="stop-color:#00B1BC"/>
		<stop  offset="1" style="stop-color:#6E68C8"/>
	</linearGradient>
	<path class="st18" d="M427.8,848.3c-3.5,4.8-11.8,6.3-18.6,3.4c-6.8-2.9-9.4-9.1-5.9-13.8c3.5-4.8,11.8-6.3,18.6-3.4
		C428.7,837.4,431.4,843.6,427.8,848.3z"/>
	<linearGradient id="SVGID_5_" gradientUnits="userSpaceOnUse" x1="-5.3875" y1="195.7934" x2="1010.4077" y2="195.7934">
		<stop  offset="0" style="stop-color:#00B1BC"/>
		<stop  offset="1" style="stop-color:#6E68C8"/>
	</linearGradient>
	<path class="st19" d="M951.3,180.8c6.1,0.3,13.3,7.3,16.1,15.5c2.8,8.3,0.1,14.7-6.1,14.4s-13.3-7.3-16.1-15.5
		S945.1,180.5,951.3,180.8z"/>
	<linearGradient id="SVGID_6_" gradientUnits="userSpaceOnUse" x1="-5.3875" y1="130.5022" x2="1010.4077" y2="130.5022">
		<stop  offset="0" style="stop-color:#00B1BC"/>
		<stop  offset="1" style="stop-color:#6E68C8"/>
	</linearGradient>
	<path class="st20" d="M883.3,95.4c0,0-27.7,8.7,7.7,39.5c35.4,30.8,60,41.3,51.3,19.7S927.3,91.2,883.3,95.4z"/>
	<linearGradient id="SVGID_7_" gradientUnits="userSpaceOnUse" x1="-5.3875" y1="825.4411" x2="1010.4077" y2="825.4411">
		<stop  offset="0" style="stop-color:#00B1BC"/>
		<stop  offset="1" style="stop-color:#6E68C8"/>
	</linearGradient>
	<path class="st21" d="M368.1,823c5.5,6.7,2.1,16.9-6.2,19.4c-14.1,4.3-36.5,7.3-54.4-7.7c-28.3-23.8,10.9-39.7,35.7-22.3
		C361.2,824.9,363.4,817.3,368.1,823z"/>
	<g>
		<g class="st22">
			<rect x="435.2" y="83.9" class="st14" width="329.9" height="589.2"/>
			<path class="st23" d="M766.6,674.6H433.7V82.4h332.8V674.6z M436.7,671.6h327V85.3h-327V671.6z"/>
		</g>
		<g>
			<g>
				<path class="st11" d="M756.8,61.5l-6.9,0l-44.9,0l-23.7,0l-127.3,0l-108.5-0.1c-9.3,0-17,8.5-17,19.1l-0.1,175.9l0,197.8
					l-0.1,36.8l0,0l0,69.6l-0.1,153.2c0,1.9,0.3,3.7,0.8,5.4c2.1,7.9,8.6,13.6,16.2,13.6l57.8,0l43.6,0l115,0.1l41.9,0l52.9,0
					c9.4,0,17-8.5,17-19l0.2-621.8l0-11.5C773.8,70.1,766.2,61.5,756.8,61.5z M760.1,652.6c0,7.4-5.4,13.4-12,13.4h-14.2
					c-0.3,0-0.7,0.1-1,0.1l-39.1,0l-47.2,0l-45.6,0H453.9c-6.6,0-12-6-12-13.4V110.1c0-7.4,5.4-13.4,12-13.4h14.5c0.3,0,0.5,0,0.8,0
					l62.1,0l67.9,0h148.9c6.6,0,12,6,12,13.4V652.6z"/>
			</g>
			<g>
				<path class="st24" d="M606.7,722.1L606.7,722.1c-12.8,0-23.2-10.4-23.2-23.2l0,0c0-12.8,10.4-23.2,23.2-23.2l0,0
					c12.8,0,23.2,10.4,23.2,23.2l0,0C629.9,711.7,619.5,722.1,606.7,722.1z"/>
			</g>
			<g class="st25">
				<polygon class="st26" points="681.4,61.5 658.7,96.7 459.9,405.2 428.4,454.1 428.4,256.3 460,207.4 531.3,96.7 554,61.4 				
					"/>
				<polygon class="st27" points="750,61.5 727.2,96.8 459.8,511.6 459.8,511.7 428.3,560.5 428.4,490.9 428.3,490.9 459.9,442 
					459.9,441.9 682.3,96.8 705.1,61.5 				"/>
			</g>
		</g>
		<g>
			<g>
				
					<ellipse transform="matrix(0.3809 -0.9246 0.9246 0.3809 47.6168 492.7166)" class="st14" cx="391.8" cy="210.8" rx="48.1" ry="48.1"/>
				<linearGradient id="SVGID_8_" gradientUnits="userSpaceOnUse" x1="342.1932" y1="210.7991" x2="441.3256" y2="210.7991">
					<stop  offset="0" style="stop-color:#00B1BC"/>
					<stop  offset="1" style="stop-color:#6E68C8"/>
				</linearGradient>
				<path class="st28" d="M391.8,260.4c-27.3,0-49.6-22.2-49.6-49.6s22.2-49.6,49.6-49.6s49.6,22.2,49.6,49.6
					S419.1,260.4,391.8,260.4z M391.8,164.2c-25.7,0-46.6,20.9-46.6,46.6s20.9,46.6,46.6,46.6c25.7,0,46.6-20.9,46.6-46.6
					S417.5,164.2,391.8,164.2z"/>
			</g>
			<linearGradient id="SVGID_9_" gradientUnits="userSpaceOnUse" x1="174.4236" y1="219.3002" x2="774.0449" y2="219.3002">
				<stop  offset="0" style="stop-color:#00B1BC"/>
				<stop  offset="1" style="stop-color:#6E68C8"/>
			</linearGradient>
			<path class="st29" d="M401.2,211.5c4.7-3.1,7.9-8.4,7.9-14.5c0-9.6-7.8-17.3-17.3-17.3c-9.6,0-17.3,7.8-17.3,17.3
				c0,6.1,3.1,11.4,7.9,14.5c-10.8,2.6-18.8,12.2-18.8,23.7v14.4c7.9,5.8,17.7,9.2,28.3,9.2c10.6,0,20.3-3.5,28.3-9.2v-14.4
				C420,223.7,412,214.1,401.2,211.5z"/>
		</g>
		<g>
			<g>
				<path class="st14" d="M682.2,162.7h-212c-3.9,0-7.1,3.2-7.1,7.1v59.7c-0.3,5-2.6,16.6-17.1,22.6c-20.6,8.7,9.8,7.1,24.2,7.1h212
					c3.9,0,7.1-3.2,7.1-7.1v-82.3C689.3,165.9,686.1,162.7,682.2,162.7z"/>
				<linearGradient id="SVGID_10_" gradientUnits="userSpaceOnUse" x1="437.6289" y1="211.0118" x2="690.7866" y2="211.0118">
					<stop  offset="0" style="stop-color:#00B1BC"/>
					<stop  offset="1" style="stop-color:#6E68C8"/>
				</linearGradient>
				<path class="st30" d="M457.4,260.8c-13.9,0-19.2-0.7-19.8-3.6c-0.4-2.1,1.8-3.9,7.8-6.5c13.8-5.8,15.9-16.9,16.2-21.4l0-59.6
					c0-4.7,3.8-8.6,8.6-8.6h212c4.7,0,8.6,3.8,8.6,8.6v82.3c0,4.7-3.8,8.6-8.6,8.6h-212c-1.8,0-3.8,0-5.9,0
					C461.8,260.8,459.5,260.8,457.4,260.8z M440.8,256.6c2.8,1.4,16.1,1.3,23.5,1.2c2.2,0,4.2,0,6,0h212c3.1,0,5.6-2.5,5.6-5.6
					v-82.3c0-3.1-2.5-5.6-5.6-5.6h-212c-3.1,0-5.6,2.5-5.6,5.6v59.7c-0.3,5.1-2.6,17.6-18,24C442.7,255.1,441.3,256.1,440.8,256.6z"
					/>
			</g>
			<g>
				<rect x="485" y="208.5" class="st31" width="157.2" height="4.4"/>
				<linearGradient id="SVGID_11_" gradientUnits="userSpaceOnUse" x1="485.0462" y1="191.1672" x2="631.2588" y2="191.1672">
					<stop  offset="0" style="stop-color:#00B1BC"/>
					<stop  offset="1" style="stop-color:#6E68C8"/>
				</linearGradient>
				<path class="st32" d="M630.4,187.5H485.9c-0.5,0-0.9,0.4-0.9,0.9v5.5c0,0.5,0.4,0.9,0.9,0.9h144.4c0.5,0,0.9-0.4,0.9-0.9v-5.5
					C631.3,187.9,630.9,187.5,630.4,187.5z"/>
				<rect x="485" y="219.5" class="st31" width="157.2" height="4.4"/>
				<rect x="485" y="230" class="st31" width="17.8" height="4.4"/>
			</g>
		</g>
		<g>
			<g>
				
					<ellipse transform="matrix(0.3809 -0.9246 0.9246 0.3809 -59.9136 627.9626)" class="st14" cx="439" cy="358.7" rx="48.1" ry="48.1"/>
				<linearGradient id="SVGID_12_" gradientUnits="userSpaceOnUse" x1="389.4269" y1="358.7236" x2="488.5593" y2="358.7236">
					<stop  offset="0" style="stop-color:#00B1BC"/>
					<stop  offset="1" style="stop-color:#6E68C8"/>
				</linearGradient>
				<path class="st33" d="M439,408.3c-27.3,0-49.6-22.2-49.6-49.6s22.2-49.6,49.6-49.6s49.6,22.2,49.6,49.6S466.3,408.3,439,408.3z
					 M439,312.1c-25.7,0-46.6,20.9-46.6,46.6c0,25.7,20.9,46.6,46.6,46.6s46.6-20.9,46.6-46.6C485.6,333,464.7,312.1,439,312.1z"/>
			</g>
			<linearGradient id="SVGID_13_" gradientUnits="userSpaceOnUse" x1="221.6575" y1="367.2248" x2="821.2787" y2="367.2248">
				<stop  offset="0" style="stop-color:#00B1BC"/>
				<stop  offset="1" style="stop-color:#6E68C8"/>
			</linearGradient>
			<path class="st34" d="M448.5,359.4c4.7-3.1,7.9-8.4,7.9-14.5c0-9.6-7.8-17.3-17.3-17.3c-9.6,0-17.3,7.8-17.3,17.3
				c0,6.1,3.1,11.4,7.9,14.5c-10.8,2.6-18.8,12.2-18.8,23.7v14.4c7.9,5.8,17.7,9.2,28.3,9.2c10.6,0,20.3-3.5,28.3-9.2v-14.4
				C467.3,371.6,459.2,362,448.5,359.4z"/>
		</g>
		<g>
			<g>
				<path class="st14" d="M729.5,310.6h-212c-3.9,0-7.1,3.2-7.1,7.1v59.7c-0.3,5-2.6,16.6-17.1,22.6c-20.6,8.7,9.8,7.1,24.2,7.1h212
					c3.9,0,7.1-3.2,7.1-7.1v-82.3C736.5,313.8,733.4,310.6,729.5,310.6z"/>
				<linearGradient id="SVGID_14_" gradientUnits="userSpaceOnUse" x1="484.8626" y1="358.9367" x2="738.0196" y2="358.9367">
					<stop  offset="0" style="stop-color:#00B1BC"/>
					<stop  offset="1" style="stop-color:#6E68C8"/>
				</linearGradient>
				<path class="st35" d="M504.7,408.7c-13.9,0-19.2-0.7-19.8-3.6c-0.4-2.1,1.8-3.9,7.8-6.5c13.8-5.8,15.9-16.9,16.2-21.4l0-59.6
					c0-4.7,3.8-8.6,8.6-8.6h212c4.7,0,8.6,3.8,8.6,8.6v82.3c0,4.7-3.8,8.6-8.6,8.6h-212c-1.8,0-3.8,0-5.9,0
					C509,408.7,506.8,408.7,504.7,408.7z M488,404.5c2.8,1.4,16.1,1.3,23.5,1.2c2.2,0,4.2,0,6,0h212c3.1,0,5.6-2.5,5.6-5.6v-82.3
					c0-3.1-2.5-5.6-5.6-5.6h-212c-3.1,0-5.6,2.5-5.6,5.6v59.7c-0.3,5.1-2.6,17.6-18,24C489.9,403.1,488.5,404.1,488,404.5z"/>
			</g>
			<g>
				<rect x="532.3" y="356.4" class="st31" width="157.2" height="4.4"/>
				<linearGradient id="SVGID_15_" gradientUnits="userSpaceOnUse" x1="532.2801" y1="339.0917" x2="678.4926" y2="339.0917">
					<stop  offset="0" style="stop-color:#00B1BC"/>
					<stop  offset="1" style="stop-color:#6E68C8"/>
				</linearGradient>
				<path class="st36" d="M677.6,335.5H533.2c-0.5,0-0.9,0.4-0.9,0.9v5.5c0,0.5,0.4,0.9,0.9,0.9h144.4c0.5,0,0.9-0.4,0.9-0.9v-5.5
					C678.5,335.8,678.1,335.5,677.6,335.5z"/>
				<rect x="532.3" y="367.5" class="st31" width="157.2" height="4.4"/>
				<rect x="532.3" y="378" class="st31" width="17.8" height="4.4"/>
			</g>
		</g>
		<g>
			<g>
				
					<ellipse transform="matrix(0.3809 -0.9246 0.9246 0.3809 -216.7814 691.2683)" class="st14" cx="407.8" cy="507.5" rx="48.1" ry="48.1"/>
				<linearGradient id="SVGID_16_" gradientUnits="userSpaceOnUse" x1="358.2689" y1="507.5226" x2="457.4005" y2="507.5226">
					<stop  offset="0" style="stop-color:#00B1BC"/>
					<stop  offset="1" style="stop-color:#6E68C8"/>
				</linearGradient>
				<path class="st37" d="M407.8,557.1c-27.3,0-49.6-22.2-49.6-49.6c0-27.3,22.2-49.6,49.6-49.6s49.6,22.2,49.6,49.6
					C457.4,534.9,435.2,557.1,407.8,557.1z M407.8,460.9c-25.7,0-46.6,20.9-46.6,46.6c0,25.7,20.9,46.6,46.6,46.6
					c25.7,0,46.6-20.9,46.6-46.6C454.5,481.8,433.5,460.9,407.8,460.9z"/>
			</g>
			<linearGradient id="SVGID_17_" gradientUnits="userSpaceOnUse" x1="190.499" y1="516.0233" x2="788.2722" y2="516.0233">
				<stop  offset="0" style="stop-color:#00B1BC"/>
				<stop  offset="1" style="stop-color:#6E68C8"/>
			</linearGradient>
			<path class="st38" d="M417.3,508.2c4.7-3.1,7.9-8.4,7.9-14.5c0-9.6-7.8-17.3-17.3-17.3c-9.6,0-17.3,7.8-17.3,17.3
				c0,6.1,3.1,11.4,7.9,14.5c-10.8,2.6-18.8,12.2-18.8,23.7v14.4c7.9,5.8,17.7,9.2,28.3,9.2c10.6,0,20.3-3.5,28.3-9.2V532
				C436.1,520.4,428.1,510.8,417.3,508.2z"/>
		</g>
		<g>
			<g>
				<path class="st14" d="M698.3,459.4h-212c-3.9,0-7.1,3.2-7.1,7.1v59.7c-0.3,5-2.6,16.6-17.1,22.6c-20.6,8.7,9.8,7.1,24.2,7.1h212
					c3.9,0,7.1-3.2,7.1-7.1v-82.3C705.4,462.6,702.2,459.4,698.3,459.4z"/>
				<linearGradient id="SVGID_18_" gradientUnits="userSpaceOnUse" x1="453.704" y1="507.7349" x2="706.8615" y2="507.7349">
					<stop  offset="0" style="stop-color:#00B1BC"/>
					<stop  offset="1" style="stop-color:#6E68C8"/>
				</linearGradient>
				<path class="st39" d="M473.5,557.5c-13.9,0-19.2-0.7-19.8-3.6c-0.4-2.1,1.8-3.9,7.8-6.4c13.8-5.8,15.9-16.9,16.2-21.4l0-59.6
					c0-4.7,3.8-8.6,8.6-8.6h212c4.7,0,8.6,3.8,8.6,8.6v82.3c0,4.7-3.8,8.6-8.6,8.6h-212c-1.8,0-3.8,0-5.9,0
					C477.9,557.5,475.6,557.5,473.5,557.5z M456.9,553.3c2.8,1.4,16.1,1.3,23.5,1.2c2.2,0,4.2,0,6,0h212c3.1,0,5.6-2.5,5.6-5.6
					v-82.3c0-3.1-2.5-5.6-5.6-5.6h-212c-3.1,0-5.6,2.5-5.6,5.6v59.7c-0.3,5.1-2.6,17.6-18,24C458.8,551.8,457.4,552.9,456.9,553.3z"
					/>
			</g>
			<g>
				<rect x="501.1" y="505.2" class="st31" width="157.2" height="4.4"/>
				<linearGradient id="SVGID_19_" gradientUnits="userSpaceOnUse" x1="501.1216" y1="487.8903" x2="647.3342" y2="487.8903">
					<stop  offset="0" style="stop-color:#00B1BC"/>
					<stop  offset="1" style="stop-color:#6E68C8"/>
				</linearGradient>
				<path class="st40" d="M646.4,484.2H502c-0.5,0-0.9,0.4-0.9,0.9v5.5c0,0.5,0.4,0.9,0.9,0.9h144.4c0.5,0,0.9-0.4,0.9-0.9v-5.5
					C647.3,484.6,646.9,484.2,646.4,484.2z"/>
				<rect x="501.1" y="516.3" class="st31" width="157.2" height="4.4"/>
				<rect x="501.1" y="526.8" class="st31" width="17.8" height="4.4"/>
			</g>
		</g>
	</g>
	<g>
		<path class="st14" d="M856.4,307.4l7.8,3.6c1.3,0.6,2.8,0,3.3-1.2l26.3-56.7c0.6-1.3,0-2.8-1.2-3.3l-7.8-3.6
			c-1.3-0.6-2.8,0-3.3,1.2L855.1,304C854.5,305.3,855.1,306.8,856.4,307.4z"/>
		<path class="st41" d="M840.4,309.9c0,0,7.9-5.9,9-11.1c1-5.2,1.6-9.7,10.3-16.1c0,0,4.4-4.3,7.5-1.4c3.1,2.9-1,5.8-5,9.3
			c-4,3.5,3.3,5,7.6,0.6c4.3-4.4,11.7-11,12.9-16.2c2.1-8.6,6.5-6,7.3-2.9c2.8,10.6,2.3,12.9-1,22.1c-4,11.1-15.5,14.9-22.6,16.5
			c-8.5,1.9-14.5,9-14.7,10.5C851.5,322.7,841.1,318.2,840.4,309.9z"/>
		<path class="st42" d="M767.6,363.7c5.8-4.9,74.2-68,74.2-68c0.1,0,17.3,13.3,20.8,23.5c-3.4,2.9-71.2,62.7-75.5,66
			c-4.4,3.3-12.3,9.5-19.6,0.6C760.2,377,761.7,368.5,767.6,363.7z"/>
	</g>
	<g>
		
			<rect x="835" y="879.1" transform="matrix(5.135100e-02 -0.9987 0.9987 5.135100e-02 -121.5919 1709.0808)" class="st43" width="7.5" height="78.9"/>
		<path class="st44" d="M841.4,466.8l2.9,58.9l0.6,156.2L816,875.1l0,0l-0.1,3.9c0,0-4.2,3.2-16.4-0.8l-0.2-4.1l-1.8-190.5
			l-19.2-154.3l-4.7-48.4L841.4,466.8z"/>
		<path class="st45" d="M804.9,171.5c-6.9-9.4-42.1-19.1-60.7,3c-15.3,18.1-21.2,30.2-32.6,48.4c-12.7,20.2,16.9,49.5-11.9,80.6
			c-13.8,14.9-10.7,48.2,24.5,31.8c23.9-11.1,39.9,15.6,43.2-1.4s11.4-80.4,31.7-103.1C819.3,208,820.5,192.8,804.9,171.5z"/>
		<path class="st3" d="M741.2,312c-1.5,5.2,34.3,12.8,48.6,10.4c21.1-3.7,1.1-22.1-2.1-23.8c-7.3-4-16-18.3-12.7-25.2
			c9.2-19.2-9.2-26.1-9.2-26.1s-47.6-8.9-35.7,12.9C742,282,745.7,295.6,741.2,312z"/>
		<path class="st46" d="M807.4,887.1c0,0-1.8-25.9-1.8-30.8c-0.1-4.9,1.7-4.5,1.7-4.5l0,1.7c0,0,5.7,2.6,11,2.8
			c8.1,0.4,10.6-3.4,10.6-3.4c2.5,0.3,0.7,5.2-0.7,15.2c-1.5,10.8-3.5,20-3.5,20S818.5,893.8,807.4,887.1z"/>
		<path class="st47" d="M807.4,884.7c-1,0.1-2.1,0.9-2.1,2.9c-0.1,9.2-6.5,3.6-5.6,25.2l78.8,4.1c0,0,0.9-15.2-15.6-18.4
			c-24.7-4.8-35-13.4-38-13.6l-0.1,3.1c-5.9,2.4-17.3-0.9-17.3-0.9L807.4,884.7z"/>
		<g>
			<g>
				<path class="st14" d="M833.6,898c-0.1,0-0.1,0-0.2,0c-0.3-0.1-0.5-0.4-0.5-0.8c0.7-2.5,0.9-6.6,0.6-8.3
					c-2.4,1.7-8.3,4.2-11.3,3.3c-1.1-0.3-1.7-1.1-1.9-2.1c-0.2-1,0.2-1.9,1.2-2.6c2.6-1.8,8.9-1.3,11.6-0.6
					c-0.2-2.5-0.1-7.7,1.6-9.9c0.5-0.7,1.1-1.1,1.9-1.2c0.5-0.1,1.8,0,2.2,2c0.6,3-1.2,8.8-4,10.3c0.6,2.2,0,7.3-0.5,9.4
					C834.2,897.8,833.9,898,833.6,898z M827.4,887.6c-2,0-4,0.3-5.1,1c-0.5,0.4-0.7,0.8-0.6,1.3c0.1,0.6,0.4,0.9,1,1.1
					c2.4,0.7,7.7-1.5,9.9-2.9C831.4,887.8,829.3,887.6,827.4,887.6z M836.8,877.1C836.8,877.1,836.8,877.1,836.8,877.1
					c-0.4,0-0.8,0.3-1.1,0.7c-1.4,1.9-1.5,6.8-1.3,9.1c2.1-1.4,3.6-6.4,3.1-8.8C837.4,877.2,837,877.1,836.8,877.1z"/>
				<path class="st14" d="M843.5,891.5c-3.5,0-8.2-1.7-10-3.1c-0.3-0.2-0.3-0.6-0.1-0.9c0.2-0.3,0.6-0.3,0.9-0.1
					c1.9,1.5,7.6,3.4,10.6,2.7c0.4-0.1,0.7,0.1,0.8,0.5c0.1,0.3-0.1,0.7-0.5,0.8C844.7,891.4,844.1,891.5,843.5,891.5z"/>
			</g>
			<path class="st14" d="M857.4,902.1c-0.3,0-0.6-0.2-0.6-0.5c-0.2-1.3,0.1-3.6,1.5-4.6c0.3-0.2,0.7-0.1,0.9,0.2
				c0.2,0.3,0.1,0.7-0.2,0.9c-0.7,0.5-1.1,2.2-0.9,3.3c0.1,0.3-0.2,0.7-0.5,0.7C857.4,902.1,857.4,902.1,857.4,902.1z"/>
			<path class="st14" d="M850.2,901.7C850.2,901.7,850.2,901.7,850.2,901.7c-0.4,0-0.6-0.3-0.6-0.6c0-1.5,0.8-5,3.2-5.7
				c0.3-0.1,0.7,0.1,0.8,0.5c0.1,0.3-0.1,0.7-0.5,0.8c-1.4,0.4-2.2,3.1-2.2,4.4C850.8,901.4,850.5,901.7,850.2,901.7z"/>
			<path class="st14" d="M842.9,900.1c0,0-0.1,0-0.1,0c-0.3-0.1-0.6-0.4-0.5-0.8c0.3-1.7,2.9-5.4,5.3-5.8c0.3-0.1,0.7,0.2,0.7,0.5
				c0.1,0.3-0.2,0.7-0.5,0.7c-1.7,0.3-4,3.3-4.3,4.8C843.4,899.9,843.2,900.1,842.9,900.1z"/>
			<path class="st14" d="M836.9,898.4c0,0-0.1,0-0.1,0c-0.3-0.1-0.6-0.4-0.5-0.8c0.4-1.9,3.8-6,6.1-6.4c0.3-0.1,0.7,0.2,0.7,0.5
				c0.1,0.3-0.2,0.7-0.5,0.7c-1.7,0.3-4.8,3.9-5.1,5.4C837.4,898.2,837.2,898.4,836.9,898.4z"/>
		</g>
		<path class="st9" d="M745,170.6c44.8-15.6,52,8.6,60.4,33c16.7,48.1,2.7,73.8-10.7,78.4c-28.3,9.9-58.4-12.9-65.5-27.9
			C719.5,233.7,700.2,186.2,745,170.6z"/>
		<path class="st3" d="M809.4,234.4c5.6,8.3,10.1,10.1,9.6,13c-0.6,3.2-7.1,4.1-7.1,4.1"/>
		<g>
			<path class="st9" d="M756.7,237.7c-1.8-2.5-4.3-4.1-7.2-3.7c-4.8,0.7-7.4,6.4-4.9,11.5c2.6,5.3,7,10.3,11,9.2
				c1.2-0.3,2.2-1.3,2.9-2.8"/>
			<path class="st3" d="M752,247.3c0.4,0.3,1.2,0.6,1.7,0.2c0.7-0.5,0.1-0.9,0-1.5c-0.1-0.6,0.3-1,0.4-1.6c0.2-0.7,0.1-1.1-0.3-1.8
				c-1-2.3-3-5.1-5.9-4.9l0-0.1c1.1-1,3.1-0.7,4.2,0.1c1.1,0.8,1.5,2.2,2.4,3.2c0.8,0.9,2.5,2.3,1.5,3.4c-0.4,0.4-1.2,0.5-1.2,1.2
				c0,0.9,1,0.8,1.4,1.4c0.3,0.4,0.2,1-0.4,1.2c-0.4,0.2-0.6-0.2-0.9-0.1c-0.2,0.1-0.3,0.2-0.6,0.4c-0.5,0.3-0.5,0.9-1.3,0.5
				c-0.6-0.3-0.8-1.2-1.1-1.8"/>
		</g>
		<path class="st7" d="M772.8,478.3l67.8-14c0.9-0.2,1.8,0,2.6,0.5c0.7,0.5,1.2,1.2,1.2,2l2.9,58.9l0.6,156.2c0,0.1,0,0.2,0,0.3
			l-13.4,198.5c0,0-7.9,2.9-19.8,2.3c-11.8-0.6-18.5-4.3-18.5-4.3l-1.9-195.1l-19.2-154.3l-4.7-48.4
			C770.5,479.7,771.4,478.6,772.8,478.3z"/>
		<path class="st46" d="M809.4,675.6c0,0,24.6-8.3,29.3-9.7c4.7-1.3,4.8,0.1,4.8,0.1l-1.5,0.5c0,0-1,6.4,0.1,11.6
			c1.7,7.9,5.9,8.8,5.9,8.8c1,3.1-4.6,2.5-14.7,3.2c-12.4,0.9-20.2,2.2-20.2,2.2S805.9,687.9,809.4,675.6z"/>
		
			<rect x="783.5" y="674.6" transform="matrix(0.9775 -0.211 0.211 0.9775 -132.9542 182.2193)" class="st43" width="7.5" height="78.9"/>
		<path class="st13" d="M741.8,471.5l61.4-17.4l9.5,1.8c7.5,10.5,10.8,14.9,31.5,10.6l13.1,32.6c0,0,132.6,74.2,133.3,91.1
			c0.8,17.6-144.1,112.7-144.1,112.7s-12.6-14.1-17.9-23.9c-4.4-8.1-3.8-14.5-3.8-14.5l87.8-61.1c5.5-2.4-121.2-21-140-46.5
			c-24.1-32.7-12.4-62.9-12.7-75.9C759.7,474.1,746.8,479.4,741.8,471.5z"/>
		<g>
			<path class="st11" d="M721,311.4c10.3-6.8,26.3-14,34.9-19.4c0,0,8.5,13.7,25.1,14.5c16.7,0.7,11.4-4.3,11.4-4.3
				s23,30.9,26.7,35.8c10.1,13.1,9.6,16.6,8.6,40c-0.8,18.5,13.9,56.8,15.6,74.6c1.6,17.8-0.1,22.9-44.1,26.9
				c-44,4-66.3,1.8-70.5-16C723,438.8,713.1,316.7,721,311.4z"/>
		</g>
		<path class="st41" d="M825.8,481.3c0,0,17.3-9,21.8-6.2c0,0-6.2-25.7-8.6-28.3c-2.4-2.6-7.5-8.4-24.5-10.7
			c-17-2.3-21,24.8-16.8,23.2s18.7,1.6,20.7,5.7C821.1,470.8,825.8,481.3,825.8,481.3z"/>
		<path class="st11" d="M738.3,409.2c6.5,2.1,88,22.8,88,22.8c0,0.1-2.5,23.5-8.9,33c-3.9-1.2-82.4-23.4-87.1-25.2
			c-4.7-1.8-13.2-4.9-9.6-16.9C724.4,411,731.8,407.1,738.3,409.2z"/>
		<path class="st11" d="M720.1,425.8c0,0-5.1-56.8-7.1-87.8c-0.8-12.2-5.3-40.7,11.3-47.9c18.2-7.9,33.3,0.3,34.9,13.8
			c4,33.8-1.7,123.8-1.7,123.8"/>
		<path class="st48" d="M788.5,159.6c-6.9-9.4-42.1-19.1-60.7,3c-15.3,18.1-21.2,30.2-32.6,48.4c-12.7,20.2,16.9,49.5-11.9,80.6
			c-13.8,14.9-10.7,48.2,24.5,31.8c23.9-11.1,39.9,15.6,43.2-1.4c3.4-17,11.4-80.4,31.7-103.1C803,196.2,804.2,181,788.5,159.6z"/>
		<path class="st49" d="M792.4,216.4c0,0,3.9-0.7,4.6,1.3s-0.6,3-3.1,3c-2.5,0-5.6-0.5-7.9,0.5c-2.3,1-3.5,2.2-4,3.2
			c-0.5,1-0.8-1.9,0.5-3.5C783.8,219.4,788.2,216.9,792.4,216.4z"/>
		<path class="st49" d="M788.2,232.2c0,0,4.7-11.6,13.4-5.3C801.6,226.9,793.7,225.2,788.2,232.2z"/>
		<path class="st47" d="M811.8,674.9c-0.3-1-1.4-1.8-3.3-1.3c-8.9,2.3-5.2-5.4-25.8,1.1l16.6,77.1c0,0,14.9-3.1,13.7-19.8
			c-1.8-25.1,3.8-37.3,3.2-40.2l-3,0.7c-3.8-5-3.6-16.9-3.6-16.9L811.8,674.9z"/>
		<g>
			<g>
				<path class="st14" d="M822.1,704.2c-2.5,0-5.2-0.6-6.6-2c-2,1.2-7.1,1.9-9.2,1.9c0,0,0,0,0,0c-0.4,0-0.6-0.3-0.6-0.6
					c0-0.4,0.3-0.6,0.6-0.6c2.6,0,6.6-0.8,8.2-1.6c-2.3-1.8-6.3-7-6.2-10.1c0-1.1,0.6-2,1.6-2.4c1-0.4,1.9-0.3,2.8,0.4
					c2.4,2,3.5,8.3,3.6,11c2.4-0.9,7.4-2.1,10-1.1c0.8,0.3,1.3,0.8,1.6,1.5c0.2,0.5,0.4,1.7-1.4,2.6
					C825.4,703.9,823.8,704.2,822.1,704.2z M816.7,701.6c1.9,1.7,7.1,1.8,9.3,0.7c1-0.5,0.8-0.9,0.8-1c-0.1-0.3-0.4-0.6-0.9-0.8
					C823.7,699.6,818.9,700.8,816.7,701.6z M811,689.9c-0.2,0-0.4,0-0.6,0.1c-0.5,0.2-0.8,0.6-0.8,1.3c-0.1,2.5,3.4,7,5.4,8.8
					c-0.1-2.5-1.2-8.2-3.2-9.8C811.6,690,811.3,689.9,811,689.9z"/>
				<path class="st14" d="M815.8,713.5c-0.2,0-0.5-0.1-0.6-0.3c-1.6-3.2-1.3-9.6-0.2-12.1c0.1-0.3,0.5-0.5,0.8-0.3
					c0.3,0.1,0.5,0.5,0.3,0.8c-1,2.2-1.3,8.2,0.1,11c0.2,0.3,0,0.7-0.3,0.9C816,713.4,815.9,713.5,815.8,713.5z"/>
			</g>
			<path class="st14" d="M812.7,728.3c-0.1,0-0.3,0-0.4-0.2c-0.7-0.6-2.4-0.5-3.4,0c-0.3,0.1-0.7,0-0.8-0.3c-0.1-0.3,0-0.7,0.3-0.8
				c1.2-0.6,3.6-0.8,4.8,0.2c0.3,0.2,0.3,0.6,0.1,0.9C813.1,728.2,812.9,728.3,812.7,728.3z"/>
			<path class="st14" d="M812.7,722.4c-0.2,0-0.4-0.1-0.6-0.3c-0.7-1.3-3.6-1.3-4.9-1c-0.3,0.1-0.7-0.1-0.8-0.5
				c-0.1-0.3,0.1-0.7,0.5-0.8c1.6-0.4,5.2-0.4,6.3,1.6c0.2,0.3,0.1,0.7-0.2,0.9C812.9,722.4,812.8,722.4,812.7,722.4z"/>
			<path class="st14" d="M813.1,716.9c-0.2,0-0.5-0.1-0.6-0.4c-0.7-1.5-4.2-3-5.7-2.9c-0.4,0-0.7-0.2-0.7-0.6c0-0.4,0.2-0.7,0.6-0.7
				c1.7-0.1,5.9,1.4,7,3.6c0.1,0.3,0,0.7-0.3,0.8C813.3,716.9,813.2,716.9,813.1,716.9z"/>
			<path class="st14" d="M813.9,711.2c-0.2,0-0.5-0.1-0.6-0.4c-0.7-1.6-5-3.6-6.5-3.5c-0.4,0-0.7-0.2-0.7-0.6c0-0.4,0.2-0.7,0.6-0.7
				c1.9-0.1,6.8,2.1,7.8,4.2c0.1,0.3,0,0.7-0.3,0.8C814.1,711.2,814,711.2,813.9,711.2z"/>
		</g>
		
			<ellipse transform="matrix(0.9292 -0.3695 0.3695 0.9292 -28.506 310.398)" class="st49" cx="796.1" cy="229.6" rx="3.5" ry="4.4"/>
		<path class="st42" d="M724.8,437.3c0,0,87.4,20.1,91.2,25.7"/>
		<path class="st42" d="M823.4,436.5c-5.5-1.5-11-3.2-16.5-4.8c-5.5-1.7-11-3.3-16.4-5.1c-10.9-3.4-21.8-7-32.7-10.7l-1-0.3l0-1.1
			c0.4-11.5,0.9-22.9,1.5-34.4c0.3-5.7,0.6-11.5,1-17.2c0.4-5.7,0.8-11.5,1.3-17.2c0.1,5.7,0.1,11.5,0.1,17.2
			c0,5.7-0.1,11.5-0.2,17.2c-0.2,11.5-0.5,23-0.9,34.4l-1-1.4c10.8,3.7,21.7,7.4,32.5,11.3c5.4,1.9,10.8,3.9,16.1,5.9
			C812.6,432.4,818,434.4,823.4,436.5z"/>
		<path class="st3" d="M809.6,260.5c-1.3,0.6-2.6,1-4,1.2c-1.4,0.3-2.8,0.3-4.2,0.3c-1.4-0.1-2.8-0.3-4.1-1c-1.3-0.6-2.5-1.6-3-2.9
			c1,1,2.2,1.5,3.4,1.9c1.2,0.3,2.5,0.5,3.8,0.6C804.2,260.7,806.8,260.5,809.6,260.5z"/>
	</g>
</g>
</svg>
