<?xml version="1.0" encoding="utf-8"?>
<!-- Generator: Adobe Illustrator 24.0.0, SVG Export Plug-In . SVG Version: 6.00 Build 0)  -->
<svg version="1.1" id="Слой_1" xmlns="http://www.w3.org/2000/svg" xmlns:xlink="http://www.w3.org/1999/xlink" x="0px" y="0px"
	 viewBox="0 0 1000 1000" style="enable-background:new 0 0 1000 1000;" xml:space="preserve">
<style type="text/css">
	.st0{opacity:0.2;fill:url(#SVGID_1_);enable-background:new    ;}
	.st1{opacity:0.1;fill:url(#SVGID_2_);enable-background:new    ;}
	.st2{opacity:0.1;fill:url(#SVGID_3_);enable-background:new    ;}
	.st3{opacity:0.28;fill:url(#SVGID_4_);enable-background:new    ;}
	.st4{opacity:0.28;fill:url(#SVGID_5_);enable-background:new    ;}
	.st5{fill:#B3B3B3;}
	.st6{fill:#233A57;}
	.st7{fill:#CCCCCC;}
	.st8{fill:#00B2BD;}
	.st9{fill:#4D4D4D;}
	.st10{fill:#F4B693;}
	.st11{fill:#E19A74;}
	.st12{fill:#F4B68A;}
	.st13{fill:#EFE9DF;}
	.st14{fill:#1C3249;}
	.st15{fill:#452C2B;}
	.st16{fill:#593833;}
	.st17{fill:#FFFFFF;}
	.st18{fill:url(#SVGID_6_);enable-background:new    ;}
	.st19{opacity:0.15;fill:#231F20;}
	.st20{fill:url(#SVGID_7_);enable-background:new    ;}
	.st21{opacity:0.8;fill:#FFFFFF;enable-background:new    ;}
	.st22{fill:url(#SVGID_8_);enable-background:new    ;}
	.st23{fill:url(#SVGID_9_);enable-background:new    ;}
	.st24{fill:url(#SVGID_10_);enable-background:new    ;}
	.st25{fill:#F6B895;}
	.st26{fill:#DDA885;}
	.st27{fill:#603415;}
	.st28{fill:#E3A17E;}
	.st29{fill:#D38DAA;}
	.st30{fill:#F0C3A0;}
	.st31{fill:#F6B88C;}
	.st32{fill:#6E3E1B;}
	.st33{fill:#E39C74;}
</style>
<g>
	<linearGradient id="SVGID_1_" gradientUnits="userSpaceOnUse" x1="84.7562" y1="534.8676" x2="960.923" y2="534.8676">
		<stop  offset="0" style="stop-color:#00B1BC"/>
		<stop  offset="1" style="stop-color:#6E68C8"/>
	</linearGradient>
	<path class="st0" d="M537.3,209.9c89.6-6.5,266.2-3.7,303.7,133c37.5,136.7,133.1,314.5-5.1,409.4s-342.8,132.3-507.8,94.9
		C163.1,810,88.1,622,169.8,484.1C254.2,341.8,360.7,222.7,537.3,209.9z"/>
	<linearGradient id="SVGID_2_" gradientUnits="userSpaceOnUse" x1="84.7562" y1="797.4463" x2="960.923" y2="797.4463">
		<stop  offset="0" style="stop-color:#00B1BC"/>
		<stop  offset="1" style="stop-color:#6E68C8"/>
	</linearGradient>
	<path class="st1" d="M213,770.8c27,0.5,80.3,2.9,93.2,14.6c12.9,11.7,43.9,27.5,3.3,33.6s-101.9,6.8-152.1,1.8
		s-75.1-21.4-52.1-31.8C129.1,778.3,159.8,769.8,213,770.8z"/>
	<linearGradient id="SVGID_3_" gradientUnits="userSpaceOnUse" x1="84.7562" y1="797.4463" x2="960.923" y2="797.4463">
		<stop  offset="0" style="stop-color:#00B1BC"/>
		<stop  offset="1" style="stop-color:#6E68C8"/>
	</linearGradient>
	<path class="st2" d="M817.5,770.8c27,0.5,80.3,2.9,93.2,14.6c12.9,11.7,43.9,27.5,3.3,33.6s-101.9,6.8-152.1,1.8
		s-75.1-21.4-52.1-31.8C733.6,778.3,764.4,769.8,817.5,770.8z"/>
	<linearGradient id="SVGID_4_" gradientUnits="userSpaceOnUse" x1="84.7562" y1="884.2296" x2="960.923" y2="884.2296">
		<stop  offset="0" style="stop-color:#00B1BC"/>
		<stop  offset="1" style="stop-color:#6E68C8"/>
	</linearGradient>
	<path class="st3" d="M410.1,889.4c-2.3,3.6-11.1,4.1-19.6,1.3c-8.6-2.8-13.7-8-11.4-11.6s11.1-4.1,19.6-1.3
		C407.2,880.6,412.3,885.8,410.1,889.4z"/>
	<linearGradient id="SVGID_5_" gradientUnits="userSpaceOnUse" x1="84.7562" y1="892.2141" x2="960.923" y2="892.2141">
		<stop  offset="0" style="stop-color:#00B1BC"/>
		<stop  offset="1" style="stop-color:#6E68C8"/>
	</linearGradient>
	<path class="st4" d="M527.3,894.6c0,0,19.9-17.4-32.5-16c-52.4,1.4-81.8,7.9-60,14.5C456.7,899.7,489.6,917.5,527.3,894.6z"/>
	<g>
		<polygon class="st5" points="942.4,450.1 990.6,503.2 995.1,498.5 946.9,445.4 		"/>
		<path class="st6" d="M930.7,470.7c0,0-17.4,13.9-20.7,16.8c-3.1,2.8-1.9,3.8-1.9,3.8l1.1-1c0,0,4.9,2.6,8.2,6.2
			c4.9,5.4,4,9.5,4,9.5c1.6,1.6,3.7-2.6,9.3-9.4c6-7.4,10.6-14.3,10.6-14.3S941.3,474.6,930.7,470.7z"/>
		<path class="st7" d="M929.2,472c-0.6-0.8-0.7-2,0.7-3.1c5.7-5.5-1.5-6.7,12.6-18.8l48.2,53.1c0,0-9,9.5-20.7-0.2
			c-17.3-14.6-28.7-16.8-30.6-18.8l1.9-2c-1.9-5.5-10.6-11.7-10.6-11.7L929.2,472z"/>
		<path class="st8" d="M783,386.7l-66.9,53l7.5,12.1c0.2,0.3,0.5,0.6,0.9,0.8c0,0,37.7,18.6,46,28.6c19.5,23.3,64.7,84.6,76.6,84.6
			c13.1,0,98.2-77.8,98.2-77.8c-0.3,0.5-1.7-6.9-4.3-10.3c-4.2-5.3-12.2-7.7-12.2-7.7c-48.9,20.4-72.1,45.8-72.1,45.8
			c-0.4-0.9-9.6-37.8-24.8-65.7c-9.3-17.2-28.8-48.9-38.9-60.2C788.9,385.5,787.9,393.1,783,386.7z"/>
		<polygon class="st5" points="801.1,631.5 763.2,692.4 769,695.5 806.9,634.6 		"/>
		<path class="st6" d="M778.2,626c0,0-18.1-13-21.9-15.3c-3.6-2.2-4.2-0.8-4.2-0.8l1.3,0.8c0,0-1.1,5.4-3.7,9.6
			c-3.9,6.2-8,6.4-8,6.4c-1.1,2,3.5,2.9,11.6,6.4c8.8,3.7,16.7,6.3,16.7,6.3S777.3,637.2,778.2,626z"/>
		<path class="st7" d="M776.4,624.9c0.7-0.8,1.7-1.2,3.2-0.2c6.8,4,6-3.3,21.5,7l-37.9,60.9c0,0-11.7-6.1-5.4-20
			c9.3-20.7,8.3-32.2,9.8-34.6l2.4,1.3c4.8-3.3,8.3-13.4,8.3-13.4L776.4,624.9z"/>
		<g>
			<g>
				<path class="st9" d="M772.1,650.8c-0.1,0-0.1,0-0.2,0c-2-0.6-5.9-2.3-7.3-3.8c-2.5,1.5-7.7,0.2-9.7-1.5
					c-0.9-0.9-1.1-1.9-0.5-2.7c0.5-0.6,1.1-0.9,2-0.9c2.6-0.2,6.4,2.1,8.1,3.3c0.9-2.4,3.9-7.4,6.5-8.4c1.2-0.5,2.1-0.1,2.6,0.3
					c0.8,0.7,1,1.5,0.7,2.5c-0.9,2.7-5.8,6-8.3,7c1.1,1,4.2,2.5,6.4,3.1c0.3,0.1,0.5,0.4,0.4,0.7
					C772.6,650.6,772.4,650.8,772.1,650.8z M756.8,643c-0.1,0-0.2,0-0.2,0c-0.5,0-0.9,0.2-1.1,0.5c-0.1,0.1-0.3,0.4,0.4,1
					c1.6,1.4,5.9,2.5,8,1.5C762.3,644.9,758.9,643,756.8,643z M772.1,637.6c-0.2,0-0.4,0-0.6,0.1c-2.2,0.9-4.8,5.3-5.7,7.4
					c2.3-1,6.6-3.9,7.3-6.1c0.2-0.5,0.1-0.9-0.3-1.2C772.6,637.7,772.4,637.6,772.1,637.6z"/>
				<path class="st9" d="M761.2,656.4c-0.2,0-0.3-0.1-0.4-0.2c-0.2-0.2-0.2-0.6,0-0.9c2-2,3.6-7.1,3.6-9.2c0-0.3,0.3-0.6,0.6-0.6
					c0.3,0,0.6,0.3,0.6,0.6c0,2.4-1.7,7.8-3.9,10.1C761.5,656.4,761.3,656.4,761.2,656.4z"/>
			</g>
			<path class="st9" d="M762.9,670.5c-0.1,0-0.3-0.1-0.4-0.2c-0.7-0.6-2-1.1-2.8-0.8c-0.3,0.1-0.7,0-0.8-0.3c-0.1-0.3,0-0.7,0.3-0.8
				c1.3-0.5,3.2,0.1,4.1,1c0.2,0.2,0.3,0.6,0,0.9C763.2,670.4,763.1,670.5,762.9,670.5z"/>
			<path class="st9" d="M766.3,665c-0.1,0-0.2,0-0.3-0.1c-1.1-0.6-3.5-1.2-4.4-0.4c-0.3,0.2-0.6,0.2-0.9-0.1
				c-0.2-0.3-0.2-0.6,0.1-0.9c1.6-1.3,4.6-0.4,5.8,0.2c0.3,0.2,0.4,0.5,0.2,0.8C766.7,664.9,766.5,665,766.3,665z"/>
			<path class="st9" d="M762.4,660c-0.2,0-0.3-0.1-0.4-0.2c-0.2-0.2-0.2-0.6,0-0.9c1.6-1.6,5.5-1.9,7-1.4c0.3,0.1,0.5,0.4,0.4,0.8
				c-0.1,0.3-0.4,0.5-0.8,0.4c-1.2-0.4-4.7-0.1-5.8,1.1C762.7,659.9,762.5,660,762.4,660z"/>
			<path class="st9" d="M763.6,655c-0.2,0-0.3-0.1-0.4-0.2c-0.2-0.2-0.2-0.6,0-0.9c1.5-1.5,6.4-2.1,7.8-1.7c0.3,0.1,0.5,0.4,0.4,0.8
				c-0.1,0.3-0.4,0.5-0.8,0.4c-1.2-0.4-5.5,0.3-6.6,1.3C763.9,654.9,763.7,655,763.6,655z"/>
		</g>
		<path class="st8" d="M790.9,448.9l-73.5-43.3l-8.6,11.3c-7.1-11.3-6-5-6-4.6c0,0,6.1,13.1-18.2,58.1
			c-14.8,27.4-41.9,91.6-37.6,102.7c4.7,12.2,108,63.6,108,63.6c-0.6-0.1,5.8-4.1,8-7.8c3.5-5.8,3.8-13.2,2.8-14.2
			c-31-33-63.8-56.1-63.8-56.1c0.3-0.3,14.1-15,29-37.5c16.2-24.5,29.2-51.3,39.7-40c6.5,7,9.4-11.8,14.2-20.1
			C787.6,456,786.7,455.7,790.9,448.9z"/>
		<path class="st10" d="M620.1,129.9c0,0,3.1-8.2,1-12.5c-2-4.3-4.1-8-0.7-16.9c0,0,1.1-5.3,5.2-4.6c4.1,0.6,2.4,4.7,1.1,9.2
			c-1.3,4.5,5.4,2.1,6.4-3.2c1-5.3-0.2,11.8-4.6,9.1c-5.7-3.6-7.8-12.3-5.9-14.4c5.8-6.3,24.1,0.6,24.8,4.9
			c1.8,10.4-1.4,11.8-6.2,16.4c-5.7,5.5-6.6,13.6-6,14.8C636,134,625.2,135.7,620.1,129.9z"/>
		<path class="st6" d="M609.6,212.8c0.4-5.8,9-84,9-84c0,0,11.3-2,19.6,1.9c-0.2,3.4,0.8,82.3,0.3,86.5c-0.5,4.2-4.7,9.4-14.3,8.3
			C614.6,224.4,609.2,218.6,609.6,212.8z"/>
		<path class="st6" d="M633.6,201.9c0,0,43.4,25.3,64,37.4c8.1,4.8,30.9,15.1,26.8,29.6c-3.2,11.5-17.2,18.5-27.3,15
			c-22.2-7.7-82.9-62.2-82.9-62.2"/>
		<path class="st6" d="M807.6,249.5c-8.8-4.1-33.6-7.1-40.9-10.4c-3.2-1.4-5.2,4.4-14.6,3.8c-9.4-0.6-18.2-4.1-18.2-4.1
			c-4.1,5.2-36.6,2.8-47.4-4c-6.3-4-26.8,21.2-5.9,39.8c5.3,4.7,7.3,90.9,10.8,121.1c1.6,14,5.6,30.4,49.4,27.4
			c34.1-2.3,59-29.7,59-29.7s-7.9-20.7-1.6-74.1C802,287,814.4,252.7,807.6,249.5z"/>
		<path class="st11" d="M763.5,236.3c3.4,5.7-39.1,15.1-34.9,2.6c0,0,2.6-15.3,0.4-23.4c-4.1-14.7,14.9-18.7,14.9-18.7
			s23.2-11.6,18.8,4.5C758.4,217.4,758.2,227.3,763.5,236.3z"/>
		<path class="st12" d="M757.6,137.8L757.6,137.8c27.3,2.5,33,22.4,30.4,44c-5,41.5-18.5,49.9-28.7,49c-6.2-0.6-29.7-7.8-31.8-17.1
			c-2.1-9.3-6.1-27.5-6.3-33.7C720.6,158.2,730.3,135.3,757.6,137.8z"/>
		<path class="st11" d="M768.6,192.7c1.2,6.9,3.6,9.4,2.4,11.1c-1.3,1.9-5.8,0.6-5.8,0.6"/>
		<path class="st13" d="M770.2,212c0,0-9.8,0.6-16.5-1.5c0,0,1.5,6.1,7.9,6.7C767.9,217.7,770.2,212,770.2,212z"/>
		<path class="st14" d="M728.5,240.3c0,0,10.6,5,35-4l3.1,2.9c0,0-28.7,15.9-42.6,2.4L728.5,240.3z"/>
		<path class="st10" d="M858.4,276c0,0,4.7-7.8,3.8-12.6c-0.9-4.8-1.9-8.9,3.2-17.4c0,0,2.2-5.1,5.8-3.7c3.6,1.5,1.1,5.3-1.1,9.7
			c-2.2,4.3,4.4,3.2,6.6-2c2.1-5.2-2.9,12-6.2,8.4c-4.4-4.9-4.3-14.1-2.1-15.9c6.7-5.2,21.8,5.5,21.5,10.1c-0.8,11-4,11.7-9.4,15.5
			c-6.5,4.5-9.1,12.6-8.8,13.9C872,283.3,861.8,282.9,858.4,276z"/>
		<path class="st6" d="M812.6,349.9c2.9-5.3,45.8-77.7,45.8-77.7c0,0,9.1,1.8,14.6,8.5c-1.6,3.1-34.9,80.2-37.1,83.9
			c-2.2,3.7-8.2,7.1-16.1,2.6C811.9,362.6,809.7,355.2,812.6,349.9z"/>
		<path class="st6" d="M839.2,352.1c0,0-10.6-47-15.7-69.3c-2-8.8-4.6-32.2-20.4-34.6c-12.5-1.9-24,7.2-23.9,17.2
			c0.3,21.9,33.9,95.3,33.9,95.3"/>
		<g>
			<path class="st12" d="M731.8,182.1c-0.8-2-2.3-3.5-4.4-3.7c-3.4-0.3-6.2,3.2-5.3,7.1c1,4,3.1,8.2,6.1,8.1c0.9,0,1.8-0.6,2.4-1.5"
				/>
			<path class="st11" d="M727,188c0.2,0.3,0.8,0.6,1.2,0.4c0.6-0.2,0.2-0.6,0.2-1.1c0-0.4,0.4-0.7,0.6-1c0.3-0.5,0.2-0.7,0.1-1.3
				c-0.3-1.8-1.2-4-3.3-4.3l0-0.1c0.9-0.5,2.2,0,2.9,0.7c0.7,0.7,0.7,1.8,1.1,2.6c0.4,0.7,1.3,2,0.5,2.6c-0.3,0.2-0.9,0.1-1.1,0.6
				c-0.2,0.7,0.5,0.7,0.7,1.2c0.1,0.3,0,0.7-0.4,0.8c-0.3,0.1-0.4-0.2-0.6-0.2c-0.2,0-0.3,0.1-0.4,0.2c-0.4,0.1-0.5,0.5-1,0.1
				C727,189,727.1,188.3,727,188"/>
		</g>
		<path class="st15" d="M747.3,187.3c0,0,6.7-5.8,10.2,0.9C757.5,188.2,753,184.7,747.3,187.3z"/>
		<path class="st15" d="M783.9,192c0,0-5.5-6.9-10.2-0.9C773.8,191.1,778.8,188.4,783.9,192z"/>
		<path class="st15" d="M759.2,183c0,0-2.1-1.5-4.4-2.1c-2-0.5-3.6-0.9-6.7-0.6c-3.1,0.3-5.4,1.7-5.7,2.1c-0.3,0.3,0.9-2.1,2.2-3
			c1.3-0.9,3.5-1.8,6.5-1.4c3,0.4,6.7,1.6,7.5,2.4S761.4,182.3,759.2,183z"/>
		<path class="st15" d="M773.7,185.7c0,0,2.1-1.1,4.2-1.3c1.8-0.2,3.3-0.3,5.9,0.5c2.7,0.9,4.4,2.6,4.6,3s-0.5-2.3-1.5-3.3
			c-1-1.1-2.8-2.4-5.4-2.5s-6.1,0.4-6.9,1.1C773.8,183.8,771.8,184.6,773.7,185.7z"/>
		<path class="st16" d="M735.1,176.9c-0.2,0.8,0,6.5-0.8,9.7c-0.4,1.6-0.9,2.6-1.8,2.2c0-0.3,0-1.1-0.1-2.1
			c-0.1-1.4-0.4-3.2-0.8-4.5c-0.8-1.9-1.8-3.3-3.9-3.5c-0.1,0-0.2,0-0.2,0c-0.1,0-0.1,0-0.2,0c-3.4-0.3-6.1,3.1-5.1,6.8
			c0.9,3.7,2.5,7.4,5.2,8.5c2.2,0.9-2,9.1-2,9.1s-15.9-9.9-14.7-34.6c0.2-4.1,0.3-10.3,1.5-14.3c-0.4,0.9-2.1,4.3-2.1,4.3
			c-3.1-1,0.3-9.7,0.9-11.6c1.5-4.9,4.3-10,8-13.7c3.6-3.7,8.3-5.2,13.5-4.5c1.3,0.2,4,0.5,6.1,1.3c14.9-16.3,42.1-6.5,40.5-0.4
			c-0.4,1.5-2.8,0.5-4.4-0.1c9.7,5.9,15.8,12.9,19,23.8c0.8,2.6,1.8,6.7,1.9,9.9c0.3,7.8-3.3,10.9-8.6,11
			c-4.8,0.1-11.4-5.8-14.8-8.8c-6.8-6-17.2-16-31.8-9.2C734.8,158.6,736.4,171,735.1,176.9z"/>
	</g>
	<g>
		<path class="st17" d="M700.9,339.6c0,0-0.9,118-106.3,157.5c-8.9,3.3-18.5,6.1-28.9,8.2L569,478c0,0,20.8-0.3,44.4-13.6
			c26.1-14.7,55.7-45.2,64.7-108.8c0,0,2.2-13.5-14.6-14.6l-37.8,0l-0.8-20.9l60.9,0C685.9,320.1,700.9,323.9,700.9,339.6z"/>
		
			<linearGradient id="SVGID_6_" gradientUnits="userSpaceOnUse" x1="-236.6921" y1="988.8652" x2="860.683" y2="988.8652" gradientTransform="matrix(0.9679 0.2514 -0.2514 0.9679 301.5747 -693.1934)">
			<stop  offset="0" style="stop-color:#00B1BC"/>
			<stop  offset="1" style="stop-color:#6E68C8"/>
		</linearGradient>
		<path class="st18" d="M700.9,339.6c0,0-0.9,118-106.3,157.5c-8.9,3.3-18.5,6.1-28.9,8.2L569,478c0,0,20.8-0.3,44.4-13.6
			c26.1-14.7,55.7-45.2,64.7-108.8c0,0,2.2-13.5-14.6-14.6l-37.8,0l-0.8-20.9l60.9,0C685.9,320.1,700.9,323.9,700.9,339.6z"/>
		<path class="st19" d="M569,478c0,0,20.8-0.3,44.4-13.6c-5.4,11.7-11.6,22.7-18.9,32.7c-8.9,3.3-18.5,6.1-28.9,8.2L569,478z"/>
		<path class="st19" d="M645.4,320.1c-0.4,6.3-1,13.4-1.8,20.9l-17.9,0l-0.8-20.9L645.4,320.1z"/>
		<path class="st17" d="M482.3,505.3c-13.4-2.7-25.4-6.5-36.3-11.1c-98.2-42-99.2-154.4-99.2-154.4c0-15.7,14.9-19.5,14.9-19.5
			l60.9,0l-0.7,20.9l-37.8,0c-16.8,1.1-14.6,14.6-14.6,14.6c8.2,57.7,33.4,88.2,57.6,104.2c26.5,17.7,51.7,17.9,51.7,17.9
			L482.3,505.3z"/>
		
			<linearGradient id="SVGID_7_" gradientUnits="userSpaceOnUse" x1="-236.6921" y1="1032.7115" x2="860.683" y2="1032.7115" gradientTransform="matrix(0.9679 0.2514 -0.2514 0.9679 301.5747 -693.1934)">
			<stop  offset="0" style="stop-color:#00B1BC"/>
			<stop  offset="1" style="stop-color:#6E68C8"/>
		</linearGradient>
		<path class="st20" d="M482.3,505.3c-13.4-2.7-25.4-6.5-36.3-11.1c-98.2-42-99.2-154.4-99.2-154.4c0-15.7,14.9-19.5,14.9-19.5
			l60.9,0l-0.7,20.9l-37.8,0c-16.8,1.1-14.6,14.6-14.6,14.6c8.2,57.7,33.4,88.2,57.6,104.2c26.5,17.7,51.7,17.9,51.7,17.9
			L482.3,505.3z"/>
		<path class="st19" d="M422.7,320.3l-0.7,20.9l-23.2,0c-0.8-7.6-1.4-14.6-1.8-20.9L422.7,320.3z"/>
		<path class="st19" d="M482.3,505.3c-13.4-2.7-25.4-6.5-36.3-11.1c-7.3-10.4-13.5-22-18.8-34.1c26.5,17.7,51.7,17.9,51.7,17.9
			L482.3,505.3z"/>
		<rect x="426.1" y="714.7" class="st21" width="192.8" height="102.6"/>
		<linearGradient id="SVGID_8_" gradientUnits="userSpaceOnUse" x1="347.1873" y1="406.4704" x2="699.1303" y2="406.4704">
			<stop  offset="0" style="stop-color:#00B1BC"/>
			<stop  offset="1" style="stop-color:#6E68C8"/>
		</linearGradient>
		<path class="st22" d="M544.2,533.1l-3.8,3.2c-4.7,4-10.8,6.2-17,6l-3.8-0.1c-5.4-0.2-10.5-2.1-14.7-5.4l-4.4-3.6
			C404.5,485,407.2,287,407.2,287c0-12.9,15.1-16.3,15.1-16.3l199.7-0.1c0,0,15.1,3.4,15.2,16.3C637.1,286.9,640,484.8,544.2,533.1z
			"/>
		<linearGradient id="SVGID_9_" gradientUnits="userSpaceOnUse" x1="347.1873" y1="765.9978" x2="699.1303" y2="765.9978">
			<stop  offset="0" style="stop-color:#00B1BC"/>
			<stop  offset="1" style="stop-color:#6E68C8"/>
		</linearGradient>
		<rect x="426.1" y="714.7" class="st23" width="192.8" height="102.6"/>
		<rect x="413.1" y="800.8" class="st6" width="218.7" height="16.5"/>
		<linearGradient id="SVGID_10_" gradientUnits="userSpaceOnUse" x1="345.1534" y1="640.1425" x2="702.5783" y2="640.1425">
			<stop  offset="0" style="stop-color:#00B1BC"/>
			<stop  offset="1" style="stop-color:#6E68C8"/>
		</linearGradient>
		<path class="st24" d="M565.5,702.9c-22.4,0-27.2-30.4-28.1-48.3l-0.1-135.2l-30.1,0l0.1,122.5h0c0,0,0,0.2,0,0.6l0,10.3
			c-0.6,17.6-4.9,50.1-28,50.1l28.1,0l0,58l30.1,0l0-58L565.5,702.9z"/>
		<rect x="462.2" y="736.9" class="st17" width="120.5" height="49.2"/>
		<rect x="474.1" y="702.9" class="st6" width="96.4" height="11.8"/>
		<path class="st17" d="M480.2,304.1c0,0-38.9,162,53.5,235.2c0,0-85.2-40.8-94.5-164.1c0,0-2.5-42.8,5.1-71L480.2,304.1z"/>
	</g>
	<g>
		<path class="st25" d="M380.5,143c-0.8-3.6-7.8-10.1-14.4-0.4c-6.6,9.9-11.2,21.8-10.3,29.3c1,9-2.6,18.9-3.7,20.1
			c-1.3,1.3,5.1,8,11.8,3.5c0,0,2.2-11,5.9-15.2c3.6-4.2,7.8-7.8,9.5-19.7C380,156.1,381.6,148,380.5,143z"/>
		<path class="st8" d="M346.6,265.5c1.4-5.7,23-74.7,23-74.7c-2.6-1.8-12.9-5.7-21.2-4.3c-0.9,3.4-22.5,69.7-23.3,73.9
			c-0.9,4.2-2.5,11.8,6.2,13.5C339.9,275.5,345.3,271.3,346.6,265.5z"/>
		<path class="st8" d="M325.1,260.5c0,0-22.6,38-32.9,57.9c-4,7.8-17.6,28.7-8.4,35.1c10.3,7.1,25.7,5.7,30.7-2.7
			c9.8-22.2,31.7-83.9,31.7-83.9L325.1,260.5z"/>
		
			<rect x="257.9" y="776.3" transform="matrix(0.1631 -0.9866 0.9866 0.1631 -576.9907 931.731)" class="st26" width="5.7" height="59.3"/>
		<path class="st27" d="M239.6,214.6c-10.8-4.3-37.1-6.9-52.3,16.6c-12.5,19.3-16.4,31.6-24.9,50.4c-9.5,20.9,23.6,43.4,0.8,77.5
			s0.5,51.3,29.4,26.3c28.9-25,42.2,8.7,42.8-7.8c0.7-16.5-1.8-77.6,15.4-101.7C268.5,251.2,266.6,225.4,239.6,214.6z"/>
		<path class="st28" d="M230.4,320.5c-1.6,3.8,24.5,12.5,35.4,12c16.1-0.9,15.6-8.7,1.8-13.7c-5.8-2.1-11.7-19.2-8.6-24.2
			c8.5-13.6-4.5-20.3-4.5-20.3s-34.7-10.8-27.7,6.6C233.7,298.2,235.2,308.7,230.4,320.5z"/>
		<path class="st29" d="M240,779.9c0,0,0.8-19.4,1.2-23.2c0.4-3.7,1.6-3.2,1.6-3.2l-0.1,1.3c0,0,4.1,2.4,8,3c6,1,8.2-1.6,8.2-1.6
			c1.9,0.4,0.1,4-1.8,11.4c-2,8-4.4,14.7-4.4,14.7S247.7,785.8,240,779.9z"/>
		<path class="st30" d="M240.2,778.2c-0.8,0-1.6,0.4-1.8,2c-0.9,6.8-5.2,2.1-6.4,18.3l58.5,9.7c0,0,2-11.2-10.1-15
			c-18.1-5.6-25-12.9-27.2-13.3l-0.4,2.3c-4.5,1.3-12.9-2.1-12.9-2.1L240.2,778.2z"/>
		<g>
			<g>
				<path class="st17" d="M258.7,790.4c-0.1,0-0.2,0-0.2,0c-0.3-0.1-0.5-0.5-0.3-0.8c0.7-1.8,1.2-4.6,1.2-5.9
					c-2,1.1-6.4,2.3-8.5,1.5c-0.9-0.3-1.5-1.1-1.5-2c0-0.9,0.4-1.6,1.2-2c2.1-1.1,6.5-0.3,8.6,0.5c0.1-1.9,0.6-5.7,2.1-7.2
					c0.5-0.5,1-0.8,1.6-0.7c0.5,0,1.5,0.3,1.6,2.1c0.1,2.3-1.7,6.3-3.9,7.2c0.3,1.9-0.7,5.6-1.3,7
					C259.1,790.2,258.9,790.4,258.7,790.4z M253.3,781.9c-0.9,0-1.6,0.1-2.2,0.4c-0.4,0.2-0.6,0.5-0.6,0.9c0,0.3,0.1,0.6,0.7,0.9
					c1.8,0.7,5.5-0.4,7.2-1.3C257.2,782.3,255.1,781.9,253.3,781.9z M262.7,774.9c-0.2,0-0.4,0.1-0.7,0.4c-1.1,1.2-1.6,4.6-1.7,6.4
					c1.5-0.9,2.9-4,2.8-5.9C263.2,775.3,263,775,262.7,774.9C262.7,774.9,262.7,774.9,262.7,774.9z"/>
				<path class="st17" d="M267.5,786.4c-2.7,0-6.7-1.9-8.2-3.2c-0.2-0.2-0.3-0.6,0-0.9c0.2-0.2,0.6-0.3,0.9,0
					c1.4,1.2,5.4,3.1,7.7,2.9c0.3,0,0.6,0.2,0.7,0.6c0,0.3-0.2,0.6-0.6,0.7C267.8,786.4,267.6,786.4,267.5,786.4z"/>
			</g>
			<path class="st17" d="M276.1,795.5c-0.3,0-0.6-0.2-0.6-0.6c-0.1-1.2,0.4-2.8,1.5-3.4c0.3-0.2,0.7-0.1,0.8,0.2
				c0.2,0.3,0.1,0.7-0.2,0.8c-0.5,0.3-1,1.4-0.9,2.2C276.7,795.2,276.5,795.5,276.1,795.5C276.1,795.5,276.1,795.5,276.1,795.5z"/>
			<path class="st17" d="M270.8,794.7C270.8,794.7,270.7,794.7,270.8,794.7c-0.4-0.1-0.7-0.4-0.6-0.7c0.2-1.2,1.2-3.7,2.9-4.1
				c0.3-0.1,0.6,0.2,0.7,0.5c0.1,0.3-0.2,0.6-0.5,0.7c-0.9,0.2-1.7,1.9-1.9,3.1C271.4,794.5,271.1,794.7,270.8,794.7z"/>
			<path class="st17" d="M265.5,792.7c-0.1,0-0.1,0-0.2,0c-0.3-0.1-0.5-0.5-0.4-0.8c0.5-1.3,2.7-3.8,4.6-3.9c0.3,0,0.6,0.2,0.6,0.6
				c0,0.3-0.2,0.6-0.6,0.6c-1.3,0.1-3.2,2.2-3.5,3.1C266,792.5,265.7,792.7,265.5,792.7z"/>
			<path class="st17" d="M261.1,791c-0.1,0-0.1,0-0.2,0c-0.3-0.1-0.5-0.5-0.4-0.8c0.5-1.3,3.3-4.2,5.1-4.3c0.3,0,0.6,0.2,0.7,0.6
				c0,0.3-0.2,0.6-0.6,0.7c-1.2,0.1-3.7,2.5-4.1,3.5C261.6,790.9,261.3,791,261.1,791z"/>
		</g>
		
			<rect x="-3" y="503.4" transform="matrix(0.6635 -0.7482 0.7482 0.6635 -369.7557 190.2791)" class="st26" width="59.3" height="5.7"/>
		<path class="st29" d="M59.8,502.5c0,0,16,11.1,19,13.4c2.9,2.3,1.9,3.1,1.9,3.1l-1.1-0.8c0,0-4.2,2.2-6.8,5.2c-4,4.5-3,7.8-3,7.8
			c-1.3,1.3-3.4-2.1-8.7-7.5c-5.6-6-10.1-11.5-10.1-11.5S50.7,505.9,59.8,502.5z"/>
		<path class="st30" d="M61.2,503.6c0.5-0.7,0.5-1.6-0.7-2.6c-5.3-4.4,0.9-5.5-12.1-15.2L9,530.2c0,0,8.4,7.6,18.1-0.6
			c14.4-12.3,24.3-14.3,25.8-16l-1.8-1.6c1.3-4.5,8.7-9.8,8.7-9.8L61.2,503.6z"/>
		<g>
			<g>
				<path class="st17" d="M51.6,525.8c-0.4,0-0.8-0.1-1.4-0.4c-2-1.2-4.4-4.8-4-7.1c-1.7-0.8-4.3-3.5-5.2-4.8
					c-0.2-0.3-0.1-0.7,0.1-0.8c0.3-0.2,0.7-0.1,0.8,0.1c1.1,1.6,3.2,3.5,4.3,4.2c0.1-2.3,1.4-6.6,3.3-8c0.8-0.6,1.7-0.7,2.5-0.2
					c0.8,0.5,1.1,1.2,1,2.1c-0.2,2.3-3.3,5.6-5,7c1.6,1.1,4.5,3.5,5,5.6c0.2,0.7,0.1,1.3-0.2,1.7C52.7,525.4,52.3,525.8,51.6,525.8z
					 M47.4,518.8c0,1.7,1.8,4.6,3.5,5.5c0.5,0.3,0.9,0.3,1,0.1c0.1-0.2,0.1-0.4,0.1-0.8C51.5,522.1,48.9,519.8,47.4,518.8z
					 M51,509.6c-0.2,0-0.4,0.1-0.7,0.3c-1.5,1.1-2.6,4.9-2.8,6.8c1.5-1.2,4.2-4.2,4.3-6c0-0.5-0.1-0.7-0.4-1
					C51.3,509.7,51.2,509.6,51,509.6z"/>
				<path class="st17" d="M40,523.6c-0.1,0-0.2,0-0.3-0.1c-0.3-0.2-0.4-0.5-0.3-0.8c1.2-2.4,5.3-5,7.3-5.6c0.3-0.1,0.7,0.1,0.7,0.4
					c0.1,0.3-0.1,0.7-0.4,0.7c-1.8,0.5-5.5,3-6.5,5C40.4,523.5,40.2,523.6,40,523.6z"/>
			</g>
			<path class="st17" d="M29.6,528.2C29.6,528.2,29.6,528.2,29.6,528.2c-0.4,0-0.6-0.3-0.6-0.6c0-0.6-0.7-1.6-1.4-1.9
				c-0.3-0.2-0.4-0.5-0.3-0.8c0.2-0.3,0.5-0.4,0.8-0.3c1,0.5,2.1,1.9,2.1,3.1C30.2,527.9,29.9,528.2,29.6,528.2z"/>
			<path class="st17" d="M33.1,525.6c-0.1,0-0.2,0-0.2,0c-0.3-0.1-0.5-0.5-0.3-0.8c0.3-0.8-0.7-2.5-1.6-3.2
				c-0.3-0.2-0.3-0.6-0.1-0.9c0.2-0.3,0.6-0.3,0.9-0.1c0.7,0.6,2.6,2.8,1.9,4.6C33.6,525.5,33.4,525.6,33.1,525.6z"/>
			<path class="st17" d="M36.7,523.6c-0.1,0-0.2,0-0.3-0.1c-0.3-0.2-0.4-0.5-0.2-0.8c0.6-1.1-0.2-3.9-0.8-4.7
				c-0.2-0.3-0.1-0.6,0.1-0.8c0.3-0.2,0.6-0.1,0.8,0.1c0.8,1.1,1.8,4.3,0.9,6C37.1,523.5,36.9,523.6,36.7,523.6z"/>
			<path class="st17" d="M40.5,521.4c-0.1,0-0.2,0-0.3-0.1c-0.3-0.2-0.4-0.5-0.3-0.8c0.5-1-0.2-4.5-0.8-5.3
				c-0.2-0.3-0.1-0.6,0.1-0.8c0.3-0.2,0.6-0.2,0.8,0.1c0.8,1.1,1.7,5,0.9,6.6C40.9,521.3,40.7,521.4,40.5,521.4z"/>
		</g>
		<path class="st31" d="M203.6,221.2c30-19.3,39.5-2.9,49.9,13.4c20.7,32.2,15,53.4,6.1,59.1c-18.9,12.2-45,0.9-52.8-8.8
			C196.2,271.8,173.6,240.5,203.6,221.2z"/>
		<path class="st6" d="M261,775.3c0,0-4.6,1.2-13.4-0.3c-8.8-1.5-13.4-8.5-13.4-8.5l5.2-135.9L236,518l0.7-36.5
			c-0.1-1.1,0.6-1.7,1.7-1.8l25.1-49.8c0.7,0,31.4,4.9,31.8,5.3c0.5,0.4-2.4,41.2-2.5,41.8l-2.8,44.2l-10.7,112.3L261,775.3z"/>
		<path class="st32" d="M238.9,214.8c-8.5-8.5-46.2-12.7-61.8,12.9c-12.8,21.1-16.8,34.4-25.6,54.9c-9.8,22.7,25.4,48,0.8,84.5
			c-11.7,17.5-3.2,51.2,30.2,28.7c22.7-15.2,43.4,9.5,44.1-8.5s-1.3-84.2,15.8-110.8S258.4,234.2,238.9,214.8z"/>
		<path class="st6" d="M222.6,424.7l70.2,52.7l-7.8,12c-0.2,0.3-0.6,0.6-0.9,0.8l-42,15.9c0,0-74.2,96.7-86.7,96.7
			c-13.7,0-103.1-77.4-103.1-77.4c0.3,0.5,1.8-6.9,4.6-10.2c4.4-5.3,12.8-7.7,12.8-7.7l75.6,45.6c0.4-0.9,26.2-44.5,37.7-71.8
			c7.6-18.1,23.5-39.1,29.9-46.5C216.9,430.3,217.5,431,222.6,424.7z"/>
		<g>
			<path class="st8" d="M184.9,322.8c-4.3-7.1,20.1-31.8,29.5-18.8c7.7,10.7,16.3,7.8,18.5,6.8c0,0,16.8,11.3,30.9,13
				c14.1,1.7,3.8-5.1,3.8-5.1s18.9,9.6,25-1.3c4.4-7.9,30.4,12.2,23.2,30.7c-5,12.9-14.1,75.9-14.1,89.3c0,13.4-8.8,16.8-46.6,16.8
				s-56.5-3.2-58.8-16.8C193.4,418.6,201.7,350.7,184.9,322.8z"/>
		</g>
		<path class="st32" d="M208.9,382.4"/>
		<path class="st32" d="M279.2,376.8"/>
		<path class="st25" d="M94.5,133.1c-3.2-1.8-12.8-1.1-10,10.4c2.9,11.6,8.6,23,14.7,27.4c7.3,5.3,12.2,14.7,12.4,16.3
			c0.1,1.8,9.4,1.6,10.5-6.4c0,0-6.7-9-7.2-14.6c-0.7-5.6-0.5-11.1-8.2-20.3C103.8,142.3,99,135.6,94.5,133.1z"/>
		<path class="st8" d="M162.2,240.8c-3.3-4.9-39.6-67.4-39.6-67.4c-3.1,0.7-12.9,5.7-17.5,12.8c1.9,3,36.3,63.6,38.9,67.1
			c2.5,3.5,7,9.9,14.1,4.5C165,252.5,165.5,245.6,162.2,240.8z"/>
		<path class="st8" d="M144.3,253.8c0,0,22.3,39,34.1,58.1c4.6,7.5,15.5,29.9,25.7,25.3c11.3-5.1,17.9-21,13.3-29.7
			c-16.5-17.9-54.6-65.7-54.6-65.7L144.3,253.8z"/>
		<path class="st33" d="M260.1,251.2c3.9,5.1,6.9,6.2,6.6,8c-0.3,2.1-4.4,2.9-4.4,2.9"/>
		<path class="st13" d="M267,268.1c0,0-7.4,4.8-13.9,3.5c0,0,4.4,10,9.7,8.7C268.2,278.9,267,268.1,267,268.1z"/>
	</g>
</g>
</svg>
