<?xml version="1.0" encoding="utf-8"?>
<!-- Generator: Adobe Illustrator 24.0.0, SVG Export Plug-In . SVG Version: 6.00 Build 0)  -->
<svg version="1.1" id="Слой_1" xmlns="http://www.w3.org/2000/svg" xmlns:xlink="http://www.w3.org/1999/xlink" x="0px" y="0px"
	 viewBox="0 0 1000 1000" style="enable-background:new 0 0 1000 1000;" xml:space="preserve">
<style type="text/css">
	.st0{opacity:0.28;fill:url(#SVGID_1_);enable-background:new    ;}
	.st1{opacity:0.28;fill:url(#SVGID_2_);enable-background:new    ;}
	.st2{opacity:0.28;fill:url(#SVGID_3_);enable-background:new    ;}
	.st3{opacity:0.2;fill:url(#SVGID_4_);enable-background:new    ;}
	.st4{opacity:0.2;fill:url(#SVGID_5_);enable-background:new    ;}
	.st5{opacity:0.2;fill:url(#SVGID_6_);enable-background:new    ;}
	.st6{fill:url(#SVGID_7_);}
	.st7{opacity:0.1;fill:#FFFFFF;enable-background:new    ;}
	.st8{opacity:0.1;enable-background:new    ;}
	.st9{fill:#100A0A;}
	.st10{fill:#0E202D;}
	.st11{fill:#CCCCDA;}
	.st12{fill:#233A57;}
	.st13{fill:#081723;}
	.st14{fill:#E19A74;}
	.st15{fill:#F4B68A;}
	.st16{fill:#3C2727;}
	.st17{fill:#194F74;}
	.st18{fill:#1F2C3C;}
	.st19{fill:#00B2BD;}
	.st20{fill:#CCCCCC;}
	.st21{fill:#E6E6E6;}
	.st22{fill:#B3B3B3;}
	.st23{fill:#F7931E;}
	.st24{fill:#F2F2F2;}
	.st25{fill:#F4B693;}
	.st26{fill:#1C3249;}
	.st27{fill:#EFE9DF;}
	.st28{fill:#B27D4F;}
	.st29{fill:#6C3506;}
	.st30{fill:#4399A9;}
	.st31{fill:#5CAEC0;}
	.st32{fill:#FFD985;}
</style>
<g>
	
		<linearGradient id="SVGID_1_" gradientUnits="userSpaceOnUse" x1="2658.0496" y1="3321.5935" x2="3674.7454" y2="3321.5935" gradientTransform="matrix(0.1724 0.985 -0.985 0.1724 3613.8611 -3594.459)">
		<stop  offset="0" style="stop-color:#00B1BC"/>
		<stop  offset="1" style="stop-color:#6E68C8"/>
	</linearGradient>
	<path class="st0" d="M981.6,509.2c6.7-2.3,11.1,5.7,8.5,14.9c-4.5,15.6-13.8,38.8-31.6,49.3c-28.2,16.6-18.2-28.8,4.5-45
		C979.4,516.7,975.9,511.1,981.6,509.2z"/>
	<linearGradient id="SVGID_2_" gradientUnits="userSpaceOnUse" x1="-7.5153" y1="170.9313" x2="1009.1805" y2="170.9313">
		<stop  offset="0" style="stop-color:#00B1BC"/>
		<stop  offset="1" style="stop-color:#6E68C8"/>
	</linearGradient>
	<path class="st1" d="M88.9,182.9c-2.2-3.9,1.7-12.5,8.7-19.1c7-6.6,14.5-8.8,16.6-4.9c2.2,3.9-1.7,12.5-8.7,19.1
		C98.5,184.7,91,186.9,88.9,182.9z"/>
	<linearGradient id="SVGID_3_" gradientUnits="userSpaceOnUse" x1="-7.5153" y1="248.7398" x2="1009.1805" y2="248.7398">
		<stop  offset="0" style="stop-color:#00B1BC"/>
		<stop  offset="1" style="stop-color:#6E68C8"/>
	</linearGradient>
	<path class="st2" d="M24.5,290.4c0,0,6.3,27.5,31.5-22.4s34.1-80.8,16.8-63.6S22.1,243.3,24.5,290.4z"/>
	
		<linearGradient id="SVGID_4_" gradientUnits="userSpaceOnUse" x1="-118.9596" y1="352.0426" x2="897.7362" y2="352.0426" gradientTransform="matrix(0.9669 -5.169649e-03 -5.169649e-03 0.9383 115.7965 31.7119)">
		<stop  offset="0" style="stop-color:#00AFBA"/>
		<stop  offset="1" style="stop-color:#6E68C6"/>
	</linearGradient>
	<path class="st3" d="M124.8,645C40.9,597.2-53.3,487.8,64.6,295.2S311.9,0.5,552.4,88.7s262.5,103.5,380.3,224.8
		c122.2,125.8-11.3,323.8-287.7,294.9S247.6,715.2,124.8,645z"/>
	<linearGradient id="SVGID_5_" gradientUnits="userSpaceOnUse" x1="-7.5153" y1="884.5828" x2="1009.1805" y2="884.5828">
		<stop  offset="0" style="stop-color:#00AFBA"/>
		<stop  offset="1" style="stop-color:#6E68C6"/>
	</linearGradient>
	<path class="st4" d="M60.5,841c-44.4,9.5-88.8,29.4-0.4,59.1s174.7,44.2,307,25.1s143.7-22,200.8-44.3
		c59.2-23.1-39-53.4-198.4-43.5S125.6,827.1,60.5,841z"/>
	<linearGradient id="SVGID_6_" gradientUnits="userSpaceOnUse" x1="-7.5153" y1="897.6703" x2="1009.1805" y2="897.6703">
		<stop  offset="0" style="stop-color:#00AFBA"/>
		<stop  offset="1" style="stop-color:#6E68C6"/>
	</linearGradient>
	<path class="st5" d="M552.7,939.6c-29.9-7.9-60-25.3-2.1-53.7c57.9-28.4,114.8-42.9,203.4-27.6s96.3,17.8,134.9,37.2
		c40.1,20.1-24.3,49.2-130.6,42.7S596.5,951.2,552.7,939.6z"/>
	<g>
		<linearGradient id="SVGID_7_" gradientUnits="userSpaceOnUse" x1="35.7331" y1="515.1225" x2="917.2387" y2="515.1225">
			<stop  offset="0" style="stop-color:#00B1BC"/>
			<stop  offset="1" style="stop-color:#6E68C8"/>
		</linearGradient>
		<path class="st6" d="M93.5,776.3c0,0-3.9-128-56-314.6c0,0,39.7-192,167.2-185.4s162.1,11.2,162.1,11.2s94.4-67,241.3-12.1
			c0,0,285.7-113.4,326.6,181.3c0,0-46.1,203.2-46.5,319.5H93.5z"/>
		<path class="st7" d="M208.9,636.3h574.9c17.4,0,31.4,14.1,31.4,31.4V679c0,17.4-14.1,31.4-31.4,31.4H208.9
			c-17.4,0-31.4-14.1-31.4-31.4v-11.2C177.4,650.4,191.5,636.3,208.9,636.3z"/>
		<polygon class="st8" points="116.2,513 149,447.5 176.6,575.1 171.4,621.6 		"/>
		<polygon class="st8" points="867.8,513 835,447.5 807.5,575.1 812.6,621.6 		"/>
		<polygon class="st8" points="174.2,571.6 797.1,568.2 804,637.1 176.6,635.4 		"/>
	</g>
	<path class="st9" d="M446.6,821.2c0,0-1.1-31.3-1.5-37.5c-0.4-6.2,1.6-5.8,1.6-5.8l0.2,2c0,0,7.8,2.9,14.8,2.9
		c10.6,0,12-4.9,12-4.9c4.2-0.4,3.4,5.1,2.8,17.7c-0.6,11.4-1.3,25.7-1.3,25.7S466.4,828.5,446.6,821.2z"/>
	<path class="st9" d="M146.9,822.9c0,0,1.1-31.3,1.5-37.5c0.4-6.2-1.7-5.8-1.7-5.8l-0.2,2c0,0-7.7,3-14.7,3c-10.6,0-12-4.9-12-4.9
		c-4.2-0.4-3.5,5.1-2.8,17.7c0.6,11.4,1.3,25.7,1.3,25.7S127.2,830.2,146.9,822.9z"/>
	<path class="st10" d="M445.5,817.4c-1.5,0.2-2.8,2.5-3.1,4.3c-1.7,8-6.3,31.7-6.3,50.7h114.1c0,0,0.2-21.5-23.9-24.6
		c-40.7-5.3-46-31-53.7-30.9l-0.2,4.1c-6.2,4.8-21.5,2.1-27-0.1V817.4z"/>
	<rect x="436.1" y="872.4" class="st11" width="114.1" height="10.6"/>
	<g>
		<path class="st12" d="M484.3,843.4c-0.1,0-0.1,0-0.2,0c-0.4-0.1-0.6-0.5-0.6-0.9c0.8-3.5,0.9-9.7,0.2-12.1
			c-3.1,2.5-11.9,6.7-16.2,5.7c-1.5-0.4-2.4-1.3-2.7-2.7c-0.3-1.4,0.2-2.6,1.3-3.5c3.5-2.8,13.2-2.4,16.9-1.7
			c-0.5-3.4-0.8-10.8,1.5-14.1c0.7-1,1.5-1.6,2.5-1.7c0.7-0.1,2.5-0.1,3.1,2.7c1,4.2-1.2,12.4-5.1,14.5c1.1,2.9,0.6,10.3,0,13.2
			C484.9,843.2,484.6,843.4,484.3,843.4z M476.5,829.2c-3.6,0-7.6,0.5-9.4,1.9c-0.7,0.6-1,1.2-0.8,2c0.2,0.9,0.7,1.4,1.6,1.6
			c3.6,0.9,11.6-2.8,14.6-5.1C481.1,829.4,478.9,829.2,476.5,829.2z M487.5,813.9c-0.1,0-0.2,0-0.2,0c-0.6,0.1-1.1,0.5-1.5,1.1
			c-2,2.9-1.7,10.1-1.2,13.2c3.2-2,5-9.3,4.2-12.8C488.4,814.1,487.8,813.9,487.5,813.9z"/>
		<path class="st12" d="M497.2,833.5c-4.9,0-11.1-1.9-13.6-3.6c-0.3-0.2-0.4-0.7-0.2-1c0.2-0.3,0.7-0.4,1-0.2
			c2.8,2,11.3,4.2,15.7,3.1c0.4-0.1,0.8,0.1,0.9,0.5c0.1,0.4-0.1,0.8-0.5,0.9C499.6,833.4,498.4,833.5,497.2,833.5z"/>
		<path class="st12" d="M518.7,853.1c-0.3,0-0.6-0.2-0.7-0.6c-0.4-1.8,0-5,1.7-6.3c0.3-0.2,0.8-0.2,1,0.1c0.2,0.3,0.2,0.8-0.1,1
			c-1.1,0.8-1.5,3.3-1.1,4.9c0.1,0.4-0.2,0.8-0.6,0.9C518.8,853.1,518.7,853.1,518.7,853.1z"/>
		<path class="st12" d="M508.3,853.1c-0.4,0-0.7-0.3-0.7-0.7c-0.1-2,1.1-7.3,4.3-8.3c0.4-0.1,0.8,0.1,0.9,0.5
			c0.1,0.4-0.1,0.8-0.5,0.9c-2.1,0.7-3.4,4.9-3.3,6.8C509,852.7,508.7,853,508.3,853.1C508.3,853.1,508.3,853.1,508.3,853.1z"/>
		<path class="st12" d="M497.6,851.4c0,0-0.1,0-0.1,0c-0.4-0.1-0.7-0.4-0.6-0.8c0.4-2.5,4.2-8.4,7.6-9.2c0.4-0.1,0.8,0.2,0.9,0.6
			c0.1,0.4-0.2,0.8-0.6,0.9c-2.6,0.5-6.1,5.9-6.4,8C498.2,851.1,497.9,851.4,497.6,851.4z"/>
		<path class="st12" d="M487.3,847.4c-0.1,0-0.1,0-0.2,0c-0.4-0.1-0.6-0.5-0.5-0.9c0.9-3.1,7.1-8.5,10.3-8.8
			c0.4-0.1,0.8,0.3,0.8,0.7c0,0.4-0.3,0.8-0.7,0.8c-2.6,0.3-8.3,5.2-9,7.7C487.9,847.2,487.6,847.4,487.3,847.4z"/>
	</g>
	<path class="st10" d="M145.2,819.1c1.5,0.2,2.8,2.5,3.1,4.3c1.7,8,6.3,31.7,6.3,50.7H40.5c0,0-0.2-21.5,23.9-24.6
		c40.7-5.3,46-31,53.7-30.9l0.2,4.1c6.2,4.8,21.5,2.1,27-0.1V819.1z"/>
	<rect x="40.5" y="874" class="st11" width="114.1" height="10.6"/>
	<g>
		<path class="st12" d="M106.4,845.1c-0.3,0-0.6-0.2-0.7-0.6c-0.6-3-1.2-10.3,0-13.2c-3.9-2.2-6.1-10.4-5.1-14.6
			c0.6-2.7,2.4-2.7,3.1-2.6c1,0.2,1.9,0.7,2.5,1.7c2.2,3.4,2,10.7,1.5,14.1c3.7-0.7,13.4-1.1,16.9,1.7c1.1,0.9,1.6,2.1,1.3,3.5
			c-0.3,1.4-1.2,2.4-2.7,2.7c-4.3,1.1-13.2-3.2-16.2-5.7c-0.7,2.3-0.5,8.6,0.2,12.1c0.1,0.4-0.2,0.8-0.6,0.9
			C106.5,845.1,106.5,845.1,106.4,845.1z M108.2,831.3c3,2.3,11,6,14.6,5.1c0.9-0.2,1.5-0.7,1.6-1.6c0.2-0.8-0.1-1.5-0.8-2
			C120.6,830.4,111.6,830.7,108.2,831.3z M103.2,815.5c-0.3,0-0.9,0.2-1.2,1.6c-0.8,3.5,1,10.8,4.2,12.8c0.5-3.1,0.7-10.3-1.2-13.2
			c-0.4-0.7-0.9-1-1.5-1.1C103.4,815.5,103.3,815.5,103.2,815.5z"/>
		<path class="st12" d="M93.5,835.2c-1.2,0-2.3-0.1-3.3-0.4c-0.4-0.1-0.6-0.5-0.5-0.9c0.1-0.4,0.5-0.6,0.9-0.5
			c4.4,1.2,12.9-1.1,15.7-3.1c0.3-0.2,0.8-0.2,1,0.2c0.2,0.3,0.2,0.8-0.2,1C104.6,833.3,98.4,835.2,93.5,835.2z"/>
		<path class="st12" d="M72.1,854.7c-0.1,0-0.1,0-0.2,0c-0.4-0.1-0.6-0.5-0.6-0.9c0.3-1.6-0.1-4.1-1.1-4.9c-0.3-0.2-0.4-0.7-0.1-1
			s0.7-0.4,1-0.1c1.8,1.4,2.1,4.6,1.7,6.3C72.7,854.5,72.4,854.7,72.1,854.7z"/>
		<path class="st12" d="M82.4,854.7C82.4,854.7,82.4,854.7,82.4,854.7c-0.4,0-0.7-0.4-0.7-0.8c0.1-2-1.1-6.2-3.3-6.8
			c-0.4-0.1-0.6-0.5-0.5-0.9c0.1-0.4,0.5-0.6,0.9-0.5c3.2,1,4.4,6.3,4.3,8.3C83.2,854.4,82.8,854.7,82.4,854.7z"/>
		<path class="st12" d="M93.1,853c-0.4,0-0.7-0.3-0.7-0.6c-0.3-2-3.8-7.4-6.4-8c-0.4-0.1-0.6-0.5-0.6-0.9c0.1-0.4,0.5-0.7,0.9-0.6
			c3.4,0.7,7.2,6.7,7.6,9.2c0.1,0.4-0.2,0.8-0.6,0.8C93.2,853,93.2,853,93.1,853z"/>
		<path class="st12" d="M103.4,849c-0.3,0-0.6-0.2-0.7-0.5c-0.7-2.6-6.5-7.5-9-7.7c-0.4,0-0.7-0.4-0.7-0.8c0-0.4,0.4-0.7,0.8-0.7
			c3.2,0.3,9.4,5.7,10.3,8.8c0.1,0.4-0.1,0.8-0.5,0.9C103.5,849,103.5,849,103.4,849z"/>
	</g>
	<path class="st12" d="M468.3,559.9c-25.6-20.8-141.4-21-141.4-21l-29.3-10.5L265,540.7c0,0-92.2-8.4-113.2,18.6
		c-21,27-36.7,132.7-39,194.8c-1.5,40-2.9,66.3-2.9,66.3H158c0,0,38.9-172.6,62.1-188.3c23.3-15.8,56.2-29.1,77.2-30
		c24.5-1,83.5,14.1,106.8,29.9c23.3,15.8,33.2,188.4,33.2,188.4h48.1c0,0,0,0,5.3-59.3C495.8,701.8,494.9,581.5,468.3,559.9z"/>
	<path class="st13" d="M122.7,467.4c0,0,32-76.7,45.9-113.2c5.5-14.4,15.6-53.3,41.4-54.6c20.4-1,36.4,16.2,33.7,33
		c-6,36.7-81.2,153.2-81.2,153.2"/>
	<path class="st14" d="M336.7,283.7l-31.5,30.7l-38.6-30.7c0,0,15.6-17.1,7.3-56.1c-5.2-24.5,57.9-36.9,56.3,0
		C327.9,280,336.7,283.7,336.7,283.7z"/>
	<path class="st15" d="M302,123.3L302,123.3c-45.9,0-58.5,38-54.4,72.6c1.1,9.5,3.3,17.9,6.2,25.3c3.6,10.8,8.2,21.4,13.1,28.4
		c10.7,15.5,20.2,21.8,35.1,21.8c14.9,0,24.5-6.4,35.1-21.8c4.7-6.9,9.2-17,12.8-27.4c3.1-7.7,5.4-16.5,6.5-26.4
		C360.4,161.3,347.8,123.3,302,123.3z"/>
	<path class="st16" d="M302.1,265.6c-5.8,0-14.3-0.8-17.8-5c-1.2-1.4-11-10.6-8-9.1c5.3,2.7,4-12,4-16c0-3.4,2.2-4.5,5.6-4.6
		c4.3-0.1,10.4,1.4,16,1.4c5.3,0,11-1.5,15.2-1.7c3.7-0.2,6.1,0.6,6.1,4.3c0,4.3-1.8,19.6,4.4,16.1c1.3-0.7-7.6,7.6-8.5,8.7
		C315.8,263.8,307.9,265.6,302.1,265.6z"/>
	<g>
		<path class="st15" d="M347.8,199.1c1.3-4.5,3.5-7.5,6.2-7.5c4.6,0,7.8,8.5,6.1,17.1c-1.7,8.9-5.1,17.9-9,17.1
			c-1.2-0.2-2.3-1.6-3.1-3.9"/>
		<path class="st14" d="M353.5,213.3c-0.3,0.6-1.1,1.2-1.6,0.7c-0.7-0.7-0.2-1.3-0.2-2.4c0-1-0.4-1.6-0.6-2.4
			c-0.3-1.1-0.2-1.7,0-2.9c0.7-3.9,2.1-8.9,4.9-9.1v-0.1c-1.2-1.3-2.9-0.5-3.9,1.1c-1,1.5-1.1,3.9-1.8,5.7c-0.6,1.6-2,4.2-0.9,5.7
			c0.4,0.6,1.2,0.5,1.3,1.7c0.1,1.5-0.8,1.5-1.1,2.5c-0.2,0.7-0.1,1.6,0.5,1.8c0.4,0.2,0.6-0.4,0.8-0.3c0.2,0.1,0.4,0.3,0.6,0.5
			c0.5,0.4,0.6,1.3,1.3,0.4c0.5-0.7,0.6-2.2,0.8-3.1"/>
	</g>
	<g>
		<path class="st15" d="M255.9,199.1c-1.3-4.5-3.5-7.5-6.2-7.5c-4.6,0-7.8,8.5-6.1,17.1c1.7,8.9,5.1,17.9,9,17.1
			c1.2-0.2,2.3-1.6,3.1-3.9"/>
		<path class="st14" d="M250.2,213.3c0.3,0.6,1.1,1.2,1.6,0.7c0.7-0.7,0.2-1.3,0.2-2.4c0-1,0.4-1.6,0.6-2.4c0.3-1.1,0.2-1.7,0-2.9
			c-0.7-3.9-2.1-8.9-4.9-9.1v-0.1c1.2-1.3,2.9-0.5,3.9,1.1c1,1.5,1.1,3.9,1.8,5.7c0.6,1.6,2,4.2,0.9,5.7c-0.4,0.6-1.2,0.5-1.3,1.7
			c-0.1,1.5,0.8,1.5,1.1,2.5c0.2,0.7,0.1,1.6-0.5,1.8c-0.4,0.2-0.6-0.4-0.8-0.3c-0.2,0.1-0.4,0.3-0.6,0.5c-0.5,0.4-0.6,1.3-1.3,0.4
			c-0.5-0.7-0.6-2.2-0.8-3.1"/>
	</g>
	<path class="st14" d="M303,209.5c-2.9,10.9-7,14.6-5.4,17.4c1.9,3.2,9.1,1.8,9.1,1.8"/>
	<path class="st15" d="M302,261.6c-5.2,0-12.7-2.4-15.8-5.7c-5.4-5.7-4.4-14.3-4.4-18.2c0-6.1,11.3-0.7,20.1-0.7
		c8.7,0,19.5-5.4,19.5,0.7c0,3.9,0.9,15.2-4.7,18C312.8,257.7,307.2,261.6,302,261.6z"/>
	<path class="st16" d="M271.7,201.2c0,0,9.8-10.2,16.4,0C288,201.2,280.4,196.2,271.7,201.2z"/>
	<path class="st16" d="M332.4,201.4c0,0-9.8-10.2-16.4,0C316.1,201.4,323.7,196.4,332.4,201.4z"/>
	<path class="st16" d="M291.7,194.7c0,0-3.6-1.6-7.3-2.2c-3.2-0.5-5.8-1.9-10.7-1.1s-8.5,3.9-8.9,4.4c-0.4,0.5,1.2-2.8,3.2-4.1
		s5.4-2.7,10.2-2.5c4.8,0.2,10.9,1.3,12.3,2.2S295.3,193.6,291.7,194.7z"/>
	<path class="st16" d="M315,194.7c0,0,3.2-1.6,6.5-2.2c2.8-0.5,5.9-1.6,10.3-0.8c4.4,0.8,6.7,3.6,7,4.1c0.4,0.5-1.1-2.8-2.8-4.1
		c-1.8-1.3-4.8-2.7-9.1-2.5c-4.3,0.2-9.7,1.3-10.9,2.2C314.8,192.4,311.8,193.6,315,194.7z"/>
	<ellipse class="st16" cx="280.3" cy="201.4" rx="4" ry="4.7"/>
	<ellipse class="st16" cx="322.7" cy="201.4" rx="4" ry="4.5"/>
	<path class="st13" d="M443.9,507.6c0,0-16.5-124.1-23.2-156.5c-2.6-12.8-5.4-46.7-29-51.2c-18.7-3.6-36.5,8.7-36.8,23.2
		c-0.7,31.6,38,190.7,38,190.7"/>
	<path class="st16" d="M347,208c-1.2-12,1-16.8-1.5-5.5c0,0,3.4,21.3-5.4,36.7c-6.2,10.9-24.1,19.1-38.9,19.1
		c-13.7,0-31.1-6.8-36.7-19.1c-6.9-15-6.4-37.7-6.4-37.7c-2.5-11.4,0-5.5-1.3,6.5c-1.2,12,0.5,22.8,0.5,22.8
		c12.2,39.9,34.8,40.7,44.5,40.7c9.8,0,32.5-0.4,44.6-40.7C346.5,230.8,348.2,220,347,208z"/>
	<path class="st16" d="M356.6,192.6c0,0,16.7-84.3-54.7-84.3c-67.9,0-54.7,84.3-54.7,84.3c3.3,0,6.3,2,7.9,4.9
		c1.8,2.9,1.9,8.9,1.8,9.8c1.3,0,2.7-20,2.6-24.5c-0.2-13.2,8.7-26.4,20-26.4c8.5,0,13.1-4.1,23.4-4.1c9.7,0,13.8,4.7,21.3,4.7
		c11.2,0,18.3,14.6,19,28.5c0.1,1.9,2.4,22,3.8,22c0-1,0-6.7,1.7-10C350.3,194.6,353.3,192.6,356.6,192.6z"/>
	<path class="st16" d="M302.8,157.9c12.3,0,45.6,1.4,45.6-19.3c0-24.4-22.2-27.6-45.4-27.6s-45.4,3.2-45.4,27.6
		C257.5,158.3,290.6,157.9,302.8,157.9z"/>
	<path class="st14" d="M306.7,246.8c0,0-12.8,3.7-20.7-8.3"/>
	<path class="st10" d="M401.5,451.6c2.3-39.3,7.4-145.3-4.2-149.8c-18.1-7-38.8-6.8-51.4-13.3l-40.8,22.2L260,288.9
		c-12.6,6.5-41.2,6-59.3,13c-11.7,4.5-6.5,109.9-4.2,149.3c2.8,47.1,4.5,91.5,4.5,91.5s26,15.7,98,15.9c72.1-0.2,102-13.4,102-13.4
		S398.8,498.8,401.5,451.6z"/>
	<path class="st14" d="M277.5,400.3c-1-13.6-0.6-19.6-14.6-20.4c-15.3-0.8-25.6,10.1-28.8,19.7c-3.9,11.4-13.8,17.9-15.8,17.8
		c-1.9-0.1,2.1,15.7,12.6,18.9c0,0,8.9-9.5,15.7-9.5c6.8,0,10.6-1.8,23.2-8.2C277.8,414.5,278.1,407.8,277.5,400.3z"/>
	<path class="st13" d="M127,462.3c6.6-3.6,100.1-54.2,100.1-54.2c0.1,0,13.3,13.3,17.4,25.5c-3.8,2.2-88.3,62.4-93.3,64.8
		c-4.9,2.4-14.8,1.3-23.2-10.5C119.6,476.2,120.3,466,127,462.3z"/>
	<polygon class="st13" points="266.6,283.7 305.4,311.7 336.7,283.7 345.9,288.5 305.1,321.7 260,288.9 	"/>
	<path class="st9" d="M780.5,836.6c0,0,5.6-34.8,6.5-41.7c0.9-6.9,2.7-6.1,2.7-6.1l-0.2,2.3c0,0,6.7,4.6,13.3,5.8
		c10,1.9,12.3-3.3,12.3-3.3c4,0.3,2.2,6.2-1.1,20c-3,12.4-6.6,28.2-6.6,28.2S797.5,848.2,780.5,836.6z"/>
	<path class="st9" d="M630.5,833.5c0,0-8.6-34.2-10.2-41c-1.5-6.8-3.3-5.8-3.3-5.8l0.4,2.2c0,0-6.1,5.2-12.6,7
		c-9.8,2.8-12.6-2.2-12.6-2.2c-4,0.6-1.6,6.4,2.9,19.8c4.1,12.1,9.1,27.5,9.1,27.5S614.6,846.6,630.5,833.5z"/>
	<path class="st17" d="M780.3,832.2c-1.4-0.1-3.1,2.2-3.8,4.1c-3.3,8.6-12.6,33.9-16.6,54.8l107,20.5c0,0,4.7-23.7-17.2-31.5
		c-37-13.1-36.6-42.5-43.8-43.8l-1,4.5c-6.8,4.2-20.6-1.5-25.3-4.9L780.3,832.2z"/>
	
		<rect x="806.3" y="852.8" transform="matrix(0.1878 -0.9822 0.9822 0.1878 -231.4501 1534.6708)" class="st11" width="11.9" height="109"/>
	<g>
		<path class="st18" d="M811.3,867.8c-0.1,0-0.2,0-0.3,0c-0.4-0.1-0.6-0.6-0.4-0.9c1.4-3.7,2.9-10.6,2.8-13.3
			c-3.4,2.2-12.1,5.1-16.1,3.4c-1.5-0.6-2.3-1.9-2.3-3.6c0-1.7,0.9-3,2.5-3.8c4-1.9,12.3,0,15.6,1.5c0.2-3.9,1.7-12.6,4.6-15.6
			c0.7-0.7,1.6-1.1,2.4-1.1c0,0,0,0,0,0c0.6,0,2.2,0.3,2.4,2.9c0.4,4.6-3.6,13.9-7.9,15.6c0.5,3.2-1.4,11-2.8,14.6
			C811.9,867.7,811.6,867.8,811.3,867.8z M802,850.2c-1.5,0-2.8,0.2-3.9,0.7c-1.1,0.5-1.7,1.3-1.7,2.5c0,1.1,0.4,1.8,1.4,2.2
			c3.3,1.5,11.7-1.3,14.7-3.2C810.5,851.5,805.9,850.2,802,850.2z M820.3,835.7c-0.5,0-0.9,0.2-1.4,0.7c-2.6,2.6-4,11.1-4.2,14.8
			c3.5-1.8,6.9-10.2,6.6-13.9C821.1,835.7,820.5,835.7,820.3,835.7C820.3,835.7,820.3,835.7,820.3,835.7z"/>
		<path class="st18" d="M827.7,859.5c-4.9,0-12-3.9-14.4-6.7c-0.3-0.3-0.2-0.8,0.1-1c0.3-0.3,0.8-0.2,1,0.1c2.2,2.7,9.7,6.7,14,6.2
			c0.4,0,0.8,0.2,0.8,0.6c0,0.4-0.2,0.8-0.6,0.8C828.3,859.4,828,859.5,827.7,859.5z"/>
		<path class="st18" d="M841.5,884.6C841.5,884.6,841.5,884.6,841.5,884.6c-0.4,0-0.7-0.3-0.7-0.7c0-2,1-5.4,2.9-6.6
			c0.3-0.2,0.8-0.1,1,0.3c0.2,0.3,0.1,0.8-0.3,1c-1.2,0.7-2.1,3.4-2.2,5.3C842.3,884.3,841.9,884.6,841.5,884.6z"/>
		<path class="st18" d="M831.8,882.8c0,0-0.1,0-0.1,0c-0.4-0.1-0.7-0.4-0.6-0.8c0.3-2.2,2.5-7.8,5.8-8.3c0.4-0.1,0.8,0.2,0.8,0.6
			c0.1,0.4-0.2,0.8-0.6,0.8c-2.1,0.3-4.2,4.8-4.6,7.1C832.5,882.5,832.1,882.8,831.8,882.8z"/>
		<path class="st18" d="M822.1,879c-0.1,0-0.2,0-0.2,0c-0.4-0.1-0.6-0.5-0.5-0.9c0.9-2.7,5.7-8.5,9-8.7c0.5,0,0.7,0.3,0.8,0.7
			c0,0.4-0.3,0.7-0.7,0.8c-2.4,0.1-6.9,5.3-7.7,7.7C822.7,878.8,822.4,879,822.1,879z"/>
		<path class="st18" d="M813.3,872.7c-0.1,0-0.2,0-0.3-0.1c-0.4-0.2-0.5-0.6-0.4-1c1.4-3,8.2-8.1,11.5-7.8c0.4,0,0.7,0.4,0.7,0.8
			c0,0.4-0.4,0.7-0.8,0.7c-2.5-0.1-8.9,4.3-10.1,7C813.9,872.6,813.6,872.7,813.3,872.7z"/>
	</g>
	<path class="st17" d="M627.7,829.9c1.4-0.2,3.3,2,4.2,3.8c4,8.2,15.5,32.7,21.3,53.2l-104.8,29.8c0,0-6.8-23.2,14.4-32.8
		c35.8-16.3,32.8-45.5,39.8-47.4l1.4,4.4c7.2,3.6,20.4-3.3,24.8-7.1L627.7,829.9z"/>
	
		<rect x="548" y="901.5" transform="matrix(0.962 -0.273 0.273 0.962 -224.8632 198.9583)" class="st11" width="109" height="11.9"/>
	<g>
		<path class="st18" d="M599.8,868.1c-0.3,0-0.5-0.1-0.7-0.4c-1.7-3.5-4.3-11.1-4-14.3c-4.5-1.3-9.2-10.2-9.2-14.8
			c0-2.6,1.5-3,2.1-3.1c0.9-0.1,1.7,0.2,2.6,0.9c3.2,2.7,5.4,11.3,6,15.2c3.2-1.8,11.2-4.4,15.5-2.8c1.7,0.6,2.7,1.8,2.8,3.5
			c0.2,1.7-0.5,3-1.9,3.8c-3.8,2.1-12.8-0.1-16.4-2c0.1,2.8,2.2,9.5,3.9,13c0.2,0.4,0,0.8-0.3,1C600.1,868,599.9,868.1,599.8,868.1z
			 M597.3,852.7c3.2,1.6,11.7,3.7,14.9,1.9c0.9-0.5,1.3-1.2,1.2-2.3c-0.1-1.2-0.7-1.9-1.9-2.3C607.7,848.6,600,851.3,597.3,852.7z
			 M588.3,836.8c0,0-0.1,0-0.1,0c-0.2,0-0.8,0.1-0.8,1.6c0,3.8,4.2,11.8,7.8,13.3c-0.5-3.7-2.7-12-5.5-14.4
			C589.2,837,588.7,836.8,588.3,836.8z"/>
		<path class="st18" d="M582.1,861.2c-0.1,0-0.1,0-0.2,0c-0.4,0-0.7-0.3-0.7-0.7c0-0.4,0.4-0.7,0.7-0.7c4.3,0.1,11.4-4.5,13.4-7.4
			c0.2-0.3,0.7-0.4,1-0.2c0.3,0.2,0.4,0.7,0.2,1C594.3,856.4,587.1,861.2,582.1,861.2z"/>
		<path class="st18" d="M571.2,887.4c-0.4,0-0.7-0.3-0.7-0.7c-0.2-1.9-1.4-4.5-2.6-5.1c-0.4-0.2-0.5-0.6-0.3-1
			c0.2-0.4,0.6-0.5,1-0.3c2,1,3.3,4.3,3.4,6.3C572,887,571.7,887.4,571.2,887.4C571.3,887.4,571.2,887.4,571.2,887.4z"/>
		<path class="st18" d="M580.8,884.7c-0.3,0-0.6-0.2-0.7-0.6c-0.6-2.2-3-6.5-5.2-6.6c-0.4,0-0.7-0.4-0.7-0.8c0-0.4,0.4-0.7,0.8-0.7
			c3.3,0.2,6,5.6,6.5,7.7c0.1,0.4-0.1,0.8-0.5,0.9C580.9,884.7,580.8,884.7,580.8,884.7z"/>
		<path class="st18" d="M590.1,880.1c-0.3,0-0.6-0.2-0.7-0.4c-1-2.4-6-7.1-8.3-7c-0.5,0-0.7-0.3-0.8-0.7c0-0.4,0.3-0.7,0.7-0.8
			c3.4-0.1,8.6,5.3,9.7,7.9c0.2,0.4,0,0.8-0.4,1C590.3,880.1,590.2,880.1,590.1,880.1z"/>
		<path class="st18" d="M598.3,873.1c-0.3,0-0.5-0.1-0.6-0.4c-1.4-2.6-8.2-6.5-10.7-6.1c-0.4,0.1-0.8-0.2-0.8-0.6
			c-0.1-0.4,0.2-0.8,0.6-0.8c3.3-0.5,10.6,3.9,12.2,6.8c0.2,0.4,0.1,0.8-0.3,1C598.5,873.1,598.4,873.1,598.3,873.1z"/>
	</g>
	<path class="st19" d="M860.7,622.1c-2.9-12.1-81.6-97.5-81.6-97.5l-96.3-15.9l-93.8,14.7c0,0-51,66.2-58.5,95
		c-5.3,20.3,14,62.8,29.4,130.9c9.9,43.8,30.3,82.2,30.3,82.2l40.4-9.5c0,0-27.6-164.3-23.6-183.1c3.3-15.3,46.6-61.2,92.6-52.1
		c46.8,9.4,67.5,32,81.1,57c10.7,19.7,0,183.4,0,183.4l33.4,3.5c0,0,5.9-4.6,24.9-66.1C858.7,699.8,863.9,635.5,860.7,622.1z"/>
	<g>
		<path class="st20" d="M439.3,511.8c4,6.2-1,13.3-11.4,16c-6.9,1.8-14.6,1.2-20.5-1.1l-21,5.4c-1.1,4.1-5.6,7.8-12.5,9.6
			c-10.5,2.7-22.6,0.1-27.7-5.9l0,0L331,515.5l0,0c-2.1-3.5,0.7-7.5,6.7-9c4.7-1.2,9.9-0.6,13.4,1.4l12.4,6.3l37-9.6l0.5-9.6
			c-0.1-2.8,2.7-5.6,7.3-6.8c5.9-1.5,12.8-0.1,15.8,3.2l0,0L439.3,511.8L439.3,511.8z"/>
		<path class="st21" d="M438.9,509c4,6.2-1,13.3-11.4,16c-6.9,1.8-14.6,1.2-20.5-1.1l-21,5.4c-1.1,4.1-5.6,7.8-12.5,9.6
			c-10.5,2.7-22.6,0.1-27.7-5.9l0,0l-15.2-20.4l0,0c-2.1-3.5,0.7-7.5,6.7-9c4.7-1.2,9.9-0.6,13.4,1.4l12.4,6.3l37-9.6l0.5-9.6
			c-0.1-2.8,2.7-5.6,7.3-6.8c5.9-1.5,12.8-0.1,15.8,3.2l0,0L438.9,509L438.9,509z"/>
		<path class="st20" d="M438.9,509c0,0-18.8-23.6-37.9-18.6c0.8-2.1,3.3-4,7-5c5.9-1.5,12.8-0.1,15.8,3.2l0,0L438.9,509L438.9,509z"
			/>
		<path class="st22" d="M375.4,525.2l-5.2,1.4c-0.6,0.2-0.9,0.6-0.6,0.9l2.3,3.1c0.3,0.4,0,0.8-0.6,0.9l-5.2,1.4
			c-0.6,0.2-1.3,0-1.6-0.4l-2.3-3.1c-0.3-0.4-1-0.5-1.6-0.4l-5.1,1.3c-0.6,0.2-1.3,0-1.6-0.4l-2.3-3.1c-0.3-0.4,0-0.8,0.6-0.9
			l5.1-1.3c0.6-0.2,0.9-0.6,0.6-0.9l-2.2-3c-0.3-0.4,0-0.8,0.6-0.9l5.2-1.4c0.6-0.2,1.3,0,1.6,0.4l2.2,3c0.3,0.4,1,0.5,1.6,0.4
			l5.2-1.4c0.6-0.2,1.3,0,1.6,0.4l2.3,3.1C376.3,524.7,376,525.1,375.4,525.2z"/>
		<g>
			<ellipse class="st22" cx="421.5" cy="515.9" rx="4" ry="2.3"/>
			<ellipse class="st22" cx="411" cy="513.4" rx="4" ry="2.3"/>
			<ellipse class="st22" cx="425.2" cy="509.8" rx="4" ry="2.3"/>
			<ellipse class="st22" cx="415.1" cy="507.3" rx="4" ry="2.3"/>
		</g>
		<path class="st23" d="M374.8,524.7l-5.2,1.4c-0.6,0.2-0.9,0.6-0.6,0.9l2.3,3.1c0.3,0.4,0,0.8-0.6,0.9l-5.2,1.4
			c-0.6,0.2-1.3,0-1.6-0.4l-2.3-3.1c-0.3-0.4-1-0.5-1.6-0.4l-5.1,1.3c-0.6,0.2-1.3,0-1.6-0.4l-2.3-3.1c-0.3-0.4,0-0.8,0.6-0.9
			l5.1-1.3c0.6-0.2,0.9-0.6,0.6-0.9l-2.2-3c-0.3-0.4,0-0.8,0.6-0.9l5.2-1.4c0.6-0.2,1.3,0,1.6,0.4l2.2,3c0.3,0.4,1,0.5,1.6,0.4
			l5.2-1.4c0.6-0.2,1.3,0,1.6,0.4l2.3,3.1C375.7,524.1,375.4,524.5,374.8,524.7z"/>
		<g>
			<ellipse class="st23" cx="420.9" cy="515.4" rx="4" ry="2.3"/>
			<ellipse class="st23" cx="410.4" cy="512.9" rx="4" ry="2.3"/>
			<ellipse class="st23" cx="424.6" cy="509.2" rx="4" ry="2.3"/>
			<ellipse class="st23" cx="414.5" cy="506.7" rx="4" ry="2.3"/>
		</g>
		<path class="st24" d="M373.8,535.3c3.1-0.8,5.6-2,7.6-3.4c-1.7,2.4-4.9,4.5-9.3,5.6c-9,2.3-19.4-0.1-23.4-5.4
			c-0.6-0.8-1-1.6-1.3-2.5C352.3,535.3,363.9,537.9,373.8,535.3z"/>
		<path class="st20" d="M330.3,508.7L330.3,508.7c0.8-2.2,3.3-4,7-5c4.7-1.2,9.9-0.6,13.4,1.4l12,6.1
			C362.7,511.2,348.2,504,330.3,508.7z"/>
	</g>
	<path class="st25" d="M429,484.4c-6.4,0.3-9.1,0-10.9,14.5c0,0-2,7.9,3,10.3c5,2.4,5.9-4.3,7-11.4c0.7-4.5,6.7,2.9,5.2,9.4
		c-1.9,7.9-8.3,13.7-14.8,13.9c-8.7,0.3-9.2,4.8-6.4,8.1c1.6,1.8,18.5,4.8,29.2-2.9c11.7-8.5,5.5-23.7,3.1-30.2
		C442,489.6,435.9,484,429,484.4z"/>
	<g>
		<path class="st26" d="M544.4,485.6c0,0,16.5-124.1,23.2-156.5c2.6-12.8,5.4-46.7,29-51.2c18.7-3.6,36.5,8.7,36.8,23.2
			c0.7,31.6-38,190.7-38,190.7"/>
		<path class="st14" d="M719.6,261.6l-31.4,31.9l-39.1-31.6c0,0,13.3-15.7,4-54.2c-5.9-24.3,64.9-36.5,63.1,0
			C713.6,259.5,719.6,261.6,719.6,261.6z"/>
		<path class="st15" d="M684.5,108L684.5,108c-43.4,0-55.3,35.9-51.4,68.6c1.1,8.9,3.1,16.9,5.8,24c3.4,10.2,7.8,20.2,12.4,26.9
			c10.1,14.6,19.1,20.7,33.2,20.7c14.1,0,23.1-6,33.2-20.7c4.5-6.5,8.7-16,12.1-25.9c2.9-7.3,5.1-15.6,6.2-24.9
			C739.8,143.9,727.9,108,684.5,108z"/>
		<g>
			<path class="st15" d="M728.8,179.4c1.5-3.5,4-5.9,7.1-5.9c5.2,0,8.9,6.7,7,13.5c-2,7.1-5.8,14.1-10.3,13.5
				c-1.4-0.2-2.6-1.3-3.5-3.1"/>
			<path class="st14" d="M735.3,190.7c-0.4,0.5-1.2,0.9-1.8,0.6c-0.8-0.5-0.2-1-0.2-1.9c0-0.8-0.5-1.2-0.7-1.9
				c-0.3-0.9-0.2-1.4,0-2.3c0.7-3.1,2.4-7,5.5-7.2v-0.1c-1.3-1.1-3.3-0.4-4.5,0.8c-1.1,1.2-1.3,3.1-2,4.5c-0.7,1.3-2.3,3.3-1.1,4.5
				c0.5,0.5,1.4,0.4,1.5,1.3c0.2,1.2-0.9,1.2-1.2,2c-0.2,0.6-0.1,1.2,0.6,1.4c0.4,0.1,0.6-0.3,1-0.2c0.2,0.1,0.4,0.2,0.6,0.4
				c0.6,0.3,0.7,1,1.5,0.3c0.6-0.5,0.6-1.7,0.9-2.5"/>
			<path class="st15" d="M640.2,179.4c-1.5-3.5-4-5.9-7.1-5.9c-5.2,0-8.9,6.7-7,13.5c2,7.1,5.8,14.1,10.3,13.5
				c1.4-0.2,2.6-1.3,3.5-3.1"/>
			<path class="st14" d="M633.7,190.7c0.4,0.5,1.2,0.9,1.8,0.6c0.8-0.5,0.2-1,0.2-1.9c0-0.8,0.5-1.2,0.7-1.9c0.3-0.9,0.2-1.4,0-2.3
				c-0.7-3.1-2.4-7-5.5-7.2v-0.1c1.3-1.1,3.3-0.4,4.5,0.8c1.1,1.2,1.3,3.1,2,4.5c0.7,1.3,2.3,3.3,1.1,4.5c-0.5,0.5-1.4,0.4-1.5,1.3
				c-0.2,1.2,0.9,1.2,1.2,2c0.2,0.6,0.1,1.2-0.6,1.4c-0.4,0.1-0.6-0.3-1-0.2c-0.2,0.1-0.4,0.2-0.6,0.4c-0.6,0.3-0.7,1-1.5,0.3
				c-0.6-0.5-0.6-1.7-0.9-2.5"/>
		</g>
		<path class="st14" d="M685.5,189.4c-2.7,10.3-6.7,13.8-5.1,16.5c1.8,3,8.6,1.7,8.6,1.7"/>
		<path class="st27" d="M670.9,217.6c0,0,15.9,2.5,27.1,0c0,0-3.4,9.7-13.8,9.7C673.8,227.3,670.9,217.6,670.9,217.6z"/>
		<path class="st12" d="M772.6,391.5c2.2-48.2,12.5-104.6,1.5-110.1c-17.1-8.6-36-9.1-47.9-17.1l-38.4,27.2l-42.5-26.8
			c-11.9,8-38.8,7.4-55.9,15.9c-11,5.5-0.1,62.7,2.1,110.9c2.6,57.8-2.5,131.8-2.5,131.8s29.4,25.6,97.4,26.1
			c73.8,0.5,92.8-24.8,92.8-24.8S769.9,449.3,772.6,391.5z"/>
		<polygon class="st26" points="648.6,261.2 688.1,291 720,261.2 729.4,266.3 687.8,301.6 641.9,266.7 		"/>
		<path class="st28" d="M735.9,173.4c2.2,0.2,3.9,1.4,5.2,2.8c0,0,6.4-29.8,3.6-45.1c-3.7-20.6-20.9-32.4-36.1-32.2
			c-22.4-21-85.4-2.5-85,52.4c0,4.7,3.1,25,3.5,26.2c1.3-2.2,3.6-3.9,6-4.1c3.1-0.2,5.6,2,7.1,5c1.7,3,1.8,9.1,1.7,10
			c5.4,2,4-20.8,4.9-25.3c0.9-4.5,51.7-17.9,55.8-37.6c1.2,26.8,22.7,34.4,22.3,43.9c-0.1,2-1.9,20.6,2.3,19.2c0-1,0-6.8,1.6-10.2
			C730.3,175.5,732.8,173.2,735.9,173.4z"/>
		<path class="st12" d="M797.1,444.8c0,0-4.4-72.7-5.4-106.9c-0.4-13.5,2.8-48.6-19.7-57.3c-17.8-6.9-37.5,2.5-40.3,17.1
			c-6.1,32.1,24.3,150.4,24.3,150.4"/>
		<path class="st29" d="M657.5,178.3c0,0,9.3-9.7,15.5,0C672.9,178.3,665.7,173.6,657.5,178.3z"/>
		<path class="st29" d="M713.3,180.5c0,0-9.3-9.6-15.5,0C697.9,180.5,705.1,175.7,713.3,180.5z"/>
		<path class="st29" d="M674.5,171.8c0,0-3.4-1.9-6.9-2.6c-3-0.6-5.4-2.3-10.1-1.4c-4.7,0.9-8,4.7-8.4,5.3c-0.4,0.6,1.1-3.4,3-4.9
			c1.9-1.5,5.1-3.2,9.6-3c4.5,0.2,10.3,1.5,11.6,2.6C674.7,169,677.8,170.5,674.5,171.8z"/>
		<path class="st29" d="M696.8,173.9c0,0,3-1.9,6.1-2.6c2.7-0.6,5.6-1.9,9.7-1c4.1,0.9,6.3,4.3,6.7,4.9c0.3,0.6-1-3.4-2.6-4.9
			c-1.7-1.5-4.5-3.2-8.6-3c-4,0.2-9.2,1.5-10.3,2.6C696.6,171.1,693.8,172.6,696.8,173.9z"/>
		<ellipse class="st29" cx="665.6" cy="179" rx="3.7" ry="5"/>
		<path class="st25" d="M683.3,487.9c0,0-12.3,3.9-18.7,1.2c-6.4-2.8-11.8-5.5-25.1-1.2c0,0-7.8,1.4-7,6.9c0.9,5.4,7,3.2,13.8,1.7
			c6.7-1.6,3,7.2-4.9,8.4c-7.9,1.3-16.4-1.8-20.5-7.7c-5.3-7.7-9.4-6.3-10.6-2.4c-0.6,2.2,6.7,18.6,19.6,25c14,7,28.3,2.5,35.2-3.8
			c8.3-7.5,20.4-8.6,22.2-7.7C689.1,509.2,691.8,494.8,683.3,487.9z"/>
		<g>
			<path class="st30" d="M549.1,489.8c-4,6.2,1,13.3,11.4,16c6.9,1.8,14.6,1.2,20.5-1.1l21,5.4c1.1,4.1,5.6,7.8,12.5,9.6
				c10.5,2.7,22.6,0.1,27.7-5.9l0,0l15.2-20.4l0,0c2.1-3.5-0.7-7.5-6.7-9c-4.7-1.2-9.9-0.6-13.4,1.4l-12.4,6.3l-37-9.6l-0.5-9.6
				c0.1-2.8-2.7-5.6-7.3-6.8c-5.9-1.5-12.8-0.1-15.8,3.2l0,0L549.1,489.8L549.1,489.8z"/>
			<path class="st31" d="M549.4,487c-4,6.2,1,13.3,11.4,16c6.9,1.8,14.6,1.2,20.5-1.1l21,5.4c1.1,4.1,5.6,7.8,12.5,9.6
				c10.5,2.7,22.6,0.1,27.7-5.9l0,0l15.2-20.4l0,0c2.1-3.5-0.7-7.5-6.7-9c-4.7-1.2-9.9-0.6-13.4,1.4l-12.4,6.3l-37-9.6l-0.5-9.6
				c0.1-2.8-2.7-5.6-7.3-6.8c-5.9-1.5-12.8-0.1-15.8,3.2l0,0L549.4,487L549.4,487z"/>
			<path class="st30" d="M549.4,487c0,0,18.8-23.6,37.9-18.6c-0.8-2.1-3.3-4-7-5c-5.9-1.5-12.8-0.1-15.8,3.2l0,0L549.4,487
				L549.4,487z"/>
			<path class="st30" d="M612.9,503.2l5.2,1.4c0.6,0.2,0.9,0.6,0.6,0.9l-2.3,3.1c-0.3,0.4,0,0.8,0.6,0.9l5.2,1.4
				c0.6,0.2,1.3,0,1.6-0.4l2.3-3.1c0.3-0.4,1-0.5,1.6-0.4l5.1,1.3c0.6,0.2,1.3,0,1.6-0.4l2.3-3.1c0.3-0.4,0-0.8-0.6-0.9l-5.1-1.3
				c-0.6-0.2-0.9-0.6-0.6-0.9l2.2-3c0.3-0.4,0-0.8-0.6-0.9l-5.2-1.4c-0.6-0.2-1.3,0-1.6,0.4l-2.2,3c-0.3,0.4-1,0.5-1.6,0.4l-5.2-1.4
				c-0.6-0.2-1.3,0-1.6,0.4l-2.3,3.1C612,502.7,612.3,503.1,612.9,503.2z"/>
			<g>
				<ellipse class="st30" cx="566.8" cy="493.9" rx="4" ry="2.3"/>
				<ellipse class="st30" cx="577.3" cy="491.5" rx="4" ry="2.3"/>
				<ellipse class="st30" cx="563.1" cy="487.8" rx="4" ry="2.3"/>
				<ellipse class="st30" cx="573.2" cy="485.3" rx="4" ry="2.3"/>
			</g>
			<path class="st32" d="M613.5,502.7l5.2,1.4c0.6,0.2,0.9,0.6,0.6,0.9l-2.3,3.1c-0.3,0.4,0,0.8,0.6,0.9l5.2,1.4
				c0.6,0.2,1.3,0,1.6-0.4l2.3-3.1c0.3-0.4,1-0.5,1.6-0.4l5.1,1.3c0.6,0.2,1.3,0,1.6-0.4l2.3-3.1c0.3-0.4,0-0.8-0.6-0.9l-5.1-1.3
				c-0.6-0.2-0.9-0.6-0.6-0.9l2.2-3c0.3-0.4,0-0.8-0.6-0.9l-5.2-1.4c-0.6-0.2-1.3,0-1.6,0.4l-2.2,3c-0.3,0.4-1,0.5-1.6,0.4l-5.2-1.4
				c-0.6-0.2-1.3,0-1.6,0.4l-2.3,3.1C612.7,502.1,612.9,502.5,613.5,502.7z"/>
			<g>
				<ellipse class="st32" cx="567.4" cy="493.4" rx="4" ry="2.3"/>
				<ellipse class="st32" cx="577.9" cy="490.9" rx="4" ry="2.3"/>
				<ellipse class="st32" cx="563.7" cy="487.2" rx="4" ry="2.3"/>
				<ellipse class="st32" cx="573.8" cy="484.8" rx="4" ry="2.3"/>
			</g>
			<path class="st24" d="M614.5,513.3c-3.1-0.8-5.6-2-7.6-3.4c1.7,2.4,4.9,4.5,9.3,5.6c9,2.3,19.4-0.1,23.4-5.4
				c0.6-0.8,1-1.6,1.3-2.5C636,513.3,624.5,515.9,614.5,513.3z"/>
			<path class="st30" d="M658,486.7L658,486.7c-0.8-2.2-3.3-4-7-5c-4.7-1.2-9.9-0.6-13.4,1.4l-12,6.1
				C625.6,489.2,640.1,482,658,486.7z"/>
		</g>
		<path class="st25" d="M663.6,488.6c-6.4-2.8-11.8-5.5-25.1-1.2c0,0-7.8,1.4-7,6.9c0.9,5.4,7,3.2,13.8,1.7
			c6.7-1.6,7.8,4.3,1.9,11.3l9.5-2.7L663.6,488.6z"/>
		<path class="st25" d="M559.3,462.4c6.4,0.3,9.1,0,10.9,14.5c0,0,2,7.9-3,10.3c-5,2.4-5.9-4.3-7-11.4c-0.7-4.5-6.7,2.9-5.2,9.4
			c1.9,7.9,8.3,13.7,14.8,13.9c8.7,0.3,9.2,4.8,6.4,8.1c-1.6,1.8-18.5,4.8-29.2-2.9c-11.7-8.5-5.5-23.7-3.1-30.2
			C546.3,467.6,552.4,462,559.3,462.4z"/>
		<path class="st12" d="M773,422.6c-7.2,4-108.2,58.3-108.2,58.3c0,0.1,8.9,28.6,17.2,37.6c4.2-2.3,103.2-55.6,108.3-58.8
			c5.1-3.1,10-12,4.6-24.6C789.6,422.5,780.1,418.5,773,422.6z"/>
		<ellipse class="st29" cx="704.1" cy="181.2" rx="3.7" ry="4.7"/>
		<path class="st28" d="M727.1,188.1c-1.1-11.3-0.2-19.3-2.6-8.6c0,0,3.3,32.3-40,32.3c-43.3,0-38.6-32.8-38.6-32.8
			c-2.4-10.8-2.9-2.2-4.1,9.1c-1.1,11.3,0.5,21.5,0.5,21.5c11.2,36.3,32.9,38.5,42.1,38.5s30.8-0.4,42.2-38.5
			C726.7,209.6,728.3,199.4,727.1,188.1z M684.5,233.2c-11.9,0-16.5-10.2-16.5-16s9.2-1.4,16.5-1.4c7.3,0,16.5-4.4,16.5,1.4
			S696.4,233.2,684.5,233.2z"/>
	</g>
	<path class="st26" d="M664.8,480.9c7-4.6,14.1-8.8,21.2-13.1l10.7-6.4l10.8-6.2c7.2-4.1,14.5-8.2,21.7-12.2c7.3-4,14.5-8,21.9-11.9
		l-1.5,3.1c-1.3-7.2-2.6-14.4-3.8-21.7c-1.2-7.2-2.4-14.5-3.5-21.8c-1.1-7.3-2.1-14.5-3.1-21.8c-1-7.3-1.9-14.6-2.6-21.9
		c1.9,7.1,3.6,14.3,5.3,21.4c1.7,7.2,3.3,14.3,4.8,21.5c1.6,7.2,3,14.4,4.5,21.6c1.5,7.2,2.8,14.4,4.2,21.6l0.4,2.1l-1.9,1.1
		c-7.3,4-14.7,7.8-22,11.7c-7.4,3.8-14.7,7.7-22.2,11.4l-11.1,5.6l-11.2,5.5C679.9,474,672.4,477.5,664.8,480.9z"/>
</g>
</svg>
