<?xml version="1.0" encoding="utf-8"?>
<!-- Generator: Adobe Illustrator 24.0.0, SVG Export Plug-In . SVG Version: 6.00 Build 0)  -->
<svg version="1.1" id="Слой_1" xmlns="http://www.w3.org/2000/svg" xmlns:xlink="http://www.w3.org/1999/xlink" x="0px" y="0px"
	 viewBox="0 0 1000 1000" style="enable-background:new 0 0 1000 1000;" xml:space="preserve">
<style type="text/css">
	.st0{opacity:0.28;fill:url(#SVGID_1_);enable-background:new    ;}
	.st1{opacity:0.28;fill:url(#SVGID_2_);enable-background:new    ;}
	.st2{opacity:0.28;fill:url(#SVGID_3_);enable-background:new    ;}
	.st3{opacity:0.28;fill:url(#SVGID_4_);enable-background:new    ;}
	.st4{opacity:0.2;fill:url(#SVGID_5_);enable-background:new    ;}
	.st5{opacity:0.2;fill:url(#SVGID_6_);enable-background:new    ;}
	.st6{fill:url(#SVGID_7_);}
	.st7{fill:#233A57;}
	.st8{fill:url(#SVGID_8_);}
	.st9{fill:url(#SVGID_9_);}
	.st10{fill:url(#SVGID_10_);}
	.st11{opacity:0.5;}
	.st12{fill:#FFFFFF;}
	.st13{opacity:0.8;}
	.st14{opacity:0.6;}
	.st15{fill:#00B2BD;}
	.st16{opacity:0.5;fill:#FFFFFF;}
	.st17{opacity:0.5;fill:#233A57;}
	.st18{fill:#CCCCCC;}
	.st19{fill:#1F2C3C;}
	.st20{fill:#CCCCDA;}
	.st21{fill:#B47D4F;}
	.st22{fill:#DBD4DC;}
	.st23{fill:#E39C74;}
	.st24{fill:#14202D;}
	.st25{fill:#F6B88C;}
	.st26{fill:#E6E6E6;}
	.st27{fill:#6C3506;}
	.st28{fill:#002C47;}
	.st29{fill:#F1EBE1;}
</style>
<g>
	<linearGradient id="SVGID_1_" gradientUnits="userSpaceOnUse" x1="6.2469" y1="154.7782" x2="992.6588" y2="154.7782">
		<stop  offset="0" style="stop-color:#00B1BC"/>
		<stop  offset="1" style="stop-color:#6E68C8"/>
	</linearGradient>
	<path class="st0" d="M594.6,143.6c3.5-2.1,11.4,1.2,17.7,7.3s8.5,12.9,5,15c-3.5,2.1-11.4-1.2-17.7-7.3
		C593.3,152.5,591.1,145.7,594.6,143.6z"/>
	<linearGradient id="SVGID_2_" gradientUnits="userSpaceOnUse" x1="6.2469" y1="113.0292" x2="992.6588" y2="113.0292">
		<stop  offset="0" style="stop-color:#00B1BC"/>
		<stop  offset="1" style="stop-color:#6E68C8"/>
	</linearGradient>
	<path class="st1" d="M494.5,88.5c0,0-24.8,6.7,21.5,28s74.8,28.4,58.6,13.2C558.3,114.5,537.3,84.8,494.5,88.5z"/>
	<linearGradient id="SVGID_3_" gradientUnits="userSpaceOnUse" x1="6.2469" y1="792.4949" x2="992.6588" y2="792.4949">
		<stop  offset="0" style="stop-color:#00B1BC"/>
		<stop  offset="1" style="stop-color:#6E68C8"/>
	</linearGradient>
	<path class="st2" d="M767,796c1.3,3,7.2,3.9,13.3,1.9c6.1-1.9,10-5.9,8.7-9c-1.3-3-7.2-3.9-13.3-1.9S765.7,793,767,796z"/>
	<linearGradient id="SVGID_4_" gradientUnits="userSpaceOnUse" x1="6.2469" y1="781.1339" x2="992.6588" y2="781.1339">
		<stop  offset="0" style="stop-color:#00B1BC"/>
		<stop  offset="1" style="stop-color:#6E68C8"/>
	</linearGradient>
	<path class="st3" d="M806.9,784.4c-5.1,4.4-2.5,9.7,4.6,10c12.1,0.6,31.4-0.6,47.6-11.3c25.6-16.8-7.8-20.7-30.2-7.8
		C812.8,784.6,811.2,780.7,806.9,784.4z"/>
	<linearGradient id="SVGID_5_" gradientUnits="userSpaceOnUse" x1="6" y1="465.1795" x2="992.4119" y2="465.1795">
		<stop  offset="0" style="stop-color:#00AFBA"/>
		<stop  offset="1" style="stop-color:#6E68C6"/>
	</linearGradient>
	<path class="st4" d="M129.3,795C42.4,736.2-57,604.6,57.9,380.9s244.1-340.4,492-229.5s270.9,129.5,394.6,275.9
		c128.3,151.8-2.3,381.4-285.3,339.4S256.7,881.2,129.3,795z"/>
	<linearGradient id="SVGID_6_" gradientUnits="userSpaceOnUse" x1="6.2469" y1="871.0602" x2="992.6588" y2="871.0602">
		<stop  offset="0" style="stop-color:#00AFBA"/>
		<stop  offset="1" style="stop-color:#6E68C6"/>
	</linearGradient>
	<path class="st5" d="M58.6,908.8c-21.4-6.7-43.3-21.8-3.1-47.3c40.2-25.6,80.1-38.9,143.4-26.2c63.3,12.7,68.8,14.8,96.8,31.5
		c29,17.4-15.8,43.6-91.3,38.8S90,918.6,58.6,908.8z"/>
	<g>
		<g>
			<linearGradient id="SVGID_7_" gradientUnits="userSpaceOnUse" x1="412.6713" y1="856.2328" x2="876.7135" y2="296.8738">
				<stop  offset="0" style="stop-color:#00B1BC"/>
				<stop  offset="1" style="stop-color:#C832D2"/>
			</linearGradient>
			<rect x="566.9" y="550.4" class="st6" width="19.5" height="216.3"/>
			<path d="M587.8,768.1h-22.3V549h22.3V768.1z M568.3,765.3h16.8V551.7h-16.8V765.3z"/>
		</g>
		<rect x="566.9" y="547.8" class="st7" width="19.5" height="216.3"/>
		<polygon class="st7" points="451.7,818.2 432.4,818.2 475.8,557.3 495.1,557.3 		"/>
		<polygon class="st7" points="701.7,818.2 721,818.2 677.6,557.3 658.3,557.3 		"/>
		<linearGradient id="SVGID_8_" gradientUnits="userSpaceOnUse" x1="301.9012" y1="403.6624" x2="854.6346" y2="403.6624">
			<stop  offset="0" style="stop-color:#00B1BC"/>
			<stop  offset="1" style="stop-color:#6E68C8"/>
		</linearGradient>
		<rect x="316.7" y="229.7" class="st8" width="519.9" height="348"/>
		<linearGradient id="SVGID_9_" gradientUnits="userSpaceOnUse" x1="301.9012" y1="218.6827" x2="854.6346" y2="218.6827">
			<stop  offset="0" style="stop-color:#00B1BC"/>
			<stop  offset="1" style="stop-color:#6E68C8"/>
		</linearGradient>
		<path class="st9" d="M851.3,229.7H302c-3.4,0-6.2-2.8-6.2-6.2v-9.6c0-3.4,2.8-6.2,6.2-6.2h549.3c3.4,0,6.2,2.8,6.2,6.2v9.6
			C857.6,226.9,854.8,229.7,851.3,229.7z"/>
		<linearGradient id="SVGID_10_" gradientUnits="userSpaceOnUse" x1="301.9012" y1="588.6435" x2="854.6346" y2="588.6435">
			<stop  offset="0" style="stop-color:#00B1BC"/>
			<stop  offset="1" style="stop-color:#6E68C8"/>
		</linearGradient>
		<path class="st10" d="M851.3,599.6H302c-3.4,0-6.2-2.8-6.2-6.2v-9.6c0-3.4,2.8-6.2,6.2-6.2h549.3c3.4,0,6.2,2.8,6.2,6.2v9.6
			C857.6,596.9,854.8,599.6,851.3,599.6z"/>
		<g>
			<g class="st11">
				<g>
					<path class="st12" d="M416.6,483.4c5.4-15,0.3-31.3-11.7-40.6c-2.9-2.2-6.2-4.1-9.8-5.4c-11-4-22.7-2.3-31.8,3.7
						c-6.3,4.1-11.4,10.2-14.2,17.9c-0.3,0.8-0.5,1.5-0.7,2.3c-1,3.5-1.5,7-1.4,10.4c0.2,14.5,9.2,28,23.7,33.2
						C389.3,511.7,409.9,502,416.6,483.4z M373.7,496.5c-10.8-3.9-17.6-14.1-17.7-24.9c0-2.6,0.3-5.2,1.1-7.8
						c0.2-0.6,0.4-1.1,0.6-1.7c2.1-5.7,5.9-10.3,10.6-13.4c6.8-4.4,15.6-5.7,23.8-2.7c2.7,1,5.2,2.4,7.4,4.1c9,7,12.8,19.2,8.8,30.4
						C403.1,494.3,387.7,501.5,373.7,496.5z"/>
				</g>
			</g>
			<g>
				<g>
					<path class="st12" d="M368.2,448.6l-4.9-7.5c9.1-5.9,20.8-7.7,31.8-3.7c3.6,1.3,6.9,3.2,9.8,5.4l-5.5,7.1
						c-2.2-1.7-4.6-3.1-7.4-4.1C383.8,442.9,375,444.2,368.2,448.6z"/>
				</g>
			</g>
			<g class="st13">
				<g>
					<path class="st12" d="M357,463.7l-8.6-2.5c0.2-0.8,0.5-1.5,0.7-2.3c2.8-7.6,7.8-13.7,14.2-17.9l4.9,7.5
						c-4.7,3.1-8.5,7.7-10.6,13.4C357.4,462.6,357.2,463.1,357,463.7z"/>
				</g>
			</g>
			<g class="st14">
				<g>
					<path class="st12" d="M347,471.7c0-3.5,0.4-7,1.4-10.4l8.6,2.5c-0.8,2.6-1.1,5.2-1.1,7.8L347,471.7z"/>
				</g>
			</g>
		</g>
		<g>
			<g class="st11">
				<g>
					<path class="st12" d="M517.2,477.8c3-15.7-4.8-30.9-18.1-38.1c-3.2-1.8-6.8-3-10.6-3.8c-11.5-2.2-22.8,1.4-30.8,8.7
						c-5.6,5.1-9.6,11.9-11.1,19.9c-0.1,0.8-0.3,1.6-0.4,2.4c-0.4,3.6-0.3,7.1,0.3,10.5c2.5,14.3,13.6,26.2,28.7,29
						C494.8,510.1,513.6,497.3,517.2,477.8z M477,497.6c-11.3-2.1-19.6-11.1-21.5-21.7c-0.5-2.5-0.5-5.2-0.2-7.9
						c0.1-0.6,0.2-1.2,0.3-1.8c1.1-6,4.1-11.1,8.3-14.9c6-5.5,14.5-8.2,23.1-6.5c2.8,0.5,5.5,1.5,7.9,2.8
						c10,5.4,15.8,16.8,13.5,28.6C505.7,490.7,491.6,500.4,477,497.6z"/>
				</g>
			</g>
			<g>
				<g>
					<path class="st12" d="M463.9,451.3l-6-6.6c8-7.3,19.3-10.9,30.8-8.7c3.8,0.7,7.3,2,10.6,3.8l-4.3,7.9c-2.4-1.3-5.1-2.3-7.9-2.8
						C478.4,443.1,469.9,445.8,463.9,451.3z"/>
				</g>
			</g>
			<g class="st13">
				<g>
					<path class="st12" d="M455.3,468l-8.9-1.1c0.1-0.8,0.2-1.6,0.4-2.4c1.5-8,5.5-14.8,11.1-19.9l6,6.6c-4.2,3.8-7.2,8.9-8.3,14.9
						C455.5,466.8,455.4,467.4,455.3,468z"/>
				</g>
			</g>
			<g class="st14">
				<g>
					<path class="st12" d="M446.7,477.4c-0.6-3.4-0.7-6.9-0.3-10.5l8.9,1.1c-0.3,2.7-0.2,5.3,0.2,7.9L446.7,477.4z"/>
				</g>
			</g>
		</g>
		<g>
			<g class="st11">
				<g>
					<path class="st12" d="M598,439.5c-14.1-7.5-30.9-4.7-41.8,5.9c-2.6,2.5-4.9,5.5-6.7,9c-5.5,10.3-5.4,22.1-0.9,32
						c3.2,6.8,8.5,12.7,15.7,16.5c0.7,0.4,1.4,0.7,2.2,1.1c3.3,1.5,6.7,2.4,10.1,2.9c14.4,1.8,29-5.2,36.2-18.7
						C622.1,470.5,615.4,448.8,598,439.5z M604.8,483.8c-5.4,10.2-16.4,15.4-27.2,14.1c-2.6-0.3-5.1-1-7.6-2.1
						c-0.5-0.2-1.1-0.5-1.6-0.8c-5.4-2.9-9.4-7.3-11.7-12.4c-3.4-7.4-3.5-16.2,0.6-24c1.4-2.6,3.1-4.8,5-6.7
						c8.2-7.9,20.8-10,31.3-4.4C606.8,454.4,611.8,470.7,604.8,483.8z"/>
				</g>
			</g>
			<g class="st14">
				<g>
					<path class="st12" d="M556.7,482.5l-8.1,3.8c-4.6-9.9-4.6-21.7,0.9-32c1.8-3.4,4.1-6.4,6.7-9l6.2,6.5c-2,1.9-3.7,4.2-5,6.7
						C553.2,466.3,553.3,475.1,556.7,482.5z"/>
				</g>
			</g>
			<g class="st13">
				<g>
					<path class="st12" d="M570.1,495.7l-3.7,8.2c-0.7-0.3-1.4-0.7-2.2-1.1c-7.2-3.8-12.5-9.7-15.7-16.5l8.1-3.8
						c2.4,5.1,6.4,9.5,11.7,12.4C569,495.2,569.5,495.5,570.1,495.7z"/>
				</g>
			</g>
			<g>
				<g>
					<path class="st12" d="M576.5,506.8c-3.4-0.4-6.8-1.4-10.1-2.9l3.7-8.2c2.5,1.1,5,1.8,7.6,2.1L576.5,506.8z"/>
				</g>
			</g>
		</g>
		<path class="st12" d="M417.9,531.1h-69.9c-0.5,0-0.9-0.4-0.9-0.9V525c0-0.5,0.4-0.9,0.9-0.9h69.9c0.5,0,0.9,0.4,0.9,0.9v5.2
			C418.8,530.7,418.4,531.1,417.9,531.1z"/>
		
			<ellipse transform="matrix(0.3809 -0.9246 0.9246 0.3809 -45.5486 562.1337)" class="st12" cx="397" cy="315.1" rx="49.4" ry="49.4"/>
		<path class="st15" d="M408.3,317c-2.8,0-5.3,0.9-7.4,1.7c-1.5,0.5-2.8,1.1-3.8,1.1s-2.3-0.5-3.8-1.1c-2.2-0.8-4.6-1.7-7.4-1.7
			c-5.3,0-15.2,6.3-15.2,18.3c0,11.8,5,12.8,10.7,12.8h31.5c5.6,0,10.7-1,10.7-12.8C423.4,323.3,413.5,317,408.3,317z"/>
		<ellipse class="st15" cx="397" cy="297.9" rx="16" ry="15.8"/>
		<path class="st16" d="M399.8,546h-51.9c-0.5,0-0.9-0.4-0.9-0.9v-5.2c0-0.5,0.4-0.9,0.9-0.9h51.9c0.5,0,0.9,0.4,0.9,0.9v5.2
			C400.7,545.6,400.3,546,399.8,546z"/>
		<path class="st12" d="M484.8,531.1H447c-0.5,0-0.9-0.4-0.9-0.9V525c0-0.5,0.4-0.9,0.9-0.9h37.7c0.5,0,0.9,0.4,0.9,0.9v5.2
			C485.7,530.7,485.3,531.1,484.8,531.1z"/>
		<path class="st16" d="M503.9,546H447c-0.5,0-0.9-0.4-0.9-0.9v-5.2c0-0.5,0.4-0.9,0.9-0.9h56.9c0.5,0,0.9,0.4,0.9,0.9v5.2
			C504.9,545.6,504.4,546,503.9,546z"/>
		<path class="st12" d="M594.6,531.1h-41.7c-0.6,0-1.1-0.5-1.1-1.1v-4.7c0-0.6,0.5-1.1,1.1-1.1h41.7c0.6,0,1.1,0.5,1.1,1.1v4.7
			C595.7,530.6,595.2,531.1,594.6,531.1z"/>
		<path class="st16" d="M601.5,546h-48.7c-0.6,0-1.1-0.5-1.1-1.1v-4.7c0-0.6,0.5-1.1,1.1-1.1h48.7c0.6,0,1.1,0.5,1.1,1.1v4.7
			C602.7,545.5,602.2,546,601.5,546z"/>
		<path class="st16" d="M796.6,451.9H653.3c-0.5,0-0.9-0.4-0.9-0.9V441c0-0.5,0.4-0.9,0.9-0.9h143.3c0.5,0,0.9,0.4,0.9,0.9v9.9
			C797.5,451.5,797.1,451.9,796.6,451.9z"/>
		<path class="st16" d="M808.3,479.3h-155c-0.5,0-0.9-0.4-0.9-0.9v-9.9c0-0.5,0.4-0.9,0.9-0.9h155c0.5,0,0.9,0.4,0.9,0.9v9.9
			C809.2,478.9,808.8,479.3,808.3,479.3z"/>
		<path class="st16" d="M753.1,506.8h-99.7c-0.6,0-1-0.5-1-1V496c0-0.6,0.5-1,1-1h99.7c0.6,0,1,0.5,1,1v9.7
			C754.2,506.3,753.7,506.8,753.1,506.8z"/>
		<path class="st12" d="M727,451.9h-73.7c-0.5,0-1-0.4-1-1v-9.8c0-0.5,0.4-1,1-1H727c0.5,0,1,0.4,1,1v9.8
			C728,451.4,727.5,451.9,727,451.9z"/>
		<path class="st12" d="M733.1,479.3h-79.7c-0.5,0-1-0.4-1-1v-9.8c0-0.5,0.4-1,1-1h79.7c0.5,0,1,0.4,1,1v9.8
			C734.1,478.9,733.6,479.3,733.1,479.3z"/>
		<path class="st12" d="M724.4,506.8h-71c-0.5,0-1-0.4-1-1V496c0-0.5,0.4-1,1-1h71c0.5,0,1,0.4,1,1v9.8
			C725.3,506.3,724.9,506.8,724.4,506.8z"/>
		<path class="st12" d="M418,393.1h-44.5c-0.6,0-1-0.5-1-1v-3.7c0-0.6,0.5-1,1-1H418c0.6,0,1,0.5,1,1v3.7
			C419,392.6,418.5,393.1,418,393.1z"/>
		<path class="st12" d="M429.1,382.9h-66.8c-0.6,0-1.1-0.5-1.1-1.1v-3.5c0-0.6,0.5-1.1,1.1-1.1h66.8c0.6,0,1.1,0.5,1.1,1.1v3.5
			C430.3,382.4,429.8,382.9,429.1,382.9z"/>
		<g>
			<path class="st12" d="M524.1,356l22.6-18.3c1.8-1.5,4.7-1.5,6.5,0l6.7,5.5c1.8,1.5,4.7,1.5,6.5,0l22.4-18.2
				c1.8-1.5,4.7-1.5,6.5,0l16.4,13.3c1.8,1.5,4.7,1.5,6.5,0l22.9-18.5c1.8-1.5,4.7-1.5,6.5,0l13.6,11c1.8,1.5,4.7,1.5,6.5,0
				l44.7-36.3c1.8-1.5,4.7-1.5,6.5,0l31.9,25.8c1.8,1.5,4.7,1.5,6.5,0l16.7-13.6c1.8-1.5,4.7-1.5,6.5,0l20.4,16.6
				c0.9,0.7,1.3,1.6,1.3,2.6v65.9c0,2.1-2.1,3.7-4.6,3.7H527.4c-2.5,0-4.6-1.7-4.6-3.7v-33.2C522.8,357.6,523.2,356.7,524.1,356z"/>
			<g>
				<g>
					<g>
						<rect x="522" y="279.3" class="st12" width="1.6" height="116.3"/>
					</g>
					<g>
						<rect x="561.9" y="279.3" class="st12" width="1.6" height="116.3"/>
					</g>
					<g>
						<rect x="601.9" y="279.3" class="st12" width="1.6" height="116.3"/>
					</g>
					<g>
						<rect x="641.9" y="279.3" class="st12" width="1.6" height="116.3"/>
					</g>
					<g>
						<rect x="681.8" y="279.3" class="st12" width="1.6" height="116.3"/>
					</g>
					<g>
						<rect x="721.8" y="279.3" class="st12" width="1.6" height="116.3"/>
					</g>
					<g>
						<rect x="761.7" y="279.3" class="st12" width="1.6" height="116.3"/>
					</g>
					<g>
						<rect x="801.7" y="279.3" class="st12" width="1.6" height="116.3"/>
					</g>
				</g>
				<path class="st12" d="M538.2,270.9h-15.8c-0.3,0-0.5,0.2-0.5,0.5v0.5c0,0.3,0.2,0.5,0.5,0.5h15.8c0.3,0,0.5-0.2,0.5-0.5v-0.5
					C538.7,271.1,538.5,270.9,538.2,270.9z"/>
				<path class="st12" d="M572.9,270.9h-10.5c-0.3,0-0.5,0.2-0.5,0.5v0.5c0,0.3,0.2,0.5,0.5,0.5h10.5c0.3,0,0.5-0.2,0.5-0.5v-0.5
					C573.4,271.1,573.2,270.9,572.9,270.9z"/>
				<path class="st12" d="M615.6,270.9h-13.2c-0.3,0-0.5,0.2-0.5,0.5v0.5c0,0.3,0.2,0.5,0.5,0.5h13.2c0.3,0,0.5-0.2,0.5-0.5v-0.5
					C616.1,271.1,615.8,270.9,615.6,270.9z"/>
				<path class="st12" d="M651.9,270.9h-9.6c-0.3,0-0.5,0.2-0.5,0.5v0.5c0,0.3,0.2,0.5,0.5,0.5h9.6c0.3,0,0.5-0.2,0.5-0.5v-0.5
					C652.4,271.1,652.2,270.9,651.9,270.9z"/>
				<path class="st12" d="M690.1,270.9h-7.8c-0.3,0-0.5,0.2-0.5,0.5v0.5c0,0.3,0.2,0.5,0.5,0.5h7.8c0.3,0,0.5-0.2,0.5-0.5v-0.5
					C690.6,271.1,690.4,270.9,690.1,270.9z"/>
				<path class="st12" d="M738.4,270.9h-16.1c-0.3,0-0.5,0.2-0.5,0.5v0.5c0,0.3,0.2,0.5,0.5,0.5h16.1c0.3,0,0.5-0.2,0.5-0.5v-0.5
					C738.9,271.1,738.7,270.9,738.4,270.9z"/>
				<path class="st12" d="M773.2,270.9h-11c-0.3,0-0.5,0.2-0.5,0.5v0.5c0,0.3,0.2,0.5,0.5,0.5h11c0.3,0,0.5-0.2,0.5-0.5v-0.5
					C773.7,271.1,773.5,270.9,773.2,270.9z"/>
				<path class="st12" d="M808.7,270.9h-6.6c-0.3,0-0.5,0.2-0.5,0.5v0.5c0,0.3,0.2,0.5,0.5,0.5h6.6c0.3,0,0.5-0.2,0.5-0.5v-0.5
					C809.2,271.1,809,270.9,808.7,270.9z"/>
			</g>
			<path class="st15" d="M524.1,370.6l17.2-13.9c1.8-1.5,4.7-1.5,6.5,0l7.2,5.9c1.8,1.5,4.7,1.5,6.5,0l9.4-7.6
				c1.8-1.5,4.7-1.5,6.5,0l23.5,19c1.8,1.5,4.7,1.5,6.5,0l31-25.1c1.8-1.5,4.7-1.5,6.5,0l6.9,5.6c1.8,1.5,4.7,1.5,6.5,0l32.2-26.1
				c1.8-1.5,4.7-1.5,6.5,0l28.8,23.4c1.8,1.5,4.7,1.5,6.5,0l62.2-50.4c2.9-2.3,7.9-0.7,7.9,2.6v87.9c0,2.1-2.1,3.7-4.6,3.7H527.4
				c-2.5,0-4.6-1.7-4.6-3.7v-18.6C522.8,372.2,523.2,371.3,524.1,370.6z"/>
		</g>
		<path class="st17" d="M851.3,229.7H302c-3.4,0-6.2-2.8-6.2-6.2v-9.6c0-3.4,2.8-6.2,6.2-6.2h549.3c3.4,0,6.2,2.8,6.2,6.2v9.6
			C857.6,226.9,854.8,229.7,851.3,229.7z"/>
		<path class="st17" d="M851.3,599.6H302c-3.4,0-6.2-2.8-6.2-6.2v-9.6c0-3.4,2.8-6.2,6.2-6.2h549.3c3.4,0,6.2,2.8,6.2,6.2v9.6
			C857.6,596.9,854.8,599.6,851.3,599.6z"/>
	</g>
	<g>
		<g>
			<path class="st18" d="M211,842c-0.1,0-0.2,0-0.3-0.1c-0.3-0.2-0.5-0.6-0.3-0.9c1.4-2.6,2.7-7,2.8-9c-2.9,1.3-10.1,2.6-13.1,0.8
				c-1.1-0.6-1.6-1.6-1.5-2.8c0.1-1.2,0.7-2,1.9-2.5c3.3-1.3,10.1,0.9,12.8,2.3c0.4-2.8,1.8-8.4,4.2-10.4c0.7-0.6,1.5-0.9,2.3-0.8
				c0.6,0.1,1.9,0.5,1.8,2.7c-0.1,3.4-3.5,9.2-7,10.1c0.2,2.5-1.8,7.9-2.9,10.1C211.5,841.9,211.2,842,211,842z M202.9,828.6
				c-0.8,0-1.5,0.1-2,0.3c-0.7,0.3-1,0.7-1,1.3c-0.1,0.7,0.2,1.1,0.8,1.5c2.4,1.4,8.9,0.3,11.6-0.8C210.3,830,206,828.6,202.9,828.6
				z M219.3,820.1c-0.4,0-0.7,0.2-1.1,0.5c-2,1.7-3.4,7.1-3.8,9.7c2.7-1,5.5-6.1,5.7-8.8c0-1.2-0.5-1.3-0.6-1.3
				C219.4,820.1,219.3,820.1,219.3,820.1z"/>
			<path class="st18" d="M225.1,837.6C225.1,837.6,225.1,837.6,225.1,837.6c-3.9,0-10-3.7-11.9-6.1c-0.2-0.3-0.2-0.7,0.1-0.9
				c0.3-0.2,0.7-0.2,0.9,0.1c1.7,2.1,7.4,5.6,10.9,5.6c0.4,0,0.7,0.3,0.7,0.7C225.7,837.3,225.5,837.6,225.1,837.6z"/>
			<path class="st18" d="M234.4,856.6C234.3,856.6,234.3,856.6,234.4,856.6c-0.4,0-0.7-0.3-0.7-0.7c0.1-1.4,1-3.9,2.7-4.5
				c0.3-0.1,0.7,0,0.9,0.4c0.1,0.3,0,0.7-0.4,0.9c-0.9,0.4-1.8,2.1-1.8,3.4C235,856.3,234.7,856.6,234.4,856.6z"/>
			<path class="st18" d="M226.7,854.4c-0.1,0-0.1,0-0.2,0c-0.4-0.1-0.6-0.4-0.5-0.8c0.4-1.5,2.4-5.4,5.1-5.5c0.4,0,0.7,0.3,0.7,0.6
				c0,0.4-0.3,0.7-0.6,0.7c-1.6,0-3.4,2.9-3.8,4.5C227.2,854.2,227,854.4,226.7,854.4z"/>
			<path class="st18" d="M219.1,850.8c-0.1,0-0.2,0-0.3-0.1c-0.3-0.2-0.5-0.5-0.3-0.9c0.8-1.8,5-5.6,7.7-5.5c0.4,0,0.6,0.3,0.6,0.7
				c0,0.4-0.3,0.7-0.7,0.6c-2-0.1-5.7,3.2-6.4,4.7C219.6,850.7,219.4,850.8,219.1,850.8z"/>
			<path class="st18" d="M212.4,845.6c-0.1,0-0.2,0-0.3-0.1c-0.3-0.2-0.4-0.6-0.2-0.9c1.3-2.2,7.2-5,9.6-4.6
				c0.4,0.1,0.6,0.4,0.5,0.8c-0.1,0.4-0.4,0.6-0.8,0.5c-2-0.3-7.2,2.2-8.3,4C212.8,845.5,212.6,845.6,212.4,845.6z"/>
		</g>
		<rect x="80.3" y="501" class="st19" width="151.7" height="40"/>
		<path class="st19" d="M187.7,813.9c-1.1-0.2-2.6,1.3-3.2,2.6c-3,5.8-11.5,22.9-15.6,37.3l84.5,24c0,0,4.8-16.3-12.3-23.8
			c-29-12.6-27.4-33.3-33-34.8l-1,3.1c-5.6,2.4-16.4-2.9-20-5.7L187.7,813.9z"/>
		
			<rect x="205.8" y="825.9" transform="matrix(0.2731 -0.962 0.962 0.2731 -684.1516 834.2915)" class="st20" width="8.4" height="87.8"/>
		<path class="st21" d="M223.9,146.8c0,0-8.5-36.1-49.5-30.1s-46.3,45.9-46.2,83.7s-1.4,37.8-1.4,37.8s27.7,0.6,24.5-33.8
			c-3-32.3,20.5-20,30.2-25.5C191.1,173.4,227.2,173.6,223.9,146.8z"/>
		<path class="st22" d="M187,816.6c0,0,5.7-23.1,6.7-27.7c1-4.6,2.3-3.9,2.3-3.9l-0.3,1.5c0,0,4.8,3.6,9.7,5
			c7.4,2.1,9.4-1.2,9.4-1.2c3,0.5,1.4,4.4-1.7,13.5c-2.8,8.2-6.2,18.5-6.2,18.5S199.2,825.8,187,816.6z"/>
		<path class="st19" d="M91.9,835.8c-1.1,0.1-2.1,2-2.4,3.4c-1.3,6.4-4.8,25.2-4.8,40.2h87.8c0,0,0.2-17-18.4-19.5
			c-31.3-4.2-35.4-24.6-41.3-24.5l-0.1,3.3c-4.7,3.8-16.5,1.7-20.8-0.1V835.8z"/>
		<rect x="84.6" y="879.4" class="st20" width="87.8" height="8.4"/>
		<g>
			<path class="st18" d="M121.8,856.6c0,0-0.1,0-0.1,0c-0.4-0.1-0.6-0.4-0.5-0.8c0.6-2.9,0.7-7.5,0.2-9.4c-2.5,2-9,5.2-12.4,4.4
				c-1.2-0.3-2-1.1-2.2-2.2c-0.2-1.1,0.2-2.1,1.1-2.9c2.8-2.2,9.9-1.9,12.9-1.3c-0.4-2.8-0.6-8.6,1.2-11.2c0.5-0.8,1.2-1.2,2-1.4
				c0.6-0.1,2-0.1,2.5,2.1c0.8,3.3-0.8,9.8-3.9,11.7c0.9,2.4,0.5,8.1,0,10.5C122.3,856.3,122.1,856.6,121.8,856.6z M115.7,845.3
				c-2.7,0-5.7,0.3-7.1,1.4c-0.6,0.4-0.8,0.9-0.6,1.6c0.1,0.7,0.5,1,1.2,1.2c2.7,0.7,8.6-2.1,11-3.9
				C119.1,845.4,117.5,845.3,115.7,845.3z M124.2,833.1c-0.1,0-0.1,0-0.1,0c-0.4,0.1-0.8,0.3-1.1,0.8c-1.5,2.2-1.3,7.8-1,10.3
				c2.3-1.7,3.7-7.3,3-10C124.8,833.2,124.4,833.1,124.2,833.1z"/>
			<path class="st18" d="M131.7,848.7c-3.8,0-8.6-1.5-10.6-2.9c-0.3-0.2-0.4-0.6-0.2-0.9c0.2-0.3,0.6-0.4,0.9-0.2
				c2.2,1.6,8.7,3.3,12,2.4c0.4-0.1,0.7,0.1,0.8,0.5c0.1,0.4-0.1,0.7-0.5,0.8C133.5,848.6,132.6,848.7,131.7,848.7z"/>
			<path class="st18" d="M148.2,864.2c-0.3,0-0.6-0.2-0.7-0.5c-0.3-1.4-0.1-4,1.3-5.1c0.3-0.2,0.7-0.2,0.9,0.1
				c0.2,0.3,0.2,0.7-0.1,0.9c-0.8,0.6-1.1,2.5-0.8,3.8c0.1,0.4-0.2,0.7-0.5,0.8C148.3,864.2,148.2,864.2,148.2,864.2z"/>
			<path class="st18" d="M140.2,864.2c-0.4,0-0.7-0.3-0.7-0.6c-0.1-1.6,0.9-5.9,3.4-6.7c0.4-0.1,0.7,0.1,0.8,0.4
				c0.1,0.4-0.1,0.7-0.4,0.8c-1.5,0.5-2.5,3.7-2.5,5.3C140.9,863.9,140.6,864.2,140.2,864.2C140.2,864.2,140.2,864.2,140.2,864.2z"
				/>
			<path class="st18" d="M132,862.8C131.9,862.8,131.9,862.8,132,862.8c-0.5-0.1-0.7-0.4-0.7-0.8c0.3-2,3.3-6.8,5.9-7.3
				c0.4-0.1,0.7,0.1,0.8,0.5c0.1,0.4-0.1,0.7-0.5,0.8c-1.9,0.4-4.6,4.6-4.9,6.2C132.6,862.6,132.3,862.8,132,862.8z"/>
			<path class="st18" d="M124.1,859.7c-0.1,0-0.1,0-0.2,0c-0.4-0.1-0.6-0.5-0.5-0.8c0.7-2.5,5.5-6.8,8-7.1c0.4,0,0.7,0.2,0.7,0.6
				c0,0.4-0.2,0.7-0.6,0.7c-2,0.2-6.3,4.1-6.9,6.1C124.6,859.5,124.4,859.7,124.1,859.7z"/>
		</g>
		<path class="st22" d="M91.9,838.6c0,0-0.8-23.8-1.1-28.5c-0.3-4.7,1.2-4.4,1.2-4.4l0.1,1.5c0,0,5.6,2.2,10.7,2.2
			c7.7,0,8.7-3.7,8.7-3.7c3.1-0.3,2.5,3.8,2,13.4c-0.4,8.6-0.9,19.5-0.9,19.5S106.2,844.2,91.9,838.6z"/>
		<path class="st23" d="M295.8,397c0,0,9.4,2.9,13.9,0.5c4.5-2.4,8.3-4.7,18.5-1.5c0,0,5.9,1,5.7,5.3c-0.2,4.4-4.9,2.8-10.1,1.6
			c-5.1-1.1-1.6,5.8,4.4,6.7c6,0.8,11.9-1.3,17.1-2.3c6.7-1.3,5.9,1,7.1,4.2c0.7,1.7-3.7,6.5-14.5,9.9c-10.9,3.5-20.7,2.6-26.4-2.2
			c-6.8-5.9-15.8-6.4-17.1-5.7C293.3,414.2,290,402.7,295.8,397z"/>
		<path class="st24" d="M198.1,364.6c7.3,1.9,109.9,26.2,109.9,26.2c0,0.1-1.7,25.7-7.1,35c-4.3-1-104.9-25-110.1-26.6
			c-5.2-1.6-11.6-8-9.6-19.6C183.2,368,190.8,362.7,198.1,364.6z"/>
		<path class="st23" d="M176.7,238.8l-3.8,19.6L124,235.2c0,0,12.6-14.5,5.9-47.6c-4.3-20.8,47-31.3,45.7,0
			C173.7,232.1,176.7,238.8,176.7,238.8z"/>
		<path class="st25" d="M178.3,112.7L178.3,112.7c-37.1-3.4-50,26.4-49.3,54.7c0.2,7.7,1.3,14.7,3.1,20.9c2.1,9,5.1,17.9,8.5,23.9
			c7.5,13.3,18.7,16.4,30.3,19.7c13,3.7,16.7-2.8,26.4-14.5c4.3-5.2,8.7-13,12.3-21.2c3.1-6,1.3-11.7,5.5-20.2
			C227.8,150.6,215.4,116.1,178.3,112.7z"/>
		<path class="st23" d="M211.4,191.7c-1.9,8.9-0.2,13.1-2.4,14.6c-2.5,1.7-7.3-2-7.3-2"/>
		<g>
			<path class="st25" d="M161,175.5c-0.2-3.3-1.4-5.9-4-6.9c-4.2-1.6-9.1,2.8-9.6,8.8c-0.5,6.3,0.5,13.1,4.3,13.9
				c1.2,0.3,2.5-0.3,3.7-1.4"/>
			<path class="st23" d="M152.5,182.6c0.2,0.5,0.7,1.1,1.3,1c0.8-0.2,0.5-0.8,0.7-1.5c0.2-0.6,0.7-0.9,1.1-1.3
				c0.5-0.6,0.6-1,0.7-1.8c0.3-2.7,0.1-6.3-2.3-7.4l0-0.1c1.4-0.5,2.8,0.7,3.3,2c0.5,1.3,0.1,2.8,0.3,4.2c0.2,1.2,0.9,3.4-0.5,4
				c-0.5,0.2-1.2-0.1-1.6,0.6c-0.5,0.9,0.4,1.3,0.4,2c0,0.5-0.3,1-0.9,1c-0.4,0-0.4-0.4-0.7-0.5c-0.2,0-0.4,0.1-0.6,0.1
				c-0.5,0.1-0.9,0.6-1.3-0.2c-0.3-0.6,0-1.6,0-2.3"/>
		</g>
		<path class="st7" d="M202.7,673.8l-19,136.9c13.7,7.3,34,8.3,34,8.3l38.6-155.6l-30.2-122.6l-1.9-51h-74h-0.1H76l-1.9,51l13,138.6
			L85.4,834c0,0,19.6,7.1,33.3-0.3l18.6-154.4c0,0,12-85.8,16.1-114.8L202.7,673.8z"/>
		<path class="st26" d="M228.2,348.8c1.9-41.5-4.1-80.1-13.6-84.8c-14.7-7.4-16.7-15.9-27-22.8l-15.5,24.3l-53.6-25.9
			c-10.2,6.9-23.6,10-38.4,17.3c-9.5,4.7,0.6,105,2.5,146.5c2.3,49.7-7,93.8-7,93.8s16,5.4,74.5,5.6c58.5-0.3,78.6-6.4,78.6-6.4
			S226,398.5,228.2,348.8z"/>
		<polygon class="st22" points="124,235.2 172.4,257 176.7,238.8 188.3,241.1 172.2,265.5 118.6,239.6 		"/>
		<path class="st21" d="M217.9,138c0,0-8.5-36.1-49.5-30.1s-49.8,43.2-49.7,81c0.1,37.9-11.3,45.2-11.3,45.2s45,7,41.8-27.5
			c-3-32.3,12.3-39,27.6-40.2C187.8,165.6,235.9,163.5,217.9,138z"/>
		<path class="st19" d="M182.8,521c14.1-122.9-53.4-230.1-59-253.5c-2.4-9.9,0.2-32.2,0.2-32.2c-4.8,0.3-18.5,4.1-30.2,8.2
			c-19.9,6.9-36.7,28.5-41,48.6c-2.3,10.5,25.6,71.1,27.5,108.7c2.3,45.1-28,135.2-4.5,117.8C105.9,496.2,178,563.1,182.8,521z"/>
		<path class="st19" d="M201.7,527.3c-10.5-18.7-17.1-255.4-18.3-273.3c-0.6-9.5-6.8-15.1-6.8-15.1c4.8,0.3,12.1,0.7,16.5,2.2
			c14.4,4.9,24.3,13.4,30.6,24.5c7.7,13.5,12.1,35.4,10.2,73c-2.3,45.1-2,202.5-2,202.5S212.7,546.8,201.7,527.3z"/>
		<path class="st27" d="M191.4,183.4c0,0,8.9-7.3,13.2,1.6C204.6,185,198.9,180.2,191.4,183.4z"/>
		<path class="st27" d="M206.5,179.6c0,0-2.7-2-5.6-2.9c-2.5-0.8-4.4-2.5-8.5-2.2c-4.1,0.3-7.3,3.2-7.7,3.6c-0.4,0.4,1.3-2.7,3-3.8
			s4.7-2.2,8.5-1.6s8.6,2.3,9.6,3.4C207,177.2,209.5,178.8,206.5,179.6z"/>
		<path class="st23" d="M102.5,533.5c-2-2.9-4.3-6.3-3.9-13.8c0.5-9-4.6-16.4-6-17c-1.3-0.5,5.7-10.1,13.8-9.1c0,0,3.5,9.2,8.1,11.3
			c4.6,2.1,9.6,9.1,13.4,19.2L102.5,533.5z"/>
		<path class="st19" d="M72.3,396.6c3,6.9,46.6,103,46.6,103c0,0.1-21.4,14.4-32.1,15.8c-1.8-4-44.4-98.3-46.4-103.3
			c-2-5.1-0.8-14.1,9.6-19.6C60.4,386.9,69.3,389.7,72.3,396.6z"/>
		<path class="st19" d="M39.6,407.5c0,0,7.3-60.2,9.8-88.6c1-11.2,0-40.5,19.7-46.7c15.6-4.9,32.1,3.8,33.8,16.2
			c3.7,26.9-28.2,123.9-28.2,123.9"/>
		
			<ellipse transform="matrix(0.1183 -0.993 0.993 0.1183 -8.6849 359.8645)" class="st27" cx="198.3" cy="184.8" rx="4.3" ry="3.2"/>
		<path class="st28" d="M95,533.5c0,0,14.1,3.4,32.9-9.4"/>
		<path class="st29" d="M196.4,218.8c0,0-2,2.7-4.1,2.2c-2.4-0.6-5-4.7-5.1-6.6c-0.2-3.6-0.5-4.6-0.5-4.6"/>
		<g>
			<path class="st21" d="M195.2,220.5c-0.4,0.6-0.8,1.1-1.3,1.7C194.3,221.7,194.7,221.1,195.2,220.5z"/>
			<path class="st21" d="M184.4,214.9c0.4-5.9,0.1-9.4,3.9-6.1c2.4,2,7,5.2,10.1,7.3c0,0,0,0,0,0c0.5-0.6,0.9-1.3,1.4-1.8
				c5.6-7-3.1-6.4-20.5-9.4c-17.4-3-16.3-35-16.3-35c-3.5,15.4-3.1,17.4-14,36c-10.9,18.8,21.4,27.2,30.1,27.1
				c5.7,0,10.3-4.9,14.4-10.3c-0.5,0.7-1,1.3-1.6,2C192,224.6,184,220.8,184.4,214.9z"/>
			<path class="st21" d="M195.6,219.9c-0.1,0.1-0.1,0.2-0.2,0.3C195.5,220.1,195.6,220,195.6,219.9z"/>
			<path class="st21" d="M198.4,216.1c-0.9,1.2-1.8,2.5-2.8,3.8C196.6,218.6,197.5,217.3,198.4,216.1z"/>
			<path class="st21" d="M195.4,220.2c-0.1,0.1-0.2,0.2-0.3,0.4C195.2,220.4,195.3,220.3,195.4,220.2z"/>
			<path class="st21" d="M193.6,222.7c0.1-0.1,0.2-0.3,0.3-0.4C193.8,222.4,193.7,222.5,193.6,222.7z"/>
		</g>
	</g>
	<path class="st7" d="M940.2,743H196.1c-0.4,0-0.7-0.3-0.7-0.7c0-0.4,0.3-0.7,0.7-0.7h744.1c0.4,0,0.7,0.3,0.7,0.7
		C940.9,742.7,940.6,743,940.2,743z"/>
</g>
</svg>
