<?xml version="1.0" encoding="utf-8"?>
<!-- Generator: Adobe Illustrator 24.0.0, SVG Export Plug-In . SVG Version: 6.00 Build 0)  -->
<svg version="1.1" id="Слой_1" xmlns="http://www.w3.org/2000/svg" xmlns:xlink="http://www.w3.org/1999/xlink" x="0px" y="0px"
	 viewBox="0 0 1000 1000" style="enable-background:new 0 0 1000 1000;" xml:space="preserve">
<style type="text/css">
	.st0{opacity:0.2;fill:url(#SVGID_1_);enable-background:new    ;}
	.st1{opacity:0.1;fill:url(#SVGID_2_);enable-background:new    ;}
	.st2{opacity:0.1;fill:url(#SVGID_3_);enable-background:new    ;}
	.st3{opacity:0.28;fill:url(#SVGID_4_);enable-background:new    ;}
	.st4{opacity:0.28;fill:url(#SVGID_5_);enable-background:new    ;}
	.st5{opacity:0.28;fill:url(#SVGID_6_);enable-background:new    ;}
	.st6{opacity:0.28;fill:url(#SVGID_7_);enable-background:new    ;}
	.st7{fill:url(#SVGID_8_);}
	.st8{fill:#FFFFFF;}
	.st9{fill:#E6E6E6;}
	.st10{fill:#E39C74;}
	.st11{fill:#233A57;}
	.st12{fill:#CCCCDA;}
	.st13{fill:#1F2C3C;}
	.st14{fill:#DBD4DC;}
	.st15{fill:#00B2BD;}
	.st16{fill:#1C3249;}
	.st17{fill:#57453F;}
	.st18{fill:#F6B88C;}
	.st19{fill:#BC8161;}
	.st20{opacity:0.1;fill:#FFFFFF;}
	.st21{fill:#3E729F;}
	.st22{fill:#CACAD8;}
	.st23{fill:#2C648C;}
	.st24{fill:#F4B68A;}
	.st25{fill:#E3A67F;}
	.st26{fill:#1A3047;}
	.st27{fill:#BA7032;}
	.st28{fill:#6C3506;}
	.st29{fill:#E19A74;}
	.st30{fill:#4399A9;}
</style>
<g>
	<linearGradient id="SVGID_1_" gradientUnits="userSpaceOnUse" x1="-3.6576" y1="406.7088" x2="990.8453" y2="406.7088">
		<stop  offset="0" style="stop-color:#00B1BC"/>
		<stop  offset="1" style="stop-color:#6E68C8"/>
	</linearGradient>
	<path class="st0" d="M496.3,80.6C592.7,61.4,784.9,39,844.7,170c59.8,130.9,188.4,294.6,51.7,408.9S542.7,759.5,358.3,745.7
		C173.9,732,66.3,555.2,135.7,406.1C207.4,252.2,306.4,118.4,496.3,80.6z"/>
	<linearGradient id="SVGID_2_" gradientUnits="userSpaceOnUse" x1="-3.6576" y1="939.1043" x2="990.8453" y2="939.1043">
		<stop  offset="0" style="stop-color:#00B1BC"/>
		<stop  offset="1" style="stop-color:#6E68C8"/>
	</linearGradient>
	<path class="st1" d="M173.5,903.5c-38.4,0.5-114.3,3.1-132.9,18.6s-62.9,36.4-5.3,45s144.8,10.1,216.3,3.8s107.2-27.9,74.6-42.1
		C292.7,914.3,249.1,902.6,173.5,903.5z"/>
	<linearGradient id="SVGID_3_" gradientUnits="userSpaceOnUse" x1="-3.6576" y1="900.1945" x2="990.8453" y2="900.1945">
		<stop  offset="0" style="stop-color:#00B1BC"/>
		<stop  offset="1" style="stop-color:#6E68C8"/>
	</linearGradient>
	<path class="st2" d="M701.8,852.8c-68,1.4-202.5,6.3-235.8,27.3c-33.3,21-112.2,49.5-10.3,59.8s256.3,10.6,383.2,0.8
		s190.5-39.2,133.1-57.2C912.7,864.9,835.7,850.2,701.8,852.8z"/>
	<linearGradient id="SVGID_4_" gradientUnits="userSpaceOnUse" x1="-3.6576" y1="33.0878" x2="990.8453" y2="33.0878">
		<stop  offset="0" style="stop-color:#00B1BC"/>
		<stop  offset="1" style="stop-color:#6E68C8"/>
	</linearGradient>
	<path class="st3" d="M550.5,30.9c1.7-4.2,10.7-6.6,20.3-5.3c9.6,1.2,16,5.6,14.3,9.8s-10.7,6.6-20.3,5.3S548.8,35,550.5,30.9z"/>
	<linearGradient id="SVGID_5_" gradientUnits="userSpaceOnUse" x1="-3.6576" y1="45.8881" x2="990.8453" y2="45.8881">
		<stop  offset="0" style="stop-color:#00B1BC"/>
		<stop  offset="1" style="stop-color:#6E68C8"/>
	</linearGradient>
	<path class="st4" d="M428.7,52.2c0,0-15.7,23.4,37.9,7.6s82.1-30.6,57.8-31.4C500,27.5,461.2,18.2,428.7,52.2z"/>
	<linearGradient id="SVGID_6_" gradientUnits="userSpaceOnUse" x1="-3.6576" y1="774.6411" x2="990.8453" y2="774.6411">
		<stop  offset="0" style="stop-color:#00B1BC"/>
		<stop  offset="1" style="stop-color:#6E68C8"/>
	</linearGradient>
	<path class="st5" d="M413.3,777c-2.6,4.3-10.6,6.8-17.9,5.5c-7.3-1.3-11-5.9-8.4-10.2c2.6-4.3,10.6-6.8,17.9-5.5
		C412.2,768.1,415.9,772.7,413.3,777z"/>
	<linearGradient id="SVGID_7_" gradientUnits="userSpaceOnUse" x1="-3.6576" y1="772.4315" x2="990.8453" y2="772.4315">
		<stop  offset="0" style="stop-color:#00B1BC"/>
		<stop  offset="1" style="stop-color:#6E68C8"/>
	</linearGradient>
	<path class="st6" d="M365.1,770c5.1,4.9,0.1,12.5-9.2,14.5c-15.9,3.4-40.7,5.9-58.3-4.9c-27.8-17.1,16.9-29.5,41.8-17
		C357.4,771.6,360.8,765.9,365.1,770z"/>
	<g>
		
			<linearGradient id="SVGID_8_" gradientUnits="userSpaceOnUse" x1="300.2513" y1="390.438" x2="917.2143" y2="390.438" gradientTransform="matrix(1 -1.255835e-04 -1.255835e-04 0.7608 3.653164e-02 69.5806)">
			<stop  offset="0" style="stop-color:#00B1BC"/>
			<stop  offset="1" style="stop-color:#6E68C8"/>
		</linearGradient>
		<rect x="300.3" y="211" class="st7" width="616.7" height="311.2"/>
		<g>
			<path class="st8" d="M509.2,236.1c-0.6,7.7-3.6,43.3-13.8,73.8c-0.1,0.4-0.4,0.7-0.7,0.9L474.1,322c-0.3,0.1-0.5,0.2-0.8,0.2
				l-70.3-4c-1.1-0.1-1.7-1.1-1.3-2.1c13.7-32.3,17.5-76.5,18.1-85.1c0.1-0.8,0.8-1.4,1.6-1.4l86.3,4.9
				C508.6,234.5,509.3,235.3,509.2,236.1z"/>
			<path class="st9" d="M473.8,322l0.7-12.9c0-0.1,0.1-0.1,0.1-0.1l20.2,1.2c0.1,0,0.1,0.2,0,0.2l-20.9,11.8
				C473.9,322.2,473.8,322.1,473.8,322z"/>
		</g>
		<g>
			<path class="st8" d="M702.4,421.5c-0.1,7.8-1,43.5-9.4,74.5c-0.1,0.4-0.3,0.7-0.7,0.9l-19.8,12.5c-0.2,0.2-0.5,0.2-0.8,0.2
				l-70.4,0.2c-1.1,0-1.8-1-1.4-2c11.7-33.1,12.9-77.4,13-86c0-0.8,0.7-1.5,1.5-1.5l86.5-0.2C701.7,419.9,702.4,420.6,702.4,421.5z"
				/>
			<path class="st9" d="M672.1,509.3l0-12.9c0-0.1,0-0.1,0.1-0.1l20.2-0.1c0.1,0,0.2,0.1,0.1,0.2l-20.2,13
				C672.2,509.5,672.1,509.4,672.1,509.3z"/>
		</g>
		<g>
			<path class="st8" d="M404.9,342.5c-1.1,7.7-6.5,43-18.7,72.7c-0.1,0.4-0.4,0.6-0.8,0.8l-21.2,9.9c-0.3,0.1-0.5,0.2-0.8,0.1
				l-69.9-8.7c-1-0.1-1.6-1.3-1.2-2.2c15.8-31.3,22.5-75.2,23.7-83.7c0.1-0.8,0.9-1.4,1.7-1.3l85.8,10.7
				C404.4,340.9,405,341.6,404.9,342.5z"/>
			<path class="st9" d="M363.8,425.8l1.6-12.8c0-0.1,0.1-0.1,0.1-0.1l20.1,2.5c0.1,0,0.1,0.2,0,0.2L364,425.9
				C363.9,426,363.8,425.9,363.8,425.8z"/>
		</g>
		<g>
			<path class="st8" d="M897.8,325.4c-0.1,7.8-1.2,43.5-9.7,74.5c-0.1,0.4-0.3,0.7-0.7,0.9l-19.8,12.4c-0.2,0.2-0.5,0.2-0.8,0.2
				l-70.4,0c-1.1,0-1.8-1-1.4-2c11.8-33,13.1-77.4,13.2-86c0-0.8,0.7-1.5,1.5-1.5l86.5,0.1C897.2,323.9,897.9,324.6,897.8,325.4z"/>
			<path class="st9" d="M867.3,413.2l0-12.9c0-0.1,0-0.1,0.1-0.1l20.2,0c0.1,0,0.2,0.1,0.1,0.2l-20.2,12.9
				C867.4,413.3,867.3,413.3,867.3,413.2z"/>
		</g>
		<g>
			<path class="st8" d="M798.1,233.1c-0.2,7.8-1.5,43.4-10.2,74.4c-0.1,0.4-0.3,0.7-0.7,0.9l-19.9,12.3c-0.2,0.1-0.5,0.2-0.8,0.2
				l-70.4-0.5c-1.1,0-1.8-1.1-1.4-2c12.1-33,13.7-77.3,13.9-85.9c0-0.8,0.7-1.5,1.5-1.5l86.5,0.7
				C797.5,231.5,798.2,232.2,798.1,233.1z"/>
			<path class="st9" d="M767,320.6l0.1-12.9c0-0.1,0.1-0.1,0.1-0.1l20.2,0.2c0.1,0,0.2,0.1,0.1,0.2l-20.3,12.8
				C767.1,320.8,767,320.7,767,320.6z"/>
		</g>
		<g>
			<path class="st8" d="M478.6,375.9h-12.3v-12.3c0-1.1-0.9-2.1-2.1-2.1c-1.1,0-2.1,0.9-2.1,2.1v12.3h-12.3c-1.1,0-2.1,0.9-2.1,2.1
				c0,1.1,0.9,2.1,2.1,2.1h12.3v12.3c0,1.1,0.9,2.1,2.1,2.1c1.1,0,2.1-0.9,2.1-2.1v-12.3h12.3c1.1,0,2.1-0.9,2.1-2.1
				C480.7,376.9,479.8,375.9,478.6,375.9z"/>
		</g>
		<g>
			<path class="st8" d="M860.8,471.1h-12.3v-12.3c0-1.1-0.9-2.1-2.1-2.1c-1.1,0-2.1,0.9-2.1,2.1v12.3H832c-1.1,0-2.1,0.9-2.1,2.1
				c0,1.1,0.9,2.1,2.1,2.1h12.3v12.3c0,1.1,0.9,2.1,2.1,2.1c1.1,0,2.1-0.9,2.1-2.1v-12.3h12.3c1.1,0,2.1-0.9,2.1-2.1
				C862.9,472.1,861.9,471.1,860.8,471.1z"/>
		</g>
		<g>
			<g>
				<g>
					<path class="st8" d="M844.8,280.5l-13-11.3c-1.1-0.9-1.2-2.5-0.2-3.6c0.9-1.1,2.5-1.2,3.6-0.2l9.2,8l13.1-14.6
						c0.9-1.1,2.6-1.1,3.6-0.2c1.1,0.9,1.1,2.6,0.2,3.6L844.8,280.5z"/>
				</g>
			</g>
		</g>
		<g>
			<g>
				<g>
					<path class="st8" d="M652.2,280.6l-13-11.3c-1.1-0.9-1.2-2.5-0.2-3.6c0.9-1.1,2.5-1.2,3.6-0.2l9.2,8l13.1-14.6
						c0.9-1.1,2.6-1.1,3.6-0.2c1.1,0.9,1.1,2.6,0.2,3.6L652.2,280.6z"/>
				</g>
			</g>
		</g>
		<g>
			<g>
				<g>
					<path class="st8" d="M349.8,484.5l-13-11.3c-1.1-0.9-1.2-2.5-0.2-3.6c0.9-1.1,2.5-1.2,3.6-0.2l9.2,8l13.1-14.6
						c0.9-1.1,2.6-1.1,3.6-0.2c1.1,0.9,1.1,2.6,0.2,3.6L349.8,484.5z"/>
				</g>
			</g>
		</g>
		<g>
			<path class="st8" d="M482.9,448.2h-53.1c-0.7,0-1.3-0.6-1.3-1.3v-2c0-0.7,0.6-1.3,1.3-1.3h53.1c0.7,0,1.3,0.6,1.3,1.3v2
				C484.2,447.6,483.6,448.2,482.9,448.2z"/>
			<path class="st8" d="M471.7,460.8h-41.9c-0.7,0-1.3-0.6-1.3-1.3v-2c0-0.7,0.6-1.3,1.3-1.3h41.9c0.7,0,1.3,0.6,1.3,1.3v2
				C473,460.2,472.4,460.8,471.7,460.8z"/>
			<path class="st8" d="M500.3,473.4h-70.5c-0.7,0-1.3-0.6-1.3-1.3v-2c0-0.7,0.6-1.3,1.3-1.3h70.5c0.7,0,1.3,0.6,1.3,1.3v2
				C501.6,472.8,501,473.4,500.3,473.4z"/>
			<path class="st8" d="M462.6,486h-32.8c-0.7,0-1.3-0.6-1.3-1.3v-2c0-0.7,0.6-1.3,1.3-1.3h32.8c0.7,0,1.3,0.6,1.3,1.3v2
				C463.9,485.5,463.3,486,462.6,486z"/>
		</g>
		<g>
			<path class="st8" d="M773.3,448h-53.1c-0.7,0-1.3-0.6-1.3-1.3v-2c0-0.7,0.6-1.3,1.3-1.3h53.1c0.7,0,1.3,0.6,1.3,1.3v2
				C774.6,447.4,774,448,773.3,448z"/>
			<path class="st8" d="M762,460.7h-41.9c-0.7,0-1.3-0.6-1.3-1.3v-2c0-0.7,0.6-1.3,1.3-1.3H762c0.7,0,1.3,0.6,1.3,1.3v2
				C763.4,460.1,762.8,460.7,762,460.7z"/>
			<path class="st8" d="M790.7,473.3h-70.5c-0.7,0-1.3-0.6-1.3-1.3v-2c0-0.7,0.6-1.3,1.3-1.3h70.5c0.7,0,1.3,0.6,1.3,1.3v2
				C792,472.7,791.4,473.3,790.7,473.3z"/>
			<path class="st8" d="M752.9,485.9h-32.8c-0.7,0-1.3-0.6-1.3-1.3v-2c0-0.7,0.6-1.3,1.3-1.3h32.8c0.7,0,1.3,0.6,1.3,1.3v2
				C754.3,485.3,753.7,485.9,752.9,485.9z"/>
		</g>
		<g>
			<path class="st8" d="M581.1,355.1H528c-0.7,0-1.3-0.6-1.3-1.3v-2c0-0.7,0.6-1.3,1.3-1.3h53.1c0.7,0,1.3,0.6,1.3,1.3v2
				C582.4,354.5,581.8,355.1,581.1,355.1z"/>
			<path class="st8" d="M569.8,367.7H528c-0.7,0-1.3-0.6-1.3-1.3v-2c0-0.7,0.6-1.3,1.3-1.3h41.9c0.7,0,1.3,0.6,1.3,1.3v2
				C571.2,367.1,570.6,367.7,569.8,367.7z"/>
			<path class="st8" d="M598.5,380.3H528c-0.7,0-1.3-0.6-1.3-1.3v-2c0-0.7,0.6-1.3,1.3-1.3h70.5c0.7,0,1.3,0.6,1.3,1.3v2
				C599.8,379.7,599.2,380.3,598.5,380.3z"/>
			<path class="st8" d="M560.7,392.9H528c-0.7,0-1.3-0.6-1.3-1.3v-2c0-0.7,0.6-1.3,1.3-1.3h32.8c0.7,0,1.3,0.6,1.3,1.3v2
				C562.1,392.3,561.5,392.9,560.7,392.9z"/>
		</g>
		<g>
			<path class="st8" d="M466.2,542.2c0,0-15.3,38.5-37.3,67.6l-24,4.4L337,587.3c26.5-29.2,46-78.1,46-78.1L466.2,542.2z"/>
			<polygon class="st9" points="404.9,614.2 409.8,601.8 429,609.5 			"/>
		</g>
	</g>
	<g>
		<g>
			<path class="st10" d="M250.6,541.8l-5,158.1L233.9,904c-2.6,0.9-4.8-9.3-12.5-9.3c-5.4,0,0,4.1-3.9,1.9l-23.8-189.8
				c-0.1-1.1-9.7-105.8-14-140c0-0.1,0-0.2-0.1-0.4c-0.2-0.4-1.4-2.6-7.1-2.6c-5.4,0-7.1,1.8-7.4,2.1c-0.2,0.2-0.3,0.5-0.3,0.7
				c-2.8,34.5-13.4,139.1-13.5,140.1l-22.2,187.9c-3.9,2.2,0,0-5.4,0l0,0c-7.7,0-9.5-2.2-12-3.1L99.6,699.9l-5-158.2l17.5-54.3
				l123.2-2.8L250.6,541.8z"/>
			<path class="st11" d="M131.5,901.1c1.2,0.1,2.2,2.1,2.5,3.6c1.4,6.7,5.1,26.5,5.1,42.2H46.8c0,0-0.2-17.9,19.3-20.5
				c32.9-4.4,37.2-25.8,43.4-25.8l0.1,3.5c5,4,17.4,1.8,21.8-0.1V901.1z"/>
			<rect x="46.8" y="946.9" class="st12" width="92.3" height="8.8"/>
			<g>
				<path class="st13" d="M100.1,922.9c-0.3,0-0.6-0.2-0.7-0.6c-0.5-2.4-0.9-8.4,0-11c-3.2-1.9-5-8.8-4.1-12.3
					c0.6-2.3,2-2.3,2.6-2.2c0.8,0.1,1.5,0.6,2.1,1.4c1.8,2.7,1.7,8.8,1.3,11.7c3.2-0.6,10.6-0.9,13.5,1.4c1,0.8,1.4,1.9,1.2,3.1
					c-0.2,1.2-1.1,2.1-2.3,2.4c-3.5,0.9-10.4-2.5-13-4.6c-0.5,2-0.4,6.8,0.2,9.8c0.1,0.4-0.2,0.8-0.6,0.9
					C100.2,922.9,100.1,922.9,100.1,922.9z M101.8,911.3c2.5,1.9,8.6,4.7,11.4,4.1c0.7-0.2,1.1-0.6,1.3-1.3c0.1-0.7-0.1-1.2-0.7-1.6
					C111.5,910.7,104.7,910.9,101.8,911.3z M97.5,898.2c-0.2,0-0.6,0.1-0.9,1.1c-0.7,2.8,0.7,8.7,3.1,10.5c0.4-2.7,0.5-8.5-1-10.8
					c-0.3-0.5-0.7-0.8-1.1-0.8C97.6,898.2,97.6,898.2,97.5,898.2z"/>
				<path class="st13" d="M89.6,914.6c-1,0-1.9-0.1-2.7-0.3c-0.4-0.1-0.6-0.5-0.5-0.9c0.1-0.4,0.5-0.6,0.9-0.5
					c3.5,1,10.3-0.9,12.6-2.5c0.3-0.2,0.8-0.2,1,0.2c0.2,0.3,0.2,0.8-0.2,1C98.7,913.1,93.6,914.6,89.6,914.6z"/>
				<path class="st13" d="M72.3,930.9c-0.1,0-0.1,0-0.2,0c-0.4-0.1-0.6-0.5-0.6-0.9c0.3-1.3-0.1-3.3-0.9-3.9c-0.3-0.2-0.4-0.7-0.1-1
					c0.2-0.3,0.7-0.4,1-0.1c1.5,1.2,1.7,3.9,1.4,5.4C72.9,930.7,72.6,930.9,72.3,930.9z"/>
				<path class="st13" d="M80.7,930.9C80.7,930.9,80.7,930.9,80.7,930.9c-0.4,0-0.7-0.4-0.7-0.8c0.1-1.7-0.9-5.1-2.6-5.6
					c-0.4-0.1-0.6-0.5-0.5-0.9c0.1-0.4,0.5-0.6,0.9-0.5c2.7,0.8,3.7,5.4,3.6,7C81.4,930.6,81.1,930.9,80.7,930.9z"/>
				<path class="st13" d="M89.3,929.5c-0.4,0-0.7-0.3-0.7-0.6c-0.2-1.7-3-6.1-5.1-6.5c-0.4-0.1-0.6-0.5-0.6-0.9
					c0.1-0.4,0.5-0.6,0.9-0.6c2.8,0.6,5.9,5.6,6.2,7.7c0.1,0.4-0.2,0.8-0.6,0.8C89.4,929.5,89.4,929.5,89.3,929.5z"/>
				<path class="st13" d="M97.6,926.2c-0.3,0-0.6-0.2-0.7-0.5c-0.6-2.1-5.1-6.2-7.2-6.4c-0.4,0-0.7-0.4-0.7-0.8
					c0-0.4,0.4-0.7,0.8-0.7c2.6,0.3,7.7,4.8,8.5,7.4c0.1,0.4-0.1,0.8-0.5,0.9C97.8,926.2,97.7,926.2,97.6,926.2z"/>
			</g>
			<path class="st14" d="M131.5,904c0,0,0.8-25,1.1-29.9c0.3-4.9-1.2-4.6-1.2-4.6l-0.2,1.6c0,0-5.9,2.3-11.3,2.3
				c-8.1,0-9.2-3.9-9.2-3.9c-3.2-0.4-2.6,4-2.1,14.1c0.5,9.1,1,20.5,1,20.5S116.4,909.8,131.5,904z"/>
			<path class="st11" d="M214.8,901.1c-1.2,0.1-2.2,2.1-2.5,3.6c-1.4,6.7-5.1,26.5-5.1,42.2h92.3c0,0,0.2-17.9-19.3-20.5
				c-32.9-4.4-37.2-25.8-43.4-25.8l-0.1,3.5c-5,4-17.4,1.8-21.8-0.1V901.1z"/>
			<rect x="207.2" y="946.9" class="st12" width="92.3" height="8.8"/>
			<g>
				<path class="st13" d="M246.2,922.9c0,0-0.1,0-0.2,0c-0.4-0.1-0.6-0.5-0.6-0.9c0.6-3,0.7-7.8,0.2-9.8c-2.6,2.1-9.5,5.5-13,4.6
					c-1.3-0.3-2.1-1.1-2.3-2.4c-0.2-1.2,0.2-2.3,1.2-3.1c2.9-2.3,10.4-2,13.5-1.4c-0.4-2.9-0.6-9,1.3-11.7c0.6-0.8,1.3-1.3,2.1-1.5
					c0.6-0.1,2.1-0.1,2.6,2.2c0.8,3.5-0.9,10.3-4.1,12.3c0.9,2.5,0.5,8.5,0,11C246.9,922.7,246.6,922.9,246.2,922.9z M239.9,911
					c-2.9,0-6,0.4-7.4,1.5c-0.6,0.5-0.8,1-0.7,1.6c0.1,0.7,0.5,1.1,1.3,1.3c2.8,0.7,8.9-2.2,11.4-4.1
					C243.4,911.2,241.7,911,239.9,911z M248.8,898.2c-0.1,0-0.1,0-0.1,0c-0.4,0.1-0.8,0.3-1.1,0.8c-1.5,2.3-1.4,8.1-1,10.8
					c2.4-1.8,3.8-7.7,3.1-10.5C249.4,898.4,249.1,898.2,248.8,898.2z"/>
				<path class="st13" d="M256.7,914.6c-4,0-9-1.6-11.1-3.1c-0.3-0.2-0.4-0.7-0.2-1c0.2-0.3,0.7-0.4,1-0.2c2.3,1.6,9.1,3.5,12.6,2.5
					c0.4-0.1,0.8,0.1,0.9,0.5c0.1,0.4-0.1,0.8-0.5,0.9C258.6,914.5,257.7,914.6,256.7,914.6z"/>
				<path class="st13" d="M274,930.9c-0.3,0-0.6-0.2-0.7-0.6c-0.3-1.5-0.1-4.2,1.4-5.4c0.3-0.2,0.8-0.2,1,0.1c0.2,0.3,0.2,0.8-0.1,1
					c-0.8,0.6-1.2,2.6-0.9,3.9c0.1,0.4-0.2,0.8-0.6,0.9C274.1,930.9,274.1,930.9,274,930.9z"/>
				<path class="st13" d="M265.6,930.9c-0.4,0-0.7-0.3-0.7-0.7c-0.1-1.7,0.9-6.2,3.6-7c0.4-0.1,0.8,0.1,0.9,0.5
					c0.1,0.4-0.1,0.8-0.5,0.9c-1.6,0.5-2.6,3.9-2.6,5.6C266.4,930.6,266.1,930.9,265.6,930.9C265.7,930.9,265.6,930.9,265.6,930.9z"
					/>
				<path class="st13" d="M257,929.5c0,0-0.1,0-0.1,0c-0.4-0.1-0.7-0.4-0.6-0.8c0.3-2.1,3.5-7.1,6.2-7.7c0.4-0.1,0.8,0.2,0.9,0.6
					c0.1,0.4-0.2,0.8-0.6,0.9c-2,0.4-4.8,4.9-5.1,6.5C257.7,929.2,257.3,929.5,257,929.5z"/>
				<path class="st13" d="M248.7,926.2c-0.1,0-0.1,0-0.2,0c-0.4-0.1-0.6-0.5-0.5-0.9c0.7-2.7,5.8-7.2,8.5-7.4c0.4,0,0.8,0.2,0.8,0.7
					c0,0.4-0.2,0.8-0.7,0.8c-2.1,0.2-6.6,4.3-7.2,6.4C249.3,925.9,249,926.2,248.7,926.2z"/>
			</g>
			<path class="st14" d="M214.8,904c0,0-0.8-25-1.1-29.9c-0.3-4.9,1.3-4.6,1.3-4.6l0.2,1.6c0,0,5.8,2.4,11.2,2.4
				c8.1,0,9.2-3.9,9.2-3.9c3.2-0.4,2.6,4,2.1,14.1c-0.5,9.1-1,20.5-1,20.5S229.9,909.8,214.8,904z"/>
			<path class="st11" d="M316.9,239.9c0,0-41,45-74.7,60c-11,4.9-36.7,23.3-31,44.8c4.5,17,39.3,62.5,44,34
				c4.5-27.4,86.2-109.5,86.2-109.5"/>
			<path class="st11" d="M54.1,432.8c0,0,9-67.4,14.1-97.6c2-11.9,3.4-43.4,25.1-48.3c17.2-3.9,34,6.9,34.8,20.2
				c1.7,29.2-36.8,120.3-36.8,120.3"/>
			<path class="st10" d="M138.9,270.3l27.9,28.5l34.3-28.5c0,0-13.8-15.9-6.4-52.1c4.7-22.8-51.4-34.3-50,0
				C146.8,266.8,138.9,270.3,138.9,270.3z"/>
			<path class="st15" d="M94.7,537.2h77.8h0.1h77.8l2,53.7l-5,139l-6.9,169.3c0,0-20.7,7.4-35.1-0.3l-13.7-162.9
				c0,0-9.7-92.6-14-123c0,0-0.7-1.4-5.3-1.4c-4.6,0-5.7,1.2-5.7,1.2c-2.8,30.7-13.5,123.2-13.5,123.2l-13.7,162.9
				c-14.4,7.7-35.1,0.3-35.1,0.3l-6.9-169.3l-5-139L94.7,537.2z"/>
			<path class="st11" d="M94.6,397.1c-8.5-42.7-18.1-102.4-7.9-107.5c15.8-7.9,33.9-7.7,44.8-15.1l35.5,25.2l39.3-24.8
				c11,7.4,26.5,10,43.7,13.9c10.9,2.4,17.3-4,17.3-4s-8.9,77.1-15,110.5c-11.6,64.1,2.5,156.2,2.5,156.2s-19.7,6-82.6,6.3
				c-62.8-0.3-81.9-6.6-81.9-6.6S109.7,472.6,94.6,397.1z"/>
			<path class="st10" d="M102.5,537.5c0,0,1.3,10.5,5.6,13.9c4.3,3.4,8.3,6,9.6,17.5c0,0,1.7,6.3-2.7,8c-4.4,1.7-4.9-3.6-6-9.1
				c-1.1-5.5-6.4,1-4.6,7.2c1.8,6.2,7.1,11,12.9,11.3c7.6,0.5,8,4,5.5,6.5c-1.4,1.4-16.3,3.3-25.6-3.2c-10.1-7-11.7-19.2-9.4-26.9
				c2.7-9.2-0.7-18.3-1.9-19.2C84.5,542.6,94.3,534.4,102.5,537.5z"/>
			<path class="st11" d="M91.3,427.5c1.4,8,17.8,121,17.8,121c0,0.1-11.9,7.1-23.4,5.9c-0.9-4.7-30.7-113-31.5-118.8
				c-0.8-5.8,2.7-14.9,15-18C81.4,414.4,89.9,419.5,91.3,427.5z"/>
			<path class="st15" d="M92.7,590.8l20.2-36.1c0,0,44.2,4.1,58.9,4.1c15.6,0,62.1-4.1,62.1-4.1l18.5,36.1
				C252.5,590.8,177,627.9,92.7,590.8z"/>
			<polygon class="st16" points="201.1,270.3 166.7,296.3 138.9,270.3 130.8,274.7 166.9,305.5 207,275.1 			"/>
			<path class="st17" d="M178,130.8c2.3-1.8,5.6-11.8,4.1-16.4c-1.8-5.6-12-8.7-15.8-7.5c-13.3,4.2-4.7,21.4,1.9,27.4L178,130.8z"/>
			<path class="st18" d="M169.3,114.2L169.3,114.2c40.7,0,51.9,36.1,48.3,68.9c-1,9-2.9,17-5.5,24.1c-3.2,10.3-7.3,20.3-11.6,27
				c-9.4,14.7-18,20.7-31.2,20.7c-13.2,0-21.7-6-31.2-20.7c-4.2-6.5-8.2-16.1-11.3-26c-2.7-7.3-4.8-15.6-5.8-25
				C117.4,150.2,128.6,114.2,169.3,114.2z"/>
			
				<ellipse transform="matrix(7.215497e-02 -0.9974 0.9974 7.215497e-02 -58.1429 337.4872)" class="st17" cx="152.3" cy="200" rx="1.7" ry="2.8"/>
			
				<ellipse transform="matrix(7.215497e-02 -0.9974 0.9974 7.215497e-02 -21.6354 377.3071)" class="st17" cx="192" cy="200.3" rx="1.7" ry="2.8"/>
			<path class="st10" d="M208.3,161.3c0,0,0,0,3.4,2.3c3.4,2.3,9.5,2.1,5.4,0.7c-4.1-1.4-7.4-5.5-8.9-8c-1-1.6,0-2.8,0-2.8
				s2.4,1.3,7.1,4.5c4.7,3.2,17.2,7.6,5.3,0c-11.9-7.6-11.8-10-10.6-10.4c7.4-1.9,20.9,9.3,27.1,13.7c6.7,4.8,6.6,10,7.6,14.8
				c1.3,5.9,10.6,13,10.6,13c-0.7,9.3-12.9,13.6-13.2,11.9c-0.3-1.7-7.3-10-17.3-12.7c-8.3-2.3-12.7-11-16.3-20.2
				C206.7,163.3,208.3,161.3,208.3,161.3z"/>
			<path class="st17" d="M120.8,185.8c0,0-14.8-74.8,48.6-74.8c60.3,0,48.6,74.8,48.6,74.8c-2.9,0-5.6,1.8-7,4.4
				c-1.6,2.6-1.7,7.9-1.6,8.7c-1.2,0-2.4-17.7-2.3-21.7c0.3-20-17-20.6-39.2-20.6c-22.2,0-34.1,2.8-35.2,22.9
				c-0.1,1.7-2.2,19.5-3.4,19.5c0-0.9,0-6-1.5-8.9C126.4,187.6,123.7,185.8,120.8,185.8z"/>
			<path class="st11" d="M342.7,246.8c-6-4.7-92.6-68.8-92.6-68.8c-0.1,0-11.7,8-16.3,18.5c3.5,2.8,79.5,75.7,84,78.9
				c4.5,3.2,13.8,4.2,22.5-5C348.8,261.2,348.7,251.5,342.7,246.8z"/>
			<path class="st10" d="M169.9,204.1c3.2,10.7,7.8,14.3,6,17.1c-2.1,3.2-10.1,1.7-10.1,1.7"/>
			<path class="st17" d="M182.5,200.3c0,0,8.5-5.3,14.2,0C196.7,200.3,190.1,197.7,182.5,200.3z"/>
			<path class="st17" d="M142.2,200c0,0,8.5-5.2,14.2,0C156.4,200,149.8,197.4,142.2,200z"/>
			<path class="st17" d="M177.2,188.3c0,0,3.4-2.6,6.9-3.5c3-0.7,5.4-3.1,10-1.8c4.6,1.2,7.9,6.3,8.3,7c0.4,0.7-1.1-4.5-3-6.5
				s-5.1-4.2-9.6-4c-4.5,0.2-10.3,2-11.6,3.5S173.9,186.5,177.2,188.3z"/>
			<path class="st17" d="M160,188.8c0,0-3-2.6-6.1-3.5c-2.7-0.7-5.6-2.6-9.7-1.3s-6.3,5.8-6.6,6.5c-0.3,0.7,1-4.5,2.6-6.5
				c1.6-2,4.5-4.2,8.5-4s9.1,2,10.2,3.5S162.9,187,160,188.8z"/>
			<path class="st17" d="M169.3,160.5c-10.9,0-40.5,1.5-40.5-20.4c0-25.7,19.7-29.1,40.3-29.1s40.3,3.4,40.3,29.1
				C209.5,160.9,180.1,160.5,169.3,160.5z"/>
			<rect x="166.7" y="194.7" width="5.9" height="0.7"/>
			<rect x="205.4" y="190.1" transform="matrix(0.7301 -0.6833 0.6833 0.7301 -73.4802 194.9234)" width="9.3" height="0.7"/>
			<rect x="128.5" y="185.7" transform="matrix(0.6215 -0.7834 0.7834 0.6215 -100.5579 173.108)" width="0.7" height="9.8"/>
			<path class="st18" d="M127.8,191.8c-1-4.2-2.7-7-4.9-7c-3.6,0-6.1,7.9-4.8,15.9c1.4,8.3,4,16.7,7,15.9c0.9-0.2,1.8-1.5,2.4-3.6"
				/>
			<path class="st10" d="M123.3,205c0.3,0.6,0.8,1.1,1.2,0.7c0.6-0.6,0.1-1.2,0.1-2.2c0-0.9,0.3-1.5,0.5-2.3c0.2-1,0.2-1.6,0-2.7
				c-0.5-3.7-1.6-8.3-3.8-8.5V190c0.9-1.2,2.3-0.5,3,1c0.7,1.4,0.9,3.6,1.4,5.3c0.5,1.5,1.6,3.9,0.7,5.4c-0.3,0.6-0.9,0.4-1,1.6
				c-0.1,1.4,0.6,1.4,0.8,2.4c0.2,0.7,0.1,1.5-0.4,1.7c-0.3,0.2-0.4-0.4-0.7-0.3c-0.2,0.1-0.3,0.3-0.4,0.5c-0.4,0.4-0.5,1.2-1,0.4
				c-0.4-0.6-0.4-2-0.6-2.9"/>
			<path class="st18" d="M210.9,191.8c1-4.2,2.7-7,4.9-7c3.6,0,6.1,7.9,4.8,15.9c-1.4,8.3-4,16.7-7.1,15.9c-0.9-0.2-1.8-1.5-2.4-3.6
				"/>
			<path class="st10" d="M215.4,205c-0.3,0.6-0.9,1.1-1.3,0.7c-0.6-0.6-0.1-1.2-0.1-2.2c0-0.9-0.3-1.5-0.5-2.3c-0.2-1-0.2-1.6,0-2.7
				c0.5-3.7,1.7-8.3,3.8-8.5V190c-0.9-1.2-2.3-0.5-3.1,1c-0.7,1.4-0.9,3.6-1.4,5.3c-0.5,1.5-1.6,3.9-0.7,5.4c0.3,0.6,0.9,0.4,1,1.6
				c0.1,1.4-0.6,1.4-0.8,2.4c-0.2,0.7,0,1.5,0.4,1.7c0.3,0.2,0.4-0.4,0.7-0.3c0.2,0.1,0.3,0.3,0.4,0.5c0.4,0.4,0.5,1.2,1,0.4
				c0.4-0.6,0.4-2,0.6-2.9"/>
			<path class="st19" d="M172.6,240.8c0,0-10.6,2.1-17.5-7.9"/>
		</g>
		<g>
			<path class="st20" d="M178.9,210h22.9c2,0,3.7-1.6,3.9-3.6l1-12.7c0.2-2.3-1.7-4.3-4-4.3h-25.5c-2.9,0-5.1,2.6-4.6,5.5l2,11.6
				C175,208.5,176.8,210,178.9,210z"/>
			<path d="M201.8,210.4h-22.9c-2.3,0-4.3-1.7-4.7-3.9l-2-11.6c-0.3-1.5,0.1-3,1.1-4.1c1-1.1,2.4-1.8,3.9-1.8h25.5
				c1.2,0,2.4,0.5,3.2,1.4c0.8,0.9,1.2,2.1,1.1,3.3l-1,12.7C205.9,208.7,204,210.4,201.8,210.4z M177.2,189.8
				c-1.3,0-2.5,0.6-3.3,1.5c-0.8,1-1.2,2.2-0.9,3.5l2,11.6c0.3,1.9,2,3.3,3.9,3.3h22.9c1.8,0,3.4-1.4,3.5-3.3l1-12.7
				c0.1-1-0.3-2-1-2.7c-0.7-0.7-1.6-1.2-2.7-1.2H177.2z"/>
		</g>
		<g>
			<path class="st20" d="M160.4,210h-22.9c-2,0-3.7-1.6-3.9-3.6l-1-12.7c-0.2-2.3,1.7-4.3,4-4.3h25.5c2.9,0,5.1,2.6,4.6,5.5l-2,11.6
				C164.4,208.5,162.6,210,160.4,210z"/>
			<path d="M160.4,210.4h-22.9c-2.2,0-4.1-1.7-4.3-3.9l-1-12.7c-0.1-1.2,0.3-2.4,1.1-3.3c0.8-0.9,2-1.4,3.2-1.4h25.5
				c1.5,0,2.9,0.7,3.9,1.8c1,1.1,1.4,2.6,1.1,4.1l-2,11.6C164.7,208.7,162.8,210.4,160.4,210.4z M136.7,189.8c-1,0-2,0.4-2.7,1.2
				c-0.7,0.7-1,1.7-1,2.7l1,12.7c0.1,1.8,1.7,3.3,3.5,3.3h22.9c2,0,3.6-1.4,3.9-3.3l2-11.6c0.2-1.3-0.1-2.5-0.9-3.5
				c-0.8-1-2-1.5-3.3-1.5H136.7z"/>
		</g>
	</g>
	<g>
		<path class="st21" d="M524.4,891.2c0.4,1.4-1,3.3-2.4,4.2c-5.9,4-23.4,15.4-38.6,21.2L444,812.2c0,0,17.2-6.7,28.1,14.3
			c18.3,35.6,40.8,32.6,43.4,39.7l-3.3,1.4c-1.8,7.1,5.7,20.3,9.4,24.7L524.4,891.2z"/>
		
			<rect x="454.9" y="810.2" transform="matrix(0.9355 -0.3533 0.3533 0.9355 -276.3267 218.182)" class="st22" width="9.1" height="111.5"/>
		<path class="st23" d="M520.3,892.7c0,0,6.1-1.9,7.6-2.1c1.6-0.2,0.8-1.9,0.8-1.9l-0.5,0c0,0-3.1-6.1-5.3-11.9
			c-3.3-8.8-2.6-10.4-2.6-10.4c-1.2-3.5-2.3-2.4-5-0.7c-2.5,1.5-4.4,2.3-4.4,2.3S508.2,876.6,520.3,892.7z"/>
		<g>
			<path class="st21" d="M642.5,857.7c1.4,0.4,2.3,2.5,2.4,4c0.6,7,1.9,27.5-0.6,43.4l-108.6-16.7c0,0,2.6-18.1,25.9-17.1
				c39.4,1.5,47.8-19.3,55.1-18l-0.4,3.5c5.2,5,20.2,4.9,25.7,3.9L642.5,857.7z"/>
			
				<rect x="584.9" y="846.2" transform="matrix(0.1524 -0.9883 0.9883 0.1524 -391.0568 1346.373)" class="st22" width="9" height="109.9"/>
			<g>
				<path class="st13" d="M602.3,873.9c-0.4,0-0.7-0.3-0.7-0.7c-0.2-2.5,0.2-8.6,1.6-11.1c-3.4-2.4-4.3-9.3-3.1-12.8
					c0.7-1.8,1.9-2.6,3.4-2.1c1,0.3,1.8,1,2.3,2.1c1.5,3.2,0.3,9-0.5,11.7c3.8-0.1,13.4,1.1,16.1,4.2c0.8,0.9,0.9,1.9,0.5,2.9
					c-0.3,0.8-1,1.8-2.7,1.9c-4.4,0.5-12.4-4.6-14.9-7.1c-0.9,1.8-1.6,6.8-1.3,10C603.1,873.5,602.8,873.9,602.3,873.9
					C602.4,873.9,602.3,873.9,602.3,873.9z M606,862.6c2.7,2.3,9.7,6.6,13.2,6.2c1.1-0.1,1.4-0.6,1.5-1c0.2-0.5,0.1-1-0.3-1.5
					C618.2,863.8,609.7,862.6,606,862.6z M602.8,848.6c-0.4,0-0.9,0.2-1.3,1.3c-1.1,2.9-0.2,8.9,2.4,11c0.8-2.5,1.9-8.1,0.7-10.9
					c-0.3-0.7-0.8-1.2-1.4-1.4C603.1,848.6,603,848.6,602.8,848.6z"/>
				<path class="st13" d="M595.4,864c-2.7,0-5.4-0.3-7.3-1.1c-0.4-0.1-0.6-0.6-0.4-0.9c0.2-0.4,0.6-0.6,1-0.4c4,1.6,12.4,1,15.4-0.3
					c0.4-0.2,0.8,0,1,0.4c0.2,0.4,0,0.8-0.4,1C602.7,863.4,599.1,864,595.4,864z"/>
				<path class="st13" d="M568.4,876.9c-0.1,0-0.2,0-0.3-0.1c-0.4-0.2-0.5-0.6-0.4-1c0.5-1.2,0.4-3.3-0.4-4.1c-0.3-0.3-0.3-0.7,0-1
					c0.3-0.3,0.7-0.3,1,0c1.5,1.4,1.4,4.2,0.8,5.7C568.9,876.8,568.7,876.9,568.4,876.9z"/>
				<path class="st13" d="M578.3,878.4c0,0-0.1,0-0.1,0c-0.4-0.1-0.7-0.5-0.6-0.9c0.3-1.6-0.3-5.2-2.2-6.1c-0.4-0.2-0.5-0.6-0.4-1
					c0.2-0.4,0.6-0.5,1-0.4c2.8,1.2,3.5,5.7,3.1,7.7C578.9,878.2,578.6,878.4,578.3,878.4z"/>
				<path class="st13" d="M588.7,878.6c-0.4,0-0.7-0.3-0.7-0.7c0-1.7-2.7-6.7-5-7.5c-0.4-0.1-0.6-0.6-0.4-0.9
					c0.1-0.4,0.6-0.6,0.9-0.4c3.1,1.1,6,6.7,6,8.9C589.4,878.3,589.1,878.6,588.7,878.6C588.7,878.6,588.7,878.6,588.7,878.6z"/>
				<path class="st13" d="M598.9,876.7c-0.4,0-0.7-0.3-0.7-0.6c-0.3-2.1-5-7.1-7.6-7.8c-0.4-0.1-0.6-0.5-0.5-0.9
					c0.1-0.4,0.5-0.6,0.9-0.5c3,0.7,8.3,6.2,8.7,9c0.1,0.4-0.2,0.8-0.6,0.8C599,876.7,599,876.7,598.9,876.7z"/>
			</g>
			<path class="st23" d="M616.1,857.9c0,0,0.6-6.2,0.5-7.8c-0.1-1.6,1.7-1.2,1.7-1.2l0.1,0.5c0,0,6.5,1.7,12.5,2.7
				c9.1,1.4,10.5,0.4,10.5,0.4c3.6,0.4,2.8,1.7,1.7,4.7c-1,2.7-1.3,4.8-1.3,4.8S634.2,866.3,616.1,857.9z"/>
		</g>
		<g>
			<path class="st13" d="M504.4,878.4c-0.8,0-1.8-0.3-2.6-1.5c-2.6-3.6-2.1-13.2-1.2-16.7c-2,0.1-6.8,2-9.5,3.8
				c-0.3,0.2-0.8,0.1-1-0.2c-0.2-0.3-0.1-0.8,0.2-1c2.1-1.5,7.6-4.1,10.5-4.1c0,0,0.1,0,0.1,0c0.5-4.2,6.1-8.5,9.7-9.1
				c1.9-0.3,3.2,0.4,3.6,2c0.2,1.1,0,2.1-0.7,3.1c-2.1,2.9-7.8,4.8-10.6,5.4c2,3.3,5.8,12.4,4.3,16.3c-0.4,1.1-1.2,1.8-2.3,1.9
				C504.7,878.4,504.5,878.4,504.4,878.4z M501.8,861.3c-0.7,3.6-1,11.8,1.1,14.7c0.6,0.9,1.3,0.9,1.7,0.9c0.6-0.1,0.9-0.4,1.2-1
				C506.9,872.8,503.6,864.6,501.8,861.3z M511.4,851.1c-0.2,0-0.4,0-0.6,0.1c-3.1,0.5-8,4.3-8.5,7.6c2.6-0.5,8.1-2.3,9.9-4.8
				c0.5-0.7,0.6-1.3,0.5-1.9C512.7,851.7,512.5,851.1,511.4,851.1z"/>
			<path class="st13" d="M501.5,860.3c-0.2,0-0.3,0-0.4-0.2c-2.9-2.2-7.8-9.6-8.5-14.4c-0.1-0.4,0.2-0.8,0.6-0.8
				c0.4-0.1,0.8,0.2,0.8,0.6c0.6,4.4,5.3,11.5,7.9,13.5c0.3,0.2,0.4,0.7,0.1,1C502,860.2,501.8,860.3,501.5,860.3z"/>
			<path class="st13" d="M471,835.7c-0.4,0-0.7-0.3-0.7-0.6c0-0.4,0.2-0.8,0.6-0.8c1.3-0.2,3.1-1.3,3.4-2.4c0.1-0.4,0.5-0.6,0.9-0.6
				c0.4,0.1,0.6,0.5,0.6,0.9C475.3,834.1,472.8,835.5,471,835.7C471.1,835.7,471.1,835.7,471,835.7z"/>
			<path class="st13" d="M474.6,845.2c-0.3,0-0.6-0.2-0.7-0.5c-0.1-0.4,0.1-0.8,0.5-0.9c1.6-0.5,4.5-2.9,4.3-5
				c0-0.4,0.3-0.8,0.7-0.8c0.4-0.1,0.8,0.3,0.8,0.7c0.3,3.1-3.3,5.9-5.3,6.5C474.8,845.2,474.7,845.2,474.6,845.2z"/>
			<path class="st13" d="M479.7,854.4c-0.3,0-0.5-0.1-0.6-0.4c-0.2-0.3-0.1-0.8,0.3-1c1.5-0.9,4.6-5.7,4.1-8.2
				c-0.1-0.4,0.2-0.8,0.6-0.8c0.4-0.1,0.8,0.2,0.8,0.6c0.6,3.3-2.9,8.6-4.8,9.7C479.9,854.4,479.8,854.4,479.7,854.4z"/>
			<path class="st13" d="M486.4,862.6c-0.2,0-0.4-0.1-0.6-0.3c-0.2-0.3-0.2-0.8,0.1-1c1.7-1.3,3.8-8,3.1-10.6
				c-0.1-0.4,0.1-0.8,0.5-0.9c0.4-0.1,0.8,0.1,0.9,0.5c0.8,3-1.3,10.4-3.6,12.1C486.7,862.5,486.6,862.6,486.4,862.6z"/>
		</g>
		<path class="st24" d="M813.5,572.8c-13-4.1-19-1.5-18.2,6.1c0.9,9.1-5.8,18.1-6.7,19.5c-0.8,1.5,7.6,8,18.1,6.4
			c0,0,11.3-4.2,11.5-10.7C818.4,587.3,819.9,574.8,813.5,572.8z"/>
		<path class="st24" d="M734.3,671.9c4.7-11.2,2.5-7.6,57.7-77.9c0.1,0.1,4.5-0.6,14.6,10.7c-2,6.1-31.4,70.5-46.2,83.2
			c-3.7,3.2,2.1,10-14.8,10.3C729.2,698.5,729.5,683.3,734.3,671.9z"/>
		<path class="st25" d="M862.8,691.5c0,0,11.2,6.3,28.9,0.3s22.1-17.4,22.1-17.4s-16.3-30.1-18.7-56.6s-68.1-18.2-50.9,17.1
			C861.3,670.1,862.8,691.5,862.8,691.5z"/>
		<path class="st24" d="M880.6,520.8L880.6,520.8c37.5,11.1,37.1,44.8,25.4,72.1c-3.2,7.5-5.4,14.2-9.6,19.6
			c-5.5,8-11.9,15.5-17.5,20.1c-12.4,10.1-21.8,13-34,9.4s-18.5-11.1-23.5-26.3c-2.2-6.7-0.2-16.6-0.6-25.9
			c-0.7-7.1-1.1-14.6,0.3-23.1C826.1,537.4,843.1,509.7,880.6,520.8z"/>
		<path class="st26" d="M874.5,804.3c0,0-114.3-107.4-127.5-106.3c-25.6,2.2-125.3,124.9-125.3,124.9s19.3,23.1,15.5,41l101.4-92
			l75.3,93.6l51.4,41.9l52.7-64.6L874.5,804.3z"/>
		<path class="st11" d="M865.9,832c0,0-155.1-55.8-168.5-55.8c-17.1,0-178.4,78.2-178.4,78.2s1.9,21.7,5.5,41.9l174.6-45.8
			c0,0,106.5,41.5,134.8,53.4c38.3,16.1,52.1,5.9,72.9-6l39.3-119.6l-11.6-3.1L865.9,832z"/>
		<path class="st24" d="M727.2,788c0,0-9.5-3.8-15.5-6.1c-10.7-4.1-20.1-4.7-31.1-6c0,0-11.9-2.4-10.3-7.5s19.1,2.3,24.7,3.6
			c5.5,1.4,5.5,2.6-0.8,0.9c-3.3-0.9-10.6-5.8-15.7-3.3c-7.5,3.8-11.5,3-10-0.8c3.9-9.8,10.6-11.3,17.3-12.6
			c13.4-2.6,25.4,0.1,30.4,5.8c6,6.8,17.2,8.1,18.8,8.4C736.5,770.9,735.6,781.4,727.2,788z"/>
		<path class="st27" d="M831.8,578.1c0,0,1.8-2.6,3.7-2s3.6,0.5,5.8,2.1c2.3,1.5,6,4.2,6.7,5.6s0.4,3.4-0.9,2.5
			c-1.3-0.9-2.7-3.8-4.8-4.9c-2.2-1.1-3.6-0.4-6.2-1.1C833.5,579.8,831.9,580.5,831.8,578.1z"/>
		<path class="st28" d="M841.7,591.8c0,0-5-11-13.1-4.6C828.6,587.1,836.1,585.3,841.7,591.8z"/>
		<path class="st24" d="M830,778.8c-11.9-1.3-11.5-1.2-100.6-8.8c0,0.1-3.6,2.9-2.2,18c5.8,2.7,74.2,33.4,93.5,31.2
			c4.8-0.5,15.8-1.2,17.9-18C840.8,784.7,836.5,779.5,830,778.8z"/>
		<path class="st15" d="M736.6,696.1c-10.5-7.9,25.5-17.7,36.5-25c0,0,34.8,3.8,82-10.6c21.6-6.6,43.3-24.9,43.3-24.9
			c37.8,1.4,56.6,51.4,61.5,71c5.8,23.4,8,69.1-3.2,111.7c-10.7,40.7-14.9,73.1-21.6,93.9c-25.5,21.7-91.5-40.1-104.9-95.6
			c-2.6-10.7-44.3-42.5-26.4-40.3c16.6,2,49.4-15.5,42.3-41.8C841,715.4,774.3,724.6,736.6,696.1z"/>
		<path class="st25" d="M822,592.8c-3.9,10.3-8.3,13.5-7,16.4c1.5,3.3,8.7,2.6,8.7,2.6"/>
		<path class="st27" d="M837.3,555c-3.1-0.1-6.2-0.8-9-2.2c-6.1-3.5-7.8-13.3-3.1-18.7c1.3-1.4,2.7-2.6,4.3-3.6l9.3-6.6
			c4.1-2.9,8.3-5.9,13.1-7.3c4.4-1,8.9-1.3,13.4-0.8c8.7,0.3,17.3,2,25.6,4.9c8.2,3.1,15.8,8.4,20.7,15.9c7.8,11.9,8,27.9,3.6,41.7
			c-4.3,13.7-12.5,25.7-20.6,37.4l-4.2-21.5c-0.4-1.9-0.9-4-2.4-5.1c-3.8-2.8-8.4,3-13,2.9c-3,0-5.5-2.6-6.6-5.5
			c-0.9-3-1.4-6.1-1.5-9.2c-0.6-6.6-2.7-15.7-8.7-19.3C852.7,554.6,843.5,555.6,837.3,555z"/>
		<g>
			<path class="st24" d="M867.3,586.8c1.6-2.6,1.8-5.1,5-5.1c5.4,0,5.4,5.1,3.4,10.3c-2,5.4-2.3,10.7-6.8,10.3
				c-1.5-0.2-1.6-1.9-2.5-3.2"/>
			<path class="st29" d="M871.7,594.7c-0.5,0.4-1.2,0.7-1.9,0.4c-0.9-0.4-0.2-0.8-0.2-1.4c0-0.6-0.5-0.9-0.7-1.5
				c-0.3-0.7-0.2-1,0-1.7c0.8-2.3,2.5-5.3,5.8-5.5l0,0c-1.4-0.8-3.5-0.3-4.6,0.7c-1.1,0.9-1.2,2.3-2,3.4c-0.7,1-2.4,2.6-1.1,3.5
				c0.5,0.3,1.4,0.2,1.6,1c0.1,0.9-0.9,0.9-1.2,1.5c-0.2,0.4-0.1,0.9,0.6,1.1c0.5,0.1,0.7-0.2,1-0.2c0.2,0.1,0.5,0.2,0.7,0.3
				c0.6,0.2,0.8,0.7,1.5,0.2c0.6-0.4,0.7-1.3,1-1.9"/>
		</g>
		<path class="st30" d="M830.2,816.6c0,0,77.6-20.9,109.3-58.4"/>
		<path class="st30" d="M827.8,770c0,0,14.9-4.5,43.2-52"/>
		<ellipse class="st28" cx="833.6" cy="589.2" rx="3" ry="3.5"/>
		<path class="st25" d="M824.5,623.3c0,0,13.5,2.9,16.1-4.4"/>
	</g>
</g>
</svg>
