<?xml version="1.0" encoding="utf-8"?>
<!-- Generator: Adobe Illustrator 24.0.0, SVG Export Plug-In . SVG Version: 6.00 Build 0)  -->
<svg version="1.1" id="Слой_1" xmlns="http://www.w3.org/2000/svg" xmlns:xlink="http://www.w3.org/1999/xlink" x="0px" y="0px"
	 viewBox="0 0 1000 1000" style="enable-background:new 0 0 1000 1000;" xml:space="preserve">
<style type="text/css">
	.st0{opacity:0.2;fill:url(#SVGID_1_);enable-background:new    ;}
	.st1{opacity:0.1;fill:url(#SVGID_2_);enable-background:new    ;}
	.st2{opacity:0.1;fill:url(#SVGID_3_);enable-background:new    ;}
	.st3{opacity:0.28;fill:url(#SVGID_4_);enable-background:new    ;}
	.st4{opacity:0.28;fill:url(#SVGID_5_);enable-background:new    ;}
	.st5{opacity:0.28;fill:url(#SVGID_6_);enable-background:new    ;}
	.st6{opacity:0.28;fill:url(#SVGID_7_);enable-background:new    ;}
	.st7{fill:#233A57;}
	.st8{fill:url(#SVGID_8_);}
	.st9{fill:#FFFFFF;}
	.st10{fill:url(#SVGID_9_);}
	.st11{fill:#B3B3B3;}
	.st12{fill:#CCCCCC;}
	.st13{fill:#4D4D4D;}
	.st14{fill:#00B2BD;}
	.st15{fill:#F4B693;}
	.st16{fill:#1C3249;}
	.st17{fill:#E19A74;}
	.st18{fill:#F4B68A;}
	.st19{fill:#452C2B;}
	.st20{fill:#593833;}
	.st21{fill:#F6B895;}
	.st22{fill:#E39C74;}
	.st23{fill:#00AFBC;}
	.st24{fill:#00A0A4;}
	.st25{fill:#F6B88C;}
	.st26{fill:#F1EBE1;}
	.st27{fill:#B4B4C0;}
	.st28{fill:#CCCCDA;}
	.st29{fill:#4B1709;}
</style>
<g>
	
		<linearGradient id="SVGID_1_" gradientUnits="userSpaceOnUse" x1="15.1608" y1="504.5278" x2="962.975" y2="504.5278" gradientTransform="matrix(1 0 0 -1 0 999.2756)">
		<stop  offset="0" style="stop-color:#00AFBA"/>
		<stop  offset="1" style="stop-color:#6E68C6"/>
	</linearGradient>
	<path class="st0" d="M78.8,465C43.1,584-33.3,849.6,316.6,904.3S914,690.4,949,551.2C984,411.9,896.5,174.9,666.9,92
		S124.1,313.8,78.8,465z"/>
	
		<linearGradient id="SVGID_2_" gradientUnits="userSpaceOnUse" x1="15.1608" y1="256.7031" x2="962.975" y2="256.7031" gradientTransform="matrix(1 0 0 -1 0 999.2756)">
		<stop  offset="0" style="stop-color:#00AFBA"/>
		<stop  offset="1" style="stop-color:#6E68C6"/>
	</linearGradient>
	<path class="st1" d="M543.4,735.5c-9.2,8.3-28.9,26.8,57,34.8s147.6-8.8,156.7-18.6c9.1-9.8-11.6-28.1-67.8-36.7
		C633.1,706.3,555.1,724.9,543.4,735.5z"/>
	
		<linearGradient id="SVGID_3_" gradientUnits="userSpaceOnUse" x1="15.1608" y1="106.7207" x2="962.975" y2="106.7207" gradientTransform="matrix(1 0 0 -1 0 999.2756)">
		<stop  offset="0" style="stop-color:#00AFBA"/>
		<stop  offset="1" style="stop-color:#6E68C6"/>
	</linearGradient>
	<path class="st2" d="M155.2,881.9c-15.4,7.9-48.4,25.5,98.6,36.3s252-3.8,267.2-13.1s-20.8-28.1-117.2-38.6
		C307.5,856.1,174.7,871.9,155.2,881.9z"/>
	
		<linearGradient id="SVGID_4_" gradientUnits="userSpaceOnUse" x1="15.1608" y1="870.3756" x2="962.975" y2="870.3756" gradientTransform="matrix(1 0 0 -1 0 999.2756)">
		<stop  offset="0" style="stop-color:#00B1BC"/>
		<stop  offset="1" style="stop-color:#6E68C8"/>
	</linearGradient>
	<path class="st3" d="M297.8,135.9c-0.7-4.5,6-11.2,14.9-15.1s16.8-3.4,17.5,1.1s-6,11.2-14.9,15.1S298.5,140.4,297.8,135.9z"/>
	
		<linearGradient id="SVGID_5_" gradientUnits="userSpaceOnUse" x1="15.1608" y1="812.2946" x2="962.975" y2="812.2946" gradientTransform="matrix(1 0 0 -1 0 999.2756)">
		<stop  offset="0" style="stop-color:#00B1BC"/>
		<stop  offset="1" style="stop-color:#6E68C8"/>
	</linearGradient>
	<path class="st4" d="M199.5,215.6c0,0-3.5,28.3,37.7-10.4s60.3-64.8,38-54.6S213.5,170.1,199.5,215.6z"/>
	
		<linearGradient id="SVGID_6_" gradientUnits="userSpaceOnUse" x1="15.1608" y1="168.2256" x2="962.975" y2="168.2256" gradientTransform="matrix(1 0 0 -1 0 999.2756)">
		<stop  offset="0" style="stop-color:#00B1BC"/>
		<stop  offset="1" style="stop-color:#6E68C8"/>
	</linearGradient>
	<path class="st5" d="M763.7,839.4c2.6,2.5,9,0.8,14.3-3.8s7.5-10.4,4.9-12.9s-9-0.8-14.3,3.8C763.3,831.1,761.1,836.9,763.7,839.4z
		"/>
	
		<linearGradient id="SVGID_7_" gradientUnits="userSpaceOnUse" x1="15.1608" y1="205.1948" x2="962.975" y2="205.1948" gradientTransform="matrix(1 0 0 -1 0 999.2756)">
		<stop  offset="0" style="stop-color:#00B1BC"/>
		<stop  offset="1" style="stop-color:#6E68C8"/>
	</linearGradient>
	<path class="st6" d="M799.3,810.1c-3.2,6.7,1.7,11,9,8.2c12.5-4.7,31.7-14.4,43.5-32.3c18.7-28.3-17-17.6-34.1,5.3
		C805.3,807.8,802,804.4,799.3,810.1z"/>
	<rect x="4.3" y="732.8" class="st7" width="887.4" height="1.5"/>
	<rect x="4.3" y="891.8" class="st7" width="887.4" height="1.5"/>
	<g>
		<g>
			
				<linearGradient id="SVGID_8_" gradientUnits="userSpaceOnUse" x1="875.1796" y1="712.4815" x2="1118.6638" y2="712.4815" gradientTransform="matrix(0.9939 -0.11 -0.11 -0.9939 -35.1979 1279.7614)">
				<stop  offset="0" style="stop-color:#00B1BC"/>
				<stop  offset="1" style="stop-color:#6E68C8"/>
			</linearGradient>
			<path class="st8" d="M821.4,621.9c0,0-49.6-66.7-60.8-111.4s44.2-106.2,50.6-160.6c6.4-54.4,20.8-98.2,55.6-109.7
				s69.7,51.4,76,80.6c6.3,29.2,4.6,53.2,34.5,65.2c29.9,12,15.2,86.5,10.9,98.5s14.2,38.3,4.8,60.1S874.5,685.8,874.5,685.8
				L821.4,621.9z"/>
			<path class="st9" d="M835.7,462.5c0,0,28.8,70.4,30.9,140.2c1.7,55.4,3.4,104.5,6.4,132.8c6.2,60-6.8-150.1,16.4-182.9
				c15.4-21.8,72.9-40.9,72.9-40.9s-40.8,9.2-52.9,15.1c-13.6,6.5-18.4,16.6-13.4-19c5.1-35.6-6.4-98.6-15.9-123.4
				c0,0,24.3,90.7,4,154.2C872,576.6,863.5,506.7,835.7,462.5z"/>
		</g>
	</g>
	<g>
		<g>
			
				<linearGradient id="SVGID_9_" gradientUnits="userSpaceOnUse" x1="110.0661" y1="651.0129" x2="346.8072" y2="651.0129" gradientTransform="matrix(0.9939 -0.11 -0.11 -0.9939 -35.1979 1279.7614)">
				<stop  offset="0" style="stop-color:#00B1BC"/>
				<stop  offset="1" style="stop-color:#6E68C8"/>
			</linearGradient>
			<path class="st10" d="M65.9,763.1c0,0-48.2-64.9-59.1-108.3S49.7,551.6,56,498.7s20.2-95.5,54-106.7s67.7,49.9,73.9,78.3
				s4.5,51.7,33.6,63.4s14.7,84.1,10.6,95.8c-4.1,11.6,13.8,37.3,4.7,58.4c-9.1,21.1-115.2,137.3-115.2,137.3L65.9,763.1z"/>
			<path class="st9" d="M79.8,590.2c0,0,28,68.4,30.1,136.3c1.7,53.9,3.3,101.6,6.2,129.1c6,58.3-6.6-145.9,16-177.8
				c15-21.2,70.8-39.7,70.8-39.7s-39.7,9-51.4,14.6c-13.2,6.3-17.9,16.1-13-18.5s-6.2-95.8-15.5-120c0,0,23.6,88.1,3.9,149.9
				C115,701.2,106.8,633.3,79.8,590.2z"/>
		</g>
	</g>
	<g>
		<polygon class="st11" points="429.6,838.9 504,860 501.6,866.7 427.2,845.6 		"/>
		<path class="st7" d="M443.9,817.8c0,0,6.8-21.6,8.1-26.1c1.2-4.4,1-5.6,1-5.6l-0.4,1.6c0,0,4.8,3.5,9.9,4.9
			c7.6,2.2,11.1-0.7,11.1-0.7c2.3,0.8-0.7,4.8-4.6,13.5c-4.3,9.3-8.7,17.1-8.7,17.1S452.7,826.2,443.9,817.8z"/>
		<path class="st12" d="M444.5,815.7c-1.1-0.2-2.2,0.3-2.7,2.1c-2.6,8.1-7.2,1.8-12.1,21.2l74.4,21.1c0,0,4.9-13.3-10.1-19.9
			c-22.4-9.7-30-19.7-32.8-20.5l-1,2.8c-6.2,0.8-16.4-4.6-16.4-4.6L444.5,815.7z"/>
		<g>
			<g>
				<path class="st13" d="M466.5,836.2c-0.1,0-0.2,0-0.3-0.1c-0.3-0.2-0.4-0.6-0.2-0.9c1.2-2.2,2.3-5.7,2.5-7.3
					c-2.6,1.2-8.9,2.5-11.7,1.1c-1-0.5-1.5-1.3-1.4-2.4c0.1-0.7,0.4-1.7,1.7-2.2c2.8-1.2,8.9,0.3,11.4,1.4c0.4-2.2,1.5-6.9,3.6-8.7
					c0.7-0.6,1.4-0.9,2.2-0.8c1.1,0.2,1.8,1.1,1.7,2.4c-0.1,2.9-3.1,7.8-6.2,8.6c0.1,2.2-1.5,6.5-2.6,8.4
					C467,836.1,466.7,836.2,466.5,836.2z M459.7,825.3c-0.8,0-1.6,0.1-2.2,0.3c-0.8,0.3-0.9,0.8-0.9,1.1c0,0.5,0.2,0.9,0.7,1.1
					c2.2,1.1,7.7,0.1,10.2-0.9C465.8,826.2,462.3,825.3,459.7,825.3z M473.9,817.7c-0.3,0-0.7,0.2-1.1,0.5c-1.7,1.5-2.8,5.8-3.2,7.9
					c2.3-0.9,4.8-5,4.9-7.3C474.6,817.8,474.2,817.7,473.9,817.7C474,817.7,473.9,817.7,473.9,817.7z"/>
				<path class="st13" d="M479.1,832.1c-3.5,0-8.9-2.8-10.7-4.6c-0.3-0.3-0.3-0.7,0-0.9c0.3-0.3,0.7-0.3,0.9,0
					c1.6,1.6,6.7,4.3,9.8,4.3l0,0c0.4,0,0.7,0.3,0.7,0.6C479.8,831.8,479.5,832.1,479.1,832.1z"/>
			</g>
			<path class="st13" d="M488.6,844.1L488.6,844.1c-0.4,0-0.7-0.3-0.7-0.7c0-1.4,0.9-3.3,2.3-3.9c0.3-0.2,0.7,0,0.9,0.3
				c0.1,0.3,0,0.7-0.3,0.9c-0.9,0.4-1.5,1.8-1.6,2.8C489.3,843.8,489,844.1,488.6,844.1z"/>
			<path class="st13" d="M481.8,842.5c-0.1,0-0.1,0-0.2,0c-0.3-0.1-0.5-0.5-0.4-0.8c0.4-1.4,2-4.4,4.2-4.6c0.4,0,0.7,0.2,0.7,0.6
				c0,0.4-0.2,0.7-0.6,0.7c-1.4,0.1-2.7,2.4-3.1,3.7C482.4,842.4,482.1,842.5,481.8,842.5z"/>
			<path class="st13" d="M475.1,839.7c-0.1,0-0.2,0-0.3-0.1c-0.3-0.2-0.4-0.6-0.3-0.9c0.8-1.5,4-4.3,6.4-4.3l0,0
				c0.4,0,0.7,0.3,0.6,0.7c0,0.4-0.3,0.6-0.7,0.6l0,0c-1.8,0-4.6,2.4-5.2,3.6C475.6,839.5,475.4,839.7,475.1,839.7z"/>
			<path class="st13" d="M469.6,837.2c-0.1,0-0.2,0-0.3-0.1c-0.3-0.2-0.4-0.6-0.3-0.9c0.8-1.4,4.9-4.7,7.2-4.7l0,0
				c0.4,0,0.7,0.3,0.7,0.6c0,0.4-0.3,0.7-0.6,0.7c-1.6,0-5.4,2.8-6,4C470,837.1,469.8,837.2,469.6,837.2z"/>
		</g>
		<polygon class="st11" points="183.1,841.6 236.6,897.4 231.2,902 177.7,846.2 		"/>
		<path class="st7" d="M206.1,830.7c0,0,16.3-17.7,19.7-21c3.3-3.2,4.2-1.7,4.2-1.7l-1.1,1.2c0,0,2.4,5.5,6,9.3c5.5,5.7,9.9,5,9.9,5
			c1.6,1.9-3.1,3.8-10.8,9.3c-8.4,5.9-16.2,10.4-16.2,10.4S209.5,842.3,206.1,830.7z"/>
		<g>
			<g>
				<path class="st13" d="M217.8,855.5c-0.2,0-0.5-0.1-0.6-0.4c-0.2-0.3,0-0.7,0.3-0.9c2.2-1.1,5.1-3.5,6.1-4.7
					c-2.9-0.5-8.8-2.8-10.3-5.5c-0.5-1-0.5-1.9,0.1-2.8c0.5-0.6,1.3-1.1,2.6-0.9c3,0.6,7.2,5.2,8.7,7.5c1.5-1.7,5-4.9,7.8-5.3
					c0.9-0.1,1.7,0.1,2.3,0.5c0.9,0.8,0.9,1.9,0.1,3c-1.7,2.3-6.9,4.8-9.9,3.8c-1.1,1.9-4.8,4.6-6.8,5.6
					C218,855.5,217.9,855.5,217.8,855.5z M225.7,848.7c2.4,0.5,6.8-1.6,8.1-3.4c0.6-0.8,0.3-1.1,0.1-1.2c-0.3-0.2-0.7-0.3-1.2-0.2
					C230.4,844.2,227.1,847.1,225.7,848.7z M215.4,841.6c-0.5,0-0.8,0.2-1,0.5c-0.3,0.4-0.3,0.8,0,1.3c1.2,2.2,6.4,4.3,9,4.8
					c-1.4-2-5.1-6.1-7.6-6.6C215.6,841.6,215.5,841.6,215.4,841.6z"/>
				<path class="st13" d="M230.6,859.1c-0.1,0-0.2,0-0.4-0.1c-2.9-1.9-5.9-7.2-6.4-9.8c-0.1-0.4,0.2-0.7,0.5-0.8
					c0.4-0.1,0.7,0.2,0.8,0.5c0.5,2.3,3.3,7.3,5.8,8.9c0.3,0.2,0.4,0.6,0.2,0.9C231,859,230.8,859.1,230.6,859.1z"/>
			</g>
			<path class="st13" d="M231.9,874.3c-0.1,0-0.3,0-0.4-0.1c-0.3-0.2-0.4-0.6-0.2-0.9c0.8-1.1,2.6-2.2,4.1-2
				c0.4,0.1,0.6,0.4,0.5,0.7c-0.1,0.4-0.4,0.6-0.7,0.5c-0.9-0.2-2.3,0.6-2.8,1.4C232.3,874.2,232.1,874.3,231.9,874.3z"/>
			<path class="st13" d="M227.1,869.3c-0.2,0-0.4-0.1-0.5-0.2c-0.2-0.3-0.2-0.7,0.1-0.9c1.1-0.9,4.1-2.6,6.1-1.5
				c0.3,0.2,0.4,0.6,0.3,0.9c-0.2,0.3-0.6,0.4-0.9,0.3c-1.3-0.7-3.7,0.6-4.6,1.4C227.4,869.2,227.3,869.3,227.1,869.3z"/>
			<path class="st13" d="M223.1,863.2c-0.2,0-0.5-0.1-0.6-0.3c-0.2-0.3-0.1-0.7,0.3-0.9c1.5-0.8,5.7-1.4,7.7-0.1
				c0.3,0.2,0.4,0.6,0.2,0.9c-0.2,0.3-0.6,0.4-0.9,0.2c-1.5-1-5.2-0.5-6.4,0.1C223.3,863.1,223.2,863.2,223.1,863.2z"/>
			<path class="st13" d="M219.9,858.1c-0.2,0-0.5-0.1-0.6-0.3c-0.2-0.3-0.1-0.7,0.3-0.9c1.4-0.8,6.7-1.2,8.6,0
				c0.3,0.2,0.4,0.6,0.2,0.9c-0.2,0.3-0.6,0.4-0.9,0.2c-1.4-0.9-6-0.6-7.3,0C220.1,858,220,858.1,219.9,858.1z"/>
		</g>
		<path class="st12" d="M207.7,829.1c-0.9-0.7-2.1-0.9-3.4,0.5c-6.3,5.7-7.1-2.1-21.2,12.2l53.5,55.8c0,0,10.9-9,1.3-22.3
			c-14.4-19.7-15.9-32.2-18-34.3l-2.3,1.9c-5.8-2.4-11.8-12.3-11.8-12.3L207.7,829.1z"/>
		<path class="st14" d="M370.1,619.4l71-58.5l11,10.6c5.6-13.2-1.5,2.4-1.4,2.8c0,0,27.4,15.7,60.8,59.6
			c20.4,26.7,44.9,52.7,42.2,65.2c-3,13.8-90.8,120.5-90.8,120.5c0.6-0.2-7.5-0.5-12.1-1.3c-7.5-1.3-9.4-4.2-9-5.6
			c13-44,59.5-106.2,59.5-106.2c-0.4-0.3-31.7-26.4-43.2-34.5c-25.8-18.4-51.9-35.5-61.1-21.7c-5.7,8.6-12-11-18.5-19
			C374.7,626.4,375.7,626,370.1,619.4z"/>
		<path class="st15" d="M273.4,606.2c11.3-0.9,15.4-30.6,14.3-37.7c-1.4-8.5,3.1-16,4.4-16.7c1.3-0.6-6.9-9.1-15.1-7.4
			c0,0-2.6,9.1-7.2,11.5c-4.5,2.4-6.3,22-9.8,31.7C256.7,597,266.1,606.8,273.4,606.2z"/>
		<path class="st15" d="M514,433.6c-11.2-2-22.7,25.6-23.4,32.8c-0.8,8.5-7.1,14.7-8.5,15s4.3,10.6,12.7,11c0,0,4.9-8.1,9.9-9.3
			c5-1.2,11.7-19.6,17.6-28.1C527.8,446.8,521.2,434.9,514,433.6z"/>
		<path class="st7" d="M277.7,464.1c-0.7,6.2-6.8,90.8-6.8,90.8s11.6,4.3,21.2,1.8c0.5-3.7,16.8-87.1,17.1-91.6
			c0.3-4.5-3.1-10.9-13.6-11.6C285.2,452.9,278.4,457.9,277.7,464.1z"/>
		<path class="st7" d="M284.3,455.5c0,0,75-45.9,100-49.8c11.4-1.8,24.9,8.3,26,21.1c1.5,16.2-24.7,22.7-34.2,26.2
			c-24.1,8.9-70.3,31.5-70.3,31.5"/>
		<path class="st16" d="M439.5,558c4.6-4.6,65.5-71.9,65.5-71.9c0-0.1-6.7-10.9-17.3-16.4c-2.8,2.6-74,58.8-77.1,62.3
			s-4,11.5,5.3,20.4C425.3,561.3,434.9,562.6,439.5,558z"/>
		<path class="st14" d="M400.1,646.9c0,0-44.4,74.4-73.6,93.9c-28.5,19-96,101-96,101S216.1,838,208,824c0,0,50.2-79.3,69.4-104
			c18.2-23.5,54.4-84.7,55.7-107.4c1.3-22.4,5.8-34,18.4-49.6l78.1,13.4L462,645L400.1,646.9z"/>
		<path class="st17" d="M417.4,392.9c-5.1,4.9,36.2,27,35.5,12.8c0,0,1.8-16.7,6.4-24.4c8.5-14-10-23.7-10-23.7s-20.7-18.7-20.9-0.8
			C428.2,374.8,425.5,385.1,417.4,392.9z"/>
		<path class="st7" d="M468.2,484.3c-2.3,7.3-12,60.9-9.2,90.7c1.4,15.1-12.7,30.7-58.2,17.8c-35.4-10-60-28.5-60-28.5
			s29.4-24.9,13.4-80.6c-8.5-29.4,5.7-69.2,10-76c5.2-8.3,37.9-15.5,50.5-14.6c3.7,0.3,5.2,3.4,14.6,7.2c11.7,4.8,27.6,6.5,27.6,6.5
			S477.8,453.2,468.2,484.3z"/>
		<path class="st18" d="M455.9,291.9L455.9,291.9c29.4,2.1,36,23.4,33.7,46.7c-4.5,44.9-18.8,54.2-29.9,53.4
			c-6.7-0.5-32.2-7.8-34.7-17.7c-2.5-9.9-7.2-29.5-7.5-36.2C416.5,314.8,426.4,289.9,455.9,291.9z"/>
		<path class="st17" d="M485.9,357.8c1.4,7.4,4,10.1,2.8,11.9c-1.4,2.1-6.2,0.7-6.2,0.7"/>
		<path class="st17" d="M478.5,379.9c0,0-5.5,4.1-10-4.8c0,0-0.9,3.4,3,5.2C475.4,382.2,478.5,379.9,478.5,379.9z"/>
		<path class="st16" d="M453,402.9c0,0-10.5,2.9-34.5-11.5l-3.9,2.4c0,0,25,24.4,42.4,12.8L453,402.9z"/>
		<path class="st19" d="M467.4,351.7c0,0,7.1-6.4,11,0.8C478.4,352.4,473.5,348.7,467.4,351.7z"/>
		<path class="st19" d="M480,346.8c0,0-2.3-1.5-4.8-2.2c-2.1-0.5-3.9-0.9-7.2-0.5c-3.4,0.4-5.8,2-6.1,2.4c-0.3,0.4,1-2.3,2.4-3.3
			s3.8-2,7-1.6s7.2,1.6,8.1,2.4C480.3,344.8,482.5,346,480,346.8z"/>
		<path class="st20" d="M432.7,365.4c-1.2,2.3-7.2,0.6-7.2,0.6s-20.3-13.3-19.5-39.9c0.1-4.5,0.1-11.1,1.3-15.5
			c-0.4,1-2.2,4.7-2.2,4.7c-3.3-1,0.1-10.4,0.7-12.6c1.5-5.3,4.5-10.9,8.4-15c3.8-4,8.8-5.7,14.4-5.2c1.4,0.2,4.3,0.5,6.6,1.3
			c15.7-17.9,45.3-8,43.6-1.3c-0.4,1.6-3,0.6-4.7,0c10.5,6.2,17.3,13.6,21,25.2c0.9,2.7,2.1,7.2,2.3,10.6c0.5,8.4-3.4,11.8-9,12
			c-5.1,0.3-12.4-6-16.2-9.2c-7.5-6.3-4.4-15.2-20-7.5c-5.9,2.9-5.3,19.7-6.6,26.1c-0.2,0.9-1.7,4.9-2.4,0.3
			c-0.3-1.7-4.5,2.6-5.5,2.5C432.7,342.3,434.2,362.4,432.7,365.4z"/>
		<g>
			<path class="st18" d="M443.1,340.1c-1-2.4-2.8-4.1-5.2-4.2c-4-0.3-7.1,3.9-6,8.4c1.2,4.7,3.8,9.5,7.3,9.3c1.1,0,2-0.7,2.8-1.8"/>
			<path class="st17" d="M437.6,347.1c0.3,0.3,0.9,0.7,1.4,0.5c0.7-0.3,0.2-0.7,0.2-1.2s0.4-0.8,0.6-1.2c0.3-0.6,0.2-0.9,0.1-1.5
				c-0.4-2.1-1.5-4.7-3.9-5v-0.1c1.1-0.6,2.6-0.1,3.4,0.8c0.8,0.8,0.8,2.1,1.4,3c0.5,0.9,1.6,2.3,0.6,3c-0.4,0.3-1.1,0.2-1.2,0.8
				c-0.2,0.8,0.7,0.9,0.9,1.4c0.1,0.4,0,0.8-0.5,0.9c-0.3,0.1-0.5-0.2-0.7-0.2s-0.3,0.1-0.5,0.2c-0.4,0.2-0.6,0.6-1.1,0.1
				C437.7,348.3,437.7,347.5,437.6,347.1"/>
		</g>
	</g>
	<g>
		<path class="st21" d="M624.3,351.4c0,0-2.7,17.7-11.9,39.2s92.8,0,92.8,0l-6-39.2H624.3z"/>
		<path class="st21" d="M827,111.1c1.2-6.5-16.2-14.8-22.8-2.6c-5.1,9.5-5.4,13.2-7.6,22.5c-1.7,7.4-0.8,14.3-2,15s7.6,7,14.9,4.4
			c0,0,1.3-8.2,5.2-10.9s7-4.9,8.8-13.8C824.6,121,826.1,115.9,827,111.1z"/>
		<path class="st21" d="M784.8,225.4c2.3-6,26.1-79.3,26.1-79.3c-4.3-1.9-3-5.4-13-5.7c-1.4,3.5-36.7,70.3-38.2,74.7
			s-4.2,12.4,5.9,16.1C775.6,234.8,782.5,231.4,784.8,225.4z"/>
		<path class="st21" d="M767.1,207c0,0-40.5,23.4-61.2,36.2c-8.1,5-28.3,15.1-26,28.9c2.5,15.2,14,21.1,23.3,16
			c23.3-12.8,78.3-58,78.3-58"/>
		<path class="st7" d="M705.3,390.6l5.4,47.9l7.9,127.4l-17.2,158.9l0,0l0.1,3.2c0,0-3.7,2.8-15,0l-0.4-3.3l-10.5-155.4l-24.7-125.1
			l-6.5-39.3L705.3,390.6z"/>
		<path class="st7" d="M617.1,378.7c0,0,22.5,5.3,44.7,6.1c21.8,0.7,41.9-5.2,41.9-5.2l3.9,32.4l-49.4,41.9l-42.2,134l-46.2,138.4
			l-0.6,3.2c0,0-4.1,2-14.6-3l0.3-3.3l0,0l0,0l18.2-139.9c0,0,11.6-106,13.3-131.2C588.9,417.8,602.9,401.6,617.1,378.7z"/>
		<path class="st22" d="M639.2,236c-2.8,4.5,27,22.6,40.5,24.6c19.9,2.9,7.2-20.8,4.9-23.4c-5.4-6-9.1-22.3-4.2-27.9
			c13.7-15.6-0.8-27.7-0.8-27.7s-40-22.9-35.6,1.5C648.5,207.6,647.9,221.7,639.2,236z"/>
		<path class="st23" d="M703.6,311.9c0,0-6.7,11.6-5.2,29c0.2,2.4,0.7,8,0.9,10.5l-74.3-4.5c0-2.4-0.1-4.8-0.2-7.4
			c-1.7-32.4-22.9-89-14.6-92.7c10.7-4.8,19.6-8.1,28.6-11.9c0,0,23.5,17.6,39.7,19.4c16.3,1.8,5.7-18.3,5.7-18.3
			s11.1,8.3,16.2,10.9c3.4,1.7,5,4.4,5.5,9.5l0,0v0.1c3.3,24.5,9.6,22.9,9.6,36C715.5,307.7,703.6,311.9,703.6,311.9z"/>
		<path class="st24" d="M703.5,312.3c-5.4,0.1-14.2-1.5-19.7-2.8c-6.9-1.6-9.7-0.4-16.2,1.5c-16.7,4.9-26.2,5-38.9-1.5
			c0,0,13.1,10.2,35.6,5c5.2-1.2,11.3-3.9,16.4-2.7C698.2,316,703.5,312.3,703.5,312.3z"/>
		<path class="st25" d="M657.5,132.3c-35.9,0-34.9,19.4-34.9,39.2c0,39.1,16.4,54.2,27.1,54.2c22.7,0,39.9-25,41.3-37.6
			C692.8,170.7,693.4,132.3,657.5,132.3z"/>
		<path class="st22" d="M648.3,187.5c-2,7.4-4.8,9.9-3.7,11.8c1.3,2.2,6.2,1.2,6.2,1.2"/>
		<path class="st26" d="M641.8,206.2c0,0,9.2,1.8,15.7,0c0,0-1.9,7-8,7C643.4,213.1,641.8,206.2,641.8,206.2z"/>
		<g>
			<path class="st25" d="M691.7,180c1.1-2.1,2.8-3.6,5.1-3.6c3.8,0,6.4,4.1,5,8.2c-1.4,4.3-4.2,8.6-7.4,8.2c-1-0.1-1.8-0.8-2.5-1.8"
				/>
			<path class="st22" d="M696.4,186.8c-0.3,0.3-0.9,0.6-1.3,0.4c-0.6-0.3-0.1-0.6-0.1-1.1s-0.3-0.8-0.5-1.2c-0.2-0.5-0.2-0.8,0-1.4
				c0.5-1.9,1.7-4.2,4-4.3v-0.1c-1-0.6-2.4-0.2-3.2,0.5s-0.9,1.9-1.4,2.7s-1.7,2-0.8,2.7c0.3,0.3,1,0.2,1.1,0.8
				c0.1,0.7-0.7,0.7-0.9,1.2c-0.2,0.3,0,0.7,0.4,0.9c0.3,0.1,0.5-0.2,0.7-0.2s0.3,0.2,0.5,0.2c0.4,0.2,0.5,0.6,1,0.2
				C696.2,188,696.3,187.2,696.4,186.8"/>
		</g>
		
			<rect x="572.7" y="722.7" transform="matrix(0.2039 -0.979 0.979 0.2039 -279.0597 1162.9894)" class="st27" width="5.7" height="60.7"/>
		<g>
			<g>
				<path class="st24" d="M624.3,351.4c0.4-2.4,0.4-4.8,0.5-10.5h73.6l0.9,10.5H624.3z"/>
			</g>
		</g>
		<path class="st21" d="M590.2,485c-11.9,2.1-15.5-4-15.9-17.9c-0.3-10.8,1.1-14.2,3.5-23.5c1.9-7.3,5.8-13.1,5.1-14.3
			c-0.7-1.2,9.9-2.8,15.3,2.9c0,0-2.6,7.9-0.3,12.1s4,7.6,1.6,16.3C598.1,465.2,595,484.2,590.2,485z"/>
		<path class="st21" d="M610,354.1c-0.6,6.4-12.7,82.6-12.7,82.6c-4.7-0.2-5.1,3.4-14.2-0.9c0.3-3.7-0.9-79.3-0.2-83.9
			c0.7-4.6,1.9-12.9,12.5-11.6C606.1,341.5,610.6,347.7,610,354.1z"/>
		<path class="st21" d="M583,350.9c0,0,7.3-46.2,11.8-70.1c1.8-9.4,3.9-31.8,17.6-34.7c15.1-3.1,24.7,5.4,23.3,15.9
			c-3.5,26.3-26,93.9-26,93.9"/>
		<path class="st19" d="M631.5,150.5c7.6-5.7,14.3-2.2,14.3-2.2s12.6-6.2,18.7,1.8c6.1,8,0.4,16.1,12.9,26s11.7,15.8,9.9,19.9
			c-1.9,4.1-8,12.8-9.1,19s1.6,17,3.7,25.7c2.1,8.7,0,15.6-5.9,18.1c0,0,5.9,1.1,16-7.4c0,0-5.1,18-24.8,19.3
			c0,0,22.4,5.4,40.7-16.2s8.9-46.5,7-53.2c-1.9-6.6-6.1-22.9-6.9-27.5c-0.8-4.6-3.9-22.4-12.8-33.7c-8.9-11.3-18.2-20.9-32-21.7
			c-13.7-0.8-12.5,3.6-12.5,3.6s-2.5-2.8-6.1-2.6s-11.7-0.2-18.6,7.5s-11.5,12.3-16,25.4c-4.5,13.1-3.7,23.8-2.9,28.8
			s-1.6,28.5,5.2,40.9s11.1,22.8,8.7,30.7c-2.4,7.9-6.4,11.3-10,11.8c0,0,14.3,1.4,18.9-8c0,0,3.6,11.8-9.9,16.8
			c0,0,13.5,0.8,19.3-7.3c5.9-8.1,8.3-10.6,9.7-22.4c1.2-10,0-17.4-0.4-17.9s-10.7-2.2-17.3-13.5c-4.6-7.9-5.5-12.5-7-19.6
			s-2.1-16-1.9-22.7C622.6,169.8,625.6,154.9,631.5,150.5z"/>
		<path class="st19" d="M637.4,174.5c0,0,3.4,0.6,3.4,2.4s-1.3,2.2-3.4,1.6s-4.4-1.9-6.5-1.8c-2.1,0.1-3.5,0.8-4.1,1.5
			c-0.7,0.7-0.1-1.8,1.3-2.7C629.6,174.5,633.8,173.7,637.4,174.5z"/>
		<path class="st19" d="M660.8,174.5c0,0-3.4,0.6-3.4,2.4s1.3,2.2,3.4,1.6s4.4-1.9,6.5-1.8c2.1,0.1,3.5,0.8,4.1,1.5
			c0.7,0.7,0.1-1.8-1.3-2.7C668.7,174.5,664.4,173.7,660.8,174.5z"/>
		<path class="st28" d="M687.3,722.4c-0.8,0.1-1.6,0.8-1.5,2.3c0.3,7-4.9,3-3.3,19.3h60.7c0,0,0.1-11.5-12.7-13.3
			c-19.2-2.7-27.4-8.8-29.7-8.8v2.4c-4.4,2-13.3,0-13.3,0L687.3,722.4z"/>
		<rect x="682.5" y="744" class="st27" width="60.7" height="5.7"/>
		<g>
			<g>
				<path class="st29" d="M709.2,731.7L709.2,731.7c-0.5-0.1-0.7-0.4-0.6-0.8c0.4-1.9,0.4-4.7,0.2-6c-1.9,1.4-6.2,3.4-8.5,2.9
					c-0.9-0.2-1.5-0.8-1.6-1.7c-0.2-0.8,0.1-1.6,0.8-2.1c1.9-1.5,6.6-1.4,8.8-1c-0.2-2-0.3-5.7,0.9-7.5c0.4-0.6,0.9-0.9,1.5-1
					c0.4-0.1,1.5-0.1,1.9,1.6c0.6,2.3-0.5,6.7-2.7,8.1c0.6,1.8,0.3,5.6-0.1,7.1C709.8,731.5,709.5,731.7,709.2,731.7z M705.1,724
					c-1.9,0-3.9,0.2-4.8,1c-0.3,0.2-0.4,0.5-0.3,0.9c0.1,0.4,0.3,0.6,0.7,0.7c1.6,0.4,5.2-1.2,7-2.3C706.9,724,706,724,705.1,724z
					 M710.9,715.7C710.9,715.7,710.8,715.7,710.9,715.7c-0.1,0-0.4,0.1-0.7,0.5c-0.9,1.4-0.9,4.7-0.7,6.5c1.3-1.3,2.2-4.6,1.8-6.4
					C711.2,715.8,711,715.7,710.9,715.7z"/>
				<path class="st29" d="M716.1,726.3c-2.7,0-6.1-1-7.4-2c-0.3-0.2-0.4-0.6-0.2-0.9c0.2-0.3,0.6-0.4,0.9-0.2c1.5,1,5.9,2.2,8.1,1.6
					c0.4-0.1,0.7,0.1,0.8,0.5c0.1,0.3-0.1,0.7-0.5,0.8C717.4,726.3,716.8,726.3,716.1,726.3z"/>
			</g>
			<path class="st29" d="M727.6,733.8c-0.3,0-0.6-0.2-0.6-0.5c-0.2-1-0.1-2.9,1-3.7c0.3-0.2,0.7-0.2,0.9,0.1s0.2,0.7-0.1,0.9
				c-0.5,0.4-0.7,1.6-0.5,2.4c0.1,0.4-0.1,0.7-0.5,0.8C727.7,733.8,727.6,733.8,727.6,733.8z"/>
			<path class="st29" d="M722.1,733.8c-0.3,0-0.6-0.3-0.7-0.6c-0.1-1.2,0.5-4,2.3-4.6c0.3-0.1,0.7,0.1,0.8,0.4
				c0.1,0.3-0.1,0.7-0.4,0.8c-1,0.3-1.5,2.3-1.4,3.3C722.7,733.5,722.5,733.8,722.1,733.8L722.1,733.8z"/>
			<path class="st29" d="M716.4,732.9C716.4,732.9,716.3,732.9,716.4,732.9c-0.5-0.1-0.7-0.4-0.6-0.8c0.2-1.4,2-4.3,4-4.7
				c0.4-0.1,0.7,0.1,0.8,0.5s-0.1,0.7-0.5,0.8c-1.2,0.3-2.8,2.6-3,3.6C717,732.7,716.7,732.9,716.4,732.9z"/>
			<path class="st29" d="M711.7,731.9L711.7,731.9c-0.5-0.1-0.7-0.4-0.6-0.7c0.2-1.5,2.7-4.8,4.6-5.2c0.4-0.1,0.7,0.2,0.8,0.5
				c0.1,0.4-0.1,0.7-0.5,0.8c-1.2,0.3-3.4,3.1-3.6,4.1C712.3,731.6,712,731.9,711.7,731.9z"/>
		</g>
		<path class="st28" d="M555.6,724c-0.8-0.1-1.7,0.4-1.9,1.9c-1.2,6.9-5.4,1.9-7.2,18.2l59.4,12.4c0,0,2.4-11.2-9.7-15.6
			c-18.2-6.5-25.1-14.2-27.3-14.7l-0.4,2.3c-4.7,1.1-13-2.7-13-2.7L555.6,724z"/>
		<path class="st19" d="M669.9,185.9c0,0-7.4-7.7-12.4,0C657.5,185.9,663.2,182.1,669.9,185.9z"/>
		<path class="st19" d="M628.4,186.4c0,0,7.4-7.7,12.4,0C640.8,186.4,635,182.6,628.4,186.4z"/>
		<g>
			<g>
				<path class="st29" d="M574,737.3c-0.1,0-0.2,0-0.3-0.1c-0.3-0.1-0.5-0.5-0.3-0.9c0.8-1.8,1.4-4.5,1.4-5.8
					c-2.2,1-6.8,2.1-8.9,1.1c-0.8-0.4-1.3-1.1-1.3-2s0.4-1.5,1.2-1.9c2.1-1.1,6.7,0,8.8,0.8c0.2-2,0.9-5.7,2.4-7.1
					c0.5-0.5,1.1-0.7,1.7-0.7c0.4,0,1.5,0.2,1.6,2c0.1,2.4-1.9,6.4-4.3,7.3c0.2,1.9-0.9,5.5-1.5,6.9
					C574.5,737.2,574.3,737.3,574,737.3z M568.3,728.6c-0.7,0-1.4,0.1-1.8,0.3c-0.4,0.2-0.5,0.4-0.5,0.8c0,0.4,0.2,0.6,0.5,0.8
					c1.5,0.7,5.4-0.1,7.3-0.9C572.5,729.1,570.1,728.6,568.3,728.6z M578.7,722c-0.1,0-0.4,0-0.7,0.3c-1.2,1.1-1.8,4.4-2,6.3
					c1.5-1,3.1-4.1,3-5.9C579.1,722,578.8,722,578.7,722C578.8,722,578.7,722,578.7,722z"/>
				<path class="st29" d="M583.3,733.6c-2.8,0-7-2.2-8.4-3.7c-0.2-0.3-0.2-0.7,0-0.9c0.3-0.2,0.7-0.2,0.9,0c1.2,1.3,5.3,3.4,7.6,3.2
					c0.4,0,0.7,0.3,0.7,0.6c0,0.4-0.3,0.7-0.6,0.7C583.5,733.6,583.4,733.6,583.3,733.6z"/>
			</g>
			<path class="st29" d="M591.6,743.2c-0.4,0-0.6-0.3-0.7-0.6c0-1,0.5-2.8,1.7-3.4c0.3-0.2,0.7,0,0.9,0.3s0,0.7-0.3,0.9
				c-0.5,0.3-1,1.4-1,2.2C592.3,742.9,592,743.2,591.6,743.2L591.6,743.2z"/>
			<path class="st29" d="M586.2,742L586.2,742c-0.5-0.1-0.7-0.4-0.6-0.8c0.2-1.2,1.3-3.8,3.2-4c0.4,0,0.7,0.2,0.7,0.6
				c0,0.4-0.2,0.7-0.6,0.7c-1,0.1-1.9,2-2.1,2.9C586.8,741.8,586.5,742,586.2,742z"/>
			<path class="st29" d="M580.8,740c-0.1,0-0.2,0-0.2,0c-0.3-0.1-0.5-0.5-0.4-0.8c0.5-1.3,2.9-3.8,4.9-3.8l0,0
				c0.4,0,0.7,0.3,0.7,0.6c0,0.4-0.3,0.7-0.6,0.7c-1.2,0-3.3,1.9-3.7,3C581.3,739.8,581.1,740,580.8,740z"/>
			<path class="st29" d="M576.4,738c-0.1,0-0.2,0-0.2,0c-0.3-0.1-0.5-0.5-0.4-0.8c0.5-1.4,3.7-4.2,5.5-4.2l0,0
				c0.4,0,0.7,0.3,0.7,0.6c0,0.4-0.3,0.7-0.6,0.7c-1.3,0-4,2.3-4.3,3.3C577,737.8,576.7,738,576.4,738z"/>
		</g>
		<ellipse class="st19" cx="635.5" cy="186.9" rx="3" ry="4"/>
		<ellipse class="st19" cx="662.8" cy="186.4" rx="3" ry="3.8"/>
		<g>
			<ellipse class="st7" cx="779.2" cy="115.7" rx="6.5" ry="28.7"/>
			<ellipse class="st7" cx="861.1" cy="115.7" rx="6.5" ry="28.7"/>
			<rect x="783.7" y="111.1" class="st7" width="74.3" height="9.3"/>
		</g>
		<ellipse class="st21" cx="815.3" cy="111.1" rx="11.8" ry="7"/>
	</g>
</g>
</svg>
