<?xml version="1.0" encoding="utf-8"?>
<!-- Generator: Adobe Illustrator 24.0.0, SVG Export Plug-In . SVG Version: 6.00 Build 0)  -->
<svg version="1.1" id="Слой_1" xmlns="http://www.w3.org/2000/svg" xmlns:xlink="http://www.w3.org/1999/xlink" x="0px" y="0px"
	 viewBox="0 0 1000 1000" style="enable-background:new 0 0 1000 1000;" xml:space="preserve">
<style type="text/css">
	.st0{opacity:0.28;fill:url(#SVGID_1_);enable-background:new    ;}
	.st1{fill:#FFFFFF;}
	.st2{fill:#5B5BBA;}
	.st3{fill:#6E68C9;}
	.st4{fill:#7676CE;}
	.st5{fill:url(#SVGID_2_);}
	.st6{fill:url(#SVGID_3_);}
	.st7{fill:url(#SVGID_4_);}
	.st8{fill:url(#SVGID_5_);}
	.st9{fill:url(#SVGID_6_);}
	.st10{fill:#DDA885;}
	.st11{opacity:0.1;fill:url(#SVGID_7_);enable-background:new    ;}
	.st12{fill:#1C3249;}
	.st13{fill:#F4B693;}
	.st14{fill:#233A57;}
	.st15{fill:#E5AD8B;}
	.st16{fill:#E19A74;}
	.st17{fill:#F4B68A;}
	.st18{fill:#CACAD8;}
	.st19{fill:#B2B2BE;}
	.st20{fill:#4B1709;}
	.st21{fill:#452C2B;}
	.st22{opacity:0.28;fill:url(#SVGID_8_);enable-background:new    ;}
	.st23{opacity:0.28;fill:url(#SVGID_9_);enable-background:new    ;}
	.st24{opacity:0.28;fill:url(#SVGID_10_);enable-background:new    ;}
	.st25{opacity:0.28;fill:url(#SVGID_11_);enable-background:new    ;}
	.st26{opacity:0.5;}
	.st27{opacity:0.28;fill:url(#SVGID_12_);enable-background:new    ;}
	.st28{fill:#F6B895;}
	.st29{fill:url(#SVGID_13_);}
	.st30{fill:url(#SVGID_14_);}
	.st31{fill:#00B2BD;}
	.st32{fill:#4399A9;}
	.st33{fill:#C58C60;}
	.st34{fill:#D38DAA;}
	.st35{fill:#F0C3A0;}
	.st36{fill:#E3A17E;}
	.st37{fill:#F6B88C;}
	.st38{fill:#E39C74;}
	.st39{fill:#B47D4F;}
	.st40{fill:#6E3E1B;}
</style>
<g>
	<g>
		
			<linearGradient id="SVGID_1_" gradientUnits="userSpaceOnUse" x1="-293.0082" y1="718.761" x2="618.4266" y2="718.761" gradientTransform="matrix(0.7771 -0.2565 -0.314 -0.9514 560.9334 1105.0233)">
			<stop  offset="0" style="stop-color:#00B1BC"/>
			<stop  offset="1" style="stop-color:#6E68C8"/>
		</linearGradient>
		<path class="st0" d="M241.8,728.5c-134.3-66-156.9-339.9-103.4-525.4C194.4,8.8,451.2,50,568.6,111.8
			c144,75.7,327.1,210.9,288.6,359.9C813.7,640.3,435.6,823.8,241.8,728.5z"/>
	</g>
	<g>
		<g>
			<g>
				<path class="st1" d="M701.8,528.3c-16.9-34.9-53.9-54.3-91.1-51.3c-8.9,0.7-17.8,2.7-26.4,6c-1.9,0.7-3.8,1.5-5.7,2.4
					c-18.9,8.7-33.4,22.9-42.4,39.7c-13,24.2-14.6,53.8-1.7,80.4c4.3,8.8,9.8,16.6,16.3,23.3c26.8,27.7,69.8,36.8,107,19.7
					C703.9,627.1,723.6,573.3,701.8,528.3z M647.8,628c-27.9,12.9-60.1,6-80.2-14.7c-4.8-5-9-10.9-12.2-17.5
					c-9.7-19.9-8.5-42.2,1.3-60.3c6.8-12.6,17.6-23.2,31.8-29.7c1.4-0.6,2.8-1.3,4.3-1.8c6.5-2.5,13.2-4,19.8-4.5
					c27.9-2.2,55.6,12.3,68.3,38.5C697.2,571.7,682.4,612,647.8,628z"/>
			</g>
			<g>
				<path class="st2" d="M556.7,535.5L536.2,525c-13,24.2-14.6,53.8-1.7,80.4c4.3,8.8,9.8,16.6,16.3,23.3l16.9-15.5
					c-4.8-5-9-10.9-12.2-17.5C545.7,575.8,546.9,553.6,556.7,535.5z"/>
			</g>
			<g>
				<path class="st3" d="M592.7,503.9l-8.5-21c-1.9,0.7-3.8,1.5-5.7,2.4c-18.9,8.7-33.4,22.9-42.4,39.7l20.5,10.5
					c6.8-12.6,17.6-23.2,31.8-29.7C589.9,505.1,591.3,504.5,592.7,503.9z"/>
			</g>
			<g>
				<path class="st4" d="M610.7,476.9c-8.9,0.7-17.8,2.7-26.4,6l8.5,21c6.5-2.5,13.2-4,19.8-4.5L610.7,476.9z"/>
			</g>
		</g>
		<g>
			<path class="st1" d="M366,529.7h124.9c0.4,0,0.8-0.4,0.8-0.8v-31.3c0-0.4-0.4-0.8-0.8-0.8H366c-0.4,0-0.8,0.4-0.8,0.8v31.3
				C365.2,529.3,365.5,529.7,366,529.7z"/>
		</g>
		<g>
			<path class="st4" d="M366,583.3h124.9c0.4,0,0.8-0.4,0.8-0.8v-31.3c0-0.4-0.4-0.8-0.8-0.8H366c-0.4,0-0.8,0.4-0.8,0.8v31.3
				C365.2,582.9,365.5,583.3,366,583.3z"/>
		</g>
		<g>
			<path class="st2" d="M490.9,636.9H366c-0.4,0-0.8-0.4-0.8-0.8v-31.3c0-0.4,0.4-0.8,0.8-0.8h124.9c0.4,0,0.8,0.4,0.8,0.8v31.3
				C491.7,636.5,491.3,636.9,490.9,636.9z"/>
		</g>
	</g>
	<g>
		
			<linearGradient id="SVGID_2_" gradientUnits="userSpaceOnUse" x1="365.3421" y1="650.8256" x2="713.2716" y2="650.8256" gradientTransform="matrix(1 0 0 -1 0 999.2756)">
			<stop  offset="0" style="stop-color:#00B1BC"/>
			<stop  offset="1" style="stop-color:#6E68C8"/>
		</linearGradient>
		<rect x="365.2" y="270.3" class="st5" width="47.2" height="156.3"/>
		
			<linearGradient id="SVGID_3_" gradientUnits="userSpaceOnUse" x1="365.3421" y1="670.3256" x2="713.2716" y2="670.3256" gradientTransform="matrix(1 0 0 -1 0 999.2756)">
			<stop  offset="0" style="stop-color:#00B1BC"/>
			<stop  offset="1" style="stop-color:#6E68C8"/>
		</linearGradient>
		<rect x="439.7" y="231.3" class="st6" width="47.2" height="195.3"/>
		
			<linearGradient id="SVGID_4_" gradientUnits="userSpaceOnUse" x1="365.3421" y1="689.8256" x2="713.2716" y2="689.8256" gradientTransform="matrix(1 0 0 -1 0 999.2756)">
			<stop  offset="0" style="stop-color:#00B1BC"/>
			<stop  offset="1" style="stop-color:#6E68C8"/>
		</linearGradient>
		<rect x="514.2" y="192.3" class="st7" width="47.2" height="234.3"/>
		
			<linearGradient id="SVGID_5_" gradientUnits="userSpaceOnUse" x1="365.3421" y1="708.8756" x2="713.2716" y2="708.8756" gradientTransform="matrix(1 0 0 -1 0 999.2756)">
			<stop  offset="0" style="stop-color:#00B1BC"/>
			<stop  offset="1" style="stop-color:#6E68C8"/>
		</linearGradient>
		<rect x="588.8" y="154.3" class="st8" width="47.2" height="272.2"/>
		
			<linearGradient id="SVGID_6_" gradientUnits="userSpaceOnUse" x1="365.3421" y1="734.5256" x2="713.2716" y2="734.5256" gradientTransform="matrix(1 0 0 -1 0 999.2756)">
			<stop  offset="0" style="stop-color:#00B1BC"/>
			<stop  offset="1" style="stop-color:#6E68C8"/>
		</linearGradient>
		<rect x="663.3" y="103" class="st9" width="47.2" height="323.5"/>
	</g>
	<rect x="229.4" y="945.3" class="st10" width="75" height="7.2"/>
	
		<linearGradient id="SVGID_7_" gradientUnits="userSpaceOnUse" x1="5.6342" y1="30.8994" x2="986.4439" y2="30.8994" gradientTransform="matrix(1 0 0 -1 0 999.2756)">
		<stop  offset="0" style="stop-color:#00B1BC"/>
		<stop  offset="1" style="stop-color:#6E68C8"/>
	</linearGradient>
	<path class="st11" d="M855,939.4c31.9-0.2,95,0.9,110.7,13.2c15.7,12.4,52.9,28.7,5.1,36.6s-120.2,10.3-179.8,6.2
		s-89.5-21.2-62.7-33.2C756.1,949.9,792.1,939.7,855,939.4z"/>
	<g>
		<path class="st12" d="M732.1,721.8c0,0,42.1,32.9,112.2,16.9c117.1-26.6,117.2-50.6,125.2-75.1l-117.5-33L732.1,721.8z"/>
		<path class="st13" d="M633.9,237.2c0,0-0.2-11.3-4.2-14.7s-7.7-6-7.9-18.3c0,0-1-6.7,3.6-8.8c4.6-2.2,4.6,3.6,5.1,9.5
			c0.6,5.9,5.3-1.4,5.4-8.1c0.1-7.1,1.5-8.4,1.1-17.2c-0.4-7.7-0.2-8.9,2.6-11.8c1.6-1.6,2.3,5,5.2,12.6c4.1,11,9.8,20,6.7,28.5
			c-3.8,10.2-1.3,19.8-0.1,20.7C652.7,230.5,641.9,240.1,633.9,237.2z"/>
		<path class="st13" d="M683.9,320.3c-2.5-7.8-34.3-102.3-34.3-102.3c-0.1,0-7.8-0.6-17.5,8.5c1.4,4.6,17.9,102,19.9,107.5
			s5.7,15.6,18.2,9.6C682.6,337.6,686.4,328,683.9,320.3z"/>
		<path class="st14" d="M658.4,344c0,0,45.8,29.5,72.6,44.1c10.5,5.7,38.4,25.3,47.8,10.4c10.4-16.4,8.9-30.8-2.5-37.7
			c-28.5-17.5-92.1-39.5-92.1-39.5L658.4,344z"/>
		<path class="st15" d="M770.6,536.9l-6.7,59.7l-9.8,158.9l21.5,198.1l0,0l-0.1,4c0,0,4.6,3.5,18.6,0l0.5-4.2l13.1-193.8l30.7-156
			l8.1-49L770.6,536.9z"/>
		<path class="st13" d="M874.4,798.6l0.4-38.5c0,0,4.1-132.9,6.4-164.3c3.1-42.5-12.2-49.1-15.2-76.8l-56.3,3.7l-13.9,26.9
			l-3.6,36.1L821,758.6L874.4,798.6z"/>
		<path class="st16" d="M853,344c3.5,5.7-33.7,28.2-50.5,30.7c-24.8,3.6-9-25.9-6.1-29.1c6.7-7.4,11.4-27.8,5.3-34.8
			c-17-19.5,1-34.6,1-34.6s49.9-28.6,44.4,1.9C841.5,308.6,842.1,326.1,853,344z"/>
		<path class="st14" d="M772.7,438.7c0,0,8.4,14.4,6.5,36.2c-0.3,3.1-0.9,9.9-1.1,13l92.6-5.6c0-2.9,0.1-6,0.3-9.3
			c2.1-40.4,28.6-110.9,18.3-115.6c-13.3-5.9-24.5-10.2-35.7-14.9c0,0-29.2,21.9-49.5,24.2c-20.3,2.3-6.4-22.8-6.4-22.8
			s-15.1,19.9-26.4,13.8c-10.6-5.7-15.7-1.3-9.7,14.3l5.5,11.7c-0.7,4.5,2.7-14.3,2.7-14.2c-4.1,30.5-11.9,28.5-11.9,44.9
			C757.9,433.4,772.7,438.7,772.7,438.7z"/>
		<path class="st12" d="M772.8,439.2c6.8,0.2,17.7-1.9,24.6-3.5c8.6-2,12.1-0.5,20.2,1.9c20.8,6.2,32.7,6.2,48.5-1.9
			c0,0-16.3,12.7-44.4,6.2c-6.5-1.5-14.1-4.9-20.4-3.3C779.5,443.7,772.8,439.2,772.8,439.2z"/>
		<path class="st14" d="M778,487.1c0,0-45.9,158.5-45.9,234.7c0,0,49.2,23.6,105.4-1.7c56.2-25.2,74.9-18.8,96.8-20
			c22.7-1.2,37.8-14.9,35.2-36.5c-3.4-29-41.3-76.7-58-101.3c-16.8-24.9-21.7-56.4-40-74.4C853.3,469.9,778,487.1,778,487.1z"/>
		<path class="st16" d="M773.5,267.9c-2.5,9.5-6.2,12.8-4.7,15.2c1.6,2.8,8,1.5,8,1.5"/>
		<path class="st17" d="M815.6,196.7c-46.2,0-45.1,25-45.1,50.5c0,50.5,21.1,69.9,34.9,69.9c29.2,0,51.5-32.2,53.3-48.5
			C861.1,246.2,861.8,196.7,815.6,196.7z"/>
		<g>
			<path class="st12" d="M871.6,487.9c-0.5-2.9-0.5-5.9-0.6-13h-91.8l-1.1,13H871.6z"/>
		</g>
		<path class="st13" d="M918,581.6c0,0,3,10,0,15.1c-2.9,5.1,0.7,11.8,4,22.6c0,0,2.4,5.3,5,4.7c5-1,2-6.1,0.9-11.5
			c-1.1-5.5,2.8-3.3,3.5,3.1c0.7,6.4,1.4,9.9,2.2,20.2c0.7,8.5,4.9,7.3,8.2,5.5c2.9-1.5,4-11.4,4.1-23.7c0-20.4-4.1-16.6-6.2-22.5
			c-3.3-8.8-2.2-7.2-2.7-17C936.7,576.4,924.9,574.7,918,581.6z"/>
		<path class="st13" d="M899.6,487.5c1.1,7.9,20,102.2,20,102.2c5.8-0.5,6.5,4,17.6-1.8c-0.6-4.6-3-98.9-4-104.5
			c-1.1-5.7-3-16-16.2-13.9C903.8,471.7,898.5,479.5,899.6,487.5z"/>
		<path class="st14" d="M934.5,478.2c0,0-15.4-53.5-24.6-82.4c-3.6-11.4-9.6-38.8-27-40.3c-19.1-1.7-29.8,10.4-26.5,23.2
			c8.3,32.1,45.1,112.6,45.1,112.6"/>
		<path class="st18" d="M793,950.6c1,0.1,2,0.9,1.9,2.8c-0.3,8.7,6.1,3.7,4.2,24.1h-75.7c0,0-0.1-14.4,15.8-16.6
			c23.9-3.3,34.2-11,37.1-11l-0.1,2.9c5.5,2.5,16.6,0,16.6,0L793,950.6z"/>
		<rect x="723.3" y="977.5" class="st19" width="75.7" height="7.1"/>
		<g>
			<g>
				<path class="st20" d="M765.7,962.1c-0.3,0-0.6-0.2-0.7-0.6c-0.4-1.9-0.8-6.7-0.1-8.9c-2.6-1.7-4-7.2-3.3-10
					c0.3-1.4,1.2-2.1,2.3-1.9c0.7,0.1,1.3,0.5,1.8,1.2c1.5,2.2,1.4,6.9,1.1,9.4c2.7-0.5,8.7-0.6,11,1.2c0.9,0.7,1.2,1.6,1,2.6
					c-0.2,1.1-0.9,1.8-2,2c-2.9,0.7-8.3-1.9-10.7-3.6c-0.3,1.7-0.3,5.4,0.2,7.7C766.4,961.6,766.1,962,765.7,962.1
					C765.8,962.1,765.8,962.1,765.7,962.1z M767.5,952.7c2.2,1.5,6.9,3.6,9,3.1c0.5-0.1,0.8-0.4,0.9-0.9c0.1-0.5,0-0.8-0.5-1.2
					C775.2,952.3,770,952.4,767.5,952.7z M763.6,942.2c-0.2,0-0.4,0.1-0.6,0.8c-0.5,2.2,0.5,6.6,2.3,8.2c0.3-2.2,0.3-6.6-0.8-8.4
					C764.3,942.4,764,942.2,763.6,942.2C763.7,942.2,763.6,942.2,763.6,942.2z"/>
				<path class="st20" d="M757.1,955.4c-0.8,0-1.6-0.1-2.2-0.2c-0.4-0.1-0.6-0.5-0.5-0.9s0.5-0.6,0.9-0.5c2.9,0.8,8.4-0.7,10.2-2
					c0.3-0.2,0.8-0.2,1,0.2c0.2,0.3,0.2,0.8-0.2,1C764.6,954.1,760.4,955.4,757.1,955.4z"/>
			</g>
			<path class="st20" d="M742.8,964.8c-0.1,0-0.1,0-0.2,0c-0.4-0.1-0.6-0.5-0.6-0.9c0.2-1,0-2.6-0.7-3c-0.3-0.2-0.4-0.7-0.1-1
				c0.2-0.3,0.7-0.4,1-0.1c1.3,1,1.5,3.3,1.2,4.5C743.4,964.5,743.1,964.8,742.8,964.8z"/>
			<path class="st20" d="M749.6,964.8L749.6,964.8c-0.4,0-0.7-0.4-0.7-0.8c0.1-1.2-0.5-3.8-1.8-4.2c-0.4-0.1-0.6-0.5-0.5-0.9
				s0.5-0.6,0.9-0.5c2.3,0.7,2.9,4.2,2.8,5.6C750.4,964.5,750,964.8,749.6,964.8z"/>
			<path class="st20" d="M756.7,963.6c-0.4,0-0.7-0.3-0.7-0.6c-0.2-1.4-2.2-4.3-3.8-4.6c-0.4-0.1-0.6-0.5-0.6-0.9
				c0.1-0.4,0.5-0.6,0.9-0.6c2.2,0.5,4.6,4,4.9,5.8c0.1,0.4-0.2,0.8-0.6,0.8C756.8,963.6,756.8,963.6,756.7,963.6z"/>
			<path class="st20" d="M762.6,962.3c-0.4,0-0.7-0.3-0.7-0.6c-0.2-1.3-2.9-4.9-4.5-5.2c-0.4-0.1-0.6-0.5-0.6-0.9
				c0.1-0.4,0.5-0.6,0.9-0.6c2.3,0.5,5.3,4.6,5.6,6.4c0.1,0.4-0.2,0.8-0.6,0.8C762.7,962.3,762.6,962.3,762.6,962.3z"/>
		</g>
		<path class="st13" d="M821.1,758.5l134.6,147l0,0l2.3,3.3c0,0,5.7,0.1,15-11l-2.1-3.6l-104.1-164L821.1,758.5z"/>
		<path class="st18" d="M967.9,892.8c0.9-0.5,2.1-0.4,3.2,1.2c4.9,7.2,7.1-0.6,17.6,16.9l-61,44.8c0,0-8.6-11.5,2.9-22.7
			c17.3-16.8,21.1-29.1,23.4-30.8l1.7,2.4c5.9-1.2,13.4-9.8,13.4-9.8L967.9,892.8z"/>
		
			<rect x="922.4" y="932.7" transform="matrix(0.8061 -0.5918 0.5918 0.8061 -367.8418 749.8179)" class="st19" width="75.7" height="7.1"/>
		<g>
			<g>
				<path class="st20" d="M952.7,918.2c-0.3,0.2-0.7,0.2-0.9,0c-1.4-1.3-4.6-4.9-5.3-7.1c-3.1,0.2-7.5-3.4-8.6-6.1
					c-0.5-1.3-0.3-2.4,0.7-2.9c0.7-0.3,1.4-0.4,2.2-0.1c2.5,0.9,5.2,4.8,6.4,6.9c1.9-2,6.6-5.7,9.6-5.6c1.1,0,1.9,0.6,2.3,1.5
					c0.5,1,0.3,1.9-0.4,2.8c-1.9,2.3-7.8,3.4-10.7,3.4c0.7,1.5,3,4.5,4.7,6c0.3,0.3,0.3,0.7,0.1,1
					C952.8,918.1,952.7,918.1,952.7,918.2z M948.6,909.5c2.6-0.1,7.7-1.2,9.1-2.9c0.4-0.4,0.4-0.8,0.2-1.3c-0.2-0.4-0.5-0.6-1.1-0.7
					C954.5,904.7,950.4,907.8,948.6,909.5z M939.2,903.3c-0.1,0.1-0.3,0.3,0,1c0.9,2,4.4,5,6.7,5.2c-1.1-2-3.6-5.5-5.6-6.3
					C939.9,903.2,939.6,903.2,939.2,903.3C939.3,903.3,939.2,903.3,939.2,903.3z"/>
				<path class="st20" d="M941.8,917.9c-0.7,0.5-1.3,0.9-1.9,1.1c-0.4,0.1-0.8,0-0.9-0.4c-0.1-0.4,0-0.8,0.4-0.9
					c2.8-1.1,6.3-5.6,7-7.7c0.1-0.4,0.5-0.6,0.9-0.5s0.6,0.5,0.5,0.9C947.1,912.4,944.5,915.9,941.8,917.9z"/>
			</g>
			<path class="st20" d="M935.8,933.9L935.8,933.9c-0.5,0.3-0.9,0.1-1.1-0.3c-0.4-0.9-1.5-2-2.3-2c-0.4,0-0.7-0.3-0.7-0.7
				s0.3-0.7,0.7-0.7c1.6,0,3.1,1.8,3.6,2.9C936.2,933.3,936,933.7,935.8,933.9z"/>
			<path class="st20" d="M941.3,929.8L941.3,929.8c-0.4,0.2-0.8,0.2-1-0.2c-0.7-1-2.7-2.7-3.9-2.3c-0.4,0.1-0.8-0.1-0.9-0.5
				c-0.1-0.4,0.1-0.8,0.5-0.9c2.3-0.8,4.8,1.6,5.6,2.8C941.7,929.2,941.6,929.6,941.3,929.8z"/>
			<path class="st20" d="M946.4,924.7c-0.3,0.2-0.7,0.2-0.9-0.1c-1-1-4.3-2.1-5.8-1.5c-0.4,0.2-0.8,0-1-0.4s0-0.8,0.4-1
				c2.1-0.9,6.1,0.5,7.4,1.8C946.7,923.9,946.7,924.4,946.4,924.7L946.4,924.7z"/>
			<path class="st20" d="M950.3,920.2c-0.3,0.2-0.7,0.2-0.9-0.1c-0.9-0.9-5.3-2.2-6.7-1.6c-0.4,0.2-0.8,0-1-0.4s0-0.8,0.4-1
				c2.1-0.9,7,0.5,8.3,1.9C950.7,919.4,950.7,919.8,950.3,920.2C950.4,920.1,950.3,920.2,950.3,920.2z"/>
		</g>
		<path class="st21" d="M778.1,209c0,0-20.8,24.3,6,53.5c17.2,18.8,29.3,36,25,58.2c-4.4,22.2,19.4,36.7-2.2,55
			c0,0,15.9-3.2,21.4-17.3c0,0,10,8.3,6.5,23.5c0,0,14.1-16.1,13.2-30.1c0,0,11.7,37.7,76.7,44c0,0-37.9-37.4-32.9-78.9
			c5.4-45.3-13.7-87.3-43.7-107.9C817.9,188.3,796,193.8,778.1,209z"/>
	</g>
	
		<linearGradient id="SVGID_8_" gradientUnits="userSpaceOnUse" x1="5.6342" y1="956.5256" x2="986.4439" y2="956.5256" gradientTransform="matrix(1 0 0 -1 0 999.2756)">
		<stop  offset="0" style="stop-color:#00B1BC"/>
		<stop  offset="1" style="stop-color:#6E68C8"/>
	</linearGradient>
	<path class="st22" d="M313.7,39.1c-2.5-4-13.3-5.6-23.9-3.6c-10.7,2-17.3,6.9-14.7,10.9S288.4,52,299,50
		C309.7,47.9,316.3,43.1,313.7,39.1z"/>
	
		<linearGradient id="SVGID_9_" gradientUnits="userSpaceOnUse" x1="5.6342" y1="962.1419" x2="986.4439" y2="962.1419" gradientTransform="matrix(1 0 0 -1 0 999.2756)">
		<stop  offset="0" style="stop-color:#00B1BC"/>
		<stop  offset="1" style="stop-color:#6E68C8"/>
	</linearGradient>
	<path class="st23" d="M420.6,37.5c0,0,13.7,17.9-30.7,12.3s-68.1-14.1-48.3-18.5S392.7,13,420.6,37.5z"/>
	
		<linearGradient id="SVGID_10_" gradientUnits="userSpaceOnUse" x1="5.6342" y1="239.4256" x2="986.4439" y2="239.4256" gradientTransform="matrix(1 0 0 -1 0 999.2756)">
		<stop  offset="0" style="stop-color:#00B1BC"/>
		<stop  offset="1" style="stop-color:#6E68C8"/>
	</linearGradient>
	<path class="st24" d="M546.9,758.2c-1.2,4.9-8,9.5-15.3,10.4c-7.2,0.9-12.1-2.3-10.9-7.1c1.2-4.9,8-9.5,15.3-10.4
		C543.2,750.2,548.1,753.4,546.9,758.2z"/>
	
		<linearGradient id="SVGID_11_" gradientUnits="userSpaceOnUse" x1="5.6342" y1="218.6089" x2="986.4439" y2="218.6089" gradientTransform="matrix(1 0 0 -1 0 999.2756)">
		<stop  offset="0" style="stop-color:#00B1BC"/>
		<stop  offset="1" style="stop-color:#6E68C8"/>
	</linearGradient>
	<path class="st25" d="M499.3,765.8c6.3,3.1,3.8,11.8-4.4,16.4c-14,7.9-36.7,17.6-56.5,12.6c-31.3-8,7.3-32.9,34.5-28.4
		C492.5,769.6,494,763.2,499.3,765.8z"/>
	<g class="st26">
		
			<linearGradient id="SVGID_12_" gradientUnits="userSpaceOnUse" x1="-5180.8857" y1="-335.3817" x2="-4269.5957" y2="-335.3817" gradientTransform="matrix(0.3238 3.110196e-02 1.135112e-02 -0.1182 1717.0865 1025.9677)">
			<stop  offset="0" style="stop-color:#00B1BC"/>
			<stop  offset="1" style="stop-color:#6E68C8"/>
		</linearGradient>
		<path class="st27" d="M54.4,937.5c-41.1-16.4-12.6-45.5,32.3-60.1c47-15.4,137,7.5,172.4,22.3c43.4,18.1,93.3,45,58.9,57.1
			C279.1,970.5,113.7,961.2,54.4,937.5z"/>
	</g>
	<g>
		<path class="st28" d="M325.9,232.9c0,0,4.2-9.1,2.6-13.7c-1.5-4.6-3.1-8.5,1.4-18.5c0,0,1.8-5.8,6-5.4c4.1,0.5,1.8,5.1,0,10.1
			s5.3,2,6.9-3.9c1.8-5.9-10.2,6.7-11.8,2.7c-2.4-6.1,5.7-14.9,8.3-17c3-2.5,14.8-4.6,16.2,5.3c1.3,10-0.8,20.7-6.3,26
			c-6.6,6.3-8.6,15.2-8.1,16.6C341.8,236.4,330.6,238.9,325.9,232.9z"/>
		<g>
			<g>
				<g>
					<path class="st1" d="M604.3,29.8c-226.9,191-453.2,223.9-534.4,229.4l-4.4,25.2c79.6-4.6,317.4-35.6,554.8-235.5L604.3,29.8z"
						/>
					
						<linearGradient id="SVGID_13_" gradientUnits="userSpaceOnUse" x1="63.7" y1="842.4756" x2="622.4" y2="842.4756" gradientTransform="matrix(1 0 0 -1 0 999.2756)">
						<stop  offset="0" style="stop-color:#00B1BC"/>
						<stop  offset="1" style="stop-color:#6E68C8"/>
					</linearGradient>
					<path class="st29" d="M63.7,285.9l4.9-28.1l1.2-0.1c85.5-5.8,308.6-39.7,533.5-229l1.1-1l18,21.3l-1.1,1
						C519,136,405.6,200.4,284.1,241.2c-99.8,33.5-179.8,42.3-218.6,44.6L63.7,285.9z M71.1,260.6l-3.9,22.2
						c39.3-2.4,118.1-11.4,216-44.3c120.6-40.6,233.3-104.4,335-189.8l-14.1-16.8C379.9,220.1,157.6,254.5,71.1,260.6z"/>
				</g>
			</g>
			<g>
				<polygon class="st1" points="560.4,7.3 651.9,4.1 624.6,92.6 				"/>
				
					<linearGradient id="SVGID_14_" gradientUnits="userSpaceOnUse" x1="557.6" y1="950.1256" x2="654.0001" y2="950.1256" gradientTransform="matrix(1 0 0 -1 0 999.2756)">
					<stop  offset="0" style="stop-color:#00B1BC"/>
					<stop  offset="1" style="stop-color:#6E68C8"/>
				</linearGradient>
				<path class="st30" d="M625.2,95.8l-67.6-90L654,2.5L625.2,95.8z M563.3,8.6L624,89.4l25.8-83.7L563.3,8.6z"/>
			</g>
		</g>
		<path class="st31" d="M303.6,319.4c1.8-7.2,18.7-97.1,18.7-97.1c4-0.5,17.8,1.3,26.3,7.8c-1,4.3-16.4,91.2-17.9,96.4
			s-4.2,14.7-14.9,11.4C305.1,334.6,301.6,326.6,303.6,319.4z"/>
		<path class="st31" d="M326.9,335.1c0,0-33.8,39.9-53.5,60.3c-7.7,8-27.3,32.7-38.6,24.2c-12.6-9.4-17.3-28.5-9.1-37.9
			c20.5-23.3,84.4-70,84.4-70"/>
		<path class="st28" d="M264.2,248.2c0,0,6.5-7.7,11.3-8.2c4.8-0.6,9-0.8,16.1-9.1c0,0,4.5-4.1,2.4-7.7c-2.2-3.5-5.3,0.5-9.1,4.3
			c-3.8,3.8-4-4,0.6-8c4.6-4.1,10.4-8,14.8-8.2c6.5-0.4,9-4.4,8.7-7.7c-0.3-1.8-11.2-2.4-20.7,0.6c-9.6,3-18.4,9.5-20.9,16.7
			c-3,8.6-10.2,14.2-11.6,14.3C254.3,235.4,256.7,246.6,264.2,248.2z"/>
		<path class="st32" d="M188.6,308.3c5.8-4.7,80-58.1,80-58.1c-1.3-3.8-8.8-15.6-18.2-20.5c-3.5,2.7-75.7,53.5-79.7,57.1
			c-4.1,3.6-11.5,10.1-4,18.3C174.2,313.3,182.9,313.1,188.6,308.3z"/>
		<path class="st33" d="M170.3,298c0,0-21.8,47.5-31.9,74c-3.9,10.4-18.1,38.6-5.5,45.3c13.9,7.4,25.3,4.2,30.4-7.1
			c12.4-28.4,35.4-106.8,35.4-106.8"/>
		<path class="st34" d="M34.5,830.3c0,0,17.4-17.4,21-20.6c3.5-3.1,4.1-1.9,4.1-1.9l-1.1,1c0,0,1.8,5.9,4.9,9.9
			c4.7,6,8.8,5.1,8.8,5.1c2.1,2.2-2.9,4-11.2,8.8c-10.2,5.9-16.3,10.3-16.3,10.3S36.7,842.3,34.5,830.3z"/>
		<g>
			<g>
				<path class="st1" d="M42.5,857.9c-0.2,0-0.5-0.1-0.6-0.4c-0.2-0.3,0-0.7,0.3-0.9c2.2-1.1,5.3-3.4,6.4-4.7
					c-2.8-0.6-8.2-3.3-9.4-5.9c-0.5-1.1-0.4-2.1,0.3-2.9c0.7-0.8,1.6-1,2.7-0.8c2.9,0.8,6.4,5.5,7.6,7.9c1.7-1.7,5.4-4.9,8.1-5.1
					c0.8-0.1,1.5,0.2,2,0.7c0.4,0.4,1.1,1.4-0.3,3.1c-1.9,2.2-6.9,4.5-9.7,3.4c-1.2,1.9-5.3,4.6-7.1,5.5
					C42.7,857.9,42.6,857.9,42.5,857.9z M50.7,851.3c2.2,0.6,6.4-1.3,8-3.1c0.4-0.4,0.7-1,0.4-1.3c-0.2-0.2-0.6-0.3-1-0.3
					C55.8,846.7,52.2,849.7,50.7,851.3z M41.4,843.6c-0.4,0-0.7,0.1-0.9,0.4c-0.4,0.4-0.4,0.9-0.2,1.5c1.1,2.2,5.9,4.6,8.3,5.2
					c-1.1-2.1-4.4-6.4-6.7-7C41.7,843.6,41.5,843.6,41.4,843.6z"/>
				<path class="st1" d="M54.4,861.9c-0.1,0-0.3,0-0.4-0.1c-2.6-2-5-7.6-5.3-10.2c0-0.4,0.2-0.7,0.6-0.7c0.4-0.1,0.7,0.2,0.7,0.6
					c0.2,2.3,2.5,7.6,4.8,9.3c0.3,0.2,0.3,0.6,0.1,0.9C54.8,861.8,54.6,861.9,54.4,861.9z"/>
			</g>
			<path class="st1" d="M56.4,876.2c-0.1,0-0.3,0-0.4-0.1c-0.3-0.2-0.3-0.7-0.1-0.9c0.1-0.2,0.7-0.7,2.1-0.4
				c0.3,0.1,0.6,0.4,0.5,0.8c-0.1,0.3-0.4,0.6-0.8,0.5c-0.7-0.1-0.9,0-0.9,0S56.6,876.2,56.4,876.2z"/>
			<path class="st1" d="M55.4,870.9c-0.1,0-0.2,0-0.3-0.1c-1-0.6-1.1-0.5-1.2-0.4c-0.3,0.2-0.7,0.2-0.9-0.1s-0.2-0.7,0.1-0.9
				c1-0.8,2.1,0,2.7,0.4c0.3,0.2,0.4,0.6,0.2,0.9C55.8,870.8,55.6,870.9,55.4,870.9z"/>
			<path class="st1" d="M53.6,866c-0.1,0-0.3,0-0.4-0.1c-1.5-1.2-2.4-1.2-3.3-0.7c-0.3,0.2-0.7,0-0.9-0.3s0-0.7,0.3-0.9
				c1.6-0.8,3-0.6,4.7,0.9c0.3,0.2,0.3,0.6,0.1,0.9C54,865.9,53.8,866,53.6,866z"/>
		</g>
		<path class="st35" d="M36.2,828.8c-0.8-0.7-1.9-1-3.4,0.3c-6.6,5.6-6.7-2.4-21.6,11.6l46.4,58.9c0,0,11.4-8.8,3.3-22.7
			c-12.1-20.7-12.4-33.4-14.1-35.6l-2.4,1.9c-5.3-2.7-10.2-13-10.2-13L36.2,828.8z"/>
		
			<rect x="28.1" y="835" transform="matrix(0.7855 -0.6189 0.6189 0.7855 -533.1671 206.7974)" class="st10" width="7.2" height="75"/>
		<path class="st36" d="M163.5,361c-2.8,4.3,27.4,21.4,41.1,23.4c20.2,2.7,7.3-19.6,4.9-22.2c-5.4-5.7-9.3-21.1-4.2-26.5
			c13.8-14.8-0.7-26.2-0.7-26.2s-40.5-21.7-36,1.5C172.9,334,172.3,347.5,163.5,361z"/>
		<path class="st34" d="M235.6,920.6c0,0-3-24.4-3.3-29.2c-0.3-4.6,1.3-4.3,1.3-4.3l0.1,1.6c0,0,5.5,2.1,10.6,2.1
			c7.6,0,9.9-3.7,9.9-3.7c2.4,0.1,0.9,4.9,0.1,14.5c-0.9,10.3-2.4,19.2-2.4,19.2S246.4,926.3,235.6,920.6z"/>
		<path class="st35" d="M235.4,918.3c-1,0.1-1.9,0.9-1.8,2.8c0.3,8.7-6,3.7-4.2,24.1h75c0,0,0.1-14.4-15.7-16.6
			c-23.7-3.3-33.9-10.9-36.7-10.9v3c-5.4,2.5-16.5,0-16.5,0L235.4,918.3L235.4,918.3z"/>
		<g>
			<g>
				<path class="st1" d="M260.9,929.6h-0.1c-0.3-0.1-0.6-0.4-0.5-0.8c0.5-2.4,0.6-6.2,0.3-7.9c-2.2,1.8-7.5,4.3-10.4,3.8
					c-1.2-0.2-1.9-0.9-2.2-2.1c-0.2-1.1,0.2-1.9,1.1-2.6c2.4-1.8,8.3-1.6,10.9-1.1c-0.3-2.4-0.5-7.3,1-9.5c0.5-0.7,1.1-1.1,1.8-1.2
					c0.6-0.1,1.9,0.1,2.3,2.2c0.6,2.9-0.8,8.2-3.4,9.7c0.7,2.1,0.3,7-0.1,9C261.5,929.4,261.2,929.6,260.9,929.6z M255.8,919.9
					c-2.3,0-4.8,0.3-6,1.2c-0.5,0.4-0.7,0.8-0.6,1.3c0.1,0.6,0.5,0.9,1.2,1.1c2.5,0.5,7.2-1.8,9.1-3.3
					C258.6,920,257.2,919.9,255.8,919.9z M263,909.5C263,909.5,262.9,909.5,263,909.5c-0.4,0-0.7,0.3-0.9,0.6
					c-1.2,1.8-1.1,6.5-0.8,8.7c1.8-1.3,3-5.7,2.5-8.2C263.6,909.9,263.4,909.5,263,909.5z"/>
				<path class="st1" d="M269.6,922.9c-3.2,0-7.4-1.3-9.2-2.4c-0.3-0.2-0.4-0.6-0.2-0.9c0.2-0.3,0.6-0.4,0.9-0.2
					c2,1.3,7.5,2.7,10.3,2c0.3-0.1,0.7,0.1,0.8,0.5c0.1,0.3-0.1,0.7-0.5,0.8C271.1,922.8,270.4,922.9,269.6,922.9z"/>
			</g>
			<path class="st1" d="M283.7,932.4c-0.3,0-0.5-0.2-0.6-0.5c-0.3-1.4,0-3.5,1.1-4.4c0.3-0.2,0.7-0.2,0.9,0.1
				c0.2,0.3,0.2,0.7-0.1,0.9c-0.7,0.6-0.9,2.1-0.7,3.1C284.4,931.9,284.2,932.3,283.7,932.4C283.8,932.4,283.8,932.4,283.7,932.4z"
				/>
			<path class="st1" d="M277,932.4c-0.4,0-0.6-0.3-0.6-0.6c0-1.5,0.7-4.8,2.7-5.6c0.3-0.1,0.7,0.1,0.8,0.4c0.1,0.3-0.1,0.7-0.4,0.8
				c-1.2,0.4-1.8,3-1.8,4.3C277.6,932.2,277.3,932.4,277,932.4z"/>
			<path class="st1" d="M269.9,931.1h-0.1c-0.3-0.1-0.6-0.4-0.5-0.8c0.3-1.7,2.6-5.2,4.8-5.7c0.3-0.1,0.7,0.1,0.8,0.5
				c0.1,0.3-0.1,0.7-0.5,0.8c-1.6,0.4-3.6,3.4-3.9,4.8C270.5,930.9,270.2,931.1,269.9,931.1z"/>
			<path class="st1" d="M264.1,929.9H264c-0.3-0.1-0.6-0.4-0.5-0.8c0.3-1.6,3.3-5.8,5.4-6.3c0.3-0.1,0.7,0.1,0.8,0.5
				c0.1,0.3-0.1,0.7-0.5,0.8c-1.5,0.4-4.2,4-4.5,5.4C264.6,929.7,264.4,929.9,264.1,929.9z"/>
		</g>
		<path class="st37" d="M192.3,221.8c45.1,0,43.9,24,43.9,48.4c0,48.4-20.7,67-34,67c-28.5,0-48.4-29.8-50.1-45.6
			C149.7,270.6,147.1,221.8,192.3,221.8z"/>
		<g>
			<path class="st37" d="M153.6,278.5c-1.3-2.7-3.4-4.5-6.3-4.5c-4.6,0-7.9,5.1-6.1,10.2c1.8,5.2,5.2,10.6,9.1,10
				c1.2-0.1,2.2-0.9,3.1-2.2"/>
			<path class="st38" d="M147.9,287.1c0.3,0.4,1,0.7,1.6,0.4c0.7-0.4,0.1-0.7,0.1-1.3s0.4-0.9,0.6-1.5c0.3-0.6,0.1-1,0-1.6
				c-0.6-2.2-2.1-5.2-4.9-5.4v-0.1c1.2-0.7,3-0.3,3.9,0.6s1,2.2,1.8,3.4c0.6,0.9,2.1,2.5,0.9,3.4c-0.4,0.3-1.2,0.3-1.3,1
				c-0.1,0.9,0.7,0.9,1,1.5c0.1,0.4,0,0.9-0.4,1c-0.3,0.1-0.6-0.3-0.9-0.1c-0.1,0-0.3,0.1-0.6,0.3c-0.4,0.3-0.6,0.7-1.3,0.3
				C148,288.3,148,287.5,147.9,287.1"/>
		</g>
		<path class="st14" d="M260.8,910.4c0,0-5.5,2.4-16.8,2.4s-18.5-7.9-18.5-7.9l19.7-174l-75.6-127.8l0.1-54.3
			c-0.3-1.3,0.4-2.2,1.8-2.5l63.7-16.6c0.9-0.1,1.8-0.1,2.4,0.3c0.7,0.4,1.2,1,1.2,1.8l5.7,55.8l51.3,139.1L260.8,910.4z"/>
		<path class="st14" d="M130.8,508l107.9,26.4l-3.2,17.9c-0.1,0.4-0.3,1-0.7,1.4L193.9,593l-8.6,160.7L60.7,842.1
			c0.6,0.5-9.7-2.3-13.9-6.2c-6.3-5.9-7.6-15.1-7.6-15.1l99.8-86.5c0.1-1.2-19.5-108.5-25.9-140.9c-4.8-24.3,8-57.2,11.7-68.9
			C127,517.2,128.1,517.8,130.8,508z"/>
		<g>
			<path class="st31" d="M123.1,367.5c11.7-5.5,29.7-10.9,39.6-15.3c0,0,21.3,14.2,39.1,16.5c17.8,2.1,4.8-6.4,4.8-6.4
				s26.6,10.9,36.7,2.2c8.7-7.5,44.7,21,22.3,39.1c-13.7,11-15.8,91.9-15.8,108.8c0,16.9-11.1,21.3-58.9,21.3s-71.5-4-74.4-21.3
				C112.8,488.5,114.1,371.8,123.1,367.5z"/>
		</g>
		<path class="st39" d="M206.5,368.5c0,0-30.3-5.4-38.4-16.2c-8.1-10.9-12.4,5.2-12.4,5.2s31,16.2,54.7,18
			C234.1,377.5,206.5,368.5,206.5,368.5z"/>
		<path class="st40" d="M85.9,429c-6.1-11.7-9.6-19.7,5.1-44.4c10-16.8,12.7-34.7,14-72.2c0.7-19.9,9.4-67.5,27.1-89.2
			c13.6-16.8,34.5-32.8,60.6-22.8c0,0,13.6-2.6,26.1,7.9c7.7,6.5,17.5,17.2,16.2,39.1c-1.3,21.9-21.3,65.6-17.7,89.9
			c8.3,57.1,5.1,46.9-10.7,66.9c-7.2,9.1-14.8,15.6-24.9,9.7c-6.8-4-18.9,30.4-23.8,21.6c-8-14.4-37.9,12.8-48.3,11
			C97.8,444.6,91.4,439.6,85.9,429z"/>
		<path class="st40" d="M132.4,442.7"/>
		<path class="st40" d="M221.3,435.5"/>
		
			<ellipse transform="matrix(0.9643 -0.2648 0.2648 0.9643 -37.5637 97.756)" class="st28" cx="343.8" cy="188.2" rx="10.1" ry="4.8"/>
	</g>
</g>
</svg>
