<?xml version="1.0" encoding="utf-8"?>
<!-- Generator: Adobe Illustrator 24.0.0, SVG Export Plug-In . SVG Version: 6.00 Build 0)  -->
<svg version="1.1" id="Слой_1" xmlns="http://www.w3.org/2000/svg" xmlns:xlink="http://www.w3.org/1999/xlink" x="0px" y="0px"
	 viewBox="0 0 1000 1000" style="enable-background:new 0 0 1000 1000;" xml:space="preserve">
<style type="text/css">
	.st0{opacity:0.2;fill:url(#SVGID_1_);enable-background:new    ;}
	.st1{opacity:0.28;fill:url(#SVGID_2_);enable-background:new    ;}
	.st2{opacity:0.28;fill:url(#SVGID_3_);enable-background:new    ;}
	.st3{opacity:0.1;fill:url(#SVGID_4_);enable-background:new    ;}
	.st4{opacity:0.28;fill:url(#SVGID_5_);enable-background:new    ;}
	.st5{opacity:0.28;fill:url(#SVGID_6_);enable-background:new    ;}
	.st6{enable-background:new    ;}
	.st7{fill:url(#SVGID_7_);}
	.st8{fill:url(#SVGID_8_);}
	.st9{fill:#FFFFFF;}
	.st10{fill:url(#SVGID_9_);}
	.st11{fill:#233A57;}
	.st12{fill:#F6B895;}
	.st13{fill:#CCCCCC;}
	.st14{fill:#F6B88C;}
	.st15{fill:#00B2BD;}
	.st16{fill:#593833;}
	.st17{fill:#E39C74;}
	.st18{fill:#E5A87F;}
	.st19{fill:#F1EBE1;}
	.st20{fill:#BC7032;}
	.st21{fill:#6C3506;}
	.st22{fill:#4399A9;}
	.st23{opacity:0.4;}
	.st24{fill:#1B3B59;}
	.st25{fill:#CACACA;}
	.st26{opacity:0.15;}
	.st27{opacity:0.42;fill:#FFFFFF;}
	.st28{opacity:0.2;fill:#FFFFFF;}
</style>
<g>
	<linearGradient id="SVGID_1_" gradientUnits="userSpaceOnUse" x1="-12.9679" y1="576.6135" x2="1000.6725" y2="576.6135">
		<stop  offset="0" style="stop-color:#00B1BC"/>
		<stop  offset="1" style="stop-color:#6E68C8"/>
	</linearGradient>
	<path class="st0" d="M72,677.5C17,565.2-102.7,314.1,232.1,201.7s623.4,113.2,681.2,245.6c57.8,132.5,11.5,382.4-200.4,502.9
		S141.9,820.1,72,677.5z"/>
	<linearGradient id="SVGID_2_" gradientUnits="userSpaceOnUse" x1="-12.9679" y1="843.1354" x2="1000.6725" y2="843.1354">
		<stop  offset="0" style="stop-color:#00B1BC"/>
		<stop  offset="1" style="stop-color:#6E68C8"/>
	</linearGradient>
	<path class="st1" d="M187.8,855.7c-5.1,1.7-11.7-2.5-14.7-9.4s-1.4-13.9,3.6-15.7c5.1-1.7,11.7,2.5,14.7,9.4
		S192.8,853.9,187.8,855.7z"/>
	<linearGradient id="SVGID_3_" gradientUnits="userSpaceOnUse" x1="-12.9679" y1="892.4944" x2="1000.6725" y2="892.4944">
		<stop  offset="0" style="stop-color:#00B1BC"/>
		<stop  offset="1" style="stop-color:#6E68C8"/>
	</linearGradient>
	<path class="st2" d="M264.9,919.1c0,0,31.3-5.7-9.3-29.3S186.8,858,197,874.1S215,921.1,264.9,919.1z"/>
	<linearGradient id="SVGID_4_" gradientUnits="userSpaceOnUse" x1="-12.9679" y1="757.0895" x2="1000.6725" y2="757.0895">
		<stop  offset="0" style="stop-color:#00B1BC"/>
		<stop  offset="1" style="stop-color:#6E68C8"/>
	</linearGradient>
	<path class="st3" d="M82.5,759.1c-8.2-8-25.7-26,54.5-29.7s136.9,14.5,144.9,23.9c8,9.4-12,25.4-64.6,31S92.9,769.3,82.5,759.1z"/>
	<linearGradient id="SVGID_5_" gradientUnits="userSpaceOnUse" x1="-12.9679" y1="419.9771" x2="1000.6725" y2="419.9771">
		<stop  offset="0" style="stop-color:#00B1BC"/>
		<stop  offset="1" style="stop-color:#6E68C8"/>
	</linearGradient>
	<path class="st4" d="M938.8,406.7c6.2,1,12.2,7.8,13.5,15.1c1.2,7.3-2.8,12.4-9,11.4c-6.2-1-12.2-7.8-13.5-15.1
		C928.6,410.8,932.6,405.7,938.8,406.7z"/>
	<linearGradient id="SVGID_6_" gradientUnits="userSpaceOnUse" x1="-12.9679" y1="500.8917" x2="1000.6725" y2="500.8917">
		<stop  offset="0" style="stop-color:#00B1BC"/>
		<stop  offset="1" style="stop-color:#6E68C8"/>
	</linearGradient>
	<path class="st5" d="M949.7,471.5c2.9-7.9,13.9-9.4,20.7-3.1c11.7,10.7,26.9,29.4,23.6,52.1c-5.2,35.9-41.4,7.9-39.9-22.1
		C955.3,476.7,947.3,478.2,949.7,471.5z"/>
	<g class="st6">
		
			<linearGradient id="SVGID_7_" gradientUnits="userSpaceOnUse" x1="129.0596" y1="563.6191" x2="391.602" y2="826.1615" gradientTransform="matrix(0.9896 0.1436 -0.1436 0.9896 250.427 -521.4228)">
			<stop  offset="0" style="stop-color:#00B1BC"/>
			<stop  offset="1" style="stop-color:#6E68C8"/>
		</linearGradient>
		<path class="st7" d="M588.5,250.1c1.7-6.4,3-13,4-19.7c1-6.7,1.6-13.4,1.8-20.1c-23.2-10-49.6-19.9-51.3-29.8
			c-1.8-10.3,19.7-28.5,38.2-45.7c-4.9-12.3-11.1-23.9-18.4-34.8c-24.6,5.5-51.7,12.9-59.1,5.7c-7.3-7.1-0.5-34.5,4.4-59.2
			c-11-7-22.7-13-35.2-17.5C456.1,48,438.4,70,427.9,68.5C417.4,67,406.7,40.9,396.1,18c-13.3,0.8-26.2,3.2-38.7,6.7
			c-2.3,25.1-3.6,53.3-12.6,58c-9.1,4.8-33-10-55-22.3c-10.1,8.3-19.3,17.7-27.6,28.2c12.9,21.6,28.2,45.2,23.6,54.6
			c-4.4,9-32.6,10.9-57.7,14c-1.6,6.4-3,13-4,19.7c-1,6.7-1.5,13.4-1.8,20c23.2,10,49.7,19.9,51.4,29.8
			c1.8,10.3-19.7,28.5-38.2,45.6c4.9,12.3,11.1,23.9,18.4,34.8c24.6-5.5,51.7-12.9,59.1-5.8c7.3,7.2,0.5,34.5-4.4,59.3
			c11,6.9,22.7,12.9,35.2,17.5c16.6-18.9,34.4-41,44.9-39.4c10.5,1.5,21.3,27.7,31.8,50.6c13.3-0.8,26.3-3.2,38.7-6.8
			c2.3-25.1,3.6-53.3,12.6-58.1c9.1-4.8,33,10.1,55,22.3c10.1-8.4,19.4-17.8,27.6-28.2c-12.8-21.7-28.3-45.2-23.6-54.6
			C535.2,255,563.4,253.1,588.5,250.1z M395.2,294.4c-50.1-7.3-84.9-53.8-77.6-103.9c7.3-50.1,53.8-84.9,103.9-77.6
			c50.1,7.3,84.8,53.8,77.6,103.9C491.8,266.9,445.3,301.6,395.2,294.4z"/>
	</g>
	<g class="st6">
		
			<linearGradient id="SVGID_8_" gradientUnits="userSpaceOnUse" x1="542.7224" y1="643.3445" x2="645.7302" y2="746.3524" gradientTransform="matrix(0.9896 0.1436 -0.1436 0.9896 250.427 -521.4228)">
			<stop  offset="0" style="stop-color:#00B1BC"/>
			<stop  offset="1" style="stop-color:#6E68C8"/>
		</linearGradient>
		<path class="st8" d="M809.4,269.8c0.6-2.5,1.2-5.1,1.6-7.7c0.4-2.6,0.6-5.3,0.7-7.9c-9.1-3.9-19.5-7.8-20.1-11.7
			c-0.7-4,7.7-11.2,15-17.9c-1.9-4.8-4.4-9.4-7.2-13.6c-9.7,2.1-20.3,5.1-23.2,2.2c-2.9-2.8-0.2-13.5,1.7-23.2
			c-4.3-2.7-8.9-5.1-13.8-6.9c-6.5,7.4-13.5,16.1-17.6,15.5c-4.1-0.6-8.3-10.9-12.5-19.8c-5.2,0.3-10.3,1.2-15.2,2.6
			c-0.9,9.9-1.4,20.9-5,22.8c-3.6,1.9-13-3.9-21.6-8.7c-4,3.3-7.6,6.9-10.8,11c5,8.5,11.1,17.7,9.3,21.4c-1.7,3.5-12.8,4.3-22.6,5.5
			c-0.6,2.5-1.2,5.1-1.6,7.7c-0.4,2.6-0.6,5.3-0.7,7.9c9.1,3.9,19.5,7.8,20.2,11.7c0.7,4-7.7,11.2-15,17.9c1.9,4.8,4.4,9.4,7.2,13.7
			c9.6-2.2,20.3-5.1,23.2-2.3c2.9,2.8,0.2,13.5-1.7,23.3c4.3,2.7,8.9,5.1,13.8,6.9c6.5-7.4,13.5-16.1,17.6-15.5
			c4.1,0.6,8.3,10.9,12.5,19.8c5.2-0.3,10.3-1.3,15.2-2.7c0.9-9.9,1.4-20.9,5-22.8c3.6-1.9,13,3.9,21.6,8.8c4-3.3,7.6-7,10.8-11.1
			c-5-8.5-11.1-17.7-9.3-21.4C788.5,271.7,799.6,270.9,809.4,269.8z M733.6,287.1c-19.7-2.9-33.3-21.1-30.5-40.8
			c2.9-19.7,21.1-33.3,40.8-30.4c19.7,2.9,33.3,21.1,30.4,40.8C771.5,276.4,753.3,290,733.6,287.1z"/>
	</g>
	<g class="st6">
		<path class="st9" d="M487.7,536.5c0.3-3,0.5-6.1,0.5-9.3c0-3.1-0.2-6.2-0.5-9.3c-11.2-3-24-5.8-25.4-10.2
			c-1.5-4.6,7.1-14.3,14.4-23.4c-3.1-5.3-6.6-10.2-10.7-14.7c-10.9,4.1-22.8,9.3-26.6,6.5c-3.8-2.8-2.5-15.7-1.9-27.3
			c-5.5-2.5-11.2-4.4-17.2-5.6c-6.4,9.7-13,21-17.9,21c-4.9,0-11.5-11.2-17.9-21c-6,1.3-11.7,3.2-17.2,5.6
			c0.6,11.6,1.9,24.6-1.9,27.3c-3.8,2.8-15.7-2.4-26.6-6.5c-4.1,4.5-7.7,9.4-10.7,14.7c7.3,9,15.9,18.8,14.4,23.3
			c-1.4,4.4-14.2,7.2-25.4,10.2c-0.3,3-0.5,6.1-0.5,9.3c0,3.1,0.2,6.2,0.5,9.3c11.3,3,24,5.8,25.4,10.2c1.5,4.6-7.1,14.3-14.4,23.4
			c3.1,5.3,6.7,10.2,10.7,14.7c10.9-4.1,22.7-9.3,26.6-6.5c3.8,2.8,2.5,15.7,1.9,27.4c5.5,2.4,11.2,4.4,17.2,5.6
			c6.3-9.7,13-21,17.9-21c4.9,0,11.5,11.2,17.9,21c6-1.3,11.8-3.2,17.2-5.6c-0.6-11.6-1.9-24.6,1.9-27.4c3.8-2.8,15.7,2.4,26.6,6.5
			c4.1-4.5,7.7-9.4,10.7-14.7c-7.3-9-15.9-18.8-14.4-23.4C463.7,542.3,476.4,539.6,487.7,536.5z M402.3,569.6
			c-23.4,0-42.3-18.9-42.3-42.3c0-23.4,18.9-42.3,42.3-42.3c23.4,0,42.3,18.9,42.3,42.3C444.6,550.6,425.7,569.6,402.3,569.6z"/>
		<linearGradient id="SVGID_9_" gradientUnits="userSpaceOnUse" x1="314.9945" y1="527.2907" x2="489.6504" y2="527.2907">
			<stop  offset="0" style="stop-color:#00B1BC"/>
			<stop  offset="1" style="stop-color:#6E68C8"/>
		</linearGradient>
		<path class="st10" d="M419.5,612.9L419,612c-0.7-1-1.3-2.1-2-3.1c-4.9-7.7-11.1-17.2-14.6-17.2c-3.6,0-9.7,9.6-14.7,17.3
			c-0.6,1-1.3,2-1.9,3l-0.6,0.9l-1-0.2c-5.8-1.2-11.6-3.1-17.5-5.7l-0.9-0.4l0.1-1c0.1-1.4,0.2-2.8,0.2-4.2
			c0.5-8.9,1.1-19.9-1.5-21.8c-2.7-2-13,2-21.3,5.2c-1.3,0.5-2.6,1-3.9,1.5l-1,0.4l-0.7-0.8c-4.2-4.7-7.9-9.7-10.9-14.9l-0.5-0.9
			l0.6-0.8c0.8-1,1.6-2,2.4-3c5.7-7,12.8-15.7,11.7-19c-1-3.1-11.6-5.8-20.1-8.1c-1.4-0.4-2.9-0.8-4.3-1.1l-1-0.3l-0.1-1
			c-0.4-3.6-0.5-6.6-0.5-9.4c0-2.8,0.2-5.8,0.5-9.4l0.1-1l1-0.3c1.4-0.4,2.9-0.8,4.4-1.2c8.5-2.2,19-5,20-8.1
			c1.1-3.3-6.1-12.1-11.8-19.1c-0.8-0.9-1.5-1.9-2.3-2.8l-0.6-0.8l0.5-0.9c3-5.3,6.7-10.3,10.9-14.9l0.7-0.8l0.9,0.4
			c1.3,0.5,2.6,1,3.9,1.5c8.3,3.2,18.6,7.2,21.3,5.2c2.7-1.9,2.1-13,1.5-21.8c-0.1-1.4-0.2-2.8-0.2-4.2l-0.1-1l0.9-0.4
			c5.7-2.6,11.6-4.5,17.5-5.7l1-0.2l0.6,0.9c0.7,1.1,1.4,2.1,2.1,3.2c4.9,7.6,11,17.1,14.6,17.1c3.5,0,9.6-9.4,14.5-17
			c0.7-1.1,1.4-2.2,2.1-3.3l0.6-0.8l1,0.2c5.8,1.2,11.7,3.1,17.5,5.7l0.9,0.4l-0.1,1c-0.1,1.4-0.2,2.8-0.2,4.2
			c-0.5,8.8-1.1,19.8,1.5,21.8c2.7,2,13-2,21.3-5.2c1.3-0.5,2.6-1,3.9-1.5l0.9-0.4l0.7,0.7c4.2,4.6,7.9,9.6,10.9,14.9l0.5,0.9
			l-0.6,0.8c-0.8,1-1.6,2-2.5,3c-5.7,7-12.8,15.7-11.7,19c1,3.1,11.5,5.8,20,8.1c1.5,0.4,3,0.8,4.4,1.2l1,0.3l0.1,1
			c0.3,3.1,0.5,6.3,0.5,9.4c0,3.1-0.2,6.2-0.5,9.4l-0.1,1l-1,0.3c-1.4,0.4-2.9,0.8-4.3,1.1c-8.5,2.2-19.1,5-20.1,8.1
			c-1.1,3.3,6,12,11.7,18.9c0.8,1,1.7,2,2.5,3l0.6,0.8l-0.5,0.9c-3,5.3-6.7,10.3-10.9,14.9l-0.7,0.8l-0.9-0.4
			c-1.3-0.5-2.6-1-3.9-1.5c-8.3-3.2-18.6-7.2-21.3-5.2c-2.7,2-2,13-1.5,21.8c0.1,1.4,0.2,2.8,0.2,4.2l0.1,1l-0.9,0.4
			c-5.8,2.6-11.7,4.5-17.5,5.7L419.5,612.9z M402.3,588.8c5.2,0,10.7,8.6,17.1,18.5c0.5,0.8,1,1.5,1.4,2.2c5-1.1,10-2.8,15-4.9
			c-0.1-1.1-0.1-2.1-0.2-3.2c-0.7-11.5-1.2-21.5,2.8-24.4c4-2.9,13.4,0.7,24.1,4.9c1,0.4,1.9,0.8,2.9,1.1c3.5-4,6.7-8.3,9.3-12.8
			c-0.6-0.7-1.2-1.5-1.8-2.2c-7.4-9.1-13.8-16.9-12.2-21.7c1.5-4.6,11.1-7.1,22.2-10c1.1-0.3,2.2-0.6,3.3-0.9
			c0.3-2.7,0.4-5.4,0.4-8.1c0-2.7-0.1-5.4-0.4-8.1c-1.1-0.3-2.3-0.6-3.4-0.9c-11-2.9-20.5-5.4-22-10c-1.6-4.8,4.8-12.7,12.2-21.8
			c0.6-0.7,1.2-1.5,1.8-2.2c-2.7-4.5-5.8-8.8-9.3-12.8c-1,0.4-2,0.8-3,1.1c-10.8,4.2-20.1,7.8-24.1,4.8c-4-2.9-3.4-12.8-2.8-24.4
			c0.1-1.1,0.1-2.1,0.2-3.2c-5-2.2-10-3.8-15-4.9c-0.5,0.8-1,1.6-1.5,2.4c-6.4,9.9-11.9,18.4-17,18.4c-5.2,0-10.7-8.5-17.1-18.4
			c-0.5-0.8-1-1.6-1.5-2.3c-5.1,1.1-10.1,2.8-15,4.9c0.1,1.1,0.1,2.1,0.2,3.2c0.7,11.5,1.2,21.5-2.8,24.4c-4,2.9-13.3-0.7-24.1-4.8
			c-1-0.4-2-0.8-2.9-1.1c-3.6,4-6.7,8.3-9.3,12.8c0.5,0.7,1.1,1.3,1.7,2c7.5,9.2,13.9,17.1,12.4,21.9c-1.5,4.6-11,7.1-22.1,10
			c-1.1,0.3-2.3,0.6-3.4,0.9c-0.3,3.1-0.4,5.7-0.4,8.1c0,2.4,0.1,5,0.4,8.1c1.1,0.3,2.2,0.6,3.3,0.9c11.1,2.9,20.7,5.4,22.2,10
			c1.6,4.9-4.8,12.7-12.3,21.8c-0.6,0.7-1.2,1.4-1.8,2.1c2.6,4.5,5.8,8.8,9.3,12.8c1-0.4,2-0.8,3-1.1c10.8-4.2,20-7.8,24.1-4.8
			c4,2.9,3.4,12.9,2.8,24.4c-0.1,1.1-0.1,2.1-0.2,3.2c5,2.2,10.1,3.8,15,4.9c0.5-0.7,0.9-1.4,1.4-2.1
			C391.3,597.8,397.1,588.8,402.3,588.8z M402.3,571.1c-24.1,0-43.8-19.6-43.8-43.8c0-24.1,19.6-43.8,43.8-43.8
			c24.1,0,43.8,19.6,43.8,43.8C446.1,551.4,426.5,571.1,402.3,571.1z M402.3,486.5c-22.5,0-40.8,18.3-40.8,40.8
			c0,22.5,18.3,40.8,40.8,40.8c22.5,0,40.8-18.3,40.8-40.8C443.1,504.8,424.8,486.5,402.3,486.5z"/>
	</g>
	<rect x="176.2" y="968.2" class="st11" width="723.7" height="1.5"/>
	<g>
		<g>
			<g>
				<path class="st12" d="M340.7,299.2c0,0,3.1-6,6-7c3.1-1.1,5.7-1.9,8.9-8.4c0,0,2.3-3.3,0.3-5.3c-2-1.9-3.5,1.2-5.2,4.1
					c-1.9,3.1-1.9-1.3-0.9-5.2c0.9-4-3.6,5-0.4,6.1c4.2,1.3,5.2,2.1,6.2,0.3c6.9-10.9,0.9-13.9-4.9-16.1
					c-6.8-2.5-12.1,8.6-12.5,13.5c-0.5,6-4.4,10.6-5.2,10.9C332.1,292.4,335.7,299.3,340.7,299.2z"/>
				<path class="st11" d="M219.4,738.6c-0.7,0-1.3,0.9-1.5,1.7c-0.8,3.2-3.2,12.7-3.2,20.3l54.4,0.5c0,0,0.1-8.6-11.3-10
					c-19.4-2.3-22.7-12.6-26.3-12.6l-0.1,1.6c-2.9,1.9-9.3,0.8-11.9-0.1L219.4,738.6z"/>
				
					<rect x="239.8" y="735.8" transform="matrix(1.079177e-02 -0.9999 0.9999 1.079177e-02 -523.6622 996.7743)" class="st9" width="4.2" height="54.4"/>
				<g>
					<path class="st13" d="M219.4,740.1l0.1-15.9c0,0,2,1.2,6.8,1.3c4.8,0,6.8-1.2,6.8-1.2l-1.9,15.9
						C231.2,740.4,228.3,742.6,219.4,740.1z"/>
					<path class="st13" d="M226.7,742c-1.9,0-4.3-0.3-7.5-1.2l-0.5-0.2l0.1-17.8l1.1,0.7c0,0,1.9,1.1,6.4,1.2c4.4,0,6.4-1.1,6.4-1.1
						l1.3-0.7l-2,17.4c0,0.3-0.3,0.5-0.4,0.6C231.3,741.1,230,742,226.7,742z M220.1,739.5c6.9,1.9,9.7,0.7,10.4,0.3l1.7-14.4
						c-1.1,0.4-3,0.8-5.9,0.8c-3-0.1-4.9-0.6-6-1L220.1,739.5z"/>
				</g>
				<path class="st11" d="M111.1,727.9c-0.7-0.1-1.6,0.7-1.9,1.2c-1.7,2.9-6.4,11.4-8.5,18.7l52.3,14.5c0,0,2.5-8.2-8.2-12.5
					c-18.1-7.2-18.5-18.1-22-18.9l-0.7,1.5c-3.3,1.1-9.2-1.6-11.4-3.2L111.1,727.9z"/>
				<polygon class="st9" points="151.8,766.4 99.5,751.9 100.7,747.8 153,762.3 				"/>
				<g>
					<path class="st13" d="M110.8,729.2l4.4-15.4c0,0,1.6,1.7,6.2,2.9c4.6,1.3,6.9,0.7,6.9,0.7l-6.1,14.9
						C122.2,732.4,118.8,733.9,110.8,729.2z"/>
					<path class="st13" d="M120.4,733.3c-1.9,0-5.1-0.6-10-3.5l-0.5-0.3l4.9-17.2l0.9,1c0,0,1.6,1.6,5.9,2.7
						c4.3,1.2,6.5,0.7,6.5,0.7l1.5-0.4l-6.6,16.1v0.3l-0.4,0.3C122.5,733,121.9,733.3,120.4,733.3z M111.7,728.9
						c6.2,3.5,9.3,3,10,2.9l5.5-13.4c-1.2,0.1-3.2-0.1-5.9-0.8c-2.9-0.7-4.7-1.7-5.6-2.4L111.7,728.9z"/>
				</g>
				<path class="st14" d="M189.4,345.1c-4.6,3.6,36,8.9,31.2-1.7c0,0-5.8-9.7-1.9-14.5c8.8-10.4-1.3-15.5-1.3-15.5
					s-32.7-11.2-27.5,2.5C195.2,329.6,196.8,339.4,189.4,345.1z"/>
				<g>
					<path class="st15" d="M240,514.4L237.3,616l-0.9,120.2c0,0-11.9,5.2-21.5-0.1l-10.6-116.2l-10.5-101.6l-4.1-40.8L239,478
						L240,514.4z"/>
					<path class="st15" d="M205.2,524.1l-39.4,101.2l-36.5,104.9c0,0-11.2,1.7-20.2-6.4l25.5-103c0,0,14.6-84.6,17.5-103.4
						c4-25.6,13.4-27.9,18.7-44.1l52.8,22.2l5.2,15.8L205.2,524.1z"/>
				</g>
				<path class="st16" d="M221,281.1c-3.3-0.9-18.7-5-20.8-7.4c-0.1,0.4-0.1,0.8-0.3,1.2c-0.7,2.9-2.1,5.3-3.3,8
					c-0.7,1.6-1.1,3.6-1.9,5c-1.2,2.4-2,1.3-2.5-0.4c-0.3,0.7-0.4,1.5-0.4,2.4c0,0.8,0.4,5.7-0.1,8.6c-0.3,1.5-0.7,2.4-1.5,2.1
					c0-0.3,0-0.9-0.1-1.9c-0.1-1.2-0.5-2.8-0.9-4c-0.8-1.7-1.9-2.8-3.6-2.9c-0.1,0-0.1,0-0.3,0h-0.1c-3.1-0.1-5.2,3.1-4.2,6.2
					c1.1,3.2,2.7,6.5,5,7.3c2,0.7-1.3,8.2-1.3,8.2s-14.6-8-14.9-30c0-3.7-0.3-9.2,0.5-12.9c-0.3,0.8-1.6,4-1.6,4
					c-2.8-0.7-0.3-8.6,0.1-10.4c1.1-4.5,3.3-9.2,6.4-12.6s7-5,11.7-4.8c1.2,0.1,3.6,0.3,5.4,0.8c12.3-15.3,37-8.2,35.8-2.7
					c-0.3,1.3-2.4,0.5-3.9,0.1c8.9,4.8,14.6,10.6,18.2,20c0.8,2.3,2,5.8,2.3,8.8c0.7,6.9-2.4,9.8-7,10.2
					C233.3,285,224.7,282.2,221,281.1z"/>
				<path class="st14" d="M208.9,255.9L208.9,255.9c23.9,0.7,30,17.3,28.9,35.7c-2.1,35.6-13.4,41-24.7,43.1
					c-5.4,1.1-23.9-5-26.3-12.9c-2.4-7.7-6.9-23.1-7.3-28.3C177.8,275.3,185,255.2,208.9,255.9z"/>
				<path class="st12" d="M134.8,508c0,0-1.1,6.2,0.9,9.2c1.9,2.9,3.7,5.3,2.5,12.1c0,0-0.1,4-2.9,3.9c-2.8,0-2.1-3.2-1.9-6.5
					c0.3-3.5-3.9-0.9-3.9,3.1s0.1-7,3.3-5.6c4.2,2,5.4,7.4,3.7,8.6c-1.2,0.9-9.4,9.3-13.7,3.6c-4.6-6.2-3.5-13.5-0.9-17.4
					c3.1-4.6,2.7-10.6,2.1-11.4C123.8,506.8,130.7,504.4,134.8,508z"/>
				<path class="st11" d="M298.3,332.9c2.1-3.1,31.7-46.3,31.7-46.3s13.4,8.8,17.5,14.3c-1.2,1.9-30.3,44.2-32,46.3
					c-1.7,2.1-6.1,3.3-11.9-1.3C297.7,341.3,296.1,336,298.3,332.9z"/>
				<path class="st11" d="M315.4,347.2c0,0-28.5,29.1-42.2,42.9c-5.3,5.4-16.7,9.8-19.5,22.6c-1.9,9.2-24.2-22.8-19.6-30
					c10-15.7,66.6-53.4,66.6-53.4"/>
				<path class="st11" d="M153.3,351.1c8.2-3.7,31.6-8.4,38.9-10c2.9-0.7,4.2,4.5,13,4.1c8.8-0.4,13.8-5.2,13.8-5.2
					c3.7,5.2,21.9,9.6,30.8,15.5c3.5,2.3,11.4,1.5,15.5-1.3c12.6-8.6-14.7,58.7-16.2,79.3c-2.4,32-0.3,77.9-0.3,77.9
					s-10.2,3.9-51,2.8c-40.8-1.1-48.5-5.4-48.5-5.4s5.7-65.2,5-97.2C153.9,384.7,146.9,354,153.3,351.1z"/>
				<g>
					<path class="st11" d="M147.8,440.7c-0.5,5-7.2,75.1-7.2,75.1s-16.9-0.4-23.4-3.9c0.3-2.9,6.9-71.7,7.4-75.3
						c0.5-3.6,4.1-8.1,11.8-7C144.2,430.8,148.4,435.8,147.8,440.7z"/>
					<path class="st11" d="M124.9,435.7c0,0,9.8-38.9,14.7-57.4c1.9-7.3,4.5-26.8,18.1-28.5c10.8-1.3,20.4,6.4,20,14.7
						c-0.7,18.2-30.7,78.7-30.7,78.7"/>
				</g>
				<path class="st16" d="M170,271c0,0-5.4,28.7,14.3,42.8c16.6,11.8,29.5-6,37.3-11c7-4.5,7-6.5,7-6.5s1.2,4.2,3.5,4.5
					c0,0,0.3-16.1,5.3-16.2c5.2-0.3,4.5-11.8,4.5-11.8l-12.5-17.1l-23-7l-23.6,6.8L170,271z"/>
				<g>
					<path class="st14" d="M228.7,296.3c-0.8-1.7-2.1-2.9-3.9-3.1c-3.1-0.1-5.3,2.9-4.4,6.1c0.9,3.5,2.9,6.9,5.4,6.8
						c0.8,0,1.5-0.5,2.1-1.3"/>
					<path class="st17" d="M224.7,301.4c0.3,0.3,0.7,0.5,1.1,0.4c0.5-0.3,0.1-0.5,0.1-0.9c0-0.4,0.3-0.5,0.4-0.9
						c0.3-0.4,0.1-0.7,0-1.1c-0.4-1.5-1.2-3.5-2.9-3.6l0,0c0.8-0.4,2-0.1,2.5,0.5c0.5,0.5,0.7,1.5,1.1,2.1s1.2,1.7,0.5,2.1
						c-0.3,0.1-0.8,0.1-0.9,0.5c-0.1,0.5,0.5,0.7,0.7,0.9c0.1,0.3,0,0.5-0.4,0.7c-0.3,0-0.4-0.1-0.5-0.1c-0.1,0-0.3,0.1-0.4,0.1
						c-0.3,0.1-0.4,0.4-0.8,0.1C224.7,302.2,224.7,301.7,224.7,301.4"/>
				</g>
			</g>
		</g>
	</g>
	<g>
		<g>
			<path class="st18" d="M676.4,592.6c0,0-15.9,17.4-50.1,17.4s-48.5-17.4-48.5-17.4s10.7-61.8-0.5-109.3
				c-11.2-47.5,107.7-71.3,98.4,0S676.4,592.6,676.4,592.6z"/>
			<path class="st15" d="M764.6,615.7c-25.6-12.4-72.5-21.8-90.1-33.5c0,0-5.7,23.7-48.2,23.7c-36.8,0-47.1-21.4-47.1-21.4
				c-17.8,11.6-69.2,19.2-96.3,28.1c-17.3,5.7,7.6,165.6,11.1,235.9c2.3,47.2-1.3,93.8-5,126.3c81.5-2.8,165.4-2.7,262.8-9.6
				c-1.2-18.3-3.7-53.3-5.8-122.5C743.9,772.3,781,623.6,764.6,615.7z"/>
			<path class="st14" d="M421.2,869.3c0,0,7-114,15.8-167c4.1-25.1,21.1-72.3,46.1-84.2c30.5-14.8,59.5,3,62.7,26.2
				c6.8,50.2-66.2,230.5-66.2,230.5"/>
			<path class="st15" d="M511.3,798.6c0,0,40.1-124.6,39.1-147.7c-1-24.2-32.6-47.7-62.1-40.1c-37.3,9.6-47,65.6-50.6,87.4
				c-2.7,16-12.8,81.2-12.8,81.2s10.9,9,46.2,16.7C506.5,803.9,511.3,798.6,511.3,798.6z"/>
			<path class="st14" d="M778.1,833c-9.9,6-146.5,94.6-146.5,94.6c0.1,0.2-14.9,11.6,4.8,28.8c5.9-3.5,156.7-44,173.9-62.7
				c5.7-6.1,22.8-19.1,6.1-42C799.9,828.9,788.1,826.9,778.1,833z"/>
			<path class="st14" d="M823.7,870.3c0,0-3.7-104.7-11.5-158.6c-3.1-21.2-16.3-81.3-58.3-94.9c-33.1-10.8-60,2.1-62.5,25.1
				c-5.4,50.4,73.5,232.7,73.5,232.7"/>
			<path class="st15" d="M732.5,801.7c0,0-48.9-129.9-47.8-153c1.3-24.4,36.3-45.5,69-37.2c41.2,10.4,52.1,65.1,56.3,87
				c3,16.1,13.7,83.7,13.7,83.7s-12,8.8-51.1,15.7C733.3,804.7,732.5,801.7,732.5,801.7z"/>
			<path class="st14" d="M466.1,836.2c14.5,12.5,13.9,12.2,119.8,107.7c-0.1,0.1,0.5,7.3-18.6,22.1c-9.4-3.8-119.8-50-138.3-74.9
				c-4.6-6.2-15.8-19.8,1.5-40.5C447.5,830,458.2,829.3,466.1,836.2z"/>
			<path class="st14" d="M626.3,338.7L626.3,338.7c-68.5,0-84.6,57-78.4,108.6c1.7,14.2,2.1,26.6,6.4,37.6
				c5.4,16.2,12.3,31.9,19.5,42.5c15.9,23.1,30.2,32.6,52.5,32.6s36.6-9.5,52.5-32.6c7.1-10.2,13.8-25.4,19-40.9
				c4.7-11.6,4-26.4,5.7-41.3C709.7,393.6,694.9,338.7,626.3,338.7z"/>
			<g>
				<path class="st14" d="M698.7,452.9c2.4-5.5,4.1-12.4,9.2-12.4c8.3,0,8.1,7.9,5.2,18.8c-3.1,11.2-3.3,25-10.4,24
					c-2.2-0.3-3.3-4.3-4.7-7.3"/>
				<path class="st17" d="M706.8,467.7c-0.7,0.9-1.9,1.6-2.9,0.9c-1.4-0.9-0.3-1.7-0.3-2.9s-0.7-1.9-1-3.1c-0.5-1.4-0.3-2.1,0-3.6
					c1.2-4.8,3.8-11.1,8.8-11.4l0,0c-2.1-1.7-5.4-0.7-7.1,1.4c-1.7,1.9-1.9,4.8-3.1,7.1c-1,2.1-3.6,5.4-1.7,7.3
					c0.7,0.7,2.1,0.5,2.4,2.1c0.2,1.9-1.4,1.9-1.9,3.1c-0.3,0.9-0.2,1.9,0.9,2.2c0.7,0.2,1-0.5,1.6-0.3c0.3,0.2,0.7,0.3,1,0.7
					c0.9,0.5,1.2,1.6,2.2,0.5c0.9-0.9,1-2.8,1.6-4"/>
				<path class="st14" d="M552.9,451.3c-2.4-5.5-2.8-10.7-7.6-10.7c-8.3,0-8.3,10.7-5.2,21.4c3.1,11.2,3.5,22.4,10.4,21.4
					c2.2-0.3,2.4-4,3.8-6.7"/>
				<path class="st17" d="M546.2,467.7c0.7,0.9,1.9,1.6,2.9,0.9c1.4-0.9,0.3-1.7,0.3-2.9s0.7-1.9,1-3.1c0.5-1.4,0.3-2.1,0-3.6
					c-1.2-4.8-3.8-11.1-8.8-11.4l0,0c2.1-1.7,5.4-0.7,7.1,1.4c1.7,1.9,1.9,4.8,3.1,7.1c1,2.1,3.6,5.4,1.7,7.3
					c-0.7,0.7-2.1,0.5-2.4,2.1c-0.2,1.9,1.4,1.9,1.9,3.1c0.3,0.9,0.2,1.9-0.9,2.2c-0.7,0.2-1-0.5-1.6-0.3c-0.3,0.2-0.7,0.3-1,0.7
					c-0.9,0.5-1.2,1.6-2.2,0.5c-0.9-0.9-1-2.8-1.6-4"/>
			</g>
			<path class="st18" d="M628,467.4c-4.3,16.2-10.5,21.8-8.1,26.1c2.8,4.8,13.6,2.6,13.6,2.6"/>
			<path class="st19" d="M605.1,511.9c0,0,25,4,43,0c0,0-5.4,15.4-21.9,15.4S605.1,511.9,605.1,511.9z"/>
			<path class="st20" d="M646,437.2c0,0,1.9-6.2,5.9-6c4,0.2,7.1-1.2,12.4,0.3c5.4,1.4,14,4.3,16.2,6.6c2.1,2.2,2.9,6.2-0.2,5.4
				c-3.1-1-7.4-5.5-12.3-6.4c-4.8-0.9-7.1,1.4-12.4,1.7C650.3,438.9,647.5,441.5,646,437.2z"/>
			<path class="st20" d="M607.1,437.5c0,0-1.7-6.2-5.7-6.2s-7.1-1.4-12.4,0s-14.2,4-16.4,6.2c-2.2,2.2-3.1,6.2,0,5.4s7.6-5.4,12.4-6
				s7.1,1.6,12.4,2.1C602.8,439.4,605.4,442,607.1,437.5z"/>
			<path class="st21" d="M673.6,458.2c0,0-14.7-19.2-27.6-3.1C646,455.1,659.8,448,673.6,458.2z"/>
			<path class="st21" d="M579.3,456.7c0,0,16.7-17.4,27.8,0C607.1,456.7,594.2,448.2,579.3,456.7z"/>
			<ellipse class="st21" cx="594.9" cy="457" rx="5.9" ry="7.8"/>
			<path class="st22" d="M772.4,797.9c39.1-6.9,51.1-15.7,51.1-15.7s-0.5-2.9-1.2-7.5c0,0-33.8,17-91.1,20.2c-0.4,0-0.8,0.1-1.3,0.1
				c1.6,4.2,2.5,6.7,2.5,6.7S733.3,804.7,772.4,797.9z"/>
			<path class="st22" d="M476,796.3c-39.1-6.9-51.1-15.7-51.1-15.7s0.5-2.9,1.2-7.5c0,0,33.8,17,91.1,20.2c0.4,0,0.8,0.1,1.3,0.1
				c-1.6,4.2-2.5,6.7-2.5,6.7S515.1,803,476,796.3z"/>
			<path class="st22" d="M502.9,717.2c-0.8,10.5-1.8,21-2.7,31.4l-3,31.4l-3.2,31.4l-1.6,15.7l-1.7,15.7l-1.3-1.4
				c20.8,0.2,41.5,0.9,62.3,1.3c10.4,0.1,20.8,0.3,31.2,0.4l15.6,0.1l15.6,0c20.8-0.1,41.5-0.2,62.3-0.1c20.8,0.1,41.5,0.1,62.3,0.4
				l-1.5,1.6l-1.8-30.4l-1.6-30.4l-1.5-30.4l-1.3-30.4l0.3,0l2.5,30.4l2.3,30.4l2.1,30.4l2,30.4l0.1,1.6l-1.7,0
				c-20.8-0.1-41.5-0.4-62.3-0.7c-20.8-0.3-41.5-0.7-62.3-1.2l-15.6-0.3l-15.6-0.2c-10.4-0.2-20.8-0.2-31.2-0.2
				c-20.8,0-41.5,0.3-62.3,0.2l-1.4,0l0.1-1.4l1.6-15.7l1.7-15.7l3.5-31.4l3.7-31.3c1.3-10.4,2.5-20.9,3.9-31.3L502.9,717.2z"/>
			<ellipse class="st21" cx="657.7" cy="456.7" rx="5.9" ry="7.4"/>
			<g class="st23">
				<path class="st20" d="M554.6,444.5C554.2,440.2,553.6,439.5,554.6,444.5L554.6,444.5z"/>
				<path class="st20" d="M696.5,447C697.5,441.8,697,442.6,696.5,447L696.5,447z"/>
			</g>
			<path class="st20" d="M555,456.1c0,0-1.2-3.6-6.9-13.4c-5.7-9.8,0.9-64.3,5.5-74c4.6-9.8,14.8-30.2,29.6-37.1
				c14.8-6.9,29-10.7,42.3-10.7s30.6,3.8,39.7,10.7c9.1,6.9,20.3,18.6,27.5,29.7c7.2,11,13.6,29,13.6,45.4c0,16.3-1.5,35-2.9,37.8
				c-1.2,2.9-7.6,8.8-7.6,12.4c0,3.6-3.6-31.4-4.5-41.1c-0.9-10.7-3.6-28.3-7-33.5c-3.4-5.2-10.5-11.5-18.2-14.3
				c-7.9-2.9-27.3-6.5-39.9-6.9c-12.5-0.3-33.8,1.9-41.2,4.5c-6.5,2.2-14.1,7.4-17.2,17.9s-6,21.3-5.7,28.7
				c0.3,7.2-2.2,22.3-3.6,29.4C557,448.3,555,456.1,555,456.1z"/>
			<g>
				<path class="st24" d="M795,981.4H443.8c-1.6,0-2.8-1.3-2.8-2.8v-223c0-1.6,1.3-2.8,2.8-2.8H795c1.6,0,2.8,1.3,2.8,2.8v223
					C797.8,980.2,796.6,981.4,795,981.4z"/>
				<path class="st24" d="M804.5,956.5H434.1c-1.3,0-2.3,1-2.3,2.3v20.3c0,1.3,1,2.3,2.3,2.3h370.4c1.3,0,2.3-1,2.3-2.3v-20.3
					C806.9,957.5,805.8,956.5,804.5,956.5z"/>
			</g>
			<path class="st25" d="M605.6,830.3c0,0,18.5,6.2,21.2,7.4c2.8,1.3,14.3,5.9,13.5,19c-0.8,13.1-10,16.4-14.2,17.8
				c-4.2,1.4-10.8,2.2-17.3,0s-2.5-7.9-1.7-21.5S605.6,830.3,605.6,830.3z"/>
			<path class="st22" d="M571.4,588.4c0,0,11.4,25.7,57.1,25.7c45.6,0,54.1-27.6,54.1-27.6l0,0c-3.1-1.4-5.8-2.9-8.1-4.4
				c0,0-5.7,23.7-48.2,23.7c-36.8,0-47.1-21.4-47.1-21.4C577,585.8,574.4,587.2,571.4,588.4L571.4,588.4z"/>
		</g>
		<g class="st26">
			<polygon class="st27" points="441.8,982 441.8,909.9 467.3,870.5 524.8,781.2 543.1,752.8 645.7,752.8 627.4,781.2 498.1,982 			
				"/>
			<polygon class="st28" points="517.1,982 646.5,781.3 664.9,752.8 701,752.8 682.7,781.3 553.3,982 			"/>
		</g>
	</g>
</g>
</svg>
