<?xml version="1.0" encoding="UTF-8"?>
<svg width="64px" height="64px" viewBox="0 0 64 64" version="1.1" xmlns="http://www.w3.org/2000/svg" xmlns:xlink="http://www.w3.org/1999/xlink">
    <!-- Generator: Sketch 60.1 (88133) - https://sketch.com -->
    <title>chats/regular</title>
    <desc>Created with Sketch.</desc>
    <defs>
        <linearGradient x1="58.5021607%" y1="42.596153%" x2="-20.010652%" y2="78.4592399%" id="linearGradient-1">
            <stop stop-color="#14B0BB" offset="0%"></stop>
            <stop stop-color="#517EC2" offset="100%"></stop>
        </linearGradient>
    </defs>
    <g id="chats/regular" stroke="none" stroke-width="1" fill="none" fill-rule="evenodd">
        <path d="M49,27 C51.209139,27 53,28.790861 53,31 L53,40 C53,42.209139 51.209139,44 49,44 L47,44 L47,48.9248162 C47,49.4771009 46.5522847,49.9248162 46,49.9248162 C45.6800634,49.9248162 45.3794416,49.7717321 45.1912639,49.5129879 L41.182,44 L28,44 C25.790861,44 24,42.209139 24,40 L24,31 L24.0048953,30.8003597 C24.1055655,28.7522392 25.746685,27.1090931 27.7939606,27.0052149 L28,27 L49,27 Z M34,22 C36.209139,22 38,23.790861 38,26 L36,26 L35.9945143,25.8507377 C35.9219826,24.8676208 35.1387735,24.0821352 34.1566505,24.0060445 L34,24 L15,24 C13.9456382,24 13.0818349,24.8158778 13.0054857,25.8507377 L13,26 L13,35 C13,36.0543618 13.8158778,36.9181651 14.8507377,36.9945143 L15,37 L17,37 L17,42.5 L21.053,37 L23,37 L22.999,39 L21.923,39 L16.792624,45.6695888 C16.63037,45.880519 16.3920294,46.0165977 16.1317294,46.0511726 L16,46.0598781 C15.4871642,46.0598781 15.0644928,45.6738379 15.0067277,45.1764992 L15,45.0598781 L15,39 C12.790861,39 11,37.209139 11,35 L11,26 C11,23.790861 12.790861,22 15,22 L34,22 Z M49,29 L28,29 C26.9456382,29 26.0818349,29.8158778 26.0054857,30.8507377 L26,31 L26,40 C26,41.0543618 26.8158778,41.9181651 27.8507377,41.9945143 L28,42 L42.143,42 L45,46 L45,42 L49,42 C50.0543618,42 50.9181651,41.1841222 50.9945143,40.1492623 L51,40 L51,31 C51,29.9456382 50.1841222,29.0818349 49.1492623,29.0054857 L49,29 Z M38.5,34 C39.3284271,34 40,34.6715729 40,35.5 C40,36.3284271 39.3284271,37 38.5,37 C37.6715729,37 37,36.3284271 37,35.5 C37,34.6715729 37.6715729,34 38.5,34 Z M44.5,34 C45.3284271,34 46,34.6715729 46,35.5 C46,36.3284271 45.3284271,37 44.5,37 C43.6715729,37 43,36.3284271 43,35.5 C43,34.6715729 43.6715729,34 44.5,34 Z M32.5,34 C33.3284271,34 34,34.6715729 34,35.5 C34,36.3284271 33.3284271,37 32.5,37 C31.6715729,37 31,36.3284271 31,35.5 C31,34.6715729 31.6715729,34 32.5,34 Z M19.5,29 C20.3284271,29 21,29.6715729 21,30.5 C21,31.3284271 20.3284271,32 19.5,32 C18.6715729,32 18,31.3284271 18,30.5 C18,29.6715729 18.6715729,29 19.5,29 Z" id="Shape" fill="url(#linearGradient-1)"></path>
    </g>
</svg>