<?xml version="1.0" encoding="UTF-8"?>
<svg width="64px" height="64px" viewBox="0 0 64 64" version="1.1" xmlns="http://www.w3.org/2000/svg" xmlns:xlink="http://www.w3.org/1999/xlink">
    <!-- Generator: Sketch 60.1 (88133) - https://sketch.com -->
    <title>events/regular</title>
    <desc>Created with Sketch.</desc>
    <defs>
        <linearGradient x1="58.5021607%" y1="41.4548578%" x2="-20.010652%" y2="82.8462021%" id="linearGradient-1">
            <stop stop-color="#14B0BB" offset="0%"></stop>
            <stop stop-color="#517EC2" offset="100%"></stop>
        </linearGradient>
    </defs>
    <g id="events/regular" stroke="none" stroke-width="1" fill="none" fill-rule="evenodd">
        <path d="M55,12 C57.7614237,12 60,14.2385763 60,17 L60,47 C60,49.7614237 57.7614237,52 55,52 L9,52 C6.23857625,52 4,49.7614237 4,47 L4,17 C4,14.2385763 6.23857625,12 9,12 L13,12 L13,14 L9,14 C7.75906055,14 6.69409929,14.7534522 6.2376288,15.8278441 L6.17067428,16.0000889 L57.8293257,16.0000889 C57.438105,14.893112 56.4156297,14.084311 55.1944123,14.0061983 L55,14 L51,14 L51,12 L55,12 Z M58,18 L6,18 L6,47 C6,48.5976809 7.24891996,49.9036609 8.82372721,49.9949073 L9,50 L55,50 C56.5976809,50 57.9036609,48.75108 57.9949073,47.1762728 L58,47 L58,18 Z M29,40 C30.0543618,40 30.9181651,40.8158778 30.9945143,41.8507377 L31,42 L31,46 L30.9945143,46.1492623 C30.9219826,47.1323792 30.1387735,47.9178648 29.1566505,47.9939555 L29,48 L23,48 L22.8507377,47.9945143 C21.8676208,47.9219826 21.0821352,47.1387735 21.0060445,46.1566505 L21,46 L21,42 L21.0054857,41.8507377 C21.0780174,40.8676208 21.8612265,40.0821352 22.8433495,40.0060445 L23,40 L29,40 Z M17,40 C18.0543618,40 18.9181651,40.8158778 18.9945143,41.8507377 L19,42 L19,46 L18.9945143,46.1492623 C18.9219826,47.1323792 18.1387735,47.9178648 17.1566505,47.9939555 L17,48 L11,48 L10.8507377,47.9945143 C9.86762078,47.9219826 9.08213523,47.1387735 9.00604447,46.1566505 L9,46 L9,42 L9.00548574,41.8507377 C9.07801742,40.8676208 9.86122651,40.0821352 10.8433495,40.0060445 L11,40 L17,40 Z M29,42 L23,42 L23,46 L29,46 L29,42 Z M17,42 L11,42 L11,46 L17,46 L17,42 Z M17,30 C18.0543618,30 18.9181651,30.8158778 18.9945143,31.8507377 L19,32 L19,36 L18.9945143,36.1492623 C18.9219826,37.1323792 18.1387735,37.9178648 17.1566505,37.9939555 L17,38 L11,38 L10.8507377,37.9945143 C9.86762078,37.9219826 9.08213523,37.1387735 9.00604447,36.1566505 L9,36 L9,32 L9.00548574,31.8507377 C9.07801742,30.8676208 9.86122651,30.0821352 10.8433495,30.0060445 L11,30 L17,30 Z M53,30 C54.0543618,30 54.9181651,30.8158778 54.9945143,31.8507377 L55,32 L55,36 L54.9945143,36.1492623 C54.9219826,37.1323792 54.1387735,37.9178648 53.1566505,37.9939555 L53,38 L47,38 L46.8507377,37.9945143 C45.8676208,37.9219826 45.0821352,37.1387735 45.0060445,36.1566505 L45,36 L45,32 L45.0054857,31.8507377 C45.0780174,30.8676208 45.8612265,30.0821352 46.8433495,30.0060445 L47,30 L53,30 Z M41,30 C42.0543618,30 42.9181651,30.8158778 42.9945143,31.8507377 L43,32 L43,36 L42.9945143,36.1492623 C42.9219826,37.1323792 42.1387735,37.9178648 41.1566505,37.9939555 L41,38 L35,38 L34.8507377,37.9945143 C33.8676208,37.9219826 33.0821352,37.1387735 33.0060445,36.1566505 L33,36 L33,32 L33.0054857,31.8507377 C33.0780174,30.8676208 33.8612265,30.0821352 34.8433495,30.0060445 L35,30 L41,30 Z M29,30 C30.0543618,30 30.9181651,30.8158778 30.9945143,31.8507377 L31,32 L31,36 L30.9945143,36.1492623 C30.9219826,37.1323792 30.1387735,37.9178648 29.1566505,37.9939555 L29,38 L23,38 L22.8507377,37.9945143 C21.8676208,37.9219826 21.0821352,37.1387735 21.0060445,36.1566505 L21,36 L21,32 L21.0054857,31.8507377 C21.0780174,30.8676208 21.8612265,30.0821352 22.8433495,30.0060445 L23,30 L29,30 Z M17,32 L11,32 L11,36 L17,36 L17,32 Z M53,32 L47,32 L47,36 L53,36 L53,32 Z M41,32 L35,32 L35,36 L41,36 L41,32 Z M29,32 L23,32 L23,36 L29,36 L29,32 Z M27.1199769,32.0999947 C27.2477537,31.9812673 27.4455008,31.964548 27.5929643,32.0698791 C27.7213679,32.1615959 27.7745996,32.3193898 27.7394274,32.4638684 L27.714413,32.5346306 L27.6801501,32.5929934 L25.5478518,35.578211 L24.109835,34.1401942 L24.0560382,34.0723911 C23.9663771,33.9277654 23.9843093,33.7353897 24.109835,33.6098641 C24.2214133,33.4982857 24.3858114,33.4717194 24.5225421,33.5301652 L24.5882291,33.5664725 L24.640165,33.6098641 L25.452,34.4217791 L27.0698499,32.1570648 L27.1199769,32.0999947 Z M29,20 C30.0543618,20 30.9181651,20.8158778 30.9945143,21.8507377 L31,22 L31,26 L30.9945143,26.1492623 C30.9219826,27.1323792 30.1387735,27.9178648 29.1566505,27.9939555 L29,28 L23,28 L22.8507377,27.9945143 C21.8676208,27.9219826 21.0821352,27.1387735 21.0060445,26.1566505 L21,26 L21,22 L21.0054857,21.8507377 C21.0780174,20.8676208 21.8612265,20.0821352 22.8433495,20.0060445 L23,20 L29,20 Z M41,20 C42.0543618,20 42.9181651,20.8158778 42.9945143,21.8507377 L43,22 L43,26 L42.9945143,26.1492623 C42.9219826,27.1323792 42.1387735,27.9178648 41.1566505,27.9939555 L41,28 L35,28 L34.8507377,27.9945143 C33.8676208,27.9219826 33.0821352,27.1387735 33.0060445,26.1566505 L33,26 L33,22 L33.0054857,21.8507377 C33.0780174,20.8676208 33.8612265,20.0821352 34.8433495,20.0060445 L35,20 L41,20 Z M53,20 C54.0543618,20 54.9181651,20.8158778 54.9945143,21.8507377 L55,22 L55,26 L54.9945143,26.1492623 C54.9219826,27.1323792 54.1387735,27.9178648 53.1566505,27.9939555 L53,28 L47,28 L46.8507377,27.9945143 C45.8676208,27.9219826 45.0821352,27.1387735 45.0060445,26.1566505 L45,26 L45,22 L45.0054857,21.8507377 C45.0780174,20.8676208 45.8612265,20.0821352 46.8433495,20.0060445 L47,20 L53,20 Z M29,22 L23,22 L23,26 L29,26 L29,22 Z M41,22 L35,22 L35,26 L41,26 L41,22 Z M53,22 L47,22 L47,26 L53,26 L53,22 Z M16,12 L16,15 L14,15 L14,12 L16,12 Z M50,12 L50,15 L48,15 L48,12 L50,12 Z M47,12 L47,14 L17,14 L17,12 L47,12 Z" id="Shape" fill="url(#linearGradient-1)"></path>
    </g>
</svg>