<?xml version="1.0" encoding="UTF-8"?>
<svg width="64px" height="64px" viewBox="0 0 64 64" version="1.1" xmlns="http://www.w3.org/2000/svg" xmlns:xlink="http://www.w3.org/1999/xlink">
    <!-- Generator: Sketch 60.1 (88133) - https://sketch.com -->
    <title>gamifiaction/regular</title>
    <desc>Created with Sketch.</desc>
    <defs>
        <linearGradient x1="58.5021607%" y1="43.6074091%" x2="-20.010652%" y2="74.5721286%" id="linearGradient-1">
            <stop stop-color="#14B0BB" offset="0%"></stop>
            <stop stop-color="#517EC2" offset="100%"></stop>
        </linearGradient>
    </defs>
    <g id="gamifiaction/regular" stroke="none" stroke-width="1" fill="none" fill-rule="evenodd">
        <path d="M19.2071491,16 L20.2071491,18 L43.2071491,18 L44.2071491,16 L49.8688437,16 C51.8019883,16 53.4585119,17.3824955 53.8043234,19.2844582 L58.3497779,44.2844582 C58.7449607,46.4579636 57.3033454,48.5402968 55.12984,48.9354796 C54.8937443,48.9784061 54.6542647,49 54.4142983,49 L51.8109452,49 C49.6587932,49 47.748099,47.6228495 47.0675287,45.5811388 L44.2071491,37 L19.2071491,37 L16.3467695,45.5811388 C15.6661993,47.6228495 13.7555051,49 11.603353,49 L9,49 C6.790861,49 5,47.209139 5,45 C5,44.7600336 5.02159386,44.520554 5.06452036,44.2844582 L9.60997491,19.2844582 C9.95578632,17.3824955 11.61231,16 13.5454545,16 L19.2071491,16 Z M18.5,18 L13.656341,18 C12.74886,18 11.9625024,18.6094854 11.7271024,19.4724803 L11.6913679,19.6273327 L6.94998863,44.6273327 C6.92668867,44.750187 6.91496167,44.8749557 6.91496167,45 C6.91496167,46.0543618 7.73083947,46.9181651 8.76569933,46.9945143 L8.91496167,47 L11.4209986,47 C12.6057147,47 13.6727035,46.3037873 14.1550827,45.2349114 L14.2299861,45.0533703 L18,35 L45.5,35 L49.2700139,45.0533703 C49.6859955,46.1626546 50.7125245,46.9172507 51.8827188,46.9936091 L52.0790014,47 L54.5850383,47 C54.7100826,47 54.8348513,46.988273 54.9577056,46.964973 C55.9936019,46.76851 56.6902515,45.8059654 56.5724343,44.7750031 L56.5500114,44.6273327 L51.8086321,19.6273327 C51.6395378,18.7357448 50.8942018,18.0767268 50.0024579,18.0062544 L49.843659,18 L45,18 L44,20 L40.9999617,20 L41,27 L23,27 L22.9999617,20 L19.5,20 L18.5,18 Z M24,28 C25.6568542,28 27,29.3431458 27,31 C27,32.6568542 25.6568542,34 24,34 C22.3431458,34 21,32.6568542 21,31 C21,29.3431458 22.3431458,28 24,28 Z M40,28 C41.6568542,28 43,29.3431458 43,31 C43,32.6568542 41.6568542,34 40,34 C38.3431458,34 37,32.6568542 37,31 C37,29.3431458 38.3431458,28 40,28 Z M24,30 C23.4477153,30 23,30.4477153 23,31 C23,31.5522847 23.4477153,32 24,32 C24.5522847,32 25,31.5522847 25,31 C25,30.4477153 24.5522847,30 24,30 Z M40,30 C39.4477153,30 39,30.4477153 39,31 C39,31.5522847 39.4477153,32 40,32 C40.5522847,32 41,31.5522847 41,31 C41,30.4477153 40.5522847,30 40,30 Z M16,27 L17,28 L17,30 L15,30 L15,28 L16,27 Z M47.5,27 C48.3284271,27 49,27.6715729 49,28.5 C49,29.3284271 48.3284271,30 47.5,30 C46.6715729,30 46,29.3284271 46,28.5 C46,27.6715729 46.6715729,27 47.5,27 Z M14,25 L15,26 L14,27 L12,27 L12,25 L14,25 Z M20,25 L20,27 L18,27 L17,26 L18,25 L20,25 Z M44.5,24 C45.3284271,24 46,24.6715729 46,25.5 C46,26.3284271 45.3284271,27 44.5,27 C43.6715729,27 43,26.3284271 43,25.5 C43,24.6715729 43.6715729,24 44.5,24 Z M50.5,24 C51.3284271,24 52,24.6715729 52,25.5 C52,26.3284271 51.3284271,27 50.5,27 C49.6715729,27 49,26.3284271 49,25.5 C49,24.6715729 49.6715729,24 50.5,24 Z M17,22 L17,24 L16,25 L15,24 L15,22 L17,22 Z M39,20 L25,20 L25,25 L39,25 L39,20 Z M47.5,21 C48.3284271,21 49,21.6715729 49,22.5 C49,23.3284271 48.3284271,24 47.5,24 C46.6715729,24 46,23.3284271 46,22.5 C46,21.6715729 46.6715729,21 47.5,21 Z" id="Shape" fill="url(#linearGradient-1)"></path>
    </g>
</svg>