<?xml version="1.0" encoding="UTF-8"?>
<svg width="64px" height="64px" viewBox="0 0 64 64" version="1.1" xmlns="http://www.w3.org/2000/svg" xmlns:xlink="http://www.w3.org/1999/xlink">
    <!-- Generator: Sketch 60.1 (88133) - https://sketch.com -->
    <title>project-management/regular</title>
    <desc>Created with Sketch.</desc>
    <defs>
        <linearGradient x1="58.1654752%" y1="33.2515212%" x2="-17.2382302%" y2="114.378556%" id="linearGradient-1">
            <stop stop-color="#14B0BB" offset="0%"></stop>
            <stop stop-color="#517EC2" offset="100%"></stop>
        </linearGradient>
    </defs>
    <g id="project-management/regular" stroke="none" stroke-width="1" fill="none" fill-rule="evenodd">
        <path d="M26,7 C26.5522847,7 27,7.44771525 27,8 L27,10 L31,10 L31,11 L36.0620638,11.0004087 C38.1066525,9.19563134 40.7709939,8.07674078 43.6950252,8.00379986 L44,8 C50.627417,8 56,13.372583 56,20 C56,26.627417 50.627417,32 44,32 C42.9641271,32 41.9589099,31.8687475 41.0000718,31.621966 L41,53 C41,55.209139 39.209139,57 37,57 L11,57 C8.790861,57 7,55.209139 7,53 L7,15 C7,12.790861 8.790861,11 11,11 L17,11 L17,10 L21,10 L21,8 C21,7.44771525 21.4477153,7 22,7 L26,7 Z M34.2528705,12.9989747 L31,12.9999747 L31,14.0000529 L30.9945143,14.1493153 C30.9219826,15.1324321 30.1387735,15.9179177 29.1566505,15.9940085 L29,16.0000529 L19,16.0000529 L18.8507377,15.9945672 C17.8676208,15.9220355 17.0821352,15.1388264 17.0060445,14.1567034 L17,14.0000529 L17,12.9999747 L11,13.0000529 C9.9456382,13.0000529 9.08183488,13.8159307 9.00548574,14.8507906 L9,15.0000529 L9,53.0000529 C9,54.0544147 9.81587779,54.9182181 10.8507377,54.9945672 L11,55.0000529 L37,55.0000529 C38.0543618,55.0000529 38.9181651,54.1841751 38.9945143,53.1493153 L39,53.0000529 L39,30.911884 C34.8688551,29.0158301 32,24.84297 32,20.0000529 C32,17.5178525 32.7536474,15.2116759 34.0446019,13.2978634 L34.2528705,12.9989747 Z M18,42 C19.5976809,42 20.9036609,43.24892 20.9949073,44.8237272 L21,45 L21,49 L20.9949073,49.1762728 C20.9070404,50.6927538 19.6927538,51.9070404 18.1762728,51.9949073 L18,52 L14,52 L13.8237272,51.9949073 C12.3072462,51.9070404 11.0929596,50.6927538 11.0050927,49.1762728 L11,49 L11,45 L11.0050927,44.8237272 C11.0929596,43.3072462 12.3072462,42.0929596 13.8237272,42.0050927 L14,42 L18,42 Z M18,44 L14,44 L13.8833789,44.0067277 C13.4625538,44.0556059 13.1214159,44.3657483 13.0264107,44.7707092 L13.0067277,44.8833789 L13,45 L13,49 L13.0067277,49.1166211 C13.0556059,49.5374462 13.3657483,49.8785841 13.7707092,49.9735893 L13.8833789,49.9932723 L14,50 L18,50 L18.1166211,49.9932723 C18.5374462,49.9443941 18.8785841,49.6342517 18.9735893,49.2292908 L18.9932723,49.1166211 L19,49 L19,45 L18.9932723,44.8833789 C18.9399506,44.424297 18.575703,44.0600494 18.1166211,44.0067277 L18,44 Z M17.3036717,45.1803862 C17.4282267,45.1039521 17.591567,45.1045662 17.7179643,45.1948499 C17.8249673,45.2712807 17.8797676,45.3935982 17.8747078,45.5158579 L17.8644274,45.5888393 L17.839413,45.6596015 L17.8051501,45.7179643 L15.6728518,48.7031819 L14.234835,47.265165 L14.1810382,47.1973619 L14.1451738,47.1216005 C14.1003432,46.990468 14.1302302,46.8394397 14.234835,46.734835 C14.3278169,46.641853 14.4574793,46.6079072 14.5772438,46.6329976 L14.6475421,46.6551361 L14.7132291,46.6914434 L14.765165,46.734835 L15.577,47.54675 L17.1948499,45.2820357 L17.2449769,45.2249656 L17.3036717,45.1803862 Z M36,46.000205 C36.5522847,46.000205 37,46.4479203 37,47.000205 C37,47.5130409 36.6139598,47.9357122 36.1166211,47.9934773 L36,48.000205 L24,48.000205 L23.8833789,47.9934773 C23.3860402,47.9357122 23,47.5130409 23,47.000205 C23,46.4873692 23.3860402,46.0646979 23.8833789,46.0069328 L24,46.000205 L36,46.000205 Z M18,30 C19.5976809,30 20.9036609,31.24892 20.9949073,32.8237272 L21,33 L21,37 L20.9949073,37.1762728 C20.9070404,38.6927538 19.6927538,39.9070404 18.1762728,39.9949073 L18,40 L14,40 L13.8237272,39.9949073 C12.3072462,39.9070404 11.0929596,38.6927538 11.0050927,37.1762728 L11,37 L11,33 L11.0050927,32.8237272 C11.0929596,31.3072462 12.3072462,30.0929596 13.8237272,30.0050927 L14,30 L18,30 Z M18,32 L14,32 L13.8833789,32.0067277 C13.4625538,32.0556059 13.1214159,32.3657483 13.0264107,32.7707092 L13.0067277,32.8833789 L13,33 L13,37 L13.0067277,37.1166211 C13.0556059,37.5374462 13.3657483,37.8785841 13.7707092,37.9735893 L13.8833789,37.9932723 L14,38 L18,38 L18.1166211,37.9932723 C18.5374462,37.9443941 18.8785841,37.6342517 18.9735893,37.2292908 L18.9932723,37.1166211 L19,37 L19,33 L18.9932723,32.8833789 C18.9399506,32.424297 18.575703,32.0600494 18.1166211,32.0067277 L18,32 Z M17.3036717,33.1803862 C17.4282267,33.1039521 17.591567,33.1045662 17.7179643,33.1948499 C17.8249673,33.2712807 17.8797676,33.3935982 17.8747078,33.5158579 L17.8644274,33.5888393 L17.839413,33.6596015 L17.8051501,33.7179643 L15.6728518,36.7031819 L14.234835,35.265165 L14.1810382,35.1973619 L14.1451738,35.1216005 C14.1003432,34.990468 14.1302302,34.8394397 14.234835,34.734835 C14.3278169,34.641853 14.4574793,34.6079072 14.5772438,34.6329976 L14.6475421,34.6551361 L14.7132291,34.6914434 L14.765165,34.734835 L15.577,35.54675 L17.1948499,33.2820357 L17.2449769,33.2249656 L17.3036717,33.1803862 Z M36,34.000205 C36.5522847,34.000205 37,34.4479203 37,35.000205 C37,35.5130409 36.6139598,35.9357122 36.1166211,35.9934773 L36,36.000205 L24,36.000205 L23.8833789,35.9934773 C23.3860402,35.9357122 23,35.5130409 23,35.000205 C23,34.4873692 23.3860402,34.0646979 23.8833789,34.0069328 L24,34.000205 L36,34.000205 Z M44,10 C38.4771525,10 34,14.4771525 34,20 C34,25.5228475 38.4771525,30 44,30 C49.5228475,30 54,25.5228475 54,20 C54,14.4771525 49.5228475,10 44,10 Z M18,18 C19.5976809,18 20.9036609,19.24892 20.9949073,20.8237272 L21,21 L21,25 L20.9949073,25.1762728 C20.9070404,26.6927538 19.6927538,27.9070404 18.1762728,27.9949073 L18,28 L14,28 L13.8237272,27.9949073 C12.3072462,27.9070404 11.0929596,26.6927538 11.0050927,25.1762728 L11,25 L11,21 L11.0050927,20.8237272 C11.0929596,19.3072462 12.3072462,18.0929596 13.8237272,18.0050927 L14,18 L18,18 Z M18,20 L14,20 L13.8833789,20.0067277 C13.4625538,20.0556059 13.1214159,20.3657483 13.0264107,20.7707092 L13.0067277,20.8833789 L13,21 L13,25 L13.0067277,25.1166211 C13.0556059,25.5374462 13.3657483,25.8785841 13.7707092,25.9735893 L13.8833789,25.9932723 L14,26 L18,26 L18.1166211,25.9932723 C18.5374462,25.9443941 18.8785841,25.6342517 18.9735893,25.2292908 L18.9932723,25.1166211 L19,25 L19,21 L18.9932723,20.8833789 C18.9399506,20.424297 18.575703,20.0600494 18.1166211,20.0067277 L18,20 Z M17.3036717,21.1803862 C17.4282267,21.1039521 17.591567,21.1045662 17.7179643,21.1948499 C17.8249673,21.2712807 17.8797676,21.3935982 17.8747078,21.5158579 L17.8644274,21.5888393 L17.839413,21.6596015 L17.8051501,21.7179643 L15.6728518,24.7031819 L14.234835,23.265165 L14.1810382,23.1973619 L14.1451738,23.1216005 C14.1003432,22.990468 14.1302302,22.8394397 14.234835,22.734835 C14.3278169,22.641853 14.4574793,22.6079072 14.5772438,22.6329976 L14.6475421,22.6551361 L14.7132291,22.6914434 L14.765165,22.734835 L15.577,23.54675 L17.1948499,21.2820357 L17.2449769,21.2249656 L17.3036717,21.1803862 Z M31.1529687,22.0006735 C31.237719,22.5494013 31.3567842,23.0867997 31.507903,23.6106075 L31.6272168,24.0008798 L24,24.000205 L23.8833789,23.9934773 C23.3860402,23.9357122 23,23.5130409 23,23.000205 C23,22.4873692 23.3860402,22.0646979 23.8833789,22.0069328 L24,22.000205 L31.1529687,22.0006735 Z M50,19 C50.5522847,19 51,19.4477153 51,20 C51,20.5128358 50.6139598,20.9355072 50.1166211,20.9932723 L50,21 L46,21 L46,19 L50,19 Z M44,11 C44.5128358,11 44.9355072,11.3860402 44.9932723,11.8833789 L45,12 L45,20 L44.9932723,20.1166211 C44.9355072,20.6139598 44.5128358,21 44,21 C43.4871642,21 43.0644928,20.6139598 43.0067277,20.1166211 L43,20 L43,12 L43.0067277,11.8833789 C43.0644928,11.3860402 43.4871642,11 44,11 Z M29,12 L19,12 L19,14 L29,14 L29,12 Z M25,9 L23,9 L23,10 L25,10 L25,9 Z" id="Shape" fill="url(#linearGradient-1)"></path>
    </g>
</svg>