<?xml version="1.0" encoding="UTF-8"?>
<svg width="64px" height="64px" viewBox="0 0 64 64" version="1.1" xmlns="http://www.w3.org/2000/svg" xmlns:xlink="http://www.w3.org/1999/xlink">
    <!-- Generator: Sketch 60.1 (88133) - https://sketch.com -->
    <title>rating/regular</title>
    <desc>Created with Sketch.</desc>
    <defs>
        <linearGradient x1="58.5021607%" y1="34.7048743%" x2="-20.010652%" y2="108.792092%" id="linearGradient-1">
            <stop stop-color="#14B0BB" offset="0%"></stop>
            <stop stop-color="#517EC2" offset="100%"></stop>
        </linearGradient>
    </defs>
    <g id="rating/regular" stroke="none" stroke-width="1" fill="none" fill-rule="evenodd">
        <path d="M32.8851314,9.72563077 C33.2795566,9.92029125 33.5988117,10.2395463 33.7934722,10.6339715 L39.3473157,21.8872876 L51.7660873,23.6918407 C52.859177,23.8506759 53.6165399,24.8655617 53.4577047,25.9586514 C53.3944556,26.3939254 53.1894813,26.7962103 52.874514,27.1032275 L43.8882065,35.8627124 L46.0095859,48.2313037 C46.1963079,49.3199766 45.4651323,50.3538884 44.3764594,50.5406104 C43.9429441,50.6149641 43.497008,50.5443348 43.107687,50.3396566 L32,44.5 L20.892313,50.3396566 C19.9146238,50.8536583 18.7053695,50.4777652 18.1913679,49.500076 C17.9866898,49.1107551 17.9160604,48.6648189 17.9904141,48.2313037 L20.1117935,35.8627124 L11.125486,27.1032275 C10.3345188,26.332225 10.3183342,25.0659985 11.0893366,24.2750314 C11.3963539,23.9600641 11.7986387,23.7550897 12.2339127,23.6918407 L24.6526843,21.8872876 L30.2065278,10.6339715 C30.6953724,9.64346418 31.8946241,9.23678618 32.8851314,9.72563077 Z M32,12 L26.1221475,23.9098301 L12.9788697,25.8196601 L22.4894348,35.0901699 L20.244295,48.1803399 L32,42 L43.755705,48.1803399 L41.5105652,35.0901699 L51.0211303,25.8196601 L37.8778525,23.9098301 L32,12 Z" id="Shape" fill="url(#linearGradient-1)"></path>
    </g>
</svg>