<?xml version="1.0" encoding="UTF-8"?>
<svg width="64px" height="64px" viewBox="0 0 64 64" version="1.1" xmlns="http://www.w3.org/2000/svg" xmlns:xlink="http://www.w3.org/1999/xlink">
    <!-- Generator: Sketch 60.1 (88133) - https://sketch.com -->
    <title>stickers/regular</title>
    <desc>Created with Sketch.</desc>
    <defs>
        <linearGradient x1="58.5021607%" y1="33.2515212%" x2="-20.010652%" y2="114.378556%" id="linearGradient-1">
            <stop stop-color="#14B0BB" offset="0%"></stop>
            <stop stop-color="#517EC2" offset="100%"></stop>
        </linearGradient>
    </defs>
    <g id="stickers/regular" stroke="none" stroke-width="1" fill="none" fill-rule="evenodd">
        <path d="M48,12 C50.209139,12 52,13.790861 52,16 L52,48 C52,50.209139 50.209139,52 48,52 L16,52 C13.790861,52 12,50.209139 12,48 L12,27 L27,12 L48,12 Z M47,14 L27,14 L26.9999793,16.7967639 C28.5730822,16.2797086 30.2538764,16 32,16 C40.836556,16 48,23.163444 48,32 C48,40.836556 40.836556,48 32,48 C23.163444,48 16,40.836556 16,32 C16,30.4284887 16.2265639,28.9098943 16.6488101,27.4750985 L16.7967639,26.9999793 L14,27 L14,48 C14,49.0543618 14.8158778,49.9181651 15.8507377,49.9945143 L16,50 L48,50 C49.0543618,50 49.9181651,49.1841222 49.9945143,48.1492623 L50,48 L50,17 C50,15.4023191 48.75108,14.0963391 47.1762728,14.0050927 L47,14 Z M32,18 C30.3852402,18 28.8343313,18.273378 27.3910313,18.7763761 L27.0001048,18.9192175 L27,24 C27,25.5976809 25.75108,26.9036609 24.1762728,26.9949073 L24,27 L18.9192175,27.0001048 C18.3253424,28.5528756 18,30.2384439 18,32 C18,39.7319865 24.2680135,46 32,46 C39.7319865,46 46,39.7319865 46,32 C46,24.2680135 39.7319865,18 32,18 Z M23.2445885,34.0927751 C25.9092748,35.3173805 28.8749202,36 32,36 C35.124816,36 38.0902245,35.3174957 40.7552889,34.0934239 C39.8114592,38.05456 36.2497018,41 32,41 C27.7499389,41 24.1879385,38.0540618 23.2445885,34.0927751 Z M27.2945668,37.4705402 C28.6150562,38.4324635 30.2412505,39 32,39 C33.4285844,39 34.7697106,38.6255468 35.9305829,37.9694358 L36.1952345,37.813068 L36.4532332,37.6469539 L36.7043254,37.471347 L36.4389891,37.5299553 L35.8998861,37.6385605 L35.3558948,37.7333054 C34.2631514,37.9088073 33.1422253,38 32,38 C30.3820261,38 28.8067891,37.8170217 27.2945668,37.4705402 Z M27,27 C28.6568542,27 30,28.3431458 30,30 C30,30.350972 29.9397302,30.6878673 29.8289758,31.0009007 C29.4175144,29.8348501 28.3062521,29 27,29 C25.6937479,29 24.5824856,29.8348501 24.1706743,31.0000889 C24.0602698,30.6878673 24,30.350972 24,30 C24,28.3431458 25.3431458,27 27,27 Z M37,27 C38.6568542,27 40,28.3431458 40,30 C40,30.350972 39.9397302,30.6878673 39.8289758,31.0009007 C39.4175144,29.8348501 38.3062521,29 37,29 C35.6937479,29 34.5824856,29.8348501 34.1706743,31.0000889 C34.0602698,30.6878673 34,30.350972 34,30 C34,28.3431458 35.3431458,27 37,27 Z M25,17 L17,25 L24,25 C24.5128358,25 24.9355072,24.6139598 24.9932723,24.1166211 L25,24 L25,17 Z" id="Shape" fill="url(#linearGradient-1)"></path>
    </g>
</svg>