<?xml version="1.0" encoding="UTF-8"?>
<svg width="64px" height="64px" viewBox="0 0 64 64" version="1.1" xmlns="http://www.w3.org/2000/svg" xmlns:xlink="http://www.w3.org/1999/xlink">
    <!-- Generator: Sketch 60.1 (88133) - https://sketch.com -->
    <title>tasks/regular</title>
    <desc>Created with Sketch.</desc>
    <defs>
        <linearGradient x1="53.9313991%" y1="33.2515212%" x2="17.6270745%" y2="114.378556%" id="linearGradient-1">
            <stop stop-color="#14B0BB" offset="0%"></stop>
            <stop stop-color="#517EC2" offset="100%"></stop>
        </linearGradient>
    </defs>
    <g id="tasks/regular" stroke="none" stroke-width="1" fill="none" fill-rule="evenodd">
        <path d="M34,6 C34.5522847,6 35,6.44771525 35,7 L35,9 L39,9 L39,10 L45,10 C47.209139,10 49,11.790861 49,14 L49,52 C49,54.209139 47.209139,56 45,56 L19,56 C16.790861,56 15,54.209139 15,52 L15,14 C15,11.790861 16.790861,10 19,10 L25,10 L25,9 L29,9 L29,7 C29,6.44771525 29.4477153,6 30,6 L34,6 Z M25,12 L19,12 C17.9456382,12 17.0818349,12.8159307 17.0054857,13.8507906 L17,14.0000529 L17,52.0000529 C17,53.0544147 17.8158778,53.9182181 18.8507377,53.9945672 L19,54.0000529 L45,54.0000529 C46.0543618,54.0000529 46.9181651,53.1841751 46.9945143,52.1493153 L47,52.0000529 L47,14.0000529 C47,12.9456911 46.1841222,12.0818878 45.1492623,12.0055387 L45,12 L39,12 L39,13.0000529 L38.9945143,13.1493153 C38.9219826,14.1324321 38.1387735,14.9179177 37.1566505,14.9940085 L37,15.0000529 L27,15.0000529 L26.8507377,14.9945672 C25.8676208,14.9220355 25.0821352,14.1388264 25.0060445,13.1567034 L25,13.0000529 L25,12 Z M27,41 C28.0543618,41 28.9181651,41.8158778 28.9945143,42.8507377 L29,43 L29,49 L28.9945143,49.1492623 C28.9219826,50.1323792 28.1387735,50.9178648 27.1566505,50.9939555 L27,51 L21,51 L20.8507377,50.9945143 C19.8676208,50.9219826 19.0821352,50.1387735 19.0060445,49.1566505 L19,49 L19,43 L19.0054857,42.8507377 C19.0780174,41.8676208 19.8612265,41.0821352 20.8433495,41.0060445 L21,41 L27,41 Z M27,43 L21,43 L21,49 L27,49 L27,43 Z M25.3036717,44.1803862 C25.4282267,44.1039521 25.591567,44.1045662 25.7179643,44.1948499 C25.8249673,44.2712807 25.8797676,44.3935982 25.8747078,44.5158579 L25.8644274,44.5888393 L25.839413,44.6596015 L25.8051501,44.7179643 L23.6728518,47.7031819 L22.234835,46.265165 L22.1810382,46.1973619 L22.1451738,46.1216005 C22.1003432,45.990468 22.1302302,45.8394397 22.234835,45.734835 C22.3278169,45.641853 22.4574793,45.6079072 22.5772438,45.6329976 L22.6475421,45.6551361 L22.7132291,45.6914434 L22.765165,45.734835 L23.577,46.54675 L25.1948499,44.2820357 L25.2449769,44.2249656 L25.3036717,44.1803862 Z M44,45.000205 C44.5522847,45.000205 45,45.4479203 45,46.000205 C45,46.5130409 44.6139598,46.9357122 44.1166211,46.9934773 L44,47.000205 L32,47.000205 L31.8833789,46.9934773 C31.3860402,46.9357122 31,46.5130409 31,46.000205 C31,45.4873692 31.3860402,45.0646979 31.8833789,45.0069328 L32,45.000205 L44,45.000205 Z M27,29 C28.0543618,29 28.9181651,29.8158778 28.9945143,30.8507377 L29,31 L29,37 L28.9945143,37.1492623 C28.9219826,38.1323792 28.1387735,38.9178648 27.1566505,38.9939555 L27,39 L21,39 L20.8507377,38.9945143 C19.8676208,38.9219826 19.0821352,38.1387735 19.0060445,37.1566505 L19,37 L19,31 L19.0054857,30.8507377 C19.0780174,29.8676208 19.8612265,29.0821352 20.8433495,29.0060445 L21,29 L27,29 Z M27,31 L21,31 L21,37 L27,37 L27,31 Z M25.3036717,32.1803862 C25.4282267,32.1039521 25.591567,32.1045662 25.7179643,32.1948499 C25.8249673,32.2712807 25.8797676,32.3935982 25.8747078,32.5158579 L25.8644274,32.5888393 L25.839413,32.6596015 L25.8051501,32.7179643 L23.6728518,35.7031819 L22.234835,34.265165 L22.1810382,34.1973619 L22.1451738,34.1216005 C22.1003432,33.990468 22.1302302,33.8394397 22.234835,33.734835 C22.3278169,33.641853 22.4574793,33.6079072 22.5772438,33.6329976 L22.6475421,33.6551361 L22.7132291,33.6914434 L22.765165,33.734835 L23.577,34.54675 L25.1948499,32.2820357 L25.2449769,32.2249656 L25.3036717,32.1803862 Z M44,33.000205 C44.5522847,33.000205 45,33.4479203 45,34.000205 C45,34.5130409 44.6139598,34.9357122 44.1166211,34.9934773 L44,35.000205 L32,35.000205 L31.8833789,34.9934773 C31.3860402,34.9357122 31,34.5130409 31,34.000205 C31,33.4873692 31.3860402,33.0646979 31.8833789,33.0069328 L32,33.000205 L44,33.000205 Z M27,17 C28.0543618,17 28.9181651,17.8158778 28.9945143,18.8507377 L29,19 L29,25 L28.9945143,25.1492623 C28.9219826,26.1323792 28.1387735,26.9178648 27.1566505,26.9939555 L27,27 L21,27 L20.8507377,26.9945143 C19.8676208,26.9219826 19.0821352,26.1387735 19.0060445,25.1566505 L19,25 L19,19 L19.0054857,18.8507377 C19.0780174,17.8676208 19.8612265,17.0821352 20.8433495,17.0060445 L21,17 L27,17 Z M27,19 L21,19 L21,25 L27,25 L27,19 Z M25.3036717,20.1803862 C25.4282267,20.1039521 25.591567,20.1045662 25.7179643,20.1948499 C25.8249673,20.2712807 25.8797676,20.3935982 25.8747078,20.5158579 L25.8644274,20.5888393 L25.839413,20.6596015 L25.8051501,20.7179643 L23.6728518,23.7031819 L22.234835,22.265165 L22.1810382,22.1973619 L22.1451738,22.1216005 C22.1003432,21.990468 22.1302302,21.8394397 22.234835,21.734835 C22.3278169,21.641853 22.4574793,21.6079072 22.5772438,21.6329976 L22.6475421,21.6551361 L22.7132291,21.6914434 L22.765165,21.734835 L23.577,22.54675 L25.1948499,20.2820357 L25.2449769,20.2249656 L25.3036717,20.1803862 Z M44,21.000205 C44.5522847,21.000205 45,21.4479203 45,22.000205 C45,22.5130409 44.6139598,22.9357122 44.1166211,22.9934773 L44,23.000205 L32,23.000205 L31.8833789,22.9934773 C31.3860402,22.9357122 31,22.5130409 31,22.000205 C31,21.4873692 31.3860402,21.0646979 31.8833789,21.0069328 L32,21.000205 L44,21.000205 Z M37,11 L27,11 L27,13 L37,13 L37,11 Z M33,8 L31,8 L31,9 L33,9 L33,8 Z" id="Shape" fill="url(#linearGradient-1)"></path>
    </g>
</svg>