<?xml version="1.0" encoding="UTF-8"?>
<svg width="64px" height="64px" viewBox="0 0 64 64" version="1.1" xmlns="http://www.w3.org/2000/svg" xmlns:xlink="http://www.w3.org/1999/xlink">
    <!-- Generator: Sketch 60.1 (88133) - https://sketch.com -->
    <title>vote/regular</title>
    <desc>Created with Sketch.</desc>
    <defs>
        <linearGradient x1="54.3756394%" y1="33.2515212%" x2="13.9689981%" y2="114.378556%" id="linearGradient-1">
            <stop stop-color="#14B0BB" offset="0%"></stop>
            <stop stop-color="#517EC2" offset="100%"></stop>
        </linearGradient>
    </defs>
    <g id="vote/regular" stroke="none" stroke-width="1" fill="none" fill-rule="evenodd">
        <path d="M45,10 C47.209139,10 49,11.790861 49,14 L49,52 C49,54.209139 47.209139,56 45,56 L20,56 C17.790861,56 16,54.209139 16,52 L16,14 C16,11.790861 17.790861,10 20,10 L45,10 Z M45,12 L20,12 C18.9456382,12 18.0818349,12.8158778 18.0054857,13.8507377 L18,14 L18,52 C18,53.0543618 18.8158778,53.9181651 19.8507377,53.9945143 L20,54 L45,54 C46.0543618,54 46.9181651,53.1841222 46.9945143,52.1492623 L47,52 L47,14 C47,12.9456382 46.1841222,12.0818349 45.1492623,12.0054857 L45,12 Z M25,46 C25.5128358,46 25.9355072,46.3860402 25.9932723,46.8833789 L26,47 L26,51 L25.9932723,51.1166211 C25.9399506,51.575703 25.575703,51.9399506 25.1166211,51.9932723 L25,52 L21,52 L20.8833789,51.9932723 C20.424297,51.9399506 20.0600494,51.575703 20.0067277,51.1166211 L20,51 L20,47 L20.0067277,46.8833789 C20.0600494,46.424297 20.424297,46.0600494 20.8833789,46.0067277 L21,46 L25,46 Z M44.5131515,48.0526316 C44.7586114,48.0526316 44.9627599,48.2295067 45.0050959,48.4627559 L45.0131515,48.5526316 L45.0131515,49.5526316 L45.0050959,49.6425072 C44.9680519,49.8466003 44.8071202,50.0075319 44.6030272,50.0445759 L44.5131515,50.0526316 L28.5131515,50.0526316 L28.4232759,50.0445759 C28.2191829,50.0075319 28.0582512,49.8466003 28.0212072,49.6425072 L28.0131515,49.5526316 L28.0131515,48.5526316 L28.0212072,48.4627559 C28.0582512,48.2586629 28.2191829,48.0977312 28.4232759,48.0606872 L28.5131515,48.0526316 L44.5131515,48.0526316 Z M24,48 L22,48 L22,50 L24,50 L24,48 Z M25,38 C25.5128358,38 25.9355072,38.3860402 25.9932723,38.8833789 L26,39 L26,43 L25.9932723,43.1166211 C25.9399506,43.575703 25.575703,43.9399506 25.1166211,43.9932723 L25,44 L21,44 L20.8833789,43.9932723 C20.424297,43.9399506 20.0600494,43.575703 20.0067277,43.1166211 L20,43 L20,39 L20.0067277,38.8833789 C20.0600494,38.424297 20.424297,38.0600494 20.8833789,38.0067277 L21,38 L25,38 Z M44.5,40 C44.7454599,40 44.9496084,40.1768752 44.9919443,40.4101244 L45,40.5 L45,41.5 L44.9919443,41.5898756 C44.9549004,41.7939687 44.7939687,41.9549004 44.5898756,41.9919443 L44.5,42 L28.5,42 L28.4101244,41.9919443 C28.2060313,41.9549004 28.0450996,41.7939687 28.0080557,41.5898756 L28,41.5 L28,40.5 L28.0080557,40.4101244 C28.0450996,40.2060313 28.2060313,40.0450996 28.4101244,40.0080557 L28.5,40 L44.5,40 Z M24,40 L22,40 L22,42 L24,42 L24,40 Z M25,30 C25.5128358,30 25.9355072,30.3860402 25.9932723,30.8833789 L26,31 L26,35 L25.9932723,35.1166211 C25.9399506,35.575703 25.575703,35.9399506 25.1166211,35.9932723 L25,36 L21,36 L20.8833789,35.9932723 C20.424297,35.9399506 20.0600494,35.575703 20.0067277,35.1166211 L20,35 L20,31 L20.0067277,30.8833789 C20.0600494,30.424297 20.424297,30.0600494 20.8833789,30.0067277 L21,30 L25,30 Z M44.5,32 C44.7454599,32 44.9496084,32.1768752 44.9919443,32.4101244 L45,32.5 L45,33.5 L44.9919443,33.5898756 C44.9549004,33.7939687 44.7939687,33.9549004 44.5898756,33.9919443 L44.5,34 L28.5,34 L28.4101244,33.9919443 C28.2060313,33.9549004 28.0450996,33.7939687 28.0080557,33.5898756 L28,33.5 L28,32.5 L28.0080557,32.4101244 C28.0450996,32.2060313 28.2060313,32.0450996 28.4101244,32.0080557 L28.5,32 L44.5,32 Z M24,32 L22,32 L22,34 L24,34 L24,32 Z M41.9918561,15.4475158 C42.4160935,15.2641528 42.913665,15.3974767 43.1893838,15.7683924 L43.2535208,15.8660254 L45.2535208,19.330127 L45.306005,19.4344877 C45.489368,19.8587251 45.3560441,20.3562966 44.9851284,20.6320155 L44.8874954,20.6961524 L31.8971143,28.1961524 L27.9968902,27.9446152 L27.8809438,27.9303957 C27.388354,27.840742 27.0303169,27.3941017 27.0633227,26.8823291 C27.0689874,26.7944942 27.0862102,26.7079868 27.1144011,26.6250081 L27.1648399,26.5034618 L28.8971143,23 L41.8874954,15.5 L41.9918561,15.4475158 Z M42.02147,17.7320508 L29.6035584,24.9015354 L28.6650572,26.5980652 L30.6052185,26.6326277 L43.02147,19.4641016 L42.02147,17.7320508 Z M25,20 C25.5128358,20 25.9355072,20.3860402 25.9932723,20.8833789 L26,21 L26,25 L25.9932723,25.1166211 C25.9399506,25.575703 25.575703,25.9399506 25.1166211,25.9932723 L25,26 L21,26 L20.8833789,25.9932723 C20.424297,25.9399506 20.0600494,25.575703 20.0067277,25.1166211 L20,25 L20,21 L20.0067277,20.8833789 C20.0600494,20.424297 20.424297,20.0600494 20.8833789,20.0067277 L21,20 L25,20 Z M25,21 L21,21 L21,25 L25,25 L25,21 Z M24,22 L24,24 L22,24 L22,22 L24,22 Z M40.316,15 L36.737,17 L22.5131515,17 L22.4232759,16.9919443 C22.2191829,16.9549004 22.0582512,16.7939687 22.0212072,16.5898756 L22.0131515,16.5 L22.0131515,15.5 L22.0212072,15.4101244 C22.0582512,15.2060313 22.2191829,15.0450996 22.4232759,15.0080557 L22.5131515,15 L40.316,15 Z" id="Shape" fill="url(#linearGradient-1)"></path>
    </g>
</svg>