<?xml version="1.0" encoding="UTF-8"?>
<svg width="54px" height="44px" viewBox="0 0 54 44" version="1.1" xmlns="http://www.w3.org/2000/svg" xmlns:xlink="http://www.w3.org/1999/xlink">
    <!-- Generator: Sketch 61.2 (89653) - https://sketch.com -->
    <title>UIcons/chat/duotone</title>
    <desc>Created with Sketch.</desc>
    <g stroke="none" stroke-width="1" fill="none" fill-rule="evenodd">
        <g transform="translate(-208.000000, -463.000000)" fill="#FFFFFF">
            <g transform="translate(165.000000, 184.000000)">
                <g transform="translate(0.000000, 230.000000)">
                    <g transform="translate(20.000000, 21.000000)">
                        <g transform="translate(18.000000, 18.000000)">
                            <path d="M42.6666667,24 C51.5032227,24 58.6666667,29.372583 58.6666667,36 C58.6666667,40.1976488 55.7929399,43.8919014 51.4405179,46.0364843 C52.4419147,49.0076688 54.3742109,51.5529299 56.8894343,53.3269754 C51.5989436,53.2130859 47.0129204,51.0620232 44.5624066,47.9154798 C43.9395331,47.9717443 43.3074995,48 42.6666667,48 C35.4797754,48 29.3996127,44.446149 27.3799215,39.5537544 C28.2835393,39.3783578 29.1592124,39.1557416 30.0065626,38.8881669 C31.7428005,42.5408335 36.6704767,45.3333333 42.6666667,45.3333333 L43.5010229,45.3148846 L44.3225019,45.2596264 L45.7720314,45.1286896 L46.6663078,46.276971 C47.3290678,47.1279776 48.2022895,47.8882047 49.2353512,48.5271317 L49.688,48.7893333 L49.4824645,48.3513388 L49.1816711,47.6273403 L48.9135169,46.8881752 L48.1679877,44.6761603 L50.2618746,43.6444327 C53.8875094,41.857962 56,38.9860402 56,36 C56,31.0392497 50.1698893,26.6666667 42.6666667,26.6666667 L42.388551,26.6742255 C42.5337144,25.9840491 42.6236421,25.2788742 42.6545721,24.5617104 L42.6666667,24 Z M22.6666667,10.6666667 C32.2396023,10.6666667 40,16.6362033 40,24 C40,31.3637967 32.2396023,37.3333333 22.6666667,37.3333333 C20.0658908,37.3333333 17.5988986,36.8927215 15.3849606,36.1032445 C12.9685839,38.0167607 9.39120987,39.3108615 5.33333333,39.5529229 C7.47416221,37.9294056 9.10873538,35.6737222 9.95974117,33.063953 C7.08628112,30.6846765 5.33333333,27.4998086 5.33333333,24 C5.33333333,16.6362033 13.093731,10.6666667 22.6666667,10.6666667 Z M22.6666667,13.3333333 C14.4363868,13.3333333 8,18.2844001 8,24 C8,26.4006744 9.12228676,28.7155905 11.2005372,30.6105018 L11.660448,31.0100038 L13.0572274,32.1665622 L12.4950224,33.8906694 C12.4171657,34.1294316 12.3337894,34.3659015 12.2450228,34.5999141 L12.0426667,35.0933333 L12.169974,35.0315692 C12.5505048,34.8256872 12.9096494,34.6054928 13.2448755,34.3722294 L13.7294595,34.0126878 L14.8883086,33.0950012 L16.2806349,33.5914964 C18.253884,34.2951451 20.4217477,34.6666667 22.6666667,34.6666667 C30.8969465,34.6666667 37.3333333,29.7155999 37.3333333,24 C37.3333333,18.2844001 30.8969465,13.3333333 22.6666667,13.3333333 Z"></path>
                        </g>
                    </g>
                </g>
            </g>
        </g>
    </g>
</svg>