<?xml version="1.0" encoding="UTF-8"?>
<svg width="63px" height="36px" viewBox="0 0 63 36" version="1.1" xmlns="http://www.w3.org/2000/svg" xmlns:xlink="http://www.w3.org/1999/xlink">
    <!-- Generator: Sketch 61.2 (89653) - https://sketch.com -->
    <title>UIcons/group/light</title>
    <desc>Created with Sketch.</desc>
    <g stroke="none" stroke-width="1" fill="none" fill-rule="evenodd">
        <g transform="translate(-1058.000000, -234.000000)" fill="#FFFFFF">
            <g transform="translate(165.000000, 184.000000)">
                <g transform="translate(855.000000, 0.000000)">
                    <g transform="translate(20.000000, 20.000000)">
                        <g transform="translate(14.000000, 18.000000)">
                            <path d="M41.3333332,29.3333333 C45.9236988,29.3333333 49.8155283,32.7086991 50.464704,37.2529293 L51.1303455,41.9124194 C51.5469047,44.8283341 49.5207768,47.5298381 46.6048621,47.9463973 C46.3550312,47.9820874 46.1029822,48 45.8506149,48 L26.1493849,48 C23.2038662,48 20.8160515,45.6121853 20.8160515,42.6666667 C20.8160515,42.4142994 20.8339641,42.1622503 20.8696542,41.9124194 L21.5352957,37.2529293 C22.1604279,32.877004 25.7924653,29.5849638 30.1596298,29.3471116 L30.6666665,29.3333333 C32.4444443,30.2222222 34.2222221,30.6666667 35.9999999,30.6666667 C37.7777776,30.6666667 39.5555554,30.2222222 41.3333332,29.3333333 Z M41.3333332,32 C39.5555554,32.8888889 37.7777776,33.3333333 35.9999999,33.3333333 C34.4444443,33.3333333 32.8888888,32.9930556 31.3333332,32.3125 L30.6666665,32 L30.2049377,32.0162495 C27.4564108,32.2102406 25.1231213,34.1230804 24.3938669,36.7801881 L24.2873805,37.2297636 L23.3045951,42.1436903 C23.2701561,42.3158855 23.2528103,42.4910614 23.2528103,42.6666667 C23.2528103,44.0342289 24.2822508,45.1613524 25.6084873,45.3153927 L25.9194769,45.3333333 L46.0805228,45.3333333 C46.2561281,45.3333333 46.431304,45.3159875 46.6034992,45.2815485 C47.9445043,45.0133474 48.8478499,43.7828509 48.7388025,42.4521592 L48.6954046,42.1436903 L47.7126193,37.2297636 C47.1044423,34.188879 44.4344392,32 41.3333332,32 Z M22.6666667,24 C24.7184187,24 26.5696876,24.9888951 27.7258081,26.547641 L27.8914041,26.7853962 C26.9898439,26.9208713 26.1231387,27.1695443 25.3071949,27.5172705 C24.5628298,26.9802822 23.6477027,26.6666667 22.6666667,26.6666667 C20.8888889,27.5555556 19.1111111,28 17.3333333,28 C15.7777778,28 14.2222222,27.6597222 12.6666667,26.9791667 L12,26.6666667 L11.6007116,26.6840992 C9.6254492,26.8572689 7.98751821,28.3032052 7.57068463,30.2417354 L7.50386108,30.6357782 L7.04134492,34.3359074 C7.02762998,34.4456269 7.0207526,34.5560933 7.0207526,34.6666667 C7.0207526,36.0342289 8.0501931,37.1613524 9.37642959,37.3153927 L9.68741926,37.3333333 L18.7437889,37.3333333 L18.4291222,40 L10.2957889,40 C7.35027025,40 4.96245558,37.6121853 4.96245558,34.6666667 C4.96245558,34.3729021 4.98672672,34.0796397 5.03502132,33.7898721 L5.78987207,29.2607676 C6.27173773,26.3695736 8.67703371,24.2137445 11.5635877,24.0149834 L12,24 C13.7777778,24.8888889 15.5555556,25.3333333 17.3333333,25.3333333 C19.1111111,25.3333333 20.8888889,24.8888889 22.6666667,24 Z M59.9999998,24 C63.0776279,24 65.7041688,26.2250139 66.2101277,29.2607676 L66.9649785,33.7898721 C67.4492188,36.6953138 65.4864472,39.443194 62.5810055,39.9274343 C62.2912379,39.9757289 61.9979755,40 61.7042109,40 L53.5677889,40 L53.2531222,37.3333333 L62.3125806,37.3333333 C62.423154,37.3333333 62.5336204,37.3264559 62.6433399,37.312741 C64.0003416,37.1431158 64.991075,35.9818223 64.9794264,34.6467208 L64.9586549,34.3359074 L64.4961388,30.6357782 C64.2127004,28.3682707 62.2851536,26.6666667 59.9999998,26.6666667 C58.2222221,27.5555556 56.4444443,28 54.6666665,28 C53.111111,28 51.5555554,27.6597222 49.9999998,26.9791667 L49.3333332,26.6666667 L48.9340448,26.6840992 C48.1046656,26.7568102 47.3347585,27.0539122 46.6897454,27.5176521 C45.8768613,27.1695443 45.0101561,26.9208713 44.1085959,26.7853962 C45.1721977,25.203162 46.9219102,24.1509778 48.8969209,24.0149834 L49.3333331,24 C51.1111109,24.8888889 52.8888887,25.3333333 54.6666665,25.3333333 C56.4444443,25.3333333 58.222222,24.8888889 59.9999998,24 Z M36,12 C40.418278,12 44,15.581722 44,20 C44,24.418278 40.418278,28 36,28 C31.581722,28 28,24.418278 28,20 C28,15.581722 31.581722,12 36,12 Z M36,14.6666667 C33.0544813,14.6666667 30.6666667,17.0544813 30.6666667,20 C30.6666667,22.9455187 33.0544813,25.3333333 36,25.3333333 C38.9455187,25.3333333 41.3333333,22.9455187 41.3333333,20 C41.3333333,17.0544813 38.9455187,14.6666667 36,14.6666667 Z M17.3333333,13.3333333 C20.278852,13.3333333 22.6666667,15.721148 22.6666667,18.6666667 C22.6666667,21.6121853 20.278852,24 17.3333333,24 C14.3878147,24 12,21.6121853 12,18.6666667 C12,15.721148 14.3878147,13.3333333 17.3333333,13.3333333 Z M54.6666667,13.3333333 C57.6121853,13.3333333 60,15.721148 60,18.6666667 C60,21.6121853 57.6121853,24 54.6666667,24 C51.721148,24 49.3333333,21.6121853 49.3333333,18.6666667 C49.3333333,15.721148 51.721148,13.3333333 54.6666667,13.3333333 Z M17.3333333,16 C15.860574,16 14.6666667,17.1939073 14.6666667,18.6666667 C14.6666667,20.139426 15.860574,21.3333333 17.3333333,21.3333333 C18.8060927,21.3333333 20,20.139426 20,18.6666667 C20,17.1939073 18.8060927,16 17.3333333,16 Z M54.6666667,16 C53.1939073,16 52,17.1939073 52,18.6666667 C52,20.139426 53.1939073,21.3333333 54.6666667,21.3333333 C56.139426,21.3333333 57.3333333,20.139426 57.3333333,18.6666667 C57.3333333,17.1939073 56.139426,16 54.6666667,16 Z"></path>
                        </g>
                    </g>
                </g>
            </g>
        </g>
    </g>
</svg>