<?xml version="1.0" encoding="UTF-8"?>
<svg width="54px" height="62px" viewBox="0 0 54 62" version="1.1" xmlns="http://www.w3.org/2000/svg" xmlns:xlink="http://www.w3.org/1999/xlink">
    <!-- Generator: Sketch 61.2 (89653) - https://sketch.com -->
    <title>UIcons/notifications/duotone</title>
    <desc>Created with Sketch.</desc>
    <g stroke="none" stroke-width="1" fill="none" fill-rule="evenodd">
        <g transform="translate(-774.000000, -452.000000)" fill="#FFFFFF">
            <g transform="translate(165.000000, 184.000000)">
                <g transform="translate(570.000000, 230.000000)">
                    <g transform="translate(20.000000, 20.000000)">
                        <g transform="translate(18.000000, 18.000000)">
                            <path d="M25.0326456,54.7334759 L27.9113984,55.2394442 C28.5418158,56.9714955 30.0538417,58.3289411 31.9995069,58.6720143 C33.945172,59.0150876 35.8302854,58.2566494 37.0150803,56.8446689 L39.8932744,57.3538057 C38.2722543,60.2233205 34.967253,61.9012669 31.5367606,61.2963785 C28.1062683,60.6914902 25.5744744,57.9843593 25.0326456,54.7334759 Z M36.6306181,0.405126586 C39.5313877,0.916610535 41.4682864,3.6827886 40.9568025,6.58355822 C40.93635,6.69955001 40.8999192,6.80794209 40.8488535,6.9089713 C51.7884266,10.4202369 53.7644098,17.6523935 52.69409,24.4569381 L52.1520396,27.6094446 C51.2609485,32.933815 51.3349082,33.9388149 51.1569848,40.8757772 C51.0629304,44.542817 52.196284,48.3530636 54.5570456,52.3065168 L54.0939838,54.9326708 C53.8382418,56.3830556 52.4551528,57.351505 51.004768,57.095763 L3.73399586,48.7606505 C2.28361105,48.5049085 1.31516168,47.1218195 1.57090366,45.6714347 L2.03396546,43.0452807 C5.60451639,40.1376779 7.97270147,36.9448471 9.13852071,33.4667882 L10.7032775,28.8022376 L11.1023393,27.5610978 C11.7756673,25.4084063 12.1581808,23.8041792 12.740828,20.6601847 L13.2299686,17.9413951 C14.4515417,11.0135095 18.7191153,4.62271605 30.4450812,5.0705631 C30.4288954,4.96161807 30.431734,4.84730278 30.4521864,4.73131099 C30.9636704,1.83054137 33.7298485,-0.106357362 36.6306181,0.405126586 Z M15.9585144,17.8631763 L15.2360081,21.8213609 L14.9791261,23.1359227 C14.7338397,24.3481625 14.5172103,25.282411 14.2740719,26.1994409 L13.8397779,27.7991368 C13.6436609,28.4265011 13.1736868,29.8190906 11.6669291,34.3142918 C10.5083523,37.7707437 8.34770685,40.9363574 5.22645713,43.8083759 L4.49202803,44.4616364 L4.19705766,46.1344965 L51.4678298,54.469609 L51.7623371,52.7993751 L51.2960908,51.9316953 C49.4954196,48.4550693 48.5494508,45.0233106 48.4880888,41.6496111 L48.4911949,40.8074034 L48.6634982,34.3006284 L48.7059975,33.5041485 L48.7059975,33.5041485 L48.8583554,31.8526759 L49.0051371,30.5730349 C49.1205354,29.6741047 49.275002,28.6553742 49.4924214,27.3480769 L49.9961247,24.4242604 C51.4768645,16.0265677 47.5783564,10.4589211 35.2414326,8.28358861 C23.1727029,6.15554593 17.582133,9.84013427 15.9585144,17.8631763 Z"></path>
                        </g>
                    </g>
                </g>
            </g>
        </g>
    </g>
</svg>