<?xml version="1.0" encoding="UTF-8"?>
<svg width="64px" height="64px" viewBox="0 0 64 64" version="1.1" xmlns="http://www.w3.org/2000/svg" xmlns:xlink="http://www.w3.org/1999/xlink">
    <!-- Generator: Sketch 61.2 (89653) - https://sketch.com -->
    <title>UIcons/profile/duotone</title>
    <desc>Created with Sketch.</desc>
    <g stroke="none" stroke-width="1" fill="none" fill-rule="evenodd">
        <g transform="translate(-488.000000, -222.000000)" fill="#FFFFFF">
            <g transform="translate(165.000000, 184.000000)">
                <g transform="translate(285.000000, 0.000000)">
                    <g transform="translate(20.000000, 20.000000)">
                        <g transform="translate(18.000000, 18.000000)">
                            <path d="M32,0 C49.673112,0 64,14.326888 64,32 C64,49.673112 49.673112,64 32,64 C14.326888,64 0,49.673112 0,32 C0,14.326888 14.326888,0 32,0 Z M32,2.66666667 C15.7996473,2.66666667 2.66666667,15.7996473 2.66666667,32 C2.66666667,48.2003527 15.7996473,61.3333333 32,61.3333333 C48.2003527,61.3333333 61.3333333,48.2003527 61.3333333,32 C61.3333333,15.7996473 48.2003527,2.66666667 32,2.66666667 Z M38.3949701,32 C42.3761731,32 45.7515389,34.9274392 46.3145661,38.8686292 L47.1303456,44.5790861 C47.5469049,47.4950008 45.5207769,50.1965047 42.6048622,50.613064 C42.3550314,50.6487541 42.1029823,50.6666667 41.850615,50.6666667 L22.149385,50.6666667 C19.2038663,50.6666667 16.8160517,48.278852 16.8160517,45.3333333 C16.8160517,45.080966 16.8339642,44.828917 16.8696544,44.5790861 L17.6854339,38.8686292 C18.2484611,34.9274392 21.6238269,32 25.6050299,32 L38.3949701,32 Z M38.2943792,34.6666667 L25.7056208,34.6666667 C23.3045609,34.6666667 21.2187426,36.2672732 20.5743765,38.5452144 L20.4758572,38.9540473 L19.3045953,44.810357 C19.2701562,44.9825521 19.2528104,45.157728 19.2528104,45.3333333 C19.2528104,46.7008956 20.2822509,47.8280191 21.6084874,47.9820594 L21.9194771,48 L42.0805229,48 C42.2561282,48 42.4313041,47.9826542 42.6034993,47.9482151 C43.9445044,47.6800141 44.84785,46.4495175 44.7388026,45.1188259 L44.6954047,44.810357 L43.5241428,38.9540473 C43.025557,36.4611182 40.836678,34.6666667 38.2943792,34.6666667 Z M32,13.3333333 C36.418278,13.3333333 40,16.9150553 40,21.3333333 C40,25.7516113 36.418278,29.3333333 32,29.3333333 C27.581722,29.3333333 24,25.7516113 24,21.3333333 C24,16.9150553 27.581722,13.3333333 32,13.3333333 Z M32,16 C29.0544813,16 26.6666667,18.3878147 26.6666667,21.3333333 C26.6666667,24.278852 29.0544813,26.6666667 32,26.6666667 C34.9455187,26.6666667 37.3333333,24.278852 37.3333333,21.3333333 C37.3333333,18.3878147 34.9455187,16 32,16 Z"></path>
                        </g>
                    </g>
                </g>
            </g>
        </g>
    </g>
</svg>