<?xml version="1.0" encoding="UTF-8"?>
<svg width="54px" height="54px" viewBox="0 0 54 54" version="1.1" xmlns="http://www.w3.org/2000/svg" xmlns:xlink="http://www.w3.org/1999/xlink">
    <!-- Generator: Sketch 61.2 (89653) - https://sketch.com -->
    <title>UIcons/sign-in/light</title>
    <desc>Created with Sketch.</desc>
    <g stroke="none" stroke-width="1" fill="none" fill-rule="evenodd">
        <g transform="translate(-208.000000, -227.000000)" fill="#FFFFFF">
            <g transform="translate(165.000000, 184.000000)">
                <g>
                    <g transform="translate(20.000000, 20.000000)">
                        <g transform="translate(18.000000, 18.000000)">
                            <path d="M56,5.33333333 C57.3675622,5.33333333 58.4946858,6.36277384 58.648726,7.68901033 L58.6666667,8 L58.6666667,56 C58.6666667,57.3675622 57.6372262,58.4946858 56.3109897,58.648726 L56,58.6666667 L38.6666667,58.6666667 C37.930287,58.6666667 37.3333333,58.069713 37.3333333,57.3333333 C37.3333333,56.5969537 37.930287,56 38.6666667,56 L56,56 L56,8 L38.6666667,8 C37.930287,8 37.3333333,7.40304633 37.3333333,6.66666667 C37.3333333,5.930287 37.930287,5.33333333 38.6666667,5.33333333 L56,5.33333333 Z M29.3333333,9.61588861 C30.0892973,9.61588861 30.8097378,9.93674569 31.3154511,10.4986493 L50.6666667,32 L31.3154511,53.5013507 C30.330227,54.5960441 28.6441208,54.6847865 27.5494274,53.6995625 C26.9875238,53.1938492 26.6666667,52.4734087 26.6666667,51.7174447 L26.6666667,42.6666667 L10.6666667,42.6666667 C7.721148,42.6666667 5.33333333,40.278852 5.33333333,37.3333333 L5.33333333,26.6666667 C5.33333333,23.721148 7.721148,21.3333333 10.6666667,21.3333333 L26.6666667,21.3333333 L26.6666667,12.2825553 C26.6666667,10.8097959 27.860574,9.61588861 29.3333333,9.61588861 Z M29.3333333,12 L29.3333333,24 L10.6666667,24 C9.29910443,24 8.1719809,25.0294405 8.01794062,26.355677 L8,26.6666667 L8,37.3333333 C8,38.7008956 9.02944051,39.8280191 10.355677,39.9820594 L10.6666667,40 L29.3333333,40 L29.3333333,52 L46.6666667,32 L29.3333333,12 Z"></path>
                        </g>
                    </g>
                </g>
            </g>
        </g>
    </g>
</svg>