<?xml version="1.0" encoding="UTF-8"?>
<svg width="56px" height="53px" viewBox="0 0 56 53" version="1.1" xmlns="http://www.w3.org/2000/svg" xmlns:xlink="http://www.w3.org/1999/xlink">
    <!-- Generator: Sketch 61.2 (89653) - https://sketch.com -->
    <title>UIcons/star/light</title>
    <desc>Created with Sketch.</desc>
    <g stroke="none" stroke-width="1" fill="none" fill-rule="evenodd">
        <g transform="translate(-492.000000, -458.000000)" fill="#FFFFFF">
            <g transform="translate(165.000000, 184.000000)">
                <g transform="translate(285.000000, 230.000000)">
                    <g transform="translate(20.000000, 20.000000)">
                        <g transform="translate(18.000000, 18.000000)">
                            <path d="M33.1801752,6.30084103 C33.7060755,6.56038833 34.1317489,6.98606172 34.3912962,7.511962 L41.404564,21.7223948 L57.0867077,24.0011436 C58.5441606,24.2129239 59.5539778,25.5661049 59.3421975,27.0235578 C59.2578655,27.6039232 58.9845663,28.140303 58.56461,28.5496593 L47.2169043,39.6109386 L49.8957342,55.2297156 C50.1446969,56.6812794 49.169796,58.0598286 47.7182322,58.3087913 C47.1402118,58.4079295 46.5456303,58.313757 46.0265357,58.0408529 L32,50.6666667 L17.9734643,58.0408529 C16.6698788,58.7261883 15.0575397,58.2249976 14.3722042,56.9214121 C14.0993,56.4023175 14.0051276,55.8077359 14.1042658,55.2297156 L16.7830957,39.6109386 L5.43539001,28.5496593 C4.38076714,27.5216561 4.35918766,25.833354 5.38719089,24.7787311 C5.79654717,24.3587748 6.33292693,24.0854756 6.91329235,24.0011436 L22.595436,21.7223948 L29.6087038,7.511962 C30.2604966,6.19128558 31.8594988,5.64904825 33.1801752,6.30084103 Z M32,8 L24.1628633,23.8797734 L6.6384929,26.4262135 L19.3192464,38.7868933 L16.3257266,56.2404532 L32,48 L47.6742734,56.2404532 L44.6807536,38.7868933 L57.3615071,26.4262135 L39.8371367,23.8797734 L32,8 Z"></path>
                        </g>
                    </g>
                </g>
            </g>
        </g>
    </g>
</svg>