<?xml version="1.0" encoding="UTF-8"?>
<svg width="63px" height="37px" viewBox="0 0 63 37" version="1.1" xmlns="http://www.w3.org/2000/svg" xmlns:xlink="http://www.w3.org/1999/xlink">
    <!-- Generator: Sketch 61.2 (89653) - https://sketch.com -->
    <title>UIcons/team/light</title>
    <desc>Created with Sketch.</desc>
    <g stroke="none" stroke-width="1" fill="none" fill-rule="evenodd">
        <g transform="translate(-773.000000, -236.000000)" fill="#FFFFFF">
            <g transform="translate(165.000000, 184.000000)">
                <g transform="translate(570.000000, 0.000000)">
                    <g transform="translate(20.000000, 20.000000)">
                        <g transform="translate(14.000000, 18.000000)">
                            <path d="M41.3333332,32 C45.9236988,32 49.8155283,35.3753658 50.464704,39.9195959 L51.1303455,44.5790861 C51.5469047,47.4950008 49.5207768,50.1965047 46.6048621,50.613064 C46.3550312,50.6487541 46.1029822,50.6666667 45.8506149,50.6666667 L26.1493849,50.6666667 C23.2038662,50.6666667 20.8160515,48.278852 20.8160515,45.3333333 C20.8160515,45.080966 20.8339641,44.828917 20.8696542,44.5790861 L21.5352957,39.9195959 C22.1604279,35.5436706 25.7924653,32.2516305 30.1596298,32.0137783 L30.6666665,32 L35.9999999,36 L41.3333332,32 Z M41.3333332,34.6666667 L35.9999999,38.6666667 L30.6666665,34.6666667 L30.2049377,34.6829162 C27.4564108,34.8769073 25.1231213,36.7897471 24.3938669,39.4468547 L24.2873805,39.8964303 L23.3045951,44.810357 C23.2701561,44.9825521 23.2528103,45.157728 23.2528103,45.3333333 C23.2528103,46.7008956 24.2822508,47.8280191 25.6084873,47.9820594 L25.9194769,48 L35.9999999,48 L34.6666665,46.6666667 L35.9999999,38.6666667 L37.3333332,46.6666667 L35.9999999,48 L46.0805228,48 C46.2561281,48 46.431304,47.9826542 46.6034992,47.9482151 C47.9445043,47.6800141 48.8478499,46.4495175 48.7388025,45.1188259 L48.6954046,44.810357 L47.7126193,39.8964303 C47.1044423,36.8555457 44.4344392,34.6666667 41.3333332,34.6666667 Z M22.6666667,26.6666667 C24.8649725,26.6666667 26.8331317,27.8018778 27.962728,29.5568942 L28.154815,29.8807046 C27.3204489,30.010805 26.5154664,30.2383032 25.7529653,30.5520516 C24.9417762,29.7914458 23.8523596,29.3333333 22.6666666,29.3333333 L17.3333333,33.3333333 L12,29.3333333 L11.6007116,29.3507659 C9.62544917,29.5239355 7.98751818,30.9698719 7.5706846,32.9084021 L7.50386104,33.3024448 L7.04134489,37.002574 C7.02762995,37.1122936 7.02075257,37.2227599 7.02075257,37.3333333 C7.02075257,38.7008956 8.05019307,39.8280191 9.37642956,39.9820594 L9.68741923,40 L19.1144556,40 L18.7997889,42.6666667 L10.2957889,42.6666667 C7.35027025,42.6666667 4.96245558,40.278852 4.96245558,37.3333333 C4.96245558,37.0395687 4.98672672,36.7463063 5.03502132,36.4565387 L5.78987207,31.9274343 C6.27173773,29.0362403 8.67703371,26.8804112 11.5635877,26.6816501 L12,26.6666667 L17.3333333,30.6666667 L22.6666667,26.6666667 Z M59.9999998,26.6666667 C63.0776279,26.6666667 65.7041688,28.8916806 66.2101277,31.9274343 L66.9649785,36.4565387 C67.4492188,39.3619804 65.4864472,42.1098606 62.5810055,42.5941009 C62.2912379,42.6423955 61.9979755,42.6666667 61.7042109,42.6666667 L53.2877889,42.6666667 L52.7864556,40 L62.3125806,40 C62.423154,40 62.5336203,39.9931226 62.6433399,39.9794077 C64.0003416,39.8097825 64.991075,38.6484889 64.9794264,37.3133875 L64.9586549,37.002574 L64.4961388,33.3024448 C64.2127003,31.0349374 62.2851536,29.3333333 59.9999998,29.3333333 L54.6666665,33.3333333 L49.3333332,29.3333333 L48.9340448,29.3507659 C47.7038063,29.4586199 46.6044214,30.0601906 45.8494064,30.9669898 C45.1315369,30.6942414 44.3742269,30.500201 43.5914564,30.39119 C44.5221519,28.2979155 46.5505407,26.8432161 48.8969209,26.6816501 L49.3333331,26.6666667 L54.6666665,30.6666667 L59.9999998,26.6666667 Z M54.6666665,33.3333333 L55.9999998,38.6666666 L54.6666665,40 L53.3333332,38.6666667 L54.6666665,33.3333333 Z M36,14.6666667 C40.418278,14.6666667 44,18.2483887 44,22.6666667 C44,27.0849447 40.418278,30.6666667 36,30.6666667 C31.581722,30.6666667 28,27.0849447 28,22.6666667 C28,18.2483887 31.581722,14.6666667 36,14.6666667 Z M36,17.3333333 C33.0544813,17.3333333 30.6666667,19.721148 30.6666667,22.6666667 C30.6666667,25.6121853 33.0544813,28 36,28 C38.9455187,28 41.3333333,25.6121853 41.3333333,22.6666667 C41.3333333,19.721148 38.9455187,17.3333333 36,17.3333333 Z M17.3333333,16 C20.278852,16 22.6666667,18.3878147 22.6666667,21.3333333 C22.6666667,24.278852 20.278852,26.6666667 17.3333333,26.6666667 C14.3878147,26.6666667 12,24.278852 12,21.3333333 C12,18.3878147 14.3878147,16 17.3333333,16 Z M54.6666667,16 C57.6121853,16 60,18.3878147 60,21.3333333 C60,24.278852 57.6121853,26.6666667 54.6666667,26.6666667 C51.721148,26.6666667 49.3333333,24.278852 49.3333333,21.3333333 C49.3333333,18.3878147 51.721148,16 54.6666667,16 Z M17.3333333,18.6666667 C15.860574,18.6666667 14.6666667,19.860574 14.6666667,21.3333333 C14.6666667,22.8060927 15.860574,24 17.3333333,24 C18.8060927,24 20,22.8060927 20,21.3333333 C20,19.860574 18.8060927,18.6666667 17.3333333,18.6666667 Z M54.6666667,18.6666667 C53.1939073,18.6666667 52,19.860574 52,21.3333333 C52,22.8060927 53.1939073,24 54.6666667,24 C56.139426,24 57.3333333,22.8060927 57.3333333,21.3333333 C57.3333333,19.860574 56.139426,18.6666667 54.6666667,18.6666667 Z"></path>
                        </g>
                    </g>
                </g>
            </g>
        </g>
    </g>
</svg>