<?xml version="1.0" encoding="UTF-8"?>
<svg width="869px" height="666px" viewBox="0 0 869 666" version="1.1" xmlns="http://www.w3.org/2000/svg" xmlns:xlink="http://www.w3.org/1999/xlink">
    <!-- Generator: Sketch 60.1 (88133) - https://sketch.com -->
    <title>illustrations/discussion</title>
    <desc>Created with Sketch.</desc>
    <defs>
        <linearGradient x1="-355.149975%" y1="178.316511%" x2="1483.52694%" y2="-403.930035%" id="linearGradient-1">
            <stop stop-color="#00AFBA" offset="0%"></stop>
            <stop stop-color="#6E68C6" offset="100%"></stop>
        </linearGradient>
        <linearGradient x1="-316.268764%" y1="206.52826%" x2="1348.44713%" y2="-503.636796%" id="linearGradient-2">
            <stop stop-color="#00AFBA" offset="0%"></stop>
            <stop stop-color="#6E68C6" offset="100%"></stop>
        </linearGradient>
        <linearGradient x1="-44.4840975%" y1="36.1755167%" x2="757.085399%" y2="175.966285%" id="linearGradient-3">
            <stop stop-color="#00AFBA" offset="0%"></stop>
            <stop stop-color="#6E68C6" offset="100%"></stop>
        </linearGradient>
        <linearGradient x1="13.2140502%" y1="87.2261814%" x2="340.276188%" y2="-226.805763%" id="linearGradient-4">
            <stop stop-color="#00AFBA" offset="0%"></stop>
            <stop stop-color="#6E68C6" offset="100%"></stop>
        </linearGradient>
        <linearGradient x1="208.332241%" y1="-41.8907321%" x2="-580.192242%" y2="413.821036%" id="linearGradient-5">
            <stop stop-color="#00AFBA" offset="0%"></stop>
            <stop stop-color="#6E68C6" offset="100%"></stop>
        </linearGradient>
        <linearGradient x1="0.00432905536%" y1="49.9916608%" x2="99.9993056%" y2="49.9916608%" id="linearGradient-6">
            <stop stop-color="#00AFBA" offset="0%"></stop>
            <stop stop-color="#6E68C6" offset="100%"></stop>
        </linearGradient>
        <linearGradient x1="-0.0011223084%" y1="50.001204%" x2="100.008279%" y2="50.001204%" id="linearGradient-7">
            <stop stop-color="#00AFBA" offset="0%"></stop>
            <stop stop-color="#6E68C6" offset="100%"></stop>
        </linearGradient>
        <linearGradient x1="-0.937915937%" y1="50.0158494%" x2="100.887303%" y2="50.0158494%" id="linearGradient-8">
            <stop stop-color="#00AFBA" offset="0%"></stop>
            <stop stop-color="#6E68C6" offset="100%"></stop>
        </linearGradient>
        <linearGradient x1="-0.945008757%" y1="49.9589317%" x2="100.880298%" y2="49.9589317%" id="linearGradient-9">
            <stop stop-color="#00AFBA" offset="0%"></stop>
            <stop stop-color="#6E68C6" offset="100%"></stop>
        </linearGradient>
        <linearGradient x1="-334.18378%" y1="50.0040383%" x2="726.024554%" y2="50.0040383%" id="linearGradient-10">
            <stop stop-color="#00AFBA" offset="0%"></stop>
            <stop stop-color="#6E68C6" offset="100%"></stop>
        </linearGradient>
        <linearGradient x1="-0.34374519%" y1="50.0385221%" x2="100.339943%" y2="50.0385221%" id="linearGradient-11">
            <stop stop-color="#00AFBA" offset="0%"></stop>
            <stop stop-color="#6E68C6" offset="100%"></stop>
        </linearGradient>
        <linearGradient x1="0.00293609672%" y1="49.7310345%" x2="100.018653%" y2="49.7310345%" id="linearGradient-12">
            <stop stop-color="#00AFBA" offset="0%"></stop>
            <stop stop-color="#6E68C6" offset="100%"></stop>
        </linearGradient>
        <linearGradient x1="-0.945008757%" y1="50.0029772%" x2="100.880298%" y2="50.0029772%" id="linearGradient-13">
            <stop stop-color="#00AFBA" offset="0%"></stop>
            <stop stop-color="#6E68C6" offset="100%"></stop>
        </linearGradient>
        <linearGradient x1="-334.18378%" y1="49.9512221%" x2="722.756994%" y2="49.9512221%" id="linearGradient-14">
            <stop stop-color="#00AFBA" offset="0%"></stop>
            <stop stop-color="#6E68C6" offset="100%"></stop>
        </linearGradient>
        <linearGradient x1="-0.34374519%" y1="49.995206%" x2="100.339943%" y2="49.995206%" id="linearGradient-15">
            <stop stop-color="#00AFBA" offset="0%"></stop>
            <stop stop-color="#6E68C6" offset="100%"></stop>
        </linearGradient>
        <linearGradient x1="0.00293609672%" y1="49.1597701%" x2="100.018653%" y2="49.1597701%" id="linearGradient-16">
            <stop stop-color="#00AFBA" offset="0%"></stop>
            <stop stop-color="#6E68C6" offset="100%"></stop>
        </linearGradient>
        <linearGradient x1="-857.392113%" y1="49.9669501%" x2="216.21875%" y2="49.9669501%" id="linearGradient-17">
            <stop stop-color="#00AFBA" offset="0%"></stop>
            <stop stop-color="#6E68C6" offset="100%"></stop>
        </linearGradient>
        <linearGradient x1="-0.328471526%" y1="50.0080178%" x2="100.35525%" y2="50.0080178%" id="linearGradient-18">
            <stop stop-color="#00AFBA" offset="0%"></stop>
            <stop stop-color="#6E68C6" offset="100%"></stop>
        </linearGradient>
        <linearGradient x1="-0.018019574%" y1="49.3287356%" x2="99.9977547%" y2="49.3287356%" id="linearGradient-19">
            <stop stop-color="#00AFBA" offset="0%"></stop>
            <stop stop-color="#6E68C6" offset="100%"></stop>
        </linearGradient>
        <linearGradient x1="-0.886426117%" y1="50.0156304%" x2="100.836684%" y2="50.0156304%" id="linearGradient-20">
            <stop stop-color="#00AFBA" offset="0%"></stop>
            <stop stop-color="#6E68C6" offset="100%"></stop>
        </linearGradient>
        <linearGradient x1="-0.919349315%" y1="50.0028351%" x2="100.856164%" y2="50.0028351%" id="linearGradient-21">
            <stop stop-color="#00AFBA" offset="0%"></stop>
            <stop stop-color="#6E68C6" offset="100%"></stop>
        </linearGradient>
        <linearGradient x1="-0.919006849%" y1="50.02689%" x2="100.856164%" y2="50.02689%" id="linearGradient-22">
            <stop stop-color="#00AFBA" offset="0%"></stop>
            <stop stop-color="#6E68C6" offset="100%"></stop>
        </linearGradient>
    </defs>
    <g id="illustrations/discussion" stroke="none" stroke-width="1" fill="none" fill-rule="evenodd">
        <g id="1">
            <path d="M452.1,60.2 C453,66 445.6,72.3 435.4,74.2 C425.3,76.1 416.3,72.9 415.4,67 C414.5,61.1 421.9,54.9 432.1,53 C442.2,51.1 451.1,54.3 452.1,60.2 Z" id="Path" fill="url(#linearGradient-1)" fill-rule="nonzero" opacity="0.28"></path>
            <path d="M558.5,640.3 C560.3,644.4 555.4,649.9 547.6,652.6 C539.7,655.3 531.9,654.2 530,650.1 C528.2,646 533.1,640.5 540.9,637.8 C548.8,635 556.7,636.2 558.5,640.3 Z" id="Path" fill="url(#linearGradient-2)" fill-rule="nonzero" opacity="0.28"></path>
            <path d="M318.4,78.7 C318.4,78.7 327.4,46.9 362.8,54.4 C398.2,61.9 410.6,75.8 386.3,85 C361.9,94.3 314.9,121.6 318.4,78.7 Z" id="Path" fill="url(#linearGradient-3)" fill-rule="nonzero" opacity="0.28"></path>
            <path d="M589.3,633.7 C589.3,633.7 634.4,621.2 651.7,597.1 C669,573 661.4,566.7 632.1,586 C602.7,605.3 534.7,644.4 589.3,633.7 Z" id="Path" fill="url(#linearGradient-4)" fill-rule="nonzero" opacity="0.28"></path>
            <path d="M693.4,440.8 C703.2,434 716.2,434.4 718.2,441.5 C721.6,453.5 722,473.6 699.2,494.1 C663.2,526.6 648.4,494.2 675.4,466.6 C694.9,446.6 685.1,446.6 693.4,440.8 Z" id="Path" fill="url(#linearGradient-5)" fill-rule="nonzero" opacity="0.28"></path>
            <path d="M8.2,379.6 C-1.6,338.5 -25.6,182.9 130.8,163.7 C457.8,123.5 655.6,-41.4 819.5,128.8 C961.1,275.8 586,664.5 335.3,637.4 C84.7,610.2 34.3,489.4 8.2,379.6 Z" id="Path" fill="url(#linearGradient-6)" fill-rule="nonzero" opacity="0.28"></path>
            <path d="M25.2,441.3 C25.2,441.3 50.6,345.8 61.2,300.6 C65.4,282.8 71.1,235.3 101,229.7 C124.6,225.2 146,242.9 145.4,263.2 C144.1,307.4 74.5,456.7 74.5,456.7" id="Path" fill="#131313" fill-rule="nonzero"></path>
            <path d="M253.3,206.5 L216.3,242.6 L170.9,206.5 C170.9,206.5 189.2,186.3 179.4,140.6 C173.2,111.7 247.5,97.2 245.6,140.6 C242.9,202.2 253.3,206.5 253.3,206.5 Z" id="Path" fill="#E19A74" fill-rule="nonzero"></path>
            <path d="M327.4,561.5 L208.8,559 L208.7,559 L94.2,561.2 C135.8,598.4 197.6,626.8 292.1,638.2 C303.5,639.6 315.2,639.8 327.2,639.1 C327.4,634.8 327.5,630.9 327.5,627.6 C327.5,612.7 327.4,561.5 327.4,561.5 Z" id="Path" fill="#00323D" fill-rule="nonzero"></path>
            <path d="M392,440.4 C392,440.4 366.6,344.9 356,299.7 C351.8,281.9 346.1,234.4 316.2,228.8 C292.6,224.3 271.2,242 271.8,262.3 C273.1,306.5 342.7,455.8 342.7,455.8" id="Path" fill="#131313" fill-rule="nonzero"></path>
            <path d="M212.5,17.8 L212.5,17.8 C158.6,17.8 143.7,62.5 148.6,103.2 C149.9,114.3 152.5,124.3 155.8,133 C160,145.7 165.5,158.1 171.2,166.4 C183.7,184.6 195,192.1 212.5,192.1 C230,192.1 241.3,184.6 253.8,166.4 C259.3,158.3 264.7,146.5 268.8,134.1 C272.4,125.1 275.1,114.7 276.5,103.1 C281.2,62.5 266.4,17.8 212.5,17.8 Z" id="Path" fill="#F4B68A" fill-rule="nonzero"></path>
            <path d="M212.6,185.1 C205.7,185.1 195.8,184.1 191.7,179.2 C190.3,177.6 178.7,166.7 182.3,168.6 C188.5,171.8 187.1,154.5 187.1,149.7 C187.1,145.6 189.7,144.4 193.7,144.3 C198.8,144.2 206,145.9 212.5,145.9 C218.7,145.9 225.4,144.1 230.3,143.9 C234.6,143.7 237.5,144.6 237.5,149 C237.5,154 235.4,172 242.7,167.9 C244.2,167 233.8,176.8 232.7,178.1 C228.8,183 219.4,185.1 212.6,185.1 Z" id="Path" fill="#3C2727" fill-rule="nonzero"></path>
            <g id="Group" transform="translate(266.000000, 98.000000)" fill-rule="nonzero">
                <path d="M0.3,8.9 C1.8,3.7 4.4,0.1 7.6,0.1 C13,0.1 16.8,10.1 14.8,20.2 C12.7,30.7 8.8,41.2 4.2,40.3 C2.8,40 1.5,38.4 0.6,35.7" id="Path" fill="#F4B68A"></path>
                <path d="M7,25.6 C6.6,26.3 5.7,27 5.1,26.5 C4.2,25.7 4.9,24.9 4.9,23.7 C4.9,22.5 4.4,21.8 4.2,20.8 C3.9,19.5 4,18.8 4.2,17.4 C5,12.8 6.7,7 9.9,6.7 L9.9,6.5 C8.5,4.9 6.4,5.9 5.3,7.8 C4.2,9.6 4,12.4 3.2,14.5 C2.5,16.4 0.8,19.5 2.1,21.3 C2.6,22 3.5,21.8 3.6,23.3 C3.8,25.1 2.6,25.1 2.3,26.3 C2.1,27.2 2.2,28.1 2.9,28.4 C3.3,28.6 3.6,28 3.9,28 C4.1,28.1 4.3,28.4 4.6,28.6 C5.2,29.1 5.3,30.1 6.1,29.1 C6.7,28.3 6.8,26.6 7.1,25.4" id="Path" fill="#E19A74"></path>
            </g>
            <g id="Group" transform="translate(143.000000, 98.000000)" fill-rule="nonzero">
                <path d="M15.3,8.9 C13.8,3.7 11.2,0.1 8,0.1 C2.6,0.1 -1.2,10.1 0.8,20.2 C2.9,30.7 6.8,41.2 11.4,40.3 C12.8,40 14.1,38.4 15,35.7" id="Path" fill="#F4B68A"></path>
                <path d="M8.6,25.6 C9,26.3 9.9,27 10.5,26.5 C11.4,25.7 10.7,24.9 10.7,23.7 C10.7,22.5 11.2,21.8 11.4,20.8 C11.7,19.5 11.6,18.8 11.4,17.4 C10.6,12.8 8.9,7 5.7,6.7 L5.7,6.5 C7.1,4.9 9.1,5.9 10.3,7.8 C11.4,9.6 11.6,12.4 12.4,14.5 C13.1,16.4 14.8,19.5 13.5,21.3 C13,22 12.1,21.8 12,23.3 C11.8,25.1 13,25.1 13.3,26.3 C13.5,27.2 13.4,28.1 12.7,28.4 C12.3,28.6 12,28 11.7,28 C11.5,28.1 11.3,28.4 11,28.6 C10.4,29.1 10.3,30.1 9.5,29.1 C8.9,28.3 8.8,26.6 8.5,25.4" id="Path" fill="#E19A74"></path>
            </g>
            <path d="M213.6,119.1 C210.2,131.9 205.3,136.2 207.3,139.6 C209.5,143.4 218,141.7 218,141.7" id="Path" fill="#E19A74" fill-rule="nonzero"></path>
            <path d="M212.5,180.5 C206.4,180.5 197.6,177.7 194,173.8 C187.6,167 188.8,157 188.8,152.4 C188.8,145.2 202.1,151.6 212.4,151.6 C222.7,151.6 235.3,145.2 235.3,152.4 C235.3,157 236.4,170.3 229.8,173.6 C225.2,175.8 218.6,180.5 212.5,180.5 Z" id="Path" fill="#F4B68A" fill-rule="nonzero"></path>
            <path d="M195.6,153.8 C195.6,153.8 215.4,156.3 229.4,153.8 C229.4,153.8 225.2,163.7 212.2,163.7 C199.1,163.6 195.6,153.8 195.6,153.8 Z" id="Path" fill="#EFE9DF" fill-rule="nonzero"></path>
            <path d="M332.8,452.8 C335.5,395.3 338.3,238.2 324.6,231.6 C303.3,221.4 278.9,221.7 264.1,212.1 L216.2,244.6 L163.2,212.6 C148.4,222.1 114.7,221.4 93.4,231.6 C79.7,238.2 81.9,391.9 84.6,449.4 C87.9,518.3 87.7,530.5 87.7,530.5 C87.7,530.5 95.1,569.6 109.6,571.5 C128.6,574 160.9,577 209,577.2 C293.8,576.8 331.1,566.8 331.1,566.8 C331.1,566.8 329.5,521.6 332.8,452.8 Z" id="Path" fill="#212121" fill-rule="nonzero"></path>
            <polygon id="Path" fill="#131313" fill-rule="nonzero" points="170.9 206.5 216.5 239.4 253.3 206.5 264.1 212.1 216.2 251.2 163.1 212.6"></polygon>
            <path d="M176.8,109.5 C176.8,109.5 188.3,97.5 196,109.5 C196.1,109.5 187.1,103.5 176.8,109.5 Z" id="Path" fill="#3C2727" fill-rule="nonzero"></path>
            <path d="M248.3,109.7 C248.3,109.7 236.8,97.8 229.1,109.7 C229.1,109.7 238,103.8 248.3,109.7 Z" id="Path" fill="#3C2727" fill-rule="nonzero"></path>
            <path d="M200.4,101.8 C200.4,101.8 196.2,99.9 191.8,99.2 C188,98.6 185,96.9 179.2,97.9 C173.4,98.9 169.3,102.5 168.8,103.1 C168.3,103.7 170.2,99.8 172.5,98.3 C174.8,96.8 178.9,95.2 184.5,95.4 C190.1,95.6 197.3,96.9 199,98 C200.7,99.1 204.6,100.5 200.4,101.8 Z" id="Path" fill="#3C2727" fill-rule="nonzero"></path>
            <path d="M227.7,101.8 C227.7,101.8 231.5,99.9 235.3,99.2 C238.6,98.6 242.2,97.3 247.4,98.2 C252.5,99.1 255.3,102.5 255.7,103 C256.1,103.6 254.5,99.7 252.4,98.2 C250.3,96.7 246.8,95.1 241.8,95.3 C236.8,95.5 230.4,96.8 229,97.9 C227.6,99 224,100.5 227.7,101.8 Z" id="Path" fill="#3C2727" fill-rule="nonzero"></path>
            <ellipse id="Oval" fill="#3C2727" fill-rule="nonzero" cx="187" cy="109.6" rx="4.7" ry="5.5"></ellipse>
            <path d="M315.8,572 C315.8,572 312.8,585.3 306.7,589 C300.6,592.6 295,595.5 291.9,610 C291.9,610 289,617.8 294.6,620.7 C300.2,623.6 301.5,616.8 303.7,609.9 C305.9,603 312.2,612.2 309,619.9 C305.8,627.6 298.3,632.9 290.6,632.4 C280.4,631.8 276.7,626.5 279.8,630.2 C281.5,632.2 296.7,640.9 312,638 C327.8,635 334.8,617.2 332.6,606.9 C330,594.5 335.6,583.3 337.5,582.4 C339.1,581.4 327.1,569.2 315.8,572 Z" id="Path" fill="#E19A74" fill-rule="nonzero"></path>
            <path d="M343.6,431.7 C340.8,441.8 302.5,583.9 302.5,583.9 C302.5,584 321.4,595.5 336.9,595.8 C338.6,589.9 390.5,455.4 392.1,448 C393.8,440.6 390.2,428.3 374.3,422.3 C358.3,416.4 346.4,421.6 343.6,431.7 Z" id="Path" fill="#131313" fill-rule="nonzero"></path>
            <ellipse id="Oval" fill="#3C2727" fill-rule="nonzero" cx="236.8" cy="109.6" rx="4.7" ry="5.3"></ellipse>
            <path d="M265.5,117.4 C264.1,103.3 266.7,97.6 263.7,111 C263.7,111 267.7,136 257.4,154.2 C250.1,167 229.1,176.7 211.7,176.7 C195.6,176.7 175.1,168.7 168.5,154.2 C160.4,136.5 161,109.8 161,109.8 C158,96.4 160.9,103.3 159.5,117.4 C158.1,131.5 160.1,144.2 160.1,144.2 C174.4,191.2 201,192.1 212.5,192.1 C224,192.1 250.8,191.6 265,144.2 C264.9,144.2 266.9,131.5 265.5,117.4 Z" id="Path" fill="#3C2727" fill-rule="nonzero"></path>
            <path d="M276.8,99.3 C276.8,99.3 296.4,0.1 212.5,0.1 C132.6,0.1 148.2,99.3 148.2,99.3 C152.1,99.3 155.6,101.6 157.5,105.1 C159.6,108.6 159.7,115.6 159.6,116.7 C161.1,116.7 162.8,93.2 162.7,87.9 C162.5,72.4 173,56.9 186.2,56.9 C196.2,56.9 201.6,52 213.8,52 C225.2,52 230.1,57.6 238.9,57.6 C252,57.6 260.4,74.8 261.2,91.1 C261.3,93.4 264.1,117 265.7,117 C265.7,115.8 265.8,109.1 267.7,105.2 C269.3,101.6 272.8,99.3 276.8,99.3 Z" id="Path" fill="#3C2727" fill-rule="nonzero"></path>
            <path d="M213.4,58.5 C227.9,58.5 267.1,60.1 267.1,35.8 C267.1,7.1 241,3.4 213.6,3.4 C186.2,3.4 160.1,7.2 160.1,35.8 C160.2,59 199,58.5 213.4,58.5 Z" id="Path" fill="#3C2727" fill-rule="nonzero"></path>
            <path d="M112.3,575.8 C103.9,544.5 76,441 73.6,432.5 C70.8,422.4 58.9,417.2 42.9,423.2 C26.9,429.2 23.4,441.5 25.1,448.9 C25.6,451.3 31.5,467.1 39.2,487.6 C55.1,520.1 77.9,550.6 112.3,575.8 Z" id="Path" fill="#131313" fill-rule="nonzero"></path>
            <path d="M291.8,574.9 C219.4,594.9 124.5,577.2 124.5,577.2 L122.2,582.6 C162.3,609.2 216.8,629.1 292.2,638.1 C301.7,639.2 311.4,639.6 321.3,639.3 L291.8,574.9 Z" id="Path" fill="#00323D" fill-rule="nonzero"></path>
            <path d="M335.3,637.3 C84.7,610.2 34.3,489.4 8.2,379.6 C5.7,369.1 2.3,351.2 1.2,329.9 C-0.6,362.5 4.7,392 8.2,406.8 C34.3,516.6 84.7,637.4 335.3,664.5 C553.5,688.1 866.1,396.5 849.8,223.7 C834.7,398.2 542.5,659.8 335.3,637.3 Z" id="Path" fill="url(#linearGradient-7)" fill-rule="nonzero"></path>
            <g id="Group" transform="translate(382.000000, 112.000000)" fill-rule="nonzero">
                <circle id="Oval" stroke="url(#linearGradient-8)" stroke-width="1.99996997" fill="#FFFFFF" transform="translate(426.970570, 224.328880) rotate(-22.389796) translate(-426.970570, -224.328880) " cx="426.97057" cy="224.32888" r="57.0991426"></circle>
                <g>
                    <g>
                        <circle id="Oval" stroke="url(#linearGradient-9)" stroke-width="1.99996997" fill="#FFFFFF" transform="translate(74.598680, 74.820650) rotate(-67.610204) translate(-74.598680, -74.820650) " cx="74.59868" cy="74.82065" r="57.0991426"></circle>
                        <path d="M85.8,75.7 C91.4,72 95.1,65.7 95.1,58.5 C95.1,47.1 85.9,37.9 74.5,37.9 C63.1,37.9 53.9,47.1 53.9,58.5 C53.9,65.7 57.6,72 63.2,75.7 C50.4,78.7 40.9,90.2 40.9,103.9 L40.9,121 C50.3,127.9 61.9,132 74.5,132 C87.1,132 98.6,127.9 108.1,121 L108.1,103.9 C108.1,90.2 98.6,78.8 85.8,75.7 Z" id="Path" fill="url(#linearGradient-10)"></path>
                    </g>
                    <g transform="translate(130.000000, 17.000000)">
                        <path d="M289.7,0.7 L37.8,0.7 C33.1,0.7 29.4,4.5 29.4,9.1 L29.4,80 C29.1,85.9 26.3,99.7 9.1,106.9 C-15.4,117.2 20.8,115.3 37.8,115.3 L289.7,115.3 C294.4,115.3 298.1,111.5 298.1,106.9 L298.1,9.1 C298.1,4.5 294.3,0.7 289.7,0.7 Z" id="Path" stroke="url(#linearGradient-11)" stroke-width="2" fill="#FFFFFF"></path>
                        <g transform="translate(55.000000, 30.000000)">
                            <rect id="Rectangle" fill="#9292D3" x="0.4" y="25.1" width="186.7" height="5.2"></rect>
                            <path d="M173.2,0.2 L1.3,0.2 C0.8,0.2 0.4,0.6 0.4,1.1 L0.4,8 C0.4,8.5 0.8,8.9 1.3,8.9 L173.2,8.9 C173.7,8.9 174.1,8.5 174.1,8 L174.1,1.1 C174.1,0.6 173.7,0.2 173.2,0.2 Z" id="Path" fill="url(#linearGradient-12)"></path>
                            <rect id="Rectangle" fill="#9292D3" x="0.4" y="38.2" width="186.7" height="5.2"></rect>
                            <rect id="Rectangle" fill="#9292D3" x="0.4" y="50.7" width="21.1" height="5.2"></rect>
                        </g>
                    </g>
                    <g transform="translate(0.000000, 299.000000)">
                        <circle id="Oval" stroke="url(#linearGradient-13)" stroke-width="1.99996997" fill="#FFFFFF" transform="translate(74.552620, 75.238810) rotate(-67.610204) translate(-74.552620, -75.238810) " cx="74.55262" cy="75.23881" r="57.0991426"></circle>
                        <path d="M85.8,76.2 C91.4,72.5 95.1,66.2 95.1,59 C95.1,47.6 85.9,38.4 74.5,38.4 C63.1,38.4 53.9,47.6 53.9,59 C53.9,66.2 57.6,72.5 63.2,76.2 C50.4,79.2 40.9,90.7 40.9,104.4 L40.9,121.5 C50.3,128.4 61.9,132.5 74.5,132.5 C87.1,132.5 98.6,128.4 108.1,121.5 L108.1,104.4 C108.1,90.6 98.6,79.2 85.8,76.2 Z" id="Path" fill="url(#linearGradient-14)"></path>
                    </g>
                    <g transform="translate(130.000000, 317.000000)">
                        <path d="M289.7,0.2 L37.8,0.2 C33.1,0.2 29.4,4 29.4,8.6 L29.4,79.5 C29.1,85.4 26.3,99.2 9.1,106.4 C-15.4,116.7 20.8,114.8 37.8,114.8 L289.7,114.8 C294.4,114.8 298.1,111 298.1,106.4 L298.1,8.6 C298.1,3.9 294.3,0.2 289.7,0.2 Z" id="Path" stroke="url(#linearGradient-15)" stroke-width="2" fill="#FFFFFF"></path>
                        <g transform="translate(55.000000, 29.000000)">
                            <rect id="Rectangle" fill="#9292D3" x="0.4" y="25.6" width="186.7" height="5.2"></rect>
                            <path d="M173.2,0.7 L1.3,0.7 C0.8,0.7 0.4,1.1 0.4,1.6 L0.4,8.5 C0.4,9 0.8,9.4 1.3,9.4 L173.2,9.4 C173.7,9.4 174.1,9 174.1,8.5 L174.1,1.6 C174.1,1 173.7,0.7 173.2,0.7 Z" id="Path" fill="url(#linearGradient-16)"></path>
                            <rect id="Rectangle" fill="#9292D3" x="0.4" y="38.7" width="186.7" height="5.2"></rect>
                            <rect id="Rectangle" fill="#9292D3" x="0.4" y="51.2" width="21.1" height="5.2"></rect>
                        </g>
                    </g>
                    <path d="M415.7,225.2 C410.1,221.5 406.4,215.2 406.4,208 C406.4,196.6 415.6,187.4 427,187.4 C438.4,187.4 447.6,196.6 447.6,208 C447.6,215.2 443.9,221.5 438.3,225.2 C451.1,228.2 460.6,239.7 460.6,253.4 L460.6,270.5 C451.2,277.4 439.6,281.5 427,281.5 C414.4,281.5 402.9,277.4 393.4,270.5 L393.4,253.4 C393.4,239.7 402.9,228.2 415.7,225.2 Z" id="Path" fill="url(#linearGradient-17)"></path>
                    <g transform="translate(73.000000, 167.000000)">
                        <path d="M8.8,0.2 L260.7,0.2 C265.4,0.2 269.1,4 269.1,8.6 L269.1,79.5 C269.4,85.4 272.2,99.2 289.4,106.4 C313.9,116.7 277.7,114.8 260.7,114.8 L8.8,114.8 C4.1,114.8 0.4,111 0.4,106.4 L0.4,8.6 C0.4,3.9 4.2,0.2 8.8,0.2 Z" id="Path" stroke="url(#linearGradient-18)" stroke-width="2" fill="#FFFFFF"></path>
                        <g transform="translate(26.000000, 29.000000)">
                            <rect id="Rectangle" fill="#9292D3" x="0.9" y="25.6" width="186.7" height="5.2"></rect>
                            <path d="M173.7,0.7 L1.8,0.7 C1.3,0.7 0.9,1.1 0.9,1.6 L0.9,8.5 C0.9,9 1.3,9.4 1.8,9.4 L173.7,9.4 C174.2,9.4 174.6,9 174.6,8.5 L174.6,1.6 C174.6,1.1 174.2,0.7 173.7,0.7 Z" id="Path" fill="url(#linearGradient-19)"></path>
                            <rect id="Rectangle" fill="#9292D3" x="0.9" y="38.7" width="186.7" height="5.2"></rect>
                            <rect id="Rectangle" fill="#9292D3" x="0.9" y="51.2" width="21.1" height="5.2"></rect>
                        </g>
                    </g>
                </g>
            </g>
            <g id="Group" transform="translate(750.000000, 278.000000)">
                <ellipse id="Oval" fill="#FFFFFF" fill-rule="nonzero" cx="59" cy="58.3" rx="58.2" ry="57.9"></ellipse>
                <ellipse id="Oval" fill="#0A64AB" fill-rule="nonzero" opacity="0.1" cx="59" cy="58.3" rx="58.2" ry="57.9"></ellipse>
                <g transform="translate(16.000000, 12.000000)" fill-rule="nonzero">
                    <g transform="translate(17.000000, 0.000000)">
                        <path d="M40.1,78.8 C40.1,78.8 35.6,83.8 25.8,83.8 C16,83.8 11.9,78.8 11.9,78.8 C11.9,78.8 15,61.2 11.8,47.6 C8.6,34.1 42.6,27.3 40,47.6 C37.2,68 40.1,78.8 40.1,78.8 Z" id="Path" fill="#E3A67F"></path>
                        <path d="M25.8,6.5 L25.8,6.5 C6.2,6.5 1.6,22.7 3.4,37.5 C3.9,41.5 4,45.1 5.2,48.2 C6.7,52.8 8.7,57.3 10.8,60.3 C15.3,66.9 19.5,69.6 25.8,69.6 C32.1,69.6 36.3,66.9 40.8,60.3 C42.8,57.4 44.8,53.1 46.2,48.6 C47.5,45.3 47.3,41.1 47.8,36.8 C49.7,22.1 45.4,6.5 25.8,6.5 Z" id="Path" fill="#F4B68A"></path>
                        <g transform="translate(0.000000, 35.000000)" id="Path">
                            <path d="M46.5,4 C47.2,2.4 47.7,0.5 49.1,0.5 C51.5,0.5 51.4,2.8 50.6,5.9 C49.7,9.1 49.7,13 47.6,12.7 C47,12.6 46.7,11.5 46.3,10.6" fill="#F4B68A"></path>
                            <path d="M48.8,8.3 C48.6,8.5 48.3,8.7 48,8.5 C47.6,8.3 47.9,8 47.9,7.7 C47.9,7.4 47.7,7.2 47.6,6.8 C47.5,6.4 47.5,6.2 47.6,5.8 C47.9,4.4 48.7,2.7 50.1,2.6 L50.1,2.6 C49.5,2.1 48.6,2.4 48.1,3 C47.6,3.5 47.6,4.4 47.2,5 C46.9,5.6 46.2,6.5 46.7,7.1 C46.9,7.3 47.3,7.2 47.4,7.7 C47.4,8.2 47,8.2 46.9,8.6 C46.8,8.8 46.9,9.1 47.1,9.2 C47.3,9.2 47.4,9.1 47.5,9.1 C47.6,9.1 47.7,9.2 47.8,9.3 C48,9.4 48.1,9.7 48.4,9.4 C48.7,9.1 48.8,8.6 48.8,8.3" fill="#E19A74"></path>
                            <path d="M4.8,3.6 C4.1,2 4,0.5 2.6,0.5 C0.2,0.5 0.2,3.6 1.1,6.6 C2,9.8 2.1,13 4.1,12.7 C4.7,12.6 4.8,11.6 5.2,10.8" fill="#F4B68A"></path>
                            <path d="M2.8,8.3 C3,8.5 3.3,8.7 3.6,8.5 C4,8.3 3.7,8 3.7,7.7 C3.7,7.4 3.9,7.2 4,6.8 C4.1,6.4 4.1,6.2 4,5.8 C3.7,4.4 2.9,2.7 1.5,2.6 L1.5,2.6 C2.1,2.1 3,2.4 3.5,3 C4,3.5 4,4.4 4.4,5 C4.7,5.6 5.4,6.5 4.9,7.1 C4.7,7.3 4.3,7.2 4.2,7.7 C4.2,8.2 4.6,8.2 4.7,8.6 C4.8,8.8 4.7,9.1 4.5,9.2 C4.3,9.2 4.2,9.1 4.1,9.1 C4,9.1 3.9,9.2 3.8,9.3 C3.6,9.4 3.5,9.7 3.2,9.4 C2.9,9.1 2.9,8.6 2.8,8.3" fill="#E19A74"></path>
                        </g>
                        <path d="M5.2,39.2 C5.2,39.2 4.9,38.2 3.2,35.4 C1.6,32.6 3.4,17 4.8,14.2 C6.2,11.4 9.1,5.5 13.3,3.6 C17.5,1.7 21.7,0.5 25.5,0.5 C29.3,0.5 34.3,1.6 36.9,3.6 C39.5,5.6 42.7,8.9 44.8,12.1 C46.9,15.2 48.7,20.4 48.7,25.1 C48.7,29.8 48.3,35.1 47.9,35.9 C47.6,36.7 45.7,38.4 45.7,39.4 C45.7,40.4 44.7,30.4 44.4,27.6 C44.2,24.5 43.4,19.5 42.4,18 C41.4,16.5 39.4,14.7 37.2,13.9 C34.9,13.1 29.3,12 25.7,11.9 C22.1,11.8 16,12.4 13.8,13.2 C11.9,13.8 9.7,15.3 8.9,18.3 C8,21.3 7.2,24.4 7.3,26.5 C7.4,28.6 6.7,32.9 6.3,34.9 C5.8,37 5.2,39.2 5.2,39.2 Z" id="Path" fill="#CA5C29"></path>
                        <path d="M26.3,43.2 C25.1,47.8 23.3,49.4 24,50.6 C24.8,52 27.9,51.3 27.9,51.3" id="Path" fill="#E3A67F"></path>
                        <path d="M19.7,55.9 C19.7,55.9 26.9,57 32,55.9 C32,55.9 30.5,60.3 25.7,60.3 C20.9,60.3 19.7,55.9 19.7,55.9 Z" id="Path" fill="#EFE9DF"></path>
                        <path d="M31.4,34.6 C31.4,34.6 31.9,32.8 33.1,32.9 C34.2,32.9 35.1,32.6 36.7,33 C38.2,33.4 40.7,34.2 41.3,34.9 C41.9,35.5 42.1,36.7 41.3,36.4 C40.4,36.1 39.2,34.8 37.8,34.6 C36.4,34.4 35.8,35 34.2,35.1 C32.6,35 31.9,35.8 31.4,34.6 Z" id="Path" fill="#CA5C29"></path>
                        <path d="M20.3,34.6 C20.3,34.6 19.8,32.8 18.7,32.8 C17.6,32.8 16.7,32.4 15.1,32.8 C13.6,33.2 11,33.9 10.4,34.6 C9.8,35.2 9.5,36.4 10.4,36.1 C11.3,35.9 12.6,34.6 14,34.4 C15.4,34.2 16,34.8 17.6,35 C19.1,35.2 19.8,35.9 20.3,34.6 Z" id="Path" fill="#CA5C29"></path>
                        <path d="M39.3,40.6 C39.3,40.6 35.1,35.1 31.4,39.7 C31.4,39.7 35.4,37.7 39.3,40.6 Z" id="Path" fill="#6C3506"></path>
                        <path d="M12.3,40.1 C12.3,40.1 17.1,35.1 20.3,40.1 C20.3,40.1 16.6,37.7 12.3,40.1 Z" id="Path" fill="#6C3506"></path>
                        <ellipse id="Oval" fill="#6C3506" cx="16.8" cy="40.2" rx="1.7" ry="2.2"></ellipse>
                        <ellipse id="Oval" fill="#6C3506" cx="34.8" cy="40.1" rx="1.7" ry="2.1"></ellipse>
                    </g>
                    <path d="M82.4,85.4 C75.1,81.9 61.6,79.2 56.6,75.9 C56.6,75.9 55,82.6 42.8,82.6 C32.3,82.6 29.3,76.5 29.3,76.5 C24.2,79.8 9.5,82 1.7,84.5 C1.2,84.6 0.9,85.2 0.6,86 C11.2,97.2 26.2,104.2 42.9,104.2 C58.6,104.2 72.9,98 83.4,87.9 C83.3,86.6 82.9,85.7 82.4,85.4 Z" id="Path" fill="#442B7F"></path>
                </g>
                <ellipse id="Oval" stroke="url(#linearGradient-20)" stroke-width="2" cx="59" cy="58.3" rx="58.2" ry="57.9"></ellipse>
            </g>
            <g id="Group" transform="translate(398.000000, 428.000000)">
                <ellipse id="Oval" fill="#FFFFFF" fill-rule="nonzero" cx="58.6" cy="58.3" rx="58.4" ry="58.2"></ellipse>
                <ellipse id="Oval" fill="#0A64AB" fill-rule="nonzero" opacity="0.1" cx="58.6" cy="58.3" rx="58.4" ry="58.2"></ellipse>
                <path d="M91.6,103.4 C84.4,100 77.4,97.1 74.6,93.5 C74.6,93.5 70.5,97.5 63.9,97.9 C57.4,98.3 51.1,94 48.9,95 C43.8,97.2 31.5,99.7 25.4,102.5 C24.6,102.9 24.1,103.8 23.9,105.1 C33.6,112.2 45.6,116.4 58.5,116.4 C71.5,116.4 83.5,112.2 93.2,105 C92.8,104.3 92.2,103.7 91.6,103.4 Z" id="Path" fill="#FFFFFF" fill-rule="nonzero"></path>
                <g transform="translate(35.000000, 12.000000)" fill-rule="nonzero">
                    <path d="M17.1,81.4 C14.8,85.3 41.9,89.6 39,81 C39,81 35.3,73 38.7,69.6 C46.2,62.1 38.8,57.4 38.8,57.4 C38.8,57.4 14.7,46.3 17.7,57.4 C20.7,68.4 20.8,75.2 17.1,81.4 Z" id="Path" fill="#E19A74"></path>
                    <path d="M31.8,11.6 L31.8,11.6 C50.1,11.6 55.1,24.5 54.7,39 C53.9,66.9 45.4,73.2 38.5,73.2 C34.3,73.2 18.2,69.8 16.2,63.8 C14.2,57.8 10.5,45.9 10,41.8 C8.3,27.4 13.4,11.6 31.8,11.6 Z" id="Path" fill="#F4B68A"></path>
                    <path d="M42.4,47.5 C43.6,52 45.3,53.6 44.7,54.7 C43.9,56 40.9,55.4 40.9,55.4" id="Path" fill="#E19A74"></path>
                    <path d="M46.3,59.8 C46.3,59.8 39.3,60.9 34.3,59.8 C34.3,59.8 35.8,64.1 40.4,64.1 C45,64.1 46.3,59.8 46.3,59.8 Z" id="Path" fill="#EFE9DF"></path>
                    <path d="M39,81 C39,81 33.7,87 16.8,80.8 L14,82.9 C14,82.9 31.6,92.6 41.3,83.2 L39,81 Z" id="Path" fill="#E0E0E0"></path>
                    <path d="M28,44.4 C28,44.4 32.1,40.1 34.8,44.4 C34.9,44.4 31.7,42.3 28,44.4 Z" id="Path" fill="#452C2B"></path>
                    <path d="M52.7,45.4 C52.7,45.4 48.6,41.2 45.9,45.4 C45.9,45.4 49.1,43.3 52.7,45.4 Z" id="Path" fill="#452C2B"></path>
                    <path d="M35.6,41.5 C35.6,41.5 34.1,40.7 32.6,40.4 C31.3,40.2 30.2,40 28.1,40.4 C26,40.8 24.6,41.9 24.4,42.1 C24.3,42.3 24.9,40.6 25.7,39.9 C26.5,39.3 28,38.5 30,38.6 C32,38.7 34.6,39.2 35.2,39.7 C35.6,40.3 37,41 35.6,41.5 Z" id="Path" fill="#452C2B"></path>
                    <path d="M45.4,42.5 C45.4,42.5 46.7,41.7 48.1,41.4 C49.3,41.2 50.3,41 52.1,41.4 C53.9,41.8 55.2,42.9 55.3,43.1 C55.4,43.3 54.9,41.6 54.1,40.9 C53.4,40.3 52.1,39.5 50.3,39.6 C48.5,39.7 46.3,40.2 45.7,40.7 C45.3,41.2 44.1,41.9 45.4,42.5 Z" id="Path" fill="#452C2B"></path>
                    <ellipse id="Oval" fill="#452C2B" cx="31.6" cy="44.7" rx="1.7" ry="2.2"></ellipse>
                    <ellipse id="Oval" fill="#452C2B" cx="48.6" cy="45.7" rx="1.7" ry="2.1"></ellipse>
                    <path d="M19.1,38.9 C19.1,39.4 19.5,43.2 19.1,45.4 C19,46.5 18.6,47.2 18,47 C18,46.8 18,46.3 17.9,45.6 C17.8,44.7 17.5,43.5 17.1,42.7 C16.5,41.5 15.7,40.6 14.3,40.6 C14.3,40.6 14.2,40.6 14.2,40.6 C14.2,40.6 14.1,40.6 14.1,40.6 C11.8,40.6 10.3,43 11.1,45.4 C11.9,47.8 13.2,50.2 15.1,50.8 C16.6,51.3 14.3,57 14.3,57 C14.3,57 3.1,51.4 2.4,34.9 C2.3,32.2 2,28 2.5,25.3 C2.3,25.9 1.4,28.3 1.4,28.3 C-0.7,27.8 1,21.9 1.3,20.5 C2,17.2 3.6,13.6 5.8,10.9 C8,8.3 11,7 14.5,7.1 C15.4,7.1 17.2,7.2 18.7,7.6 C27.6,-4.1 46.4,0.7 45.7,4.9 C45.5,5.9 43.9,5.4 42.8,5.1 C49.6,8.5 54.1,12.7 56.9,19.7 C57.6,21.4 58.5,24.1 58.8,26.2 C59.5,31.4 57.2,33.6 53.7,34 C50.5,34.4 45.7,30.8 43.3,29.1 C38.4,25.5 30.9,19.5 21.5,24.9 C17.8,26.8 19.6,34.9 19.1,38.9 Z" id="Path" fill="#593833"></path>
                </g>
                <path d="M91.6,102.9 C85.7,100.2 80.6,97.7 76.2,95.1 C76.6,95.7 77.1,96.3 77.5,96.9 C79,99.1 79.8,101.5 80.4,103.9 C81.1,106.4 81.6,108.9 82,111.5 C86.1,109.7 89.9,107.5 93.4,104.9 C92.9,104 92.3,103.2 91.6,102.9 Z" id="Path" fill="#CACACA" fill-rule="nonzero"></path>
                <path d="M25.2,102.5 C24.4,102.8 24,103.7 23.7,105 C30.6,110.1 38.7,113.8 47.6,115.5 C47.8,108.6 48.4,101.7 49.5,94.9 C49.2,94.9 49,94.9 48.8,95 C43.5,97.2 31.2,99.7 25.2,102.5 Z" id="Path" fill="#CACACA" fill-rule="nonzero"></path>
                <ellipse id="Oval" stroke="url(#linearGradient-21)" stroke-width="2" cx="58.6" cy="58.3" rx="58.4" ry="58.2"></ellipse>
            </g>
            <g id="Group" transform="translate(398.000000, 128.000000)">
                <ellipse id="Oval" fill="#FFFFFF" fill-rule="nonzero" cx="58.6" cy="59" rx="58.4" ry="58.2"></ellipse>
                <ellipse id="Oval" fill="#0A64AB" fill-rule="nonzero" opacity="0.1" cx="58.6" cy="59" rx="58.4" ry="58.2"></ellipse>
                <g transform="translate(32.000000, 29.000000)" fill-rule="nonzero">
                    <polygon id="Path" fill="#5A2E13" points="24.2 53 23.3 77.9 40.9 83.2 47.9 62 47.9 41.5"></polygon>
                    <path d="M11.9,69 C10.5,71.1 25.5,79.6 32.2,80.5 C42.2,81.9 35.8,70.8 34.7,69.6 C32,66.8 30.1,59.2 32.6,56.5 C39.5,49.2 32.2,43.5 32.2,43.5 C32.2,43.5 12.1,32.8 14.4,44.2 C16.5,55.7 16.2,62.3 11.9,69 Z" id="Path" fill="#E19A74"></path>
                    <path d="M26.1,0.4 C48.4,0.4 47.9,12.2 47.9,24.3 C47.9,48.2 37.7,57.4 31,57.4 C16.9,57.4 7,42.7 6.2,35 C5,24.4 3.8,0.4 26.1,0.4 Z" id="Path" fill="#F4B68A"></path>
                    <path d="M33,33.4 C34.2,37.9 35.9,39.4 35.2,40.6 C34.4,41.9 31.4,41.3 31.4,41.3" id="Path" fill="#E19A74"></path>
                    <path d="M36.1,45.5 C36.1,45.5 30.5,46.6 26.5,45.5 C26.5,45.5 27.7,49.8 31.4,49.8 C35.1,49.7 36.1,45.5 36.1,45.5 Z" id="Path" fill="#EFE9DF"></path>
                    <g transform="translate(0.000000, 26.000000)" id="Path">
                        <path d="M7,2.3 C6.3,1 5.3,0.1 3.9,0.1 C1.6,0.1 0,2.6 0.8,5.1 C1.7,7.7 3.4,10.3 5.3,10.1 C5.9,10 6.4,9.6 6.8,9" fill="#F4B68A"></path>
                        <path d="M4.1,6.4 C4.3,6.6 4.6,6.8 4.9,6.6 C5.3,6.4 5,6.2 5,5.9 C5,5.6 5.2,5.4 5.3,5.2 C5.4,4.9 5.4,4.7 5.3,4.4 C5,3.3 4.2,1.8 2.9,1.8 L2.9,1.8 C3.5,1.4 4.4,1.7 4.9,2.1 C5.4,2.5 5.5,3.2 5.8,3.8 C6.1,4.3 6.8,5 6.3,5.5 C6.1,5.7 5.7,5.6 5.6,6 C5.5,6.4 6,6.4 6.1,6.7 C6.2,6.9 6.1,7.2 5.9,7.2 C5.7,7.3 5.6,7.1 5.5,7.1 C5.4,7.1 5.3,7.2 5.2,7.2 C5,7.3 4.9,7.6 4.6,7.3 C4.2,7.1 4.2,6.7 4.1,6.4" fill="#E19A74"></path>
                    </g>
                    <path d="M38.6,25.3 C38.6,25.3 36.8,25.6 36.8,26.6 C36.8,27.6 37.5,27.8 38.6,27.5 C39.7,27.1 41,26.4 42.2,26.5 C43.4,26.6 44.1,26.9 44.5,27.3 C44.9,27.7 44.6,26.3 43.8,25.8 C42.9,25.3 40.5,24.9 38.6,25.3 Z" id="Path" fill="#452C2B"></path>
                    <path d="M23.9,25.7 C23.9,25.7 25.7,26 25.7,27 C25.7,28 25,28.2 23.9,27.9 C22.8,27.6 21.5,26.8 20.3,26.9 C19.1,27 18.4,27.3 18,27.7 C17.6,28.1 17.9,26.7 18.7,26.2 C19.6,25.7 22,25.3 23.9,25.7 Z" id="Path" fill="#452C2B"></path>
                    <path d="M19.6,32 C19.6,32 23.5,27.6 26.4,31.7 C26.4,31.7 23.1,29.8 19.6,32 Z" id="Path" fill="#452C2B"></path>
                    <path d="M43.5,31.8 C43.5,31.8 39.4,27.6 36.7,31.8 C36.7,31.8 39.9,29.7 43.5,31.8 Z" id="Path" fill="#452C2B"></path>
                    <ellipse id="Oval" fill="#452C2B" cx="39.6" cy="32.1" rx="1.6" ry="2.2"></ellipse>
                    <ellipse id="Oval" fill="#452C2B" transform="translate(23.496165, 32.097173) rotate(-2.550900) translate(-23.496165, -32.097173) " cx="23.4961647" cy="32.0971733" rx="1.59998546" ry="2.09998092"></ellipse>
                </g>
                <path d="M58.6,117.2 C44.9,117.2 32.3,112.5 22.4,104.7 C22.9,102.7 23.4,101.5 24,101.2 C29.8,98.5 38.7,95.8 43.6,93.6 C43.6,93.6 54.2,100.6 63,101.7 C71.8,102.8 65.4,98.5 65.4,98.5 C65.4,98.5 77.9,103.6 80.7,105.1 C81.6,105.6 83.4,107.7 85,111 C76.9,115 68,117.2 58.6,117.2 Z" id="Path" fill="#BDC5C9" fill-rule="nonzero"></path>
                <path d="M25.1,79.8 C21.7,86.8 19,94.4 19,101.9 C26.1,108.4 34.7,113.1 44.3,115.5 C43.2,113.5 41.5,111.8 40.4,109.1 C38.6,104.7 49,98.2 48.8,88.3 C48.6,76.4 43.3,74.5 40.7,61.5 C38.2,49.2 53.5,53 52.4,36.9 C52.4,36.9 80.9,31.1 79.8,56.5 C79.1,72.6 74.6,68.4 75,82.4 C75.3,91.5 62.7,96.7 62.1,105.5 C61.8,109.5 62.2,113.6 63.1,117 C71.9,116.3 80.2,113.7 87.5,109.5 C86,106.2 84.5,102.5 84.5,98 C84.5,88.4 87.3,80.5 89.3,70.8 C91.3,61.2 89.7,40.5 80.9,29.9 C74.1,21.7 63.8,13.7 50.9,18.7 C50.9,18.7 43.7,16.2 38.7,22.5 C33.7,28.8 25.9,37.1 26.6,47.9 C27.4,58.7 30.4,68.8 25.1,79.8 Z M77.6,113.9 C77.2,113.4 76.8,113 76.3,112.7 C76.3,112.7 76.9,113.1 77.6,113.9 Z" id="Shape" fill="#6E3E1B" fill-rule="nonzero"></path>
                <ellipse id="Oval" stroke="url(#linearGradient-22)" stroke-width="2" cx="58.6" cy="59" rx="58.4" ry="58.2"></ellipse>
            </g>
        </g>
    </g>
</svg>