<?xml version="1.0" encoding="UTF-8"?>
<svg width="850px" height="736px" viewBox="0 0 850 736" version="1.1" xmlns="http://www.w3.org/2000/svg" xmlns:xlink="http://www.w3.org/1999/xlink">
    <!-- Generator: Sketch 60.1 (88133) - https://sketch.com -->
    <title>illustrations/game-of-thrones</title>
    <desc>Created with Sketch.</desc>
    <defs>
        <linearGradient x1="-899.363567%" y1="49.9938037%" x2="150.484903%" y2="49.9938037%" id="linearGradient-1">
            <stop stop-color="#00AFBA" offset="0%"></stop>
            <stop stop-color="#6E68C6" offset="100%"></stop>
        </linearGradient>
        <linearGradient x1="-36.3752258%" y1="49.9869397%" x2="1970.66123%" y2="49.9869397%" id="linearGradient-2">
            <stop stop-color="#00AFBA" offset="0%"></stop>
            <stop stop-color="#6E68C6" offset="100%"></stop>
        </linearGradient>
        <linearGradient x1="-79.6454545%" y1="50.1150307%" x2="4319.10859%" y2="50.1150307%" id="linearGradient-3">
            <stop stop-color="#00AFBA" offset="0%"></stop>
            <stop stop-color="#6E68C6" offset="100%"></stop>
        </linearGradient>
        <linearGradient x1="-4940.56164%" y1="49.8678943%" x2="225.166727%" y2="49.8678943%" id="linearGradient-4">
            <stop stop-color="#00AFBA" offset="0%"></stop>
            <stop stop-color="#6E68C6" offset="100%"></stop>
        </linearGradient>
        <linearGradient x1="-1504.87004%" y1="50.0660056%" x2="198.449338%" y2="50.0660056%" id="linearGradient-5">
            <stop stop-color="#00AFBA" offset="0%"></stop>
            <stop stop-color="#6E68C6" offset="100%"></stop>
        </linearGradient>
        <linearGradient x1="-0.368511478%" y1="55.2929835%" x2="97.931806%" y2="44.6634305%" id="linearGradient-6">
            <stop stop-color="#00AFBA" offset="0%"></stop>
            <stop stop-color="#6E68C6" offset="100%"></stop>
        </linearGradient>
        <linearGradient x1="49.9707839%" y1="62.637694%" x2="49.9707839%" y2="105.101436%" id="linearGradient-7">
            <stop stop-color="#131313" offset="0%"></stop>
            <stop stop-color="#000000" offset="100%"></stop>
        </linearGradient>
        <linearGradient x1="49.8818182%" y1="96.4773852%" x2="49.8818182%" y2="3.98998822%" id="linearGradient-8">
            <stop stop-color="#CACACA" offset="0%"></stop>
            <stop stop-color="#808080" offset="100%"></stop>
        </linearGradient>
        <linearGradient x1="2.50355617%" y1="51.718883%" x2="100.871686%" y2="47.2319342%" id="linearGradient-9">
            <stop stop-color="#00AFBA" offset="0%"></stop>
            <stop stop-color="#6E68C6" offset="100%"></stop>
        </linearGradient>
    </defs>
    <g id="illustrations/game-of-thrones" stroke="none" stroke-width="1" fill="none" fill-rule="evenodd">
        <g id="4">
            <g id="Group" transform="translate(552.000000, 698.000000)" stroke="#303030" stroke-linecap="round" stroke-linejoin="round" stroke-width="0.9791">
                <path d="M13.6,10.3 C11.9,9.6 -0.4,9 0.5,12.8 C1.4,16.7 12.1,11.9 13.6,10.3 C13.1,8.5 12.5,0.6 15.9,0.2 C19.1,-0.2 17.4,9.2 13.6,10.3 C14.6,11.3 14.4,16.3 13.8,18.7" id="Path"></path>
                <path d="M25.2,12.3 C22,13.1 15.8,11.7 13.6,10.3" id="Path"></path>
                <path d="M38.2,24.8 C37.9,23.7 38.2,22 39.2,21.3" id="Path"></path>
                <path d="M30.8,24.8 C30.7,23.5 31.6,20.6 33.5,20.1" id="Path"></path>
                <path d="M23.2,23.7 C23.4,22.3 26.1,18.7 28.2,18.3" id="Path"></path>
                <path d="M15.9,21.2 C16.4,19.5 20.7,16.2 22.8,16" id="Path"></path>
            </g>
            <path d="M813.4,274 C813.4,274 805.6,219.7 766.4,193.4 C727.2,167.1 724.4,194.4 738.5,209.7 C752.5,224.9 818.7,314 813.4,274 Z" id="Path" fill="url(#linearGradient-1)" fill-rule="nonzero" opacity="0.21"></path>
            <path d="M40.8,302.8 C40.8,302.8 25.7,341.9 25.2,363.2 C24.7,384.5 -7.6,370.1 2.3,340.7 C12.1,311.3 55.5,251.8 40.8,302.8 Z" id="Path" fill="url(#linearGradient-2)" fill-rule="nonzero" opacity="0.21"></path>
            <ellipse id="Oval" fill="url(#linearGradient-3)" fill-rule="nonzero" opacity="0.21" cx="10.3" cy="409.1" rx="9.9" ry="16.3"></ellipse>
            <path d="M832.2,312.7 C835.4,319.5 835.2,326.3 831.8,327.9 C828.4,329.5 823.1,325.3 819.9,318.5 C816.7,311.7 816.9,304.9 820.3,303.3 C823.7,301.6 829.1,305.9 832.2,312.7 Z" id="Path" fill="url(#linearGradient-4)" fill-rule="nonzero" opacity="0.21"></path>
            <path d="M794.5,651.9 C801.7,651.4 807,658.6 804.7,665.4 C800.8,677 792.1,693.6 773.3,698.5 C743.6,706.3 751.6,672 775.4,663.5 C792.6,657.5 788.4,652.3 794.5,651.9 Z" id="Path" fill="url(#linearGradient-5)" fill-rule="nonzero" opacity="0.28"></path>
            <path d="M201.3,637.4 C132.8,601.9 10.1,555.5 52.5,364.9 C94.9,174.3 244.7,26.1 411.4,53.3 C578.1,80.5 787.1,252.7 840.4,423.2 C893.5,593.7 567.7,827.5 201.3,637.4 Z" id="Path" fill="url(#linearGradient-6)" fill-rule="nonzero" opacity="0.28"></path>
            <path d="M223.1,669.7 L235.2,647.1 C235.2,647.1 227.5,621.3 221.1,619.4 C214.7,617.5 220.3,614.7 225.1,613.7 C229.9,612.7 240.9,602.8 238.5,607.7 C236,612.6 235.3,620.9 241.5,629.2 L245.5,606.8 L249.5,613.6 L245.9,602.8 C245.9,602.8 238.5,613.6 235.3,601.7 C232.1,589.8 247,581 251.1,584.2 C255.2,587.4 250.5,574.8 250.5,574.8 C250.5,574.8 237.1,569.3 243.5,559.9 C249.9,550.5 256.1,547.5 256.1,547.5 C256.1,547.5 244.8,538.6 248.2,533 C251.6,527.3 257.8,528.1 257.8,528.1 L257.6,524 C257.6,524 246.1,510.6 247.2,507.6 C248.3,504.6 234.6,523.1 234.6,523.1 L243.3,496.9 C243.3,496.9 229.2,478.4 239.7,477.3 C250.3,476.2 261.8,514.6 271.8,521.4 L211.4,377 L217.7,382.5 L214.9,373.2 L206.3,360.4 L204,349.6 L213.8,354.9 L217.1,359.2 L227.2,346.4 L217.6,317.2 L215.8,301.1 L227.1,316.7 L241.2,311.9 L226.6,278 L212,258.6 L221.3,262.9 L219.5,255.9 L223.8,259.2 L219.3,239.3 L226.6,244.6 L223.3,232.8 L237.8,244.1 L233.7,226.2 L243.8,234 L240.5,211.6 L262.9,236 L263.2,226.2 L255.9,217.4 L251.6,202.3 L243.6,186.2 L275,212.4 L247.6,156.6 L266.2,174.2 L294.1,210.2 L294.1,205.7 L301.4,215.5 L273.5,159.4 L258.7,129.5 L290.9,167.7 L309.8,193.6 L287.4,139.5 L273,99.1 L290.9,122.7 L325.6,182.6 L311.3,111.2 L303,78 L301.5,57.6 L312.3,77.7 L352.8,195.6 L341.5,111.1 L328.9,57.5 L327.6,39.9 L336.4,53.7 L374.9,159.3 L372.6,123.6 L354.7,38.6 L354.2,18.2 L363.8,36.8 L399.5,162.5 L402,156.5 L406.5,167.8 L399,74 L392,20.9 L392.8,5.1 L401.1,21.9 L415.7,103.1 L422.2,160.4 L426.2,121.2 L431.2,132.5 L433.5,123.7 L431,21.1 L435,0.5 L440.1,20.1 L450.1,122.7 L454.6,144.1 L459.9,135.8 L464.2,146.4 L474.8,19.4 L481.8,0.5 L484.8,21.6 L480,153.1 L483.3,158.4 L492.9,132.5 L513,25.4 L519,11.3 L520.3,26.4 L506.7,173.5 L543.2,46.5 L550,31.8 L550.9,54.1 L538.5,126.5 L534.4,186.3 L559.3,105.8 L571.7,60.5 L577.5,49.7 L577.5,67.6 L567.9,118.1 L564.3,155.8 L606.7,84.4 L603.9,100.2 L581.8,172.1 L586.1,168.3 L577.8,189.4 L624.3,121 L593.1,207.5 L639.1,154.9 L635.3,163.5 L622.2,186.1 L611.1,219 L642,186.8 L627.7,218.5 L637.8,206.2 L637.5,212.5 L651.6,198.7 L638.6,224.5 L648,215.4 L657.6,210.1 L652.7,222.3 L631.4,252.9 L649.6,233.3 L659.4,226.8 L658.8,233.5 L665.3,230.2 L662.5,239.3 L650.9,260.7 L658.7,255.9 L646.4,283.1 L667.8,263 L675.6,258 L672.8,269.1 L665.5,278.9 L679.1,267.6 L672.6,280.7 L659,299.6 L672.8,284 L666.3,312.2 L679.1,293.6 L663,341.9 L679.1,332.3 L661.5,362 L688.4,337.9 L669.8,378.6 L682.9,367 L675.9,386.6 L667.3,403.7 L632.1,503 L638.8,507.9 C638.8,507.9 648.8,500.9 651.2,506 C653.7,511.1 645.2,509.2 642.1,510.5 C639.1,511.8 627,516.7 627,516.7 L632.5,527.1 L656.6,514.1 L637.4,538.1 L646.8,530.9 L655.9,531.8 L657.2,552.5 C657.2,552.5 664.6,556.8 659.5,561.4 C654.4,565.9 656.9,559.7 649.1,569.9 L664.8,593.7 C664.8,593.7 672,574.8 680.8,579.6 C689.7,584.3 686.6,596 676.1,604.3 C676.1,604.3 689.5,597.1 692.9,608.4 C696.3,619.7 690.4,625.8 681.8,625.6 L674.4,643 L696.6,679.3 C696.6,679.3 516.9,724.2 455.8,722.8 C396.1,721.4 223.1,669.7 223.1,669.7 Z" id="Path" fill="#000000" fill-rule="nonzero"></path>
            <path d="M252,671.4 L262.5,651.6 C262.5,651.6 255.8,629.1 250.2,627.4 C244.6,625.8 249.5,623.3 253.7,622.5 C257.9,621.7 267.5,613 265.4,617.2 C263.3,621.5 262.6,628.7 268,636 L271.5,616.4 L275,622.3 L271.9,612.9 C271.9,612.9 265.5,622.3 262.7,611.9 C259.9,601.5 272.9,593.8 276.5,596.6 C280.1,599.4 276,588.4 276,588.4 C276,588.4 264.3,583.6 269.9,575.4 C275.5,567.2 280.9,564.5 280.9,564.5 C280.9,564.5 271,556.8 274,551.8 C277,546.8 282.4,547.5 282.4,547.5 L282.2,543.9 C282.2,543.9 272.2,532.2 273.1,529.6 C274.1,527 262.1,543.1 262.1,543.1 L269.7,520.2 C269.7,520.2 257.4,504.1 266.6,503.1 C275.8,502.1 285.9,535.7 294.6,541.6 L241.9,415.9 L247.4,420.7 L245,412.6 L237.5,401.4 L235.5,392 L244.1,396.6 L247,400.3 L255.8,389.1 L247.5,363.6 L246,349.6 L255.9,363.2 L268.2,359 L255.5,329.4 L242.8,312.5 L250.9,316.2 L249.4,310.1 L253.1,313 L249.1,295.7 L255.5,300.3 L252.6,290 L265.2,299.9 L261.6,284.3 L270.4,291.1 L267.5,271.6 L287,292.9 L287.2,284.3 L280.8,276.6 L277.1,263.4 L270.1,249.4 L297.5,272.2 L273.6,223.5 L289.8,238.9 L314.2,270.3 L314.2,266.3 L320.6,274.9 L296,225.9 L283.1,199.8 L311.2,233.2 L327.7,255.8 L308.2,208.6 L295.7,173.5 L311.3,194.1 L341.6,246.3 L328.9,184 L321.7,155 L320.4,137.2 L329.8,154.8 L365.1,257.7 L355.2,184 L344.2,137.3 L343.1,121.9 L350.8,134 L384.4,226.2 L382.4,195 L366.8,120.8 L366.4,103 L374.7,119.2 L405.9,228.9 L408.1,223.6 L412.1,233.5 L405.5,151.4 L399.4,105.1 L400.1,91.3 L407.3,106 L420,176.9 L425.7,226.9 L429.2,192.7 L433.6,202.6 L435.6,194.9 L433.4,105.4 L436.9,87.4 L441.4,104.5 L450.1,194 L454.1,212.7 L458.7,205.5 L462.4,214.7 L471.6,103.9 L477.7,87.4 L480.3,105.8 L476.1,220.6 L479,225.2 L487.3,202.6 L504.9,109.1 L510.2,96.8 L511.3,110 L499.4,238.4 L531.3,127.6 L537.2,114.8 L538,134.2 L527.1,197.4 L523.5,249.6 L545.2,179.3 L556.1,139.8 L561.2,130.4 L561.2,146 L552.8,190.1 L549.7,223 L586.7,160.7 L584.3,174.5 L565,237.3 L568.7,234 L561.5,252.4 L602.1,192.7 L574.9,268.2 L615.1,222.3 L611.8,229.8 L600.4,249.6 L590.7,278.3 L617.7,250.2 L605.2,277.9 L614,267.1 L613.8,272.6 L626.1,260.5 L614.8,283 L623,275.1 L631.3,270.5 L627,281.1 L608.5,307.8 L624.4,290.7 L633,285 L632.5,290.8 L638.2,287.9 L635.8,295.8 L625.7,314.5 L632.5,310.3 L621.7,334 L640.4,316.4 L647.2,312 L644.8,321.7 L638.4,330.3 L650.3,320.4 L644.6,331.8 L632.7,348.3 L644.8,334.7 L639.1,359.3 L650.3,343.1 L636.3,385.2 L650.3,376.9 L634.9,402.8 L658.4,381.7 L642.2,417.3 L653.6,407.2 L647.5,424.3 L640,439.3 L609.1,526 L614.9,530.3 C614.9,530.3 623.6,524.2 625.8,528.7 C627.9,533.1 620.5,531.5 617.9,532.7 C615.3,533.9 604.7,538.1 604.7,538.1 L609.5,547.2 L630.6,535.8 L613.8,556.7 L622,550.4 L629.9,551.2 L631.1,569.3 C631.1,569.3 637.5,573.1 633.1,577 C628.7,581 630.8,575.5 624,584.4 L637.7,605.1 C637.7,605.1 644,588.6 651.7,592.8 C659.4,597 656.8,607.1 647.6,614.4 C647.6,614.4 659.3,608.1 662.2,618 C665.2,627.9 660.1,633.1 652.5,633 L646.1,648.1 L665.4,679.8 C665.4,679.8 508.6,719 455.3,717.7 C403,716.5 252,671.4 252,671.4 Z" id="Path" fill="url(#linearGradient-7)" fill-rule="nonzero" opacity="0.9"></path>
            <path d="M604.8,401.3 C598.5,397.7 594.9,418 594.9,418 L575.6,444.6 L568.8,438.3 L597,393.5 C609.5,391.9 616.8,383.6 610,371.1 C603.2,358.6 588.1,371.6 588.1,371.6 L571.4,354.4 L589.6,332.5 C589.6,332.5 603.7,330.4 605.8,316.3 C607.9,302.2 589.1,309 589.1,309 L593.8,289.7 L566,324.8 L563.3,315.8 L549.6,306.8 L568,270.8 C568,270.8 574.6,273.1 579.3,263.8 C584,254.5 576.6,250.9 564.4,249.7 C552.3,248.5 557.4,266.9 557.4,266.9 L544.1,298.2 L536.3,291.2 C538.3,283.8 530.4,274.4 530.4,274.4 L518.7,270.1 L526.1,244.7 C526.1,244.7 529.2,245.1 534.7,238.4 C540.2,231.8 539.4,223.9 528.1,222 C516.8,220 517.5,238.4 517.5,238.4 L505.8,266.6 L487.8,265 L492.1,196.6 L482.7,163 L472.5,263.5 L465.1,264.7 L470.6,227.9 C474.9,227.5 483.1,206.8 464.3,208 C445.5,209.2 458.8,226.8 458.8,226.8 L458.8,238.9 C458.8,238.9 456.5,237.7 435.3,240.1 C414.1,242.5 421.6,246.7 421.6,246.7 L432.5,250.6 L435.2,263.9 L421.9,265.1 L415.3,229.5 C415.3,229.5 417.3,227.2 419.6,219.3 C421.9,211.5 409.8,202.5 399.3,209.9 C388.8,217.3 405.9,230.6 405.9,230.6 L411.8,265.4 L400.5,267 L389.6,211.5 L374.7,169.7 L386.4,268.2 L375.1,270.5 L356,240.3 C357.2,230.9 345.4,220.7 336.4,231.7 C327.4,242.6 345.8,246.2 345.8,246.2 L363,277.1 C350.5,282.2 342.3,299.8 342.3,299.8 L366.9,285.3 L374.7,298.6 C374.7,298.6 364.5,290.4 354.4,298.6 C349.9,302.3 351.3,306.1 354.3,309.2 L348.3,312.3 L331.2,281.6 C336.7,277.6 326.2,255.9 312.1,266 C298,276.1 320.1,285.6 320.1,285.6 L334.2,321.8 L321.1,335.4 L336.7,328.4 L345.3,343.3 L323.9,353.6 L303,324.9 C303,324.9 303.3,318.4 300.1,311.1 C297,303.8 286.3,299.9 277.2,311.1 C268.1,322.3 287.1,333.8 287.1,333.8 L309.5,363.8 L298.2,379.6 L298,372.2 L287.6,382.6 L276.1,371.1 L278.7,389.9 L268.3,404.5 L289.7,399.8 L315.2,437.9 L283.4,463.4 L314.7,449.3 L447.1,588.7 L603,432.8 C603,432.8 605.1,439.4 615,441.5 C624.9,443.6 625.9,432.8 625.9,432.8 C625.9,432.8 611.1,405 604.8,401.3 Z M424.8,419 L421.1,421.8 L354.9,317.8 L358.9,312.9 C361.7,314.7 364.2,315.8 364.2,315.8 L424.8,419 Z M323.8,430.5 L298.8,394.5 L298.6,384.9 L317.3,372.9 L336.1,399.5 L348.4,416.4 L323.8,430.5 Z M332.2,361.2 L346.1,344.3 L400.1,437.6 L395.2,441.3 L332.2,361.2 Z" id="Shape" fill="#000000" fill-rule="nonzero"></path>
            <path d="M513.1,577 C513.1,577 581.8,459.3 531.1,459.3 C480.4,459.3 382.1,459.3 359,459.3 C335.9,459.3 344.2,552 380.8,578.1 C417.4,604.2 513.1,577 513.1,577 Z" id="Path" fill="#000000" fill-rule="nonzero"></path>
            <path d="M541.6,703.7 C541.6,703.7 540.9,682.7 540.6,678.6 C540.3,674.5 541.7,674.7 541.7,674.7 L541.8,676.1 C541.8,676.1 547,678 551.7,678 C558.8,678 559.8,674.7 559.8,674.7 C562.6,674.4 562.1,678.1 561.7,686.5 C561.3,694.1 560.9,703.7 560.9,703.7 C560.9,703.7 554.8,708.6 541.6,703.7 Z" id="Path" fill="#100A0A" fill-rule="nonzero"></path>
            <path d="M340.9,704.8 C340.9,704.8 341.6,683.8 341.9,679.7 C342.2,675.6 340.8,675.8 340.8,675.8 L340.7,677.1 C340.7,677.1 335.6,679.1 330.9,679.1 C323.8,679.1 322.8,675.8 322.8,675.8 C320,675.5 320.5,679.2 320.9,687.6 C321.3,695.2 321.7,704.8 321.7,704.8 C321.7,704.8 327.6,709.7 340.9,704.8 Z" id="Path" fill="#100A0A" fill-rule="nonzero"></path>
            <path d="M556.2,528.6 C539,514.6 461.5,514.5 461.5,514.5 L441.8,507.5 L420,515.8 C420,515.8 358.3,510.1 344.2,528.2 C330.1,546.3 319.6,617.1 318.1,658.7 C317.1,685.5 316.1,703.1 316.1,703.1 L348.3,703.1 C348.3,703.1 374.3,587.5 389.9,576.9 C405.5,566.3 427.5,557.4 441.6,556.8 C458,556.1 497.5,566.3 513.1,576.8 C528.7,587.4 535.3,703 535.3,703 L567.5,703 C567.5,703 567.5,703 571,663.3 C574.6,623.7 573.9,543.1 556.2,528.6 Z" id="Path" fill="#00323D" fill-rule="nonzero"></path>
            <path d="M309.5,459.7 C309.5,459.7 333.5,402.2 343.9,374.9 C348,364.1 355.6,335 374.9,334 C390.2,333.2 402.2,346.1 400.1,358.7 C395.6,386.2 339.2,473.5 339.2,473.5" id="Path" fill="#2C2020" fill-rule="nonzero"></path>
            <path d="M549.3,511 C549.3,511 552.4,519.1 550.4,523.2 C548.4,527.3 546.4,530.7 549.8,539.6 C549.8,539.6 551,544.8 555,544.4 C559,544 557.3,539.9 556.1,535.5 C554.8,531 561.4,533.8 562.4,539 C563.4,544.2 561.2,549.7 557,552.1 C551.4,555.3 552.4,558.1 555.3,559 C556.9,559.5 569,555.2 573.6,547 C578.6,538.1 575.1,528.6 570.3,523.8 C564.6,518.1 563.7,510.2 564.3,509.1 C565,507.9 554.3,505.6 549.3,511 Z" id="Path" fill="#E19A74" fill-rule="nonzero"></path>
            <path d="M504.2,452.9 C506.9,457.5 546.4,521.2 546.4,521.2 C546.5,521.2 562.9,518.1 570.5,512.8 C569,510.1 536.6,444.7 534.4,441.5 C532.2,438.3 525.5,435.2 515.3,438.7 C505.1,442.2 501.4,448.3 504.2,452.9 Z" id="Path" fill="#2C2020" fill-rule="nonzero"></path>
            <path d="M544.4,460.1 C544.4,460.1 537.6,405.6 535.3,379.9 C534.4,369.8 535.3,343.3 517.1,337.7 C502.7,333.2 487.5,341.2 485.9,352.3 C482.5,376.7 511.9,464.4 511.9,464.4" id="Path" fill="#2C2020" fill-rule="nonzero"></path>
            <path d="M469.8,322.1 L446.2,345.1 L417.3,322.1 C417.3,322.1 429,309.3 422.7,280.1 C418.8,261.7 466.1,252.5 464.9,280.1 C463.2,319.4 469.8,322.1 469.8,322.1 Z" id="Path" fill="#E19A74" fill-rule="nonzero"></path>
            <path d="M443.8,201.9 L443.8,201.9 C409.4,201.9 400,230.4 403.1,256.3 C403.9,263.4 405.6,269.7 407.7,275.3 C410.4,283.4 413.9,291.3 417.5,296.6 C425.5,308.2 432.7,313 443.8,313 C454.9,313 462.1,308.2 470.1,296.6 C473.6,291.5 477,283.9 479.7,276.1 C482,270.3 483.7,263.8 484.6,256.4 C487.6,230.4 478.2,201.9 443.8,201.9 Z" id="Path" fill="#F4B68A" fill-rule="nonzero"></path>
            <path d="M443.9,308.5 C439.5,308.5 433.2,307.9 430.6,304.7 C429.7,303.7 422.3,296.8 424.6,297.9 C428.6,299.9 427.6,288.9 427.6,285.9 C427.6,283.3 429.3,282.5 431.8,282.5 C435,282.4 439.6,283.5 443.8,283.5 C447.8,283.5 452,282.4 455.2,282.2 C457.9,282.1 459.8,282.7 459.8,285.4 C459.8,288.6 458.5,300.1 463.1,297.4 C464.1,296.9 457.4,303.1 456.7,303.9 C454.2,307.2 448.2,308.5 443.9,308.5 Z" id="Path" fill="#3C2727" fill-rule="nonzero"></path>
            <g id="Group" transform="translate(478.000000, 253.000000)" fill-rule="nonzero">
                <path d="M0.1,5.7 C1.1,2.4 2.7,0.1 4.8,0.1 C8.2,0.1 10.6,6.5 9.4,12.9 C8.1,19.6 5.6,26.3 2.7,25.7 C1.8,25.5 1,24.5 0.4,22.8" id="Path" fill="#F4B68A"></path>
                <path d="M4.4,16.3 C4.1,16.8 3.6,17.2 3.2,16.9 C2.7,16.4 3.1,15.9 3.1,15.1 C3.1,14.4 2.8,13.9 2.6,13.3 C2.4,12.5 2.5,12 2.6,11.2 C3.1,8.3 4.2,4.6 6.2,4.4 L6.2,4.3 C5.3,3.3 4,3.9 3.3,5.1 C2.6,6.2 2.5,8 2,9.4 C1.6,10.6 0.5,12.6 1.3,13.7 C1.6,14.1 2.2,14 2.3,15 C2.4,16.1 1.7,16.2 1.5,16.9 C1.4,17.5 1.4,18.1 1.9,18.3 C2.2,18.4 2.3,18 2.5,18.1 C2.6,18.2 2.8,18.3 2.9,18.5 C3.3,18.8 3.4,19.4 3.9,18.8 C4.3,18.3 4.3,17.2 4.5,16.5" id="Path" fill="#E19A74"></path>
            </g>
            <g id="Group" transform="translate(399.000000, 253.000000)" fill-rule="nonzero">
                <path d="M10.3,5.7 C9.3,2.4 7.7,0.1 5.6,0.1 C2.2,0.1 -0.2,6.5 1,12.9 C2.3,19.6 4.8,26.3 7.7,25.7 C8.6,25.5 9.4,24.5 10,22.8" id="Path" fill="#F4B68A"></path>
                <path d="M6.1,16.3 C6.4,16.8 6.9,17.2 7.3,16.9 C7.8,16.4 7.4,15.9 7.4,15.1 C7.4,14.4 7.7,13.9 7.9,13.3 C8.1,12.5 8,12 7.9,11.2 C7.4,8.3 6.3,4.6 4.3,4.4 L4.3,4.3 C5.2,3.3 6.5,3.9 7.2,5.1 C7.9,6.2 8,8 8.5,9.4 C8.9,10.6 10,12.6 9.2,13.7 C8.9,14.1 8.3,14 8.2,15 C8.1,16.1 8.8,16.2 9,16.9 C9.1,17.5 9,18.1 8.6,18.3 C8.3,18.4 8.2,18 8,18.1 C7.8,18.2 7.7,18.3 7.6,18.5 C7.2,18.8 7.1,19.4 6.6,18.8 C6.2,18.3 6.2,17.2 6,16.5" id="Path" fill="#E19A74"></path>
            </g>
            <path d="M444.6,266.5 C442.4,274.6 439.3,277.4 440.6,279.5 C442,281.9 447.4,280.8 447.4,280.8" id="Path" fill="#E19A74" fill-rule="nonzero"></path>
            <path d="M443.9,305.6 C440,305.6 434.4,303.8 432.1,301.3 C428,297 428.8,290.6 428.8,287.7 C428.8,283.1 437.3,287.2 443.8,287.2 C450.3,287.2 458.4,283.1 458.4,287.7 C458.4,290.6 459.1,299.1 454.9,301.2 C451.9,302.6 447.7,305.6 443.9,305.6 Z" id="Path" fill="#F4B68A" fill-rule="nonzero"></path>
            <path d="M421.1,260.3 C421.1,260.3 428.5,252.6 433.4,260.3 C433.4,260.3 427.7,256.5 421.1,260.3 Z" id="Path" fill="#3C2727" fill-rule="nonzero"></path>
            <path d="M466.6,260.4 C466.6,260.4 459.2,252.8 454.3,260.4 C454.4,260.4 460.1,256.7 466.6,260.4 Z" id="Path" fill="#3C2727" fill-rule="nonzero"></path>
            <path d="M436.1,255.4 C436.1,255.4 433.4,254.2 430.6,253.8 C428.2,253.4 426.3,252.4 422.6,252.9 C418.9,253.5 416.3,255.9 416,256.2 C415.7,256.6 416.9,254.1 418.4,253.2 C419.9,252.3 422.5,251.2 426,251.3 C429.6,251.4 434.2,252.2 435.2,252.9 C436.3,253.7 438.8,254.6 436.1,255.4 Z" id="Path" fill="#3C2727" fill-rule="nonzero"></path>
            <path d="M453.6,255.4 C453.6,255.4 456,254.2 458.5,253.8 C460.6,253.4 462.9,252.6 466.2,253.2 C469.5,253.8 471.2,255.9 471.5,256.3 C471.8,256.7 470.7,254.2 469.4,253.3 C468.1,252.4 465.8,251.3 462.6,251.4 C459.4,251.5 455.3,252.3 454.4,253 C453.4,253.7 451.2,254.6 453.6,255.4 Z" id="Path" fill="#3C2727" fill-rule="nonzero"></path>
            <ellipse id="Oval" fill="#3C2727" fill-rule="nonzero" cx="427.6" cy="260.4" rx="3" ry="3.5"></ellipse>
            <ellipse id="Oval" fill="#3C2727" fill-rule="nonzero" cx="459.4" cy="260.4" rx="3" ry="3.4"></ellipse>
            <path d="M477.6,265.4 C476.7,256.4 478.4,252.8 476.5,261.3 C476.5,261.3 479.1,277.2 472.5,288.8 C467.8,296.9 454.5,303.1 443.4,303.1 C433.2,303.1 420.1,298 415.9,288.8 C410.7,277.5 411.1,260.5 411.1,260.5 C409.2,252 411.1,256.4 410.2,265.4 C409.3,274.4 410.6,282.4 410.6,282.4 C419.7,312.3 436.7,312.9 444,312.9 C451.3,312.9 468.4,312.6 477.4,282.4 C477.2,282.4 478.5,274.4 477.6,265.4 Z" id="Path" fill="#3C2727" fill-rule="nonzero"></path>
            <path d="M484.8,253.8 C484.8,253.8 497.3,190.6 443.8,190.6 C392.9,190.6 402.8,253.8 402.8,253.8 C405.3,253.8 407.5,255.3 408.7,257.5 C410,259.7 410.1,264.2 410,264.9 C411,264.9 412,249.9 412,246.6 C411.9,236.7 418.6,226.8 427,226.8 C433.4,226.8 436.8,223.7 444.6,223.7 C451.9,223.7 455,227.2 460.6,227.2 C469,227.2 474.3,238.1 474.8,248.5 C474.9,250 476.6,265 477.6,265 C477.6,264.2 477.6,260 478.9,257.5 C480,255.3 482.3,253.8 484.8,253.8 Z" id="Path" fill="#3C2727" fill-rule="nonzero"></path>
            <path d="M444.4,227.8 C453.6,227.8 478.6,228.9 478.6,213.3 C478.6,195 462,192.6 444.5,192.6 C427,192.6 410.4,195 410.4,213.3 C410.5,228.2 435.3,227.8 444.4,227.8 Z" id="Path" fill="#3C2727" fill-rule="nonzero"></path>
            <path d="M447.4,294.4 C447.4,294.4 437.8,297.2 431.9,288.2" id="Path" fill="#E19A74" fill-rule="nonzero"></path>
            <path d="M518.4,447.9 C520.1,418.4 524,339 515.2,335.7 C501.6,330.5 486.1,330.6 476.7,325.7 L446.2,342.3 L412.4,326 C403,330.9 381.5,330.5 367.9,335.7 C359.1,339.1 363,418.1 364.8,447.6 C366.9,482.9 368.2,516.1 368.2,516.1 C368.2,516.1 387.7,527.9 441.6,528 C495.6,527.8 518,518 518,518 C518,518 516.3,483.2 518.4,447.9 Z" id="Path" fill="#352929" fill-rule="nonzero"></path>
            <path d="M423.7,410 C423,400.9 423.3,396.9 413.9,396.4 C403.7,395.8 396.7,403.2 394.6,409.6 C392,417.2 385.3,421.6 384,421.5 C382.7,421.4 385.4,432 392.4,434.2 C392.4,434.2 398.3,427.8 402.9,427.8 C407.4,427.8 410,426.6 418.5,422.3 C423.9,419.5 424.1,415 423.7,410 Z" id="Path" fill="#E19A74" fill-rule="nonzero"></path>
            <path d="M312.7,455.9 C317.7,453.2 387.7,415.3 387.7,415.3 C387.8,415.3 397.6,425.3 400.8,434.4 C397.9,436.1 334.6,481.2 330.9,483 C327.2,484.8 319.8,484 313.5,475.1 C307.2,466.3 307.7,458.7 312.7,455.9 Z" id="Path" fill="#2C2020" fill-rule="nonzero"></path>
            <g id="Group" transform="translate(375.000000, 353.000000)" fill-rule="nonzero">
                <path d="M76.6,80 C76.6,80 58.9,82.7 47.3,80 C47.3,80 41.7,60 41.2,11.6 C41.2,11.6 45.3,9.9 45.3,5.7 C45.3,1.6 42.7,0.2 40.2,0.2 C37.7,0.2 35.1,1.6 35.1,5.7 C35.1,9.8 39.2,11.6 39.2,11.6 C38.6,60 33,80 33,80 C21.3,82.7 3.7,80 3.7,80 C-2.6,86.3 3.7,88.8 3.7,88.8 C13,86 33.1,88.1 33.1,88.1 L32.9,340.5 L40.1,377.7 L47.9,340.3 L47.2,88.2 C47.2,88.2 67.3,86 76.6,88.9 C76.6,88.8 82.9,86.3 76.6,80 Z" id="Path" fill="#E4E4E4"></path>
                <path d="M47.1,88.2 C47.1,88.2 67.2,86 76.5,88.9 C76.5,88.9 82.8,86.4 76.5,80.1 C76.5,80.1 58.8,82.8 47.2,80.1 C47.2,80.1 41.6,60.1 41.1,11.7 C41.1,11.7 45.2,10 45.2,5.8 C45.2,2.7 43.7,1.1 41.9,0.6 L40.1,0.3 L40.1,377.7 L47.9,340.3 L47.1,88.2 Z" id="Path" fill="#CACACA"></path>
                <path d="M47.3,80 C47.3,80 41.7,60 41.2,11.6 C41.2,11.6 45.3,9.9 45.3,5.7 C45.3,1.5 42.7,0.2 40.2,0.2 C37.7,0.2 35.1,1.6 35.1,5.7 C35.1,9.8 39.2,11.6 39.2,11.6 C38.6,60 33,80 33,80 L40.1,85.1 L47.3,80 Z" id="Path" fill="url(#linearGradient-8)"></path>
                <path d="M33,85.1 L0.9,85.1 C0.9,87.7 3.7,88.9 3.7,88.9 C13,86.1 33.1,88.2 33.1,88.2 L40.1,85.1 L33,85.1 L33,85.1 Z" id="Path" fill="#B2B2B2"></path>
                <path d="M47.3,85.1 L79.4,85.1 C79.4,87.7 76.6,88.9 76.6,88.9 C67.3,86.1 47.2,88.2 47.2,88.2 L40.2,85.1 L47.3,85.1 L47.3,85.1 Z" id="Path" fill="#B2B2B2"></path>
            </g>
            <polygon id="Path" fill="#2C2020" fill-rule="nonzero" points="417.3 322.1 446.4 343.1 469.8 322.1 476.7 325.7 446.2 350.6 412.4 326"></polygon>
            <path d="M201.3,637.4 C149.7,610.6 67.3,577.7 47.9,481.4 C55.9,598.9 148.6,635.4 204.8,664.5 C565.9,851.9 887.5,627.7 846,458 C850,623 543.4,814.9 201.3,637.4 Z" id="Path" fill="url(#linearGradient-9)" fill-rule="nonzero"></path>
            <path d="M402.9,427.7 C407.4,427.7 410,426.5 418.5,422.2 C423.9,419.5 424.3,415 423.7,410 C422.4,399.8 423.3,396.9 413.9,396.4 C403.7,395.8 396.7,403.2 394.6,409.6 L402.9,427.7 Z" id="Path" fill="#E19A74" fill-rule="nonzero"></path>
        </g>
    </g>
</svg>