<?xml version="1.0" encoding="UTF-8"?>
<svg width="959px" height="666px" viewBox="0 0 959 666" version="1.1" xmlns="http://www.w3.org/2000/svg" xmlns:xlink="http://www.w3.org/1999/xlink">
    <!-- Generator: Sketch 60.1 (88133) - https://sketch.com -->
    <title>illustrations/gamification</title>
    <desc>Created with Sketch.</desc>
    <defs>
        <linearGradient x1="855.618253%" y1="39.1496611%" x2="-828.982081%" y2="62.1431614%" id="linearGradient-1">
            <stop stop-color="#00AFBA" offset="0%"></stop>
            <stop stop-color="#6E68C6" offset="100%"></stop>
        </linearGradient>
        <linearGradient x1="-4.85673838%" y1="52.6974875%" x2="106.631434%" y2="47.7390988%" id="linearGradient-2">
            <stop stop-color="#00AFBA" offset="0%"></stop>
            <stop stop-color="#6E68C6" offset="100%"></stop>
        </linearGradient>
        <linearGradient x1="-2420.54206%" y1="50.1457503%" x2="1189.16236%" y2="50.1457503%" id="linearGradient-3">
            <stop stop-color="#00AFBA" offset="0%"></stop>
            <stop stop-color="#6E68C6" offset="100%"></stop>
        </linearGradient>
        <linearGradient x1="-2309.815%" y1="50.0233753%" x2="2081.99796%" y2="50.0233753%" id="linearGradient-4">
            <stop stop-color="#00AFBA" offset="0%"></stop>
            <stop stop-color="#6E68C6" offset="100%"></stop>
        </linearGradient>
        <linearGradient x1="-816.075368%" y1="-65.0896276%" x2="597.289315%" y2="120.315728%" id="linearGradient-5">
            <stop stop-color="#00AFBA" offset="0%"></stop>
            <stop stop-color="#6E68C6" offset="100%"></stop>
        </linearGradient>
        <linearGradient x1="-127.322873%" y1="31.0097368%" x2="2902.42568%" y2="357.030018%" id="linearGradient-6">
            <stop stop-color="#00AFBA" offset="0%"></stop>
            <stop stop-color="#6E68C6" offset="100%"></stop>
        </linearGradient>
        <linearGradient x1="39.3117042%" y1="42.3511113%" x2="591.058146%" y2="434.706716%" id="linearGradient-7">
            <stop stop-color="#00AFBA" offset="0%"></stop>
            <stop stop-color="#6E68C6" offset="100%"></stop>
        </linearGradient>
        <linearGradient x1="-3.42423781%" y1="50.665826%" x2="108.017281%" y2="48.8696819%" id="linearGradient-8">
            <stop stop-color="#00AFBA" offset="0%"></stop>
            <stop stop-color="#6E68C6" offset="100%"></stop>
        </linearGradient>
        <linearGradient x1="0.00617790811%" y1="50.0004239%" x2="99.9858065%" y2="50.0004239%" id="linearGradient-9">
            <stop stop-color="#00AFBA" offset="0%"></stop>
            <stop stop-color="#6E68C6" offset="100%"></stop>
        </linearGradient>
        <linearGradient x1="0.000138339921%" y1="49.8059259%" x2="100.00164%" y2="49.8059259%" id="linearGradient-10">
            <stop stop-color="#00AFBA" offset="0%"></stop>
            <stop stop-color="#6E68C6" offset="100%"></stop>
        </linearGradient>
        <linearGradient x1="0.000138339921%" y1="49.4740741%" x2="100.00164%" y2="49.4740741%" id="linearGradient-11">
            <stop stop-color="#00AFBA" offset="0%"></stop>
            <stop stop-color="#6E68C6" offset="100%"></stop>
        </linearGradient>
        <linearGradient x1="101.337975%" y1="50.172063%" x2="0.348101266%" y2="50.172063%" id="linearGradient-12">
            <stop stop-color="#00AFBA" offset="0%"></stop>
            <stop stop-color="#6E68C6" offset="100%"></stop>
        </linearGradient>
        <linearGradient x1="99.9846525%" y1="49.9808594%" x2="0.0407086504%" y2="49.9808594%" id="linearGradient-13">
            <stop stop-color="#00AFBA" offset="0%"></stop>
            <stop stop-color="#6E68C6" offset="100%"></stop>
        </linearGradient>
        <linearGradient x1="99.326087%" y1="50.0988742%" x2="0.453623188%" y2="50.0988742%" id="linearGradient-14">
            <stop stop-color="#00AFBA" offset="0%"></stop>
            <stop stop-color="#6E68C6" offset="100%"></stop>
        </linearGradient>
        <linearGradient x1="99.98591%" y1="49.9326232%" x2="-0.288643745%" y2="49.9326232%" id="linearGradient-15">
            <stop stop-color="#00AFBA" offset="0%"></stop>
            <stop stop-color="#6E68C6" offset="100%"></stop>
        </linearGradient>
        <linearGradient x1="100.323953%" y1="50.0054428%" x2="0.338748141%" y2="50.0054428%" id="linearGradient-16">
            <stop stop-color="#00AFBA" offset="0%"></stop>
            <stop stop-color="#6E68C6" offset="100%"></stop>
        </linearGradient>
        <linearGradient x1="99.8759163%" y1="50.077173%" x2="0.0933832581%" y2="50.077173%" id="linearGradient-17">
            <stop stop-color="#00AFBA" offset="0%"></stop>
            <stop stop-color="#6E68C6" offset="100%"></stop>
        </linearGradient>
        <linearGradient x1="100.212289%" y1="50.1246377%" x2="0.087179583%" y2="50.1246377%" id="linearGradient-18">
            <stop stop-color="#00AFBA" offset="0%"></stop>
            <stop stop-color="#6E68C6" offset="100%"></stop>
        </linearGradient>
        <linearGradient x1="99.9229211%" y1="49.7337681%" x2="-0.163720075%" y2="49.7337681%" id="linearGradient-19">
            <stop stop-color="#00AFBA" offset="0%"></stop>
            <stop stop-color="#6E68C6" offset="100%"></stop>
        </linearGradient>
        <linearGradient x1="100.250705%" y1="49.8046512%" x2="0.158667941%" y2="49.8046512%" id="linearGradient-20">
            <stop stop-color="#00AFBA" offset="0%"></stop>
            <stop stop-color="#6E68C6" offset="100%"></stop>
        </linearGradient>
        <linearGradient x1="99.8804454%" y1="50.0544296%" x2="-0.235896023%" y2="50.0544296%" id="linearGradient-21">
            <stop stop-color="#00AFBA" offset="0%"></stop>
            <stop stop-color="#6E68C6" offset="100%"></stop>
        </linearGradient>
        <linearGradient x1="100.225658%" y1="50.1125105%" x2="0.0675343768%" y2="50.1125105%" id="linearGradient-22">
            <stop stop-color="#00AFBA" offset="0%"></stop>
            <stop stop-color="#6E68C6" offset="100%"></stop>
        </linearGradient>
        <linearGradient x1="98.6331754%" y1="50.6347965%" x2="-0.476777251%" y2="50.6347965%" id="linearGradient-23">
            <stop stop-color="#00AFBA" offset="0%"></stop>
            <stop stop-color="#6E68C6" offset="100%"></stop>
        </linearGradient>
        <linearGradient x1="99.1658768%" y1="50.9688442%" x2="0.0454976303%" y2="50.9688442%" id="linearGradient-24">
            <stop stop-color="#00AFBA" offset="0%"></stop>
            <stop stop-color="#6E68C6" offset="100%"></stop>
        </linearGradient>
        <linearGradient x1="99.828247%" y1="50.0896386%" x2="-0.191961313%" y2="50.0896386%" id="linearGradient-25">
            <stop stop-color="#00AFBA" offset="0%"></stop>
            <stop stop-color="#6E68C6" offset="100%"></stop>
        </linearGradient>
        <linearGradient x1="100.029204%" y1="50.1430108%" x2="0.040396728%" y2="50.1430108%" id="linearGradient-26">
            <stop stop-color="#00AFBA" offset="0%"></stop>
            <stop stop-color="#6E68C6" offset="100%"></stop>
        </linearGradient>
        <linearGradient x1="99.8889953%" y1="49.8735135%" x2="-0.102746834%" y2="49.8735135%" id="linearGradient-27">
            <stop stop-color="#00AFBA" offset="0%"></stop>
            <stop stop-color="#6E68C6" offset="100%"></stop>
        </linearGradient>
        <linearGradient x1="99.9760466%" y1="50.1119835%" x2="0.00201377848%" y2="50.1119835%" id="linearGradient-28">
            <stop stop-color="#00AFBA" offset="0%"></stop>
            <stop stop-color="#6E68C6" offset="100%"></stop>
        </linearGradient>
        <linearGradient x1="112.394702%" y1="50.3759494%" x2="-850.391391%" y2="50.3759494%" id="linearGradient-29">
            <stop stop-color="#00AFBA" offset="0%"></stop>
            <stop stop-color="#6E68C6" offset="100%"></stop>
        </linearGradient>
        <linearGradient x1="413.61875%" y1="50.0908333%" x2="-1857.95469%" y2="50.0908333%" id="linearGradient-30">
            <stop stop-color="#00AFBA" offset="0%"></stop>
            <stop stop-color="#6E68C6" offset="100%"></stop>
        </linearGradient>
        <linearGradient x1="334.215126%" y1="50.642623%" x2="-887.471429%" y2="50.642623%" id="linearGradient-31">
            <stop stop-color="#00AFBA" offset="0%"></stop>
            <stop stop-color="#6E68C6" offset="100%"></stop>
        </linearGradient>
        <linearGradient x1="504.578641%" y1="50.2347107%" x2="-906.884466%" y2="50.2347107%" id="linearGradient-32">
            <stop stop-color="#00AFBA" offset="0%"></stop>
            <stop stop-color="#6E68C6" offset="100%"></stop>
        </linearGradient>
        <linearGradient x1="378.358%" y1="49.2696721%" x2="-348.5455%" y2="49.2696721%" id="linearGradient-33">
            <stop stop-color="#00AFBA" offset="0%"></stop>
            <stop stop-color="#6E68C6" offset="100%"></stop>
        </linearGradient>
        <linearGradient x1="742.858462%" y1="50.0598726%" x2="-375.454615%" y2="50.0598726%" id="linearGradient-34">
            <stop stop-color="#00AFBA" offset="0%"></stop>
            <stop stop-color="#6E68C6" offset="100%"></stop>
        </linearGradient>
        <linearGradient x1="909.845378%" y1="50.642623%" x2="-311.841176%" y2="50.642623%" id="linearGradient-35">
            <stop stop-color="#00AFBA" offset="0%"></stop>
            <stop stop-color="#6E68C6" offset="100%"></stop>
        </linearGradient>
        <linearGradient x1="1169.62718%" y1="50.2347107%" x2="-241.835922%" y2="50.2347107%" id="linearGradient-36">
            <stop stop-color="#00AFBA" offset="0%"></stop>
            <stop stop-color="#6E68C6" offset="100%"></stop>
        </linearGradient>
        <linearGradient x1="717.769154%" y1="49.2696721%" x2="-5.51791045%" y2="49.2696721%" id="linearGradient-37">
            <stop stop-color="#00AFBA" offset="0%"></stop>
            <stop stop-color="#6E68C6" offset="100%"></stop>
        </linearGradient>
        <linearGradient x1="99.989001%" y1="50.0260116%" x2="0.00692570904%" y2="50.0260116%" id="linearGradient-38">
            <stop stop-color="#00AFBA" offset="0%"></stop>
            <stop stop-color="#6E68C6" offset="100%"></stop>
        </linearGradient>
        <linearGradient x1="100.004243%" y1="49.996235%" x2="-0.0108021329%" y2="49.996235%" id="linearGradient-39">
            <stop stop-color="#00AFBA" offset="0%"></stop>
            <stop stop-color="#6E68C6" offset="100%"></stop>
        </linearGradient>
        <linearGradient x1="99.4338308%" y1="49.2410256%" x2="0.0288557214%" y2="49.2410256%" id="linearGradient-40">
            <stop stop-color="#00AFBA" offset="0%"></stop>
            <stop stop-color="#6E68C6" offset="100%"></stop>
        </linearGradient>
    </defs>
    <g id="illustrations/gamification" stroke="none" stroke-width="1" fill="none" fill-rule="evenodd">
        <g id="9" fill-rule="nonzero">
            <path d="M517.6,651.3 C517.6,651.3 493.4,641 473.6,648.6 C453.8,656.2 453.3,663.1 475.1,663 C496.9,663.1 544.4,666.5 517.6,651.3 Z" id="Path" fill="url(#linearGradient-1)" opacity="0.28"></path>
            <path d="M101,616.1 C23.6,559.3 -58,439.6 75.8,258 C209.6,76.4 346.2,-12.8 573,100.8 C799.8,214.4 819.8,232 923.4,366.1 C1030.8,505.3 881.1,690.6 613.5,632.9 C345.9,575.3 214.5,699.3 101,616.1 Z" id="Path" fill="url(#linearGradient-2)" opacity="0.28"></path>
            <path d="M640.2,111 C636.9,105 639.5,100.3 645.9,100.5 C652.3,100.7 660.2,105.6 663.5,111.6 C666.8,117.6 664.2,122.3 657.8,122.1 C651.3,122 643.4,117 640.2,111 Z" id="Path" fill="url(#linearGradient-3)" opacity="0.28"></path>
            <path d="M426.2,663.8 C421.9,661.3 421.7,657.4 425.8,655 C429.9,652.7 436.7,652.8 441,655.3 C445.3,657.8 445.5,661.7 441.4,664.1 C437.4,666.4 430.5,666.3 426.2,663.8 Z" id="Path" fill="url(#linearGradient-4)" opacity="0.28"></path>
            <path d="M540.8,32.2 C540.8,32.2 587.1,28.6 613.1,59.8 C639.1,91 634.9,105.8 600,89.2 C565.1,72.6 486.7,44.1 540.8,32.2 Z" id="Path" fill="url(#linearGradient-5)" opacity="0.28"></path>
            <path d="M58.1,205.6 C65.2,198.2 74.4,195.6 78.6,199.7 C82.8,203.8 80.5,213 73.3,220.4 C66.1,227.8 57,230.4 52.8,226.3 C48.6,222.2 51,213 58.1,205.6 Z" id="Path" fill="url(#linearGradient-6)" opacity="0.28"></path>
            <path d="M10.1,322.3 C3.4,324.7 -0.9,314.2 1.7,302.5 C6.2,282.7 15.6,253.6 33.3,241.4 C61.3,222 51.2,279.7 28.7,298.8 C12.4,312.7 15.8,320.2 10.1,322.3 Z" id="Path" fill="url(#linearGradient-7)" opacity="0.28"></path>
            <path d="M294.1,537 C294.1,537 255.4,442.1 237.3,396.8 C230.2,379 206.1,334.6 231,312.6 C250.8,295.1 282.2,298.1 294.3,316 C320.6,355 350.8,522.6 350.8,522.6" id="Path" fill="#9E6A41"></path>
            <path d="M70.2,448.4 C67,383.7 47.2,310.8 62.9,303.5 C83.1,294 124.3,285.8 141.3,278.3 C148.6,275.1 169.5,289.6 191.3,288.2 C213.1,286.7 226.9,273.3 226.9,273.3 C236.5,285.3 259.7,295.1 283.9,306.5 C299.5,313.8 304.8,382.9 301.7,447 C299.2,498.4 304.3,585.7 308,638 C265.6,639.5 222.4,653.4 182.5,653.4 C161.2,653.4 139.9,647.8 122,639.8 C102.1,630.9 82.6,607 68.8,592.3 C71.3,539.9 72.7,498.2 70.2,448.4 Z" id="Path" fill="#B27D4F"></path>
            <path d="M151.9,272.8 C144.1,285.9 234.7,300.2 225,271.3 C225,271.3 212.6,244.4 223.9,233.1 C249,208.1 224.3,192.1 224.3,192.1 C224.3,192.1 143.8,155 153.8,192.1 C163.8,229.2 164.2,252.1 151.9,272.8 Z" id="Path" fill="#E19A74"></path>
            <path d="M200.9,38.6 L200.9,38.6 C262.1,38.6 278.9,81.8 277.4,130.4 C274.5,223.9 246.4,245.3 223.3,245.3 C209.3,245.3 155.6,233.9 149,213.7 C142.5,193.5 129.8,153.7 128.2,139.9 C122.8,91.6 139.6,38.6 200.9,38.6 Z" id="Path" fill="#F4B68A"></path>
            <path d="M236.5,158.8 C240.5,174 246.3,179.1 244,183.1 C241.4,187.6 231.3,185.5 231.3,185.5" id="Path" fill="#E19A74"></path>
            <path d="M249.3,200.3 C249.3,200.3 225.9,204 209.3,200.3 C209.3,200.3 214.3,214.6 229.7,214.6 C245.1,214.6 249.3,200.3 249.3,200.3 Z" id="Path" fill="#EFE9DF"></path>
            <path d="M225,271.3 C225,271.3 207.3,291.6 151,270.6 L141.5,277.5 C141.5,277.5 200.4,310 232.6,278.7 L225,271.3 Z" id="Path" fill="#9E6A41"></path>
            <path d="M188.6,545.8 C188.6,545.8 204.5,550.9 212.7,547.3 C220.9,543.7 227.9,540.1 245.2,545.8 C245.2,545.8 255.3,547.7 254.2,554.7 C253,561.7 245.1,558.9 236.4,556.8 C227.7,554.7 232.5,566.1 242.7,567.7 C253,569.3 263.9,565.3 269.1,557.8 C276,547.9 281.3,549.6 282.8,554.7 C283.6,557.5 274.1,578.7 257.5,587 C239.4,596.1 221,590.2 212,582.1 C201.3,572.4 185.7,571 183.4,572.1 C181.1,573.2 177.5,554.7 188.6,545.8 Z" id="Path" fill="#F4B693"></path>
            <path d="M348.7,512.8 C340.4,513.2 336.9,512.8 334.7,531.6 C334.7,531.6 332.1,541.8 338.6,544.9 C345,548 346.3,539.3 347.6,530.2 C348.5,524.4 356.3,534 354.3,542.3 C351.8,552.5 343.6,560 335.2,560.2 C324,560.6 323.3,566.3 327,570.7 C329.1,573.1 350.9,576.9 364.7,566.9 C379.8,556 371.8,536.2 368.7,527.9 C365.4,519.5 357.6,512.3 348.7,512.8 Z" id="Path" fill="#F4B693"></path>
            <path d="M6,459.3 C4.7,451.2 15.9,419.8 28.1,372.8 C32.9,354.3 39.7,304.6 73.2,300.4 C99.8,297.1 123.7,316.9 122.9,338.2 C121.2,384.7 37.8,549.8 37.8,549.8 C37.8,549.8 14.5,514 6,459.3 Z" id="Path" fill="#BB825B"></path>
            <g id="Group" transform="translate(130.000000, 135.000000)">
                <path d="M22.4,7.5 C20.2,3.1 16.6,0.1 11.9,0.1 C4.2,0.1 -1.2,8.5 1.6,16.9 C4.5,25.7 10.2,34.5 16.7,33.7 C18.7,33.5 20.5,32.1 21.8,29.9" id="Path" fill="#F4B68A"></path>
                <path d="M12.8,21.5 C13.4,22.1 14.6,22.7 15.5,22.2 C16.7,21.6 15.8,20.9 15.8,19.8 C15.8,18.8 16.5,18.3 16.8,17.4 C17.3,16.3 17.1,15.7 16.8,14.6 C15.7,10.7 13.2,5.9 8.6,5.7 L8.6,5.6 C10.6,4.3 13.5,5.1 15.2,6.7 C16.8,8.2 17,10.5 18.2,12.3 C19.2,13.9 21.6,16.5 19.8,18 C19.1,18.6 17.8,18.5 17.6,19.6 C17.4,21.1 19,21.1 19.4,22.1 C19.7,22.8 19.5,23.6 18.6,23.9 C18,24.1 17.7,23.5 17.2,23.6 C16.9,23.7 16.6,23.9 16.2,24.1 C15.4,24.5 15.2,25.3 14,24.5 C13.1,23.8 13.1,22.4 12.6,21.4" id="Path" fill="#E19A74"></path>
            </g>
            <path d="M188.4,148.6 C188.4,148.6 202.1,134.4 211.2,148.6 C211.2,148.6 200.6,141.6 188.4,148.6 Z" id="Path" fill="#452C2B"></path>
            <g id="Group" transform="translate(607.000000, 8.000000)">
                <path d="M6.6,536.9 C6.6,536.9 29,368.4 38.1,324.4 C41.7,307.1 45.4,260.9 77.5,254.8 C102.9,249.9 127,266.6 127.5,286.2 C128.4,329.1 75.8,545.1 75.8,545.1" id="Path" fill="#002B48"></path>
                <path d="M244.4,232.7 L201.8,276 L148.7,233.2 C148.7,233.2 166.7,211.8 154.1,159.6 C146.1,126.6 242.2,110 239.8,159.6 C236.3,229.8 244.4,232.7 244.4,232.7 Z" id="Path" fill="#E19A74"></path>
                <path d="M196.8,24.1 L196.8,24.1 C137.9,24.1 121.7,72.9 127,117.3 C128.4,129.4 131.2,140.3 134.9,149.8 C139.5,163.7 145.4,177.2 151.7,186.3 C165.4,206.2 177.7,214.3 196.8,214.3 C215.9,214.3 228.2,206.1 241.9,186.3 C248,177.5 253.8,164.5 258.3,151.1 C262.3,141.2 265.2,130 266.7,117.3 C271.9,72.9 255.7,24.1 196.8,24.1 Z" id="Path" fill="#F4B68A"></path>
                <g transform="translate(116.000000, 113.000000)" id="Path">
                    <path d="M140.9,8.1 C142.9,3.3 146.3,0.1 150.5,0.1 C157.6,0.1 162.5,9.2 159.9,18.5 C157.2,28.1 152,37.7 146,36.8 C144.1,36.5 142.5,35.1 141.3,32.6" fill="#F4B68A"></path>
                    <path d="M149.8,23.4 C149.3,24.1 148.1,24.7 147.3,24.2 C146.2,23.5 147,22.8 147,21.6 C147,20.5 146.4,19.9 146,19 C145.6,17.8 145.7,17.2 146,15.9 C147,11.7 149.3,6.4 153.5,6.2 L153.5,6 C151.7,4.6 149,5.5 147.4,7.1 C145.9,8.7 145.7,11.3 144.7,13.2 C143.8,14.9 141.6,17.7 143.3,19.4 C144,20 145.2,19.9 145.3,21.2 C145.5,22.8 144,22.9 143.6,23.9 C143.3,24.7 143.5,25.6 144.3,25.9 C144.9,26.1 145.2,25.5 145.6,25.6 C145.9,25.7 146.1,25.9 146.5,26.1 C147.2,26.5 147.5,27.4 148.5,26.5 C149.3,25.8 149.4,24.2 149.8,23.1" fill="#E19A74"></path>
                    <path d="M20.7,8.1 C18.7,3.3 15.3,0.1 11.1,0.1 C4,0.1 -0.9,9.2 1.7,18.5 C4.4,28.1 9.6,37.7 15.6,36.8 C17.5,36.5 19.1,35.1 20.3,32.6" fill="#F4B68A"></path>
                    <path d="M11.9,23.4 C12.4,24.1 13.6,24.7 14.4,24.2 C15.5,23.5 14.7,22.8 14.7,21.6 C14.7,20.5 15.3,19.9 15.7,19 C16.1,17.8 16,17.2 15.7,15.9 C14.7,11.7 12.4,6.4 8.2,6.2 L8.2,6 C10,4.6 12.7,5.5 14.2,7.1 C15.7,8.7 15.9,11.3 16.9,13.2 C17.8,14.9 20,17.7 18.3,19.4 C17.6,20 16.5,19.9 16.3,21.2 C16.1,22.8 17.6,22.9 18,23.9 C18.3,24.7 18.1,25.6 17.3,25.9 C16.7,26.1 16.4,25.5 16,25.6 C15.7,25.7 15.5,25.9 15.1,26.1 C14.3,26.5 14.1,27.4 13.1,26.5 C12.3,25.8 12.2,24.2 11.8,23.1" fill="#E19A74"></path>
                </g>
                <path d="M198.1,134.7 C194.4,148.7 189.1,153.4 191.2,157 C193.6,161.1 202.9,159.3 202.9,159.3" id="Path" fill="#E19A74"></path>
                <path d="M178.4,173 C178.4,173 200,176.4 215.3,173 C215.3,173 210.7,186.2 196.5,186.2 C182.2,186.1 178.4,173 178.4,173 Z" id="Path" fill="#EFE9DF"></path>
                <path d="M316.4,409.1 C319.4,343.6 333.4,267.1 318.4,259.6 C295.2,248 269.5,247.2 253.4,236.4 L201.2,273.4 L143.5,237 C127.4,247.8 90.8,247 67.5,258.6 C52.5,266.1 67.4,343.7 70.3,409.2 C73.9,487.7 69.3,642.1 69.3,642.1 C69.3,642.1 103.1,653.6 193,633 C284.1,612.1 315.5,553.8 315.5,553.8 C315.5,553.8 312.8,487.6 316.4,409.1 Z" id="Path" fill="#00345A"></path>
                <polygon id="Path" fill="#002B48" points="148.1 232.1 201.8 272.6 245 232.1 257.7 239 201.4 287.1 139 239.6"></polygon>
                <path d="M266.6,113 C269.6,113.2 271.9,114.8 273.7,116.8 C273.7,116.8 282.3,76.3 278.6,55.6 C273.6,27.7 250.3,11.6 229.5,11.9 C199.1,-16.6 113.5,8.5 114.1,83 C114.1,89.4 118.4,116.9 118.9,118.5 C120.7,115.6 123.7,113.2 127.1,113 C131.3,112.7 134.7,115.8 136.7,119.8 C139,123.9 139.1,132.1 139,133.4 C146.3,136.1 144.4,105.2 145.6,99 C146.8,92.9 215.8,74.7 221.3,48 C222.9,84.4 252.1,94.7 251.6,107.6 C251.5,110.3 249,135.6 254.8,133.7 C254.8,132.3 254.9,124.4 257,119.8 C259,115.8 262.3,112.7 266.6,113 Z" id="Path" fill="#B27D4F"></path>
                <path d="M349.8,481.4 C349.8,481.4 343.8,382.7 342.5,336.2 C342,317.9 346.3,270.3 315.8,258.4 C291.6,249 264.9,261.8 261.1,281.7 C252.8,325.2 294.1,485.9 294.1,485.9" id="Path" fill="#003B5C"></path>
                <path d="M160.1,119.6 C160.1,119.6 172.7,106.5 181.1,119.6 C181.1,119.6 171.3,113.2 160.1,119.6 Z" id="Path" fill="#6C3506"></path>
                <path d="M236,122.5 C236,122.5 223.4,109.5 215,122.5 C215,122.5 224.8,116.1 236,122.5 Z" id="Path" fill="#6C3506"></path>
                <path d="M183.2,110.8 C183.2,110.8 178.6,108.2 173.8,107.3 C169.7,106.5 166.4,104.2 160.1,105.5 C153.8,106.8 149.2,111.9 148.7,112.6 C148.2,113.3 150.2,108 152.8,106 C155.4,104 159.7,101.7 165.9,101.9 C172.1,102.2 179.9,103.9 181.7,105.4 C183.5,107 187.8,109 183.2,110.8 Z" id="Path" fill="#6C3506"></path>
                <path d="M213.5,113.6 C213.5,113.6 217.6,111 221.8,110.1 C225.4,109.3 229.4,107.5 235,108.8 C240.6,110.1 243.6,114.7 244,115.4 C244.4,116.1 242.7,110.8 240.4,108.8 C238.2,106.8 234.2,104.5 228.8,104.7 C223.4,104.9 216.4,106.7 214.8,108.2 C213.3,109.8 209.5,111.8 213.5,113.6 Z" id="Path" fill="#6C3506"></path>
                <ellipse id="Oval" fill="#6C3506" cx="171.2" cy="120.5" rx="5.1" ry="6.7"></ellipse>
                <path d="M195.1,540 C195.1,540 178.4,545.4 169.8,541.6 C161.1,537.8 153.8,534.1 135.7,540 C135.7,540 125,542 126.3,549.3 C127.5,556.7 135.8,553.7 145,551.5 C154.1,549.3 149.1,561.3 138.3,563 C127.5,564.7 116,560.5 110.5,552.6 C103.3,542.2 97.7,544 96.1,549.3 C95.2,552.3 105.2,574.5 122.7,583.2 C141.7,592.7 161.1,586.6 170.5,578 C181.8,567.8 198.2,566.4 200.6,567.5 C203,568.9 206.8,549.4 195.1,540 Z" id="Path" fill="#F4B693"></path>
                <g transform="translate(11.000000, 505.000000)">
                    <path d="M2.4,33.7 C-3,42.2 3.7,51.7 17.9,55.4 C27.3,57.8 37.8,57.1 45.7,53.9 L74.2,61.3 C75.7,66.9 81.8,71.9 91.2,74.4 C105.4,78.1 121.9,74.5 128.7,66.4 L128.7,66.4 L149.3,38.7 L149.3,38.7 C152.1,33.9 148.3,28.5 140.3,26.4 C133.9,24.8 126.8,25.6 122.1,28.3 L105.3,36.8 L55,23.8 L54.3,10.7 C54.4,6.8 50.7,3.1 44.3,1.5 C36.3,-0.6 27,1.4 22.9,5.9 L22.8,5.9 L2.4,33.7 L2.4,33.7 Z" id="Path" fill="#303030"></path>
                    <path d="M2.4,33.7 C2.4,33.7 28,1.7 53.9,8.4 C52.7,5.5 49.4,2.9 44.4,1.6 C36.4,-0.5 27.1,1.5 23,6 L22.9,6 L2.4,33.7 L2.4,33.7 Z" id="Path" fill="#131313"></path>
                    <path d="M88.6,53.7 L95.7,55.5 C96.5,55.7 96.9,56.3 96.5,56.8 L93.4,61 C93,61.5 93.4,62 94.2,62.3 L101.3,64.1 C102.1,64.3 103.1,64.1 103.4,63.6 L106.5,59.4 C106.9,58.9 107.8,58.7 108.6,58.9 L115.5,60.7 C116.3,60.9 117.3,60.7 117.6,60.2 L120.7,56 C121.1,55.5 120.7,55 119.9,54.7 L113,52.9 C112.2,52.7 111.8,52.1 112.2,51.6 L115.2,47.5 C115.6,47 115.2,46.5 114.4,46.2 L107.3,44.4 C106.5,44.2 105.5,44.4 105.2,44.9 L102.2,49 C101.8,49.5 100.9,49.7 100.1,49.5 L93,47.7 C92.2,47.5 91.2,47.7 90.9,48.2 L87.8,52.4 C87.4,53 87.8,53.5 88.6,53.7 Z" id="Path" fill="#131313"></path>
                    <g transform="translate(15.000000, 26.000000)" fill="#131313" id="Oval">
                        <ellipse cx="11" cy="15.1" rx="5.4" ry="3.2"></ellipse>
                        <ellipse cx="25.3" cy="11.7" rx="5.4" ry="3.2"></ellipse>
                        <ellipse cx="6" cy="6.7" rx="5.4" ry="3.2"></ellipse>
                        <ellipse cx="19.7" cy="3.4" rx="5.4" ry="3.2"></ellipse>
                    </g>
                    <path d="M89.5,55 L96.6,56.8 C97.4,57 97.8,57.6 97.4,58.1 L94.3,62.3 C93.9,62.8 94.3,63.3 95.1,63.6 L102.2,65.4 C103,65.6 104,65.4 104.3,64.9 L107.4,60.7 C107.8,60.2 108.7,60 109.5,60.2 L116.4,62 C117.2,62.2 118.2,62 118.5,61.5 L121.6,57.3 C122,56.8 121.6,56.3 120.8,56 L113.9,54.2 C113.1,54 112.7,53.4 113.1,52.9 L116.1,48.8 C116.5,48.3 116.1,47.8 115.3,47.5 L108.2,45.7 C107.4,45.5 106.4,45.7 106.1,46.2 L103.1,50.3 C102.7,50.8 101.8,51 101,50.8 L93.9,49 C93.1,48.8 92.1,49 91.8,49.5 L88.7,53.7 C88.3,54.2 88.6,54.8 89.5,55 Z" id="Path" fill="#FFD985"></path>
                    <g transform="translate(16.000000, 27.000000)" fill="#FFD985" id="Oval">
                        <ellipse cx="10.8" cy="15.4" rx="5.4" ry="3.2"></ellipse>
                        <ellipse cx="25.1" cy="12" rx="5.4" ry="3.2"></ellipse>
                        <ellipse cx="5.8" cy="7" rx="5.4" ry="3.2"></ellipse>
                        <ellipse cx="19.5" cy="3.7" rx="5.4" ry="3.2"></ellipse>
                    </g>
                    <path d="M90.8,69.4 C86.6,68.3 83.2,66.7 80.5,64.8 C82.8,68.1 87.2,70.9 93.1,72.5 C105.3,75.7 119.5,72.4 124.8,65.2 C125.6,64.1 126.2,63 126.5,61.8 C120,69.5 104.3,72.9 90.8,69.4 Z" id="Path" fill="#4C4C4C"></path>
                    <path d="M149.9,33.3 L149.9,33.3 C148.7,30.4 145.4,27.8 140.4,26.5 C134,24.9 126.9,25.7 122.2,28.4 L105.899623,36.7 C105.8,36.7 125.6,27 149.9,33.3 Z" id="Path" fill="#131313"></path>
                    <polygon id="Path" fill="#131313" points="55.3 28.8 77.1 34.5 98.9 40.2 105.3 36.9 80.1 30.4 55 23.8"></polygon>
                </g>
                <path d="M168.4,541 C159.7,537.2 152.4,533.5 134.3,539.4 C134.3,539.4 123.6,541.4 124.9,548.7 C126.1,556.1 134.4,553.1 143.6,550.9 C152.7,548.7 153.4,564.3 143.5,566.6 L168.4,541 Z" id="Path" fill="#F4B693"></path>
                <path d="M26.8,505.3 C35.5,505.8 39.2,505.3 41.5,525 C41.5,525 44.2,535.7 37.5,539 C30.8,542.2 29.4,533.1 28,523.5 C27.1,517.4 18.9,527.5 21,536.2 C23.6,546.9 32.2,554.8 41.1,555 C52.9,555.4 53.6,561.5 49.7,566 C47.5,568.5 24.6,572.6 10,562 C-5.8,550.5 2.5,529.8 5.8,521 C9.2,512.3 17.5,504.8 26.8,505.3 Z" id="Path" fill="#F4B693"></path>
                <path d="M316.9,451.2 C307.2,456.6 170,530.4 170,530.4 C170,530.5 182.1,569.2 193.4,581.5 C199.1,578.4 333.6,505.9 340.4,501.7 C347.3,497.4 353.9,485.3 346.7,468.3 C339.5,451.2 326.6,445.8 316.9,451.2 Z" id="Path" fill="#003B5C"></path>
                <ellipse id="Oval" fill="#6C3506" cx="223.5" cy="123.5" rx="5.1" ry="6.4"></ellipse>
                <path d="M254.7,132.9 C253.1,117.5 254.4,106.7 251.1,121.3 C251.1,121.3 255.6,165.1 196.8,165.1 C138,165.1 144.5,120.5 144.5,120.5 C141.2,105.9 140.5,117.5 139,132.8 C137.4,148.2 139.6,162 139.6,162 C154.8,211.3 184.2,214.3 196.8,214.3 C209.3,214.3 238.6,213.8 254.1,162 C254.1,162.1 256.2,148.3 254.7,132.9 Z M196.8,194.2 C180.7,194.2 174.4,180.4 174.4,172.5 C174.4,164.6 186.9,170.6 196.8,170.6 C206.7,170.6 219.2,164.6 219.2,172.5 C219.3,180.4 212.9,194.2 196.8,194.2 Z" id="Shape" fill="#B27D4F"></path>
            </g>
            <path d="M270.8,151.7 C270.8,151.7 257.1,137.5 248,151.7 C248,151.7 258.7,144.8 270.8,151.7 Z" id="Path" fill="#452C2B"></path>
            <path d="M213.5,139 C213.5,139 208.5,136.1 203.3,135.2 C198.8,134.4 195.2,133.8 188.3,135.2 C181.4,136.6 176.6,140.1 176.1,141 C175.5,141.8 177.8,136 180.5,133.8 C183.3,131.6 188,129.1 194.7,129.4 C201.4,129.7 209.9,131.6 211.8,133.3 C213.8,134.8 218.5,137 213.5,139 Z" id="Path" fill="#452C2B"></path>
            <path d="M246.5,142 C246.5,142 250.9,139.1 255.5,138.2 C259.5,137.4 262.7,136.8 268.8,138.2 C274.9,139.6 279.2,143.1 279.7,144 C280.2,144.9 278.2,139 275.8,136.8 C273.4,134.6 269.1,132.1 263.2,132.4 C257.3,132.7 249.7,134.6 248,136.3 C246.3,138 242.1,140.1 246.5,142 Z" id="Path" fill="#452C2B"></path>
            <ellipse id="Oval" fill="#452C2B" cx="200.5" cy="149.6" rx="5.5" ry="7.3"></ellipse>
            <ellipse id="Oval" fill="#452C2B" cx="257.3" cy="152.8" rx="5.5" ry="7"></ellipse>
            <path d="M158.6,130.2 C158.4,132.1 159.9,144.6 158.8,152 C158.3,155.5 157.2,157.9 155.2,157.3 C155.2,156.7 155,154.9 154.6,152.7 C154.1,149.6 153.2,145.7 151.8,142.9 C149.6,138.7 147,135.9 142.5,135.9 C142.3,135.9 142.2,135.9 142,136 C141.8,136 141.7,135.9 141.5,135.9 C133.9,135.9 128.6,143.9 131.4,152 C134.2,160 138.4,168.1 144.6,170 C149.7,171.6 141.9,190.6 141.9,190.6 C141.9,190.6 104.5,171.8 102.3,116.5 C101.9,107.3 100.9,93.4 102.7,84.3 C102,86.4 98.9,94.3 98.9,94.3 C91.8,92.7 97.6,72.7 98.5,68.2 C100.8,57 106.2,45.1 113.6,36 C121,27.1 131,22.8 142.7,23.3 C145.6,23.4 151.6,23.7 156.6,24.9 C186.5,-14.3 249.1,1.8 246.7,16 C246.1,19.4 240.6,17.6 236.9,16.6 C259.6,27.9 274.6,42.3 284,65.7 C286.2,71.3 289.4,80.3 290.3,87.4 C292.6,104.8 285.1,112.2 273.4,113.6 C262.8,114.9 246.9,103 238.6,97 C222.2,85.1 197.1,64.8 165.9,82.9 C154.3,89.7 160.4,116.9 158.6,130.2 Z" id="Path" fill="#593833"></path>
            <g id="Group" transform="translate(219.000000, 514.000000)" fill="#131313">
                <path d="M141.5,31.5 C146.7,39.5 140.3,48.7 126.8,52.2 C117.8,54.5 107.9,53.8 100.3,50.8 L73.2,57.8 C71.8,63.1 66,67.9 57,70.2 C43.5,73.7 27.8,70.3 21.3,62.6 L21.3,62.6 L1.7,36.2 L1.7,36.2 C-1,31.6 2.7,26.5 10.3,24.5 C16.3,22.9 23.1,23.8 27.6,26.3 L43.6,34.4 L91.4,22 L92.1,9.6 C92,5.9 95.5,2.4 101.6,0.8 C109.2,-1.2 118.1,0.7 122,5 L122.1,5 L141.5,31.5 L141.5,31.5 Z" id="Path"></path>
                <path d="M141.4,31.5 C141.4,31.5 117.1,1.1 92.4,7.4 C93.5,4.6 96.7,2.2 101.5,0.9 C109.1,-1.1 118,0.8 121.9,5.1 L122,5.1 L141.4,31.5 L141.4,31.5 Z" id="Path"></path>
                <path d="M59.4,50.5 L52.7,52.2 C51.9,52.4 51.6,52.9 51.9,53.4 L54.9,57.4 C55.2,57.9 54.9,58.4 54.1,58.6 L47.4,60.3 C46.6,60.5 45.7,60.3 45.4,59.8 L42.4,55.8 C42.1,55.3 41.2,55.1 40.4,55.3 L33.8,57 C33,57.2 32.1,57 31.8,56.5 L28.8,52.5 C28.5,52 28.8,51.5 29.6,51.3 L36.2,49.6 C37,49.4 37.3,48.9 37,48.4 L34.1,44.5 C33.8,44 34.1,43.5 34.9,43.3 L41.6,41.6 C42.4,41.4 43.3,41.6 43.6,42.1 L46.5,46 C46.8,46.5 47.7,46.7 48.5,46.5 L55.2,44.8 C56,44.6 56.9,44.8 57.2,45.3 L60.2,49.3 C60.5,49.8 60.2,50.3 59.4,50.5 Z" id="Path"></path>
                <g transform="translate(100.000000, 24.000000)" id="Oval">
                    <ellipse cx="19" cy="14.5" rx="5.1" ry="3"></ellipse>
                    <ellipse cx="5.4" cy="11.3" rx="5.1" ry="3"></ellipse>
                    <ellipse cx="23.7" cy="6.5" rx="5.1" ry="3"></ellipse>
                    <ellipse cx="10.7" cy="3.4" rx="5.1" ry="3"></ellipse>
                </g>
                <path d="M58.6,51.7 L51.9,53.4 C51.1,53.6 50.8,54.1 51.1,54.6 L54.1,58.6 C54.4,59.1 54.1,59.6 53.3,59.8 L46.6,61.5 C45.8,61.7 44.9,61.5 44.6,61 L41.6,57 C41.3,56.5 40.4,56.3 39.6,56.5 L33,58.2 C32.2,58.4 31.3,58.2 31,57.7 L28,53.7 C27.7,53.2 28,52.7 28.8,52.5 L35.4,50.8 C36.2,50.6 36.5,50.1 36.2,49.6 L33.3,45.7 C33,45.2 33.3,44.7 34.1,44.5 L40.8,42.8 C41.6,42.6 42.5,42.8 42.8,43.3 L45.7,47.2 C46,47.7 46.9,47.9 47.7,47.7 L54.4,46 C55.2,45.8 56.1,46 56.4,46.5 L59.4,50.5 C59.7,51 59.4,51.5 58.6,51.7 Z" id="Path"></path>
                <g transform="translate(99.000000, 25.000000)" id="Oval">
                    <ellipse cx="19.2" cy="14.7" rx="5.1" ry="3"></ellipse>
                    <ellipse cx="5.6" cy="11.5" rx="5.1" ry="3"></ellipse>
                    <ellipse cx="23.9" cy="6.7" rx="5.1" ry="3"></ellipse>
                    <ellipse cx="10.9" cy="3.6" rx="5.1" ry="3"></ellipse>
                </g>
                <path d="M57.4,65.4 C61.3,64.4 64.7,62.9 67.2,61 C65,64.1 60.9,66.8 55.2,68.3 C43.6,71.3 30.1,68.2 25,61.3 C24.2,60.2 23.7,59.2 23.4,58.1 C29.5,65.5 44.5,68.7 57.4,65.4 Z" id="Path"></path>
                <path d="M1.2,31 L1.2,31 C2.3,28.2 5.5,25.8 10.3,24.5 C16.3,22.9 23.1,23.8 27.6,26.3 L43.1,34.2 C43,34.3 24.2,25.1 1.2,31 Z" id="Path"></path>
                <polygon id="Path" points="91.1 26.8 70.4 32.2 49.6 37.6 43.5 34.5 67.5 28.3 91.4 22"></polygon>
            </g>
            <g id="Group" transform="translate(218.000000, 511.000000)">
                <path d="M141.5,31.8 C146.7,39.8 140.3,49 126.8,52.5 C117.8,54.8 107.9,54.1 100.3,51.1 L73.2,58.1 C71.8,63.4 66,68.2 57,70.5 C43.5,74 27.8,70.6 21.3,62.9 L21.3,62.9 L1.7,36.5 L1.7,36.5 C-1,31.9 2.7,26.8 10.3,24.8 C16.3,23.2 23.1,24.1 27.6,26.6 L43.6,34.7 L91.4,22.3 L92.1,9.9 C92,6.2 95.5,2.7 101.6,1.1 C109.2,-0.9 118.1,1 122,5.3 L122.1,5.3 L141.5,31.8 L141.5,31.8 Z" id="Path" fill="#303030"></path>
                <path d="M141.4,31.8 C141.4,31.8 117.1,1.4 92.4,7.7 C93.5,4.9 96.7,2.5 101.5,1.2 C109.1,-0.8 118,1.1 121.9,5.4 L122,5.4 L141.4,31.8 L141.4,31.8 Z" id="Path" fill="#131313"></path>
                <path d="M59.4,50.9 L52.7,52.6 C51.9,52.8 51.6,53.3 51.9,53.8 L54.9,57.8 C55.2,58.3 54.9,58.8 54.1,59 L47.4,60.7 C46.6,60.9 45.7,60.7 45.4,60.2 L42.4,56.2 C42.1,55.7 41.2,55.5 40.4,55.7 L33.8,57.4 C33,57.6 32.1,57.4 31.8,56.9 L28.8,52.9 C28.5,52.4 28.8,51.9 29.6,51.7 L36.2,50 C37,49.8 37.3,49.3 37,48.8 L34.1,44.9 C33.8,44.4 34.1,43.9 34.9,43.7 L41.6,42 C42.4,41.8 43.3,42 43.6,42.5 L46.5,46.4 C46.8,46.9 47.7,47.1 48.5,46.9 L55.2,45.2 C56,45 56.9,45.2 57.2,45.7 L60.2,49.7 C60.5,50.1 60.2,50.7 59.4,50.9 Z" id="Path" fill="#131313"></path>
                <g transform="translate(100.000000, 24.000000)" fill="#131313" id="Oval">
                    <ellipse cx="19" cy="14.9" rx="5.1" ry="3"></ellipse>
                    <ellipse cx="5.4" cy="11.6" rx="5.1" ry="3"></ellipse>
                    <ellipse cx="23.7" cy="6.9" rx="5.1" ry="3"></ellipse>
                    <ellipse cx="10.7" cy="3.7" rx="5.1" ry="3"></ellipse>
                </g>
                <path d="M58.6,52.1 L51.9,53.8 C51.1,54 50.8,54.5 51.1,55 L54.1,59 C54.4,59.5 54.1,60 53.3,60.2 L46.6,61.9 C45.8,62.1 44.9,61.9 44.6,61.4 L41.6,57.4 C41.3,56.9 40.4,56.7 39.6,56.9 L33,58.6 C32.2,58.8 31.3,58.6 31,58.1 L28,54.1 C27.7,53.6 28,53.1 28.8,52.9 L35.4,51.2 C36.2,51 36.5,50.5 36.2,50 L33.3,46.1 C33,45.6 33.3,45.1 34.1,44.9 L40.8,43.2 C41.6,43 42.5,43.2 42.8,43.7 L45.7,47.6 C46,48.1 46.9,48.3 47.7,48.1 L54.4,46.4 C55.2,46.2 56.1,46.4 56.4,46.9 L59.4,50.9 C59.7,51.3 59.4,51.9 58.6,52.1 Z" id="Path" fill="#FFD985"></path>
                <g transform="translate(99.000000, 25.000000)" fill="#FFD985" id="Oval">
                    <ellipse cx="19.2" cy="15.1" rx="5.1" ry="3"></ellipse>
                    <ellipse cx="5.6" cy="11.8" rx="5.1" ry="3"></ellipse>
                    <ellipse cx="24" cy="7.1" rx="5.1" ry="3"></ellipse>
                    <ellipse cx="10.9" cy="3.9" rx="5.1" ry="3"></ellipse>
                </g>
                <path d="M57.4,65.8 C61.3,64.8 64.7,63.3 67.2,61.4 C65,64.5 60.9,67.2 55.2,68.7 C43.6,71.7 30.1,68.6 25,61.7 C24.2,60.6 23.7,59.6 23.4,58.5 C29.6,65.8 44.5,69.1 57.4,65.8 Z" id="Path" fill="#4C4C4C"></path>
                <path d="M1.2,31.4 L1.2,31.4 C2.3,28.6 5.5,26.2 10.3,24.9 C16.3,23.3 23.1,24.2 27.6,26.7 L43.1,34.6 C43.1,34.6 24.2,25.4 1.2,31.4 Z" id="Path" fill="#131313"></path>
                <polygon id="Path" fill="#131313" points="91.1 27.1 70.4 32.5 49.6 37.9 43.5 34.8 67.5 28.7 91.4 22.4"></polygon>
            </g>
            <path d="M349.2,514.3 C341.2,512 336.9,512.8 334.7,531.5 C334.7,531.5 332.1,541.7 338.6,544.8 C345,547.9 345.8,539.1 347.6,530.1 C349.4,521.1 364.1,528.7 361.3,538.8 C361.2,538.9 358.2,516.9 349.2,514.3 Z" id="Path" fill="#F4B693"></path>
            <path d="M613.4,631.5 C345.4,568 214.6,700.7 100.6,610.6 C57.8,576.7 13.5,522.2 4.7,447.6 C7.2,532.7 55.5,594 102.1,630.9 C216,721 346.8,588.3 614.9,651.8 C835.4,704 975.2,579 957.5,449.3 C958.8,571.3 822.3,681 613.4,631.5 Z" id="Path" fill="url(#linearGradient-8)"></path>
            <g id="Group" transform="translate(287.000000, 233.000000)">
                <g>
                    <g opacity="0.8">
                        <g>
                            <path d="M502,329.7 L11.1,329.7 C6.2,329.7 2.2,325.7 2.2,320.8 L2.2,11.1 C2.2,6.2 6.2,2.2 11.1,2.2 L502,2.2 C506.9,2.2 510.9,6.2 510.9,11.1 L510.9,320.9 C510.8,325.7 506.8,329.7 502,329.7 Z" id="Path" fill="#FFFFFF"></path>
                            <path d="M502.5,331.1 L10.6,331.1 C5.2,331.1 0.8,326.7 0.8,321.3 L0.8,10.6 C0.8,5.2 5.2,0.8 10.6,0.8 L502.5,0.8 C507.9,0.8 512.3,5.2 512.3,10.6 L512.3,321.4 C512.2,326.7 507.8,331.1 502.5,331.1 Z M10.6,3.6 C6.8,3.6 3.7,6.7 3.7,10.5 L3.7,321.3 C3.7,325.1 6.8,328.2 10.6,328.2 L502.5,328.2 C506.3,328.2 509.4,325.1 509.4,321.3 L509.4,10.6 C509.4,6.8 506.3,3.7 502.5,3.7 L10.6,3.7 L10.6,3.6 Z" id="Shape" fill="url(#linearGradient-9)"></path>
                        </g>
                    </g>
                    <path d="M6.2,329.7 L505.2,329.7 C507.1,329.7 508.7,328.1 508.7,326.2 L508.7,319.7 C508.7,317.8 507.1,316.2 505.2,316.2 L6.2,316.2 C4.3,316.2 2.7,317.8 2.7,319.7 L2.7,326.2 C2.7,328.1 4.3,329.7 6.2,329.7 Z" id="Path" fill="url(#linearGradient-10)" opacity="0.5"></path>
                    <path d="M6.2,15.8 L505.2,15.8 C507.1,15.8 508.7,14.2 508.7,12.3 L508.7,5.8 C508.7,3.9 507.1,2.3 505.2,2.3 L6.2,2.3 C4.3,2.3 2.7,3.9 2.7,5.8 L2.7,12.3 C2.7,14.2 4.3,15.8 6.2,15.8 Z" id="Path" fill="url(#linearGradient-11)" opacity="0.5"></path>
                </g>
                <g opacity="0.6" transform="translate(106.000000, 51.000000)">
                    <g transform="translate(242.000000, 146.000000)" id="Path">
                        <path d="M1.4,37.1 C1.6,37.1 1.8,36.9 1.8,36.7 L7.9,1.8 C7.9,1.6 7.8,1.3 7.5,1.3 C7.3,1.3 7,1.4 7,1.7 L0.9,36.6 C1,36.8 1.1,37 1.4,37.1 C1.4,37.1 1.4,37.1 1.4,37.1 Z" fill="#F6F2B9"></path>
                        <path d="M1.4,37.5 L1.3,37.5 C0.8,37.4 0.5,36.9 0.5,36.4 L6.6,1.5 C6.7,1 7.1,0.7 7.6,0.8 C8.1,0.9 8.4,1.4 8.4,1.9 L2.3,36.8 C2.3,37.2 1.9,37.5 1.4,37.5 Z" fill="url(#linearGradient-12)"></path>
                    </g>
                    <path d="M46.5,127.8 L34.6,60.6 C34.5,60.1 34.7,59.6 35.1,59.3 L104.4,1.2 C104.6,1 105,0.9 105.3,0.9 L195.7,0.9 C196,0.9 196.3,1 196.6,1.2 L265.9,59.3 C266.3,59.6 266.5,60.1 266.4,60.6 L264.7,70.3 C264.6,71 263.9,71.5 263.1,71.4 C262.7,71.3 262.4,71.1 262.2,70.8 C262,70.5 261.9,70.1 262,69.8 L263.6,60.9 L195.3,3.6 L105.9,3.6 L37.6,60.9 L49.3,127.3 C49.4,127.7 49.3,128 49.1,128.3 C48.9,128.6 48.6,128.8 48.2,128.9 L48,128.9 C47.2,128.9 46.7,128.5 46.5,127.8 Z" id="Shape" fill="url(#linearGradient-13)"></path>
                    <g transform="translate(224.000000, 154.000000)" id="Path">
                        <path d="M1.3,29.8 C1.5,29.8 1.7,29.6 1.7,29.4 L6.7,1.1 C6.7,0.9 6.6,0.6 6.3,0.6 C6.1,0.6 5.8,0.7 5.8,1 L0.8,29.3 C0.9,29.5 1,29.7 1.3,29.8 C1.3,29.8 1.3,29.8 1.3,29.8 Z" fill="#F6F2B9"></path>
                        <path d="M1.3,30.2 L1.2,30.2 C0.9,30.2 0.7,30 0.6,29.8 C0.5,29.6 0.4,29.4 0.4,29.1 L5.4,0.8 C5.5,0.3 6,1.13700716e-13 6.5,0.1 C6.7,0.1 6.9,0.3 7.1,0.5 C7.2,0.7 7.3,0.9 7.3,1.2 L2.3,29.5 C2.2,29.9 1.8,30.2 1.3,30.2 Z" fill="url(#linearGradient-14)"></path>
                    </g>
                    <g transform="translate(89.000000, 59.000000)" id="Path">
                        <path d="M49.2,16.5 C49.3,16.5 49.3,16.5 49.4,16.5 C49.6,16.4 49.7,16.1 49.6,15.9 C48.9,14.3 47.6,12.8 47.1,12.3 C40.7,6.7 32.2,9.7 25.4,12.1 C24.9,12.3 24.3,12.5 23.8,12.7 C19,14.4 13.9,14.8 10,13.7 C6.9,12.9 3.9,10.4 2.6,7.6 C1.7,5.6 1.7,3.6 2.6,1.8 C2.7,1.6 2.6,1.3 2.4,1.2 C2.2,1.1 1.9,1.2 1.8,1.4 C0.8,3.5 0.8,5.8 1.8,8 C3.2,11 6.4,13.6 9.8,14.6 C13.9,15.7 19.1,15.3 24.1,13.6 C24.6,13.4 25.2,13.2 25.7,13 C32.6,10.5 40.5,7.7 46.5,13 C46.9,13.3 48,14.8 48.7,16.3 C48.8,16.4 49,16.5 49.2,16.5 Z" fill="#F6F2B9"></path>
                        <path d="M49.2,16.9 C48.8,16.9 48.5,16.7 48.4,16.4 C47.7,15 46.6,13.6 46.3,13.3 C40.5,8.2 32.8,11 26,13.4 L24.4,14 C19.3,15.8 14,16.2 9.8,15 C6.3,14.1 2.9,11.3 1.5,8.2 C0.4,5.9 0.4,3.4 1.5,1.2 C1.7,0.7 2.3,0.6 2.7,0.8 C3.2,1 3.4,1.6 3.1,2 C2.3,3.7 2.3,5.6 3.1,7.4 C4.3,10.1 7.2,12.4 10.2,13.2 C14.1,14.2 19,13.9 23.7,12.2 C24.2,12 24.8,11.8 25.3,11.6 C32.2,9.1 40.8,6.1 47.4,11.9 C47.9,12.3 49.2,14 50,15.6 C50.2,16.1 50,16.6 49.6,16.8 C49.4,16.9 49.3,16.9 49.2,16.9 Z" fill="url(#linearGradient-15)"></path>
                    </g>
                    <g transform="translate(130.000000, 71.000000)">
                        <path d="M2.3,18.2 C2.4,18.2 2.4,18.2 2.3,18.2 C2.4,18.2 2.5,18.1 2.5,18 L1.7,9 C1.7,9 1.7,9 1.7,8.9 C1.4,8.2 1.9,7.3 2.9,6.9 L15.2,2 C16.1,1.6 17.1,1.9 17.4,2.7 C17.4,2.7 17.4,2.7 17.4,2.8 L22.9,9.9 C23,10 23.1,10 23.2,9.9 C23.3,9.8 23.3,9.7 23.2,9.6 L17.7,2.5 C17.3,1.6 16.1,1.2 14.9,1.6 L2.6,6.5 C1.5,7 0.8,8.1 1.2,9 L2,17.9 C2.1,18.1 2.2,18.2 2.3,18.2 Z" id="Path" fill="#C4E6EE"></path>
                        <path d="M2.3,18.7 C1.9,18.7 1.6,18.4 1.6,18.1 L0.8,9.2 C0.4,8 1.2,6.6 2.5,6.1 L14.8,1.2 C16.2,0.7 17.6,1.1 18.2,2.3 L23.7,9.3 C23.8,9.4 23.9,9.6 23.8,9.8 C23.8,10 23.7,10.2 23.5,10.3 C23.4,10.4 23.2,10.5 23,10.4 C22.8,10.4 22.7,10.3 22.5,10.1 L16.9,2.8 C16.8,2.6 16.6,2.5 16.5,2.4 C16.2,2.3 15.7,2.3 15.3,2.4 L3,7.3 C2.3,7.6 1.9,8.2 2.1,8.7 L2.1,8.9 L2.9,17.9 C2.9,18.1 2.9,18.3 2.7,18.4 C2.8,18.6 2.6,18.7 2.3,18.7 L2.3,18.7 Z" id="Shape" fill="url(#linearGradient-16)"></path>
                    </g>
                    <g transform="translate(200.000000, 79.000000)" id="Shape">
                        <path d="M24.4,44.7 C23.2,44.2 22.3,43.2 21.8,42 L18.4,33.3 L9.7,36.7 C7.2,37.7 4.4,36.5 3.4,34 L1.1,28.3 C0.6,27.1 0.6,25.8 1.2,24.6 C1.7,23.4 2.7,22.5 3.9,22 L12.6,18.6 L9.2,9.9 C8.7,8.7 8.7,7.4 9.3,6.2 C9.8,5 10.8,4.1 12,3.6 L17.7,1.3 C20.2,0.3 23,1.5 24,4 L27.4,12.7 L36.1,9.3 C37.3,8.8 38.6,8.8 39.8,9.4 C41,9.9 41.9,10.9 42.4,12.1 L44.7,17.8 C45.7,20.3 44.5,23.1 42,24.1 L33.3,27.5 L36.7,36.2 C37.7,38.7 36.5,41.5 34,42.5 L28.3,44.8 C27.7,45 27.1,45.1 26.5,45.1 C25.7,45.2 25.1,45 24.4,44.7 Z M36.3,9.8 L27.4,13.3 C27.3,13.3 27.2,13.3 27.1,13.2 L23.6,4.3 C22.7,2 20.2,0.9 17.9,1.8 L12.2,4.1 C11.1,4.5 10.3,5.4 9.8,6.4 C9.3,7.5 9.3,8.7 9.7,9.8 L13.2,18.7 C13.2,18.8 13.2,18.8 13.2,18.9 C13.2,19 13.1,19 13.1,19 L4.2,22.5 L4.2,22.5 C3.1,22.9 2.2,23.8 1.8,24.8 C1.3,25.9 1.3,27.1 1.7,28.2 L4,33.9 C4.9,36.2 7.5,37.3 9.7,36.4 L18.6,32.9 C18.7,32.9 18.7,32.9 18.8,32.9 C18.9,32.9 18.9,33 18.9,33 L22.4,41.9 C23.3,44.2 25.8,45.3 28.1,44.4 L33.8,42.1 C36.1,41.2 37.2,38.7 36.3,36.4 L32.8,27.5 C32.8,27.4 32.8,27.4 32.8,27.3 C32.8,27.2 32.9,27.2 32.9,27.2 L41.8,23.7 C44.1,22.8 45.2,20.3 44.3,18 L42,12.3 C41.6,11.2 40.7,10.4 39.7,9.9 C39.1,9.7 38.5,9.5 38,9.5 C37.3,9.5 36.8,9.6 36.3,9.8 Z" fill="#F5D0E3"></path>
                        <path d="M26.4,45.6 C25.7,45.6 25,45.5 24.3,45.2 L24.3,45.2 C23,44.6 22,43.6 21.5,42.3 L18.2,34 L9.9,37.3 C8.6,37.8 7.1,37.8 5.8,37.2 C4.5,36.6 3.5,35.6 3,34.3 L0.7,28.6 C0.2,27.3 0.2,25.8 0.8,24.5 C1.4,23.2 2.4,22.2 3.7,21.7 L12,18.4 L8.7,10.1 C8.2,8.8 8.2,7.3 8.8,6 C9.4,4.7 10.4,3.7 11.7,3.2 L17.4,0.9 C18.7,0.4 20.2,0.4 21.5,1 C22.8,1.6 23.8,2.6 24.3,3.9 L27.6,12.2 L35.9,8.9 C37.2,8.4 38.7,8.4 40,9 C41.3,9.6 42.3,10.6 42.8,11.9 L45.1,17.6 C46.2,20.3 44.8,23.4 42.1,24.5 L33.8,27.8 L37.1,36.1 C38.2,38.8 36.8,41.9 34.1,43 L28.4,45.3 C27.7,45.5 27,45.6 26.4,45.6 Z M18.6,32.4 C18.7,32.4 18.8,32.4 18.9,32.4 C19.1,32.5 19.2,32.6 19.3,32.8 L22.8,41.7 C23.6,43.7 25.9,44.7 27.9,43.9 L33.6,41.6 C35.6,40.8 36.6,38.5 35.8,36.5 L32.3,27.6 C32.2,27.4 32.2,27.2 32.3,27.1 C32.4,26.9 32.5,26.8 32.7,26.7 L41.6,23.2 C43.6,22.4 44.6,20.1 43.8,18.1 L41.5,12.4 C41.1,11.4 40.4,10.7 39.4,10.2 C38.4,9.8 37.4,9.8 36.4,10.1 L27.5,13.6 C27.3,13.7 27.1,13.7 27,13.6 C26.8,13.5 26.7,13.4 26.6,13.2 L23.1,4.3 C22.3,2.3 20,1.3 18,2.1 L12.3,4.4 C11.3,4.8 10.6,5.5 10.1,6.5 C9.7,7.5 9.7,8.5 10,9.5 L13.5,18.4 C13.6,18.6 13.6,18.8 13.5,18.9 C13.4,19.1 13.3,19.2 13.1,19.3 L4.2,22.8 C3.2,23.2 2.5,23.9 2,24.9 C1.6,25.9 1.6,26.9 1.9,27.9 L4.2,33.6 C4.6,34.6 5.3,35.3 6.3,35.8 C7.3,36.2 8.3,36.2 9.3,35.9 L18.2,32.4 C18.4,32.4 18.5,32.4 18.6,32.4 Z" fill="url(#linearGradient-17)"></path>
                    </g>
                    <path d="M223,138.6 C207.9,138.6 194.5,129.5 189,115.4 C187.3,111.1 186.4,106.6 186.4,102 C186.4,101.5 186.8,101.1 187.3,101.1 C187.8,101.1 188.2,101.5 188.2,102 C188.2,106.4 189,110.6 190.6,114.7 C197.6,132.5 217.8,141.3 235.6,134.3 C244.2,130.9 251,124.3 254.7,115.8 C258.4,107.3 258.6,97.9 255.2,89.2 C251.8,80.6 245.3,73.8 236.7,70.1 C228.2,66.4 218.8,66.2 210.1,69.6 C205.9,71.3 202,73.7 198.8,76.9 C198.4,77.3 197.9,77.2 197.5,76.9 C197.3,76.7 197.2,76.5 197.2,76.2 C197.2,76 197.3,75.7 197.5,75.6 C200.9,72.3 205,69.7 209.4,68 C228.2,60.6 249.4,69.9 256.8,88.6 C260.4,97.7 260.2,107.6 256.3,116.6 C252.4,125.6 245.3,132.5 236.2,136 C232.1,137.8 227.6,138.6 223,138.6 Z" id="Path" fill="#FFFFFF"></path>
                    <g transform="translate(83.000000, 128.000000)" id="Shape">
                        <path d="M2,10.2 L2,10.2 C0.6,6.6 2.4,2.6 5.9,1.2 C9.5,-0.2 13.5,1.6 14.9,5.1 C15.6,6.8 15.5,8.7 14.8,10.4 C14.1,12.1 12.7,13.4 11,14.1 C10.2,14.4 9.3,14.6 8.5,14.6 C5.7,14.6 3,12.9 2,10.2 Z M6,1.6 C2.7,2.9 1,6.7 2.3,10 L2.3,10 C3.6,13.3 7.4,15 10.7,13.7 C12.3,13.1 13.6,11.8 14.3,10.2 C15,8.6 15,6.8 14.4,5.2 C13.4,2.6 10.9,1.1 8.3,1.1 C7.6,1.1 6.8,1.3 6,1.6 Z" fill="#C4E6EE"></path>
                        <path d="M8.4,15 C5.3,15 2.6,13.2 1.5,10.3 C0.8,8.5 0.8,6.4 1.6,4.6 C2.4,2.8 3.8,1.4 5.7,0.7 C7.5,-1.13492549e-13 9.6,-1.13492549e-13 11.4,0.8 C13.2,1.6 14.6,3 15.3,4.9 C16,6.7 16,8.8 15.2,10.6 C14.4,12.4 13,13.8 11.1,14.5 C10.3,14.9 9.4,15 8.4,15 Z M8.4,1.6 C7.6,1.6 6.9,1.7 6.2,2 L6.2,2 C4.7,2.6 3.5,3.7 2.9,5.2 C2.3,6.7 2.2,8.3 2.8,9.8 C3.4,11.3 4.5,12.5 6,13.1 C7.5,13.7 9.1,13.8 10.6,13.2 C12.1,12.6 13.3,11.5 13.9,10 C14.5,8.5 14.6,6.9 14,5.4 C13.1,3.1 10.9,1.6 8.4,1.6 Z" fill="url(#linearGradient-18)"></path>
                    </g>
                    <g transform="translate(96.000000, 159.000000)" id="Shape">
                        <path d="M1.4,10.8 C0.7,9.1 0.8,7.2 1.5,5.5 C2.2,3.8 3.6,2.5 5.3,1.8 C8.9,0.4 12.9,2.2 14.3,5.7 C15.7,9.3 13.9,13.3 10.4,14.7 C9.6,15 8.7,15.2 7.9,15.2 C5.1,15.2 2.5,13.5 1.4,10.8 Z M5.5,2.2 C3.9,2.8 2.6,4.1 1.9,5.7 C1.2,7.3 1.2,9.1 1.8,10.7 L1.8,10.7 C3.1,14 6.9,15.7 10.2,14.4 C13.5,13.1 15.2,9.3 13.9,6 C12.9,3.4 10.4,1.9 7.8,1.9 C7.1,1.8 6.3,1.9 5.5,2.2 Z" fill="#C4E6EE"></path>
                        <path d="M7.9,15.7 C4.8,15.7 2.1,13.9 1,11 C0.3,9.2 0.3,7.1 1.1,5.3 C1.9,3.5 3.3,2.1 5.2,1.4 C7,0.7 9.1,0.7 10.9,1.5 C12.7,2.3 14.1,3.7 14.8,5.6 C16.3,9.4 14.4,13.7 10.6,15.2 C9.7,15.5 8.8,15.7 7.9,15.7 Z M5.7,2.6 C4.2,3.2 3,4.3 2.4,5.8 C1.8,7.3 1.7,8.9 2.3,10.4 C3.5,13.5 7,15 10.1,13.8 C13.2,12.6 14.7,9.1 13.5,6 C12.6,3.7 10.4,2.2 7.9,2.2 C7.1,2.2 6.4,2.4 5.7,2.6 L5.7,2.6 Z" fill="url(#linearGradient-19)"></path>
                    </g>
                    <g transform="translate(74.000000, 150.000000)" id="Shape">
                        <path d="M1.4,10.2 C0.7,8.5 0.8,6.6 1.5,4.9 C2.2,3.2 3.6,1.9 5.3,1.2 C7,0.5 8.9,0.6 10.6,1.3 C12.3,2 13.6,3.4 14.3,5.1 C15.7,8.7 13.9,12.7 10.4,14.1 L10.4,14.1 C9.6,14.4 8.7,14.6 7.9,14.6 C5.1,14.6 2.4,12.9 1.4,10.2 Z M10.2,13.7 C11.8,13.1 13.1,11.8 13.8,10.2 C14.5,8.6 14.5,6.8 13.9,5.2 C13.3,3.6 12,2.3 10.4,1.6 C8.8,0.9 7,0.9 5.4,1.5 C3.8,2.1 2.5,3.4 1.8,5 C1.1,6.6 1.1,8.4 1.7,10 C3.1,13.4 6.9,15 10.2,13.7 L10.2,13.7 Z" fill="#F5D0E3"></path>
                        <path d="M7.8,15.1 C4.8,15.1 2,13.2 0.9,10.4 C0.2,8.6 0.2,6.5 1,4.7 C1.8,2.9 3.2,1.5 5.1,0.8 C6.9,0.1 9,0.1 10.8,0.9 C12.6,1.7 14,3.1 14.7,5 C16.2,8.8 14.3,13.1 10.5,14.6 C9.7,14.9 8.8,15.1 7.8,15.1 Z M7.8,1.6 C7.1,1.6 6.3,1.7 5.6,2 C4.1,2.6 2.9,3.7 2.3,5.2 C1.7,6.7 1.6,8.3 2.2,9.8 C2.8,11.3 3.9,12.5 5.4,13.1 C6.9,13.7 8.5,13.8 10,13.2 L10,13.2 C11.5,12.6 12.7,11.5 13.3,10 C13.9,8.5 14,6.9 13.4,5.4 C12.8,3.9 11.7,2.7 10.2,2.1 C9.5,1.8 8.7,1.6 7.8,1.6 Z" fill="url(#linearGradient-20)"></path>
                    </g>
                    <g transform="translate(106.000000, 137.000000)" id="Shape">
                        <path d="M1,10.7 C0.3,9 0.4,7.1 1.1,5.4 C1.8,3.7 3.2,2.4 4.9,1.7 C8.5,0.3 12.5,2.1 13.9,5.6 C15.3,9.2 13.5,13.2 10,14.6 L10,14.6 C9.2,14.9 8.3,15.1 7.5,15.1 C4.7,15.2 2.1,13.5 1,10.7 Z M9.9,14.3 C13.2,13 14.9,9.2 13.6,5.9 C12.3,2.6 8.5,0.9 5.2,2.2 C3.6,2.8 2.3,4.1 1.6,5.7 C0.9,7.3 0.9,9.1 1.5,10.7 C2.1,12.3 3.4,13.6 5,14.3 C6.5,14.9 8.2,14.9 9.9,14.3 L9.9,14.3 Z" fill="#F5D0E3"></path>
                        <path d="M7.5,15.6 C4.4,15.6 1.7,13.8 0.6,10.9 C-0.1,9.1 -0.1,7 0.7,5.2 C1.5,3.4 2.9,2 4.8,1.3 C6.6,0.6 8.7,0.6 10.5,1.4 C12.3,2.2 13.7,3.6 14.4,5.5 C15.1,7.3 15.1,9.4 14.3,11.2 C13.5,13 12.1,14.4 10.2,15.1 C9.3,15.4 8.4,15.6 7.5,15.6 Z M7.5,2.2 C6.8,2.2 6,2.3 5.3,2.6 C3.8,3.2 2.6,4.3 2,5.8 C1.4,7.3 1.3,8.9 1.9,10.4 C2.5,11.9 3.6,13.1 5.1,13.7 C6.6,14.3 8.2,14.4 9.7,13.8 C12.8,12.6 14.3,9.1 13.1,6 C12.2,3.6 9.9,2.2 7.5,2.2 Z" fill="url(#linearGradient-21)"></path>
                    </g>
                    <g transform="translate(136.000000, 114.000000)" id="Shape">
                        <path d="M6.9,34.7 L1.6,21.1 C0.8,19 1.8,16.6 3.9,15.8 L39.6,1.7 C41.7,0.9 44.1,1.9 44.9,4 L50.2,17.5 C50.6,18.5 50.6,19.6 50.1,20.6 C49.7,21.6 48.9,22.4 47.8,22.8 L12.1,36.9 C11.6,37.1 11.1,37.2 10.6,37.2 C9.1,37.3 7.6,36.4 6.9,34.7 Z M39.9,2.6 L4.2,16.7 C2.6,17.4 1.7,19.2 2.4,20.9 L7.7,34.5 L7.7,34.5 C8.3,36.1 10.2,37 11.9,36.3 L47.6,22.2 C48.4,21.9 49,21.3 49.4,20.5 C49.7,19.7 49.8,18.8 49.4,18 L44.1,4.5 C43.6,3.2 42.4,2.5 41.1,2.5 C40.7,2.4 40.3,2.5 39.9,2.6 Z" fill="#F6F2B9"></path>
                        <path d="M10.7,37.8 C8.8,37.8 7.1,36.7 6.4,34.9 L1.1,21.3 C0.2,19 1.3,16.3 3.7,15.4 L39.4,1.3 C41.7,0.4 44.4,1.5 45.3,3.9 L50.6,17.4 C51,18.5 51,19.8 50.5,20.9 C50,22 49.1,22.9 48,23.3 L12.3,37.4 C11.9,37.7 11.3,37.8 10.7,37.8 Z M41.1,2.9 C40.8,2.9 40.4,3 40.1,3.1 L4.4,17.2 C3,17.8 2.3,19.3 2.9,20.7 L8.2,34.3 C8.5,35 9,35.5 9.7,35.8 C10.4,36.1 11.1,36.1 11.8,35.8 L47.5,21.7 C48.2,21.4 48.7,20.9 49,20.2 C49.3,19.5 49.3,18.8 49,18.1 L43.7,4.6 C43.2,3.6 42.2,2.9 41.1,2.9 Z" fill="url(#linearGradient-22)"></path>
                    </g>
                    <g transform="translate(148.000000, 127.000000)">
                        <g transform="translate(16.000000, 0.000000)">
                            <path d="M1.5,5.2 C1.5,5.2 1.5,5.2 1.5,5.2 L10.6,1.6 C10.7,1.6 10.8,1.4 10.7,1.3 C10.7,1.2 10.5,1.1 10.4,1.2 L1.3,4.8 C1.2,4.8 1.1,5 1.2,5.1 C1.3,5.1 1.4,5.2 1.5,5.2 Z" id="Path" fill="#C4E6EE"></path>
                            <path d="M1.5,5.6 C1.2,5.6 1,5.4 0.9,5.2 C0.8,5 0.8,4.8 0.9,4.7 C1,4.5 1.1,4.4 1.3,4.3 L10.4,0.7 C10.8,0.6 11.2,0.7 11.3,1.1 C11.4,1.3 11.4,1.5 11.3,1.6 C11.2,1.8 11.1,1.9 10.9,2 L1.8,5.6 L1.5,5.6 Z" id="Shape" fill="url(#linearGradient-23)"></path>
                        </g>
                        <g transform="translate(0.000000, 7.000000)">
                            <path d="M1.2,4.6 C1.3,4.6 1.3,4.6 1.2,4.6 L10.4,1 C10.5,1 10.6,0.8 10.5,0.7 C10.5,0.6 10.3,0.5 10.2,0.6 L1.1,4.2 C1,4.2 0.9,4.4 1,4.5 C1.1,4.5 1.1,4.6 1.2,4.6 Z" id="Path" fill="#C4E6EE"></path>
                            <path d="M1.2,5 C0.9,5 0.7,4.8 0.6,4.6 C0.5,4.4 0.5,4.2 0.6,4.1 C0.7,3.9 0.8,3.8 1,3.7 L10.1,0.1 C10.3,-3.46944695e-18 10.5,-3.46944695e-18 10.6,0.1 C10.8,0.2 10.9,0.3 11,0.5 C11.1,0.7 11.1,0.9 11,1 C10.9,1.2 10.8,1.3 10.6,1.4 L1.4,5 L1.2,5 Z" id="Shape" fill="url(#linearGradient-24)"></path>
                        </g>
                    </g>
                    <g transform="translate(106.000000, 95.000000)">
                        <path d="M1.3,9.9 C1.3,9.9 1.3,9.9 1.3,9.9 L23.9,0.9 C24,0.9 24.1,0.7 24,0.6 C24,0.5 23.8,0.4 23.7,0.5 L1.2,9.5 C1.1,9.5 1,9.7 1.1,9.8 C1.1,9.9 1.2,9.9 1.3,9.9 Z" id="Path" fill="#C4E6EE"></path>
                        <path d="M1.3,10.4 C1,10.4 0.8,10.2 0.7,10 C0.6,9.8 0.6,9.6 0.7,9.5 C0.8,9.3 0.9,9.2 1.1,9.1 L23.6,0.1 C23.8,0 24,0 24.1,0.1 C24.3,0.2 24.4,0.3 24.5,0.5 C24.6,0.9 24.5,1.3 24.1,1.4 L1.5,10.4 L1.3,10.4 Z" id="Shape" fill="url(#linearGradient-25)"></path>
                    </g>
                    <g transform="translate(0.000000, 184.000000)" id="Shape">
                        <path d="M299.3,43.3 L243.7,43.3 C243.1,43.3 242.5,42.8 242.5,42.1 L242.5,7.3 C242.5,6.7 243,6.1 243.7,6.1 L299.3,6.1 C299.8,6.1 300.3,6.4 300.4,6.9 C300.5,7.4 300.3,7.9 299.9,8.2 L273.7,24.6 L299.9,41 C300.3,41.3 300.5,41.8 300.4,42.3 C300.3,43 299.8,43.3 299.3,43.3 Z M244.9,41 L295.3,41 L270.9,25.7 C270.6,25.5 270.4,25.1 270.4,24.7 C270.4,24.3 270.6,23.9 271,23.7 L295.4,8.4 L245,8.4 L245,41 L244.9,41 Z" fill="url(#linearGradient-26)"></path>
                        <path d="M57.4,43.3 L1.8,43.3 C1.3,43.3 0.8,43 0.7,42.5 C0.7,42.5 0.7,42.5 0.7,42.5 C0.6,42 0.8,41.5 1.2,41.2 L27.4,24.8 L1.2,8.4 C0.8,8.1 0.6,7.6 0.7,7.1 C0.8,6.6 1.3,6.3 1.8,6.3 L57.4,6.3 C58,6.3 58.6,6.8 58.6,7.5 L58.6,42.3 C58.5,42.8 58,43.3 57.4,43.3 Z M5.8,41 L56.2,41 L56.2,8.5 L5.8,8.5 L30.2,23.8 C30.5,24 30.7,24.4 30.7,24.8 C30.7,25.2 30.5,25.6 30.1,25.8 L5.8,41 Z" fill="url(#linearGradient-27)"></path>
                        <path d="M243.7,48.9 L57.4,48.9 C56.8,48.9 56.2,48.4 56.2,47.7 L56.2,1.7 C56.2,1.1 56.7,0.5 57.4,0.5 L243.7,0.5 C244.3,0.5 244.9,1 244.9,1.7 L244.9,47.7 C244.9,48.4 244.3,48.9 243.7,48.9 Z M58.5,46.6 L242.5,46.6 L242.5,2.9 L58.5,2.9 L58.5,46.6 Z" fill="url(#linearGradient-28)"></path>
                    </g>
                    <g transform="translate(79.000000, 200.000000)">
                        <path d="M142.6,16.7 L136,16.7 C134.3,16.7 132.9,16.4 131.6,15.7 C130.3,15 129.3,14.1 128.6,12.9 C127.9,11.7 127.5,10.3 127.5,8.8 C127.5,7.3 127.9,5.9 128.6,4.7 C129.3,3.5 130.3,2.6 131.6,1.9 C132.9,1.2 134.4,0.9 136,0.9 L142.6,0.9 L142.6,16.7 Z M140.4,14.8 L140.4,3 L136.2,3 C134.9,3 133.8,3.2 132.8,3.7 C131.8,4.2 131.1,4.9 130.6,5.8 C130.1,6.7 129.8,7.7 129.8,8.9 C129.8,10.1 130.1,11.1 130.6,12 C131.1,12.9 131.9,13.6 132.8,14.1 C133.8,14.6 134.9,14.8 136.2,14.8 L140.4,14.8 L140.4,14.8 Z" id="Shape" fill="url(#linearGradient-29)"></path>
                        <path d="M122.3,6.8 L122.3,4.8 L124.4,4.8 L124.4,16.7 L122.2,16.7 L122.2,10.8 C122.2,9.5 121.9,8.5 121.2,7.8 C120.5,7.1 119.6,6.8 118.5,6.8 C118.3,6.8 118.1,6.8 118,6.8 L118,4.7 C119,4.7 119.9,4.9 120.7,5.2 C121.4,5.6 121.9,6.1 122.3,6.8 Z" id="Path" fill="url(#linearGradient-30)"></path>
                        <path d="M104.7,10.8 C104.7,9.6 105,8.5 105.5,7.6 C106,6.7 106.7,5.9 107.6,5.4 C108.5,4.9 109.5,4.6 110.6,4.6 C111.7,4.6 112.8,4.9 113.7,5.4 C114.6,5.9 115.3,6.6 115.8,7.6 C116.3,8.6 116.6,9.6 116.6,10.7 C116.6,11.9 116.3,12.9 115.8,13.8 C115.3,14.7 114.5,15.4 113.5,16 C112.5,16.5 111.4,16.8 110.2,16.8 C109.2,16.8 108.3,16.6 107.5,16.3 C106.7,16 106,15.5 105.5,14.9 L106.7,13.5 C107.6,14.5 108.7,14.9 110.1,14.9 C111.3,14.9 112.2,14.6 113,13.9 C113.8,13.3 114.2,12.4 114.4,11.4 L104.8,11.4 C104.7,11.2 104.7,11 104.7,10.8 Z M110.6,6.5 C109.6,6.5 108.7,6.8 108,7.5 C107.3,8.1 106.9,9 106.8,10 L114.4,10 C114.3,9 113.9,8.2 113.2,7.5 C112.5,6.8 111.6,6.5 110.6,6.5 Z" id="Shape" fill="url(#linearGradient-31)"></path>
                        <path d="M97.7,4.7 C98.7,4.7 99.6,4.8 100.4,5.1 C101.3,5.4 102,5.7 102.6,6.2 L101.7,7.8 C101.2,7.4 100.7,7.1 100,6.9 C99.3,6.7 98.6,6.6 97.9,6.6 C96.9,6.6 96.1,6.8 95.5,7.3 C95,7.8 94.7,8.5 94.7,9.4 L94.7,9.8 L98.1,9.8 C99.8,9.8 101,10.1 101.7,10.8 C102.5,11.4 102.8,12.3 102.8,13.3 C102.8,14.3 102.4,15.2 101.6,15.8 C100.8,16.4 99.7,16.8 98.4,16.8 C97.5,16.8 96.7,16.7 96,16.4 C95.3,16.1 94.8,15.7 94.5,15.1 L94.5,16.7 L92.5,16.7 L92.5,9.5 C92.5,7.9 92.9,6.7 93.8,5.9 C94.8,5.1 96.1,4.7 97.7,4.7 Z M98.2,15.2 C99,15.2 99.7,15 100.1,14.7 C100.6,14.4 100.8,13.9 100.8,13.3 C100.8,12.1 99.9,11.5 98.1,11.5 L94.8,11.5 L94.8,13.2 C95.1,13.9 95.5,14.4 96.1,14.8 C96.7,15 97.4,15.2 98.2,15.2 Z" id="Shape" fill="url(#linearGradient-32)"></path>
                        <path d="M73.8,4.7 C74.8,4.7 75.7,4.9 76.5,5.3 C77.3,5.7 77.9,6.2 78.4,6.9 C78.8,6.2 79.3,5.6 80.1,5.3 C80.8,4.9 81.6,4.7 82.6,4.7 C83.5,4.7 84.3,4.9 85,5.2 C85.7,5.5 86.3,6 86.7,6.6 L86.7,4.8 L88.8,4.8 L88.8,16.7 L86.6,16.7 L86.6,10.6 C86.6,9.3 86.3,8.4 85.6,7.7 C85,7 84.1,6.7 83,6.7 C82,6.7 81.3,7 80.7,7.6 C80.2,8.2 79.9,9.1 79.9,10.2 L79.9,16.8 L77.7,16.8 L77.7,10.7 C77.7,9.4 77.4,8.5 76.7,7.8 C76.1,7.1 75.2,6.8 74.1,6.8 C73.1,6.8 72.4,7.1 71.8,7.7 C71.3,8.3 71,9.2 71,10.3 L71,16.9 L68.8,16.9 L68.8,10.1 C68.8,8.4 69.2,7.1 70.1,6.2 C71.1,5.1 72.3,4.7 73.8,4.7 Z" id="Path" fill="url(#linearGradient-33)"></path>
                        <polygon id="Path" fill="url(#linearGradient-34)" points="55.5 16.7 53.3 16.7 53.3 3 47.9 3 47.9 1 60.9 1 60.9 3 55.5 3"></polygon>
                        <path d="M36.2,10.8 C36.2,9.6 36.5,8.5 37,7.6 C37.5,6.7 38.2,5.9 39.1,5.4 C40,4.9 41,4.6 42.1,4.6 C43.2,4.6 44.3,4.9 45.2,5.4 C46.1,5.9 46.8,6.6 47.3,7.6 C47.8,8.6 48.1,9.6 48.1,10.7 C48.1,11.9 47.8,12.9 47.3,13.8 C46.8,14.7 46,15.4 45,16 C44,16.5 42.9,16.8 41.7,16.8 C40.7,16.8 39.8,16.6 39,16.3 C38.2,16 37.5,15.5 37,14.9 L38.2,13.5 C39.1,14.5 40.2,14.9 41.6,14.9 C42.8,14.9 43.7,14.6 44.5,13.9 C45.3,13.3 45.7,12.4 45.9,11.4 L36.3,11.4 C36.2,11.2 36.2,11 36.2,10.8 Z M42.1,6.5 C41.1,6.5 40.2,6.8 39.5,7.5 C38.8,8.1 38.4,9 38.3,10 L45.9,10 C45.8,9 45.4,8.2 44.7,7.5 C44,6.8 43.1,6.5 42.1,6.5 Z" id="Shape" fill="url(#linearGradient-35)"></path>
                        <path d="M29.2,4.7 C30.2,4.7 31.1,4.8 31.9,5.1 C32.8,5.4 33.5,5.7 34.1,6.2 L33.2,7.8 C32.7,7.4 32.2,7.1 31.5,6.9 C30.8,6.7 30.1,6.6 29.4,6.6 C28.4,6.6 27.6,6.8 27,7.3 C26.5,7.8 26.2,8.5 26.2,9.4 L26.2,9.8 L29.6,9.8 C31.3,9.8 32.5,10.1 33.2,10.8 C34,11.4 34.3,12.3 34.3,13.3 C34.3,14.3 33.9,15.2 33.1,15.8 C32.3,16.4 31.2,16.8 29.9,16.8 C29,16.8 28.2,16.7 27.5,16.4 C26.8,16.1 26.3,15.7 26,15.1 L26,16.7 L24,16.7 L24,9.5 C24,7.9 24.4,6.7 25.3,5.9 C26.3,5.1 27.6,4.7 29.2,4.7 Z M29.7,15.2 C30.5,15.2 31.2,15 31.6,14.7 C32.1,14.4 32.3,13.9 32.3,13.3 C32.3,12.1 31.4,11.5 29.6,11.5 L26.3,11.5 L26.3,13.2 C26.6,13.9 27,14.4 27.6,14.8 C28.2,15 28.9,15.2 29.7,15.2 Z" id="Shape" fill="url(#linearGradient-36)"></path>
                        <path d="M5.3,4.7 C6.3,4.7 7.2,4.9 8,5.3 C8.8,5.7 9.4,6.2 9.9,6.9 C10.3,6.2 10.8,5.6 11.6,5.3 C12.3,4.9 13.1,4.7 14.1,4.7 C15,4.7 15.8,4.9 16.5,5.2 C17.2,5.5 17.8,6 18.2,6.6 L18.2,4.8 L20.3,4.8 L20.3,16.7 L18,16.7 L18,10.6 C18,9.3 17.7,8.4 17,7.7 C16.4,7 15.5,6.7 14.4,6.7 C13.4,6.7 12.7,7 12.1,7.6 C11.6,8.2 11.3,9.1 11.3,10.2 L11.3,16.8 L9.1,16.8 L9.1,10.7 C9.1,9.4 8.8,8.5 8.1,7.8 C7.5,7.1 6.6,6.8 5.5,6.8 C4.5,6.8 3.8,7.1 3.2,7.7 C2.7,8.3 2.4,9.2 2.4,10.3 L2.4,16.9 L0.2,16.9 L0.2,10.1 C0.2,8.4 0.6,7.1 1.5,6.2 C2.6,5.1 3.8,4.7 5.3,4.7 Z" id="Path" fill="url(#linearGradient-37)"></path>
                    </g>
                    <g transform="translate(55.000000, 23.000000)" id="Path">
                        <path d="M7.7,86.8 C7.7,86.8 7.7,86.8 7.7,86.8 C8,86.8 8.2,86.5 8.1,86.3 L1.7,49.8 L58.5,2.2 L132.7,2.2 L162.3,27 C162.5,27.2 162.8,27.1 162.9,26.9 C163.1,26.7 163,26.4 162.8,26.3 L133.1,1.4 C133,1.3 132.9,1.3 132.8,1.3 L58.3,1.3 C58.2,1.3 58.1,1.3 58,1.4 L0.9,49.3 C0.8,49.4 0.7,49.6 0.7,49.7 L7.2,86.4 C7.3,86.7 7.5,86.8 7.7,86.8 Z" fill="#F6F2B9"></path>
                        <path d="M7.7,87.3 C7.3,87.3 6.9,87 6.8,86.5 L0.3,49.8 C0.2,49.5 0.4,49.2 0.6,48.9 L57.7,1 C57.9,0.9 58.1,0.8 58.3,0.8 L132.8,0.8 C133,0.8 133.2,0.9 133.4,1 L163.1,25.9 C163.5,26.2 163.5,26.8 163.2,27.2 C162.9,27.6 162.3,27.6 161.9,27.3 L132.5,2.6 L58.7,2.6 L2.2,50 L8.6,86.2 C8.6,86.4 8.6,86.7 8.4,86.9 C8.3,87.1 8,87.2 7.8,87.3 L7.7,87.3 Z" fill="url(#linearGradient-38)"></path>
                    </g>
                    <path d="M131.3,184.3 C131,184.3 130.7,184.2 130.5,184 C130.3,183.8 130.1,183.5 130.1,183.2 C130.1,182.9 130.2,182.6 130.4,182.4 C134.3,178.2 137.3,173.3 139.4,167.9 C139.5,167.6 139.8,167.3 140.1,167.2 L200.9,143.2 C201.2,143.1 201.6,143.1 201.9,143.3 C213.1,148.8 226.3,149.4 238,144.8 C249.1,140.4 257.9,132 262.6,121 C267.4,110.1 267.6,97.9 263.2,86.8 C254.2,63.9 228.2,52.6 205.2,61.6 C204.5,61.9 203.6,62.2 202.7,62.7 L202.6,62.8 L202.4,62.8 C202.3,62.8 202.1,62.9 201.9,62.9 L84.7,109.1 C84.5,109.2 84.4,109.2 84.2,109.4 L84,109.5 C83,109.8 82.2,110.1 81.4,110.4 C70.3,114.8 61.5,123.2 56.8,134.2 C52,145.1 51.8,157.3 56.2,168.4 C58.2,173.4 61,178 64.5,181.9 C64.9,182.4 64.9,183.1 64.4,183.5 C64.2,183.7 63.9,183.8 63.5,183.8 C63.2,183.8 62.9,183.6 62.7,183.4 C59,179.3 56,174.5 53.9,169.2 C49.3,157.5 49.5,144.7 54.5,133.2 C59.5,121.7 68.7,112.8 80.4,108.2 C81.2,107.9 82,107.6 82.9,107.3 C83.2,107.1 83.4,107 83.7,106.9 L200.9,60.7 C201.2,60.6 201.5,60.5 201.8,60.5 C202.8,60 203.6,59.7 204.3,59.4 C228.4,49.9 255.8,61.8 265.3,85.9 C269.9,97.6 269.7,110.4 264.7,121.9 C259.7,133.4 250.5,142.3 238.8,146.9 C226.7,151.7 213,151.2 201.3,145.6 L141.4,169.2 C139.2,174.7 136.1,179.7 132.1,184 C131.9,184.2 131.6,184.3 131.3,184.3 Z" id="Shape" fill="url(#linearGradient-39)"></path>
                    <g transform="translate(139.000000, 87.000000)">
                        <path d="M1.6,4.7 C1.6,4.7 1.7,4.7 1.6,4.7 L10.3,1.3 C10.4,1.3 10.5,1.1 10.4,1 C10.4,0.9 10.2,0.8 10.1,0.9 L1.5,4.3 C1.4,4.3 1.3,4.5 1.4,4.6 C1.5,4.6 1.5,4.7 1.6,4.7 Z" id="Path" fill="#C4E6EE"></path>
                        <path d="M1.6,5.1 C1.3,5.1 1.1,4.9 1,4.7 C0.9,4.5 0.9,4.3 1,4.2 C1.1,4.1 1.2,3.9 1.4,3.8 L10,0.4 C10.2,0.3 10.4,0.3 10.5,0.4 C10.7,0.5 10.8,0.6 10.9,0.8 C11,1 11,1.2 10.9,1.3 C10.8,1.5 10.7,1.6 10.5,1.7 L1.8,5.2 L1.6,5.1 Z" id="Shape" fill="url(#linearGradient-40)"></path>
                    </g>
                    <path d="M110.7,185.5 C110.3,185.5 110,185.3 109.8,184.9 C109.6,184.4 109.8,183.9 110.3,183.7 C118.9,180.3 125.7,173.7 129.4,165.2 C133.1,156.7 133.3,147.3 129.9,138.6 C126.5,130 119.9,123.2 111.4,119.5 C102.9,115.8 93.5,115.6 84.8,119 C76.2,122.4 69.4,129 65.7,137.5 C62,146 61.8,155.4 65.2,164.1 C67.6,170.1 71.6,175.4 76.7,179.2 C76.9,179.3 77,179.6 77.1,179.8 C77.1,180 77.1,180.3 76.9,180.5 C76.8,180.7 76.5,180.8 76.3,180.9 C76.1,180.9 75.8,180.9 75.6,180.7 C70.2,176.7 65.9,171.1 63.4,164.8 C59.8,155.7 60,145.8 63.9,136.8 C67.8,127.8 74.9,120.9 84,117.4 C93.1,113.8 103,114 112,117.9 C121,121.8 127.9,128.9 131.4,138 C135,147.1 134.8,157 130.9,166 C127,175 119.9,181.9 110.8,185.4 C110.9,185.5 110.8,185.5 110.7,185.5 Z" id="Path" fill="#FFFFFF"></path>
                </g>
            </g>
            <path d="M212.5,547.3 C220.7,543.7 227.7,540.1 245,545.8 C245,545.8 255.1,547.7 254,554.7 C252.8,561.7 244.9,558.9 236.2,556.8 C227.5,554.7 226.9,569.6 236.3,571.7 L212.5,547.3 Z" id="Path" fill="#F4B693"></path>
            <path d="M47.2,555 C100.7,568.8 187.1,590.9 192.2,592.2 C203.3,577.5 211,536.4 211,536.3 C211,536.3 37,492.1 24.6,488.8 C21,487.8 17.2,487.8 13.5,488.8 C21.5,513.7 33.3,535.8 47.2,555 Z" id="Path" fill="#BB825B"></path>
        </g>
    </g>
</svg>