<?xml version="1.0" encoding="UTF-8"?>
<svg width="962px" height="746px" viewBox="0 0 962 746" version="1.1" xmlns="http://www.w3.org/2000/svg" xmlns:xlink="http://www.w3.org/1999/xlink">
    <!-- Generator: Sketch 60.1 (88133) - https://sketch.com -->
    <title>illustrations/idea</title>
    <desc>Created with Sketch.</desc>
    <defs>
        <linearGradient x1="-2101.47976%" y1="49.9469466%" x2="120.550545%" y2="49.9469466%" id="linearGradient-1">
            <stop stop-color="#00AFBA" offset="0%"></stop>
            <stop stop-color="#6E68C6" offset="100%"></stop>
        </linearGradient>
        <linearGradient x1="-164.704805%" y1="86.2832709%" x2="2722.0027%" y2="-402.705087%" id="linearGradient-2">
            <stop stop-color="#00AFBA" offset="0%"></stop>
            <stop stop-color="#6E68C6" offset="100%"></stop>
        </linearGradient>
        <linearGradient x1="-1504.94269%" y1="298.145553%" x2="109.165963%" y2="41.8656373%" id="linearGradient-3">
            <stop stop-color="#00AFBA" offset="0%"></stop>
            <stop stop-color="#6E68C6" offset="100%"></stop>
        </linearGradient>
        <linearGradient x1="-149.592962%" y1="134.283196%" x2="1360.19635%" y2="-504.408175%" id="linearGradient-4">
            <stop stop-color="#00AFBA" offset="0%"></stop>
            <stop stop-color="#6E68C6" offset="100%"></stop>
        </linearGradient>
        <linearGradient x1="-0.00453723493%" y1="50.0016609%" x2="97.7422759%" y2="50.0016609%" id="linearGradient-5">
            <stop stop-color="#00AFBA" offset="0%"></stop>
            <stop stop-color="#6E68C6" offset="100%"></stop>
        </linearGradient>
        <linearGradient x1="-676.329932%" y1="50.011674%" x2="1876.29184%" y2="50.011674%" id="linearGradient-6">
            <stop stop-color="#00AFBA" offset="0%"></stop>
            <stop stop-color="#6E68C6" offset="100%"></stop>
        </linearGradient>
        <linearGradient x1="-1000.13531%" y1="50.007989%" x2="1476.66601%" y2="50.007989%" id="linearGradient-7">
            <stop stop-color="#00AFBA" offset="0%"></stop>
            <stop stop-color="#6E68C6" offset="100%"></stop>
        </linearGradient>
        <linearGradient x1="-155.510031%" y1="50.0148594%" x2="423.556944%" y2="50.0148594%" id="linearGradient-8">
            <stop stop-color="#00AFBA" offset="0%"></stop>
            <stop stop-color="#6E68C6" offset="100%"></stop>
        </linearGradient>
        <linearGradient x1="-144.162886%" y1="49.897786%" x2="416.422254%" y2="49.897786%" id="linearGradient-9">
            <stop stop-color="#00AFBA" offset="0%"></stop>
            <stop stop-color="#6E68C6" offset="100%"></stop>
        </linearGradient>
        <linearGradient x1="-106.326872%" y1="50.0267447%" x2="346.105472%" y2="50.0267447%" id="linearGradient-10">
            <stop stop-color="#00AFBA" offset="0%"></stop>
            <stop stop-color="#6E68C6" offset="100%"></stop>
        </linearGradient>
        <linearGradient x1="43.3049285%" y1="50.0272383%" x2="1245.53736%" y2="50.0272383%" id="linearGradient-11">
            <stop stop-color="#00AFBA" offset="0%"></stop>
            <stop stop-color="#6E68C6" offset="100%"></stop>
        </linearGradient>
        <linearGradient x1="-650.688358%" y1="50.0072513%" x2="477.974627%" y2="50.0072513%" id="linearGradient-12">
            <stop stop-color="#00AFBA" offset="0%"></stop>
            <stop stop-color="#6E68C6" offset="100%"></stop>
        </linearGradient>
        <linearGradient x1="-792.101261%" y1="50.0000916%" x2="2385.22731%" y2="50.0000916%" id="linearGradient-13">
            <stop stop-color="#00AFBA" offset="0%"></stop>
            <stop stop-color="#6E68C6" offset="100%"></stop>
        </linearGradient>
        <linearGradient x1="-169.566019%" y1="49.9922197%" x2="1665.88107%" y2="49.9922197%" id="linearGradient-14">
            <stop stop-color="#00AFBA" offset="0%"></stop>
            <stop stop-color="#6E68C6" offset="100%"></stop>
        </linearGradient>
        <linearGradient x1="-2068.83697%" y1="50.0342826%" x2="2514.21879%" y2="50.0342826%" id="linearGradient-15">
            <stop stop-color="#00AFBA" offset="0%"></stop>
            <stop stop-color="#6E68C6" offset="100%"></stop>
        </linearGradient>
        <linearGradient x1="-16.3413222%" y1="55.0194204%" x2="1680.00864%" y2="-73.7907418%" id="linearGradient-16">
            <stop stop-color="#00AFBA" offset="0%"></stop>
            <stop stop-color="#6E68C6" offset="100%"></stop>
        </linearGradient>
        <linearGradient x1="-267.545972%" y1="50.0108586%" x2="1524.40687%" y2="50.0108586%" id="linearGradient-17">
            <stop stop-color="#00AFBA" offset="0%"></stop>
            <stop stop-color="#6E68C6" offset="100%"></stop>
        </linearGradient>
        <linearGradient x1="-620.335829%" y1="50.0642336%" x2="390.632353%" y2="50.0642336%" id="linearGradient-18">
            <stop stop-color="#00AFBA" offset="0%"></stop>
            <stop stop-color="#6E68C6" offset="100%"></stop>
        </linearGradient>
        <linearGradient x1="-0.00383731206%" y1="50.0080335%" x2="97.7416614%" y2="50.0080335%" id="linearGradient-19">
            <stop stop-color="#00AFBA" offset="0%"></stop>
            <stop stop-color="#6E68C6" offset="100%"></stop>
        </linearGradient>
    </defs>
    <g id="illustrations/idea" stroke="none" stroke-width="1" fill="none" fill-rule="evenodd">
        <g id="5" fill-rule="nonzero">
            <path d="M938.5,194.1 C943.4,204.7 938.6,211.6 927.9,209.7 C917.2,207.8 904.5,197.6 899.7,187.1 C894.8,176.5 899.6,169.6 910.3,171.5 C921,173.4 933.6,183.5 938.5,194.1 Z" id="Path" fill="url(#linearGradient-1)" opacity="0.28"></path>
            <path d="M75.1,146.7 C75.5,153.4 70.8,161.5 64.6,164.8 C58.4,168.1 53,165.3 52.6,158.6 C52.2,151.9 56.9,143.8 63.1,140.5 C69.3,137.2 74.7,140 75.1,146.7 Z" id="Path" fill="url(#linearGradient-2)" opacity="0.28"></path>
            <path d="M864.8,733.3 C864.8,733.3 908.8,732.1 928.6,697.7 C948.4,663.3 942.4,648.7 912,669.1 C881.8,689.6 812.4,727 864.8,733.3 Z" id="Path" fill="url(#linearGradient-3)" opacity="0.28"></path>
            <path d="M107.9,124.2 C92.5,132.4 74.7,134.4 74.1,128.3 C73,118 78.3,99.6 115.6,76.4 C174.6,39.6 185.5,66.4 140.3,97 C107.5,119.1 121,117.2 107.9,124.2 Z" id="Path" fill="url(#linearGradient-4)" opacity="0.28"></path>
            <path d="M947.2,523.6 C947.2,523.6 1050.8,179.5 697,128.3 C343.2,77.1 160.7,12.6 62.2,246 C-36.3,479.4 -21,700.3 198.1,704.7 C417.2,709.1 868,805 947.2,523.6 Z" id="Path" fill="url(#linearGradient-5)" opacity="0.28"></path>
            <g id="Group" transform="translate(193.000000, 0.000000)">
                <g transform="translate(141.000000, 178.000000)" id="Path">
                    <path d="M310.500431,121 C310.7,54.7 241.3,0.8 155.7,0.498744463 C70,0.2 0.4,53.7 0.3,120 C0.3,137.4 5,154 13.7,169 C13.7,169.1 60.9,253.6 67.4,333.6 C67.3,371 106.4,401.5 154.8,401.600988 C203.2,401.8 242.5,371.6 242.6,334.2 C249.5,254.2 297.1,169.9 297.1,169.9 L297.1,169.9 C305.6,155 310.4,138.4 310.500431,121 Z" fill="#FFFFFF"></path>
                    <g opacity="0.5" transform="translate(88.000000, 162.000000)">
                        <polygon fill="url(#linearGradient-6)" points="29.4 181.5 23.7 182.1 0 1.1 5.7 0.5"></polygon>
                        <polygon fill="url(#linearGradient-7)" points="104.2 181.8 109.9 182.4 134.5 1.6 128.8 0.9"></polygon>
                        <g transform="translate(2.000000, 4.000000)" fill="url(#linearGradient-8)">
                            <polygon points="107.4 25.3 85.9 5.5 64.6 24.8 43.8 5.7 23.3 24.3 0.7 3.7 3.5 1.1 23.3 19.2 43.8 0.6 64.7 19.7 85.9 0.4 107.4 20.2 127.5 2 130.3 4.6"></polygon>
                        </g>
                    </g>
                    <path d="M216.2,444.6 L92.6,444.2 C88.3,444.2 84.8,440.7 84.8,436.4 L84.9,390.4 L224.1,390.9 L224,436.9 C224,441.1 220.5,444.6 216.2,444.6 Z" fill="url(#linearGradient-9)" opacity="0.5"></path>
                    <path d="M211.8,430.30061 L95.5,429.9 C80,429.8 67.4,417.6 67.4994088,402.5 L67.6,343.2 L240.1,343.8 L240,403.1 C240,418.2 227.4,430.4 211.8,430.30061 Z" fill="url(#linearGradient-10)"></path>
                </g>
                <polygon id="Path" fill="url(#linearGradient-11)" opacity="0.3" points="0.7 82.3 25.4 143.2 39.7 128.9 63.6 161.6 37.4 97.2 23.6 113"></polygon>
                <polygon id="Path" fill="url(#linearGradient-12)" opacity="0.3" points="471.3 200.9 530.9 137.4 502.6 128.8 527 82.3 463.9 149.4 493.9 156.6"></polygon>
                <polygon id="Path" fill="#6E68C6" opacity="0.19" points="445.3 421.5 482.7 406.9 476.1 398.8 497.4 384.9 457.8 400.4 465.3 408.1"></polygon>
                <polygon id="Path" fill="url(#linearGradient-13)" opacity="0.3" points="265.6 109.3 246.5 45.2 257.1 43.4 250.2 0.1 270.3 67.9 259.2 68.2"></polygon>
                <polygon id="Path" fill="url(#linearGradient-14)" opacity="0.3" points="139 389.7 107.3 369 114.8 362.9 97.8 346 131.4 367.8 123.1 373.6"></polygon>
                <polyline id="Path" fill="url(#linearGradient-15)" points="352.8 165.8 368.6 121.7 354 128.2 369.3 74.5"></polyline>
                <polyline id="Path" fill="url(#linearGradient-16)" points="103 276.7 83.5 254.9 83.3 263.7 58.6 238.9"></polyline>
                <polyline id="Path" fill="url(#linearGradient-17)" points="192 181.2 177.7 138.2 170.3 152 149.8 102"></polyline>
                <polyline id="Path" fill="url(#linearGradient-18)" points="553.3 262.3 511.5 283.4 526.5 288.8 478.5 317.1"></polyline>
            </g>
            <g id="Group" transform="translate(0.000000, 156.000000)">
                <path d="M208.6,562.3 C156.3,550.4 153.7,552.2 104.1,521.8 C85.4,510.3 68.9,497.7 54.5,484 C55,472 55.5,459.9 55.8,448.4 C57.6,387.3 25.3,258.2 39.6,251.2 C61.8,240.4 102.6,232.2 118,222.2 C118,222.2 122.9,242.8 159.9,242.8 C191.9,242.8 189.4,226.5 189.4,226.5 C204.8,236.6 249.8,243 271.8,251.9 C286.4,257.8 278,392.6 275.1,453.7 C272.5,507.5 272.9,540.1 276.6,565.5 C268.2,565.4 215.3,563.8 208.6,562.3 Z" id="Path" fill="#00434E"></path>
                <path d="M191.9,228 C191.9,228 180.8,248 154.9,246.1 C129,244.3 114.4,224.2 114.4,224.2 C114.4,224.2 127.5,180.1 121.8,138.4 C116.1,96.7 207.8,82.4 196.4,143.6 C185,205 191.9,228 191.9,228 Z" id="Path" fill="#F4B68A"></path>
                <path d="M241.9,410.8 C241.9,410.8 220.5,297.4 221.9,277.4 C223.3,256.4 243.4,243.8 269,251 C301.2,260.1 307.9,306.4 310.7,325.3 C312.7,339.2 325.9,395.2 325.9,395.2 C325.9,395.2 316.2,402.8 285.3,408.8 C254.3,414.8 241.9,410.8 241.9,410.8 Z" id="Path" fill="#00434E"></path>
                <path d="M158.9,518.2 C158.9,518.2 172.3,524.8 182,520.9 C191.6,517 200,513 214.5,520.4 C214.5,520.4 223.7,523 219.6,531.2 C215.5,539.4 208.9,535.8 201.2,533 C193.5,530.3 193.5,543.8 202.9,546.1 C212.3,548.4 219.5,550 239.6,538.9 C252.1,532 247.5,543.8 237.9,555.1 C232.9,561.1 217.1,570.9 199.1,570.2 C183,569.6 172.2,571.7 166.7,561.8 C160.2,549.9 145.5,547.7 142.8,549 C140.1,550.3 144.3,528.3 158.9,518.2 Z" id="Path" fill="#F4B68A"></path>
                <path d="M100.2,415.4 C100.2,415.4 99.6,337.5 94.3,325.3 C88.7,312.5 59.9,310 35.4,322.2 C4.5,337.6 12.8,369.4 13.7,382.2 C14.4,391.6 16.1,428.3 16.1,428.3 C16.1,428.3 23.4,432.7 55.9,427.2 C88.4,421.7 100.2,415.4 100.2,415.4 Z" id="Path" fill="#000000" opacity="0.3"></path>
                <path d="M16.9,430.9 C12,406.9 10.8,380 10.4,361.9 C9.9,342.3 0.5,295.6 34.4,276.5 C61.2,261.4 86.2,268.8 91.7,289.2 C101.5,325.5 76.2,449.7 66.4,494.6 C43.8,475.6 31.3,454.5 16.9,430.9 Z" id="Path" fill="#F4B68A"></path>
                <path d="M170.7,521.7 C170.7,521.8 169.3,533 157.8,550 C139.5,541.9 117.7,545.9 100.2,535.1 C75.3,519.9 53.4,494.6 35.9,475.4 C37,475.5 34.8,462.9 35.9,463.3 C44.4,466.5 170.7,521.7 170.7,521.7 Z" id="Path" fill="#F4B68A"></path>
                <path d="M94.3,408.2 C94.3,408.2 100.8,291.5 96.4,271.9 C91.8,251.3 61.8,240.1 35,252.1 C1.2,267.2 7,317 6.8,336.3 C6.6,350.5 0.6,408.6 0.6,408.6 C0.6,408.6 12.3,414.3 46.8,414.4 C81.4,414.6 94.3,408.2 94.3,408.2 Z" id="Path" fill="#00434E"></path>
                <path d="M196.4,143.7 C197.9,135.7 197.6,129.1 196.1,123.6 C175.2,107.2 130.6,117.2 130.8,146.4 C130.8,157 129.7,168.2 127.9,179 C133.9,190.9 144.5,202.6 163.8,211.8 C174.6,217 182.7,218.9 189.1,218.5 C188.9,202.5 190.1,177.3 196.4,143.7 Z" id="Path" fill="#D39572"></path>
                <path d="M248.6,82.3 C248.6,82.3 231.6,163.1 217.5,182.9 C203.4,202.8 197.9,220.6 161.9,205.3 C125.9,190 118.6,165.5 115.4,145.6 C112.2,125.7 109.3,84.8 112.9,59.4 C116.5,34 180.6,20.3 216.7,49 C226.5,56.8 247.5,63.6 248.6,82.3 Z" id="Path" fill="#F4B68A"></path>
                <path d="M199.2,1.8 C223,4.9 242.4,21.4 254,43.5 C261.4,57.7 263.5,79.8 248.7,82.3 C238,84.1 222.8,77.5 209.2,69.9 C198.6,63.9 188.8,57.2 173.3,59.7 C162.4,61.4 151.7,71.5 147.1,82.2 C141.8,94.4 144.9,109.1 141,117.7 C137.1,126.3 132.6,118.9 132.6,118.9 C132.6,118.9 132,103.1 126.6,106.3 C122.6,108.7 116.4,139.3 114.7,139.5 C110.4,139.9 108.1,108.2 108.1,98 C108,73.5 103.6,48 120.5,27.4 C134.5,10.2 162.6,-3 199.2,1.8 Z" id="Path" fill="#BA7032"></path>
                <path d="M205.6,137.5 C207.5,152 212.2,157.4 209.6,160.8 C206.7,164.6 197.6,161.5 197.6,161.5" id="Path" fill="#E3A67F"></path>
                <path d="M178.8,172.1 C178.8,172.1 191.7,180.1 207.3,177.5 C207.3,177.5 210.7,187.1 196.3,186.3 C182,185.6 178.8,172.1 178.8,172.1 Z" id="Path" fill="#FFFFFF"></path>
                <path d="M236.2,117.3 C231.6,116 228.9,117.1 225.4,117 C221.9,116.9 220.2,122.2 220.2,122.2 C221.6,126.1 224,123.9 228.6,123.6 C233,123.4 235,121.7 238.9,122.1 C239.2,120.8 239.5,119.6 239.8,118.4 C238.6,118 237.3,117.6 236.2,117.3 Z" id="Path" fill="#BA7032"></path>
                <path d="M136.7,111.4 C135.9,106 137,101.6 132.1,100 C123.9,97.2 121,106 121,115.9 C121,126.2 118.1,135.5 125.3,137 C127.5,137.5 128.8,134.5 131,132.7" id="Path" fill="#F4B68A"></path>
                <path d="M131,123.7 C130.5,124.4 129.4,125.1 128.6,124.7 C127.4,124.1 128.2,123.3 128.1,122.1 C128,121 127.3,120.4 127,119.5 C126.5,118.3 126.6,117.7 126.8,116.4 C127.5,112.1 129.4,106.6 133.7,106 L133.7,105.8 C131.8,104.5 129.1,105.6 127.7,107.4 C126.3,109.1 126.3,111.7 125.4,113.8 C124.6,115.6 122.5,118.6 124.4,120.1 C125.1,120.7 126.3,120.5 126.6,121.8 C126.9,123.4 125.4,123.6 125.1,124.7 C124.9,125.5 125.1,126.4 126,126.6 C126.6,126.7 126.9,126.1 127.3,126.2 C127.6,126.3 127.9,126.5 128.2,126.7 C129,127.1 129.3,128 130.2,127 C131,126.2 130.9,124.6 131.2,123.5" id="Path" fill="#E19A74"></path>
                <path d="M197.5,119.6 C197.5,119.6 198.1,114 194.8,112.8 C191.6,111.5 189.5,109.5 184.8,108.8 C180.1,108.1 172.1,107.5 169.6,108.6 C167.1,109.7 165.1,112.6 167.9,112.9 C170.7,113.2 175.7,111 179.8,112 C183.9,113 185,115.5 189.2,117.6 C193.4,119.6 194.6,122.6 197.5,119.6 Z" id="Path" fill="#BA7032"></path>
                <path d="M168.3,125.3 C168.3,125.3 180.9,142.1 192.3,128.2 C192.3,128.3 180.2,134.3 168.3,125.3 Z" id="Path" fill="#6C3506"></path>
                <path d="M217.9,132.3 C222.9,140.9 229.7,140.3 234.9,138.1 C235.1,137.3 235.3,136.5 235.5,135.7 C225.4,137.7 217.9,132.3 217.9,132.3 Z" id="Path" fill="#6C3506"></path>
                <polygon id="Path" fill="#E4E4E4" points="464.3 585.9 485.5 390.7 206.9 390.7 187.9 569.1 164.5 559.7 221.8 562.3"></polygon>
                <path d="M348.2,466.1 C348.2,466.1 331,471.8 328.5,473 C326,474.2 315.2,478.5 315.9,490.7 C316.6,502.9 325.2,505.9 329.1,507.2 C333,508.5 339.1,509.2 345.2,507.2 C351.3,505.2 347.5,499.8 346.7,487.3 C346,474.7 348.2,466.1 348.2,466.1 Z" id="Path" fill="#CACACA"></path>
                <path d="M325,444 C325,424.9 328.6,406.6 335.1,389.7 L485.5,389.7 L464.3,584.9 L417.3,584.9 C362.7,559.9 325,506.2 325,444 Z" id="Path" fill="#FFFFFF" opacity="0.28"></path>
            </g>
            <g id="Group" transform="translate(661.000000, 95.000000)">
                <path d="M189.3,212.1 L151.3,249.1 L104.7,212.1 C104.7,212.1 123.5,191.4 113.5,144.4 C107.2,114.8 183.4,99.8 181.4,144.4 C178.6,207.6 189.3,212.1 189.3,212.1 Z" id="Path" fill="#E19A74"></path>
                <path d="M147.3,18.3 L147.3,18.3 C91.9,18.3 76.7,64.2 81.7,105.9 C83.1,117.3 85.7,127.5 89.1,136.5 C93.4,149.6 99,162.3 104.9,170.8 C117.8,189.5 129.3,197.2 147.3,197.2 C165.2,197.2 176.8,189.5 189.7,170.8 C195.4,162.5 200.9,150.3 205.1,137.7 C208.8,128.4 211.6,117.8 213,105.9 C217.9,64.2 202.7,18.3 147.3,18.3 Z" id="Path" fill="#F4B68A"></path>
                <path d="M147.5,190.1 C140.5,190.1 130.3,189.1 126.1,184 C124.7,182.3 112.8,171.2 116.4,173.1 C122.8,176.3 121.3,158.7 121.3,153.7 C121.3,149.5 124,148.3 128,148.2 C133.2,148.1 140.6,149.8 147.3,149.8 C153.7,149.8 160.6,148 165.6,147.7 C170,147.5 173,148.5 173,152.9 C173,158 170.8,176.5 178.4,172.3 C180,171.4 169.2,181.4 168.1,182.8 C164.1,187.9 154.5,190.1 147.5,190.1 Z" id="Path" fill="#3C2727"></path>
                <g transform="translate(202.000000, 100.000000)" id="Path">
                    <path d="M0.6,9.8 C2.2,4.4 4.8,0.7 8.1,0.7 C13.7,0.7 17.5,11 15.5,21.4 C13.4,32.2 9.3,43 4.6,42 C3.1,41.7 1.9,40.1 0.9,37.3" fill="#F4B68A"></path>
                    <path d="M7.5,27 C7.1,27.8 6.2,28.4 5.6,27.9 C4.7,27.1 5.4,26.3 5.4,25 C5.4,23.8 4.9,23.1 4.7,22.1 C4.4,20.8 4.5,20 4.7,18.6 C5.5,13.9 7.3,7.9 10.6,7.6 L10.6,7.4 C9.2,5.8 7.1,6.8 5.9,8.7 C4.7,10.5 4.6,13.4 3.8,15.6 C3.1,17.5 1.3,20.7 2.7,22.5 C3.2,23.2 4.1,23.1 4.3,24.5 C4.5,26.3 3.3,26.4 3,27.6 C2.8,28.5 2.9,29.5 3.6,29.8 C4,30 4.3,29.3 4.6,29.4 C4.8,29.5 5,29.8 5.3,30 C5.9,30.5 6.1,31.5 6.8,30.5 C7.4,29.7 7.5,27.9 7.8,26.7" fill="#E19A74"></path>
                </g>
                <g transform="translate(76.000000, 100.000000)" id="Path">
                    <path d="M15.8,9.8 C14.2,4.4 11.6,0.7 8.3,0.7 C2.7,0.7 -1.1,11 0.9,21.4 C3,32.2 7.1,43 11.8,42 C13.3,41.7 14.5,40.1 15.5,37.3" fill="#F4B68A"></path>
                    <path d="M8.9,27 C9.3,27.8 10.2,28.4 10.8,27.9 C11.7,27.1 11,26.3 11,25 C11,23.8 11.5,23.1 11.7,22.1 C12,20.8 11.9,20 11.7,18.6 C10.9,13.9 9.1,7.9 5.8,7.6 L5.8,7.4 C7.2,5.8 9.3,6.8 10.5,8.7 C11.7,10.5 11.8,13.4 12.6,15.6 C13.3,17.5 15,20.7 13.7,22.5 C13.2,23.2 12.3,23.1 12.1,24.5 C11.9,26.3 13.1,26.4 13.4,27.6 C13.6,28.5 13.5,29.5 12.8,29.8 C12.4,30 12.1,29.3 11.8,29.4 C11.6,29.5 11.4,29.8 11.1,30 C10.5,30.5 10.3,31.5 9.6,30.5 C9,29.7 8.9,27.9 8.6,26.7" fill="#E19A74"></path>
                </g>
                <path d="M143.6,573.9 L143.4,573.9 L22.7,576.2 C22.7,576.2 22.5,614.8 22.6,632.4 C67.5,618.8 128.7,614.1 171.5,580.7 L143.6,573.9 Z" id="Path" fill="#00323D"></path>
                <path d="M148.6,122.4 C145.1,135.5 140.1,140 142.1,143.4 C144.3,147.3 153.1,145.5 153.1,145.5" id="Path" fill="#E19A74"></path>
                <path d="M147.4,185.3 C141.2,185.3 132.1,182.4 128.4,178.4 C121.8,171.5 123.1,161.1 123.1,156.4 C123.1,149 136.8,155.6 147.3,155.6 C157.9,155.6 170.8,149.1 170.8,156.4 C170.8,161.1 171.9,174.8 165.1,178.1 C160.4,180.6 153.6,185.3 147.4,185.3 Z" id="Path" fill="#F4B68A"></path>
                <path d="M110.8,112.4 C110.8,112.4 122.6,100.1 130.5,112.4 C130.5,112.4 121.3,106.4 110.8,112.4 Z" id="Path" fill="#3C2727"></path>
                <path d="M184.1,112.6 C184.1,112.6 172.3,100.3 164.4,112.6 C164.4,112.6 173.6,106.6 184.1,112.6 Z" id="Path" fill="#3C2727"></path>
                <path d="M135,104.6 C135,104.6 130.7,102.6 126.2,102 C122.3,101.4 119.3,99.7 113.3,100.6 C107.3,101.5 103.1,105.4 102.6,105.9 C102.1,106.5 104,102.5 106.4,101 C108.8,99.5 112.9,97.8 118.7,98 C124.5,98.2 131.9,99.5 133.5,100.6 C135.1,101.7 139.3,103.3 135,104.6 Z" id="Path" fill="#3C2727"></path>
                <path d="M163,104.6 C163,104.6 166.8,102.6 170.8,102 C174.2,101.4 177.9,100.1 183.2,101 C188.5,101.9 191.3,105.4 191.7,105.9 C192.1,106.5 190.4,102.5 188.3,101 C186.2,99.5 182.5,97.8 177.4,98 C172.3,98.2 165.7,99.5 164.2,100.6 C162.7,101.7 159.2,103.3 163,104.6 Z" id="Path" fill="#3C2727"></path>
                <ellipse id="Oval" fill="#3C2727" cx="121.2" cy="112.6" rx="4.8" ry="5.7"></ellipse>
                <path d="M262.5,237.8 C240.6,227.3 225,225.6 200.4,217.8 C197.4,216.9 189.3,212 189.3,212 L151.5,245.8 L104.7,212 C104.7,212 97.4,216.9 95.1,218 C77.6,226.1 47,227.3 25.1,237.7 C11,244.4 13.3,402.3 16.1,461.3 C19.5,532 20,582.9 20,582.9 C20,582.9 78.4,591.3 156.9,592.4 C209.5,556.1 243.6,535.1 270.4,480.1 C273,416.1 276,244.3 262.5,237.8 Z" id="Path" fill="#131313"></path>
                <polygon id="Path" fill="#000000" points="82.6 290.9 78.4 415.2 189.3 416.5 192.8 455.3 28.1 443.4"></polygon>
                <path d="M57.4,451.2 C57.4,451.2 72.1,360.6 80.6,318.3 C83.9,301.7 98.1,259.6 70.8,241.8 C49.2,227.6 20.5,232.9 12.6,250 C-4.6,287.4 2.1,442.2 2.1,442.2" id="Path" fill="#131313"></path>
                <ellipse id="Oval" fill="#3C2727" cx="172.4" cy="112.6" rx="4.8" ry="5.4"></ellipse>
                <path d="M272.3,303.6 L256.7,292.1 L239,446.8 L273.2,350.9 C273.1,334.5 272.9,318.4 272.3,303.6 Z" id="Path" fill="#000000"></path>
                <path d="M161.5,290.8 C161.5,290.8 154.3,278.7 156.3,271.7 C158.3,264.7 160.5,258.6 152.6,245.5 C152.6,245.5 152.5,245.3 152.3,245 L151.4,245.8 L142.7,239.5 C136.9,241.4 140.7,247.3 143.8,253.9 C147.1,260.6 135.9,258.1 132.8,250.1 C130.6,244.4 131,238 133.6,233 L123.4,225.6 C119,229.6 114.8,234.8 112.7,240.6 C107.2,256.2 115.5,270.2 124.3,276.4 C134.9,283.8 138.6,296.1 137.9,298.1 C137.4,300.2 155.1,300.8 161.5,290.8 Z" id="Path" fill="#000000"></path>
                <path d="M201.8,120.6 C200.3,106.2 203.1,100.3 200,114 C200,114 204.2,139.7 193.5,158.3 C186,171.4 164.5,181.4 146.6,181.4 C130.1,181.4 109,173.2 102.2,158.3 C93.9,140.2 94.5,112.8 94.5,112.8 C91.4,99.1 94.4,106.2 93,120.6 C91.5,135.1 93.6,148.1 93.6,148.1 C108.3,196.3 135.6,197.3 147.4,197.3 C159.2,197.3 186.7,196.8 201.3,148.1 C201.2,148.1 203.2,135.1 201.8,120.6 Z" id="Path" fill="#3C2727"></path>
                <path d="M213.4,102 C213.4,102 233.5,0.2 147.3,0.2 C65.3,0.2 81.3,102 81.3,102 C85.3,102 88.9,104.4 90.8,107.9 C93,111.4 93.1,118.6 92.9,119.8 C94.5,119.8 96.2,95.7 96.1,90.2 C95.9,74.2 106.7,58.3 120.3,58.3 C130.6,58.3 136.1,53.3 148.6,53.3 C160.3,53.3 165.3,59 174.3,59 C187.8,59 196.4,76.6 197.2,93.4 C197.3,95.7 200.1,120 201.8,120 C201.8,118.8 201.9,111.9 203.9,107.9 C205.7,104.4 209.3,102 213.4,102 Z" id="Path" fill="#3C2727"></path>
                <path d="M148.3,60.1 C163.1,60.1 203.4,61.8 203.4,36.8 C203.4,7.4 176.6,3.5 148.5,3.5 C120.4,3.5 93.6,7.4 93.6,36.8 C93.7,60.6 133.6,60.1 148.3,60.1 Z" id="Path" fill="#3C2727"></path>
                <polygon id="Path" fill="#000000" points="197.4 299.4 188.9 325.1 156.3 272.8 138.8 278.8 196.8 395.5"></polygon>
                <path d="M233,430.5 C227.7,420.4 151.1,279.3 151.1,279.3 C151.1,279.3 148.6,279.8 144.8,280.8 C143.9,277.8 143.5,274.6 144.2,272.1 C146.2,265.1 148.4,259 140.5,245.9 C140.5,245.9 137.2,238 130.9,239.8 C124.6,241.6 128.5,247.6 131.7,254.3 C135,261 123.8,258.5 120.7,250.5 C117.6,242.5 118.7,230.2 124.8,225.1 C132.9,218.4 105.7,226.6 100.6,240.9 C95.1,256.5 103.4,270.5 112.2,276.7 C117.1,280.1 120.5,284.5 122.7,288.5 C118,290.7 113.7,293.3 110.4,296.3 C113.4,302.3 178,446.5 182.2,453.7 C186.4,460.8 198.4,467.9 215.6,460.8 C232.7,453.7 238.3,440.6 233,430.5 Z" id="Path" fill="#000000"></path>
                <path d="M154.9,292.5 C154.9,292.5 147.7,280.4 149.7,273.4 C151.7,266.4 153.9,260.3 146,247.2 C146,247.2 142.7,239.3 136.4,241.1 C130.1,242.9 134,248.9 137.2,255.6 C140.5,262.3 129.3,259.8 126.2,251.8 C123.1,243.8 125.1,234.5 131.2,229.4 C139.3,222.7 136.8,218.6 131.9,218.1 C129.2,217.8 111.2,228 106.1,242.3 C100.6,257.9 108.9,271.9 117.7,278.1 C128.3,285.5 132,297.8 131.3,299.8 C130.8,301.8 148.4,302.4 154.9,292.5 Z" id="Path" fill="#F4B68A"></path>
                <path d="M241,435.7 C238.9,431.2 234.3,430.1 230.4,439.9 C227.5,447.3 219.2,452 210.7,451.5 C202.1,451 196.3,441.1 203.7,442.2 C211.1,443.2 218,445 217.7,438.5 C217.5,432 208.9,431.3 208.9,431.3 C194,427.8 188.9,431.8 182.9,435.8 C180.3,437.5 176.3,438 172.6,437.9 C171.6,432 170.6,427.9 170.6,427.9 C170.6,427.9 28.7,422.9 18.6,422.6 C8.5,422.3 0.6,433.1 2.2,451.7 C3.7,470.2 14.3,477.9 21.6,478.4 C28.9,479 167.1,467.4 173,467.5 C173.4,465.5 173.7,463.4 173.9,461.3 C178.4,462.2 183.6,464 188.3,467.6 C196.9,474.1 212.8,477.7 226,467.6 C238,458.4 242.2,438.2 241,435.7 Z" id="Path" fill="#000000"></path>
                <path d="M163.2,431.7 C163.2,431.7 177.1,434.8 183.3,430.7 C189.5,426.6 194.6,422.7 209.8,426.1 C209.8,426.1 218.5,426.8 218.7,433.3 C218.9,439.8 211.9,438 204.4,437 C196.9,436 202.8,445.9 211.5,446.3 C220.2,446.8 228.6,442 231.6,434.7 C235.6,425 240.2,426 242.3,430.5 C243.5,433 239.2,453.2 227,462.5 C213.6,472.6 197.5,469 188.7,462.5 C178.2,454.7 165.1,455 163.4,456.3 C161.8,457.5 155.6,440.9 163.2,431.7 Z" id="Path" fill="#E19A74"></path>
                <path d="M18.6,417.5 C28.7,417.8 170.6,422.8 170.6,422.8 C170.7,422.9 176.6,446.2 173,462.4 C167.1,462.3 28.9,473.9 21.6,473.3 C14.3,472.7 3.8,465.1 2.2,446.6 C0.7,428 8.6,417.2 18.6,417.5 Z" id="Path" fill="#131313"></path>
                <path d="M183.3,440.6 C183.3,440.6 193.4,349.4 196.7,306.4 C198,289.5 195.6,245.2 226.7,235.3 C251.3,227.5 277.5,240.3 280.5,258.8 C287,299.4 239,446.8 239,446.8" id="Path" fill="#131313"></path>
                <path d="M238.6,431.8 C233.3,421.7 156.7,280.6 156.7,280.6 C156.6,280.6 128.5,286.4 116,297.7 C119,303.7 183.6,447.9 187.8,455.1 C192,462.2 204,469.3 221.2,462.2 C238.3,454.9 243.9,441.9 238.6,431.8 Z" id="Path" fill="#131313"></path>
                <path d="M129.6,157.9 C129.6,157.9 132.2,170.1 150.7,165.1" id="Path" fill="#E19A74"></path>
            </g>
            <path d="M198.1,704.7 C417.2,709.1 868,805 947.2,523.6 C947.2,523.6 959.7,482.1 961.2,425.8 C963,492.9 947.2,545.5 947.2,545.5 C868,826.9 417.2,731 198.1,726.6 C57.4,723.8 0.7,631.7 4.3,504.3 C7.6,620.2 65.6,702 198.1,704.7 Z" id="Path" fill="url(#linearGradient-19)"></path>
        </g>
    </g>
</svg>