<?xml version="1.0" encoding="UTF-8"?>
<svg width="990px" height="730px" viewBox="0 0 990 730" version="1.1" xmlns="http://www.w3.org/2000/svg" xmlns:xlink="http://www.w3.org/1999/xlink">
    <!-- Generator: Sketch 60.1 (88133) - https://sketch.com -->
    <title>illustrations/money</title>
    <desc>Created with Sketch.</desc>
    <defs>
        <linearGradient x1="100.684826%" y1="54.5755913%" x2="1.19050659%" y2="45.319481%" id="linearGradient-1">
            <stop stop-color="#00AFBA" offset="0%"></stop>
            <stop stop-color="#6E68C6" offset="100%"></stop>
        </linearGradient>
        <linearGradient x1="98.5077186%" y1="51.1576675%" x2="-1.0631766%" y2="47.1526534%" id="linearGradient-2">
            <stop stop-color="#00AFBA" offset="0%"></stop>
            <stop stop-color="#6E68C6" offset="100%"></stop>
        </linearGradient>
        <linearGradient x1="-831.257425%" y1="73.3844567%" x2="3149.18666%" y2="-32.8357568%" id="linearGradient-3">
            <stop stop-color="#00AFBA" offset="0%"></stop>
            <stop stop-color="#6E68C6" offset="100%"></stop>
        </linearGradient>
        <linearGradient x1="-100.545055%" y1="43.0092389%" x2="841.089188%" y2="87.5954125%" id="linearGradient-4">
            <stop stop-color="#00AFBA" offset="0%"></stop>
            <stop stop-color="#6E68C6" offset="100%"></stop>
        </linearGradient>
        <linearGradient x1="-671.384131%" y1="-1506.0081%" x2="445.619395%" y2="905.069655%" id="linearGradient-5">
            <stop stop-color="#00AFBA" offset="0%"></stop>
            <stop stop-color="#6E68C6" offset="100%"></stop>
        </linearGradient>
        <linearGradient x1="-278.742207%" y1="-508.780146%" x2="283.321972%" y2="449.085987%" id="linearGradient-6">
            <stop stop-color="#00AFBA" offset="0%"></stop>
            <stop stop-color="#6E68C6" offset="100%"></stop>
        </linearGradient>
    </defs>
    <g id="illustrations/money" stroke="none" stroke-width="1" fill="none" fill-rule="evenodd">
        <g id="10">
            <path d="M71.4,306.5 C22.4,395.4 -83.7,594.4 264.9,685.7 C613.5,777 893.4,599.2 944,494.3 C994.6,389.4 931.4,190.3 707.6,93.4 C483.8,-3.5 133.6,193.5 71.4,306.5 Z" id="Path" fill="url(#linearGradient-1)" fill-rule="nonzero" opacity="0.28"></path>
            <path d="M300.4,564.7 C300.4,564.7 267.9,459.5 257.4,410.3 C253.3,390.9 245.5,334.4 277.6,309.2 C302.9,289.2 333.4,312.2 343,331.3 C373.5,483.2 350.8,536.7 350.8,536.7" id="Path" fill="#E3A67F" fill-rule="nonzero"></path>
            <path d="M281.4,530.4 C288,521.9 387,409.9 387,409.9 C387.1,409.9 409.5,418.9 400.2,430.3 C388.5,433.3 375.2,522.8 330.1,580 C325.3,586 297.9,580.5 282.2,563.4 C266.5,546.4 274.9,539 281.4,530.4 Z" id="Path" fill="#F4B68A" fill-rule="nonzero"></path>
            <path d="M280,450.4 C280,450.4 249.6,339.8 251.8,319.6 C254,298.5 284.4,279.1 311.3,287 C345.3,296.9 351.2,346.3 353.4,365.5 C355,379.6 360.9,437.1 360.9,437.1 C360.9,437.1 350.3,444.6 317.3,449.9 C284.1,455.2 280,450.4 280,450.4 Z" id="Path" fill="#003C42" fill-rule="nonzero"></path>
            <path d="M237.4,260 C237.4,260 214.8,287.3 185.2,285.2 C155.6,283.1 148.8,255.7 148.8,255.7 C148.8,255.7 163.7,205.3 157.3,157.7 C150.8,110 255.6,93.6 242.5,163.7 C229.5,233.7 237.4,260 237.4,260 Z" id="Path" fill="#F4B68A" fill-rule="nonzero"></path>
            <path d="M242.6,163.7 C244.3,154.6 244,147 242.2,140.7 C218.3,122 167.4,133.4 167.5,166.8 C167.5,178.9 166.2,191.7 164.2,204 C171.1,217.6 183.2,230.9 205.2,241.5 C217.5,247.4 226.8,249.6 234.1,249.2 C234,230.9 235.4,202.1 242.6,163.7 Z" id="Path" fill="#D39572" fill-rule="nonzero"></path>
            <path d="M302.3,93.5 C302.3,93.5 282.9,185.8 266.8,208.5 C250.7,231.2 244.4,251.5 203.3,234.1 C162.2,216.7 153.8,188.6 150.2,165.9 C146.6,143.2 143.2,96.4 147.3,67.4 C151.4,38.4 224.7,22.7 265.9,55.5 C277,64.4 301,72.1 302.3,93.5 Z" id="Path" fill="#F4B68A" fill-rule="nonzero"></path>
            <path d="M245.8,1.5 C273,5 295.2,23.9 308.4,49.1 C316.9,65.3 319.3,90.6 302.3,93.5 C290.1,95.5 272.6,88 257.2,79.4 C245.1,72.6 233.9,64.9 216.2,67.7 C203.8,69.7 191.6,81.2 186.2,93.4 C180.1,107.3 183.7,124.1 179.2,134 C174.7,143.9 169.6,135.4 169.6,135.4 C169.6,135.4 168.9,117.3 162.8,121 C158.2,123.7 151.2,158.7 149.2,158.9 C144.3,159.3 141.6,123.1 141.6,111.5 C141.5,83.5 136.5,54.3 155.8,30.8 C171.9,11.2 203.9,-3.9 245.8,1.5 Z" id="Path" fill="#BA7032" fill-rule="nonzero"></path>
            <path d="M253,156.5 C255.2,173.1 260.6,179.3 257.6,183.2 C254.2,187.6 243.8,184 243.8,184" id="Path" fill="#E3A67F" fill-rule="nonzero"></path>
            <path d="M222.5,196.1 C222.5,196.1 237.2,205.3 255.1,202.3 C255.1,202.3 259,213.3 242.6,212.4 C226.1,211.6 222.5,196.1 222.5,196.1 Z" id="Path" fill="#FFFFFF" fill-rule="nonzero"></path>
            <path d="M288,133.5 C282.8,132 279.7,133.2 275.7,133.1 C271.7,133 269.8,139.1 269.8,139.1 C271.4,143.5 274.1,141 279.4,140.7 C284.4,140.4 286.8,138.5 291.1,139 C291.5,137.6 291.8,136.1 292.2,134.7 C290.7,134.3 289.3,133.8 288,133.5 Z" id="Path" fill="#BA7032" fill-rule="nonzero"></path>
            <path d="M174.3,126.8 C173.4,120.6 174.7,115.6 169.1,113.7 C159.8,110.5 156.4,120.6 156.4,131.9 C156.4,143.7 153.1,154.3 161.4,156 C163.9,156.5 165.4,153.2 167.9,151.1" id="Path" fill="#F4B68A" fill-rule="nonzero"></path>
            <path d="M167.8,140.8 C167.2,141.6 166,142.4 165,141.9 C163.6,141.2 164.6,140.3 164.5,138.9 C164.4,137.7 163.6,137 163.2,136 C162.6,134.7 162.7,133.9 163,132.4 C163.8,127.5 166,121.1 170.9,120.5 L170.9,120.3 C168.7,118.8 165.6,120.1 164,122.1 C162.4,124.1 162.4,127.1 161.3,129.4 C160.4,131.5 158,134.9 160.1,136.7 C160.9,137.4 162.3,137.1 162.6,138.6 C163,140.4 161.3,140.6 160.9,141.9 C160.6,142.8 160.9,143.9 161.9,144.1 C162.6,144.3 162.9,143.6 163.4,143.6 C163.8,143.7 164.1,143.9 164.5,144.2 C165.4,144.6 165.7,145.7 166.8,144.5 C167.7,143.6 167.6,141.8 168,140.5" id="Path" fill="#E19A74" fill-rule="nonzero"></path>
            <path d="M243.8,136.1 C243.8,136.1 244.4,129.7 240.8,128.3 C237.2,126.9 234.8,124.5 229.4,123.8 C224,123.1 214.9,122.3 212,123.5 C209.1,124.7 206.9,128.1 210.1,128.4 C213.3,128.7 219,126.2 223.7,127.4 C228.4,128.6 229.7,131.4 234.4,133.8 C239.1,136.1 240.6,139.5 243.8,136.1 Z" id="Path" fill="#BA7032" fill-rule="nonzero"></path>
            <path d="M210.4,142.7 C210.4,142.7 224.8,161.8 237.8,146.1 C237.9,146.1 224,152.9 210.4,142.7 Z" id="Path" fill="#6C3506" fill-rule="nonzero"></path>
            <path d="M267.1,150.6 C272.8,160.4 280.6,159.8 286.5,157.2 C286.7,156.3 287,155.4 287.2,154.5 C275.7,156.8 267.1,150.6 267.1,150.6 Z" id="Path" fill="#6C3506" fill-rule="nonzero"></path>
            <g id="Group" transform="translate(174.000000, 125.000000)">
                <path d="M26.6,19.8 C26.6,19.8 27.4,11.5 34.2,9.8 C41,8.1 54.3,8.1 65.7,14.4 C77.1,20.7 68.3,30.2 63.7,35.5 C59.1,40.8 45.7,46.2 37.9,43.9 C30.1,41.6 24.9,38.5 26.6,19.8 Z" id="Path" fill="#000000" fill-rule="nonzero" opacity="0.9"></path>
                <path d="M124.2,36.5 C124.2,36.5 126.3,28.4 120.4,24.5 C114.5,20.6 101.8,16 88.8,18.1 C75.8,20.2 80.9,32.1 83.5,38.6 C86.1,45.1 97,54.7 105.2,55.3 C113.4,55.9 119.4,54.6 124.2,36.5 Z" id="Path" fill="#000000" fill-rule="nonzero" opacity="0.9"></path>
                <path d="M71.6,22.1 C71.6,22.1 75.5,21.5 80.8,23.7" id="Path" stroke="#000000"></path>
                <line x1="50.5" y1="9.3" x2="105.4" y2="18.9" id="Path" stroke="#000000"></line>
                <line x1="0.3" y1="0.4" x2="28.9" y2="13.7" id="Path" stroke="#000000" stroke-width="2" fill="#000000" fill-rule="nonzero"></line>
                <path d="M124.2,36.5 C124.2,36.5 126.3,28.4 120.4,24.5 C116.5,21.9 109.7,19.1 101.7,18 C103.7,22.4 109.7,38.4 102,54.6 C103.1,54.9 104.2,55.1 105.2,55.2 C113.4,55.7 119.4,54.6 124.2,36.5 Z" id="Path" fill="#FFFFFF" fill-rule="nonzero" opacity="0.1"></path>
                <path d="M45.1,44.2 C52.3,43.3 60.4,39.4 63.8,35.5 C68.4,30.2 77.2,20.7 65.8,14.4 C58.9,10.6 51.4,9.1 44.9,8.9 C47.1,14.1 52,29 45.1,44.2 Z" id="Path" fill="#FFFFFF" fill-rule="nonzero" opacity="0.1"></path>
                <path d="M26.6,19.8 C26.6,19.8 27.4,11.5 34.2,9.8 C41,8.1 54.3,8.1 65.7,14.4 C77.1,20.7 68.3,30.2 63.7,35.5 C59.1,40.8 45.7,46.2 37.9,43.9 C30.1,41.6 24.9,38.5 26.6,19.8 Z" id="Path" stroke="#000000"></path>
                <path d="M124.2,36.5 C124.2,36.5 126.3,28.4 120.4,24.5 C114.5,20.6 101.8,16 88.8,18.1 C75.8,20.2 80.9,32.1 83.5,38.6 C86.1,45.1 97,54.7 105.2,55.3 C113.4,55.9 119.4,54.6 124.2,36.5 Z" id="Path" stroke="#000000"></path>
            </g>
            <path d="M146.2,507.6 C146.2,507.6 222.7,448.1 262.2,413.3 C277.7,399.6 325.1,365.5 310.2,343.7 C293.7,319.6 272.1,315 254.2,329.4 C209.4,365.6 104.4,474.6 104.4,474.6" id="Path" fill="#841B16" fill-rule="nonzero"></path>
            <path d="M61.3,312.5 C72.3,285.7 132.1,266.1 148.4,255.2 C148.4,255.2 153.7,277.1 193,277.1 C227.1,277.1 236.6,257.3 236.6,257.3 C253.1,268 291,276.9 318.3,289.9 C333.5,297.1 318.7,436.6 315.5,501.7 C313.4,545.4 327,679.6 330.4,709.7 C176.5,681.5 144.7,646.2 75,604.5 C76.1,587.6 60.1,563.5 62.1,499.4 C64.2,434.3 46.1,349.6 61.3,312.5 Z" id="Path" fill="#00434E" fill-rule="nonzero"></path>
            <path d="M268.1,442.6 C262.7,432 253.1,415.8 236.1,394.4 C239.2,389.7 240,387.6 240,387.6 C240,387.6 160.4,298.7 141.7,288.2 C122,277.2 84.3,288.6 74.7,318.3 C62.5,355.7 99.5,397.7 114.7,411.7 C125.9,422 174,457.3 174,457.3 C174,457.3 174.9,456.9 176.8,455.8 C210.2,480.8 244.2,505 250.5,509.4 C260.9,518.5 272.8,522.7 277.3,519.5 C291.3,509.7 304.4,498 316.6,485.7 C318,463.2 320.2,435.5 322,408 C302.1,420.9 282.3,433.5 268.1,442.6 Z" id="Path" fill="#000000" fill-rule="nonzero" opacity="0.13"></path>
            <path d="M956,458.3 C956,458.3 951.7,418.5 939.1,364.5 C934.1,343.3 927.2,286.5 891.6,279.8 C863.4,274.4 837.9,295.6 838.6,319.8 C840.2,372.6 919.3,535 919.3,535 C919.3,535 940,511 944.5,501.5 C949.5,491.5 956,458.3 956,458.3 Z" id="Path" fill="#131313" fill-rule="nonzero"></path>
            <path d="M709.6,252.2 L753.8,295.3 L808,252.2 C808,252.2 786.1,228.1 797.8,173.4 C805.2,138.9 716.5,121.6 718.7,173.4 C722,246.9 709.6,252.2 709.6,252.2 Z" id="Path" fill="#E19A74" fill-rule="nonzero"></path>
            <path d="M543.9,531.6 C543.9,531.6 574.2,417.5 586.9,363.5 C591.9,342.3 598.8,285.5 634.4,278.8 C662.6,273.4 688.1,294.6 687.4,318.8 C685.8,371.6 602.7,549.9 602.7,549.9" id="Path" fill="#131313" fill-rule="nonzero"></path>
            <path d="M758.4,26.7 L758.4,26.7 C822.8,26.7 840.6,80.1 834.8,128.7 C833.2,142 830.2,153.9 826.2,164.3 C821.2,179.5 814.7,194.3 807.8,204.2 C792.8,226 779.4,234.9 758.5,234.9 C737.6,234.9 724.1,226 709.2,204.2 C702.6,194.6 696.2,180.4 691.3,165.7 C687,154.9 683.8,142.6 682.1,128.7 C676.3,80.1 694,26.7 758.4,26.7 Z" id="Path" fill="#F4B68A" fill-rule="nonzero"></path>
            <path d="M734.2,218.2 C732.9,216.6 720.4,204.9 722.2,206 C730.9,210.9 728.4,189.4 728.4,183.4 C728.4,178.2 731.9,177.1 737,177.4 C742.9,177.7 750.9,179.8 758.3,179.8 C766.1,179.8 774.7,177.7 780.8,177.9 C785.5,178 788.7,179.5 788.7,184.4 C788.7,190.1 787,210.7 794.4,206.9 C798.6,204.7 784.8,217.6 783.1,219.6 C778.2,225.5 766.3,226.7 758.1,226.7 C750.1,226.6 739,224.1 734.2,218.2 Z" id="Path" fill="#3C2727" fill-rule="nonzero"></path>
            <g id="Group" transform="translate(676.000000, 122.000000)" fill-rule="nonzero">
                <path d="M18.1,11.2 C16.3,4.9 13.2,0.7 9.3,0.7 C2.8,0.7 -1.6,12.7 0.7,24.7 C3.2,37.3 7.9,49.8 13.4,48.7 C15.1,48.4 16.6,46.4 17.7,43.3" id="Path" fill="#F4B68A"></path>
                <path d="M10.1,31.1 C10.6,32 11.6,32.8 12.3,32.1 C13.3,31.2 12.5,30.2 12.6,28.7 C12.6,27.3 13.2,26.5 13.5,25.3 C13.9,23.7 13.8,22.9 13.5,21.3 C12.6,15.8 10.5,8.9 6.7,8.5 L6.7,8.3 C8.3,6.4 10.8,7.6 12.2,9.8 C13.5,11.9 13.7,15.3 14.7,17.8 C15.5,20 17.6,23.7 16,25.9 C15.4,26.7 14.3,26.6 14.2,28.3 C14,30.4 15.3,30.5 15.7,31.9 C16,32.9 15.8,34.1 15,34.5 C14.5,34.7 14.2,34 13.8,34.1 C13.5,34.2 13.3,34.5 13,34.8 C12.3,35.4 12.1,36.6 11.2,35.4 C10.5,34.5 10.4,32.4 10,31" id="Path" fill="#E19A74"></path>
            </g>
            <g id="Group" transform="translate(823.000000, 122.000000)" fill-rule="nonzero">
                <path d="M0.1,11.2 C1.9,4.9 5,0.7 8.8,0.7 C15.3,0.7 19.7,12.7 17.4,24.7 C14.9,37.3 10.2,49.8 4.7,48.7 C3,48.4 1.5,46.4 0.4,43.3" id="Path" fill="#F4B68A"></path>
                <path d="M8.1,31.1 C7.6,32 6.6,32.8 5.9,32.1 C4.9,31.2 5.7,30.2 5.7,28.7 C5.7,27.3 5.1,26.5 4.8,25.3 C4.4,23.7 4.5,22.9 4.8,21.3 C5.7,15.8 7.8,8.9 11.6,8.5 L11.6,8.3 C10,6.4 7.5,7.6 6.1,9.8 C4.8,11.9 4.6,15.3 3.6,17.8 C2.8,20 0.8,23.7 2.3,25.9 C2.9,26.7 4,26.6 4.1,28.3 C4.3,30.4 3,30.5 2.6,31.9 C2.3,32.9 2.5,34.1 3.3,34.5 C3.8,34.7 4.1,34 4.5,34.1 C4.8,34.2 5,34.5 5.3,34.8 C6,35.4 6.2,36.6 7.1,35.4 C7.8,34.5 7.9,32.4 8.3,31" id="Path" fill="#E19A74"></path>
            </g>
            <path d="M757,147.8 C761.1,163.1 766.9,168.3 764.6,172.3 C762,176.8 751.8,174.8 751.8,174.8" id="Path" fill="#E19A74" fill-rule="nonzero"></path>
            <path d="M737.7,212.8 C729.8,208.9 731.1,193 731.1,187.5 C731.1,178.9 746.2,186.5 758.5,186.5 C770.8,186.5 786.7,178.9 786.7,187.5 C786.7,193 788.2,205 780.5,213.1 C776.2,217.7 765.6,221.1 758.4,221.1 C751.1,221.1 743.2,215.5 737.7,212.8 Z" id="Path" fill="#F4B68A" fill-rule="nonzero"></path>
            <path d="M778.6,189.1 C778.6,189.1 755,192.1 738.3,189.1 C738.3,189.1 743.3,200.9 758.9,200.9 C774.4,200.9 778.6,189.1 778.6,189.1 Z" id="Path" fill="#EFE9DF" fill-rule="nonzero"></path>
            <path d="M781.2,643 C689.7,686.4 618,703.2 618,703.2 C618,703.2 618.6,628.6 614.7,546.3 C611.4,477.6 608.1,289.9 624.5,282.1 C650,269.9 679.1,270.2 696.8,258.9 L754.1,297.7 L817.4,259.5 C835.1,270.8 875.3,270 900.8,282.2 C917.2,290 914.9,481.3 911.6,550 C911.5,549.9 819.9,624.6 781.2,643 Z" id="Path" fill="#212121" fill-rule="nonzero"></path>
            <polygon id="Path" fill="#131313" fill-rule="nonzero" points="808.1 252.2 753.6 291.4 709.6 252.2 696.7 258.9 754 305.5 817.3 259.4"></polygon>
            <path d="M801,136.2 C801,136.2 787.2,121.9 778,136.2 C778,136.2 788.7,129.1 801,136.2 Z" id="Path" fill="#3C2727" fill-rule="nonzero"></path>
            <path d="M715.6,136.5 C715.6,136.5 729.4,122.2 738.6,136.5 C738.6,136.5 727.9,129.4 715.6,136.5 Z" id="Path" fill="#3C2727" fill-rule="nonzero"></path>
            <path d="M772.8,127.1 C772.8,127.1 777.9,124.8 783.1,124 C787.6,123.3 791.2,121.3 798.1,122.4 C805,123.5 810,127.9 810.5,128.6 C811,129.3 808.8,124.6 806.1,122.9 C803.3,121.1 798.5,119.2 791.8,119.4 C785.1,119.6 776.5,121.2 774.5,122.5 C772.5,123.8 767.8,125.5 772.8,127.1 Z" id="Path" fill="#3C2727" fill-rule="nonzero"></path>
            <path d="M740.2,127.1 C740.2,127.1 735.7,124.8 731.1,124 C727.1,123.3 722.8,121.8 716.7,122.8 C710.6,123.9 707.3,127.9 706.8,128.5 C706.3,129.2 708.3,124.5 710.7,122.8 C713.2,121 717.4,119.1 723.4,119.3 C729.4,119.5 737,121.1 738.7,122.4 C740.4,123.8 744.6,125.5 740.2,127.1 Z" id="Path" fill="#3C2727" fill-rule="nonzero"></path>
            <ellipse id="Oval" fill="#3C2727" fill-rule="nonzero" cx="788.8" cy="136.4" rx="5.6" ry="6.6"></ellipse>
            <path d="M601.8,521.1 C605.1,533.1 649.7,698.8 649.7,698.8 C647.1,689 623.9,705 605.4,705.4 C603.3,698.4 545.7,549.6 543.7,540.8 C541.7,532 546,517.3 565,510.1 C584.2,502.8 598.4,509 601.8,521.1 Z" id="Path" fill="#131313" fill-rule="nonzero"></path>
            <ellipse id="Oval" fill="#3C2727" fill-rule="nonzero" cx="729.3" cy="136.4" rx="5.6" ry="6.3"></ellipse>
            <path d="M695.8,177.7 C712.7,234.3 744.7,234.9 758.5,234.9 C772.2,234.9 803.9,233.8 821.1,177.7 C821.1,177.7 823.5,162.6 821.8,145.7 C820.1,128.9 823.6,120.6 820,136.6 C820,136.6 820.7,168.5 811,189.6 C803.1,206.9 778.6,216.5 759.4,216.5 C738.6,216.5 713.5,204.9 704.8,189.6 C692.4,167.9 697.2,138.1 697.2,138.1 C693.6,122.1 696.8,129 695.1,145.8 C693.4,162.6 695.8,177.7 695.8,177.7 Z" id="Path" fill="#3C2727" fill-rule="nonzero"></path>
            <path d="M681.6,124.1 C681.6,124.1 658.2,5.7 758.5,5.7 C853.9,5.7 835.4,124.1 835.4,124.1 C830.7,124.1 826.5,126.9 824.3,131 C821.8,135.1 821.6,143.5 821.8,144.8 C819.9,144.8 818,116.8 818.1,110.4 C818.4,91.8 805.8,73.3 790,73.3 C778,73.3 771.6,67.5 757.1,67.5 C743.4,67.5 737.7,74.1 727.2,74.1 C711.5,74.1 701.5,94.6 700.5,114.1 C700.4,116.8 697.1,145 695.2,145 C695.2,143.6 695.1,135.6 692.8,130.9 C690.5,126.8 686.3,124.1 681.6,124.1 Z" id="Path" fill="#3C2727" fill-rule="nonzero"></path>
            <path d="M757.3,75.3 C740,75.3 693.2,77.3 693.2,48.2 C693.2,13.9 724.4,9.5 757.1,9.5 C789.7,9.5 821,14 821,48.2 C820.9,75.9 774.4,75.3 757.3,75.3 Z" id="Path" fill="#3C2727" fill-rule="nonzero"></path>
            <path d="M252.5,461 C248.5,449.8 240.9,432.5 226.8,409.2 C230.5,404.9 231.5,403 231.5,403 C231.5,403 163.6,304.9 146.4,292.1 C128.2,278.7 89.4,285.4 76.2,313.6 C59.4,349.2 90.9,395.5 104.2,411.3 C114,422.9 157.3,463.9 157.3,463.9 C157.3,463.9 158.3,463.6 160.3,462.8 C190.3,491.8 221.1,520 226.8,525.2 C236,535.5 247.2,541.2 252.1,538.6 C275.3,526.3 297,509.5 316.3,492.4 C317.4,474.2 319,451.9 320.7,428.7 C296,440.3 270.2,452.5 252.5,461 Z" id="Path" fill="#000000" fill-rule="nonzero" opacity="0.13"></path>
            <path d="M237.9,510.5 C237.9,510.5 151,442.9 114.2,408.5 C99.7,394.9 61,353.1 72.8,314.1 C82,283.2 120.2,284.6 139.1,294.8 C251.1,401.8 263.1,458.7 263.1,458.7" id="Path" fill="#F4B68A" fill-rule="nonzero"></path>
            <g id="Group" transform="translate(693.000000, 122.000000)">
                <g transform="translate(3.000000, 0.000000)" id="Path">
                    <path d="M0.6,18.1 C0.6,18.1 0,7.8 8,4.5 C16,1.1 32.2,-1.5 47.3,3.9 C62.4,9.4 53.5,22.7 48.9,30 C44.3,37.3 29,46.5 19,45.2 C9,43.9 2.2,41.2 0.6,18.1 Z" fill="#000000" fill-rule="nonzero" opacity="0.9"></path>
                    <path d="M122.8,19.4 C122.8,19.4 123.7,9.1 115.8,5.6 C107.8,2 91.5,-1.1 76,3.9 C60.5,8.9 69.1,22.5 73.5,29.9 C77.9,37.3 93.1,46.9 103.2,46 C113.3,45 120.4,42.4 122.8,19.4 Z" fill="#000000" fill-rule="nonzero" opacity="0.9"></path>
                    <path d="M55.8,12.2 C55.8,12.2 60.5,10.7 67.3,12.4" stroke="#000000"></path>
                    <line x1="27.7" y1="0.7" x2="96.5" y2="1.7" stroke="#000000"></line>
                    <path d="M122.8,19.4 C122.8,19.4 123.7,9.1 115.8,5.6 C110.6,3.2 101.7,1.1 91.8,1.3 C95,6.3 105.6,24.6 99.2,45.9 C100.6,46.1 101.9,46.1 103.2,46 C113.3,45 120.4,42.4 122.8,19.4 Z" fill="#FFFFFF" fill-rule="nonzero" opacity="0.1"></path>
                    <path d="M27.8,44.2 C36.4,41.7 45.5,35.3 48.9,30 C53.5,22.7 62.4,9.4 47.3,3.9 C38.2,0.6 28.7,0.3 20.8,1.3 C24.4,7.2 33.3,24.3 27.8,44.2 Z" fill="#FFFFFF" fill-rule="nonzero" opacity="0.1"></path>
                    <path d="M0.6,18.1 C0.6,18.1 0,7.8 8,4.5 C16,1.1 32.2,-1.5 47.3,3.9 C62.4,9.4 53.5,22.7 48.9,30 C44.3,37.3 29,46.5 19,45.2 C9,43.9 2.2,41.2 0.6,18.1 Z" stroke="#000000"></path>
                    <path d="M122.8,19.4 C122.8,19.4 123.7,9.1 115.8,5.6 C107.8,2 91.5,-1.1 76,3.9 C60.5,8.9 69.1,22.5 73.5,29.9 C77.9,37.3 93.1,46.9 103.2,46 C113.3,45 120.4,42.4 122.8,19.4 Z" stroke="#000000"></path>
                </g>
                <line x1="3.6" y1="18.1" x2="0.6" y2="11.3" id="Path" stroke="#000000" fill="#000000" fill-rule="nonzero"></line>
                <line x1="125.8" y1="19.4" x2="130.1" y2="11.2" id="Path" stroke="#000000" fill="#000000" fill-rule="nonzero"></line>
            </g>
            <path d="M264.9,685.6 C613.5,776.9 893.4,599.2 944,494.2 C949.9,481.9 954.2,468.4 957,453.8 C955.1,475.5 949.8,495.5 941.5,512.9 C890.9,618 611,795.6 262.3,704.4 C37.4,645.5 1.7,541.7 17.9,451.6 C10.1,537 55.4,630.8 264.9,685.6 Z" id="Path" fill="url(#linearGradient-2)" fill-rule="nonzero"></path>
            <path d="M232,387.4 C232,387.4 156.5,295 138.4,283.6 C119.2,271.7 81.1,281.4 70.1,310.6 C56.2,347.4 91.3,391 105.7,405.7 C116.4,416.5 162.8,453.9 162.8,453.9 C162.8,453.9 175.8,449.4 201.8,423.3 C227.6,397.3 232,387.4 232,387.4 Z" id="Path" fill="#00434E" fill-rule="nonzero"></path>
            <path d="M236.6,456 C246.7,449.5 391.9,366.5 391.9,366.5 C392,366.6 409.9,383.5 395.9,392.1 C383.1,391.5 331.8,477.5 263.2,521.1 C256,525.7 231.5,511.6 223.3,489.5 C215.1,467.4 226.5,462.6 236.6,456 Z" id="Path" fill="#F4B68A" fill-rule="nonzero"></path>
            <path d="M378.1,420.6 C378.1,420.6 381.8,415.4 387.1,409.9 C392.5,404.3 401.1,391.9 417.1,388.3 C417.1,388.3 425.7,385 428.8,391 C431.9,396.9 424.4,398.4 416.7,400.9 C409.1,403.3 419,409.9 427.6,406.4 C436.2,402.9 445,398.1 452.7,395.1 C466.8,389.5 467.6,399.6 467.2,402.1 C466.8,404.9 462.6,412.4 451.6,418.2 C436.1,426.4 424.1,433.8 412.9,431.7 C399.4,429.1 387,435.3 385.9,437.2 C384.6,439.2 374.8,432.6 378.1,420.6 Z" id="Path" fill="#F4B68A" fill-rule="nonzero"></path>
            <path d="M114.4,706.5 C116.6,700.6 127.1,699.1 137.7,703.1 C148.4,707.1 155.2,715.1 153,721 C150.8,726.9 140.3,728.4 129.7,724.4 C119,720.4 112.2,712.3 114.4,706.5 Z" id="Path" fill="url(#linearGradient-3)" fill-rule="nonzero" opacity="0.28"></path>
            <path d="M1.7,636.3 C1.7,636.3 15.9,684.2 59.3,696.1 C102.7,708 116.8,697.1 85.6,669.7 C54.4,642.3 -6.8,576.9 1.7,636.3 Z" id="Path" fill="url(#linearGradient-4)" fill-rule="nonzero" opacity="0.28"></path>
            <path d="M978.2,350.8 C983.3,351.5 988.2,358.4 989,366.3 C989.8,374.2 986.3,380.1 981.2,379.4 C976.1,378.7 971.2,371.8 970.4,363.9 C969.6,356 973,350.1 978.2,350.8 Z" id="Path" fill="url(#linearGradient-5)" fill-rule="nonzero" opacity="0.28"></path>
            <path d="M986.8,317.5 C986.8,317.5 995.5,283.6 967.1,254.1 C938.6,224.6 923.3,223.1 936.1,254.7 C948.9,286.3 969,354.6 986.8,317.5 Z" id="Path" fill="url(#linearGradient-6)" fill-rule="nonzero" opacity="0.28"></path>
            <g id="Group" transform="translate(445.000000, 68.000000)" fill-rule="nonzero">
                <rect id="Rectangle" fill="#49A481" transform="translate(55.193335, 35.703255) rotate(16.851254) translate(-55.193335, -35.703255) " x="4.34123951" y="14.6023855" width="101.704191" height="42.201739"></rect>
                <path d="M59.5,35.6 C58.6,34.6 57.5,33.8 56.5,33 C55.9,32.5 55.4,32 54.9,31.4 C54,30.2 54.7,28.7 56.2,28.6 C56.6,28.5 57,28.6 57.4,28.7 C59,29.1 60.3,29.8 61.5,30.9 C62.1,31.4 62.4,31.4 62.8,30.8 C63.3,30.1 63.7,29.4 64.2,28.7 C64.5,28.2 64.4,27.8 64,27.5 C63.2,26.8 62.4,26.3 61.5,25.8 C60.3,25.2 60.3,25.2 60.7,24 C61.2,22.2 61.2,22.2 59.4,21.7 C59.1,21.6 58.9,21.5 58.6,21.5 C57.8,21.3 57.6,21.4 57.3,22.2 C57.2,22.6 57.1,23 57,23.3 C56.7,24.4 56.7,24.4 55.5,24.5 C52.6,24.7 50.5,25.9 49.5,28.7 C48.6,31.2 49.4,33.2 51.1,35.1 C52.1,36.2 53.4,37.1 54.6,38.1 C55.1,38.5 55.5,38.9 55.8,39.4 C56.8,40.9 56,42.6 54.3,42.8 C53.4,42.9 52.5,42.7 51.6,42.4 C50.3,41.8 49.1,41.1 48,40 C47.4,39.4 47.1,39.4 46.7,40.1 C46.3,40.7 45.9,41.3 45.5,42 C45,42.8 45,43.1 45.7,43.8 C46.7,44.7 47.8,45.3 48.9,45.9 C49.8,46.3 49.8,46.4 49.5,47.4 C49.4,47.8 49.2,48.3 49.1,48.7 C48.9,49.3 49.1,49.7 49.7,49.9 C50.4,50.1 51,50.3 51.7,50.5 C52.2,50.7 52.6,50.4 52.8,49.9 C53,49.3 53.2,48.7 53.4,48.1 C53.6,47.5 53.9,47.2 54.6,47.2 C56.1,47.2 57.5,46.9 58.7,46 C62.1,43.5 62.5,38.7 59.5,35.6 Z" id="Path" fill="#FFFFFF"></path>
            </g>
            <g id="Group" transform="translate(367.000000, 181.000000)" fill-rule="nonzero">
                <rect id="Rectangle" fill="#49A481" transform="translate(48.473335, 53.353120) rotate(51.459196) translate(-48.473335, -53.353120) " x="-2.37896464" y="32.2521658" width="101.704599" height="42.2019085"></rect>
                <path d="M52.1,55.7 C51.9,54.4 51.5,53.1 51.1,51.8 C50.9,51.1 50.7,50.3 50.7,49.5 C50.7,48 52,47.2 53.4,47.9 C53.8,48.1 54.1,48.4 54.4,48.7 C55.5,49.9 56.2,51.3 56.6,52.9 C56.8,53.7 57,53.8 57.8,53.5 C58.6,53.2 59.4,52.9 60.1,52.6 C60.6,52.4 60.8,52 60.6,51.5 C60.3,50.5 60,49.6 59.5,48.7 C58.8,47.5 58.8,47.5 59.9,46.7 C61.4,45.5 61.4,45.5 60.2,44.1 C60,43.9 59.9,43.7 59.7,43.5 C59.1,42.8 58.9,42.8 58.2,43.3 C57.9,43.5 57.6,43.8 57.3,44 C56.4,44.7 56.4,44.7 55.4,44.1 C52.9,42.6 50.5,42.4 48,44.1 C45.9,45.6 45.3,47.8 45.7,50.2 C45.9,51.7 46.4,53.2 46.8,54.6 C47,55.2 47.1,55.8 47,56.3 C47,58 45.4,59 43.8,58.2 C43,57.8 42.3,57.1 41.9,56.3 C41.1,55.1 40.6,53.8 40.3,52.3 C40.1,51.5 39.9,51.4 39.1,51.7 C38.4,52 37.7,52.3 37.1,52.5 C36.2,52.9 36.1,53.1 36.3,54.1 C36.6,55.4 37.1,56.5 37.8,57.6 C38.3,58.5 38.3,58.5 37.5,59.2 C37.1,59.5 36.8,59.8 36.4,60.1 C35.9,60.5 35.8,60.9 36.2,61.4 C36.6,61.9 37.1,62.5 37.5,63 C37.9,63.4 38.3,63.5 38.7,63.1 C39.2,62.7 39.7,62.3 40.2,61.9 C40.7,61.5 41.1,61.5 41.7,61.9 C42.9,62.8 44.3,63.3 45.8,63.3 C49.8,63.6 52.8,59.9 52.1,55.7 Z" id="Path" fill="#FFFFFF"></path>
            </g>
            <g id="Group" transform="translate(560.000000, 225.000000)" fill-rule="nonzero">
                <rect id="Rectangle" fill="#49A481" transform="translate(49.246825, 53.277145) rotate(-50.217170) translate(-49.246825, -53.277145) " x="-1.60480878" y="32.1764671" width="101.703268" height="42.2013559"></rect>
                <path d="M50.8,49.3 C49.6,49.8 48.4,50.4 47.2,51 C46.5,51.4 45.8,51.7 45.1,51.8 C43.6,52.1 42.6,50.9 43,49.5 C43.1,49.1 43.3,48.7 43.6,48.4 C44.6,47.1 45.8,46.1 47.2,45.5 C47.9,45.2 48,44.9 47.6,44.2 C47.2,43.5 46.7,42.8 46.2,42.1 C45.9,41.6 45.5,41.6 45,41.8 C44.1,42.3 43.2,42.8 42.5,43.5 C41.5,44.4 41.5,44.4 40.5,43.5 C39.1,42.3 39.1,42.3 37.9,43.7 C37.7,43.9 37.5,44.1 37.4,44.3 C36.9,45 36.9,45.2 37.5,45.8 C37.8,46.1 38.1,46.3 38.4,46.6 C39.3,47.4 39.3,47.3 38.9,48.5 C37.9,51.2 38.3,53.7 40.4,55.7 C42.3,57.5 44.5,57.6 46.9,56.7 C48.4,56.2 49.6,55.4 51,54.7 C51.5,54.4 52.1,54.2 52.7,54.1 C54.4,53.8 55.7,55.1 55.2,56.8 C54.9,57.7 54.4,58.4 53.8,59.1 C52.7,60.1 51.6,60.9 50.2,61.5 C49.4,61.8 49.4,62.1 49.8,62.8 C50.2,63.4 50.6,64 51,64.6 C51.6,65.4 51.8,65.5 52.7,65.1 C53.9,64.6 54.9,63.8 55.9,62.9 C56.7,62.2 56.7,62.2 57.5,62.9 C57.9,63.2 58.2,63.5 58.6,63.8 C59.1,64.2 59.5,64.2 59.9,63.7 C60.3,63.2 60.8,62.6 61.2,62.1 C61.6,61.7 61.5,61.2 61.1,60.9 C60.6,60.5 60.1,60.1 59.6,59.7 C59.1,59.3 59,58.9 59.3,58.3 C59.9,56.9 60.1,55.5 59.8,54 C59,49.9 54.8,47.7 50.8,49.3 Z" id="Path" fill="#FFFFFF"></path>
            </g>
            <g id="Group" transform="translate(591.000000, 417.000000)" fill-rule="nonzero">
                <rect id="Rectangle" fill="#49A481" transform="translate(54.019560, 30.506615) rotate(-10.818873) translate(-54.019560, -30.506615) " x="3.17087881" y="9.40716224" width="101.697362" height="42.1989055"></rect>
                <path d="M57.9,28.4 C56.6,28 55.3,27.7 54,27.5 C53.2,27.3 52.5,27.1 51.8,26.8 C50.5,26.1 50.4,24.5 51.6,23.7 C52,23.5 52.3,23.3 52.8,23.2 C54.4,22.8 55.9,22.8 57.5,23.2 C58.3,23.4 58.5,23.3 58.6,22.5 C58.7,21.7 58.8,20.8 58.8,20 C58.9,19.4 58.6,19.1 58.1,19 C57.1,18.8 56.1,18.7 55.1,18.7 C53.8,18.7 53.8,18.7 53.5,17.4 C53.1,15.6 53.1,15.6 51.3,15.9 C51,16 50.8,16 50.5,16.1 C49.6,16.3 49.5,16.5 49.7,17.3 C49.8,17.7 49.8,18.1 49.9,18.5 C50.1,19.6 50.1,19.6 49.1,20.2 C46.6,21.7 45.3,23.8 45.7,26.7 C46,29.3 47.7,30.8 50,31.6 C51.4,32.1 53,32.3 54.5,32.7 C55.1,32.8 55.6,33 56.2,33.3 C57.7,34.1 57.8,36 56.4,37 C55.6,37.5 54.8,37.8 53.8,37.8 C52.4,37.9 50.9,37.8 49.6,37.4 C48.8,37.2 48.6,37.3 48.5,38.2 C48.4,38.9 48.4,39.7 48.3,40.4 C48.2,41.4 48.4,41.6 49.3,41.9 C50.6,42.2 51.8,42.3 53.1,42.2 C54.1,42.2 54.1,42.2 54.4,43.2 C54.5,43.7 54.6,44.1 54.7,44.6 C54.8,45.2 55.2,45.5 55.8,45.4 C56.5,45.3 57.2,45.2 57.8,45 C58.4,44.9 58.6,44.5 58.5,44 C58.4,43.4 58.3,42.7 58.1,42.1 C57.9,41.5 58.2,41.1 58.7,40.8 C60,40.1 61.1,39.2 61.8,37.8 C63.8,34.1 61.9,29.7 57.9,28.4 Z" id="Path" fill="#FFFFFF"></path>
            </g>
            <g id="Group" transform="translate(421.000000, 469.000000)" fill-rule="nonzero">
                <rect id="Rectangle" fill="#49A481" transform="translate(54.938475, 45.091725) rotate(30.963757) translate(-54.938475, -45.091725) " x="4.08805549" y="23.9915509" width="101.700839" height="42.2003481"></rect>
                <path d="M59.2,46 C58.5,44.8 57.7,43.8 56.9,42.7 C56.4,42.1 56,41.4 55.8,40.7 C55.3,39.3 56.3,38.1 57.8,38.3 C58.2,38.4 58.6,38.5 59,38.7 C60.4,39.5 61.6,40.5 62.5,41.8 C62.9,42.5 63.2,42.5 63.8,42 C64.4,41.4 65,40.9 65.7,40.3 C66.1,39.9 66.1,39.5 65.8,39.1 C65.2,38.3 64.5,37.5 63.8,36.9 C62.8,36.1 62.8,36 63.5,34.9 C64.5,33.3 64.5,33.3 62.9,32.3 C62.7,32.2 62.4,32 62.2,31.9 C61.4,31.5 61.2,31.5 60.8,32.3 C60.6,32.6 60.4,33 60.2,33.3 C59.6,34.3 59.6,34.3 58.4,34.1 C55.6,33.6 53.2,34.3 51.5,36.7 C50,38.9 50.3,41.1 51.5,43.3 C52.2,44.7 53.2,45.8 54.1,47.1 C54.4,47.6 54.8,48.1 54.9,48.7 C55.5,50.3 54.3,51.8 52.6,51.6 C51.7,51.5 50.9,51.1 50.1,50.5 C49,49.6 48,48.6 47.2,47.3 C46.8,46.6 46.5,46.6 45.9,47.1 C45.3,47.6 44.8,48.1 44.3,48.6 C43.6,49.3 43.5,49.5 44.1,50.4 C44.8,51.5 45.7,52.4 46.7,53.2 C47.5,53.8 47.5,53.9 47,54.8 C46.8,55.2 46.5,55.6 46.3,56 C46,56.5 46.1,56.9 46.6,57.3 C47.2,57.7 47.8,58 48.4,58.4 C48.9,58.7 49.3,58.6 49.6,58.1 C49.9,57.6 50.3,57 50.6,56.5 C50.9,55.9 51.3,55.8 51.9,56 C53.3,56.4 54.8,56.4 56.2,55.9 C59.8,54.2 61.4,49.7 59.2,46 Z" id="Path" fill="#FFFFFF"></path>
            </g>
            <g id="Group" transform="translate(347.000000, 612.000000)" fill-rule="nonzero">
                <rect id="Rectangle" fill="#49A481" transform="translate(55.120390, 32.774605) rotate(-13.916730) translate(-55.120390, -32.774605) " x="4.27281535" y="11.6756114" width="101.695149" height="42.1979872"></rect>
                <path d="M58.9,30.5 C57.6,30.2 56.3,30 55,29.8 C54.2,29.7 53.5,29.5 52.8,29.2 C51.4,28.6 51.3,27 52.5,26.1 C52.8,25.8 53.2,25.7 53.6,25.6 C55.1,25.1 56.7,25 58.3,25.4 C59.1,25.6 59.3,25.4 59.4,24.6 C59.5,23.8 59.5,22.9 59.5,22.1 C59.5,21.5 59.2,21.2 58.7,21.1 C57.7,20.9 56.7,20.9 55.7,21 C54.4,21.1 54.4,21.1 54.1,19.8 C53.6,18 53.6,18 51.8,18.4 C51.5,18.5 51.3,18.5 51,18.6 C50.2,18.8 50.1,19 50.2,19.9 C50.3,20.3 50.4,20.7 50.5,21.1 C50.8,22.2 50.8,22.2 49.8,22.9 C47.4,24.5 46.2,26.7 46.8,29.6 C47.3,32.2 49,33.6 51.4,34.3 C52.9,34.8 54.4,34.9 55.9,35.1 C56.5,35.2 57.1,35.3 57.6,35.6 C59.2,36.4 59.4,38.2 58,39.3 C57.3,39.9 56.4,40.2 55.5,40.3 C54.1,40.5 52.6,40.4 51.2,40.1 C50.4,39.9 50.2,40.1 50.1,40.9 C50.1,41.6 50,42.4 50,43.1 C50,44.1 50.1,44.3 51.1,44.5 C52.4,44.8 53.6,44.7 54.9,44.6 C55.9,44.5 55.9,44.6 56.2,45.5 C56.3,46 56.4,46.4 56.6,46.9 C56.7,47.5 57.1,47.7 57.7,47.6 C58.4,47.4 59,47.3 59.7,47.1 C60.2,47 60.5,46.6 60.3,46 C60.1,45.4 60,44.7 59.8,44.1 C59.6,43.5 59.8,43.1 60.4,42.8 C61.7,42.1 62.7,41 63.4,39.7 C65.1,35.9 63,31.6 58.9,30.5 Z" id="Path" fill="#FFFFFF"></path>
            </g>
            <g id="Group" transform="translate(420.000000, 356.000000)">
                <g transform="translate(0.000000, 4.000000)" id="Path">
                    <polygon fill="#49A481" fill-rule="nonzero" points="100.4 0.1 8.7 0.9 0.7 8.9 0.7 49 91.6 49 100.3 40.3 100.4 0.2 91.6 8.9"></polygon>
                    <polyline stroke="#FFFFFF" stroke-width="0.5" points="0.7 11.9 91.6 11.9 100.4 3.2"></polyline>
                    <polyline stroke="#FFFFFF" stroke-width="0.5" points="0.7 16 91.6 16 100.4 7.2"></polyline>
                    <polyline stroke="#FFFFFF" stroke-width="0.5" points="0.7 20.9 91.6 20.9 100.5 12"></polyline>
                    <polyline stroke="#FFFFFF" stroke-width="0.5" points="0.7 25.9 91.6 25.9 100.3 17.2"></polyline>
                    <polyline stroke="#FFFFFF" stroke-width="0.5" points="0.7 30.5 91.6 30.5 100.3 21.8"></polyline>
                    <polyline stroke="#FFFFFF" stroke-width="0.5" points="0.7 35.1 91.6 35.1 100.3 26.5"></polyline>
                    <polyline stroke="#FFFFFF" stroke-width="0.5" points="0.7 38.9 91.6 38.9 100.3 30.2"></polyline>
                    <polyline stroke="#FFFFFF" stroke-width="0.5" points="0.7 42.8 91.6 42.8 100.5 33.9"></polyline>
                    <polyline stroke="#FFFFFF" stroke-width="0.5" points="0.7 46.7 91.6 46.7 100.2 38.1"></polyline>
                </g>
                <g transform="translate(23.000000, 0.000000)" fill-rule="nonzero" id="Path">
                    <polygon fill="#49A481" points="100.7 1.2 91.8 10.1 0.9 10.1 10.1 0.9"></polygon>
                    <path d="M53.6,5.4 C52.4,5.3 51.2,5.2 50,5.1 C49.3,5 48.6,5 48,4.9 C46.8,4.7 47.1,4.5 48.4,4.5 C48.8,4.5 49.2,4.5 49.6,4.5 C51.2,4.5 52.7,4.6 54.2,4.8 C54.9,4.9 55.2,4.9 55.4,4.8 C55.7,4.7 55.9,4.6 56.1,4.5 C56.3,4.4 56.1,4.4 55.6,4.3 C54.7,4.2 53.7,4.1 52.7,4.1 C51.4,4 51.4,4 51.4,3.8 C51.4,3.5 51.4,3.5 49.5,3.5 C49.2,3.5 49,3.5 48.7,3.5 C47.8,3.5 47.7,3.5 47.7,3.6 C47.7,3.7 47.7,3.7 47.7,3.8 C47.7,4 47.7,4 46.6,4 C43.9,4.1 42.2,4.3 42,4.7 C41.8,5.1 43.2,5.4 45.3,5.6 C46.6,5.8 48.1,5.9 49.5,6 C50,6 50.6,6.1 51,6.2 C52.3,6.4 52.1,6.7 50.5,6.7 C49.6,6.7 48.7,6.7 47.8,6.7 C46.4,6.6 45,6.5 43.7,6.4 C42.9,6.3 42.7,6.3 42.5,6.4 C42.3,6.5 42.1,6.6 41.9,6.7 C41.6,6.8 41.7,6.9 42.6,7 C43.8,7.1 45,7.2 46.3,7.3 C47.3,7.4 47.3,7.4 47.3,7.5 C47.3,7.6 47.3,7.6 47.3,7.7 C47.3,7.8 47.6,7.8 48.2,7.9 C48.9,7.9 49.6,7.9 50.3,8 C50.9,8 51.2,8 51.2,7.9 C51.2,7.8 51.2,7.7 51.2,7.6 C51.2,7.5 51.5,7.5 52.1,7.5 C53.5,7.5 54.8,7.4 55.7,7.3 C58.3,6.5 57.3,5.8 53.6,5.4 Z" fill="#FFFFFF"></path>
                </g>
            </g>
            <g id="Group" transform="translate(569.000000, 587.000000)" fill-rule="nonzero">
                <rect id="Rectangle" fill="#49A481" transform="translate(54.826240, 35.374915) rotate(16.254704) translate(-54.826240, -35.374915) " x="3.97766357" y="14.2755057" width="101.697153" height="42.1988186"></rect>
                <path d="M59.2,35.2 C58.3,34.3 57.2,33.4 56.2,32.6 C55.6,32.1 55,31.6 54.6,31 C53.7,29.8 54.4,28.3 55.9,28.2 C56.3,28.1 56.7,28.2 57.1,28.3 C58.7,28.7 60.1,29.4 61.3,30.5 C61.9,31 62.2,31 62.6,30.3 C63.1,29.6 63.5,28.9 64,28.2 C64.3,27.7 64.2,27.3 63.8,27 C63,26.3 62.2,25.8 61.3,25.4 C60.1,24.8 60.1,24.8 60.5,23.6 C61,21.8 61,21.8 59.2,21.3 C58.9,21.2 58.7,21.1 58.4,21.1 C57.6,20.9 57.4,21 57.1,21.8 C57,22.2 56.9,22.6 56.8,22.9 C56.5,24 56.5,24 55.3,24.1 C52.4,24.3 50.3,25.6 49.3,28.4 C48.4,30.9 49.2,32.9 50.9,34.8 C51.9,35.9 53.2,36.8 54.4,37.8 C54.9,38.2 55.3,38.6 55.6,39.1 C56.6,40.5 55.8,42.2 54.1,42.5 C53.2,42.6 52.3,42.5 51.4,42.1 C50.1,41.5 48.9,40.8 47.8,39.8 C47.2,39.2 46.9,39.2 46.5,40 C46.1,40.6 45.7,41.2 45.3,41.9 C44.8,42.7 44.8,43 45.6,43.7 C46.6,44.6 47.7,45.2 48.8,45.7 C49.7,46.1 49.7,46.2 49.5,47.2 C49.4,47.6 49.2,48.1 49.1,48.6 C48.9,49.2 49.1,49.6 49.7,49.8 C50.4,50 51,50.2 51.7,50.4 C52.2,50.5 52.6,50.3 52.8,49.8 C53,49.2 53.2,48.6 53.3,48 C53.5,47.4 53.8,47.1 54.5,47.1 C56,47.1 57.4,46.7 58.6,45.9 C61.9,43 62.2,38.3 59.2,35.2 Z" id="Path" fill="#FFFFFF"></path>
            </g>
            <path d="M383.4,395.8 C383.4,395.8 398.6,388.3 406.9,391.1 C415.2,393.9 422.3,396.8 438.8,388.6 C438.8,388.6 448.7,385.3 447.1,377.9 C445.5,370.5 437.9,374.6 429.5,377.9 C421.1,381.2 425.1,368.4 435.1,365.4 C445.1,362.3 456.2,360.2 465.1,357.5 C481.5,352.4 474.9,343 472.8,341.1 C470.4,339 461.4,335.4 447.6,338.1 C428.2,342 414.3,346 404.1,353.9 C391,364.1 381.3,372.3 379,373.4 C376.9,374.4 372,387.6 383.4,395.8 Z" id="Path" fill="#F4B68A" fill-rule="nonzero"></path>
        </g>
    </g>
</svg>