<?xml version="1.0" encoding="UTF-8"?>
<svg width="812px" height="632px" viewBox="0 0 812 632" version="1.1" xmlns="http://www.w3.org/2000/svg" xmlns:xlink="http://www.w3.org/1999/xlink">
    <!-- Generator: Sketch 60.1 (88133) - https://sketch.com -->
    <title>illustrations/scoring</title>
    <desc>Created with Sketch.</desc>
    <defs>
        <linearGradient x1="-3429.63735%" y1="50.1615594%" x2="393.642681%" y2="50.1615594%" id="linearGradient-1">
            <stop stop-color="#00AFBA" offset="0%"></stop>
            <stop stop-color="#6E68C6" offset="100%"></stop>
        </linearGradient>
        <linearGradient x1="-0.121236467%" y1="48.2257456%" x2="99.2676606%" y2="51.239448%" id="linearGradient-2">
            <stop stop-color="#00AFBA" offset="0%"></stop>
            <stop stop-color="#6E68C6" offset="100%"></stop>
        </linearGradient>
        <linearGradient x1="-997.394413%" y1="49.9619279%" x2="235.091034%" y2="49.9619279%" id="linearGradient-3">
            <stop stop-color="#00AFBA" offset="0%"></stop>
            <stop stop-color="#6E68C6" offset="100%"></stop>
        </linearGradient>
        <linearGradient x1="-1144.89936%" y1="49.8895576%" x2="140.909091%" y2="49.8895576%" id="linearGradient-4">
            <stop stop-color="#00AFBA" offset="0%"></stop>
            <stop stop-color="#6E68C6" offset="100%"></stop>
        </linearGradient>
        <linearGradient x1="-37.9842337%" y1="49.9988838%" x2="1463.22149%" y2="49.9988838%" id="linearGradient-5">
            <stop stop-color="#00AFBA" offset="0%"></stop>
            <stop stop-color="#6E68C6" offset="100%"></stop>
        </linearGradient>
        <linearGradient x1="-0.276014006%" y1="49.9933511%" x2="100.302364%" y2="49.9933511%" id="linearGradient-6">
            <stop stop-color="#00AFBA" offset="0%"></stop>
            <stop stop-color="#6E68C6" offset="100%"></stop>
        </linearGradient>
        <linearGradient x1="-0.0750556793%" y1="49.9647059%" x2="99.8603563%" y2="49.9647059%" id="linearGradient-7">
            <stop stop-color="#00AFBA" offset="0%"></stop>
            <stop stop-color="#6E68C6" offset="100%"></stop>
        </linearGradient>
        <linearGradient x1="-0.469072636%" y1="49.9825182%" x2="100.44381%" y2="49.9825182%" id="linearGradient-8">
            <stop stop-color="#00AFBA" offset="0%"></stop>
            <stop stop-color="#6E68C6" offset="100%"></stop>
        </linearGradient>
        <linearGradient x1="-0.195638629%" y1="50.0986376%" x2="99.7959502%" y2="50.0986376%" id="linearGradient-9">
            <stop stop-color="#00AFBA" offset="0%"></stop>
            <stop stop-color="#6E68C6" offset="100%"></stop>
        </linearGradient>
        <linearGradient x1="-0.351214286%" y1="49.9837948%" x2="100.34325%" y2="49.9837948%" id="linearGradient-10">
            <stop stop-color="#00AFBA" offset="0%"></stop>
            <stop stop-color="#6E68C6" offset="100%"></stop>
        </linearGradient>
        <linearGradient x1="0.096049896%" y1="49.9976744%" x2="100.287526%" y2="49.9976744%" id="linearGradient-11">
            <stop stop-color="#00AFBA" offset="0%"></stop>
            <stop stop-color="#6E68C6" offset="100%"></stop>
        </linearGradient>
        <linearGradient x1="-8.72295598%" y1="43.5451898%" x2="108.768114%" y2="56.4272122%" id="linearGradient-12">
            <stop stop-color="#00AFBA" offset="0%"></stop>
            <stop stop-color="#6E68C6" offset="100%"></stop>
        </linearGradient>
        <linearGradient x1="-0.504986667%" y1="48.4153357%" x2="98.8805563%" y2="50.630403%" id="linearGradient-13">
            <stop stop-color="#00AFBA" offset="0%"></stop>
            <stop stop-color="#6E68C6" offset="100%"></stop>
        </linearGradient>
    </defs>
    <g id="illustrations/scoring" stroke="none" stroke-width="1" fill="none" fill-rule="evenodd">
        <g id="3" fill-rule="nonzero">
            <path d="M738.7,428 C735,425.4 734.8,419.2 738.3,414.1 C741.8,409 747.7,406.9 751.4,409.5 C755.1,412.1 755.3,418.3 751.8,423.4 C748.3,428.5 742.4,430.6 738.7,428 Z" id="Path" fill="url(#linearGradient-1)" opacity="0.28"></path>
            <path d="M6,333.8 C-1.5,292.8 -17.6,138 131.4,125.4 C443,99.1 637.5,-55.8 785.6,119.1 C913.5,270.3 541.4,639.1 305,602 C68.6,564.9 26,443.4 6,333.8 Z" id="Path" fill="url(#linearGradient-2)" opacity="0.28"></path>
            <path d="M692.3,514.9 C692.3,514.9 721.7,522.5 731.2,486 C740.7,449.5 735,431.1 716.9,449 C698.9,466.9 656.4,496.7 692.3,514.9 Z" id="Path" fill="url(#linearGradient-3)" opacity="0.28"></path>
            <path d="M786.7,66.5 C786.7,66.5 790.1,46.5 763.2,44.9 C736.3,43.3 723.5,49.2 737.6,58.7 C751.8,68.1 776.2,91.9 786.7,66.5 Z" id="Path" fill="url(#linearGradient-4)" opacity="0.28"></path>
            <path d="M112.8,585.8 C113.6,592.6 107,598 100.3,596.2 C89.1,593 72.8,585.5 67.2,567.8 C58.4,539.8 91.5,545.9 100.7,568.1 C107.4,584.2 112.2,580 112.8,585.8 Z" id="Path" fill="url(#linearGradient-5)" opacity="0.28"></path>
            <g id="Group" transform="translate(98.000000, 44.000000)">
                <path d="M335.4,0.5 L7.3,0.5 C3.3,0.5 0,3.8 0,7.8 L0,143.6 C0,147.6 3.3,150.9 7.3,150.9 L335.4,150.9 C339.4,150.9 342.7,147.6 342.7,143.6 L342.7,7.8 C342.7,3.8 339.5,0.5 335.4,0.5 Z" id="Path" stroke="url(#linearGradient-6)" stroke-width="2" fill="#FFFFFF"></path>
                <rect id="Rectangle" fill="#9292D3" x="191.5" y="96.5" width="109.5" height="4.2"></rect>
                <rect id="Rectangle" fill="#9292D3" x="191.5" y="112.7" width="109.5" height="4.2"></rect>
                <rect id="Rectangle" fill="#9292D3" x="191.5" y="127.7" width="69.8" height="4.2"></rect>
                <g transform="translate(36.000000, 17.000000)">
                    <ellipse id="Oval" fill="#FFFFFF" cx="61.1" cy="61" rx="61" ry="60.8"></ellipse>
                    <ellipse id="Oval" fill="#0A64AB" opacity="0.2" cx="61.1" cy="61" rx="61" ry="60.8"></ellipse>
                    <path d="M91.3,110.6 C83.5,107.2 76.9,104.3 71.5,101.1 C71.5,101.1 68.4,104.7 61.3,105.2 C54.2,105.6 47.5,101.3 45.1,102.3 C40.4,104.2 30.1,106.2 23,108.6 C33.4,116.9 46.7,121.9 61.1,121.9 C72.8,121.9 83.7,118.6 93,112.9 C92.6,111.6 92,110.8 91.3,110.6 Z" id="Path" fill="#B66463"></path>
                    <g transform="translate(33.000000, 18.000000)">
                        <path d="M14.5,83.2 C12.2,88.3 44.4,93.4 40.9,82.6 C40.9,82.6 38.2,72.5 40.5,68.5 C46.9,57.4 40.6,53.3 40.6,53.3 C40.6,53.3 11.5,39.6 15.1,53.3 C18.8,67 18.1,75.4 14.5,83.2 Z" id="Path" fill="#E19A74"></path>
                        <path d="M40.7,81.8 C40.7,81.8 33.5,89.4 15.2,81.6 L12.1,84.2 C12.1,84.2 31.6,96.6 42,85 L40.7,81.8 Z" id="Path" fill="#A14C4C"></path>
                        <path d="M31,10.3 L31,10.3 C50,10.3 52.7,23.8 54.7,38.6 C58.3,65.5 45.1,74 38,74 C33.7,74 18.1,70 15,64.2 C11.8,58.3 8.8,50.4 8.6,41.4 C8.1,26.6 12,10.3 31,10.3 Z" id="Path" fill="#F4B68A"></path>
                        <path d="M42,47.4 C43.3,52.1 45,53.7 44.3,54.9 C43.5,56.3 40.4,55.7 40.4,55.7" id="Path" fill="#E19A74"></path>
                        <path d="M46,60.2 C46,60.2 38.7,61.3 33.6,60.2 C33.6,60.2 35.1,64.6 39.9,64.6 C44.7,64.6 46,60.2 46,60.2 Z" id="Path" fill="#EFE9DF"></path>
                        <path d="M41.1,30.4 C38.5,29.7 26.1,26.7 24.4,24.9 C24.3,25.2 24.3,25.6 24.2,25.9 C23.7,28.2 22.6,30.3 21.8,32.4 C21.3,33.7 21,35.3 20.4,36.6 C19.5,38.6 18.8,37.7 18.4,36.4 C18.2,37 18.1,37.6 18.1,38.3 C18.1,38.9 18.5,43 18.2,45.3 C18,46.4 17.7,47.2 17.1,47 C17.1,46.8 17,46.2 16.9,45.5 C16.7,44.5 16.5,43.2 16,42.3 C15.3,41 14.5,40 13.1,40 C13,40 13,40 12.9,40 C12.9,40 12.8,40 12.8,40 C10.4,40 8.7,42.6 9.6,45.2 C10.5,47.8 11.8,50.4 13.8,51 C15.4,51.5 13,57.7 13,57.7 C13,57.7 1.2,51.6 0.5,33.8 C0.4,30.8 0.1,26.3 0.6,23.4 C0.4,24.1 1.4,31.7 1.4,31.7 C-0.8,31.2 0.8,21.4 1.1,19.9 C1.8,16.3 3.3,12.1 5.7,9.2 C8,6.3 9.9,4.6 13.3,3.6 C14.2,3.4 16.1,3.7 17.7,4.1 C27.1,-8.6 56.4,12.5 55.6,17.1 C55.4,18.2 40.3,5.6 39.1,5.3 C46.2,8.9 50.3,8.8 55.1,15.4 C56.3,17.1 57.7,20.5 57.9,24 C58.3,29.4 57.9,31.6 54.4,32.8 C51.1,33.9 44,31.2 41.1,30.4 Z" id="Path" fill="#B27D4F"></path>
                        <g transform="translate(9.000000, 40.000000)" id="Path">
                            <path d="M7,2.4 C6.3,1.1 5.2,0.1 3.8,0.1 C1.4,0.1 -0.3,2.7 0.6,5.3 C1.5,8 3.3,10.7 5.3,10.5 C5.9,10.4 6.5,10 6.9,9.3" fill="#F4B68A"></path>
                            <path d="M4,6.7 C4.2,6.9 4.6,7.1 4.8,6.9 C5.2,6.7 4.9,6.5 4.9,6.2 C4.9,5.9 5.1,5.7 5.2,5.5 C5.3,5.2 5.3,5 5.2,4.6 C4.9,3.4 4.1,1.9 2.7,1.8 L2.7,1.8 C3.3,1.4 4.2,1.7 4.7,2.1 C5.2,2.5 5.3,3.3 5.6,3.8 C5.9,4.3 6.7,5.1 6.1,5.5 C5.9,5.7 5.5,5.6 5.4,6 C5.3,6.5 5.8,6.5 6,6.8 C6.1,7 6,7.3 5.7,7.4 C5.5,7.5 5.4,7.3 5.3,7.3 C5.2,7.3 5.1,7.4 5,7.5 C4.7,7.6 4.7,7.9 4.3,7.6 C4.1,7.4 4.1,6.9 4,6.7" fill="#E19A74"></path>
                        </g>
                        <path d="M27.2,44.2 C27.2,44.2 31.4,39.8 34.3,44.2 C34.2,44.2 30.9,42.1 27.2,44.2 Z" id="Path" fill="#6C3506"></path>
                        <path d="M52.7,45.2 C52.7,45.2 48.5,40.8 45.6,45.2 C45.6,45.2 48.9,43 52.7,45.2 Z" id="Path" fill="#6C3506"></path>
                        <path d="M34.9,41.3 C34.9,41.3 33.3,40.4 31.7,40.1 C30.3,39.8 29.2,39.1 27.1,39.5 C25,39.9 23.4,41.6 23.3,41.9 C23.1,42.2 23.8,40.4 24.7,39.7 C25.6,39 27,38.3 29.1,38.3 C31.2,38.3 33.8,39 34.4,39.5 C35,40 36.5,40.7 34.9,41.3 Z" id="Path" fill="#6C3506"></path>
                        <path d="M45.1,42.2 C45.1,42.2 46.5,41.3 47.9,41 C49.1,40.7 50.5,40.1 52.3,40.6 C54.2,41 55.2,42.6 55.3,42.8 C55.5,43.1 54.8,41.3 54.1,40.6 C53.3,39.9 52,39.2 50.2,39.2 C48.4,39.3 46,39.9 45.5,40.4 C45.1,40.9 43.8,41.6 45.1,42.2 Z" id="Path" fill="#6C3506"></path>
                        <ellipse id="Oval" fill="#6C3506" cx="30.9" cy="44.5" rx="1.7" ry="2.3"></ellipse>
                        <ellipse id="Oval" fill="#6C3506" cx="48.5" cy="45.5" rx="1.7" ry="2.2"></ellipse>
                    </g>
                </g>
                <path d="M233.9,57.8 C235.8,60.3 236.8,63.4 236.8,67.3 C236.8,72.3 235.1,76.1 231.7,78.7 C228.3,81.4 223.3,82.7 216.6,82.7 L191.9,82.7 L191.9,24.9 L215,24.9 C221,24.9 225.6,26.2 228.9,28.8 C232.2,31.4 233.8,35 233.8,39.8 C233.8,43 233.1,45.7 231.6,47.9 C230.1,50.1 228.1,51.8 225.6,52.9 C229.2,53.7 231.9,55.3 233.9,57.8 Z M197.5,29.9 L197.5,50.9 L214.6,50.9 C218.9,50.9 222.3,50 224.6,48.2 C227,46.4 228.1,43.8 228.1,40.4 C228.1,37 226.9,34.4 224.6,32.6 C222.2,30.8 218.9,29.9 214.6,29.9 L197.5,29.9 Z M227.4,75 C229.9,73.2 231.1,70.5 231.1,66.7 C231.1,59.5 226.2,55.9 216.5,55.9 L197.6,55.9 L197.6,77.6 L216.5,77.6 C221.3,77.6 224.9,76.8 227.4,75 Z" id="Shape" fill="url(#linearGradient-7)"></path>
            </g>
            <g id="Group" transform="translate(165.000000, 421.000000)">
                <g>
                    <path d="M212.3,0.6 L8,0.6 C4,0.6 0.7,3.9 0.7,7.9 L0.7,89.4 C0.7,93.4 4,96.7 8,96.7 L212.3,96.7 C216.3,96.7 219.6,93.4 219.6,89.4 L219.6,7.9 C219.6,3.9 216.3,0.6 212.3,0.6 Z" id="Path" stroke="url(#linearGradient-8)" stroke-width="2" fill="#FFFFFF"></path>
                    <rect id="Rectangle" fill="#9292D3" x="123" y="61.9" width="69.9" height="2.7"></rect>
                    <rect id="Rectangle" fill="#9292D3" x="123" y="72.3" width="69.9" height="2.7"></rect>
                    <rect id="Rectangle" fill="#9292D3" x="123" y="81.8" width="44.6" height="2.7"></rect>
                    <g transform="translate(23.000000, 11.000000)">
                        <ellipse id="Oval" fill="#FFFFFF" cx="39.7" cy="39.1" rx="39" ry="38.8"></ellipse>
                        <ellipse id="Oval" fill="#0A64AB" opacity="0.1" cx="39.7" cy="39.1" rx="39" ry="38.8"></ellipse>
                        <path d="M59,70.8 C54,68.6 49.8,66.8 46.3,64.7 C46.3,64.7 44.3,67 39.8,67.3 C35.3,67.6 31,64.8 29.4,65.4 C26.4,66.6 19.8,67.9 15.3,69.4 C22,74.7 30.4,77.9 39.6,77.9 C47.1,77.9 54.1,75.8 60,72.2 C59.8,71.4 59.4,70.9 59,70.8 Z" id="Path" fill="#F3D7C6"></path>
                        <g transform="translate(21.000000, 12.000000)">
                            <path d="M10,52.8 C8.5,56.1 29.1,59.3 26.9,52.4 C26.9,52.4 25.2,46 26.6,43.4 C30.7,36.3 26.7,33.7 26.7,33.7 C26.7,33.7 8.1,24.9 10.4,33.7 C12.7,42.5 12.3,47.8 10,52.8 Z" id="Path" fill="#E19A74"></path>
                            <path d="M26.7,51.9 C26.7,51.9 22.1,56.7 10.4,51.8 L8.4,53.4 C8.4,53.4 20.8,61.3 27.5,53.9 L26.7,51.9 Z" id="Path" fill="#E6C8B8"></path>
                            <path d="M20.5,6.2 L20.5,6.2 C32.6,6.2 34.3,14.8 35.6,24.3 C37.9,41.5 29.5,46.9 24.9,46.9 C22.1,46.9 12.2,44.4 10.2,40.7 C8.2,36.9 6.3,31.9 6.1,26.2 C5.9,16.6 8.4,6.2 20.5,6.2 Z" id="Path" fill="#F4B68A"></path>
                            <path d="M27.6,29.9 C28.4,32.9 29.5,33.9 29.1,34.7 C28.6,35.6 26.6,35.2 26.6,35.2" id="Path" fill="#E19A74"></path>
                            <path d="M30.1,38.1 C30.1,38.1 25.5,38.8 22.2,38.1 C22.2,38.1 23.2,40.9 26.2,40.9 C29.3,40.9 30.1,38.1 30.1,38.1 Z" id="Path" fill="#EFE9DF"></path>
                            <path d="M26.9,19.1 C25.2,18.6 17.3,16.8 16.2,15.6 C16.2,15.8 16.1,16 16.1,16.2 C15.8,17.7 15.1,19 14.6,20.4 C14.3,21.2 14.1,22.2 13.7,23.1 C13.1,24.4 12.7,23.8 12.4,23 C12.3,23.4 12.2,23.8 12.2,24.2 C12.2,24.6 12.5,27.2 12.2,28.7 C12.1,29.4 11.9,29.9 11.5,29.8 C11.5,29.7 11.5,29.3 11.4,28.9 C11.3,28.3 11.1,27.5 10.8,26.9 C10.4,26 9.8,25.4 8.9,25.4 C8.9,25.4 8.8,25.4 8.8,25.4 C8.8,25.4 8.7,25.4 8.7,25.4 C7.2,25.4 6.1,27.1 6.7,28.7 C7.3,30.4 8.1,32 9.4,32.4 C10.4,32.7 8.9,36.7 8.9,36.7 C8.9,36.7 1.4,32.8 0.9,21.4 C0.8,19.5 0.6,16.6 1,14.8 C0.9,15.2 1.5,20.1 1.5,20.1 C0.1,19.8 1.1,13.5 1.3,12.6 C1.8,10.3 2.7,7.6 4.2,5.8 C5.7,4 6.9,2.8 9,2.3 C9.6,2.1 10.8,2.4 11.8,2.6 C17.8,-5.5 36.5,8 36,10.9 C35.9,11.6 26.2,3.6 25.4,3.4 C30,5.7 32.6,5.6 35.6,9.8 C36.4,10.9 37.3,13 37.4,15.3 C37.7,18.8 37.4,20.2 35.2,20.9 C33.3,21.3 28.8,19.6 26.9,19.1 Z" id="Path" fill="#B27D4F"></path>
                            <g transform="translate(6.000000, 25.000000)" id="Path">
                                <path d="M4.9,1.7 C4.5,0.8 3.7,0.2 2.8,0.2 C1.3,0.2 0.2,1.9 0.8,3.5 C1.4,5.2 2.5,7 3.8,6.8 C4.2,6.8 4.6,6.5 4.8,6.1" fill="#F4B68A"></path>
                                <path d="M3,4.5 C3.1,4.6 3.4,4.7 3.5,4.6 C3.7,4.5 3.6,4.3 3.6,4.1 C3.6,3.9 3.7,3.8 3.8,3.6 C3.9,3.4 3.9,3.3 3.8,3 C3.6,2.2 3.1,1.3 2.2,1.2 L2.2,1.2 C2.6,0.9 3.2,1.1 3.5,1.4 C3.8,1.7 3.9,2.2 4.1,2.5 C4.3,2.8 4.8,3.3 4.4,3.6 C4.3,3.7 4,3.7 4,3.9 C4,4.2 4.3,4.2 4.4,4.4 C4.5,4.5 4.4,4.7 4.2,4.8 C4.1,4.8 4,4.7 3.9,4.7 C3.8,4.7 3.8,4.8 3.7,4.8 C3.5,4.9 3.5,5 3.3,4.9 C3.1,4.9 3.1,4.6 3,4.5" fill="#E19A74"></path>
                            </g>
                            <path d="M18.1,27.9 C18.1,27.9 20.8,25.1 22.6,27.9 C22.6,27.9 20.5,26.5 18.1,27.9 Z" id="Path" fill="#6C3506"></path>
                            <path d="M34.4,28.5 C34.4,28.5 31.7,25.7 29.9,28.5 C29.9,28.5 32,27.1 34.4,28.5 Z" id="Path" fill="#6C3506"></path>
                            <path d="M23,26 C23,26 22,25.4 21,25.2 C20.1,25 19.4,24.5 18.1,24.8 C16.8,25.1 15.8,26.2 15.7,26.3 C15.6,26.5 16,25.3 16.6,24.9 C17.1,24.5 18.1,24 19.4,24 C20.7,24.1 22.4,24.4 22.8,24.8 C23.1,25.2 24,25.6 23,26 Z" id="Path" fill="#6C3506"></path>
                            <path d="M29.5,26.6 C29.5,26.6 30.4,26 31.3,25.8 C32.1,25.6 32.9,25.2 34.1,25.5 C35.3,25.8 35.9,26.8 36,26.9 C36.1,27.1 35.7,25.9 35.2,25.5 C34.7,25.1 33.9,24.6 32.7,24.6 C31.5,24.7 30,25 29.7,25.4 C29.5,25.8 28.7,26.2 29.5,26.6 Z" id="Path" fill="#6C3506"></path>
                            <ellipse id="Oval" fill="#6C3506" cx="20.5" cy="28.1" rx="1.1" ry="1.4"></ellipse>
                            <ellipse id="Oval" fill="#6C3506" cx="31.7" cy="28.7" rx="1.1" ry="1.4"></ellipse>
                        </g>
                    </g>
                </g>
                <g transform="translate(23.000000, 11.000000)">
                    <ellipse id="Oval" fill="#FFFFFF" cx="39.7" cy="39.1" rx="39" ry="38.8"></ellipse>
                    <ellipse id="Oval" fill="#0A64AB" opacity="0.2" cx="39.7" cy="39.1" rx="39" ry="38.8"></ellipse>
                    <g transform="translate(22.000000, 10.000000)">
                        <path d="M26.6,48.2 L18.4,56.6 L8.3,48.2 C8.3,48.2 12.4,43.5 10.2,32.9 C8.8,26.2 25.3,22.9 24.9,32.9 C24.3,47.2 26.6,48.2 26.6,48.2 Z" id="Path" fill="#E19A74"></path>
                        <path d="M17.5,5.4 L17.5,5.4 C5.5,5.4 2.2,15.3 3.3,24.3 C3.6,26.8 4.2,29 4.9,30.9 C5.8,33.7 7,36.5 8.3,38.3 C11.1,42.3 13.6,44 17.5,44 C21.4,44 23.9,42.3 26.7,38.3 C27.9,36.5 29.1,33.9 30,31.2 C30.8,29.2 31.4,26.9 31.7,24.3 C32.8,15.3 29.5,5.4 17.5,5.4 Z" id="Path" fill="#F4B68A"></path>
                        <g transform="translate(1.000000, 23.000000)" id="Path">
                            <path d="M28.8,2.1 C29.2,1.1 29.9,0.5 30.8,0.5 C32.2,0.5 33.3,2.4 32.7,4.2 C32.1,6.1 31.1,8.1 29.9,7.9 C29.5,7.8 29.2,7.5 28.9,7.1" fill="#F4B68A"></path>
                            <path d="M30.6,5.2 C30.5,5.3 30.3,5.5 30.1,5.4 C29.9,5.3 30,5.1 30,4.9 C30,4.7 29.9,4.6 29.8,4.4 C29.7,4.2 29.7,4 29.8,3.8 C30,2.9 30.5,1.9 31.3,1.8 L31.3,1.8 C30.9,1.5 30.4,1.7 30.1,2 C29.8,2.3 29.8,2.8 29.5,3.2 C29.3,3.5 28.9,4.1 29.2,4.5 C29.3,4.6 29.6,4.6 29.6,4.9 C29.6,5.2 29.3,5.2 29.3,5.5 C29.2,5.7 29.3,5.8 29.5,5.9 C29.6,5.9 29.7,5.8 29.8,5.8 C29.9,5.8 29.9,5.9 30,5.9 C30.2,6 30.2,6.2 30.4,6 C30.5,5.7 30.5,5.4 30.6,5.2" fill="#E19A74"></path>
                            <path d="M4.3,2.1 C3.9,1.1 3.2,0.5 2.3,0.5 C0.9,0.5 -0.2,2.4 0.4,4.2 C0.9,6.1 2,8.1 3.2,7.9 C3.6,7.8 3.9,7.5 4.2,7.1" fill="#F4B68A"></path>
                            <path d="M2.5,5.2 C2.6,5.3 2.8,5.5 3,5.4 C3.2,5.3 3.1,5.1 3.1,4.9 C3.1,4.7 3.2,4.6 3.3,4.4 C3.4,4.2 3.4,4 3.3,3.8 C3.1,2.9 2.6,1.9 1.8,1.8 L1.8,1.8 C2.2,1.5 2.7,1.7 3,2 C3.3,2.3 3.3,2.8 3.6,3.2 C3.8,3.5 4.2,4.1 3.9,4.5 C3.8,4.6 3.5,4.6 3.5,4.9 C3.5,5.2 3.8,5.2 3.8,5.5 C3.9,5.7 3.8,5.8 3.6,5.9 C3.5,5.9 3.4,5.8 3.3,5.8 C3.2,5.8 3.2,5.9 3.1,5.9 C2.9,6 2.9,6.2 2.7,6 C2.5,5.7 2.5,5.4 2.5,5.2" fill="#E19A74"></path>
                        </g>
                        <path d="M17.8,27.9 C17,30.7 16,31.7 16.4,32.4 C16.9,33.2 18.8,32.9 18.8,32.9" id="Path" fill="#E19A74"></path>
                        <path d="M13.8,35.6 C13.8,35.6 18.2,36.3 21.3,35.6 C21.3,35.6 20.4,38.3 17.5,38.3 C14.5,38.3 13.8,35.6 13.8,35.6 Z" id="Path" fill="#EFE9DF"></path>
                        <path d="M31.7,23.5 C32.3,23.5 32.8,23.9 33.1,24.3 C33.1,24.3 34.9,16.1 34.1,11.9 C33.1,6.2 28.3,3 24.1,3 C17.9,-2.8 0.5,2.3 0.6,17.4 C0.6,18.7 1.5,24.3 1.6,24.6 C2,24 2.6,23.5 3.3,23.5 C4.2,23.4 4.9,24.1 5.3,24.9 C5.8,25.7 5.8,27.4 5.8,27.7 C7.3,28.3 6.9,22 7.1,20.7 C7.3,19.5 21.4,15.8 22.5,10.3 C22.8,17.7 28.8,19.8 28.7,22.4 C28.7,22.9 28.2,28.1 29.3,27.7 C29.3,27.4 29.3,25.8 29.7,24.9 C30.2,24 30.8,23.4 31.7,23.5 Z" id="Path" fill="#B27D4F"></path>
                        <polygon id="Path" fill="#D9D2DA" points="8.3 48.2 18.4 55.8 26.6 48.2 29 49.5 18.3 58.5 6.5 49.6"></polygon>
                        <path d="M10,24.8 C10,24.8 12.6,22.1 14.3,24.8 C14.3,24.8 12.3,23.5 10,24.8 Z" id="Path" fill="#6C3506"></path>
                        <path d="M25.5,25.4 C25.5,25.4 22.9,22.8 21.2,25.4 C21.2,25.4 23.2,24.1 25.5,25.4 Z" id="Path" fill="#6C3506"></path>
                        <path d="M14.7,23 C14.7,23 13.8,22.5 12.8,22.3 C12,22.1 11.3,21.7 10,21.9 C8.7,22.2 7.8,23.2 7.7,23.3 C7.6,23.4 8,22.4 8.5,22 C9,21.6 9.9,21.1 11.2,21.2 C12.5,21.3 14.1,21.6 14.4,21.9 C14.7,22.2 15.7,22.7 14.7,23 Z" id="Path" fill="#6C3506"></path>
                        <path d="M20.9,23.6 C20.9,23.6 21.7,23.1 22.6,22.9 C23.3,22.7 24.1,22.4 25.3,22.6 C26.4,22.9 27.1,23.8 27.1,23.9 C27.2,24.1 26.8,23 26.4,22.6 C26,22.2 25.1,21.7 24,21.8 C22.9,21.9 21.5,22.2 21.1,22.5 C20.9,22.8 20.1,23.2 20.9,23.6 Z" id="Path" fill="#6C3506"></path>
                        <ellipse id="Oval" fill="#6C3506" cx="12.3" cy="25" rx="1" ry="1.4"></ellipse>
                        <ellipse id="Oval" fill="#6C3506" cx="22.9" cy="25.6" rx="1" ry="1.3"></ellipse>
                        <path d="M29.3,27.5 C29,24.4 29.2,22.2 28.6,25.1 C28.6,25.1 29.5,34 17.5,34 C5.5,34 6.8,25 6.8,25 C6.1,22 6,24.4 5.7,27.5 C5.4,30.6 5.8,33.4 5.8,33.4 C8.9,43.4 14.9,43.9 17.5,43.9 C20.1,43.9 26,43.9 29.2,33.4 C29.2,33.4 29.6,30.6 29.3,27.5 Z M17.5,39.9 C14.2,39.9 12.9,37.1 12.9,35.5 C12.9,33.9 15.5,35.1 17.5,35.1 C19.5,35.1 22.1,33.9 22.1,35.5 C22.1,37.1 20.8,39.9 17.5,39.9 Z" id="Shape" fill="#B27D4F"></path>
                    </g>
                    <path d="M64.4,64 C59.7,61.6 54.2,61.7 50.9,59.5 L40.2,67 L28.4,59.6 C25.1,61.8 17.6,61.6 12.9,64 C12.3,64.3 12,65.1 11.8,66.3 C18.9,73.5 28.7,77.9 39.6,77.9 C49.6,77.9 58.8,74.1 65.7,67.9 C65.6,65.8 65.3,64.4 64.4,64 Z" id="Path" fill="#EFEFEF"></path>
                    <path d="M66.3,63.5 C62.6,61.9 57.2,61.5 52.6,60 C51.2,59.5 50.2,58.2 48.6,58.1 C48.6,58.1 51,60 51.2,63.1 C51.3,64.3 51.5,69.1 51.8,75.9 C57.8,73.9 63.2,70.5 67.6,66.1 C67.4,64.8 67,63.9 66.3,63.5 Z" id="Path" fill="#1F2C3C"></path>
                    <path d="M12.5,63.5 C11.9,63.8 11.5,64.5 11.3,65.7 C15.6,70.2 21,73.7 27,75.8 C27.3,69 27.5,64.3 27.6,63.1 C27.8,60.1 30.2,58.1 30.2,58.1 C28.6,58.2 27.6,59.5 26.2,60 C21.6,61.6 16.3,61.9 12.5,63.5 Z" id="Path" fill="#1F2C3C"></path>
                </g>
                <path d="M132.3,50.6 C129.4,49 127.2,46.8 125.6,44 C124,41.2 123.2,38.1 123.2,34.6 C123.2,31.1 124,28 125.6,25.2 C127.2,22.4 129.5,20.2 132.4,18.6 C135.3,17 138.5,16.2 142.1,16.2 C144.8,16.2 147.3,16.6 149.5,17.5 C151.8,18.4 153.7,19.7 155.3,21.4 L152.9,23.8 C150.1,20.9 146.5,19.5 142.2,19.5 C139.3,19.5 136.8,20.2 134.4,21.5 C132.1,22.8 130.2,24.6 128.9,26.9 C127.6,29.2 126.9,31.7 126.9,34.5 C126.9,37.3 127.6,39.9 128.9,42.1 C130.2,44.4 132.1,46.2 134.4,47.5 C136.7,48.8 139.3,49.5 142.2,49.5 C146.5,49.5 150.1,48.1 152.9,45.2 L155.3,47.6 C153.7,49.3 151.8,50.6 149.5,51.5 C147.2,52.4 144.7,52.9 142.1,52.9 C138.4,52.9 135.2,52.1 132.3,50.6 Z" id="Path" fill="url(#linearGradient-9)"></path>
            </g>
            <g id="Group" transform="translate(35.000000, 250.000000)">
                <g>
                    <path d="M273.2,0.5 L7.8,0.5 C3.8,0.5 0.5,3.8 0.5,7.8 L0.5,116 C0.5,120 3.8,123.3 7.8,123.3 L273.2,123.3 C277.2,123.3 280.5,120 280.5,116 L280.5,7.8 C280.5,3.7 277.2,0.5 273.2,0.5 Z" id="Path" stroke="url(#linearGradient-10)" stroke-width="2" fill="#FFFFFF"></path>
                    <rect id="Rectangle" fill="#9292D3" x="156.9" y="78.9" width="89.4" height="3.5"></rect>
                    <rect id="Rectangle" fill="#9292D3" x="156.9" y="92.1" width="89.4" height="3.5"></rect>
                    <rect id="Rectangle" fill="#9292D3" x="156.9" y="104.3" width="57" height="3.5"></rect>
                    <g transform="translate(29.000000, 14.000000)">
                        <ellipse id="Oval" fill="#FFFFFF" cx="50.8" cy="49.7" rx="49.9" ry="49.6"></ellipse>
                        <ellipse id="Oval" fill="#0A64AB" opacity="0.1" cx="50.8" cy="49.7" rx="49.9" ry="49.6"></ellipse>
                        <path d="M75.5,90.3 C69.1,87.5 63.7,85.1 59.3,82.5 C59.3,82.5 56.8,85.5 51,85.8 C45.2,86.1 39.7,82.6 37.8,83.4 C34,85 25.5,86.6 19.8,88.5 C28.3,95.3 39.1,99.3 50.9,99.3 C60.5,99.3 69.4,96.6 77,92 C76.5,91.1 76,90.5 75.5,90.3 Z" id="Path" fill="#F3D7C6"></path>
                        <g transform="translate(28.000000, 14.000000)">
                            <path d="M11.7,68.6 C9.8,72.8 36.1,76.9 33.3,68.1 C33.3,68.1 31.1,59.9 33,56.5 C38.2,47.4 33.1,44.1 33.1,44.1 C33.1,44.1 9.3,32.9 12.3,44.1 C15.2,55.4 14.6,62.2 11.7,68.6 Z" id="Path" fill="#E19A74"></path>
                            <path d="M33.1,67.5 C33.1,67.5 27.2,73.7 12.3,67.4 L9.8,69.5 C9.8,69.5 25.7,79.6 34.2,70.2 L33.1,67.5 Z" id="Path" fill="#E6C8B8"></path>
                            <path d="M25.2,9.1 L25.2,9.1 C40.7,9.1 42.9,20.1 44.6,32.2 C47.6,54.1 36.7,61.1 30.9,61.1 C27.4,61.1 14.7,57.9 12.1,53.1 C9.5,48.3 7.1,41.8 6.8,34.5 C6.4,22.3 9.7,9.1 25.2,9.1 Z" id="Path" fill="#F4B68A"></path>
                            <path d="M34.2,39.3 C35.2,43.1 36.7,44.4 36.1,45.4 C35.4,46.5 32.9,46 32.9,46" id="Path" fill="#E19A74"></path>
                            <path d="M37.4,49.8 C37.4,49.8 31.5,50.7 27.3,49.8 C27.3,49.8 28.6,53.4 32.5,53.4 C36.4,53.4 37.4,49.8 37.4,49.8 Z" id="Path" fill="#EFE9DF"></path>
                            <path d="M33.4,25.5 C31.3,24.9 21.2,22.5 19.7,21 C19.7,21.3 19.6,21.5 19.6,21.8 C19.2,23.7 18.3,25.4 17.6,27.1 C17.2,28.2 17,29.4 16.5,30.5 C15.7,32.1 15.2,31.4 14.9,30.3 C14.7,30.8 14.6,31.3 14.7,31.8 C14.7,32.3 15,35.6 14.8,37.5 C14.7,38.4 14.4,39.1 13.9,38.9 C13.9,38.7 13.9,38.3 13.8,37.7 C13.7,36.9 13.4,35.8 13.1,35.1 C12.5,34 11.9,33.2 10.7,33.2 C10.7,33.2 10.6,33.2 10.6,33.2 C10.6,33.2 10.5,33.2 10.5,33.2 C8.5,33.2 7.2,35.3 7.9,37.4 C8.6,39.5 9.7,41.6 11.3,42.1 C12.6,42.5 10.6,47.5 10.6,47.5 C10.6,47.5 1,42.5 0.4,28 C0.3,25.6 8.52096171e-14,21.9 0.5,19.5 C0.3,20 1.1,26.3 1.1,26.3 C-0.7,25.9 0.6,17.9 0.8,16.7 C1.4,13.7 2.6,10.4 4.6,8 C6.5,5.7 8,4.2 10.8,3.5 C11.5,3.3 13.1,3.6 14.4,3.9 C22.1,-6.4 46,10.8 45.4,14.5 C45.3,15.4 32.9,5.1 31.9,4.9 C37.7,7.9 41.1,7.8 45,13.1 C46,14.5 47.1,17.3 47.3,20.1 C47.6,24.5 47.3,26.3 44.4,27.3 C41.6,28.3 35.8,26.2 33.4,25.5 Z" id="Path" fill="#B27D4F"></path>
                            <g transform="translate(7.000000, 33.000000)" id="Path">
                                <path d="M5.9,2.2 C5.3,1.1 4.4,0.3 3.3,0.3 C1.3,0.3 0,2.4 0.7,4.5 C1.4,6.7 2.9,8.9 4.5,8.7 C5,8.6 5.5,8.3 5.8,7.7" fill="#F4B68A"></path>
                                <path d="M3.5,5.8 C3.6,6 4,6.1 4.2,6 C4.5,5.8 4.3,5.7 4.3,5.4 C4.3,5.2 4.5,5 4.6,4.8 C4.7,4.5 4.7,4.4 4.6,4.1 C4.3,3.1 3.7,1.9 2.5,1.9 L2.5,1.9 C3,1.6 3.7,1.8 4.2,2.2 C4.6,2.6 4.7,3.2 5,3.6 C5.2,4 5.9,4.6 5.4,5 C5.2,5.1 4.9,5.1 4.8,5.4 C4.7,5.8 5.1,5.8 5.3,6 C5.4,6.2 5.3,6.4 5.1,6.5 C4.9,6.5 4.9,6.4 4.7,6.4 C4.6,6.4 4.5,6.5 4.5,6.5 C4.3,6.6 4.2,6.8 4,6.6 C3.6,6.3 3.6,6 3.5,5.8" fill="#E19A74"></path>
                            </g>
                            <path d="M22,36.8 C22,36.8 25.5,33.2 27.8,36.8 C27.8,36.8 25.1,35 22,36.8 Z" id="Path" fill="#6C3506"></path>
                            <path d="M42.9,37.6 C42.9,37.6 39.4,34 37.1,37.6 C37.1,37.6 39.8,35.8 42.9,37.6 Z" id="Path" fill="#6C3506"></path>
                            <path d="M28.4,34.3 C28.4,34.3 27.1,33.6 25.8,33.3 C24.7,33.1 23.8,32.4 22,32.8 C20.2,33.2 19,34.5 18.9,34.8 C18.8,35.1 19.3,33.6 20,33 C20.7,32.4 21.9,31.8 23.6,31.9 C25.3,32 27.5,32.5 27.9,32.9 C28.4,33.3 29.6,33.9 28.4,34.3 Z" id="Path" fill="#6C3506"></path>
                            <path d="M36.7,35.1 C36.7,35.1 37.8,34.4 39,34.1 C40,33.9 41.1,33.4 42.6,33.7 C44.1,34 45,35.3 45.1,35.5 C45.2,35.7 44.7,34.3 44.1,33.7 C43.5,33.1 42.4,32.5 40.9,32.6 C39.4,32.7 37.5,33.2 37.1,33.6 C36.6,34.1 35.6,34.6 36.7,35.1 Z" id="Path" fill="#6C3506"></path>
                            <ellipse id="Oval" fill="#6C3506" cx="25.1" cy="37" rx="1.4" ry="1.8"></ellipse>
                            <ellipse id="Oval" fill="#6C3506" cx="39.4" cy="37.8" rx="1.4" ry="1.8"></ellipse>
                        </g>
                    </g>
                    <path d="M194.3,55 L167.9,55 L162.2,67.6 L157,67.6 L178.6,20.3 L183.5,20.3 L205.1,67.6 L200,67.6 L194.3,55 Z M192.5,50.9 L181.1,25.5 L169.7,50.9 L192.5,50.9 Z" id="Shape" fill="url(#linearGradient-11)"></path>
                </g>
                <g transform="translate(29.000000, 14.000000)">
                    <ellipse id="Oval" fill="#FFFFFF" cx="50.8" cy="50" rx="49.9" ry="49.6"></ellipse>
                    <ellipse id="Oval" fill="#0A64AB" opacity="0.2" cx="50.8" cy="50" rx="49.9" ry="49.6"></ellipse>
                    <path d="M18.3,85.8 C23.8,83.4 28.4,81.6 33,79.7 C33,79.7 45,88.7 53.4,89.6 C61.7,90.5 56.3,80.3 56.3,80.3 C56.3,80.3 62,84.5 64.6,85.9 C66.3,86.8 67.1,88.1 67.4,90.7 L67.4,90.7 C67.7,93 68.1,94.8 68.5,96.3 C63,98.4 57.1,99.5 50.9,99.5 C38.1,99.5 26.4,94.7 17.6,86.8 C17.7,86.3 18,86 18.3,85.8 Z" id="Path" fill="#037EA8"></path>
                    <g transform="translate(15.000000, 12.000000)">
                        <path d="M18.3,68.2 C16.9,70.5 32.2,79.7 39.1,80.8 C49.3,82.3 42.8,70.2 41.6,68.9 C38.9,65.9 36.9,57.5 39.4,54.6 C46.4,46.7 39,40.5 39,40.5 C39,40.5 18.5,28.8 20.8,41.3 C23,53.7 22.7,60.9 18.3,68.2 Z" id="Path" fill="#E19A74"></path>
                        <path d="M33.7,8 C52.7,8 52.2,18.2 52.2,28.7 C52.2,49.3 43.5,57.3 37.8,57.3 C25.8,57.3 16.7,44.1 15.9,37.5 C14.9,28.2 14.6,8 33.7,8 Z" id="Path" fill="#F4B68A"></path>
                        <path d="M38.5,37.1 C39.5,41 41,42.3 40.4,43.3 C39.8,44.5 37.1,43.9 37.1,43.9" id="Path" fill="#E19A74"></path>
                        <path d="M42,46.9 C42,46.9 37.1,47.8 33.7,46.9 C33.7,46.9 34.7,50.6 38,50.6 C41.1,50.6 42,46.9 42,46.9 Z" id="Path" fill="#EFE9DF"></path>
                        <path d="M47.4,17.6 C43.4,14.6 39.8,16.4 39.8,16.4 C39.8,16.4 33.1,13.1 29.9,17.3 C26.7,21.5 29.7,25.8 23.1,31 C16.5,36.2 16.9,39.4 17.9,41.5 C18.9,43.7 22.1,48.3 22.7,51.5 C23.3,54.7 21.9,60.5 20.7,65 C19.5,69.6 20.7,73.2 23.8,74.6 C23.8,74.6 20.7,75.2 15.3,70.7 C15.3,70.7 18,80.2 28.4,80.9 C28.4,80.9 16.5,83.8 6.8,72.4 C-2.9,61 2.1,47.8 3.1,44.3 C4.1,40.8 6.3,32.2 6.8,29.8 C7.2,27.4 8.8,18 13.6,12 C18.4,6 23.3,1 30.5,0.6 C37.8,0.2 37.1,2.5 37.1,2.5 C37.1,2.5 38.4,1.1 40.3,1.1 C42.2,1.1 46.5,1 50.2,5 C53.9,9 56.3,11.5 58.7,18.4 C61.1,25.3 60.6,31 60.2,33.6 C59.8,36.3 61,48.6 57.5,55.2 C53.9,61.8 51.7,67.2 52.9,71.4 C54.2,75.6 56.3,77.4 58.2,77.6 C58.2,77.6 50.6,78.3 48.2,73.4 C48.2,73.4 46.3,79.6 53.4,82.3 C53.4,82.3 46.3,82.7 43.2,78.4 C40.1,74.1 38.8,72.8 38.1,66.6 C37.5,61.3 38.1,57.4 38.3,57.2 C38.5,57 44,56 47.5,50 C50,45.8 50.4,43.4 51.2,39.7 C52,36 52.3,31.3 52.2,27.7 C52.2,27.8 50.6,19.9 47.4,17.6 Z" id="Path" fill="#452C2B"></path>
                        <path d="M44.3,30.3 C44.3,30.3 42.5,30.6 42.5,31.5 C42.5,32.4 43.2,32.7 44.3,32.3 C45.4,31.9 46.6,31.3 47.7,31.3 C48.8,31.4 49.6,31.7 49.9,32.1 C50.2,32.5 49.9,31.2 49.2,30.7 C48.4,30.3 46.2,29.8 44.3,30.3 Z" id="Path" fill="#452C2B"></path>
                        <path d="M31.9,30.3 C31.9,30.3 33.7,30.6 33.7,31.5 C33.7,32.4 33,32.7 31.9,32.3 C30.8,31.9 29.6,31.3 28.5,31.3 C27.4,31.3 26.6,31.7 26.3,32.1 C26,32.5 26.3,31.2 27,30.7 C27.7,30.3 30,29.8 31.9,30.3 Z" id="Path" fill="#452C2B"></path>
                        <path d="M27.1,36.3 C27.1,36.3 31,32.2 33.7,36.3 C33.7,36.3 30.6,34.3 27.1,36.3 Z" id="Path" fill="#452C2B"></path>
                        <path d="M49,36.5 C49,36.5 45.1,32.4 42.5,36.5 C42.5,36.5 45.6,34.5 49,36.5 Z" id="Path" fill="#452C2B"></path>
                        <ellipse id="Oval" fill="#452C2B" cx="45.3" cy="36.8" rx="1.6" ry="2.1"></ellipse>
                        <ellipse id="Oval" fill="#452C2B" cx="30.9" cy="36.5" rx="1.6" ry="2"></ellipse>
                    </g>
                </g>
            </g>
            <g id="Group" transform="translate(355.000000, 0.000000)">
                <path d="M90.8,348.2 C90.8,348.2 77.8,338.8 76.3,331.3 C74.8,323.7 74,317.1 59.7,307 C59.7,307 52.5,300.4 47.2,304.3 C41.9,308.1 48.6,312.7 55.2,318.2 C61.7,323.7 49.5,325.1 42.5,318.3 C35.5,311.5 28.7,302.8 27.7,295.8 C26.2,285.5 19.5,281.9 14.4,283 C11.6,283.6 12.1,301.1 18,315.8 C24,330.7 35.4,343.8 47.2,346.9 C61.4,350.5 71.1,361.3 71.4,363.5 C71.6,365.5 89.3,360.1 90.8,348.2 Z" id="Path" fill="#E7A27F"></path>
                <path d="M211.1,418 C201.2,411.2 86.1,322.5 86.1,322.5 C80.8,326.1 66.3,342.9 63.2,359.7 C69,363.8 179.3,450.8 186.6,455.4 C193.9,460 207.3,468.4 216.3,453.1 C225.3,438 221,424.8 211.1,418 Z" id="Path" fill="#020224"></path>
                <path d="M204.3,449.2 C204.3,449.2 223.5,368.2 231.1,323.7 C234.1,306.2 247.4,257.8 225.7,251.3 C201.7,244.1 184.7,252.6 180.5,271.9 C170,320.2 158.4,449.7 158.4,449.7" id="Path" fill="#020224"></path>
                <path d="M333,443.8 C291.3,479.4 224.7,559.2 170.9,567.4 L171.5,542.6 C171,541.9 170.7,541.1 170.8,540.3 L170.3,511.3 L290.4,442.6 C288.7,445.1 333.4,440.4 333,443.8 Z" id="Path" fill="#1B1B5F"></path>
                <polygon id="Path" fill="#4E270F" points="247.6 198.1 251.6 278.5 195.4 296.6 171.9 228.2 170.9 162.1"></polygon>
                <path d="M288.1,249.1 C292.7,255.9 245,284 223.3,287.3 C191.2,292.2 211.2,256.1 214.9,252.1 C223.4,242.9 229.1,218.2 221,209.8 C198.6,186.6 221.7,167.9 221.7,167.9 C221.7,167.9 285.8,132.3 279.1,169.4 C272.4,206.4 273.6,227.6 288.1,249.1 Z" id="Path" fill="#E19F7E"></path>
                <path d="M216.1,31.9 C145.3,44.1 153.6,81.4 160.3,119.9 C173.4,195.9 210.9,219.6 232,215.9 C276.8,208.2 299.9,155.9 298.4,130.9 C296.2,96.7 286.9,19.7 216.1,31.9 Z" id="Path" fill="#F4B68A"></path>
                <path d="M208.8,138.1 C205.1,152.7 199.7,157.8 202,161.5 C204.6,165.8 214.2,163.7 214.2,163.7" id="Path" fill="#E19A74"></path>
                <g transform="translate(0.000000, 263.000000)" id="Path">
                    <path d="M82.1,44.7 L64.3,67 L1.3,16.5 C0.6,15.9 1,14.3 2.2,13.3 L15.2,2.2 C17,0.7 18.9,0.2 20.1,1 L82.1,44.7 Z" fill="#0C2057"></path>
                    <path d="M74.6,42.4 L60.1,60.5 L4.4,15.8 C3.8,15.3 4.1,13.9 5.1,13.1 L15.8,4.2 C17.3,3 18.9,2.6 19.9,3.4 L74.6,42.4 Z" fill="#FFFFFF"></path>
                    <path d="M74.6,42.4 L60.1,60.5 L4.4,15.8 C3.8,15.3 4.1,13.9 5.1,13.1 L15.8,4.2 C17.3,3 18.9,2.6 19.9,3.4 L74.6,42.4 Z" fill="url(#linearGradient-12)" opacity="0.05"></path>
                </g>
                <path d="M197.2,181 C197.2,181 214.3,181.7 225.7,177 C225.7,177 223.9,189.6 212.8,191.1 C201.8,192.6 197.2,181 197.2,181 Z" id="Path" fill="#FFFFFF"></path>
                <g transform="translate(301.000000, 110.000000)" id="Path">
                    <path d="M0.8,7.4 C2.8,3.2 6.3,0.3 10.7,0.2 C18.1,0.1 23.4,8 20.8,16.2 C18.1,24.7 12.8,33.2 6.5,32.5 C4.6,32.3 2.8,31 1.5,28.9" fill="#F4B68A"></path>
                    <path d="M10.2,20.7 C9.7,21.3 8.5,21.9 7.7,21.5 C6.5,20.9 7.4,20.2 7.4,19.2 C7.4,18.3 6.7,17.7 6.4,16.9 C5.9,15.8 6.1,15.3 6.4,14.2 C7.4,10.5 9.7,5.8 14.1,5.5 L14.1,5.4 C12.2,4.2 9.4,5 7.8,6.5 C6.3,8 6.1,10.2 5,11.9 C4.1,13.4 1.8,15.9 3.6,17.3 C4.3,17.9 5.5,17.7 5.7,18.9 C5.9,20.3 4.4,20.4 4,21.3 C3.7,22 3.9,22.8 4.8,23 C5.4,23.2 5.7,22.6 6.2,22.7 C6.5,22.7 6.8,23 7.1,23.1 C7.9,23.5 8.1,24.3 9.2,23.5 C10,22.9 10.1,21.5 10.5,20.5" fill="#E19A74"></path>
                </g>
                <path d="M352.4,258.5 C333.6,250 304.9,241.8 289.1,235 C289.1,235 255.5,258.3 227.1,262.1 C198.7,266 219.3,251.9 219.3,251.9 C219.3,251.9 179.4,269 170.5,274 C164.6,277.3 146.1,304.6 146.7,339 C147.1,367 153.9,464.9 154.3,491.9 C154.7,518.9 168,522.6 244.1,521.5 C267.5,521.1 298.3,469.4 315.5,455.5 C354.3,424 370.2,415.4 368.7,396.3 C366.7,371.6 366.9,265.1 352.4,258.5 Z" id="Path" fill="#070738"></path>
                <path d="M219.8,262 C219.8,262 267.9,252.7 280.6,235.2 C293.2,217.7 300.5,243.3 300.5,243.3 C300.5,243.3 251.4,269.8 213.8,273.4 C176,276.9 219.8,262 219.8,262 Z" id="Path" fill="#020224"></path>
                <path d="M104.3,331 C104.3,331 90.3,324.5 87.1,317 C83.9,309.5 81.5,302.7 66.2,295.7 C66.2,295.7 58.2,290.6 54.4,296 C50.6,301.4 57.8,304.4 65,308.5 C72.2,312.6 61.6,317.1 53.6,311.8 C45.6,306.5 32.3,298.8 28.7,291.3 C22.7,278.8 16.8,284.2 16.6,289.2 C15.7,306.2 17.2,309.7 25.2,322.6 C34.9,338.3 53.6,340.3 64.9,340.5 C78.5,340.7 89.9,349.6 90.7,351.7 C91.5,354 106,343.9 104.3,331 Z" id="Path" fill="#F4B693"></path>
                <path d="M234.9,430.1 C234.9,430.1 293.5,371.9 324.8,339.4 C337.1,326.6 368.4,298.9 359.9,278 C350.6,254.9 329,251.9 314.7,265.4 C278.9,299.2 198.7,402.5 198.7,402.5" id="Path" fill="#141443"></path>
                <path d="M238.6,57.6 C238.6,57.6 155.5,49.2 164,118.6 C170.3,170.2 179.9,164.9 180.5,210.1 C180.9,239.4 229.2,246.9 232.4,275.2 C235.6,303.5 229.7,335.1 212.4,336.7 C195,338.3 195.1,360.7 213.2,365 C213.2,365 186.9,370.2 182.3,352.6 C178.1,336.4 174.6,311.1 188.2,300.6 C188.2,300.6 175.6,308.9 181.7,329.5 C187.7,350.1 203,353.1 190.1,379.6 C177.2,406.1 158.2,385.4 163.4,377.2 C163.4,377.2 168.1,391.8 177.4,383.1 C186.8,374.5 169.5,359.9 166.2,358.8 C162.9,357.7 142.9,346.2 142.1,325.3 C141.3,304.4 160.9,284.6 159.3,254.3 C157.7,223.3 147.5,198.4 139.5,167.3 C131.6,136.6 130.7,67.4 160.1,33.9 C173.5,18.6 207.9,-9.7 250.1,4.3 C250.1,4.3 273.9,-4.8 292.2,13.7 C311.3,32.9 331.3,75 330.8,109.9 C330.3,144.8 335.7,150.9 345.9,188.7 C355.8,225.4 380.2,260.6 362.1,296.9 C344,333.2 347.5,349.2 362,349.8 C370.9,350.1 374.6,343.6 370.5,341.1 C370.5,341.1 384.8,340.7 370.2,355.5 C360.2,365.7 340.3,370.7 334.9,361.2 C329.5,351.7 319.9,340.8 321.8,320.3 C321.8,320.3 340.7,358.2 318.6,365.1 C296.5,372 290.9,355.9 294.2,351.7 C297.5,347.5 303.3,349.4 304,352.5 C304,352.5 300.1,353.2 299.9,355.6 C299.8,358 312.7,364.2 315,352 C317.3,339.7 289.4,335.6 288.1,319.6 C286.8,303.7 297.7,297.6 302.7,283.1 C307.7,268.5 271.2,258.6 261.6,231.9 C248.6,195.6 255.8,177 262.3,134.5 C268.6,94.3 251.7,55.1 238.6,57.6 Z" id="Path" fill="#593116"></path>
                <path d="M232.6,389.6 C222.1,384.1 97.7,309.7 97.7,309.7 C97.6,309.7 75.6,335.5 73.5,352.2 C79.6,355.5 202.1,425 209.8,428.7 C217.5,432.4 231.6,439.2 239.9,423.4 C248.2,407.6 243.1,395.2 232.6,389.6 Z" id="Path" fill="#141443"></path>
                <path d="M187,112.3 C187,112.3 193,112.8 193.3,116 C193.6,119.2 191.3,120.1 187.6,119.2 C184,118.3 179.6,116.4 175.9,116.9 C172.2,117.4 169.9,118.8 168.8,120.1 C167.7,121.4 168.3,117 170.8,115.2 C173.3,113.4 180.6,111.4 187,112.3 Z" id="Path" fill="#452C2B"></path>
                <path d="M229.6,109.4 C229.6,109.4 223.7,110.5 223.7,113.6 C223.7,116.7 226.1,117.5 229.7,116.3 C233.2,115.1 237.4,112.7 241.1,112.9 C244.9,113.1 247.3,114.2 248.5,115.4 C249.7,116.6 248.6,112.2 246.1,110.7 C243.5,109.1 235.9,107.9 229.6,109.4 Z" id="Path" fill="#452C2B"></path>
                <path d="M243.5,129.4 C243.5,129.4 230.8,115.4 221.6,128.8 C221.6,128.8 232,122.4 243.5,129.4 Z" id="Path" fill="#452C2B"></path>
                <path d="M173.3,134.3 C173.3,134.3 185.3,119.7 195.1,132.5 C195.1,132.6 184.4,126.7 173.3,134.3 Z" id="Path" fill="#452C2B"></path>
                <ellipse id="Oval" fill="#452C2B" transform="translate(184.175155, 133.887048) rotate(-4.625223) translate(-184.175155, -133.887048) " cx="184.175155" cy="133.887048" rx="5.29976882" ry="6.09973393"></ellipse>
                <ellipse id="Oval" fill="#452C2B" transform="translate(229.269045, 129.183755) rotate(-4.625223) translate(-229.269045, -129.183755) " cx="229.269045" cy="129.183755" rx="5.29976882" ry="5.89974265"></ellipse>
                <g transform="translate(9.000000, 222.000000)" id="Path">
                    <path d="M62.1,11.6 L16.3,0.4 C12.6,-0.5 8.8,1.8 7.9,5.5 L0.7,35.1 C-0.2,38.8 2.1,42.6 5.8,43.5 L10.3,44.6 C10.3,44.6 14.4,53.7 15.9,56.6 C17,58.7 19.9,59.4 21.9,58.1 C24.6,56.2 32.4,50.1 32.4,50.1 L51.6,54.8 C55.3,55.7 59.1,53.4 60,49.7 L67.2,20.1 C68.1,16.3 65.8,12.5 62.1,11.6 Z" fill="#FFFFFF" opacity="0.95"></path>
                    <path d="M62.1,11.6 L16.3,0.4 C12.6,-0.5 8.8,1.8 7.9,5.5 L0.7,35.1 C-0.2,38.8 2.1,42.6 5.8,43.5 L10.3,44.6 C10.3,44.6 14.4,53.7 15.9,56.6 C17,58.7 19.9,59.4 21.9,58.1 C24.6,56.2 32.4,50.1 32.4,50.1 L51.6,54.8 C55.3,55.7 59.1,53.4 60,49.7 L67.2,20.1 C68.1,16.3 65.8,12.5 62.1,11.6 Z" fill="#FFFFFF" opacity="0.95"></path>
                    <path d="M36.4,12.1 L31.3,20.3 C31,20.8 30.5,21 29.9,20.9 L20.5,18.6 C19.3,18.3 18.5,19.7 19.2,20.6 L25.4,28 C25.8,28.4 25.8,29 25.5,29.5 L20.4,37.7 C19.8,38.7 20.8,40 21.9,39.5 L30.8,35.8 C31.3,35.6 31.9,35.7 32.2,36.2 L38.4,43.6 C39.2,44.5 40.7,43.9 40.6,42.7 L39.9,33.1 C39.9,32.6 40.2,32.1 40.7,31.8 L49.6,28.1 C50.7,27.6 50.6,26 49.4,25.7 L40,23.4 C39.5,23.3 39.1,22.8 39,22.3 L38.3,12.7 C38.7,11.5 37.1,11.1 36.4,12.1 Z" fill="#F7BA43"></path>
                </g>
            </g>
            <path d="M305,602 C68.6,564.9 26,443.4 6,333.8 C4.1,323.3 1.6,305.4 1.5,284.4 C-1.6,316.6 2.2,345.9 4.9,360.7 C24.9,470.3 67.5,591.7 303.9,628.9 C509.7,661.2 818.4,385.8 810.4,214.3 C788.5,386.1 500.4,632.7 305,602 Z" id="Path" fill="url(#linearGradient-13)"></path>
        </g>
    </g>
</svg>