<?xml version="1.0" encoding="UTF-8"?>
<svg width="792px" height="692px" viewBox="0 0 792 692" version="1.1" xmlns="http://www.w3.org/2000/svg" xmlns:xlink="http://www.w3.org/1999/xlink">
    <!-- Generator: Sketch 60.1 (88133) - https://sketch.com -->
    <title>illustrations/secure</title>
    <desc>Created with Sketch.</desc>
    <defs>
        <linearGradient x1="-4.65767536%" y1="49.9554798%" x2="99.3252885%" y2="49.9554798%" id="linearGradient-1">
            <stop stop-color="#00AFBA" offset="0%"></stop>
            <stop stop-color="#6E68C6" offset="100%"></stop>
        </linearGradient>
        <linearGradient x1="-2827.48298%" y1="-1133.76674%" x2="280.873253%" y2="145.238321%" id="linearGradient-2">
            <stop stop-color="#00AFBA" offset="0%"></stop>
            <stop stop-color="#6E68C6" offset="100%"></stop>
        </linearGradient>
        <linearGradient x1="-4.67364814%" y1="49.9976134%" x2="99.3152248%" y2="49.9976134%" id="linearGradient-3">
            <stop stop-color="#00AFBA" offset="0%"></stop>
            <stop stop-color="#6E68C6" offset="100%"></stop>
        </linearGradient>
        <linearGradient x1="-2030.29837%" y1="323.072129%" x2="477.415337%" y2="-6.26616495%" id="linearGradient-4">
            <stop stop-color="#00AFBA" offset="0%"></stop>
            <stop stop-color="#6E68C6" offset="100%"></stop>
        </linearGradient>
        <linearGradient x1="774.625747%" y1="-149.1101%" x2="-73.3897585%" y2="83.1121304%" id="linearGradient-5">
            <stop stop-color="#00AFBA" offset="0%"></stop>
            <stop stop-color="#6E68C6" offset="100%"></stop>
        </linearGradient>
        <linearGradient x1="-1203.65311%" y1="-16.470965%" x2="178.240637%" y2="56.1963153%" id="linearGradient-6">
            <stop stop-color="#00AFBA" offset="0%"></stop>
            <stop stop-color="#6E68C6" offset="100%"></stop>
        </linearGradient>
        <linearGradient x1="-0.876719695%" y1="50.0032183%" x2="100.916222%" y2="50.0032183%" id="linearGradient-7">
            <stop stop-color="#00AFBA" offset="0%"></stop>
            <stop stop-color="#6E68C6" offset="100%"></stop>
        </linearGradient>
        <linearGradient x1="-0.876523297%" y1="49.9804001%" x2="100.893616%" y2="49.9804001%" id="linearGradient-8">
            <stop stop-color="#00AFBA" offset="0%"></stop>
            <stop stop-color="#6E68C6" offset="100%"></stop>
        </linearGradient>
        <linearGradient x1="0.0195340502%" y1="49.9804001%" x2="99.9975582%" y2="49.9804001%" id="linearGradient-9">
            <stop stop-color="#00AFBA" offset="0%"></stop>
            <stop stop-color="#6E68C6" offset="100%"></stop>
        </linearGradient>
        <linearGradient x1="-0.145667614%" y1="49.9792332%" x2="99.840625%" y2="49.9792332%" id="linearGradient-10">
            <stop stop-color="#00AFBA" offset="0%"></stop>
            <stop stop-color="#6E68C6" offset="100%"></stop>
        </linearGradient>
        <linearGradient x1="-0.895854806%" y1="50.0170275%" x2="100.897087%" y2="50.0170275%" id="linearGradient-11">
            <stop stop-color="#00AFBA" offset="0%"></stop>
            <stop stop-color="#6E68C6" offset="100%"></stop>
        </linearGradient>
        <linearGradient x1="-0.895854806%" y1="49.9963717%" x2="100.897087%" y2="49.9963717%" id="linearGradient-12">
            <stop stop-color="#00AFBA" offset="0%"></stop>
            <stop stop-color="#6E68C6" offset="100%"></stop>
        </linearGradient>
        <linearGradient x1="0.000403316155%" y1="49.9963717%" x2="100.000829%" y2="49.9963717%" id="linearGradient-13">
            <stop stop-color="#00AFBA" offset="0%"></stop>
            <stop stop-color="#6E68C6" offset="100%"></stop>
        </linearGradient>
        <linearGradient x1="-0.135227273%" y1="50.0043663%" x2="99.8510653%" y2="50.0043663%" id="linearGradient-14">
            <stop stop-color="#00AFBA" offset="0%"></stop>
            <stop stop-color="#6E68C6" offset="100%"></stop>
        </linearGradient>
        <linearGradient x1="-58.5781268%" y1="49.9209408%" x2="1649.93263%" y2="49.9209408%" id="linearGradient-15">
            <stop stop-color="#00AFBA" offset="0%"></stop>
            <stop stop-color="#6E68C6" offset="100%"></stop>
        </linearGradient>
    </defs>
    <g id="illustrations/secure" stroke="none" stroke-width="1" fill="none" fill-rule="evenodd">
        <g id="8">
            <path d="M596.1,624.6 C444.2,656.8 195.4,703.9 64.1,609.6 C19.1,577.3 1.8,504.3 0.4,417.6 C-1,513.9 15.4,596.5 64.1,631.5 C195.4,725.9 444.1,678.7 596.1,646.5 C713.1,621.7 759.6,534.7 756.1,430.3 C752.7,524.7 704.9,601.6 596.1,624.6 Z" id="Path" fill="url(#linearGradient-1)" fill-rule="nonzero"></path>
            <path d="M563.2,91.6 C561.1,95.8 554.7,97 548.9,94.1 C543.1,91.2 540.1,85.4 542.2,81.2 C544.3,77 550.7,75.8 556.5,78.7 C562.3,81.6 565.3,87.3 563.2,91.6 Z" id="Path" fill="url(#linearGradient-2)" fill-rule="nonzero" opacity="0.28"></path>
            <path d="M14.4,242.9 C28,154.5 136.6,-10 343.1,47.9 C549.6,105.8 698.9,167.8 740.1,311.5 C781.3,455.2 748.1,592.4 596.2,624.6 C444.3,656.8 195.5,703.9 64.2,609.6 C-9.3,556.8 -9.1,395.7 14.4,242.9 Z" id="Path" fill="url(#linearGradient-3)" fill-rule="nonzero" opacity="0.28"></path>
            <path d="M624.6,676.6 C625.8,683.1 619.4,689.6 610.3,691.3 C601.3,692.9 593,689 591.8,682.5 C590.6,676 597,669.5 606.1,667.8 C615.2,666.2 623.5,670.1 624.6,676.6 Z" id="Path" fill="url(#linearGradient-4)" fill-rule="nonzero" opacity="0.28"></path>
            <path d="M655.4,132.2 C655.4,132.2 658.8,100.6 619.6,96.3 C580.4,91.9 562.2,100.6 583.4,116.6 C604.6,132.6 641.9,172.1 655.4,132.2 Z" id="Path" fill="url(#linearGradient-5)" fill-rule="nonzero" opacity="0.28"></path>
            <path d="M641.5,673.5 C641.5,673.5 654.8,690 674.7,670 C694.6,650.1 698.8,635.9 681.6,640.4 C664.4,644.9 628.7,647.6 641.5,673.5 Z" id="Path" fill="url(#linearGradient-6)" fill-rule="nonzero" opacity="0.28"></path>
            <g id="Group" transform="translate(317.000000, 182.000000)">
                <g transform="translate(24.000000, 27.000000)">
                    <path d="M223.4,24.2 L223.4,18.1 C223.4,8.2 215.4,0.1 205.4,0.1 L18.2,0.1 C8.3,0.1 0.2,8.1 0.2,18.1 L0.2,341.9 L446.5,341.9 L446.5,42.2 C446.5,32.3 438.5,24.2 428.5,24.2 L223.4,24.2 Z" id="XMLID_27_" stroke="url(#linearGradient-7)" stroke-width="8"></path>
                    <path d="M223.4,24.2 L223.4,18.1 C223.4,8.2 215.4,0.1 205.4,0.1 L18.2,0.1 C8.3,0.1 0.2,8.1 0.2,18.1 L0.2,341.9 L446.5,341.9 L446.5,42.2 C446.5,32.3 438.5,24.2 428.5,24.2 L223.4,24.2 Z" id="XMLID_26_" fill="#FFFFFF" fill-rule="nonzero"></path>
                    <path d="M217.1,87 L210.5,105.4 L18.2,105.4 C8.3,105.4 0.2,113.4 0.2,123.4 L0.2,352 C0.2,361.9 8.2,370 18.2,370 L428.6,370 C438.5,370 446.6,362 446.6,352 L446.6,93.1 C446.6,83.2 438.6,75.1 428.6,75.1 L234,75.1 C226.4,75.1 219.6,79.9 217.1,87 Z" id="XMLID_25_" stroke="url(#linearGradient-8)" stroke-width="8"></path>
                    <path d="M217.1,87 L210.5,105.4 L18.2,105.4 C8.3,105.4 0.2,113.4 0.2,123.4 L0.2,352 C0.2,361.9 8.2,370 18.2,370 L428.6,370 C438.5,370 446.6,362 446.6,352 L446.6,93.1 C446.6,83.2 438.6,75.1 428.6,75.1 L234,75.1 C226.4,75.1 219.6,79.9 217.1,87 Z" id="XMLID_24_" fill="#FFFFFF" fill-rule="nonzero"></path>
                    <path d="M217.1,87 L210.5,105.4 L18.2,105.4 C8.3,105.4 0.2,113.4 0.2,123.4 L0.2,352 C0.2,361.9 8.2,370 18.2,370 L428.6,370 C438.5,370 446.6,362 446.6,352 L446.6,93.1 C446.6,83.2 438.6,75.1 428.6,75.1 L234,75.1 C226.4,75.1 219.6,79.9 217.1,87 Z" id="XMLID_23_" fill="url(#linearGradient-9)" fill-rule="nonzero" opacity="0.1"></path>
                    <path d="M281,222.5 L274.3,222.5 L274.3,203.7 C274.3,172.2 248.7,146.6 217.2,146.6 C185.7,146.6 160.1,172.2 160.1,203.7 L160.1,222.5 L153.4,222.5 C149.8,222.5 146.9,225.4 146.9,229 L146.9,270.7 C146.9,305.8 175.5,334.4 210.6,334.4 L224,334.4 C259.1,334.4 287.7,305.8 287.7,270.7 L287.7,229 C287.5,225.4 284.6,222.5 281,222.5 Z M223.6,279.9 L223.6,297.7 C223.6,301.3 220.7,304.2 217.1,304.2 C213.5,304.2 210.6,301.3 210.6,297.7 L210.6,279.9 C202.9,277.2 197.3,269.8 197.3,261.2 C197.3,250.3 206.2,241.4 217.1,241.4 C228,241.4 236.9,250.3 236.9,261.2 C236.9,269.9 231.3,277.2 223.6,279.9 Z M261.2,222.5 L172.9,222.5 L172.9,203.7 C172.9,179.4 192.7,159.6 217,159.6 C241.3,159.6 261.1,179.4 261.1,203.7 L261.1,222.5 L261.2,222.5 Z" id="Shape" fill="url(#linearGradient-10)" fill-rule="nonzero"></path>
                </g>
                <g>
                    <path d="M223.9,24.3 L223.9,18.2 C223.9,8.3 215.9,0.2 205.9,0.2 L18.7,0.2 C8.8,0.2 0.7,8.2 0.7,18.2 L0.7,342 L447,342 L447,42.3 C447,32.4 439,24.3 429,24.3 L223.9,24.3 Z" id="XMLID_22_" stroke="url(#linearGradient-11)" stroke-width="8"></path>
                    <path d="M223.9,24.3 L223.9,18.2 C223.9,8.3 215.9,0.2 205.9,0.2 L18.7,0.2 C8.8,0.2 0.7,8.2 0.7,18.2 L0.7,342 L447,342 L447,42.3 C447,32.4 439,24.3 429,24.3 L223.9,24.3 Z" id="XMLID_21_" fill="#FFFFFF" fill-rule="nonzero"></path>
                    <path d="M217.5,87.1 L210.9,105.5 L18.7,105.5 C8.8,105.5 0.7,113.5 0.7,123.5 L0.7,352.1 C0.7,362 8.7,370.1 18.7,370.1 L429,370.1 C438.9,370.1 447,362.1 447,352.1 L447,93.2 C447,83.3 439,75.2 429,75.2 L234.4,75.2 C226.8,75.3 220.1,80 217.5,87.1 Z" id="XMLID_20_" stroke="url(#linearGradient-12)" stroke-width="8"></path>
                    <path d="M217.5,87.1 L210.9,105.5 L18.7,105.5 C8.8,105.5 0.7,113.5 0.7,123.5 L0.7,352.1 C0.7,362 8.7,370.1 18.7,370.1 L429,370.1 C438.9,370.1 447,362.1 447,352.1 L447,93.2 C447,83.3 439,75.2 429,75.2 L234.4,75.2 C226.8,75.3 220.1,80 217.5,87.1 Z" id="XMLID_19_" fill="#FFFFFF" fill-rule="nonzero"></path>
                    <path d="M217.5,87.1 L210.9,105.5 L18.7,105.5 C8.8,105.5 0.7,113.5 0.7,123.5 L0.7,352.1 C0.7,362 8.7,370.1 18.7,370.1 L429,370.1 C438.9,370.1 447,362.1 447,352.1 L447,93.2 C447,83.3 439,75.2 429,75.2 L234.4,75.2 C226.8,75.3 220.1,80 217.5,87.1 Z" id="XMLID_9_" fill="url(#linearGradient-13)" fill-rule="nonzero" opacity="0.1"></path>
                    <path d="M281.4,222.6 L274.7,222.6 L274.7,203.8 C274.7,172.3 249.1,146.7 217.6,146.7 C186.1,146.7 160.5,172.3 160.5,203.8 L160.5,222.6 L153.8,222.6 C150.2,222.6 147.3,225.5 147.3,229.1 L147.3,270.8 C147.3,305.9 175.9,334.5 211,334.5 L224.4,334.5 C259.5,334.5 288.1,305.9 288.1,270.8 L288.1,229.1 C287.9,225.5 285,222.6 281.4,222.6 Z M224,280.1 L224,297.9 C224,301.5 221.1,304.4 217.5,304.4 C213.9,304.4 211,301.5 211,297.9 L211,280.1 C203.3,277.4 197.7,270 197.7,261.4 C197.7,250.5 206.6,241.6 217.5,241.6 C228.4,241.6 237.3,250.5 237.3,261.4 C237.3,270 231.7,277.4 224,280.1 Z M261.6,222.6 L173.3,222.6 L173.3,203.8 C173.3,179.5 193.1,159.7 217.4,159.7 C241.7,159.7 261.5,179.5 261.5,203.8 L261.5,222.6 L261.6,222.6 Z" id="Shape" fill="url(#linearGradient-14)" fill-rule="nonzero"></path>
                </g>
            </g>
            <path d="M46.3,118.6 C39.5,120.9 32.5,115.3 33,108.1 C33.8,95.9 38.1,77.6 55,68.1 C81.8,53 82.7,88.2 61.9,102.5 C46.8,112.7 52.1,116.6 46.3,118.6 Z" id="Path" fill="url(#linearGradient-15)" fill-rule="nonzero" opacity="0.28"></path>
            <g id="Group" transform="translate(30.000000, 0.000000)" fill-rule="nonzero">
                <path d="M119.1,514.4 C119.1,514.4 198.7,452.5 239.7,416.3 C255.8,402.1 305.1,366.5 289.6,343.9 C272.4,318.8 249.9,314 231.4,329 C184.8,366.6 75.6,480 75.6,480" id="Path" fill="#841B16"></path>
                <path d="M119.7,262 C119.7,262 135,278.8 167.9,278.8 C200.8,278.8 214.6,262 214.6,262 C214.6,262 204.3,202.5 215.1,156.8 C225.9,111.1 111.4,88.1 120.3,156.8 C129.3,225.4 119.7,262 119.7,262 Z" id="Path" fill="#E3A67F"></path>
                <path d="M34.7,284.3 C59.3,272.3 104.5,263.4 121.5,252 C121.5,252 127,274.8 167.9,274.8 C203.3,274.8 213.3,254.2 213.3,254.2 C230.4,265.3 280,272.7 306.1,281.3 C322.7,286.8 298.8,440.7 295.5,508.4 C293.3,553.8 303.2,632.6 306.8,663.8 C196.8,669.2 117.6,660.2 45.2,616.8 C46.4,599.2 50.8,569.3 52.9,502.7 C54.6,435.1 18.9,291.9 34.7,284.3 Z" id="Path" fill="#00434E"></path>
                <path d="M336.8,450.8 C336.8,450.8 336.4,375.9 331.3,364.1 C326,351.7 298.2,349.3 274.6,360.9 C244.8,375.6 249.1,392.5 250,404.8 C250.6,413.8 251.9,465.3 251.9,465.3 C251.9,465.3 262.8,467.1 294.1,461.9 C325.4,456.8 336.8,450.8 336.8,450.8 Z" id="Path" fill="#000000" opacity="0.3"></path>
                <path d="M207.3,554.9 C207.3,554.9 220.4,545.6 231.1,546.4 C241.7,547.4 251,548.6 265.3,538.4 C265.3,538.4 274.6,533.7 269.1,527.6 C263.6,521.4 257.3,526.3 249.6,530.8 C242,535.3 240,523.3 249.6,518.8 C259.1,514.3 266.4,511 289.2,515.5 C303.3,518.3 296.8,509.2 285,501.5 C278.8,497.5 260.9,493 242.1,498.3 C225.3,503.1 213.7,504 209.4,514.3 C204.2,526.4 189.1,532.3 186.1,531.9 C183,531.5 190.5,549.8 207.3,554.9 Z" id="Path" fill="#D38E6B"></path>
                <path d="M331.1,538.5 C331.1,538.5 342.7,429.1 342.9,377.4 C343.1,353 334.4,305.4 312.6,290.1 C286,271.1 255.6,283.5 248.9,304.9 C234.4,351.4 274.8,534.3 274.8,534.3" id="Path" fill="#E19A74"></path>
                <path d="M96.2,465.7 C96.2,465.7 100.8,391.7 95.7,380 C90.3,367.7 62.4,362.6 38.9,374.4 C9.1,389.2 17.1,419.8 18,432.1 C18.6,441.1 16.4,478.9 16.4,478.9 C16.4,478.9 27.3,480.7 58.6,475.4 C89.9,470.1 96.2,465.7 96.2,465.7 Z" id="Path" fill="#000000" opacity="0.3"></path>
                <path d="M257,456.8 C257,456.8 238.9,332.1 243.5,310.3 C248.3,287.5 282.1,270.2 308.8,282.2 C342.7,297.3 342.9,352 342.9,373.3 C342.9,388.9 342.1,452.4 342.1,452.4 C342.1,452.4 330.3,459.2 295.6,460.9 C260.6,462.7 257,456.8 257,456.8 Z" id="Path" fill="#00434E"></path>
                <path d="M43,496.1 C54,497.9 207.9,527.7 207.9,527.7 C207.9,527.9 225.4,532.7 214.1,555.1 C207.6,554.1 58.3,572.4 36.2,561.9 C28.9,558.6 8.9,553.1 15.6,526.7 C22.1,500.2 31.9,494.2 43,496.1 Z" id="Path" fill="#E19A74"></path>
                <path d="M314.2,517.7 C295.7,516.4 296.4,516.5 159.3,509.7 C159.3,509.9 154,514.4 156.8,537.5 C165.8,541.3 272.2,584.9 301.9,580.6 C309.2,579.6 328.3,574.4 330.8,548.8 C333.3,522.8 324.3,518.5 314.2,517.7 Z" id="Path" fill="#D38E6B"></path>
                <path d="M159.2,534.3 C159.2,534.3 144.2,529.5 134.8,526.7 C118,521.5 103.5,521.7 86.4,521 C86.4,521 67.9,518.7 69.8,510.7 C71.7,502.7 99.4,512 108,513.5 C116.6,515 116.6,516.8 106.8,515 C101.6,514 89.8,507.4 82.4,511.7 C71.3,518.3 65.1,517.5 66.9,511.5 C71.7,496 81.9,493 92,490.2 C112.3,484.7 130.9,487.5 139.2,495.7 C149.2,505.5 166.5,506.2 169,506.5 C171.5,507 171.4,523.3 159.2,534.3 Z" id="Path" fill="#E19A74"></path>
                <path d="M14.3,538.3 C14.3,538.3 1.5,438.2 0.5,385.9 C0.2,365.3 3.3,306.1 41.1,286.7 C70.9,271.2 98.5,279.4 104.4,300.8 C117.4,347.8 70.8,533.4 70.8,533.4" id="Path" fill="#E19A74"></path>
                <path d="M90.2,458.8 C90.2,458.8 116.5,327.8 111.8,306 C106.8,283.1 70.2,268.4 40.5,281.4 C2.9,297.7 1.1,351.4 0.6,372.8 C0.3,388.6 0.6,454.4 0.6,454.4 C0.6,454.4 13.4,460.9 51.6,461.4 C89.9,461.8 90.2,458.8 90.2,458.8 Z" id="Path" fill="#00434E"></path>
                <path d="M315.6,508.7 C297.1,508 297.8,508.2 160.5,506.5 C160.5,506.7 155.3,511.3 159.2,534.3 C168.3,537.8 276.6,577.2 306,571.7 C313.3,570.4 330.1,568 331.4,542.1 C332.9,516.5 325.8,509 315.6,508.7 Z" id="Path" fill="#E19A74"></path>
                <path d="M167.9,17.6 L167.9,17.6 C233.9,17.6 249.4,72.5 243.4,122.2 C241.7,135.8 241.4,147.8 237.2,158.4 C232,174 225.4,189.2 218.4,199.3 C203.1,221.6 189.3,230.7 167.9,230.7 C146.5,230.7 132.7,221.6 117.4,199.3 C110.6,189.5 104.1,174.9 99.1,159.9 C94.6,148.8 95.3,134.5 93.6,120.2 C87.6,70.5 101.9,17.6 167.9,17.6 Z" id="Path" fill="#F4B68A"></path>
                <g transform="translate(82.000000, 115.000000)" id="Path">
                    <path d="M16.2,12.5 C13.9,7.2 12.2,0.5 7.4,0.5 C-0.6,0.5 -0.4,8.1 2.4,18.6 C5.4,29.4 5.6,42.7 12.4,41.7 C14.6,41.4 15.6,37.5 16.9,34.7" fill="#F4B68A"></path>
                    <path d="M8.4,26.8 C9.1,27.6 10.2,28.3 11.2,27.6 C12.5,26.8 11.5,25.9 11.5,24.8 C11.5,23.6 12.2,23 12.5,21.8 C13,20.5 12.8,19.8 12.5,18.3 C11.3,13.6 8.8,7.7 4,7.3 L4,7.3 C6,5.6 9.2,6.6 10.8,8.6 C12.5,10.4 12.6,13.3 13.8,15.4 C14.8,17.4 17.3,20.6 15.5,22.4 C14.8,23.1 13.5,22.9 13.2,24.4 C13,26.2 14.5,26.2 15,27.4 C15.3,28.2 15.2,29.2 14.2,29.6 C13.5,29.8 13.2,29.1 12.7,29.3 C12.4,29.5 12,29.6 11.7,30 C10.9,30.5 10.5,31.5 9.5,30.5 C8.7,29.7 8.5,27.8 8,26.7" fill="#E19A74"></path>
                    <path d="M156.5,11 C158.8,5.7 159.2,0.7 163.8,0.7 C171.8,0.7 171.8,11 168.8,21.3 C165.8,32.1 165.5,42.9 158.8,41.9 C156.6,41.6 156.5,38.1 155.1,35.4" fill="#F4B68A"></path>
                    <path d="M163,26.8 C162.3,27.6 161.2,28.3 160.2,27.6 C158.9,26.8 159.9,25.9 159.9,24.8 C159.9,23.6 159.2,23 158.9,21.8 C158.4,20.5 158.6,19.8 158.9,18.3 C160.1,13.6 162.6,7.7 167.4,7.3 L167.4,7.3 C165.4,5.6 162.2,6.6 160.6,8.6 C158.9,10.4 158.8,13.3 157.6,15.4 C156.6,17.4 154.1,20.6 155.9,22.4 C156.6,23.1 157.9,22.9 158.2,24.4 C158.4,26.2 156.9,26.2 156.4,27.4 C156.1,28.2 156.2,29.2 157.2,29.6 C157.9,29.8 158.2,29.1 158.7,29.3 C159,29.5 159.4,29.6 159.7,30 C160.5,30.5 160.9,31.5 161.9,30.5 C162.7,29.7 162.9,27.8 163.4,26.7" fill="#E19A74"></path>
                </g>
                <path d="M166.2,141.5 C170.4,157.1 176.3,162.4 174,166.6 C171.3,171.3 160.9,169.1 160.9,169.1" id="Path" fill="#E3A67F"></path>
                <path d="M188.3,184.4 C188.3,184.4 164.2,188.2 146.9,184.4 C146.9,184.4 152.1,199.2 168,199.2 C184,199.2 188.3,184.4 188.3,184.4 Z" id="Path" fill="#EFE9DF"></path>
                <path d="M148.9,112.4 C148.9,112.4 147.1,106.4 143.2,106.6 C139.4,106.8 136.4,105.4 131.2,106.9 C126,108.2 117.7,111.1 115.6,113.2 C113.6,115.4 112.8,119.2 115.8,118.4 C118.8,117.4 122.9,113.1 127.6,112.2 C132.3,111.4 134.4,113.5 139.6,113.9 C144.8,114 147.4,116.5 148.9,112.4 Z" id="Path" fill="#BA7032"></path>
                <path d="M186.3,112.7 C186.3,112.7 188,106.7 191.8,106.7 C195.6,106.7 198.6,105.4 203.8,106.7 C209,108 217.4,110.5 219.6,112.7 C221.8,114.9 222.6,118.7 219.6,117.9 C216.6,117.1 212.3,112.7 207.6,112.1 C202.9,111.4 200.8,113.6 195.6,114.1 C190.5,114.5 188,117 186.3,112.7 Z" id="Path" fill="#BA7032"></path>
                <path d="M122.3,132.7 C122.3,132.7 136.4,114.2 148.9,129.7 C148.9,129.7 135.6,122.9 122.3,132.7 Z" id="Path" fill="#6C3506"></path>
                <path d="M213.1,131.2 C213.1,131.2 197,114.4 186.3,131.2 C186.3,131.2 198.8,123 213.1,131.2 Z" id="Path" fill="#6C3506"></path>
                <ellipse id="Oval" fill="#6C3506" cx="198.1" cy="131.5" rx="5.7" ry="7.5"></ellipse>
                <ellipse id="Oval" fill="#6C3506" cx="137.6" cy="131.2" rx="5.7" ry="7.1"></ellipse>
                <g opacity="0.4" transform="translate(99.000000, 116.000000)" fill="#BA7032" id="Path">
                    <path d="M137.9,3.5 C138.3,-0.7 138.8,-1.4 137.9,3.5 L137.9,3.5 Z"></path>
                    <path d="M1.3,5.9 C0.3,0.8 0.8,1.6 1.3,5.9 L1.3,5.9 Z"></path>
                </g>
                <path d="M236.5,130.6 C236.5,130.6 237.7,127.1 243.1,117.7 C248.6,108.3 242.3,55.8 237.8,46.4 C233.3,37 223.6,17.3 209.3,10.7 C195.1,4.1 181.3,0.4 168.6,0.4 C155.9,0.4 139.2,4 130.4,10.7 C121.6,17.3 110.9,28.6 103.9,39.3 C97,49.9 90.8,67.3 90.8,83 C90.8,98.7 92.3,116.7 93.6,119.4 C94.8,122.2 100.9,127.8 100.9,131.3 C100.9,134.8 104.4,101 105.2,91.8 C106,81.5 108.7,64.5 112,59.5 C115.3,54.5 122.1,48.4 129.5,45.8 C137.1,43 155.8,39.5 167.9,39.2 C180,38.9 200.5,41 207.6,43.5 C213.9,45.7 221.2,50.6 224.1,60.7 C227.1,70.8 229.9,81.2 229.6,88.3 C229.3,95.2 231.8,109.8 233.1,116.6 C234.6,123.1 236.5,130.6 236.5,130.6 Z" id="Path" fill="#BA7032"></path>
            </g>
        </g>
    </g>
</svg>