<?xml version="1.0" encoding="UTF-8"?>
<svg width="1095px" height="871px" viewBox="0 0 1095 871" version="1.1" xmlns="http://www.w3.org/2000/svg" xmlns:xlink="http://www.w3.org/1999/xlink">
    <!-- Generator: Sketch 60.1 (88133) - https://sketch.com -->
    <title>undraw_gaming_6oy3</title>
    <desc>Created with Sketch.</desc>
    <defs>
        <linearGradient x1="49.9922561%" y1="99.9814192%" x2="49.9922561%" y2="-0.00879730921%" id="linearGradient-1">
            <stop stop-color="#808080" stop-opacity="0.25" offset="0%"></stop>
            <stop stop-color="#808080" stop-opacity="0.12" offset="54%"></stop>
            <stop stop-color="#808080" stop-opacity="0.1" offset="100%"></stop>
        </linearGradient>
        <linearGradient x1="50.0014203%" y1="100.007591%" x2="50.0014203%" y2="0%" id="linearGradient-2">
            <stop stop-color="#808080" stop-opacity="0.25" offset="0%"></stop>
            <stop stop-color="#808080" stop-opacity="0.12" offset="54%"></stop>
            <stop stop-color="#808080" stop-opacity="0.1" offset="100%"></stop>
        </linearGradient>
    </defs>
    <g id="undraw_gaming_6oy3" stroke="none" stroke-width="1" fill="none" fill-rule="evenodd">
        <g>
            <path d="M1002.34,485.97 C964.39,550.68 969.56,637.69 984.34,706.06 C989.28,728.95 995.03,753.06 989.91,778.94 C983.65,810.54 962.61,835.69 941.52,850.25 C903.08,876.8 859.78,876.99 828.78,850.75 C801.99,828.07 784.85,787.91 757.46,766.48 C711.63,730.63 647.38,754.3 591.25,789.89 C551.54,815.07 507.77,846.84 471.87,830.14 C446.61,818.39 431.39,784.05 424.71,746.47 C421.48,728.33 419.71,708.47 411.76,694.76 C407.03,686.61 400.42,681.23 393.55,676.85 C330.78,636.85 244.09,673.24 183.7,627.77 C142.91,597.06 120.64,532.35 114.27,462.77 C107.9,393.19 115.72,318.44 125.13,244.77 C131.82,192.44 140.59,136.37 166.87,93.36 C194.67,47.86 237.51,26.9 274.31,30.36 C311.11,33.82 342.65,58.36 369.66,88.54 C403.41,126.28 433.57,174.74 477.98,186.21 C508.23,194.02 541.64,183.54 574.06,177.32 C628.25,166.92 681.45,168.46 734.26,170.82 C784.82,173.08 835.67,176.16 882.46,194.37 C915.57,207.26 940.63,235.01 971.46,252.75 C991.53,264.31 1014.41,265.35 1033.01,280.94 C1055.93,300.15 1075.38,336.09 1065.15,382.24 C1055.42,426.15 1022.52,451.62 1002.34,485.97 Z" id="Path" fill="#14B0BB" fill-rule="nonzero" opacity="0.1"></path>
            <path d="M274.75,689.98 C274.75,689.98 208.03,579.47 226.75,480.31 C234.62,438.69 229.56,395.63 210.89,357.61 C202.002098,339.585971 191.481455,322.414193 179.46,306.31" id="Path" stroke="#535461" stroke-width="2"></path>
            <path d="M190.94,243.76 C194.79,258.44 179.39,307.98 179.39,307.98 C179.39,307.98 141.64,272.39 137.78,257.71 C133.914007,243.030271 142.680271,227.995993 157.36,224.13 C172.039729,220.264007 187.074007,229.030271 190.94,243.71 L190.94,243.76 Z" id="Path" fill="#14B0BB" fill-rule="nonzero"></path>
            <path d="M256.22,313.54 C251.48,327.96 211.62,361.17 211.62,361.17 C211.62,361.17 199.27,310.78 204.02,296.36 C206.984295,286.903026 214.811153,279.774856 224.50331,277.705194 C234.195466,275.635533 244.251189,278.94506 250.819677,286.366405 C257.388165,293.78775 259.451678,304.171027 256.22,313.54 Z" id="Path" fill="#14B0BB" fill-rule="nonzero"></path>
            <path d="M290.77,452.99 C279.4,462.99 228.22,471.59 228.22,471.59 C228.22,471.59 243,421.86 254.37,411.81 C265.768109,402.014918 282.920646,403.193151 292.87234,414.454782 C302.824033,425.716412 301.883,442.883596 290.76,452.99 L290.77,452.99 Z" id="Path" fill="#14B0BB" fill-rule="nonzero"></path>
            <path d="M293.16,564.39 C283.65,576.22 234.66,593.29 234.66,593.29 C234.66,593.29 240.82,541.77 250.33,529.95 C259.866254,518.214088 277.092546,516.388236 288.877104,525.864308 C300.661663,535.340381 302.575643,552.557104 293.16,564.39 Z" id="Path" fill="#14B0BB" fill-rule="nonzero"></path>
            <path d="M156.56,378.66 C169.77,386.12 221.56,383.84 221.56,383.84 C221.56,383.84 196.76,338.27 183.56,330.84 C174.991983,325.711904 164.316501,325.635086 155.675573,330.639351 C147.034646,335.643615 141.788286,344.941331 141.972047,354.925044 C142.155809,364.908756 147.74077,374.007109 156.56,378.69 L156.56,378.66 Z" id="Path" fill="#14B0BB" fill-rule="nonzero"></path>
            <path d="M161,508.91 C175.84,512.08 224.62,494.39 224.62,494.39 C224.62,494.39 187.34,458.33 172.47,455.15 C157.627347,451.982647 143.027353,461.447347 139.86,476.29 C136.692647,491.132653 146.157347,505.732647 161,508.9 L161,508.91 Z" id="Path" fill="#14B0BB" fill-rule="nonzero"></path>
            <path d="M182.69,634.91 C196.78,640.54 247.85,631.35 247.85,631.35 C247.85,631.35 217.18,589.5 203.09,583.87 C189.164944,578.871522 173.782042,585.794941 168.289639,599.53268 C162.797237,613.27042 169.16709,628.890676 182.7,634.87 L182.69,634.91 Z" id="Path" fill="#14B0BB" fill-rule="nonzero"></path>
            <path d="M190.94,243.76 C194.79,258.44 179.39,307.98 179.39,307.98 C179.39,307.98 141.64,272.39 137.78,257.71 C133.914007,243.030271 142.680271,227.995993 157.36,224.13 C172.039729,220.264007 187.074007,229.030271 190.94,243.71 L190.94,243.76 Z" id="Path" fill="#14B0BB" fill-rule="nonzero"></path>
            <path d="M256.22,313.54 C251.48,327.96 211.62,361.17 211.62,361.17 C211.62,361.17 199.27,310.78 204.02,296.36 C206.984295,286.903026 214.811153,279.774856 224.50331,277.705194 C234.195466,275.635533 244.251189,278.94506 250.819677,286.366405 C257.388165,293.78775 259.451678,304.171027 256.22,313.54 Z" id="Path" fill="#14B0BB" fill-rule="nonzero"></path>
            <path d="M290.77,452.99 C279.4,462.99 228.22,471.59 228.22,471.59 C228.22,471.59 243,421.86 254.37,411.81 C265.768109,402.014918 282.920646,403.193151 292.87234,414.454782 C302.824033,425.716412 301.883,442.883596 290.76,452.99 L290.77,452.99 Z" id="Path" fill="#FC6681" fill-rule="nonzero"></path>
            <path d="M293.16,564.39 C283.65,576.22 234.66,593.29 234.66,593.29 C234.66,593.29 240.82,541.77 250.33,529.95 C259.866254,518.214088 277.092546,516.388236 288.877104,525.864308 C300.661663,535.340381 302.575643,552.557104 293.16,564.39 Z" id="Path" fill="#FC6681" fill-rule="nonzero"></path>
            <path d="M156.56,378.66 C169.77,386.12 221.56,383.84 221.56,383.84 C221.56,383.84 196.76,338.27 183.56,330.84 C174.991983,325.711904 164.316501,325.635086 155.675573,330.639351 C147.034646,335.643615 141.788286,344.941331 141.972047,354.925044 C142.155809,364.908756 147.74077,374.007109 156.56,378.69 L156.56,378.66 Z" id="Path" fill="#14B0BB" fill-rule="nonzero"></path>
            <path d="M161,508.91 C175.84,512.08 224.62,494.39 224.62,494.39 C224.62,494.39 187.34,458.33 172.47,455.15 C157.627347,451.982647 143.027353,461.447347 139.86,476.29 C136.692647,491.132653 146.157347,505.732647 161,508.9 L161,508.91 Z" id="Path" fill="#14B0BB" fill-rule="nonzero"></path>
            <path d="M182.69,634.91 C196.78,640.54 247.85,631.35 247.85,631.35 C247.85,631.35 217.18,589.5 203.09,583.87 C189.164944,578.871522 173.782042,585.794941 168.289639,599.53268 C162.797237,613.27042 169.16709,628.890676 182.7,634.87 L182.69,634.91 Z" id="Path" fill="#14B0BB" fill-rule="nonzero"></path>
            <ellipse id="Oval" fill="#14B0BB" fill-rule="nonzero" opacity="0.1" cx="608.18" cy="702.58" rx="480.5" ry="33"></ellipse>
            <path d="M1021.65,674.31 C1021.65,674.31 1020.85,673.24 1019.74,672.04 L1020.06,671.93 C1020.06,671.93 1005.78,636.24 1008.96,621.17 C1012.14,606.1 996.27,569.62 996.27,569.62 C996.27,569.62 972.86,521.68 983.94,483.42 C985.205019,478.913835 986.160579,474.326479 986.8,469.69 C990.11,447.03 988.94,442.36 983.39,434.08 L982.78,433.19 C983.464864,432.52342 984.005979,431.723661 984.37,430.84 C989.13,418.15 962.17,395.15 969.34,373.73 C975.96,353.88 958.73,312.92 956.17,307.03 L956.17,307.03 L955.88,306.36 L955.02,306.64 C955.164048,301.52515 957.177695,296.640456 960.68,292.91 L960.84,292.75 C963.22,290.56 966.11,288.95 968.34,286.6 L968.47,286.45 C968.69,286.24 968.92,286.03 969.13,285.81 C971.34,283.49 972.85,280.05 971.65,277.07 C970.56,274.35 967.5,272.69 966.78,269.85 C966.606633,268.573085 966.499822,267.288015 966.46,266 C965.88,262 961.99,259.49 958.46,257.51 C954.07,255.03 949.46,252.51 944.39,252.45 C937.53,252.45 931.39,257.05 924.58,257.62 C922.26,257.82 919.85,257.54 917.65,258.31 C915.973305,259.007972 914.433,259.996476 913.1,261.23 C912.316272,261.846467 911.574619,262.514622 910.88,263.23 C909.34,264.67 908.03,266.37 908.09,268.41 C908.201315,269.899602 908.899012,271.284208 910.03,272.26 C905.586593,278.30377 904.044398,286.003592 905.817415,293.292449 C907.590432,300.581305 912.497018,306.712458 919.22,310.04 C919.3,310.59 919.38,311.15 919.46,311.74 C920.46,319.25 921.05,329.87 918.38,338.19 C906.99,344.06 889.24,353.63 886.06,357.88 C885.560491,358.60779 885.406855,359.51863 885.64,360.37 C885.5499,360.760013 885.529587,361.162902 885.58,361.56 C883.09,362.13 879.78,361.56 875.75,357.88 C866.23,349.16 836.1,322.98 836.1,322.98 C836.1,322.98 822.62,289.67 813.1,295.98 C803.58,302.29 824.2,333.26 824.2,333.26 L869.34,381.66 C869.34,381.66 870.93,391.97 887.58,386.42 C893.08,384.59 898.05,382.84 902.25,381.33 L903.25,382.18 C899.5,404.12 897.56,433.36 911.39,441.94 C912.472786,443.375779 913.255033,445.015096 913.69,446.76 C913.62,447.02 913.55,447.29 913.49,447.55 C912.430033,451.928749 911.760741,456.392926 911.49,460.89 C908.883104,466.850647 907.682145,473.331039 907.98,479.83 L902.68,555.34 C902.68,555.34 901.89,571.99 907.44,584.68 C912.99,597.37 930.44,660.82 918.54,665.58 L919.67,665.73 C916.26,669.24 910.52,674.56 906.15,675.61 C899.51,677.19 901.37,687.37 916.09,689.07 C930.81,690.77 932.58,690.63 942.93,682 C952.05,674.4 953.5,671 953.71,670.27 L954.23,670.34 C954.23,670.34 948.68,649.72 954.23,641 C959.78,632.28 941.55,579.15 941.55,579.15 C941.397025,572.36113 941.647466,565.569168 942.3,558.81 C945.1,566.14 947.1,571.22 947.1,571.22 C947.1,571.22 951.86,594.22 957.41,598.22 C962.96,602.22 992.31,656.91 987.55,680.7 L987,683.47 L988.34,683.08 L988.46,683.08 C986.63,687.61 983.3,694.77 979.62,697.4 C974.07,701.4 979.62,710.09 993.9,706.12 C1008.18,702.15 1009.76,701.36 1016.11,689.47 C1022.46,677.58 1021.65,674.31 1021.65,674.31 Z" id="Path" fill="url(#linearGradient-1)" fill-rule="nonzero"></path>
            <path d="M916.55,462.55 L913.07,458.26 C909.510904,464.872958 907.813884,472.328095 908.16,479.83 L902.98,553.66 C902.98,553.66 902.2,569.94 907.63,582.35 C913.06,594.76 930.12,656.79 918.49,661.44 L953.34,666.15 C953.34,666.15 947.91,645.99 953.34,637.46 C958.77,628.93 940.93,576.98 940.93,576.98 C940.93,576.98 939.38,533.56 954.11,523.47 C968.84,513.38 916.55,462.55 916.55,462.55 Z" id="Path" fill="#555388" fill-rule="nonzero"></path>
            <path d="M922.43,658.53 C922.43,658.53 912.86,669.71 906.38,671.26 C899.9,672.81 901.71,682.75 916.1,684.42 C930.49,686.09 932.22,685.95 942.35,677.51 C952.48,669.07 952.93,665.9 952.93,665.9 C952.93,665.9 950.93,658.4 948.51,658.24 C946.09,658.08 922.43,658.53 922.43,658.53 Z" id="Path" fill="#603556" fill-rule="nonzero"></path>
            <path d="M918.88,464.88 L913.08,458.26 C909.520904,464.872958 907.823884,472.328095 908.17,479.83 L902.99,553.66 C902.99,553.66 902.21,569.94 907.64,582.35 C913.07,594.76 930.13,656.79 918.5,661.44 L953.34,666.15 C953.34,666.15 947.91,645.99 953.34,637.46 C958.77,628.93 940.93,576.98 940.93,576.98 C940.93,576.98 939.38,533.56 954.11,523.47 C968.84,513.38 918.88,464.88 918.88,464.88 Z" id="Path" fill="#000000" fill-rule="nonzero" opacity="0.1"></path>
            <path d="M953.4,566.07 C953.4,566.07 943.71,375.86 903.93,308.54 C903.93,308.54 874.76,255.26 850.38,239.72 L850.38,233.58 C810.6,206.04 761.65,233.58 761.65,233.58 L761.65,236.3 L751.45,244.8 L705.52,244.64 C701.311589,239.567346 695.061093,236.634562 688.47,236.64 L478.89,236.64 C472.696702,236.633162 466.784194,239.223058 462.59,243.78 L414.89,243.78 C414.89,243.78 412.08,240.51 404.69,237.22 L404.69,233.58 C364.91,206.04 315.96,233.58 315.96,233.58 L315.96,240.97 C314.797023,241.737935 313.764036,242.686527 312.9,243.78 C312.9,243.78 272.61,270.78 263.43,304.46 C263.43,304.46 213.96,452.86 212.94,569.13 C211.92,685.4 256.8,701.72 280.25,704.78 C303.7,707.84 345.52,703.78 386.32,600.78 L403.66,540.61 C403.66,540.61 406.72,504.91 443.44,527.35 C480.16,549.79 512.79,515.11 512.79,515.11 L650.49,515.11 C650.49,515.11 696.34,543.63 738.2,521.15 C738.2,521.15 754.52,499.73 769.82,572.15 C769.82,572.15 816.74,721.06 889.15,705.76 C961.56,690.46 953.4,566.07 953.4,566.07 Z" id="Path" fill="url(#linearGradient-2)" fill-rule="nonzero"></path>
            <path d="M321.18,249.08 L321.18,238.08 C321.18,238.08 369.18,211.08 408.18,238.08 L408.18,248.08 L321.18,249.08 Z" id="Path" fill="#535461" fill-rule="nonzero"></path>
            <path d="M758.18,249.08 L758.18,238.08 C758.18,238.08 806.18,211.08 845.18,238.08 L845.18,248.08 L758.18,249.08 Z" id="Path" fill="#535461" fill-rule="nonzero"></path>
            <path d="M321.18,249.08 L321.18,238.08 C321.18,238.08 369.18,211.08 408.18,238.08 L408.18,248.08 L321.18,249.08 Z" id="Path" fill="#000000" fill-rule="nonzero" opacity="0.1"></path>
            <path d="M758.18,249.08 L758.18,238.08 C758.18,238.08 806.18,211.08 845.18,238.08 L845.18,248.08 L758.18,249.08 Z" id="Path" fill="#000000" fill-rule="nonzero" opacity="0.1"></path>
            <path d="M465.18,248.08 L418.18,248.08 C418.18,248.08 406.18,234.08 366.18,235.08 C326.18,236.08 318.18,248.08 318.18,248.08 C318.18,248.08 278.68,274.58 269.68,307.58 C269.68,307.58 221.18,453.08 220.18,567.08 C219.18,681.08 263.18,697.08 286.18,700.08 C309.18,703.08 350.18,699.08 390.18,598.08 L407.18,539.08 C407.18,539.08 410.18,504.08 446.18,526.08 C482.18,548.08 514.18,514.08 514.18,514.08 L649.18,514.08 C649.18,514.08 694.18,542.08 735.18,520.08 C735.18,520.08 751.18,499.08 766.18,570.08 C766.18,570.08 812.18,716.08 883.18,701.08 C954.18,686.08 946.18,564.08 946.18,564.08 C946.18,564.08 936.68,377.58 897.68,311.58 C897.68,311.58 860.18,243.08 835.18,240.08 C835.18,240.08 781.18,230.08 760.18,239.08 L748.18,249.08 L465.18,248.08 Z" id="Path" fill="#535461" fill-rule="nonzero"></path>
            <circle id="Oval" fill="#E2E2EC" fill-rule="nonzero" cx="356.18" cy="346.08" r="87"></circle>
            <circle id="Oval" fill="#E2E2EC" fill-rule="nonzero" cx="810.18" cy="346.08" r="87"></circle>
            <path d="M371.34,326.68 L359.74,336.94 C357.707676,338.72918 354.662324,338.72918 352.63,336.94 L341.01,326.68 C339.860557,325.667301 339.198348,324.211897 339.19,322.68 L339.19,294.45 C339.195516,291.482614 341.602609,289.079991 344.57,289.079991 L367.82,289.079991 C369.247679,289.077339 370.61765,289.643304 371.627173,290.652827 C372.636696,291.66235 373.202661,293.032321 373.200009,294.46 L373.200009,322.66 C373.187268,324.2052 372.509513,325.670027 371.34,326.68 L371.34,326.68 Z" id="Path" fill="#535461" fill-rule="nonzero"></path>
            <path d="M371.34,365.47 L359.74,355.22 C357.707676,353.43082 354.662324,353.43082 352.63,355.22 L341.01,365.48 C339.860557,366.492699 339.198348,367.948103 339.189991,369.48 L339.189991,397.68 C339.187339,399.107679 339.753304,400.47765 340.762827,401.487173 C341.77235,402.496696 343.142321,403.062661 344.57,403.060009 L367.82,403.060009 C369.245944,403.062655 370.614395,402.498062 371.62363,401.490703 C372.632864,400.483345 373.2,399.115947 373.2,397.69 L373.2,369.49 C373.187268,367.9448 372.509513,366.479973 371.34,365.47 Z" id="Path" fill="#535461" fill-rule="nonzero"></path>
            <path d="M336.79,361.26 L347.05,349.64 C348.83918,347.607676 348.83918,344.562324 347.05,342.53 L336.79,330.91 C335.776524,329.761606 334.321616,329.099623 332.79,329.09 L304.59,329.09 C301.622614,329.095516 299.219991,331.502609 299.219991,334.47 L299.219991,357.72 C299.217339,359.147679 299.783304,360.51765 300.792827,361.527173 C301.80235,362.536696 303.172321,363.102661 304.6,363.100009 L332.8,363.100009 C334.331542,363.083745 335.783262,362.41428 336.79,361.26 L336.79,361.26 Z" id="Path" fill="#535461" fill-rule="nonzero"></path>
            <path d="M375.58,361.26 L365.34,349.63 C363.546377,347.599355 363.546377,344.550645 365.34,342.52 L375.6,330.9 C376.612699,329.750557 378.068103,329.088348 379.6,329.079991 L407.8,329.079991 C409.227679,329.077339 410.59765,329.643304 411.607173,330.652827 C412.616696,331.66235 413.182661,333.032321 413.180009,334.46 L413.180009,357.71 C413.182655,359.135944 412.618062,360.504395 411.610703,361.51363 C410.603345,362.522864 409.235947,363.09 407.81,363.09 L379.61,363.09 C378.066055,363.087704 376.597796,362.420975 375.58,361.26 L375.58,361.26 Z" id="Path" fill="#535461" fill-rule="nonzero"></path>
            <polygon id="Path" stroke="#535461" stroke-width="2" points="341.18 282.08 371.18 282.08 356.18 269.08"></polygon>
            <polygon id="Path" stroke="#535461" stroke-width="2" points="341.18 410.08 371.18 410.08 356.18 423.08"></polygon>
            <polygon id="Path" stroke="#535461" stroke-width="2" points="292.18 331.08 292.18 361.08 279.18 346.08"></polygon>
            <polygon id="Path" stroke="#535461" stroke-width="2" points="420.18 331.08 420.18 361.08 433.18 346.08"></polygon>
            <circle id="Oval" fill="#E2E2EC" fill-rule="nonzero" cx="474.18" cy="441.08" r="63"></circle>
            <circle id="Oval" fill="#535461" fill-rule="nonzero" cx="472.18" cy="431.08" r="42"></circle>
            <circle id="Oval" fill="#E2E2EC" fill-rule="nonzero" cx="692.18" cy="441.08" r="63"></circle>
            <circle id="Oval" fill="#535461" fill-rule="nonzero" cx="690.18" cy="431.08" r="42"></circle>
            <circle id="Oval" stroke="#000000" stroke-width="2" opacity="0.1" cx="472.18" cy="431.08" r="28"></circle>
            <circle id="Oval" stroke="#000000" stroke-width="2" opacity="0.1" cx="690.18" cy="431.08" r="28"></circle>
            <circle id="Oval" fill="#E2E2EC" fill-rule="nonzero" cx="585.18" cy="448.08" r="18"></circle>
            <circle id="Oval" fill="#E2E2EC" fill-rule="nonzero" cx="557.67" cy="388" r="3.93"></circle>
            <circle id="Oval" fill="#E2E2EC" fill-rule="nonzero" cx="572.39" cy="388" r="3.93"></circle>
            <circle id="Oval" fill="#E2E2EC" fill-rule="nonzero" cx="570.43" cy="406.65" r="3.93"></circle>
            <circle id="Oval" fill="#E2E2EC" fill-rule="nonzero" cx="584.18" cy="407.08" r="4"></circle>
            <circle id="Oval" fill="#E2E2EC" fill-rule="nonzero" cx="597.91" cy="406.65" r="3.93"></circle>
            <circle id="Oval" fill="#E2E2EC" fill-rule="nonzero" cx="564.54" cy="397.82" r="3.93"></circle>
            <circle id="Oval" fill="#E2E2EC" fill-rule="nonzero" cx="577.18" cy="398.08" r="4"></circle>
            <circle id="Oval" fill="#E2E2EC" fill-rule="nonzero" cx="590.18" cy="398.08" r="4"></circle>
            <circle id="Oval" fill="#E2E2EC" fill-rule="nonzero" cx="603.8" cy="397.82" r="3.93"></circle>
            <circle id="Oval" fill="#E2E2EC" fill-rule="nonzero" cx="584.18" cy="388.08" r="4"></circle>
            <circle id="Oval" fill="#E2E2EC" fill-rule="nonzero" cx="598.18" cy="388.08" r="4"></circle>
            <circle id="Oval" fill="#E2E2EC" fill-rule="nonzero" cx="609.69" cy="388" r="3.93"></circle>
            <rect id="Rectangle" fill="#E2E2EC" fill-rule="nonzero" x="427.18" y="255.08" width="22" height="38" rx="8.5"></rect>
            <rect id="Rectangle" fill="#E2E2EC" fill-rule="nonzero" x="719.18" y="255.08" width="22" height="38" rx="8.5"></rect>
            <circle id="Oval" fill="#535461" fill-rule="nonzero" cx="811.18" cy="293.08" r="24"></circle>
            <circle id="Oval" fill="#535461" fill-rule="nonzero" cx="760.18" cy="344.08" r="24"></circle>
            <circle id="Oval" fill="#535461" fill-rule="nonzero" cx="864.18" cy="341.08" r="24"></circle>
            <circle id="Oval" fill="#535461" fill-rule="nonzero" cx="815.18" cy="394.08" r="24"></circle>
            <rect id="Rectangle" fill="#E2E2EC" fill-rule="nonzero" x="459.18" y="241.08" width="249" height="133" rx="21.75"></rect>
            <polygon id="Path" stroke="#E2E2EC" stroke-width="2" points="796.68 303.08 810.68 279.08 825.68 303.08"></polygon>
            <rect id="Rectangle" stroke="#E2E2EC" stroke-width="2" x="747.68" y="333.08" width="25" height="22"></rect>
            <circle id="Oval" stroke="#E2E2EC" stroke-width="2" cx="864.18" cy="341.08" r="14"></circle>
            <line x1="803.68" y1="382.83" x2="826.18" y2="405.33" id="Path" stroke="#E2E2EC" stroke-width="2"></line>
            <line x1="826.68" y1="382.83" x2="803.68" y2="404.83" id="Path" stroke="#E2E2EC" stroke-width="2"></line>
            <path d="M455.99,694.63 C458.99,692.34 461.84,689.63 462.71,686.36 C463.635429,682.752597 461.574269,679.052179 458.02,677.94 C453.71,676.6 449.11,679.03 445.61,681.49 C442.11,683.95 438.12,686.76 433.55,686.24 C438.28,682.82 440.55,677.24 439.23,672.24 C439.007535,671.150645 438.456027,670.155837 437.65,669.39 C435.26,667.3 430.92,668.2 428.06,669.84 C418.95,675.07 416.41,685.16 416.36,694.25 C415.44,690.97 416.22,687.56 416.19,684.19 C416.16,680.82 415.04,677.1 411.56,675.29 C409.333986,674.328219 406.923816,673.867351 404.5,673.94 C400.41,673.82 395.84,674.15 393.05,676.6 C389.58,679.6 390.48,684.73 393.5,688.07 C396.52,691.41 401.12,693.51 405.35,695.82 C408.58,697.58 411.84,699.63 413.82,702.41 C414.073326,702.778622 414.284639,703.174414 414.45,703.59 L440.12,703.59 C445.759873,701.270487 451.090508,698.260878 455.99,694.63 Z" id="Path" fill="#14B0BB" fill-rule="nonzero"></path>
            <path d="M988.28,674.64 C988.28,674.64 983.63,688.64 978.2,692.48 C972.77,696.32 978.2,704.89 992.2,701.01 C1006.2,697.13 1007.71,696.36 1013.91,684.73 C1020.11,673.1 1019.34,670 1019.34,670 C1019.34,670 1014.69,663.8 1012.34,664.57 C1009.99,665.34 988.28,674.64 988.28,674.64 Z" id="Path" fill="#603556" fill-rule="nonzero"></path>
            <path d="M959.59,326.46 C959.59,326.46 896.78,361.35 911.51,351.27 C921.41,344.5 920.81,326.53 919.35,315.46 C918.89,312.01 918.35,309.23 918.02,307.67 C917.83,306.79 917.71,306.3 917.71,306.3 C917.71,306.3 948.17,288.02 946.46,299.01 L946.46,299.01 C946.46,299.11 946.46,299.21 946.41,299.31 C946.263034,300.044395 946.186023,300.791069 946.18,301.54 C945.97,312.84 959.59,326.46 959.59,326.46 Z" id="Path" fill="#C87486" fill-rule="nonzero"></path>
            <path d="M891.34,360.58 C891.34,360.58 885.91,369.11 876.61,360.58 C867.31,352.05 837.84,326.46 837.84,326.46 C837.84,326.46 824.66,293.89 815.34,300.1 C806.02,306.31 826.2,336.55 826.2,336.55 L870.4,383.85 C870.4,383.85 871.95,393.93 888.24,388.5 C904.53,383.07 916.16,378.42 916.16,378.42 L891.34,360.58 Z" id="Path" fill="#C87486" fill-rule="nonzero"></path>
            <g id="Group" transform="translate(0.340000, 0.150000)"></g>
            <path d="M1017.75,667.66 L986.75,678.52 L985.44,678.9 L985.98,676.19 C990.63,652.93 961.98,599.42 956.51,595.54 C951.04,591.66 946.41,569.15 946.41,569.15 C946.41,569.15 936.25,517.97 934.7,507.15 C934.31,504.44 932.89,502.28 931.17,499.3 C928.575929,494.783783 926.560113,489.959263 925.17,484.94 C921.76,472.94 913.81,451.64 916.73,439.59 C917.32,437.14 914.91,443.4 915.73,441.01 L916.2,439.69 L978.98,431.15 C980.021664,432.414756 980.996333,433.733231 981.9,435.1 C986.65,442.15 986.34,442.15 987.34,455.55 C986.908196,463.634408 985.767145,471.665267 983.93,479.55 C975.48,517.18 994.54,567.55 994.54,567.55 C994.54,567.55 1010.05,603.22 1006.95,617.95 C1003.85,632.68 1017.75,667.66 1017.75,667.66 Z" id="Path" fill="#555388" fill-rule="nonzero"></path>
            <path d="M981.9,435.09 C972.61,446.74 913.1,455.79 913.84,452.09 C914.063095,450.813059 913.966905,449.500763 913.56,448.27 C914.151492,445.812453 914.865721,443.38608 915.7,441 L916.17,439.68 L978.98,431.15 C980.021378,432.411512 980.996044,433.726642 981.9,435.09 L981.9,435.09 Z" id="Path" fill="#000000" fill-rule="nonzero" opacity="0.1"></path>
            <path d="M954.94,310.15 C954.94,310.15 929.34,317.93 922.34,335.77 C915.34,353.61 927.65,354.58 927.65,354.58 C927.65,354.58 905.65,412.58 911.48,442.78 C911.48,442.78 914.58,446.66 913.81,450.53 C913.04,454.4 978.17,444.33 982.81,431.92 C987.45,419.51 961.1,397.03 968.08,376.09 C975.06,355.15 954.94,310.15 954.94,310.15 Z" id="Path" fill="#DFE5EE" fill-rule="nonzero"></path>
            <path d="M946.41,300.87 C946.366195,301.103296 946.288719,301.328988 946.18,301.54 C945.12,303.54 941.75,301.35 942.92,304.35 C938.42,308.87 937,317.920111 930.13,317.920111 C926.394185,317.931184 922.704656,317.093432 919.34,315.47 C918.88,312.02 918.34,309.24 918.01,307.68 C921.01,305.9 945.01,292 946.45,299.02 L946.45,299.02 C946.561839,299.633032 946.548232,300.262375 946.41,300.87 L946.41,300.87 Z" id="Path" fill="#000000" fill-rule="nonzero" opacity="0.1"></path>
            <circle id="Oval" fill="#C87486" fill-rule="nonzero" cx="930.12" cy="291.57" r="24.81"></circle>
            <path d="M954.94,370.66 L911.52,390.82 C911.52,390.82 882.05,368.34 886.7,362.15 C891.35,355.96 927.8,338.15 927.8,338.15 C927.8,338.15 965.02,345.85 954.94,370.66 Z" id="Path" fill="#000000" fill-rule="nonzero" opacity="0.1"></path>
            <path d="M954.94,369.15 L911.52,389.31 C911.52,389.31 882.05,366.82 886.71,360.62 C891.37,354.42 927.81,336.62 927.81,336.62 C927.81,336.62 965.02,344.3 954.94,369.15 Z" id="Path" fill="#DFE5EE" fill-rule="nonzero"></path>
            <path d="M922.96,280.94 C919.17,280.56 915.25,280.14 911.96,278.23 C910.05,277.13 908.3,275.31 908.24,273.1 C908.17,270.5 910.36,268.47 912.37,266.82 C913.674021,265.615481 915.18048,264.65067 916.82,263.97 C918.97,263.22 921.32,263.49 923.59,263.3 C930.27,262.74 936.25,258.2 942.96,258.239737 C947.89,258.239737 952.42,260.76 956.71,263.19 C960.14,265.13 963.95,267.59 964.52,271.49 C964.558106,272.747859 964.661579,274.002886 964.83,275.25 C965.54,278.03 968.53,279.65 969.6,282.31 C970.77,285.22 969.29,288.59 967.13,290.86 C964.97,293.13 962.13,294.69 959.86,296.81 C955.599419,300.760192 953.227371,306.341052 953.34,312.15 C953.3905,312.528642 953.331508,312.913827 953.17,313.26 C952.82235,313.679593 952.314265,313.933636 951.77,313.96 C949.3,314.42 946.25,314.67 944.77,312.63 C943.29,310.59 944.46,307.19 942.77,305.18 C940.62,302.59 936.1,304.65 933.19,302.95 C932.209203,302.314146 931.442593,301.397698 930.99,300.32 C928.59,295.15 931.34,291.09 932.34,286.15 C933.51,280.38 927.03,281.35 922.96,280.94 Z" id="Path" fill="#000000" fill-rule="nonzero" opacity="0.1"></path>
            <path d="M923.74,280.15 C919.95,279.77 916.03,279.35 912.74,277.44 C910.83,276.34 909.08,274.52 909.02,272.31 C908.95,269.71 911.14,267.68 913.15,266.03 C914.454021,264.825481 915.96048,263.86067 917.6,263.18 C919.75,262.43 922.1,262.7 924.37,262.51 C931.05,261.95 937.03,257.41 943.74,257.449737 C948.67,257.449737 953.2,259.97 957.49,262.4 C960.92,264.34 964.73,266.8 965.3,270.7 C965.338106,271.957859 965.441579,273.212886 965.61,274.46 C966.32,277.24 969.31,278.86 970.38,281.52 C971.55,284.43 970.07,287.8 967.91,290.07 C965.75,292.34 962.91,293.9 960.64,296.02 C956.365198,299.97774 953.988445,305.575667 954.11,311.4 C954.1605,311.778642 954.101508,312.163827 953.94,312.51 C953.59235,312.929593 953.084265,313.183636 952.54,313.21 C950.07,313.67 947.02,313.92 945.54,311.88 C944.06,309.84 945.23,306.44 943.54,304.43 C941.39,301.84 936.87,303.9 933.96,302.2 C932.979203,301.564146 932.212593,300.647698 931.76,299.57 C929.34,294.39 932.1,290.3 933.1,285.31 C934.28,279.6 927.8,280.58 923.74,280.15 Z" id="Path" fill="#603456" fill-rule="nonzero"></path>
        </g>
    </g>
</svg>