<?xml version="1.0" encoding="UTF-8"?>
<svg width="960px" height="687px" viewBox="0 0 960 687" version="1.1" xmlns="http://www.w3.org/2000/svg" xmlns:xlink="http://www.w3.org/1999/xlink">
    <!-- Generator: Sketch 60.1 (88133) - https://sketch.com -->
    <title>undraw_stand_out_1oag</title>
    <desc>Created with Sketch.</desc>
    <g id="undraw_stand_out_1oag" stroke="none" stroke-width="1" fill="none" fill-rule="evenodd">
        <g fill-rule="nonzero">
            <path d="M746.70367,312.06995 C744.90996,307.45727 747.47248,305.15095 748.49756,301.05083 C749.52264,296.95071 746.19114,284.1377 746.19114,284.1377 C746.19114,284.1377 735.42833,239.80485 732.097,231.09206 C730.68726,227.40506 727.62559,224.86869 724.56236,223.16545 C724.35463,222.03445 724.05451,221.30501 723.64044,221.09793 C720.6722,219.61268 713.27761,216.38813 708.34968,215.49662 C707.428267,213.912869 706.335558,212.435199 705.09124,211.09023 C705.956104,209.429239 706.357177,207.565805 706.25224,205.69608 C705.93824,200.86132 702.27675,196.52891 702.7531,191.70746 C703.11437,188.05083 705.78754,185.04701 706.81923,181.52038 C707.693592,178.318798 707.200552,174.897954 705.45768,172.07359 C706.215787,172.880017 706.97384,173.686433 707.73184,174.49284 C709.851349,171.316605 709.591982,167.116664 707.09777,164.22535 C704.69757,161.57383 700.68377,160.57935 698.82155,157.52584 C696.90805,154.38814 697.93504,150.12455 696.12549,146.9257 C691.6927,139.08933 680.34437,144.64437 673.54713,141.90926 C670.75382,140.78526 668.63051,139.54826 665.48777,139.63258 C662.815536,139.79038 660.173747,140.283731 657.6263,141.10522 C653.972093,142.162647 650.791615,144.442426 648.61658,147.56342 C648.831133,147.319063 649.06664,147.093932 649.32041,146.8906 C650.96755,145.59986 653.85611,145.70733 654.72591,147.6106 C654.933554,148.089006 655.020683,148.611041 654.97966,149.13095 C654.83674,151.42542 652.83242,153.13884 650.84081,154.28706 C648.8492,155.43528 646.60835,156.39593 645.30856,158.29206 C643.16333,161.42123 644.42475,165.62062 644.4258,169.41452 C644.390065,174.298002 642.142945,178.902144 638.31508,181.93482 L645.54608,178.97862 C642.093397,185.021615 639.826782,191.668497 638.86808,198.56195 L648.64508,190.48484 C645.024152,196.248113 642.823343,202.788752 642.22372,209.56864 L650.07144,201.5275 C650.428786,202.155613 650.607839,202.869379 650.58928,203.59179 L649.77089,206.74823 C649.481848,207.374686 649.161377,207.986157 648.8107,208.58031 C647.54788,210.74877 646.24226,213.41786 647.4234,215.6319 L647.42897,215.62895 C646.18581,219.81182 644.31041,223.99717 640.13824,226.0311 C644.76589,226.51528 649.59561,224.20146 651.68534,220.51878 C652.026103,221.181451 652.437705,221.805225 652.91293,222.37917 C653.04742,222.54736 653.17999,222.71429 653.31274,222.8814 L652.15952,223.65021 L649.06906,225.71055 C649.06906,225.71055 628.82453,229.81069 630.10579,237.49848 C630.15851,237.81473 630.22166,238.19213 630.29279,238.61555 L624.46809,248.51755 L616.01162,277.21855 C616.01162,277.21855 611.6552,286.44392 612.42393,290.28779 C613.19266,294.13166 612.42393,295.66924 612.42393,302.58822 C612.42393,309.5072 609.09255,312.32608 612.42393,317.96376 C615.75531,323.60144 625.74935,340.00205 625.74935,340.00205 L627.9446,341.64849 C627.837624,342.637397 627.875076,343.636606 628.05578,344.61473 C630.10578,354.86509 649.3253,453.01234 649.3253,453.01234 C649.3253,453.01234 639.5874,530.65883 659.3193,535.52774 C661.79414,536.1384 664.22444,536.69248 666.5853,537.18574 L669.56972,556.79725 L667.77583,581.65438 C667.77583,581.65438 654.19414,612.40545 679.05126,614.1993 C703.90838,615.99315 692.63296,587.5483 692.63296,587.5483 C693.945037,585.11957 694.481646,582.347201 694.17057,579.6043 C693.91709,577.32305 691.78333,565.4523 689.69099,554.03495 C699.12434,552.90378 697.35925,542.89221 696.10225,538.4903 C696.646356,538.172889 697.053669,537.665257 697.24564,537.0653 C697.52957,536.04305 696.86845,532.02181 695.66887,526.38652 C694.69181,520.78452 693.02214,511.7156 691.88311,505.5723 L698.01445,506.57046 L723.89665,354.86508 C723.89665,354.86508 724.06733,352.45 723.98938,348.91776 C727.528133,347.087584 731.177295,345.479285 734.91573,344.10218 C743.37229,340.7708 746.70362,328.47037 749.5225,323.34518 C752.34138,318.21999 748.49756,316.68263 746.70367,312.06995 Z M654.80807,215.47876 C655.645531,214.901463 656.627095,214.568553 657.64296,214.51727 C657.42396,215.7092 655.37402,216.0575 653.65512,216.68169 C653.970527,216.219922 654.360095,215.813467 654.80807,215.47876 L654.80807,215.47876 Z M641.89376,291.82546 C643.96993,295.23639 640.21095,304.47916 636.8236,311.81399 C634.88235,310.14136 632.8566,310.66873 635.231,305.91974 C636.850161,302.91026 637.811001,299.590931 638.0498,296.18188 C638.0498,295.59588 638.35026,291.29065 640.8752,289.50216 C641.140957,290.306881 641.481985,291.084755 641.89376,291.82546 L641.89376,291.82546 Z M634.1165,321.26439 C635.29137,320.78617 637.0705,320.05159 639.4732,319.23455 C638.32207,320.74537 637.00784,322.54539 635.68604,324.5103 C634.673279,323.742081 634.089732,322.535267 634.1165,321.26439 Z M717.23386,324.62665 C715.67586,322.97129 714.41698,321.49065 713.3806,320.16581 C715.313493,320.674523 717.2813,321.221857 719.28402,321.80781 C720.282027,321.956716 721.3004,321.888863 722.26983,321.60887 C722.35874,323.3804 722.35909,325.90796 722.35909,325.90796 L719.5523,327.85108 C718.912433,326.686667 718.133957,325.603998 717.23386,324.6267 L717.23386,324.62665 Z M725.1864,315.73928 C725.15648,315.76528 725.12429,315.79528 725.0935,315.82262 C724.955607,314.809427 724.726565,313.810743 724.40916,312.83872 C722.72975,307.54208 721.83237,298.14448 721.35488,290.12483 L726.20296,306.43223 C726.20296,306.43223 726.45923,314.63252 725.1864,315.73928 L725.1864,315.73928 Z" id="Shape" fill="#D0CDE1"></path>
            <path d="M625.64399,248.3835 C625.64399,248.3835 599.35351,203.19674 598.53193,198.26728 C597.71035,193.33782 584.56514,184.30046 584.56514,184.30046 C580.07384,179.80917 572.70502,178.38805 564.94978,178.46197 C567.87023,176.04597 557.44325,174.42188 556.63151,172.79838 C555.80993,171.15522 553.3452,171.15522 550.05889,168.69049 C546.77278,166.22591 538.56999,168.27949 538.56909,168.2797 C537.335346,165.685119 536.477196,162.928135 536.02046,160.0917 C539.521541,155.949416 541.439266,150.699235 541.43232,145.27558 C541.43232,145.21658 541.42832,145.15858 541.42786,145.09967 C541.63696,145.42516 541.84612,145.75261 542.05543,146.09003 C543.59438,136.87115 546.31114,129.20813 541.13326,120.79839 C537.462806,114.837961 531.717447,110.445765 525.00298,108.46716 L520.07131,112.41248 L521.98866,107.81071 C520.376259,107.564733 518.744353,107.470418 517.11435,107.529 L512.67711,113.23406 L514.51363,107.72441 C506.729404,108.691769 499.704433,112.87042 495.13896,119.24901 C489.49142,127.39223 489.86941,138.71183 495.42396,146.91873 C495.44266,146.86126 495.4574,146.805 495.47581,146.74763 C495.974107,154.549133 500.401441,161.563237 507.22981,165.36917 L508.62505,176.53142 L508.62505,176.53142 C507.369246,177.697418 505.758363,178.408078 504.05056,178.54951 C501.58583,178.54951 499.1211,185.12213 499.1211,185.12213 C499.1211,185.12213 497.7242,185.82713 496.2186,189.15495 C492.34017,191.79529 480.50974,200.08919 476.12049,205.88495 C473.52397,207.16275 470.7348,210.00482 471.18749,216.34211 C472.00907,227.8442 471.18749,281.24673 471.18749,281.24673 C471.18749,281.24673 463.7933,326.43349 466.25803,329.7198 C468.72276,333.00611 465.43645,343.68661 465.43645,343.68661 L467.90118,344.23435 L467.90118,346.97292 C467.90118,346.97292 460.48778,381.33877 472.00907,379.83602 C490.90535,377.37129 476.93853,349.43766 476.93853,349.43766 L476.93853,346.24261 L480.22484,346.97292 C480.22484,346.97292 481.868,335.47084 485.15431,334.64926 C486.29737,334.36349 487.639,331.2925 488.90306,327.41112 C489.64014,333.46639 490.08377,337.11399 490.08377,337.11399 L495.2245,335.97159 L496.65639,341.22188 C497.009464,341.419824 497.378848,341.587152 497.76049,341.72203 L496.65639,347.7945 C496.65639,347.7945 495.83482,354.36712 496.65639,358.47501 C497.07074,360.5467 512.32127,404.82849 527.33823,448.21855 L527.05476,458.70745 C527.05476,458.70745 519.66056,466.92323 521.30376,472.67427 C522.94696,478.42531 517.19587,526.0768 517.19587,526.0768 L512.2664,549.90255 L513.50674,550.2842 L512.36815,554.45903 C511.387442,554.954263 510.515024,555.639604 509.80167,556.47517 C503.22905,563.86936 495.01328,585.23038 495.01328,585.23038 C495.01328,585.23038 480.22488,607.41297 503.22905,606.59138 C526.23322,605.76979 527.87638,597.55403 527.87638,597.55403 C527.87638,597.55403 531.16268,576.19303 531.16268,575.37144 C531.16268,574.54985 529.51953,566.10444 529.51953,566.10444 L528.88143,565.40066 L529.32702,555.152 L533.62742,556.47518 C533.62742,556.47518 537.7353,535.11418 541.02161,532.64943 C542.17014,531.78804 545.22593,522.19243 548.71473,509.86743 C552.28079,520.13543 555.73429,555.63988 556.85483,558.86251 C556.457644,559.404865 556.10807,559.98053 555.81001,560.58308 C552.116927,567.670049 548.001635,574.528872 543.48635,581.12252 C543.48635,581.12252 517.19587,596.73252 543.48635,600.84038 C543.48635,600.84038 558.27474,601.66196 565.66894,596.73249 C573.06314,591.80302 592.78099,584.40883 592.78099,582.76568 C592.78099,581.12253 587.85153,556.96812 582.92206,559.59718 L582.92206,559.59718 L579.61991,552.0024 L582.92206,550.72416 L562.12187,457.36034 C562.61374,455.370333 562.975284,453.350362 563.2042,451.31329 C563.2042,447.01099 573.84229,363.23606 576.54942,341.98738 C588.4637,345.36284 599.35361,320.68248 599.35361,320.68248 L602.05443,315.82096 L605.92623,318.21774 C605.92623,318.21774 609.21254,310.00197 614.142,309.18039 C619.07146,308.35881 628.10882,264.81521 628.10882,259.06417 C628.03351,255.371945 627.194273,251.735338 625.64399,248.3835 Z M587.36514,312.75322 C586.556701,311.469425 585.618436,310.272132 584.56514,309.18022 C586.713178,303.585571 588.362744,297.812087 589.4946,291.9271 C591.13776,282.88974 587.02987,253.31296 587.02987,253.31296 L586.95806,251.30429 C590.99043,256.59771 596.06722,263.65493 596.06722,265.63662 C596.067219,267.5761 596.980366,269.402393 598.53195,270.56608 L593.60249,287.81921 C593.60249,287.81921 590.31618,296.03498 589.4946,300.14287 C589.00222,302.578396 588.727278,305.052864 588.67302,307.53707 L589.83759,308.25795 L587.36514,312.75322 Z" id="Shape" fill="#D0CDE1"></path>
            <path d="M249.52229,263.59029 L253.90632,262.60388 L235.83159,211.66608 L196.80666,197.28848 C196.80666,197.28848 196.65718,197.45421 196.38123,197.73993 C193.0525,194.51841 191.63961,189.84379 191.04945,186.16419 C197.403467,183.597568 202.281817,178.330965 204.355299,171.799369 C206.428781,165.267772 205.481345,158.15175 201.77114,152.3902 C204.98689,151.61832 206.13501,148.70103 207.21429,145.22231 C206.546084,145.025116 205.864442,144.8767 205.17474,144.77823 C205.6805,143.64423 206.18623,142.51023 206.69193,141.37623 C205.80315,141.296403 204.914377,141.21659 204.02561,141.13679 C204.25287,140.076723 204.48011,139.01664 204.70733,137.95654 C203.573897,138.739 202.440483,139.521447 201.30709,140.30388 C202.089669,138.041494 201.652128,135.535569 200.14919,133.67224 C198.64409,131.853459 196.680953,130.469215 194.46234,129.66234 C185.616365,126.182072 175.567087,127.938437 168.42599,134.21285 L168.18033,133.25543 C161.24415,138.587466 156.705546,146.452541 155.55976,155.12597 C154.47161,163.69948 158.59023,172.42919 163.94362,179.21377 C163.89854,178.91762 163.8502,178.62221 163.80106,178.32716 C164.032393,178.64598 164.271353,178.958683 164.51794,179.26527 L165.17599,204.27189 L163.52782,205.68457 C163.52521,205.68573 135.8751,218.19523 134.79728,233.13666 L134.79412,233.14754 C133.13447,240.42129 132.31289,278.21385 132.31289,278.21385 L134.58803,278.21385 L132.31289,293.00225 L117.52447,350.5127 C117.52447,350.5127 98.62819,375.16002 115.05974,380.08949 C125.27038,383.1527 128.18361,371.30607 128.92646,361.89624 C129.51803,364.22864 131.2874,365.8054 134.7776,366.12267 C135.05229,366.14767 135.34554,366.1684 135.62921,366.19142 C127.85988,386.26957 133.13444,451.56672 133.13444,451.56672 C129.02655,459.7825 177.49962,516.47134 177.49962,516.47134 L180.41837,514.91468 L181.05,516.17784 C179.42564,516.33359 178.3212,516.47134 178.3212,516.47134 L178.3212,541.94024 C178.3212,541.94024 170.927,567.40914 180.78593,572.3386 C183.33701,573.61414 185.99781,572.68621 188.54117,570.61431 C188.05512,578.47411 187.35855,590.2031 187.35855,592.87804 C187.35855,596.98593 198.03906,604.38012 198.03906,604.38012 C198.03906,604.38012 200.50379,613.41748 220.22165,613.41748 C239.93951,613.41748 225.15114,589.5917 225.15114,589.5917 L214.47064,565.76595 C214.47064,565.76595 213.67152,566.15679 211.25307,564.18809 L212.11923,554.66052 L216.93537,555.08545 L223.50799,458.96089 C223.50799,458.96089 229.25899,373.51684 230.08061,360.3716 C230.273088,356.157182 230.173814,351.934497 229.7835,347.73378 L253.90632,297.9317 L249.52229,263.59029 Z M231.72373,295.46698 L229.259,304.05619 L229.259,285.06032 L231.72373,295.46698 Z M129.15558,356.39409 C129.17599,353.38323 129.02658,351.33425 129.02658,351.33425 L145.08841,319.21059 L144.63655,329.15166 C144.63655,329.15166 131.77305,345.42324 129.15558,356.39409 Z M166.81914,449.10196 L182.42914,394.05627 L191.46649,460.60404 L190.81849,484.7973 C189.717942,482.574142 188.834423,480.250001 188.18021,477.85717 C185.7154,467.99824 166.81914,449.10196 166.81914,449.10196 Z" id="Shape" fill="#D0CDE1"></path>
            <path d="M389.14895,579.86123 C381.45105,576.69153 366.50816,569.89923 364.69673,566.27673 C362.88555,562.65424 353.82925,534.57959 353.82925,534.57959 L351.49703,534.7492 C351.19637,521.99539 349.9123,472.56643 347.94266,466.6572 C347.94266,466.6572 357.45175,388.31997 338.43345,357.07569 L335.0068,343.23213 C336.13137,337.68253 335.98718,324.83174 335.2638,322.66165 C334.35809,319.94475 345.6786,311.34119 342.50891,305.90739 C339.33922,300.47359 330.73572,281.90815 330.73572,281.90815 C330.73572,281.90815 331.64131,270.1349 319.4152,259.26736 C319.4152,259.26736 315.84237,239.04048 299.74254,238.73912 C297.56608,234.94071 294.51954,228.90098 295.41591,226.21177 C296.37572,223.33251 300.04554,214.3562 302.11824,209.33196 C303.219101,208.834578 304.276496,208.24612 305.2794,207.57272 C318.08381,201.83572 327.11007,188.04454 327.11007,171.93372 C327.11007,154.68729 316.76993,140.09172 302.52032,135.1975 C304.255464,130.623694 303.095783,125.455851 299.572672,122.062016 C296.049562,118.66818 290.841996,117.702409 286.336219,119.607247 C281.830443,121.512084 278.894807,125.920429 278.8745,130.81226 C277.282781,127.039437 277.688308,122.719926 279.954427,119.309287 C282.220547,115.898648 286.045478,113.85108 290.14032,113.85656 C290.933889,113.857638 291.725482,113.93569 292.50398,114.08962 C286.949895,111.448148 280.298102,113.347963 276.976861,118.524312 C273.65562,123.700662 274.700839,130.539022 279.41669,134.48693 C279.557456,134.934073 279.724052,135.372671 279.91564,135.80051 C266.50724,141.21117 256.94252,155.34651 256.94252,171.93372 C256.94252,187.31994 265.17443,200.59204 277.06787,206.75253 C277.00453,211.75753 275.76323,220.19553 268.86087,225.33795 C265.29528,223.70876 260.34723,221.92053 257.17227,222.73165 C255.53052,221.45184 253.05281,221.02931 249.68155,224.40052 C242.88936,231.19277 237.00265,248.85261 237.00265,259.72021 C237.00265,270.58781 238.36115,333.52921 238.36115,333.52921 C238.36115,333.52921 231.11605,336.24611 236.09705,340.32146 C237.125837,341.178391 238.416565,341.658041 239.7553,341.68091 L244.70055,378.35806 C244.70055,378.35806 241.53085,413.67775 253.75696,414.13055 C254.715628,414.183179 255.668272,413.949328 256.4936,413.45877 L247.41745,454.43118 C247.41745,454.43118 226.58796,468.01568 210.28657,494.73182 C201.89036,508.49235 197.7043,516.95761 195.61337,521.94124 L192.62666,520.08957 L182.21198,540.01346 C182.21198,540.01346 159.11827,554.05081 164.09927,564.46555 C169.08027,574.88029 173.60848,577.59725 173.60848,577.59725 L176.77818,576.2388 L182.66466,587.1064 C182.66466,587.1064 198.06046,609.2944 222.96535,597.97394 C225.365398,594.748957 225.365398,590.331383 222.96535,587.1064 C218.89006,581.21975 208.47526,568.5409 208.47526,568.5409 L215.26745,534.1269 L213.86197,533.25549 L256.92665,481.14742 C256.92665,481.14742 269.60544,473.44952 274.13365,466.65727 C278.66186,459.86502 306.73645,389.67849 306.73645,389.67849 L322.58493,463.03472 C322.58493,463.03472 321.67934,489.75092 325.75463,506.95791 C327.975982,516.610152 329.42461,526.424065 330.08676,536.30646 L328.92444,536.391 L331.64134,556.76775 C331.64134,556.76775 319.86815,585.74799 328.01873,588.01204 C333.817539,589.510018 339.720833,590.569592 345.67863,591.18179 L346.58423,588.01204 C346.58423,588.01204 381.45113,607.03033 394.12991,592.99304 C394.12983,592.99293 396.84685,583.03098 389.14895,579.86123 Z M265.07714,357.52844 C266.43565,358.88689 265.98286,365.22629 265.98286,365.22629 L263.26596,382.88613 L260.55256,395.1352 C260.177229,389.348169 259.419707,383.592284 258.28495,377.9052 L257.0315,344.06238 C257.277907,344.21764 257.548517,344.330652 257.83216,344.39675 C258.73775,344.39675 258.28495,336.69891 258.28495,336.69891 C258.28495,336.69891 258.81347,335.32416 259.47295,333.15459 C261.23342,338.42459 263.38254,341.86319 265.98283,342.58551 L266.43562,348.4721 C266.43562,348.4721 260.54903,351.189 265.98283,351.189 C266.298084,351.177347 266.611082,351.130851 266.91611,351.05036 L266.43562,353.4531 C266.43562,353.4531 263.71877,356.16999 265.07714,357.52844 Z" id="Shape" fill="#D0CDE1"></path>
            <ellipse id="Oval" fill="#3F3D56" cx="381.40899" cy="594.9554" rx="364" ry="6"></ellipse>
            <ellipse id="Oval" fill="#3F3D56" cx="508.80675" cy="610.4554" rx="400.39775" ry="15.5"></ellipse>
            <ellipse id="Oval" fill="#3F3D56" cx="434.90899" cy="633.4554" rx="196.5" ry="15.5"></ellipse>
            <ellipse id="Oval" fill="#3F3D56" cx="718.90899" cy="651.9554" rx="87.5" ry="8"></ellipse>
            <ellipse id="Oval" fill="#3F3D56" cx="598.90899" cy="678.9554" rx="41.5" ry="8"></ellipse>
            <ellipse id="Oval" fill="#3F3D56" cx="260.90899" cy="644.9554" rx="41.5" ry="8"></ellipse>
            <polygon id="Path" fill="#FFB8B8" points="465.909 554.455 469.909 582.455 489.909 580.455 487.909 551.455"></polygon>
            <polygon id="Path" fill="#FFB8B8" points="370.909 554.455 366.909 582.455 346.909 580.455 348.909 551.455"></polygon>
            <path d="M341.90899,264.4554 C341.90899,264.4554 323.90899,285.4554 327.90899,318.4554 C331.90899,351.4554 338.90899,426.4554 338.90899,426.4554 L343.90899,559.4554 L375.90899,557.4554 L380.90899,444.4554 L396.90899,353.4554 L439.90899,459.4554 C439.90899,459.4554 460.90899,558.4554 461.90899,558.4554 C462.90899,558.4554 491.90899,555.4554 491.90899,555.4554 L477.90899,438.4554 C477.90899,438.4554 455.90899,268.4554 442.90899,265.4554 C429.90899,262.4554 341.90899,264.4554 341.90899,264.4554 Z" id="Path" fill="#2F2E41"></path>
            <path d="M491.90899,576.4554 C491.90899,576.4554 473.90899,564.4554 466.90899,578.4554 C459.90899,592.4554 465.90899,602.4554 465.90899,602.4554 C465.90899,602.4554 471.90899,606.4554 468.90899,610.4554 C465.90899,614.4554 464.90899,640.4554 490.90899,636.4554 C516.90899,632.4554 503.90899,605.4554 503.90899,605.4554 L491.90899,576.4554 Z" id="Path" fill="#2F2E41"></path>
            <path d="M344.90899,576.4554 C344.90899,576.4554 362.90899,564.4554 369.90899,578.4554 C376.90899,592.4554 370.90899,602.4554 370.90899,602.4554 C370.90899,602.4554 364.90899,606.4554 367.90899,610.4554 C370.90899,614.4554 371.90899,640.4554 345.90899,636.4554 C319.90899,632.4554 332.90899,605.4554 332.90899,605.4554 L344.90899,576.4554 Z" id="Path" fill="#2F2E41"></path>
            <path d="M366.40899,69.9554 C366.40899,69.9554 375.40899,94.9554 368.40899,108.9554 C361.40899,122.9554 379.40899,138.9554 379.40899,138.9554 C379.40899,138.9554 426.40899,114.9554 420.40899,102.9554 C414.40899,90.9554 404.40899,74.9554 406.40899,64.9554 L366.40899,69.9554 Z" id="Path" fill="#FFB8B8"></path>
            <circle id="Oval" fill="#FFB8B8" cx="383.90899" cy="47.4554" r="32"></circle>
            <path d="M360.90899,107.4554 C360.90899,107.4554 393.01699,134.17373 416.96299,96.31457 L441.90899,110.4554 L454.90899,262.4554 C454.90899,262.4554 381.90899,304.4554 346.90899,268.4554 L351.90899,127.4554 L360.90899,107.4554 Z" id="Path" fill="#D0CDE1"></path>
            <polygon id="Path" fill="#575A89" points="370.992 92.488 325.909 122.455 341.909 196.455 320.909 311.455 354.909 260.455"></polygon>
            <path d="M410.83624,84.14694 L421.90899,91.4554 L466.90899,107.4554 L459.90899,231.4554 L478.90899,311.4554 L451.90899,325.4554 C451.90899,325.4554 446.90899,287.4554 415.90899,268.4554 C384.90899,249.4554 403.76349,89.83848 410.83624,84.14694 Z" id="Path" fill="#575A89"></path>
            <path d="M335.90899,278.4554 L348.90899,287.4554 C348.90899,287.4554 332.40899,304.9554 329.40899,301.9554 C327.651249,300.267824 326.735125,297.885901 326.90899,295.4554 L323.90899,288.4554 L335.90899,278.4554 Z" id="Path" fill="#FFB8B8"></path>
            <path d="M422.32864,276.50997 L417.90899,283.4554 C417.90899,283.4554 404.90899,289.4554 407.90899,293.4554 C410.90899,297.4554 435.90899,306.4554 440.90899,297.4554 L445.90899,288.4554 L422.32864,276.50997 Z" id="Path" fill="#FFB8B8"></path>
            <path d="M331.90899,121.4554 L324.90899,122.4554 L313.40899,196.9554 C313.40899,196.9554 308.90899,210.4554 313.90899,242.4554 C318.90899,274.4554 323.86036,295.29315 323.86036,295.29315 L345.90899,279.4554 L335.90899,253.4554 L348.90899,158.4554 L331.90899,121.4554 Z" id="Path" fill="#575A89"></path>
            <path d="M450.90899,105.4554 L466.90899,107.4554 C466.90899,107.4554 484.90899,126.4554 487.90899,146.4554 C490.90899,166.4554 489.90899,223.4554 489.90899,223.4554 L443.90899,296.4554 L418.90899,278.4554 L453.90899,216.4554 L436.90899,142.4554 L450.90899,105.4554 Z" id="Path" fill="#575A89"></path>
            <path d="M414.42434,18.51313 C409.58541,10.6552099 402.011032,4.86476851 393.15903,2.25628 L386.65738,7.45758 L389.18511,1.39085 C387.059417,1.0665666 384.908009,0.942222869 382.75911,1.01945 L376.90928,8.5407 L379.33045,1.27708 C369.068134,2.55238916 359.806782,8.06130512 353.78791,16.47051 C346.34248,27.20609 345.08616,42.13586 352.40902,52.9554 C354.41925,46.77781 356.85902,40.98116 358.86928,34.8035 C360.449144,35.018872 362.050393,35.0266715 363.63228,34.8267 L366.07804,29.12007 L366.76121,34.58534 C374.34162,33.92485 385.58526,32.47495 392.7718,31.14643 L392.07303,26.95382 L396.25387,30.43788 C398.45569,29.93096 399.76292,29.47137 399.65487,29.12007 C404.99963,37.73648 410.29546,43.23996 415.64008,51.8563 C417.66896,39.70262 421.25059,29.60009 414.42434,18.51313 Z" id="Path" fill="#2F2E41"></path>
            <ellipse id="Oval" fill="#FFB8B8" cx="412.65237" cy="46.45007" rx="2.16625" ry="4.3325"></ellipse>
            <path d="M758.77688,612.03562 C759.69852,643.59384 741.2592,655.15922 718.11839,655.83503 C717.58087,655.85073 717.045767,655.860353 716.51308,655.8639 C715.43994,655.87208 714.37722,655.85421 713.32492,655.81029 C692.39637,654.94146 675.83021,643.83212 674.97309,614.48305 C674.08609,584.1104 711.78509,544.64705 714.61351,541.72792 L714.61851,541.72519 C714.72596,541.61395 714.78099,541.5583 714.78099,541.5583 C714.78099,541.5583 757.85532,580.47996 758.77688,612.03562 Z" id="Path" fill="#14B0BB"></path>
            <path d="M716.45234,651.05235 L731.15219,629.1922 L716.48241,653.40408 L716.51308,655.8639 C715.43994,655.87208 714.37722,655.85421 713.32492,655.81029 L714.05399,624.19098 L714.03399,623.94705 L714.06089,623.89992 L714.13067,620.91208 L698.03264,597.53956 L714.11171,618.67586 L714.16877,619.3074 L714.71946,595.41777 L700.81507,571.18583 L714.75907,591.22106 L714.61352,541.72792 L714.61383,541.56319 L714.61856,541.72519 L715.54156,580.73245 L728.21375,564.8877 L715.58305,584.09286 L715.85962,605.46157 L727.52062,584.60651 L715.90245,608.60313 L716.05645,620.48521 L733.01473,591.43437 L716.108,624.63037 L716.45234,651.05235 Z" id="Path" fill="#3F3D56"></path>
            <path d="M222.77688,565.03562 C223.69852,596.59384 205.2592,608.15922 182.11839,608.83503 C181.58087,608.85073 181.045767,608.860353 180.51308,608.8639 C179.43994,608.87208 178.37722,608.85421 177.32492,608.81029 C156.39637,607.94146 139.83021,596.83212 138.97309,567.48305 C138.08609,537.1104 175.78509,497.64705 178.61351,494.72792 L178.61851,494.72519 C178.72596,494.61395 178.78099,494.5583 178.78099,494.5583 C178.78099,494.5583 221.85532,533.47996 222.77688,565.03562 Z" id="Path" fill="#14B0BB"></path>
            <path d="M180.45234,604.05235 L195.15219,582.1922 L180.48241,606.40408 L180.51308,608.8639 C179.43994,608.87208 178.37722,608.85421 177.32492,608.81029 L178.05399,577.19098 L178.03399,576.94705 L178.06089,576.89992 L178.13067,573.91208 L162.03264,550.53956 L178.11171,571.67586 L178.16877,572.3074 L178.71946,548.41777 L164.81507,524.18583 L178.75907,544.22106 L178.61352,494.72792 L178.61383,494.56319 L178.61856,494.72519 L179.54156,533.73245 L192.21375,517.8877 L179.58305,537.09286 L179.85962,558.46157 L191.52062,537.60651 L179.90245,561.60313 L180.05645,573.48521 L197.01473,544.43437 L180.108,577.63037 L180.45234,604.05235 Z" id="Path" fill="#3F3D56"></path>
            <path d="M623.29474,656.52631 C623.83574,675.05023 613.01228,681.83884 599.42918,682.23552 C599.113673,682.24474 598.79958,682.250387 598.4869,682.25246 C597.856987,682.257273 597.233193,682.246787 596.61552,682.221 C584.33097,681.711 574.60703,675.1901 574.10392,657.9629 C573.58327,640.1349 595.71166,616.97083 597.37192,615.25738 L597.37492,615.25578 C597.43799,615.19048 597.47029,615.15778 597.47029,615.15778 C597.47029,615.15778 622.75381,638.0039 623.29474,656.52631 Z" id="Path" fill="#14B0BB"></path>
            <path d="M598.45125,679.4282 L607.07971,666.59682 L598.4689,680.80861 L598.4869,682.25246 C597.856987,682.257273 597.233193,682.246787 596.61552,682.221 L597.04352,663.66122 L597.03179,663.51804 L597.04758,663.49037 L597.08858,661.73659 L587.6394,648.01748 L597.0774,660.42398 L597.1109,660.79467 L597.43414,646.77204 L589.27259,632.54846 L597.45738,644.30866 L597.37195,615.25738 L597.37213,615.16068 L597.37491,615.25578 L597.91669,638.1521 L605.35496,628.8516 L597.94104,640.1246 L598.10339,652.66752 L604.94813,640.4261 L598.12854,654.51155 L598.21891,661.48604 L608.17301,644.43389 L598.24914,663.91912 L598.45125,679.4282 Z" id="Path" fill="#3F3D56"></path>
            <path d="M959.19451,52.18703 C959.2232,52.09584 959.25351,52.0035 959.28228,51.91203 C959.26983,51.95213 959.25421,51.9907 959.242,52.03092 L959.19451,52.18703 Z" id="Path" fill="#2F2E41"></path>
            <path d="M819.45181,582.80824 L893.51972,472.66185 L819.6033,594.65785 L819.75787,607.05208 C814.35061,607.09332 808.995883,607.00328 803.69369,606.78196 L807.36729,447.46222 L807.26664,446.23313 L807.40219,445.99565 L807.7538,430.94091 L726.64071,313.17416 L807.65814,419.67331 L807.94564,422.85542 L810.72039,302.48314 L740.6605,180.38598 L810.91988,281.33719 L810.18652,31.95685 L810.18808,31.12685 L810.21192,31.94315 L814.86266,228.48841 L878.71384,148.6516 L815.0717,245.42033 L816.46529,353.09054 L875.2215,248.00854 L816.68123,368.91991 L817.45698,428.78996 L902.90439,282.41196 L817.71675,449.67607 L819.45181,582.80824 Z" id="Path" fill="#3F3D56"></path>
            <path d="M63.15527,578.53854 L113.55634,503.58711 L63.25834,586.60188 L63.36352,595.03579 C59.68404,595.06385 56.0403033,595.00258 52.43231,594.85198 L54.93214,486.43951 L54.86365,485.60315 L54.95589,485.44155 L55.19515,475.19723 L4e-05,395.06034 L55.13004,467.52994 L55.32568,469.69527 L57.21381,387.78541 L9.5401,304.70182 L57.34958,373.39621 L56.85058,203.70009 L56.85165,203.13528 L56.86787,203.69075 L60.03256,337.43413 L103.48145,283.1075 L60.17481,348.95582 L61.1231,422.22229 L101.10501,350.71699 L61.27001,432.99371 L61.79789,473.73356 L119.94237,374.12756 L61.97461,487.94595 L63.15527,578.53854 Z" id="Path" fill="#3F3D56"></path>
        </g>
    </g>
</svg>