<?xml version="1.0" encoding="UTF-8"?>
<svg width="256px" height="79px" viewBox="0 0 256 79" version="1.1" xmlns="http://www.w3.org/2000/svg" xmlns:xlink="http://www.w3.org/1999/xlink">
    <!-- Generator: sketchtool 58 (101010) - https://sketch.com -->
    <title>29F02EDF-B5F5-4340-996B-F41CEB911D88</title>
    <desc>Created with sketchtool.</desc>
    <g id="Blog-main-page" stroke="none" stroke-width="1" fill="none" fill-rule="evenodd">
        <g id="Blog-main-page-Extra-large:-Desktops---12-col" transform="translate(-165.000000, -2447.000000)" fill="#FFFFFF">
            <g id="footer/XL" transform="translate(0.000000, 2314.000000)">
                <g id="footer">
                    <g id="footer-container" transform="translate(165.000000, 133.000000)">
                        <g id="logo/big/horisontal/color">
                            <g id="Group-2">
                                <g id="Group" fill-rule="nonzero">
                                    <g id="Combined-Shape">
                                        <path d="M11.2079133,50.9468146 C17.0406074,50.0584917 24.6199245,50.8338189 31.7722456,52.626512 C32.8352959,52.8930428 33.961678,53.1906561 35.5603492,53.6237456 C36.0060108,53.744478 37.6292877,54.1859814 37.5844523,54.1738012 C38.4146346,54.3993321 39.0520892,54.5714559 39.6813504,54.7395294 C45.146831,56.1993396 49.1237037,57.0946366 53.1199153,57.6593669 C58.9021504,58.4764917 63.9358008,58.4236616 68.3895388,57.3070085 C71.8429725,56.44135 74.8308782,54.8755676 77.3856838,52.7282974 C72.0596564,58.8480822 64.2232285,62.7154047 55.4874165,62.7154047 L55.465151,62.7151193 C54.8374424,62.7070328 41.0716531,62.5271078 31.2296219,62.1753444 C25.496353,61.9701215 19.0235391,62.1753444 9.68947575,70.0962291 C0.677276665,77.7439798 0.369857884,78.3433333 0.35937264,78.3755744 L0.358527476,77.9348911 C0.35339954,75.2356511 0.307617936,67.9061663 0.263640135,59.3013309 C1.25362595,54.5447314 5.01141902,51.8905444 11.2079133,50.9468146 Z M55.4874165,0.0720080426 C71.5348254,0.0720080426 84.5414837,13.1198654 84.5414837,29.2100625 L84.5414837,33.5773503 L84.5378607,34.0519825 C84.415426,34.6225587 84.2683339,35.2322831 84.0943949,35.8737659 C83.3592872,38.5848244 82.3049326,41.2947297 80.8798689,43.8126946 C77.8183943,49.2220567 73.4978802,52.982019 67.6724608,54.4422537 C63.6360984,55.4542613 58.9681769,55.5032528 53.5325284,54.7351065 C49.6791454,54.1905602 45.8026174,53.3178534 40.4423144,51.8861357 C39.8177868,51.7193266 39.1840317,51.5482017 38.357544,51.3236745 C38.4036762,51.336207 36.7787783,50.8942627 36.3314305,50.7730736 C34.7163071,50.335527 33.5743066,50.033787 32.4892951,49.76175 C24.9906841,47.8822611 17.0492901,47.0698952 10.763929,48.0271595 C6.18209045,48.7249763 2.58953744,50.3415564 0.232644527,52.9312007 C0.206252412,47.0244434 0.184769784,40.9154247 0.180339848,35.5461932 L0.179501218,29.2100625 C0.179501218,13.116265 13.1897495,0.0720080426 29.2335684,0.0720080426 L55.4874165,0.0720080426 Z M54.1770577,5.46901084 C67.3757011,9.26515326 75.8205398,17.696642 79.5154496,30.8806491 C79.5154496,16.8462816 68.1709726,5.46901084 54.1770577,5.46901084 Z"></path>
                                    </g>
                                </g>
                                <path d="M99.9500806,48.673276 L99.9500806,30.3204764 L105.068685,30.3204764 C106.56948,30.3204764 107.915143,30.6629073 109.105718,31.3477794 C110.296292,32.0326515 111.224842,33.0137266 111.891396,34.291034 C112.557949,35.5683415 112.891221,37.0220972 112.891221,38.6523449 L112.891221,40.3414075 C112.891221,41.9800585 112.560046,43.4338143 111.897684,44.7027184 C111.235322,45.9716225 110.30258,46.9505968 109.099429,47.6396705 C107.896279,48.3287443 106.514982,48.673276 104.955498,48.673276 L99.9500806,48.673276 Z M101.496981,31.6439956 L101.496981,47.3623617 L104.968074,47.3623617 C106.896469,47.3623617 108.443353,46.7216168 109.608775,45.4401077 C110.774196,44.1585985 111.356898,42.425436 111.356898,40.2405679 L111.356898,38.627135 C111.356898,36.517897 110.78258,34.8288513 109.633927,33.5599472 C108.485275,32.2910431 106.971927,31.652399 105.093838,31.6439956 L101.496981,31.6439956 Z M123.656641,41.0346795 L118.336813,41.0346795 L118.336813,48.673276 L116.777337,48.673276 L116.777337,30.3204764 L122.725985,30.3204764 C124.679533,30.3204764 126.205457,30.7952579 127.303804,31.7448352 C128.40215,32.6944124 128.951315,34.02212 128.951315,35.7279977 C128.951315,36.9044651 128.607563,37.9422618 127.920049,38.8414191 C127.232534,39.7405763 126.310272,40.362414 125.153235,40.7069509 L129.731054,48.5094117 L129.731054,48.673276 L128.083542,48.673276 L123.656641,41.0346795 Z M118.336813,39.7111603 L123.078125,39.7111603 C124.377696,39.7111603 125.421528,39.3414189 126.209655,38.6019251 C126.997781,37.8624313 127.391839,36.9044651 127.391839,35.7279977 C127.391839,34.4338836 126.981013,33.4296997 126.159349,32.7154159 C125.337685,32.0011321 124.184858,31.6439956 122.700833,31.6439956 L118.336813,31.6439956 L118.336813,39.7111603 Z M143.275863,39.8750245 L134.711318,39.8750245 L134.711318,47.3623617 L144.558658,47.3623617 L144.558658,48.673276 L133.164418,48.673276 L133.164418,30.3204764 L144.495776,30.3204764 L144.495776,31.6439956 L134.711318,31.6439956 L134.711318,38.5641103 L143.275863,38.5641103 L143.275863,39.8750245 Z M157.701022,43.5304585 L149.388005,43.5304585 L147.501542,48.673276 L145.879183,48.673276 L152.808793,30.3204764 L154.280234,30.3204764 L161.209844,48.673276 L159.600062,48.673276 L157.701022,43.5304585 Z M149.865909,42.2069393 L157.210541,42.2069393 L153.538225,32.2112181 L149.865909,42.2069393 Z M165.951156,30.3204764 L172.704696,46.5178304 L179.483389,30.3204764 L181.545923,30.3204764 L181.545923,48.673276 L179.999023,48.673276 L179.999023,40.681741 L180.124787,32.4885269 L173.308365,48.673276 L172.113604,48.673276 L165.322335,32.5515516 L165.448099,40.6313212 L165.448099,48.673276 L163.901199,48.673276 L163.901199,30.3204764 L165.951156,30.3204764 Z M204.372133,31.6439956 L198.096497,31.6439956 L198.096497,48.673276 L196.549597,48.673276 L196.549597,31.6439956 L190.286538,31.6439956 L190.286538,30.3204764 L204.372133,30.3204764 L204.372133,31.6439956 Z M217.439038,39.8750245 L208.874493,39.8750245 L208.874493,47.3623617 L218.721834,47.3623617 L218.721834,48.673276 L207.327593,48.673276 L207.327593,30.3204764 L218.658951,30.3204764 L218.658951,31.6439956 L208.874493,31.6439956 L208.874493,38.5641103 L217.439038,38.5641103 L217.439038,39.8750245 Z M231.864197,43.5304585 L223.551181,43.5304585 L221.664717,48.673276 L220.042358,48.673276 L226.971968,30.3204764 L228.44341,30.3204764 L235.37302,48.673276 L233.763237,48.673276 L231.864197,43.5304585 Z M224.029085,42.2069393 L231.373717,42.2069393 L227.701401,32.2112181 L224.029085,42.2069393 Z M240.114332,30.3204764 L246.867872,46.5178304 L253.646564,30.3204764 L255.709098,30.3204764 L255.709098,48.673276 L254.162198,48.673276 L254.162198,40.681741 L254.287962,32.4885269 L247.47154,48.673276 L246.27678,48.673276 L239.48551,32.5515516 L239.611275,40.6313212 L239.611275,48.673276 L238.064374,48.673276 L238.064374,30.3204764 L240.114332,30.3204764 Z" id="Logo-text-color"></path>
                            </g>
                        </g>
                    </g>
                </g>
            </g>
        </g>
    </g>
</svg>