<?xml version="1.0" encoding="UTF-8"?>
<svg width="100px" height="100px" viewBox="0 0 100 100" version="1.1" xmlns="http://www.w3.org/2000/svg" xmlns:xlink="http://www.w3.org/1999/xlink">
    <!-- Generator: Sketch 60.1 (88133) - https://sketch.com -->
    <title>icon</title>
    <desc>Created with Sketch.</desc>
    <g id="Downloads-page" stroke="none" stroke-width="1" fill="none" fill-rule="evenodd">
        <g id="Blog-category-page-Extra-large:-Desktops---12-col" transform="translate(-925.000000, -1226.000000)">
            <g id="support" transform="translate(165.000000, 1226.000000)">
                <g id="Group-2-Copy-2" transform="translate(760.000000, 0.000000)">
                    <g id="icon">
                        <circle id="Oval" fill="#D9D9D9" cx="50" cy="50" r="50"></circle>
                        <path d="M68.4686607,71.4999869 C69.0358132,71.4999869 69.4999082,71.0358919 69.4999082,70.4687393 L69.4999082,69.781241 C69.4999082,69.2140884 69.0358132,68.7499934 68.4686607,68.7499934 L68.1850844,68.7499934 C67.8413352,67.0140433 67.9100682,64.4788931 68.2194089,63.0953362 C68.9670802,62.7859116 69.4999082,62.0468844 69.4999082,61.1875115 L69.4999082,29.5625869 C69.4999082,28.4196376 68.5803624,27.5000918 67.4374131,27.5000918 L37.8749836,27.5000918 C34.0765384,27.5000918 31,30.5766302 31,34.3750754 L31,66 C31,69.0378498 33.4621371,71.4999869 36.4999869,71.4999869 L68.4686607,71.4999869 Z M33.7499934,61.2631262 L33.7499934,34.3750754 C33.7499934,32.0977371 35.5976453,30.2500852 37.8749836,30.2500852 L66.7499148,30.2500852 L66.7499148,60.5000131 L36.4999869,60.5000131 C35.4928253,60.5000131 34.5621177,60.7904711 33.7499934,61.2631262 Z M65.7444316,68.7499934 L36.4999869,68.7499934 C34.9814816,68.7499934 33.7499934,67.5185053 33.7499934,66 C33.7499934,64.4814947 34.9814816,63.2500066 36.4999869,63.2500066 L65.7444316,63.2500066 C65.4952638,64.8656109 65.4780596,66.9968391 65.7444316,68.7499934 Z" id="Combined-Shape" fill="#6C7580"></path>
                    </g>
                </g>
            </g>
        </g>
    </g>
</svg>