<?xml version="1.0" encoding="UTF-8"?>
<svg width="68px" height="53px" viewBox="0 0 68 53" version="1.1" xmlns="http://www.w3.org/2000/svg" xmlns:xlink="http://www.w3.org/1999/xlink">
    <!-- Generator: Sketch 60.1 (88133) - https://sketch.com -->
    <title>Combined Shape</title>
    <desc>Created with Sketch.</desc>
    <defs>
        <linearGradient x1="58.5021607%" y1="39.8706229%" x2="-20.010652%" y2="88.9357553%" id="linearGradient-1">
            <stop stop-color="#14B0BB" offset="0%"></stop>
            <stop stop-color="#517EC2" offset="100%"></stop>
        </linearGradient>
    </defs>
    <g id="Downloads-page" stroke="none" stroke-width="1" fill="none" fill-rule="evenodd">
        <g id="Blog-category-page-Extra-large:-Desktops---12-col" transform="translate(-221.000000, -891.000000)" fill="url(#linearGradient-1)">
            <g id="Group-9" transform="translate(165.000000, 831.000000)">
                <g id="Group-8" transform="translate(55.000000, 60.000000)">
                    <path d="M65.804533,52.7499911 C66.8826783,52.7499911 67.8553094,52.1054613 68.288925,51.10937 C68.7107532,50.1132786 68.511512,48.9648667 67.7732554,48.1796895 C67.7264492,48.1445562 65.1365429,45.3555232 63.3436014,41.7578527 C66.5662499,38.5820103 68.4998391,34.5976448 68.4998391,30.2500447 C68.4998391,20.8750671 59.5350167,13.1290375 47.8514279,11.7461368 C44.1600305,4.99619866 35.4881761,0.250116229 25.3749419,0.250116229 C11.9100845,0.250116229 1,8.64067545 1,19.0000715 C1,23.3359987 2.93358914,27.3203642 6.15623771,30.5078795 C4.36329612,34.10555 1.78517727,36.894583 1.7382566,36.9413892 C1,37.7265665 0.789085891,38.8749784 1.2227015,39.8710697 C1.64452971,40.8671611 2.62894814,41.5116908 3.70697902,41.5116908 C9.97649532,41.5116908 15.0390061,39.1446005 18.3788419,36.9648496 C19.4569872,37.2110114 20.5702658,37.3984652 21.7070048,37.5391127 C25.3866148,44.2655905 34.0233359,49 44.1248972,49 C46.5623685,49 48.9061129,48.7187049 51.1326701,48.2031498 C54.4725059,50.3711134 59.5233437,52.7499911 65.804533,52.7499911 Z M10.2577904,34.7500798 C10.5742188,34.1992769 10.8906472,33.6133408 11.1952882,33.0156173 L13.0116901,29.3711405 L10.1054699,26.5000536 C8.52344245,24.9296991 6.62498659,22.3633676 6.62498659,19.0000715 C6.62498659,11.8867843 15.214787,5.87510282 25.3749419,5.87510282 C35.5350968,5.87510282 44.1248972,11.8867843 44.1248972,19.0000715 C44.1248972,26.1133587 35.5350968,32.1250402 25.3749419,32.1250402 C23.4413527,32.1250402 21.5077636,31.9023387 19.6327681,31.4688376 L17.312484,30.9414951 L15.3085139,32.2422275 C13.6562198,33.3085854 11.9686781,34.1523563 10.2577904,34.7500798 Z M59.2537216,45.9882655 C57.5428339,45.3906565 55.8552922,44.5468856 54.2029982,43.4805277 L52.1991425,42.1796809 L49.867071,42.7188108 C47.9920755,43.1523119 46.0584863,43.3750134 44.1248972,43.3750134 C37.7967873,43.3750134 32.1483403,41.0195961 28.738238,37.5507857 C40.6092806,36.2851866 49.7498838,28.4805634 49.7498838,19.0000715 C49.7498838,18.6015892 49.7029631,18.2148943 49.6678298,17.8281993 C57.2147326,19.527414 62.8748525,24.4844106 62.8748525,30.2500447 C62.8748525,33.6133408 60.9763966,36.1796723 59.3943691,37.7500268 L56.4998219,40.6094408 L58.3162238,44.2539176 C58.6209793,44.8515266 58.9374076,45.4374627 59.2537216,45.9882655 Z" id="Combined-Shape"></path>
                </g>
            </g>
        </g>
    </g>
</svg>