<?xml version="1.0" encoding="UTF-8"?>
<svg width="100px" height="100px" viewBox="0 0 100 100" version="1.1" xmlns="http://www.w3.org/2000/svg" xmlns:xlink="http://www.w3.org/1999/xlink">
    <!-- Generator: Sketch 60.1 (88133) - https://sketch.com -->
    <title>icon</title>
    <desc>Created with Sketch.</desc>
    <g id="Downloads-page" stroke="none" stroke-width="1" fill="none" fill-rule="evenodd">
        <g id="Blog-category-page-Extra-large:-Desktops---12-col" transform="translate(-165.000000, -1226.000000)">
            <g id="support" transform="translate(165.000000, 1226.000000)">
                <g id="Group-4">
                    <g id="icon">
                        <circle id="Oval" fill="#D9D9D9" cx="50" cy="50" r="50"></circle>
                        <path d="M63.4999249,73.9999857 C65.984294,73.9999857 67.9999142,71.9843655 67.9999142,69.4999964 L67.9999142,36.5000751 C67.9999142,34.015706 65.984294,32.0000858 63.4999249,32.0000858 L55.1937313,32.0000858 C55.2311763,31.756373 55.2499446,31.5032303 55.2499446,31.2500876 C55.2499446,28.3531829 52.8968618,26.0001001 49.9999571,26.0001001 C47.1030524,26.0001001 44.7499696,28.3531829 44.7499696,31.2500876 C44.7499696,31.5032303 44.7687379,31.756373 44.8061828,32.0000858 L36.4999893,32.0000858 C34.0156202,32.0000858 32,34.015706 32,36.5000751 L32,69.4999964 C32,71.9843655 34.0156202,73.9999857 36.4999893,73.9999857 L63.4999249,73.9999857 Z M49.9999571,33.5000823 C48.7531034,33.5000823 47.7499624,32.4969413 47.7499624,31.2500876 C47.7499624,30.0032339 48.7531034,29.000093 49.9999571,29.000093 C51.2468108,29.000093 52.2499517,30.0032339 52.2499517,31.2500876 C52.2499517,32.4969413 51.2468108,33.5000823 49.9999571,33.5000823 Z M63.4999249,70.9999928 L36.4999893,70.9999928 C35.6750095,70.9999928 34.9999928,70.3249761 34.9999928,69.4999964 L34.9999928,36.5000751 C34.9999928,35.6750954 35.6750095,35.0000787 36.4999893,35.0000787 L40.9999785,35.0000787 L40.9999785,36.8750742 C40.9999785,37.4937861 41.506264,38.0000715 42.1249759,38.0000715 L57.8749383,38.0000715 C58.4936502,38.0000715 58.9999356,37.4937861 58.9999356,36.8750742 L58.9999356,35.0000787 L63.4999249,35.0000787 C64.3249046,35.0000787 64.9999213,35.6750954 64.9999213,36.5000751 L64.9999213,69.4999964 C64.9999213,70.3249761 64.3249046,70.9999928 63.4999249,70.9999928 Z M42.499975,52.2500376 C43.7468287,52.2500376 44.7499696,51.2468966 44.7499696,50.0000429 C44.7499696,48.7531892 43.7468287,47.7500483 42.499975,47.7500483 C41.2531212,47.7500483 40.2499803,48.7531892 40.2499803,50.0000429 C40.2499803,51.2468966 41.2531212,52.2500376 42.499975,52.2500376 Z M58.2499374,51.5000393 C58.6624731,51.5000393 58.9999356,51.1625768 58.9999356,50.7500411 L58.9999356,49.2500447 C58.9999356,48.8375091 58.6624731,48.5000465 58.2499374,48.5000465 L47.7499624,48.5000465 C47.3374268,48.5000465 46.9999642,48.8375091 46.9999642,49.2500447 L46.9999642,50.7500411 C46.9999642,51.1625768 47.3374268,51.5000393 47.7499624,51.5000393 L58.2499374,51.5000393 Z M42.499975,61.2500161 C43.7468287,61.2500161 44.7499696,60.2468752 44.7499696,59.0000215 C44.7499696,57.7531677 43.7468287,56.7500268 42.499975,56.7500268 C41.2531212,56.7500268 40.2499803,57.7531677 40.2499803,59.0000215 C40.2499803,60.2468752 41.2531212,61.2500161 42.499975,61.2500161 Z M58.2499374,60.5000179 C58.6624731,60.5000179 58.9999356,60.1625553 58.9999356,59.7500197 L58.9999356,58.2500232 C58.9999356,57.8374876 58.6624731,57.500025 58.2499374,57.500025 L47.7499624,57.500025 C47.3374268,57.500025 46.9999642,57.8374876 46.9999642,58.2500232 L46.9999642,59.7500197 C46.9999642,60.1625553 47.3374268,60.5000179 47.7499624,60.5000179 L58.2499374,60.5000179 Z" id="Combined-Shape" fill="#6C7580"></path>
                    </g>
                </g>
            </g>
        </g>
    </g>
</svg>