<?xml version="1.0" encoding="UTF-8"?>
<svg width="100px" height="100px" viewBox="0 0 100 100" version="1.1" xmlns="http://www.w3.org/2000/svg" xmlns:xlink="http://www.w3.org/1999/xlink">
    <!-- Generator: Sketch 60.1 (88133) - https://sketch.com -->
    <title>icon</title>
    <desc>Created with Sketch.</desc>
    <g id="Downloads-page" stroke="none" stroke-width="1" fill="none" fill-rule="evenodd">
        <g id="Blog-category-page-Extra-large:-Desktops---12-col" transform="translate(-545.000000, -1226.000000)">
            <g id="support" transform="translate(165.000000, 1226.000000)">
                <g id="Group-4-Copy" transform="translate(380.000000, 0.000000)">
                    <g id="icon">
                        <circle id="Oval" fill="#D9D9D9" cx="50" cy="50" r="50"></circle>
                        <path d="M50.7968302,64.6718829 L64.6717971,50.7500411 C65.1124394,50.3093989 65.1124394,49.5969372 64.6717971,49.1656333 L64.0062103,48.5000465 C63.5655681,48.0594042 62.8530148,48.0594042 62.4124641,48.5000465 L51.5937033,59.3656822 L51.5937033,30.1250903 C51.5937033,29.5063784 51.0874179,29.000093 50.468706,29.000093 L49.5312082,29.000093 C48.9124963,29.000093 48.4062109,29.5063784 48.4062109,30.1250903 L48.4062109,59.3656822 L37.5874501,48.4907081 C37.1468993,48.0500659 36.4343461,48.0500659 35.9937039,48.4907081 L35.3281171,49.1562949 C34.8874748,49.5969372 34.8874748,50.3093989 35.3281171,50.7500411 L49.203084,64.6718829 C49.6437262,65.1125252 50.3561879,65.1125252 50.7968302,64.6718829 Z M66.8749169,70.9999928 C67.4936288,70.9999928 67.9999142,70.4937074 67.9999142,69.8749955 L67.9999142,69.1249973 C67.9999142,68.5062854 67.4936288,68 66.8749169,68 L33.1249973,68 C32.5062854,68 32,68.5062854 32,69.1249973 L32,69.8749955 C32,70.4937074 32.5062854,70.9999928 33.1249973,70.9999928 L66.8749169,70.9999928 Z" id="Combined-Shape" fill="#6C7580"></path>
                    </g>
                </g>
            </g>
        </g>
    </g>
</svg>