<?xml version="1.0" encoding="UTF-8"?>
<svg width="159px" height="50px" viewBox="0 0 159 50" version="1.1" xmlns="http://www.w3.org/2000/svg" xmlns:xlink="http://www.w3.org/1999/xlink">
    <!-- Generator: sketchtool 58 (101010) - https://sketch.com -->
    <title>0E23BCA8-E408-4EC5-99A4-1FE52962AE27</title>
    <desc>Created with sketchtool.</desc>
    <defs>
        <linearGradient x1="99.9155405%" y1="0%" x2="0.0843881255%" y2="0%" id="linearGradient-1">
            <stop stop-color="#6C68C5" offset="0%"></stop>
            <stop stop-color="#14B0BB" offset="99.9155405%"></stop>
        </linearGradient>
        <linearGradient x1="22.9059149%" y1="71.0528128%" x2="70.7811915%" y2="26.9395756%" id="linearGradient-2">
            <stop stop-color="#1B8B9E" offset="0%"></stop>
            <stop stop-color="#7F209E" offset="100%"></stop>
        </linearGradient>
        <linearGradient x1="42.4257447%" y1="68.0425387%" x2="54.4898298%" y2="31.6448593%" id="linearGradient-3">
            <stop stop-color="#000000" stop-opacity="0" offset="27.64%"></stop>
            <stop stop-color="#000000" stop-opacity="0.3" offset="100%"></stop>
        </linearGradient>
        <linearGradient x1="-2.84224651%" y1="90.5319755%" x2="83.6853713%" y2="10.0701844%" id="linearGradient-4">
            <stop stop-color="#FFFFFF" stop-opacity="0" offset="68.84%"></stop>
            <stop stop-color="#FFFFFF" stop-opacity="0.8587" offset="95.6%"></stop>
            <stop stop-color="#FFFFFF" offset="100%"></stop>
        </linearGradient>
        <linearGradient x1="-2.65824144%" y1="90.3618226%" x2="83.4276374%" y2="10.3108034%" id="linearGradient-5">
            <stop stop-color="#FFFFFF" stop-opacity="0" offset="68.84%"></stop>
            <stop stop-color="#FFFFFF" stop-opacity="0.2061" offset="95.6%"></stop>
            <stop stop-color="#FFFFFF" stop-opacity="0.24" offset="100%"></stop>
        </linearGradient>
        <linearGradient x1="-2.84122182%" y1="90.5319755%" x2="83.686396%" y2="10.0701844%" id="linearGradient-6">
            <stop stop-color="#FFFFFF" stop-opacity="0" offset="68.84%"></stop>
            <stop stop-color="#FFFFFF" stop-opacity="0" offset="95.6%"></stop>
            <stop stop-color="#FFFFFF" stop-opacity="0" offset="100%"></stop>
        </linearGradient>
        <linearGradient x1="0.337410075%" y1="0%" x2="100%" y2="0%" id="linearGradient-7">
            <stop stop-color="#16CCD9" offset="0.0844594595%"></stop>
            <stop stop-color="#563DBF" offset="100%"></stop>
        </linearGradient>
    </defs>
    <g id="Main-page" stroke="none" stroke-width="1" fill="none" fill-rule="evenodd">
        <g id="Large-Devices:-Desktops---12-col" transform="translate(-47.000000, -15.000000)">
            <g id="top-menu/L">
                <g id="top-menu">
                    <g id="logo/big/horisontal/color" transform="translate(47.000000, 15.000000)">
                        <g id="Group-2">
                            <g id="Group">
                                <g fill-rule="nonzero" id="Path">
                                    <path d="M0.225233962,49.1464807 C0.225233962,46.4373174 0.112616981,31.1440903 0.112616981,21.0547145 L0.112616981,18.3162019 C0.112616981,8.22456839 8.27509575,0.0451527224 18.3408015,0.0451527224 L34.8121611,0.0451527224 C44.8801192,0.0451527224 53.0403456,8.22682603 53.0403456,18.3162019 L53.0403456,21.0547145 C53.0403456,31.1463479 44.8778668,39.3257636 34.8121611,39.3257636 C34.8121611,39.3257636 25.9131673,39.2128818 19.5931023,38.9871182 C15.9961159,38.8584329 11.9351476,38.9871182 6.07906462,43.9539177 C0.222981622,48.9207171 0.225233962,49.1464807 0.225233962,49.1464807 Z" fill="url(#linearGradient-1)"></path>
                                    <g transform="translate(0.000000, 20.996016)">
                                        <path d="M0.112616981,17.8782205 C0.112616981,7.78658699 12.8946443,9.28565737 20.1584396,11.1053121 C26.4649905,12.6856574 35.4743489,15.8463479 42.6818357,14.040239 C52.6484385,11.5432935 53.0425979,0.0586985392 53.0425979,0.0586985392 C53.0425979,10.150332 44.8801192,18.3297477 34.8144134,18.3297477 C34.8144134,18.3297477 25.9154196,18.2168659 19.5953547,17.9911023 C15.9983683,17.862417 11.9374,17.9911023 6.08131696,22.9579017 C0.225233962,27.9247012 0.225233962,28.1504648 0.225233962,28.1504648" fill="url(#linearGradient-2)"></path>
                                        <path d="M0.112616981,17.8782205 C0.112616981,7.78658699 12.8946443,9.28565737 20.1584396,11.1053121 C26.4649905,12.6856574 35.4743489,15.8463479 42.6818357,14.040239 C52.6484385,11.5432935 53.0425979,0.0586985392 53.0425979,0.0586985392 C53.0425979,10.150332 44.8801192,18.3297477 34.8144134,18.3297477 C34.8144134,18.3297477 25.9154196,18.2168659 19.5953547,17.9911023 C15.9983683,17.862417 11.9374,17.9911023 6.08131696,22.9579017 C0.225233962,27.9247012 0.225233962,28.1504648 0.225233962,28.1504648" fill="url(#linearGradient-3)"></path>
                                    </g>
                                </g>
                                <g transform="translate(3.378509, 3.386454)" id="Path" stroke-width="1.5">
                                    <path d="M0.252262037,42.8657371 C0.252262037,40.501992 0.153159094,27.1661355 0.153159094,18.3658699 L0.153159094,15.9772908 C0.153159094,7.17702523 7.27055228,0.0428950863 16.0501721,0.0428950863 L30.4155942,0.0428950863 C39.195214,0.0428950863 46.3126072,7.17702523 46.3126072,15.9772908 L46.3126072,18.3658699 C46.3126072,27.1661355 39.195214,34.3002656 30.4155942,34.3002656 C30.4155942,34.3002656 22.6540318,34.2009296 17.1448092,34.0045153 C14.0095524,33.8916335 10.4666222,34.0045153 5.35831594,38.336919 C0.250009697,42.6693227 0.252262037,42.8657371 0.252262037,42.8657371 Z" stroke="url(#linearGradient-4)"></path>
                                    <path d="M0.448215583,42.8657371 C0.448215583,40.501992 0.34911264,27.1661355 0.34911264,18.3658699 L0.34911264,15.9772908 C0.34911264,7.17702523 7.46650582,0.0428950863 16.2461256,0.0428950863 L30.6115477,0.0428950863 C39.3911675,0.0428950863 46.5085607,7.17702523 46.5085607,15.9772908 L46.5085607,18.3658699 C46.5085607,27.1661355 39.3911675,34.3002656 30.6115477,34.3002656 C30.6115477,34.3002656 22.8499854,34.2009296 17.3407627,34.0045153 C14.205506,33.8916335 10.6625757,34.0045153 5.55426949,38.336919 C0.445963244,42.6693227 0.448215583,42.8657371 0.448215583,42.8657371 Z" stroke="url(#linearGradient-6)" fill="url(#linearGradient-5)" fill-rule="nonzero"></path>
                                </g>
                            </g>
                            <path d="M62.7050173,30.5721827 L62.7050173,18.9717363 L65.8565372,18.9717363 C66.7805747,18.9717363 67.6090987,19.1881802 68.342134,19.6210745 C69.0751693,20.0539687 69.6468767,20.6740871 70.0572732,21.4814483 C70.4676698,22.2888094 70.672865,23.2077 70.672865,24.2381478 L70.672865,25.3057713 C70.672865,26.3415306 70.4689603,27.2604212 70.0611449,28.0624708 C69.6533294,28.8645203 69.079041,29.4833108 68.3382624,29.9188609 C67.5974837,30.3544109 66.7470206,30.5721827 65.7868476,30.5721827 L62.7050173,30.5721827 Z M63.6574422,19.8083069 L63.6574422,29.7435794 L65.7945909,29.7435794 C66.9819016,29.7435794 67.934317,29.338577 68.6518657,28.5285601 C69.3694144,27.7185432 69.7281833,26.623045 69.7281833,25.2420325 L69.7281833,24.2222131 C69.7281833,22.8890049 69.3745765,21.8213921 68.6673523,21.0193426 C67.960128,20.217293 67.0283612,19.8136185 65.8720238,19.8083069 L63.6574422,19.8083069 Z M77.3011231,25.7439749 L74.0257105,25.7439749 L74.0257105,30.5721827 L73.0655423,30.5721827 L73.0655423,18.9717363 L76.7281195,18.9717363 C77.9309169,18.9717363 78.8704269,19.2718364 79.5466778,19.8720457 C80.2229287,20.4722549 80.5610491,21.311473 80.5610491,22.389725 C80.5610491,23.133347 80.3494013,23.7893181 79.9260992,24.3576578 C79.5027971,24.9259976 78.9349613,25.3190491 78.2225749,25.5368241 L81.0411332,30.4686073 L81.0411332,30.5721827 L80.026762,30.5721827 L77.3011231,25.7439749 Z M74.0257105,24.9074043 L76.9449317,24.9074043 C77.7450759,24.9074043 78.3877627,24.673698 78.8730114,24.2062784 C79.3582602,23.7388588 79.6008809,23.133347 79.6008809,22.389725 C79.6008809,21.5717407 79.3479359,20.9370156 78.8420383,20.4855308 C78.3361406,20.034046 77.6263459,19.8083069 76.7126329,19.8083069 L74.0257105,19.8083069 L74.0257105,24.9074043 Z M89.380659,25.0109797 L84.107477,25.0109797 L84.107477,29.7435794 L90.1704748,29.7435794 L90.1704748,30.5721827 L83.155052,30.5721827 L83.155052,18.9717363 L90.1317583,18.9717363 L90.1317583,19.8083069 L84.107477,19.8083069 L84.107477,24.1823764 L89.380659,24.1823764 L89.380659,25.0109797 Z M98.2622151,27.3215082 L93.143899,27.3215082 L91.9824051,30.5721827 L90.9835205,30.5721827 L95.2500745,18.9717363 L96.1560397,18.9717363 L100.422594,30.5721827 L99.4314523,30.5721827 L98.2622151,27.3215082 Z M93.4381441,26.4849375 L97.9602267,26.4849375 L95.6991854,20.1668372 L93.4381441,26.4849375 Z M103.341815,18.9717363 L107.499963,29.2097677 L111.673597,18.9717363 L112.943497,18.9717363 L112.943497,30.5721827 L111.991072,30.5721827 L111.991072,25.5208894 L112.068505,20.3421187 L107.871641,30.5721827 L107.136028,30.5721827 L102.95465,20.3819554 L103.032083,25.4890201 L103.032083,30.5721827 L102.079658,30.5721827 L102.079658,18.9717363 L103.341815,18.9717363 Z M126.997573,19.8083069 L123.13367,19.8083069 L123.13367,30.5721827 L122.181245,30.5721827 L122.181245,19.8083069 L118.325085,19.8083069 L118.325085,18.9717363 L126.997573,18.9717363 L126.997573,19.8083069 Z M135.042853,25.0109797 L129.769671,25.0109797 L129.769671,29.7435794 L135.832669,29.7435794 L135.832669,30.5721827 L128.817246,30.5721827 L128.817246,18.9717363 L135.793953,18.9717363 L135.793953,19.8083069 L129.769671,19.8083069 L129.769671,24.1823764 L135.042853,24.1823764 L135.042853,25.0109797 Z M143.924409,27.3215082 L138.806093,27.3215082 L137.644599,30.5721827 L136.645715,30.5721827 L140.912269,18.9717363 L141.818234,18.9717363 L146.084788,30.5721827 L145.093646,30.5721827 L143.924409,27.3215082 Z M139.100338,26.4849375 L143.622421,26.4849375 L141.36138,20.1668372 L139.100338,26.4849375 Z M149.004009,18.9717363 L153.162157,29.2097677 L157.335791,18.9717363 L158.605691,18.9717363 L158.605691,30.5721827 L157.653266,30.5721827 L157.653266,25.5208894 L157.730699,20.3421187 L153.533835,30.5721827 L152.798222,30.5721827 L148.616844,20.3819554 L148.694277,25.4890201 L148.694277,30.5721827 L147.741852,30.5721827 L147.741852,18.9717363 L149.004009,18.9717363 Z" id="Logo-text-color" fill="url(#linearGradient-7)"></path>
                        </g>
                    </g>
                </g>
            </g>
        </g>
    </g>
</svg>