<?xml version="1.0" encoding="UTF-8"?>
<svg width="64px" height="61px" viewBox="0 0 64 61" version="1.1" xmlns="http://www.w3.org/2000/svg" xmlns:xlink="http://www.w3.org/1999/xlink">
    <!-- Generator: Sketch 60.1 (88133) - https://sketch.com -->
    <title>Combined Shape</title>
    <desc>Created with Sketch.</desc>
    <defs>
        <linearGradient x1="58.5021607%" y1="34.6568827%" x2="-20.010652%" y2="108.976564%" id="linearGradient-1">
            <stop stop-color="#14B0BB" offset="0%"></stop>
            <stop stop-color="#517EC2" offset="100%"></stop>
        </linearGradient>
    </defs>
    <g id="Downloads-page" stroke="none" stroke-width="1" fill="none" fill-rule="evenodd">
        <g id="Blog-category-page-Extra-large:-Desktops---12-col" transform="translate(-595.000000, -887.000000)" fill="url(#linearGradient-1)">
            <g id="Group-9" transform="translate(165.000000, 831.000000)">
                <g id="Group-7" transform="translate(428.000000, 56.000000)">
                    <path d="M18.4335269,60.0663665 L33.7499195,52.0155816 L49.0663122,60.0663665 C51.7850786,61.4960735 55.031073,59.1992497 54.5037305,56.1171343 L51.57405,39.0663937 L63.9607621,26.99611 C66.1873193,24.8281464 64.9568535,21.0430221 61.8865254,20.5977335 L44.7655183,18.1016686 L37.1132157,2.58603481 C35.7421023,-0.179537822 31.7694097,-0.2146711 30.3866234,2.58603481 L22.7343208,18.1016686 L5.61331364,20.5977335 C2.54298558,21.0430221 1.31251976,24.8281464 3.53907695,26.99611 L15.9257891,39.0663937 L12.9961085,56.1171343 C12.468766,59.1992497 15.7147605,61.5077464 18.4335269,60.0663665 Z M48.3162682,53.3164284 L33.7499195,45.6641258 L19.1835709,53.3164284 L21.9609309,37.0976713 L10.1718279,25.6133237 L26.4608515,23.2461189 L33.7499195,8.48052912 L41.0389875,23.2461189 L57.3280112,25.6133237 L45.5389082,37.0976713 L48.3162682,53.3164284 Z" id="Combined-Shape"></path>
                </g>
            </g>
        </g>
    </g>
</svg>