<?xml version="1.0" encoding="UTF-8"?>
<svg width="75px" height="53px" viewBox="0 0 75 53" version="1.1" xmlns="http://www.w3.org/2000/svg" xmlns:xlink="http://www.w3.org/1999/xlink">
    <!-- Generator: Sketch 60.1 (88133) - https://sketch.com -->
    <title>Combined Shape</title>
    <desc>Created with Sketch.</desc>
    <defs>
        <linearGradient x1="58.5021607%" y1="41.7906953%" x2="-20.010652%" y2="81.5552948%" id="linearGradient-1">
            <stop stop-color="#14B0BB" offset="0%"></stop>
            <stop stop-color="#517EC2" offset="100%"></stop>
        </linearGradient>
    </defs>
    <g id="Downloads-page" stroke="none" stroke-width="1" fill="none" fill-rule="evenodd">
        <g id="Blog-category-page-Extra-large:-Desktops---12-col" transform="translate(-964.000000, -891.000000)" fill="url(#linearGradient-1)">
            <g id="Group-9" transform="translate(165.000000, 831.000000)">
                <g id="Group-6" transform="translate(799.000000, 60.000000)">
                    <path d="M37.4999106,26.5000536 C44.7538453,26.5000536 50.6248793,20.6290197 50.6248793,13.3750849 C50.6248793,6.12115021 44.7538453,0.250116229 37.4999106,0.250116229 C30.2459759,0.250116229 24.3749419,6.12115021 24.3749419,13.3750849 C24.3749419,20.6290197 30.2459759,26.5000536 37.4999106,26.5000536 Z M63.749848,22.7500626 C68.929546,22.7500626 73.1248257,18.554783 73.1248257,13.3750849 C73.1248257,8.1953869 68.929546,4.00010729 63.749848,4.00010729 C58.57015,4.00010729 54.3748704,8.1953869 54.3748704,13.3750849 C54.3748704,18.554783 58.57015,22.7500626 63.749848,22.7500626 Z M11.2499732,22.7500626 C16.4296712,22.7500626 20.6249508,18.554783 20.6249508,13.3750849 C20.6249508,8.1953869 16.4296712,4.00010729 11.2499732,4.00010729 C6.07027514,4.00010729 1.87499553,8.1953869 1.87499553,13.3750849 C1.87499553,18.554783 6.07027514,22.7500626 11.2499732,22.7500626 Z M37.4999106,20.8750671 C33.3632246,20.8750671 29.9999285,17.5117709 29.9999285,13.3750849 C29.9999285,9.23839894 33.3632246,5.87510282 37.4999106,5.87510282 C41.6365966,5.87510282 44.9998927,9.23839894 44.9998927,13.3750849 C44.9998927,17.5117709 41.6365966,20.8750671 37.4999106,20.8750671 Z M63.749848,17.125076 C61.6873987,17.125076 59.9998569,15.4375342 59.9998569,13.3750849 C59.9998569,11.3126356 61.6873987,9.62509388 63.749848,9.62509388 C65.8122973,9.62509388 67.4998391,11.3126356 67.4998391,13.3750849 C67.4998391,15.4375342 65.8122973,17.125076 63.749848,17.125076 Z M11.2499732,17.125076 C9.18752387,17.125076 7.49998212,15.4375342 7.49998212,13.3750849 C7.49998212,11.3126356 9.18752387,9.62509388 11.2499732,9.62509388 C13.3124225,9.62509388 14.9999642,11.3126356 14.9999642,13.3750849 C14.9999642,15.4375342 13.3124225,17.125076 11.2499732,17.125076 Z M72.1756549,39.1562735 C73.7224347,39.1562735 74.9881482,37.8906744 74.9881482,36.3437802 C74.9998212,30.9180347 70.5818401,26.5000536 65.1560947,26.5000536 L62.3436014,26.5000536 C60.3162853,26.5000536 58.4295024,27.121123 56.8592623,28.175808 C58.4295024,29.3594676 59.8124032,30.7773872 60.890434,32.4180083 C61.34751,32.2539004 61.8279318,32.1250402 62.3319284,32.1250402 L65.1444217,32.1250402 C67.4647058,32.1250402 69.3631617,34.0234961 69.3631617,36.3437802 C69.3631617,37.8906744 70.6287607,39.1562735 72.1756549,39.1562735 Z M2.81249329,39.1562735 C4.35938749,39.1562735 5.62498659,37.8906744 5.62498659,36.3437802 C5.62498659,34.0234961 7.52344245,32.1250402 9.84372653,32.1250402 L12.6562198,32.1250402 C13.1718894,32.1250402 13.6523112,32.2539004 14.0975998,32.4180083 C15.187418,30.7773872 16.5703188,29.3594676 18.1405589,28.175808 C16.5703188,27.121123 14.6835359,26.5000536 12.6562198,26.5000536 L9.84372653,26.5000536 C4.4179811,26.5000536 0,30.9180347 0,36.3437802 C0,37.8906744 1.26559909,39.1562735 2.81249329,39.1562735 Z M54.35141,52.7499911 C57.4568714,52.7499911 59.9763966,50.2304658 59.9763966,47.1250045 L59.9763966,41.8750399 C59.9998569,39.0860069 59.1560861,36.4961007 57.7030332,34.3399245 C54.4803846,29.5585943 48.2460016,27.7774401 42.7264149,29.4531945 C41.0624479,29.9570767 39.3163125,30.2383718 37.4882376,30.2383718 C35.6600483,30.2383718 33.9140274,29.9570767 32.249946,29.4531945 C26.7303592,27.7774401 20.4960907,29.5469214 17.2734421,34.3399245 C15.8202748,36.4961007 14.9765039,39.0860069 14.9765039,41.8750399 L14.9765039,47.1250045 C14.9765039,50.2304658 17.4960291,52.7499911 20.6014905,52.7499911 L54.35141,52.7499911 Z M54.3748704,47.1250045 L20.6249508,47.1250045 L20.6249508,41.8750399 C20.6249508,37.6093793 24.0468406,34.117223 28.2890408,34.0000358 C31.277315,35.2421745 34.3709889,35.8750313 37.4999106,35.8750313 C40.6288323,35.8750313 43.7225062,35.2421745 46.7107804,34.0000358 C50.9529806,34.117223 54.3748704,37.5977063 54.3748704,41.8750399 L54.3748704,47.1250045 Z" id="Combined-Shape"></path>
                </g>
            </g>
        </g>
    </g>
</svg>